<?xml version="1.0" encoding="UTF-8" standalone="yes"?>
<COLLADA xmlns="http://www.collada.org/2005/11/COLLADASchema" version="1.4.1">
    <asset>
        <contributor>
            <authoring_tool>3D City Database Importer/Exporter, version 5.5.3; Chair of Geoinformatics, Technical University of Munich</authoring_tool>
        </contributor>
        <created>2026-05-06T15:12:06.256</created>
        <modified>2026-05-06T15:12:06.256</modified>
        <unit meter="1.0" name="meters"/>
        <up_axis>Z_UP</up_axis>
    </asset>
    <library_materials>
        <material id="default_ai_0.2_sh_0.2_tr_0.0_dc_r_0.8_g_0.8_b_0.8_sc_r_1.0_g_1.0_b_1.0_ec_r_0.0_g_0.0_b_0_mat">
            <instance_effect url="#default_ai_0.2_sh_0.2_tr_0.0_dc_r_0.8_g_0.8_b_0.8_sc_r_1.0_g_1.0_b_1.0_ec_r_0.0_g_0.0_b_0_eff"/>
        </material>
        <material id="default_ai_0.2_sh_0.2_tr_0.0_dc_r_1.0_g_0.2_b_0.2_sc_r_1.0_g_1.0_b_1.0_ec_r_0.0_g_0.0_b_0_mat">
            <instance_effect url="#default_ai_0.2_sh_0.2_tr_0.0_dc_r_1.0_g_0.2_b_0.2_sc_r_1.0_g_1.0_b_1.0_ec_r_0.0_g_0.0_b_0_eff"/>
        </material>
    </library_materials>
    <library_effects>
        <effect id="default_ai_0.2_sh_0.2_tr_0.0_dc_r_0.8_g_0.8_b_0.8_sc_r_1.0_g_1.0_b_1.0_ec_r_0.0_g_0.0_b_0_eff">
            <profile_COMMON>
                <technique sid="COMMON">
                    <lambert>
                        <emission>
                            <color>0.0 0.0 0.0 1.0</color>
                        </emission>
                        <diffuse>
                            <color>0.8 0.8 0.8 1.0</color>
                        </diffuse>
                        <reflective>
                            <color>1.0 1.0 1.0 1.0</color>
                        </reflective>
                        <reflectivity>
                            <float>0.2</float>
                        </reflectivity>
                        <transparent opaque="A_ONE">
                            <color>1.0 1.0 1.0 1.0</color>
                        </transparent>
                        <transparency>
                            <float>1.0</float>
                        </transparency>
                    </lambert>
                </technique>
                <extra>
                    <technique profile="GOOGLEEARTH">
                        <double_sided>0</double_sided>
                    </technique>
                </extra>
            </profile_COMMON>
        </effect>
        <effect id="default_ai_0.2_sh_0.2_tr_0.0_dc_r_1.0_g_0.2_b_0.2_sc_r_1.0_g_1.0_b_1.0_ec_r_0.0_g_0.0_b_0_eff">
            <profile_COMMON>
                <technique sid="COMMON">
                    <lambert>
                        <emission>
                            <color>0.0 0.0 0.0 1.0</color>
                        </emission>
                        <diffuse>
                            <color>1.0 0.2 0.2 1.0</color>
                        </diffuse>
                        <reflective>
                            <color>1.0 1.0 1.0 1.0</color>
                        </reflective>
                        <reflectivity>
                            <float>0.2</float>
                        </reflectivity>
                        <transparent opaque="A_ONE">
                            <color>1.0 1.0 1.0 1.0</color>
                        </transparent>
                        <transparency>
                            <float>1.0</float>
                        </transparency>
                    </lambert>
                </technique>
                <extra>
                    <technique profile="GOOGLEEARTH">
                        <double_sided>0</double_sided>
                    </technique>
                </extra>
            </profile_COMMON>
        </effect>
    </library_effects>
    <library_geometries>
        <geometry id="geometry0">
            <mesh>
                <source id="geometry0-position">
                    <float_array id="geometry0-position-array" count="36">-5.24 10.28 4.755 -5.62 0.19 6.259 -5.455 4.559 9.343 0.03 1.05 7.005 0.0 0.0 6.265 0.0 0.0 0.0 0.03 1.05 0.0 -5.62 0.19 0.0 -5.24 10.28 0.0 0.35 10.11 0.0 0.147 4.361 9.343 0.35 10.11 4.733</float_array>
                    <technique_common>
                        <accessor count="12" source="#geometry0-position-array" stride="3">
                            <param name="X" type="float"/>
                            <param name="Y" type="float"/>
                            <param name="Z" type="float"/>
                        </accessor>
                    </technique_common>
                </source>
                <source id="geometry0-normal">
                    <float_array id="geometry0-normal-array" count="120">0.0303974 0.9995379 0.0 0.0303974 0.9995379 0.0 0.0303974 0.9995379 0.0 0.0303974 0.9995379 0.0 0.9995921 -0.0285598 0.0 0.9995921 -0.0285598 0.0 0.9995921 -0.0285598 0.0 0.9995921 -0.0285598 0.0 -0.0337885 -0.999429 0.0 -0.0337885 -0.999429 0.0 -0.0337885 -0.999429 0.0 -0.0337885 -0.999429 0.0 0.9993768 -0.0352981 0.0 0.9993768 -0.0352981 0.0 0.9993768 -0.0352981 0.0 0.9993768 -0.0352981 0.0 -0.9992909 0.0376526 1.227E-4 -0.9992909 0.0376526 1.227E-4 -0.9992909 0.0376526 1.227E-4 0.0220832 0.6249646 0.7803407 0.0220772 0.6249613 0.7803436 0.0220832 0.6249646 0.7803407 0.0220892 0.6249679 0.7803379 -0.0203662 -0.5762188 0.8170416 -0.0201583 -0.5759507 0.8172359 -0.0200637 -0.5759006 0.8172735 -0.0200543 -0.5758166 0.817333 -0.0203474 -0.5760509 0.8171606 0.0 0.0 -1.0 0.0 0.0 -1.0 0.0 0.0 -1.0 0.0 0.0 -1.0 0.0 0.0 -1.0 0.9993767 -0.0353024 -1.74E-5 0.9993767 -0.0353024 -1.74E-5 0.9993767 -0.0353024 -1.74E-5 -0.9992916 0.0376344 0.0 -0.9992916 0.0376344 0.0 -0.9992916 0.0376344 0.0 -0.9992916 0.0376344 0.0</float_array>
                    <technique_common>
                        <accessor count="40" source="#geometry0-normal-array" stride="3">
                            <param name="X" type="float"/>
                            <param name="Y" type="float"/>
                            <param name="Z" type="float"/>
                        </accessor>
                    </technique_common>
                </source>
                <vertices id="geometry0-vertex">
                    <input semantic="POSITION" source="#geometry0-position"/>
                </vertices>
                <triangles count="15" material="default_ai_0.2_sh_0.2_tr_0.0_dc_r_0.8_g_0.8_b_0.8_sc_r_1.0_g_1.0_b_1.0_ec_r_0.0_g_0.0_b_0_tri">
                    <input offset="0" semantic="VERTEX" source="#geometry0-vertex"/>
                    <input offset="1" semantic="NORMAL" source="#geometry0-normal"/>
                    <p>0 0 11 1 9 2 0 0 9 2 8 3 3 4 4 5 5 6 3 4 5 6 6 7 4 8 1 9 7 10 4 8 7 10 5 11 11 12 3 13 6 14 11 12 6 14 9 15 0 16 1 17 2 18 6 28 5 29 7 30 6 28 7 30 8 31 6 28 8 31 9 32 3 33 11 34 10 35 1 36 0 37 8 38 1 36 8 38 7 39</p>
                </triangles>
                <triangles count="5" material="default_ai_0.2_sh_0.2_tr_0.0_dc_r_1.0_g_0.2_b_0.2_sc_r_1.0_g_1.0_b_1.0_ec_r_0.0_g_0.0_b_0_tri">
                    <input offset="0" semantic="VERTEX" source="#geometry0-vertex"/>
                    <input offset="1" semantic="NORMAL" source="#geometry0-normal"/>
                    <p>10 19 11 20 0 21 10 19 0 21 2 22 10 23 2 24 3 25 3 25 2 24 4 26 4 26 2 24 1 27</p>
                </triangles>
            </mesh>
        </geometry>
    </library_geometries>
    <library_visual_scenes>
        <visual_scene id="Building_DEBW_5221000QjWB">
            <node>
                <instance_geometry url="#geometry0">
                    <bind_material>
                        <technique_common>
                            <instance_material symbol="default_ai_0.2_sh_0.2_tr_0.0_dc_r_0.8_g_0.8_b_0.8_sc_r_1.0_g_1.0_b_1.0_ec_r_0.0_g_0.0_b_0_tri" target="#default_ai_0.2_sh_0.2_tr_0.0_dc_r_0.8_g_0.8_b_0.8_sc_r_1.0_g_1.0_b_1.0_ec_r_0.0_g_0.0_b_0_mat"/>
                            <instance_material symbol="default_ai_0.2_sh_0.2_tr_0.0_dc_r_1.0_g_0.2_b_0.2_sc_r_1.0_g_1.0_b_1.0_ec_r_0.0_g_0.0_b_0_tri" target="#default_ai_0.2_sh_0.2_tr_0.0_dc_r_1.0_g_0.2_b_0.2_sc_r_1.0_g_1.0_b_1.0_ec_r_0.0_g_0.0_b_0_mat"/>
                        </technique_common>
                    </bind_material>
                </instance_geometry>
            </node>
        </visual_scene>
    </library_visual_scenes>
    <scene>
        <instance_visual_scene url="#Building_DEBW_5221000QjWB"/>
    </scene>
</COLLADA>
