<?xml version="1.0" encoding="UTF-8" standalone="yes"?>
<COLLADA xmlns="http://www.collada.org/2005/11/COLLADASchema" version="1.4.1">
    <asset>
        <contributor>
            <authoring_tool>3D City Database Importer/Exporter, version 5.5.3; Chair of Geoinformatics, Technical University of Munich</authoring_tool>
        </contributor>
        <created>2026-05-06T15:12:03.505</created>
        <modified>2026-05-06T15:12:03.505</modified>
        <unit meter="1.0" name="meters"/>
        <up_axis>Z_UP</up_axis>
    </asset>
    <library_materials>
        <material id="default_ai_0.2_sh_0.2_tr_0.0_dc_r_0.8_g_0.8_b_0.8_sc_r_1.0_g_1.0_b_1.0_ec_r_0.0_g_0.0_b_0_mat">
            <instance_effect url="#default_ai_0.2_sh_0.2_tr_0.0_dc_r_0.8_g_0.8_b_0.8_sc_r_1.0_g_1.0_b_1.0_ec_r_0.0_g_0.0_b_0_eff"/>
        </material>
        <material id="default_ai_0.2_sh_0.2_tr_0.0_dc_r_1.0_g_0.2_b_0.2_sc_r_1.0_g_1.0_b_1.0_ec_r_0.0_g_0.0_b_0_mat">
            <instance_effect url="#default_ai_0.2_sh_0.2_tr_0.0_dc_r_1.0_g_0.2_b_0.2_sc_r_1.0_g_1.0_b_1.0_ec_r_0.0_g_0.0_b_0_eff"/>
        </material>
    </library_materials>
    <library_effects>
        <effect id="default_ai_0.2_sh_0.2_tr_0.0_dc_r_0.8_g_0.8_b_0.8_sc_r_1.0_g_1.0_b_1.0_ec_r_0.0_g_0.0_b_0_eff">
            <profile_COMMON>
                <technique sid="COMMON">
                    <lambert>
                        <emission>
                            <color>0.0 0.0 0.0 1.0</color>
                        </emission>
                        <diffuse>
                            <color>0.8 0.8 0.8 1.0</color>
                        </diffuse>
                        <reflective>
                            <color>1.0 1.0 1.0 1.0</color>
                        </reflective>
                        <reflectivity>
                            <float>0.2</float>
                        </reflectivity>
                        <transparent opaque="A_ONE">
                            <color>1.0 1.0 1.0 1.0</color>
                        </transparent>
                        <transparency>
                            <float>1.0</float>
                        </transparency>
                    </lambert>
                </technique>
                <extra>
                    <technique profile="GOOGLEEARTH">
                        <double_sided>0</double_sided>
                    </technique>
                </extra>
            </profile_COMMON>
        </effect>
        <effect id="default_ai_0.2_sh_0.2_tr_0.0_dc_r_1.0_g_0.2_b_0.2_sc_r_1.0_g_1.0_b_1.0_ec_r_0.0_g_0.0_b_0_eff">
            <profile_COMMON>
                <technique sid="COMMON">
                    <lambert>
                        <emission>
                            <color>0.0 0.0 0.0 1.0</color>
                        </emission>
                        <diffuse>
                            <color>1.0 0.2 0.2 1.0</color>
                        </diffuse>
                        <reflective>
                            <color>1.0 1.0 1.0 1.0</color>
                        </reflective>
                        <reflectivity>
                            <float>0.2</float>
                        </reflectivity>
                        <transparent opaque="A_ONE">
                            <color>1.0 1.0 1.0 1.0</color>
                        </transparent>
                        <transparency>
                            <float>1.0</float>
                        </transparency>
                    </lambert>
                </technique>
                <extra>
                    <technique profile="GOOGLEEARTH">
                        <double_sided>0</double_sided>
                    </technique>
                </extra>
            </profile_COMMON>
        </effect>
    </library_effects>
    <library_geometries>
        <geometry id="geometry0">
            <mesh>
                <source id="geometry0-position">
                    <float_array id="geometry0-position-array" count="285">-1.06 0.39 7.568 0.0 0.0 7.568 0.0 0.0 0.0 -1.06 0.39 0.0 -8.36 -9.44 7.568 -8.36 -9.44 7.609 -8.81 -8.47 7.609 -8.81 -8.47 7.568 -13.32 1.24 7.568 -12.81 2.6 7.568 -12.81 2.6 0.0 -13.32 1.24 0.0 -5.95 11.86 7.568 -5.95 11.86 8.04 -4.8 9.41 8.03 -4.8 9.41 7.568 -13.32 1.24 7.605 -12.81 2.6 8.375 1.31 -4.72 7.568 1.79 -5.76 7.568 1.79 -5.76 0.0 1.31 -4.72 0.0 0.87 -1.88 7.737 0.0 0.0 7.736 -1.06 0.39 8.332 -2.19 2.86 8.321 -1.3 3.28 7.585 -4.23 9.65 7.568 -7.1 11.33 8.987 -8.17 11.68 9.602 -8.55 10.66 10.181 -10.252 9.874 11.583 -1.831 -8.278 11.583 -1.08 -7.93 10.964 -1.39 -7.23 10.954 1.79 -5.76 8.334 1.31 -4.72 8.332 0.48 -2.94 8.335 -14.65 6.6 7.568 -14.65 6.6 8.386 -13.41 7.19 9.407 -13.41 7.19 7.568 -13.41 7.19 0.0 -14.65 6.6 0.0 -1.3 3.28 7.568 -2.19 2.86 7.568 -8.17 11.68 7.568 -7.1 11.33 7.568 -7.1 11.33 0.0 -8.17 11.68 0.0 -13.88 8.2 9.406 -13.88 8.2 7.568 -12.08 -1.39 7.568 -12.08 -1.39 7.619 -11.17 -0.97 8.364 -11.17 -0.97 7.568 -11.17 -0.97 0.0 -12.08 -1.39 0.0 -11.97 0.76 8.366 -11.97 0.76 7.568 -1.08 -7.93 7.568 -2.367 -8.527 7.568 -2.367 -8.527 0.0 -1.08 -7.93 0.0 -1.39 -7.23 0.0 -2.757 -8.708 0.0 -6.9 -10.63 0.0 -7.62 -9.09 0.0 -8.36 -9.44 0.0 -8.81 -8.47 0.0 -11.97 0.76 0.0 -13.88 8.2 0.0 -11.172 9.45 0.0 -8.55 10.66 0.0 -5.95 11.86 0.0 -4.8 9.41 0.0 -4.23 9.65 0.0 -1.3 3.28 0.0 -2.19 2.86 0.0 0.87 -1.88 0.0 0.48 -2.94 0.0 -8.55 10.66 7.568 0.48 -2.94 7.568 -11.172 9.45 7.568 0.87 -1.88 7.568 -7.62 -9.09 7.568 -1.39 -7.23 7.568 -2.367 -8.527 11.604 -2.757 -8.708 11.619 -2.757 -8.708 7.568 -11.172 9.45 11.619 -6.9 -10.63 7.568 -11.179 9.447 11.619 -6.9 -10.63 8.222 -7.62 -9.09 8.218</float_array>
                    <technique_common>
                        <accessor count="95" source="#geometry0-position-array" stride="3">
                            <param name="X" type="float"/>
                            <param name="Y" type="float"/>
                            <param name="Z" type="float"/>
                        </accessor>
                    </technique_common>
                </source>
                <source id="geometry0-normal">
                    <float_array id="geometry0-normal-array" count="954">0.9085013 0.4178821 0.0 0.9085013 0.4178821 0.0 0.9085013 0.4178821 0.0 0.9085013 0.4178821 0.0 -0.907652 -0.4197235 0.0 -0.907652 -0.4197235 0.0 -0.907652 -0.4197235 0.0 -0.907652 -0.4197235 0.0 -0.4190582 0.9079593 0.0 -0.4190582 0.9079593 0.0 -0.4190582 0.9079593 0.0 -0.4190582 0.9079593 0.0 -0.9370821 0.349109 0.0 -0.9370821 0.349109 0.0 -0.9370821 0.349109 0.0 -0.9370821 0.349109 0.0 -0.9071361 -0.4208373 0.0 -0.9071361 -0.4208373 0.0 -0.9071361 -0.4208373 0.0 -0.9071361 -0.4208373 0.0 -0.9084906 -0.4179055 0.0 -0.9084906 -0.4179055 0.0 -0.9084906 -0.4179055 0.0 -0.9084906 -0.4179055 0.0 0.4275607 -0.9039866 0.0 0.4275607 -0.9039866 0.0 0.4275607 -0.9039866 0.0 0.4275607 -0.9039866 0.0 -0.9058824 -0.4235293 0.0 -0.9058824 -0.4235293 0.0 -0.9058824 -0.4235293 0.0 -0.9058824 -0.4235293 0.0 -0.9058824 -0.4235293 0.0 -0.9058824 -0.4235293 0.0 -0.9058824 -0.4235293 0.0 -0.9058824 -0.4235293 0.0 -0.4185571 0.9081905 0.0 -0.4185571 0.9081905 0.0 -0.4185571 0.9081905 0.0 -0.4185571 0.9081905 0.0 0.4267755 -0.9043576 0.0 0.4267755 -0.9043576 0.0 0.4267755 -0.9043576 0.0 0.4267755 -0.9043576 0.0 -0.3350098 -0.9422146 0.0 -0.3350098 -0.9422146 0.0 -0.3350098 -0.9422146 0.0 -0.3350098 -0.9422146 0.0 -0.5413646 -0.2511698 0.8023953 -0.5412387 -0.2511764 0.8024781 -0.5376844 -0.2494716 0.8053939 -0.5414293 -0.2511669 0.8023525 -0.5414326 -0.25116 0.8023524 -0.5414089 -0.2510942 0.802389 -0.5414478 -0.2511044 0.8023596 -0.5414358 -0.2510548 0.8023831 -0.5414422 -0.2511513 0.8023488 -0.5414724 -0.2511991 0.8023133 -0.5413374 -0.2510336 0.8024561 -0.5338923 -0.2476708 0.8084666 -0.5302265 -0.2460286 0.8113753 -0.541546 -0.2511517 0.8022785 0.9079595 0.4190581 0.0 0.9079595 0.4190581 0.0 0.9079595 0.4190581 0.0 0.9079595 0.4190581 0.0 0.4209743 -0.9070725 0.0 0.4209743 -0.9070725 0.0 0.4209743 -0.9070725 0.0 0.4209743 -0.9070725 0.0 0.9384941 -0.345295 0.0 0.9384941 -0.345295 0.0 0.9384941 -0.345295 0.0 0.9384941 -0.345295 0.0 -0.9066411 -0.4219026 0.0 -0.9066411 -0.4219026 0.0 -0.9066411 -0.4219026 0.0 -0.9066411 -0.4219026 0.0 -0.4185571 0.9081905 0.0 -0.4185571 0.9081905 0.0 -0.4185571 0.9081905 0.0 -0.4185571 0.9081905 0.0 0.0215183 0.0093252 0.999725 0.0316294 0.0146727 0.999392 0.031918 0.0148142 0.9993808 0.0217145 0.0094165 0.9997199 0.0164665 0.0066459 0.9998423 0.0322177 0.0149463 0.9993691 0.5629075 0.2612143 0.784157 0.5821278 0.270149 0.7669072 0.5570799 0.2577042 0.7894622 0.5435465 0.2518377 0.800709 0.5443822 0.2512748 0.8003181 0.5432735 0.2520004 0.8008431 0.5431284 0.2520707 0.8009194 0.5432565 0.2520512 0.8008386 0.5432793 0.2520447 0.8008252 0.543281 0.2520354 0.8008271 0.5432966 0.2520362 0.8008162 0.5432651 0.2520016 0.8008484 0.5433233 0.252066 0.8007887 0.5430965 0.2518364 0.8010148 0.5433115 0.2518927 0.8008512 0.5434055 0.2520247 0.8007458 0.5434074 0.2518 0.8008153 0.5431164 0.2519541 0.8009642 -0.3880566 0.9216355 0.0 -0.3880566 0.9216355 0.0 -0.3880566 0.9216355 0.0 -0.9078468 -0.419302 0.0 -0.9078468 -0.419302 0.0 -0.9078468 -0.419302 0.0 -0.9078468 -0.419302 0.0 0.9093551 0.4160208 0.0 0.9093551 0.4160208 0.0 0.9093551 0.4160208 0.0 0.9093551 0.4160208 0.0 -0.9078468 -0.419302 0.0 -0.9078468 -0.419302 0.0 -0.9078468 -0.419302 0.0 -0.9078468 -0.419302 0.0 -0.4065 0.9134626 -0.0185454 -0.4191007 0.9079399 0.0 -0.4191007 0.9079399 0.0 -0.4065 0.9134626 -0.0185454 -0.3936825 0.9184983 -0.0370809 0.4275607 -0.9039866 0.0 0.4275607 -0.9039866 0.0 0.4275607 -0.9039866 0.0 0.4275607 -0.9039866 0.0 -0.429651 0.902995 0.0 -0.429651 0.902995 0.0 -0.429651 0.902995 0.0 -0.4296511 0.902995 0.0 -0.3350098 -0.9422146 0.0 -0.3350098 -0.9422146 0.0 -0.3350098 -0.9422146 0.0 -0.3350098 -0.9422146 0.0 0.9093551 0.4160208 0.0 0.9093551 0.4160208 0.0 0.9093551 0.4160208 0.0 0.9093551 0.4160208 0.0 0.4208346 -0.9071374 0.0 0.4208346 -0.9071374 0.0 0.4208346 -0.9071374 0.0 0.4208346 -0.9071374 0.0 0.9075351 0.4199763 0.0 0.9075351 0.4199763 0.0 0.9075351 0.4199763 0.0 0.9075351 0.4199763 0.0 0.4208347 -0.9071375 0.0 0.4208347 -0.9071375 0.0 0.4208347 -0.9071375 0.0 0.4208346 -0.9071373 0.0 -0.907652 -0.4197235 0.0 -0.907652 -0.4197235 0.0 -0.907652 -0.4197235 0.0 -0.907652 -0.4197235 0.0 0.9143494 0.4049262 0.0 0.9143494 0.4049262 0.0 0.9143494 0.4049262 0.0 0.9143494 0.4049262 0.0 0.9085013 0.4178821 0.0 0.9085013 0.4178821 0.0 0.9085013 0.4178821 0.0 -0.9363293 0.351123 0.0 -0.9363293 0.351123 0.0 -0.9363293 0.351123 0.0 -0.9363293 0.351123 0.0 0.907535 0.4199764 0.0 0.9075351 0.4199764 0.0 0.907535 0.4199764 0.0 0.907535 0.4199764 0.0 0.4196011 -0.9077086 0.0 0.4196011 -0.9077086 0.0 0.4196011 -0.9077086 0.0 0.4196011 -0.9077086 0.0 0.420801 -0.907153 0.0 0.420801 -0.907153 0.0 0.420801 -0.907153 0.0 0.420801 -0.907153 0.0 -0.3880566 0.9216355 0.0 -0.3880566 0.9216355 0.0 -0.3880566 0.9216355 0.0 -0.3880566 0.9216355 0.0 0.9384942 -0.345295 0.0 0.9384941 -0.345295 0.0 0.9384942 -0.345295 0.0 0.9384941 -0.345295 0.0 0.3108934 0.9504448 0.0 0.3108934 0.9504448 0.0 0.3108934 0.9504448 0.0 0.3108934 0.9504448 0.0 0.905237 0.4249071 0.0 0.905237 0.4249071 0.0 0.905237 0.4249071 0.0 0.905237 0.4249071 0.0 0.4209743 -0.9070725 0.0 0.4209743 -0.9070725 0.0 0.4209743 -0.9070725 0.0 0.4209743 -0.9070725 0.0 -0.4296511 0.902995 0.0 -0.4296511 0.902995 0.0 -0.4296511 0.902995 0.0 -0.4296511 0.902995 0.0 0.345295 0.9384941 0.0 0.345295 0.9384941 0.0 0.345295 0.9384941 0.0 0.345295 0.9384941 0.0 0.4196011 -0.9077086 0.0 0.4196011 -0.9077086 0.0 0.4196011 -0.9077086 0.0 0.4196011 -0.9077086 0.0 0.0 0.0 -1.0 0.0 0.0 -1.0 0.0 0.0 -1.0 0.0 0.0 -1.0 0.0 0.0 -1.0 0.0 0.0 -1.0 0.0 0.0 -1.0 0.0 0.0 -1.0 0.0 0.0 -1.0 0.0 0.0 -1.0 0.0 0.0 -1.0 0.0 0.0 -1.0 0.0 0.0 -1.0 0.0 0.0 -1.0 0.0 0.0 -1.0 0.0 0.0 -1.0 0.0 0.0 -1.0 0.0 0.0 -1.0 0.0 0.0 -1.0 0.0 0.0 -1.0 0.0 0.0 -1.0 0.0 0.0 -1.0 0.0 0.0 -1.0 0.0 0.0 -1.0 0.0 0.0 -1.0 0.0 0.0 -1.0 0.0 0.0 -1.0 0.0 0.0 -1.0 0.0 0.0 -1.0 0.0 0.0 -1.0 0.0 0.0 -1.0 0.4267756 -0.9043577 0.0 0.4267755 -0.9043576 0.0 0.4267756 -0.9043577 0.0 0.4267755 -0.9043577 0.0 -0.9071361 -0.4208373 0.0 -0.9071361 -0.4208373 0.0 -0.9071361 -0.4208373 0.0 -0.9071361 -0.4208373 0.0 -0.9084905 -0.4179054 0.0 -0.9084905 -0.4179054 0.0 -0.9084905 -0.4179054 0.0 -0.9084905 -0.4179054 0.0 0.3108934 0.9504448 0.0 0.3108934 0.9504448 0.0 0.3108934 0.9504448 0.0 0.3108934 0.9504448 0.0 -0.9370821 0.349109 0.0 -0.9370821 0.349109 0.0 -0.9370821 0.349109 0.0 -0.9370821 0.349109 0.0 -0.4191007 0.9079398 0.0 -0.4191007 0.9079398 0.0 -0.4191007 0.9079398 0.0 -0.4191007 0.9079398 0.0 0.905237 0.4249071 0.0 0.905237 0.424907 0.0 0.905237 0.4249071 0.0 0.905237 0.4249071 0.0 0.9063132 0.4226067 0.0 0.9063131 0.4226067 0.0 0.9063132 0.4226067 0.0 0.9063132 0.4226067 0.0 0.4209854 -0.9070672 4.509E-4 0.420801 -0.907153 0.0 0.420801 -0.907153 0.0 0.4210777 -0.9070243 6.763E-4 0.4213541 -0.9068952 0.0013526 0.345295 0.9384941 0.0 0.345295 0.9384941 0.0 0.345295 0.9384941 0.0 0.345295 0.9384941 0.0 -0.9066411 -0.4219026 0.0 -0.9066412 -0.4219027 0.0 -0.9066411 -0.4219026 0.0 -0.9066411 -0.4219026 0.0 -0.4190143 0.9079797 0.0 -0.4190143 0.9079797 0.0 -0.4190143 0.9079797 0.0 -0.4190143 0.9079797 0.0 -0.4187681 0.9080931 5.443E-4 -0.4190143 0.9079796 0.0 -0.4190143 0.9079796 0.0 -0.4187681 0.9080931 5.443E-4 -0.4185217 0.9082061 0.0010887 0.9079595 0.4190581 0.0 0.9079594 0.4190581 0.0 0.9079595 0.4190581 0.0 0.9079595 0.4190581 0.0 -0.4190582 0.9079593 0.0 -0.4190582 0.9079593 0.0 -0.4190582 0.9079593 0.0 -0.4190582 0.9079593 0.0 0.9063132 0.4226067 0.0 0.9063132 0.4226067 0.0 0.9063132 0.4226067 0.0 0.9063132 0.4226067 0.0 0.9143494 0.4049262 0.0 0.9143494 0.4049262 0.0 0.9143494 0.4049262 0.0 0.9143494 0.4049262 0.0 -0.9363293 0.351123 0.0 -0.9363293 0.351123 0.0 -0.9363293 0.351123 0.0 -0.9363293 0.351123 0.0</float_array>
                    <technique_common>
                        <accessor count="318" source="#geometry0-normal-array" stride="3">
                            <param name="X" type="float"/>
                            <param name="Y" type="float"/>
                            <param name="Z" type="float"/>
                        </accessor>
                    </technique_common>
                </source>
                <vertices id="geometry0-vertex">
                    <input semantic="POSITION" source="#geometry0-position"/>
                </vertices>
                <triangles count="154" material="default_ai_0.2_sh_0.2_tr_0.0_dc_r_0.8_g_0.8_b_0.8_sc_r_1.0_g_1.0_b_1.0_ec_r_0.0_g_0.0_b_0_tri">
                    <input offset="0" semantic="VERTEX" source="#geometry0-vertex"/>
                    <input offset="1" semantic="NORMAL" source="#geometry0-normal"/>
                    <p>27 0 44 1 77 2 27 0 77 2 76 3 55 4 59 5 70 6 55 4 70 6 56 7 52 8 55 9 56 10 52 8 56 10 57 11 81 12 30 13 29 14 81 12 29 14 46 15 4 16 5 17 6 18 4 16 6 18 7 19 9 20 38 21 43 22 9 20 43 22 10 23 85 24 94 25 5 26 85 24 5 26 4 27 91 28 85 29 67 30 91 28 67 30 66 31 91 32 93 33 94 34 91 32 94 34 85 35 47 36 28 37 13 38 47 36 13 38 12 39 44 40 45 41 78 42 44 40 78 42 77 43 59 44 58 45 16 46 59 44 16 46 8 47 18 62 19 63 20 64 18 62 20 64 21 65 61 66 89 67 65 68 61 66 65 68 62 69 84 70 82 71 80 72 84 70 80 72 79 73 41 74 51 75 71 76 41 74 71 76 42 77 47 78 12 79 74 80 47 78 74 80 48 81 15 106 14 107 27 108 7 109 6 110 53 111 7 109 53 111 52 112 45 113 25 114 24 115 45 113 24 115 0 116 7 117 52 118 57 119 7 117 57 119 69 120 90 121 83 122 51 123 90 121 51 123 50 124 90 121 50 124 92 125 85 126 4 127 68 128 85 126 68 128 67 129 38 130 39 131 40 132 38 130 40 132 41 133 59 134 8 135 11 136 59 134 11 136 70 137 45 138 0 139 3 140 45 138 3 140 78 141 89 142 91 143 66 144 89 142 66 144 65 145 1 146 84 147 79 148 1 146 79 148 2 149 89 150 88 151 93 152 89 150 93 152 91 153 55 154 54 155 58 156 55 154 58 156 59 157 86 158 60 159 63 160 86 158 63 160 64 161 27 162 26 163 44 164 8 165 9 166 10 167 8 165 10 167 11 168 1 169 23 170 22 171 1 169 22 171 84 172 19 173 86 174 64 175 19 173 64 175 20 176 60 177 61 178 62 179 60 177 62 179 63 180 15 181 27 182 76 183 15 181 76 183 75 184 84 185 22 186 37 187 84 185 37 187 82 188 46 189 29 190 28 191 46 189 28 191 47 192 12 193 15 194 75 195 12 193 75 195 74 196 61 197 87 198 88 199 61 197 88 199 89 200 38 201 41 202 42 203 38 201 42 203 43 204 0 205 24 206 23 207 0 205 23 207 1 208 19 209 35 210 34 211 19 209 34 211 86 212 2 213 79 214 80 215 3 216 2 213 80 215 76 217 77 218 78 219 75 220 76 217 78 219 74 221 75 220 78 219 48 222 74 221 78 219 48 222 78 219 3 216 48 222 3 216 80 215 48 222 80 215 21 223 48 222 21 223 20 224 48 222 20 224 64 225 49 226 48 222 64 225 73 227 49 226 64 225 72 228 73 227 64 225 72 228 64 225 63 229 72 228 63 229 62 230 72 228 62 230 65 231 72 228 65 231 66 232 72 228 66 232 67 233 72 228 67 233 68 234 72 228 68 234 69 235 42 236 71 237 72 228 42 236 72 228 69 235 10 238 43 239 42 236 70 240 11 241 10 238 70 240 10 238 42 236 56 242 70 240 42 236 56 242 42 236 69 235 56 242 69 235 57 243 44 244 26 245 25 246 44 244 25 246 45 247 4 248 7 249 69 250 4 248 69 250 68 251 9 252 17 253 39 254 9 252 39 254 38 255 46 256 47 257 48 258 46 256 48 258 49 259 81 260 46 261 49 262 81 260 49 262 73 263 51 264 83 265 72 266 51 264 72 266 71 267 12 268 13 269 14 270 12 268 14 270 15 271 82 272 37 273 36 274 82 272 36 274 18 275 87 276 61 277 60 278 87 276 60 278 33 279 87 276 33 279 32 280 0 281 1 282 2 283 0 281 2 283 3 284 41 285 40 286 50 287 41 285 50 287 51 288 83 289 81 290 73 291 83 289 73 291 72 292 30 293 81 294 83 295 30 293 83 295 90 296 30 293 90 296 31 297 18 298 36 299 35 300 18 298 35 300 19 301 52 302 53 303 54 304 52 302 54 304 55 305 82 306 18 307 21 308 82 306 21 308 80 309 86 310 34 311 33 312 86 310 33 312 60 313 8 314 16 315 17 316 8 314 17 316 9 317</p>
                </triangles>
                <triangles count="32" material="default_ai_0.2_sh_0.2_tr_0.0_dc_r_1.0_g_0.2_b_0.2_sc_r_1.0_g_1.0_b_1.0_ec_r_0.0_g_0.0_b_0_tri">
                    <input offset="0" semantic="VERTEX" source="#geometry0-vertex"/>
                    <input offset="1" semantic="NORMAL" source="#geometry0-normal"/>
                    <p>40 48 39 49 17 50 92 51 50 52 40 48 92 51 40 48 17 50 88 53 92 51 17 50 94 54 93 55 88 53 6 56 5 57 94 54 6 56 94 54 88 53 53 58 6 56 88 53 54 59 53 58 88 53 54 59 88 53 17 50 58 60 54 59 17 50 58 60 17 50 16 61 92 82 88 83 87 84 92 82 87 84 32 85 90 86 92 82 32 85 90 86 32 85 31 87 35 88 36 89 37 90 34 91 35 88 37 90 34 91 37 90 22 92 34 91 22 92 23 93 34 91 23 93 24 94 34 91 24 94 25 95 32 96 33 97 34 91 32 96 34 91 25 95 31 98 32 96 25 95 31 98 25 95 26 99 30 100 31 98 26 99 29 101 30 100 26 99 28 102 29 101 26 99 14 103 13 104 28 102 14 103 28 102 26 99 14 103 26 99 27 105</p>
                </triangles>
            </mesh>
        </geometry>
    </library_geometries>
    <library_visual_scenes>
        <visual_scene id="Building_DEBW_5221000Qw9q">
            <node>
                <instance_geometry url="#geometry0">
                    <bind_material>
                        <technique_common>
                            <instance_material symbol="default_ai_0.2_sh_0.2_tr_0.0_dc_r_0.8_g_0.8_b_0.8_sc_r_1.0_g_1.0_b_1.0_ec_r_0.0_g_0.0_b_0_tri" target="#default_ai_0.2_sh_0.2_tr_0.0_dc_r_0.8_g_0.8_b_0.8_sc_r_1.0_g_1.0_b_1.0_ec_r_0.0_g_0.0_b_0_mat"/>
                            <instance_material symbol="default_ai_0.2_sh_0.2_tr_0.0_dc_r_1.0_g_0.2_b_0.2_sc_r_1.0_g_1.0_b_1.0_ec_r_0.0_g_0.0_b_0_tri" target="#default_ai_0.2_sh_0.2_tr_0.0_dc_r_1.0_g_0.2_b_0.2_sc_r_1.0_g_1.0_b_1.0_ec_r_0.0_g_0.0_b_0_mat"/>
                        </technique_common>
                    </bind_material>
                </instance_geometry>
            </node>
        </visual_scene>
    </library_visual_scenes>
    <scene>
        <instance_visual_scene url="#Building_DEBW_5221000Qw9q"/>
    </scene>
</COLLADA>
