<?xml version="1.0" encoding="UTF-8" standalone="yes"?>
<COLLADA xmlns="http://www.collada.org/2005/11/COLLADASchema" version="1.4.1">
    <asset>
        <contributor>
            <authoring_tool>3D City Database Importer/Exporter, version 5.5.3; Chair of Geoinformatics, Technical University of Munich</authoring_tool>
        </contributor>
        <created>2026-05-06T15:12:16.552</created>
        <modified>2026-05-06T15:12:16.552</modified>
        <unit meter="1.0" name="meters"/>
        <up_axis>Z_UP</up_axis>
    </asset>
    <library_materials>
        <material id="default_ai_0.2_sh_0.2_tr_0.0_dc_r_0.8_g_0.8_b_0.8_sc_r_1.0_g_1.0_b_1.0_ec_r_0.0_g_0.0_b_0_mat">
            <instance_effect url="#default_ai_0.2_sh_0.2_tr_0.0_dc_r_0.8_g_0.8_b_0.8_sc_r_1.0_g_1.0_b_1.0_ec_r_0.0_g_0.0_b_0_eff"/>
        </material>
        <material id="default_ai_0.2_sh_0.2_tr_0.0_dc_r_1.0_g_0.2_b_0.2_sc_r_1.0_g_1.0_b_1.0_ec_r_0.0_g_0.0_b_0_mat">
            <instance_effect url="#default_ai_0.2_sh_0.2_tr_0.0_dc_r_1.0_g_0.2_b_0.2_sc_r_1.0_g_1.0_b_1.0_ec_r_0.0_g_0.0_b_0_eff"/>
        </material>
    </library_materials>
    <library_effects>
        <effect id="default_ai_0.2_sh_0.2_tr_0.0_dc_r_0.8_g_0.8_b_0.8_sc_r_1.0_g_1.0_b_1.0_ec_r_0.0_g_0.0_b_0_eff">
            <profile_COMMON>
                <technique sid="COMMON">
                    <lambert>
                        <emission>
                            <color>0.0 0.0 0.0 1.0</color>
                        </emission>
                        <diffuse>
                            <color>0.8 0.8 0.8 1.0</color>
                        </diffuse>
                        <reflective>
                            <color>1.0 1.0 1.0 1.0</color>
                        </reflective>
                        <reflectivity>
                            <float>0.2</float>
                        </reflectivity>
                        <transparent opaque="A_ONE">
                            <color>1.0 1.0 1.0 1.0</color>
                        </transparent>
                        <transparency>
                            <float>1.0</float>
                        </transparency>
                    </lambert>
                </technique>
                <extra>
                    <technique profile="GOOGLEEARTH">
                        <double_sided>0</double_sided>
                    </technique>
                </extra>
            </profile_COMMON>
        </effect>
        <effect id="default_ai_0.2_sh_0.2_tr_0.0_dc_r_1.0_g_0.2_b_0.2_sc_r_1.0_g_1.0_b_1.0_ec_r_0.0_g_0.0_b_0_eff">
            <profile_COMMON>
                <technique sid="COMMON">
                    <lambert>
                        <emission>
                            <color>0.0 0.0 0.0 1.0</color>
                        </emission>
                        <diffuse>
                            <color>1.0 0.2 0.2 1.0</color>
                        </diffuse>
                        <reflective>
                            <color>1.0 1.0 1.0 1.0</color>
                        </reflective>
                        <reflectivity>
                            <float>0.2</float>
                        </reflectivity>
                        <transparent opaque="A_ONE">
                            <color>1.0 1.0 1.0 1.0</color>
                        </transparent>
                        <transparency>
                            <float>1.0</float>
                        </transparency>
                    </lambert>
                </technique>
                <extra>
                    <technique profile="GOOGLEEARTH">
                        <double_sided>0</double_sided>
                    </technique>
                </extra>
            </profile_COMMON>
        </effect>
    </library_effects>
    <library_geometries>
        <geometry id="geometry0">
            <mesh>
                <source id="geometry0-position">
                    <float_array id="geometry0-position-array" count="96">0.69 -1.83 7.96 0.0 0.0 8.032 0.0 0.0 0.0 0.69 -1.83 0.0 0.32 -0.85 8.568 12.37 -0.27 6.656 7.99 -1.77 6.642 7.99 -1.77 0.0 12.37 -0.27 0.0 -1.98 5.05 4.835 8.62 8.61 4.838 8.62 8.61 0.0 -1.98 5.05 0.0 10.61 4.04 7.769 10.15 5.39 6.927 9.0 8.74 4.837 -0.5 0.8 7.49 -0.78 0.69 7.499 -0.44 -0.17 8.044 11.32 2.85 8.568 10.9 4.1 7.79 10.9 4.1 0.0 10.61 4.04 0.0 0.96 -2.53 7.525 7.49 -0.41 7.483 -0.5 0.8 0.0 -0.44 -0.17 0.0 -0.78 0.69 0.0 7.49 -0.41 0.0 10.15 5.39 0.0 0.96 -2.53 0.0 9.0 8.74 0.0</float_array>
                    <technique_common>
                        <accessor count="32" source="#geometry0-position-array" stride="3">
                            <param name="X" type="float"/>
                            <param name="Y" type="float"/>
                            <param name="Z" type="float"/>
                        </accessor>
                    </technique_common>
                </source>
                <source id="geometry0-normal">
                    <float_array id="geometry0-normal-array" count="300">-0.9443768 -0.3288653 0.0 -0.9443769 -0.3288654 0.0 -0.9443768 -0.3288653 0.0 -0.9443768 -0.3288653 0.0 0.9458222 0.3246851 0.0 0.9458222 0.3246851 0.0 0.9458222 0.3246851 0.0 0.9458222 0.3246852 0.0 -0.9330016 -0.3598721 0.0 -0.9330016 -0.3598721 0.0 -0.9330016 -0.3598721 0.0 -0.9330016 -0.3598721 0.0 -0.3183732 0.9479654 0.0 -0.3183732 0.9479654 0.0 -0.3183732 0.9479654 0.0 -0.3183732 0.9479654 0.0 0.3087896 -0.9511304 0.0 0.3087896 -0.9511303 0.0 0.3087896 -0.9511304 0.0 0.3087896 -0.9511304 0.0 -0.9356973 -0.3528039 0.0 -0.9356973 -0.3528039 0.0 -0.9356973 -0.3528039 0.0 -0.9356973 -0.3528039 0.0 -0.9299607 -0.3676589 0.0 -0.9299607 -0.3676589 0.0 -0.9299607 -0.3676589 0.0 -0.9299607 -0.3676589 0.0 0.9478121 0.3188293 0.0 0.9478121 0.3188293 0.0 0.9478121 0.3188293 0.0 0.9478121 0.3188293 0.0 -0.9385785 -0.3450656 0.0 -0.9385785 -0.3450656 0.0 -0.9385785 -0.3450656 0.0 -0.9385785 -0.3450657 0.0 -0.9357075 -0.3527759 -8.081E-4 -0.9357075 -0.3527759 -8.081E-4 -0.9357075 -0.3527759 -8.081E-4 -0.2026054 0.9792604 0.0 -0.2026054 0.9792604 0.0 -0.2026054 0.9792604 0.0 -0.2026054 0.9792604 0.0 0.9478444 0.318733 4.132E-4 0.9478444 0.318733 4.132E-4 0.9478444 0.318733 4.132E-4 -0.0595612 0.5135823 0.8559706 -0.1111859 0.4983096 0.8598402 -0.1417478 0.4883599 0.8610529 -0.1622656 0.4816756 0.861196 -0.162061 0.4816836 0.86123 -0.1620931 0.4819317 0.8610852 -0.1619938 0.4813009 0.8614567 -0.1621491 0.4822476 0.8608978 -0.1623206 0.4823182 0.860826 -0.1625518 0.4815154 0.8612316 -0.1622552 0.4817941 0.8611316 -0.1621109 0.4819514 0.8610709 0.323993 -0.9460595 0.0 0.323993 -0.9460595 0.0 0.323993 -0.9460595 0.0 0.3239929 -0.9460595 0.0 0.3603993 -0.9327982 0.0 0.3603993 -0.9327981 0.0 0.3603993 -0.9327982 0.0 0.3603993 -0.9327982 0.0 0.0 0.0 -1.0 0.0 0.0 -1.0 0.0 0.0 -1.0 0.0 0.0 -1.0 0.0 0.0 -1.0 0.0 0.0 -1.0 0.0 0.0 -1.0 0.0 0.0 -1.0 0.0 0.0 -1.0 0.0 0.0 -1.0 0.0 0.0 -1.0 0.0 0.0 -1.0 0.0 0.0 -1.0 0.0 0.0 -1.0 0.0 0.0 -1.0 0.9465588 0.3225312 0.0 0.9465588 0.3225312 0.0 0.9465588 0.3225312 0.0 0.9465589 0.3225312 0.0 0.1600436 -0.4759013 0.8648144 0.1600186 -0.4757526 0.8649008 0.1600645 -0.4759018 0.8648102 0.1600703 -0.4759699 0.8647717 0.1601393 -0.4759325 0.8647796 0.160173 -0.4759538 0.8647616 0.1602472 -0.4759927 0.8647264 -0.3656525 0.9307514 0.0 -0.3656525 0.9307514 0.0 -0.3656525 0.9307514 0.0 -0.3656524 0.9307514 0.0 -0.3236878 0.9461639 0.0 -0.3236878 0.9461639 0.0 -0.3236878 0.9461639 0.0 -0.3236878 0.9461639 0.0</float_array>
                    <technique_common>
                        <accessor count="100" source="#geometry0-normal-array" stride="3">
                            <param name="X" type="float"/>
                            <param name="Y" type="float"/>
                            <param name="Z" type="float"/>
                        </accessor>
                    </technique_common>
                </source>
                <vertices id="geometry0-vertex">
                    <input semantic="POSITION" source="#geometry0-position"/>
                </vertices>
                <triangles count="45" material="default_ai_0.2_sh_0.2_tr_0.0_dc_r_0.8_g_0.8_b_0.8_sc_r_1.0_g_1.0_b_1.0_ec_r_0.0_g_0.0_b_0_tri">
                    <input offset="0" semantic="VERTEX" source="#geometry0-vertex"/>
                    <input offset="1" semantic="NORMAL" source="#geometry0-normal"/>
                    <p>16 0 9 1 12 2 16 0 12 2 25 3 15 4 14 5 29 6 15 4 29 6 31 7 23 8 0 9 3 10 23 8 3 10 30 11 9 12 10 13 11 14 9 12 11 14 12 15 24 16 23 17 30 18 24 16 30 18 28 19 0 20 1 21 2 22 0 20 2 22 3 23 18 24 17 25 27 26 18 24 27 26 26 27 20 28 5 29 8 30 20 28 8 30 21 31 6 32 24 33 28 34 6 32 28 34 7 35 1 36 0 37 4 38 13 39 20 40 21 41 13 39 21 41 22 42 5 43 20 44 19 45 5 58 6 59 7 60 5 58 7 60 8 61 1 62 18 63 26 64 1 62 26 64 2 65 11 66 31 67 29 68 11 66 29 68 22 69 12 70 11 66 22 69 25 71 12 70 22 69 25 71 22 69 21 72 25 71 21 72 8 73 27 74 25 71 8 73 2 75 26 76 27 74 2 75 27 74 8 73 30 77 3 78 2 75 28 79 30 77 2 75 28 79 2 75 8 73 28 79 8 73 7 80 14 81 13 82 22 83 14 81 22 83 29 84 17 92 16 93 25 94 17 92 25 94 27 95 10 96 15 97 31 98 10 96 31 98 11 99</p>
                </triangles>
                <triangles count="15" material="default_ai_0.2_sh_0.2_tr_0.0_dc_r_1.0_g_0.2_b_0.2_sc_r_1.0_g_1.0_b_1.0_ec_r_0.0_g_0.0_b_0_tri">
                    <input offset="0" semantic="VERTEX" source="#geometry0-vertex"/>
                    <input offset="1" semantic="NORMAL" source="#geometry0-normal"/>
                    <p>14 46 15 47 13 48 15 47 10 49 13 48 10 49 9 50 13 48 9 50 16 51 13 48 13 48 16 51 20 52 20 52 16 51 19 53 16 51 17 54 19 53 18 55 1 56 17 54 17 54 1 56 19 53 19 53 1 56 4 57 0 85 23 86 24 87 4 88 0 85 24 87 19 89 4 88 24 87 19 89 24 87 6 90 19 89 6 90 5 91</p>
                </triangles>
            </mesh>
        </geometry>
    </library_geometries>
    <library_visual_scenes>
        <visual_scene id="Building_DEBW_5221000QZJo">
            <node>
                <instance_geometry url="#geometry0">
                    <bind_material>
                        <technique_common>
                            <instance_material symbol="default_ai_0.2_sh_0.2_tr_0.0_dc_r_0.8_g_0.8_b_0.8_sc_r_1.0_g_1.0_b_1.0_ec_r_0.0_g_0.0_b_0_tri" target="#default_ai_0.2_sh_0.2_tr_0.0_dc_r_0.8_g_0.8_b_0.8_sc_r_1.0_g_1.0_b_1.0_ec_r_0.0_g_0.0_b_0_mat"/>
                            <instance_material symbol="default_ai_0.2_sh_0.2_tr_0.0_dc_r_1.0_g_0.2_b_0.2_sc_r_1.0_g_1.0_b_1.0_ec_r_0.0_g_0.0_b_0_tri" target="#default_ai_0.2_sh_0.2_tr_0.0_dc_r_1.0_g_0.2_b_0.2_sc_r_1.0_g_1.0_b_1.0_ec_r_0.0_g_0.0_b_0_mat"/>
                        </technique_common>
                    </bind_material>
                </instance_geometry>
            </node>
        </visual_scene>
    </library_visual_scenes>
    <scene>
        <instance_visual_scene url="#Building_DEBW_5221000QZJo"/>
    </scene>
</COLLADA>
