<?xml version="1.0" encoding="UTF-8" standalone="yes"?>
<COLLADA xmlns="http://www.collada.org/2005/11/COLLADASchema" version="1.4.1">
    <asset>
        <contributor>
            <authoring_tool>3D City Database Importer/Exporter, version 5.5.3; Chair of Geoinformatics, Technical University of Munich</authoring_tool>
        </contributor>
        <created>2026-05-06T15:12:06.174</created>
        <modified>2026-05-06T15:12:06.174</modified>
        <unit meter="1.0" name="meters"/>
        <up_axis>Z_UP</up_axis>
    </asset>
    <library_materials>
        <material id="default_ai_0.2_sh_0.2_tr_0.0_dc_r_0.8_g_0.8_b_0.8_sc_r_1.0_g_1.0_b_1.0_ec_r_0.0_g_0.0_b_0_mat">
            <instance_effect url="#default_ai_0.2_sh_0.2_tr_0.0_dc_r_0.8_g_0.8_b_0.8_sc_r_1.0_g_1.0_b_1.0_ec_r_0.0_g_0.0_b_0_eff"/>
        </material>
        <material id="default_ai_0.2_sh_0.2_tr_0.0_dc_r_1.0_g_0.2_b_0.2_sc_r_1.0_g_1.0_b_1.0_ec_r_0.0_g_0.0_b_0_mat">
            <instance_effect url="#default_ai_0.2_sh_0.2_tr_0.0_dc_r_1.0_g_0.2_b_0.2_sc_r_1.0_g_1.0_b_1.0_ec_r_0.0_g_0.0_b_0_eff"/>
        </material>
    </library_materials>
    <library_effects>
        <effect id="default_ai_0.2_sh_0.2_tr_0.0_dc_r_0.8_g_0.8_b_0.8_sc_r_1.0_g_1.0_b_1.0_ec_r_0.0_g_0.0_b_0_eff">
            <profile_COMMON>
                <technique sid="COMMON">
                    <lambert>
                        <emission>
                            <color>0.0 0.0 0.0 1.0</color>
                        </emission>
                        <diffuse>
                            <color>0.8 0.8 0.8 1.0</color>
                        </diffuse>
                        <reflective>
                            <color>1.0 1.0 1.0 1.0</color>
                        </reflective>
                        <reflectivity>
                            <float>0.2</float>
                        </reflectivity>
                        <transparent opaque="A_ONE">
                            <color>1.0 1.0 1.0 1.0</color>
                        </transparent>
                        <transparency>
                            <float>1.0</float>
                        </transparency>
                    </lambert>
                </technique>
                <extra>
                    <technique profile="GOOGLEEARTH">
                        <double_sided>0</double_sided>
                    </technique>
                </extra>
            </profile_COMMON>
        </effect>
        <effect id="default_ai_0.2_sh_0.2_tr_0.0_dc_r_1.0_g_0.2_b_0.2_sc_r_1.0_g_1.0_b_1.0_ec_r_0.0_g_0.0_b_0_eff">
            <profile_COMMON>
                <technique sid="COMMON">
                    <lambert>
                        <emission>
                            <color>0.0 0.0 0.0 1.0</color>
                        </emission>
                        <diffuse>
                            <color>1.0 0.2 0.2 1.0</color>
                        </diffuse>
                        <reflective>
                            <color>1.0 1.0 1.0 1.0</color>
                        </reflective>
                        <reflectivity>
                            <float>0.2</float>
                        </reflectivity>
                        <transparent opaque="A_ONE">
                            <color>1.0 1.0 1.0 1.0</color>
                        </transparent>
                        <transparency>
                            <float>1.0</float>
                        </transparency>
                    </lambert>
                </technique>
                <extra>
                    <technique profile="GOOGLEEARTH">
                        <double_sided>0</double_sided>
                    </technique>
                </extra>
            </profile_COMMON>
        </effect>
    </library_effects>
    <library_geometries>
        <geometry id="geometry0">
            <mesh>
                <source id="geometry0-position">
                    <float_array id="geometry0-position-array" count="51">-15.39 -6.62 8.505 0.0 0.0 8.512 0.0 0.0 0.0 -15.39 -6.62 0.0 4.35 -9.08 8.606 2.325 -4.498 12.305 -13.351 -11.251 12.305 -11.33 -15.84 8.603 1.64 -2.95 8.505 1.64 -2.95 11.034 4.35 -9.08 8.505 -11.33 -15.84 8.505 -11.33 -15.84 0.0 0.29 0.13 8.509 0.29 0.13 0.0 4.35 -9.08 0.0 1.64 -2.95 0.0</float_array>
                    <technique_common>
                        <accessor count="17" source="#geometry0-position-array" stride="3">
                            <param name="X" type="float"/>
                            <param name="Y" type="float"/>
                            <param name="Z" type="float"/>
                        </accessor>
                    </technique_common>
                </source>
                <source id="geometry0-normal">
                    <float_array id="geometry0-normal-array" count="168">0.9158841 0.4014427 0.0 0.9158841 0.4014427 0.0 0.9158841 0.4014427 0.0 0.3958974 -0.9182947 0.0 0.3958974 -0.9182947 0.0 0.3958974 -0.9182947 0.0 0.3958975 -0.9182947 0.0 -0.4090559 0.9125093 0.0 -0.4090559 0.9125093 0.0 -0.4090559 0.9125093 0.0 -0.4090559 0.9125093 0.0 0.9145943 0.4043728 -1.048E-4 0.9146096 0.404338 0.0 0.9146097 0.4043381 0.0 0.9145867 0.4043902 -1.572E-4 0.9145635 0.4044422 -3.144E-4 0.3958975 -0.9182947 0.0 0.3958975 -0.9182947 0.0 0.3958975 -0.9182947 0.0 0.3958975 -0.9182947 0.0 0.9146096 0.404338 0.0 0.9146096 0.404338 0.0 0.9146096 0.404338 0.0 0.9146096 0.404338 0.0 -0.9151888 -0.4030254 -2.98E-5 -0.9151797 -0.403046 0.0 -0.9151888 -0.4030254 -2.98E-5 -0.9151979 -0.4030047 -5.95E-5 0.9158841 0.4014428 0.0 0.9158841 0.4014427 0.0 0.9158841 0.4014428 0.0 0.9158841 0.4014428 0.0 -0.3951436 0.9186195 0.0 -0.3951436 0.9186195 0.0 -0.3951436 0.9186195 0.0 -0.3951436 0.9186193 0.0 -0.9151978 -0.4030047 0.0 -0.9151978 -0.4030047 0.0 -0.9151978 -0.4030047 0.0 -0.9151978 -0.4030047 0.0 0.0 0.0 -1.0 0.0 0.0 -1.0 0.0 0.0 -1.0 0.0 0.0 -1.0 0.0 0.0 -1.0 0.0 0.0 -1.0 0.2350185 -0.5455232 0.8044692 0.235018 -0.5455562 0.804447 0.2350185 -0.5455232 0.8044692 0.2350191 -0.5454902 0.8044915 -0.2375909 0.5514906 0.7996304 -0.2375867 0.5515192 0.7996119 -0.2375878 0.5514791 0.7996392 -0.2379632 0.5513006 0.7996507 -0.2381503 0.5512313 0.7996427 -0.2387036 0.5509489 0.7996724</float_array>
                    <technique_common>
                        <accessor count="56" source="#geometry0-normal-array" stride="3">
                            <param name="X" type="float"/>
                            <param name="Y" type="float"/>
                            <param name="Z" type="float"/>
                        </accessor>
                    </technique_common>
                </source>
                <vertices id="geometry0-vertex">
                    <input semantic="POSITION" source="#geometry0-position"/>
                </vertices>
                <triangles count="24" material="default_ai_0.2_sh_0.2_tr_0.0_dc_r_0.8_g_0.8_b_0.8_sc_r_1.0_g_1.0_b_1.0_ec_r_0.0_g_0.0_b_0_tri">
                    <input offset="0" semantic="VERTEX" source="#geometry0-vertex"/>
                    <input offset="1" semantic="NORMAL" source="#geometry0-normal"/>
                    <p>13 0 9 1 8 2 10 3 4 4 7 5 10 3 7 5 11 6 1 7 13 8 14 9 1 7 14 9 2 10 4 11 10 12 8 13 4 11 8 13 9 14 4 11 9 14 5 15 10 16 11 17 12 18 10 16 12 18 15 19 8 20 10 21 15 22 8 20 15 22 16 23 11 24 7 25 6 26 11 24 6 26 0 27 13 28 8 29 16 30 13 28 16 30 14 31 0 32 1 33 2 34 0 32 2 34 3 35 11 36 0 37 3 38 11 36 3 38 12 39 16 40 15 41 12 42 16 40 12 42 3 43 16 40 3 43 2 44 16 40 2 44 14 45</p>
                </triangles>
                <triangles count="6" material="default_ai_0.2_sh_0.2_tr_0.0_dc_r_1.0_g_0.2_b_0.2_sc_r_1.0_g_1.0_b_1.0_ec_r_0.0_g_0.0_b_0_tri">
                    <input offset="0" semantic="VERTEX" source="#geometry0-vertex"/>
                    <input offset="1" semantic="NORMAL" source="#geometry0-normal"/>
                    <p>4 46 5 47 6 48 4 46 6 48 7 49 0 50 6 51 5 52 0 50 5 52 9 53 1 54 0 50 9 53 1 54 9 53 13 55</p>
                </triangles>
            </mesh>
        </geometry>
    </library_geometries>
    <library_visual_scenes>
        <visual_scene id="Building_DEBW_5221000QhCX">
            <node>
                <instance_geometry url="#geometry0">
                    <bind_material>
                        <technique_common>
                            <instance_material symbol="default_ai_0.2_sh_0.2_tr_0.0_dc_r_0.8_g_0.8_b_0.8_sc_r_1.0_g_1.0_b_1.0_ec_r_0.0_g_0.0_b_0_tri" target="#default_ai_0.2_sh_0.2_tr_0.0_dc_r_0.8_g_0.8_b_0.8_sc_r_1.0_g_1.0_b_1.0_ec_r_0.0_g_0.0_b_0_mat"/>
                            <instance_material symbol="default_ai_0.2_sh_0.2_tr_0.0_dc_r_1.0_g_0.2_b_0.2_sc_r_1.0_g_1.0_b_1.0_ec_r_0.0_g_0.0_b_0_tri" target="#default_ai_0.2_sh_0.2_tr_0.0_dc_r_1.0_g_0.2_b_0.2_sc_r_1.0_g_1.0_b_1.0_ec_r_0.0_g_0.0_b_0_mat"/>
                        </technique_common>
                    </bind_material>
                </instance_geometry>
            </node>
        </visual_scene>
    </library_visual_scenes>
    <scene>
        <instance_visual_scene url="#Building_DEBW_5221000QhCX"/>
    </scene>
</COLLADA>
