<?xml version="1.0" encoding="UTF-8" standalone="yes"?>
<COLLADA xmlns="http://www.collada.org/2005/11/COLLADASchema" version="1.4.1">
    <asset>
        <contributor>
            <authoring_tool>3D City Database Importer/Exporter, version 5.5.3; Chair of Geoinformatics, Technical University of Munich</authoring_tool>
        </contributor>
        <created>2026-05-06T15:12:12.551</created>
        <modified>2026-05-06T15:12:12.551</modified>
        <unit meter="1.0" name="meters"/>
        <up_axis>Z_UP</up_axis>
    </asset>
    <library_materials>
        <material id="default_ai_0.2_sh_0.2_tr_0.0_dc_r_1.0_g_0.2_b_0.2_sc_r_1.0_g_1.0_b_1.0_ec_r_0.0_g_0.0_b_0_mat">
            <instance_effect url="#default_ai_0.2_sh_0.2_tr_0.0_dc_r_1.0_g_0.2_b_0.2_sc_r_1.0_g_1.0_b_1.0_ec_r_0.0_g_0.0_b_0_eff"/>
        </material>
        <material id="default_ai_0.2_sh_0.2_tr_0.0_dc_r_0.8_g_0.8_b_0.8_sc_r_1.0_g_1.0_b_1.0_ec_r_0.0_g_0.0_b_0_mat">
            <instance_effect url="#default_ai_0.2_sh_0.2_tr_0.0_dc_r_0.8_g_0.8_b_0.8_sc_r_1.0_g_1.0_b_1.0_ec_r_0.0_g_0.0_b_0_eff"/>
        </material>
    </library_materials>
    <library_effects>
        <effect id="default_ai_0.2_sh_0.2_tr_0.0_dc_r_1.0_g_0.2_b_0.2_sc_r_1.0_g_1.0_b_1.0_ec_r_0.0_g_0.0_b_0_eff">
            <profile_COMMON>
                <technique sid="COMMON">
                    <lambert>
                        <emission>
                            <color>0.0 0.0 0.0 1.0</color>
                        </emission>
                        <diffuse>
                            <color>1.0 0.2 0.2 1.0</color>
                        </diffuse>
                        <reflective>
                            <color>1.0 1.0 1.0 1.0</color>
                        </reflective>
                        <reflectivity>
                            <float>0.2</float>
                        </reflectivity>
                        <transparent opaque="A_ONE">
                            <color>1.0 1.0 1.0 1.0</color>
                        </transparent>
                        <transparency>
                            <float>1.0</float>
                        </transparency>
                    </lambert>
                </technique>
                <extra>
                    <technique profile="GOOGLEEARTH">
                        <double_sided>0</double_sided>
                    </technique>
                </extra>
            </profile_COMMON>
        </effect>
        <effect id="default_ai_0.2_sh_0.2_tr_0.0_dc_r_0.8_g_0.8_b_0.8_sc_r_1.0_g_1.0_b_1.0_ec_r_0.0_g_0.0_b_0_eff">
            <profile_COMMON>
                <technique sid="COMMON">
                    <lambert>
                        <emission>
                            <color>0.0 0.0 0.0 1.0</color>
                        </emission>
                        <diffuse>
                            <color>0.8 0.8 0.8 1.0</color>
                        </diffuse>
                        <reflective>
                            <color>1.0 1.0 1.0 1.0</color>
                        </reflective>
                        <reflectivity>
                            <float>0.2</float>
                        </reflectivity>
                        <transparent opaque="A_ONE">
                            <color>1.0 1.0 1.0 1.0</color>
                        </transparent>
                        <transparency>
                            <float>1.0</float>
                        </transparency>
                    </lambert>
                </technique>
                <extra>
                    <technique profile="GOOGLEEARTH">
                        <double_sided>0</double_sided>
                    </technique>
                </extra>
            </profile_COMMON>
        </effect>
    </library_effects>
    <library_geometries>
        <geometry id="geometry0">
            <mesh>
                <source id="geometry0-position">
                    <float_array id="geometry0-position-array" count="102">-2.53 -0.82 7.808 0.0 0.0 7.823 0.0 0.0 0.0 -2.53 -0.82 0.0 -10.49 -3.24 7.665 -10.83 -2.2 6.953 -10.83 -2.2 0.0 -10.49 -3.24 0.0 2.74 -6.59 5.957 0.36 0.55 7.558 0.984 -1.321 8.84 -8.39 -0.83 6.61 -3.12 0.95 6.596 -3.12 0.95 0.0 -8.39 -0.83 0.0 -7.6 -13.47 4.267 -0.79 -11.2 4.267 -1.19 -10.0 4.924 3.36 -8.47 4.93 -9.919 -4.956 8.84 -8.56 -9.04 6.606 -9.03 -9.2 6.604 -9.03 -9.2 0.0 -7.6 -13.47 0.0 -8.56 -9.04 0.0 -0.09 0.38 7.57 -0.09 0.38 0.0 -0.79 -11.2 0.0 2.74 -6.59 0.0 0.36 0.55 0.0 -8.2 -1.37 6.982 3.36 -8.47 0.0 -1.19 -10.0 0.0 -8.2 -1.37 0.0</float_array>
                    <technique_common>
                        <accessor count="34" source="#geometry0-position-array" stride="3">
                            <param name="X" type="float"/>
                            <param name="Y" type="float"/>
                            <param name="Z" type="float"/>
                        </accessor>
                    </technique_common>
                </source>
                <source id="geometry0-normal">
                    <float_array id="geometry0-normal-array" count="318">-0.1723458 0.5171565 0.8383591 -0.1723144 0.5168483 0.8385558 -0.17239 0.5171911 0.8383288 -0.1723832 0.5172071 0.8383203 -0.1723887 0.516954 0.8384752 -0.1722872 0.517315 0.8382735 -0.1723336 0.5173198 0.8382609 -0.1723215 0.5167833 0.8385943 -0.1727041 0.5170112 0.8383751 -0.1727924 0.5170302 0.8383452 -0.1730032 0.5171204 0.838246 0.0 0.0 -1.0 0.0 0.0 -1.0 0.0 0.0 -1.0 0.0 0.0 -1.0 0.0 0.0 -1.0 0.0 0.0 -1.0 0.0 0.0 -1.0 0.0 0.0 -1.0 0.0 0.0 -1.0 0.0 0.0 -1.0 0.0 0.0 -1.0 0.0 0.0 -1.0 0.0 0.0 -1.0 0.0 0.0 -1.0 0.0 0.0 -1.0 0.0 0.0 -1.0 -0.9730803 -0.2304664 0.0 -0.9730803 -0.2304664 0.0 -0.9730803 -0.2304664 0.0 -0.9730803 -0.2304664 0.0 0.3162278 -0.9486833 0.0 0.3162278 -0.9486833 0.0 0.3162278 -0.9486833 0.0 0.3162278 -0.9486833 0.0 -0.3083208 0.9512824 0.0 -0.3083208 0.9512824 0.0 -0.3083208 0.9512824 0.0 -0.3083208 0.9512824 0.0 0.9486833 0.3162278 0.0 0.9486833 0.3162278 0.0 0.9486833 0.3162278 0.0 0.9486833 0.3162278 0.0 -0.9482383 -0.3175598 0.0 -0.9482383 -0.3175598 0.0 -0.9482383 -0.3175598 0.0 -0.9482383 -0.3175598 0.0 0.9486833 0.3162277 0.0 0.9486833 0.3162277 0.0 0.9486833 0.3162277 0.0 0.9486833 0.3162277 0.0 0.9486707 0.3162653 -1.858E-4 0.9486707 0.3162653 -1.858E-4 0.9486707 0.3162653 -1.858E-4 0.3187264 -0.9478468 0.0 0.3187265 -0.9478468 0.0 0.3187264 -0.9478468 0.0 0.3187265 -0.9478468 0.0 -0.3534006 0.9354721 0.0 -0.3534006 0.9354721 0.0 -0.3534006 0.9354721 0.0 -0.3534006 0.9354721 0.0 0.9496888 0.3131951 0.0 0.9496889 0.3131952 0.0 0.9496888 0.3131951 0.0 0.9496888 0.3131951 0.0 0.1455918 -0.4370456 0.8875777 0.1450585 -0.4372032 0.8875874 0.1453714 -0.4371279 0.8875732 0.1456243 -0.4372004 0.8874962 0.1456318 -0.4370592 0.8875644 0.1456985 -0.4368128 0.8876747 0.145717 -0.4369589 0.8875999 0.1457193 -0.4370447 0.8875571 0.1457024 -0.4370271 0.8875686 -0.9433122 -0.3319071 0.0 -0.9433122 -0.331907 0.0 -0.9433122 -0.3319071 0.0 -0.9433122 -0.3319071 0.0 -0.9504954 -0.310739 0.0 -0.9504953 -0.310739 0.0 -0.9504954 -0.310739 0.0 -0.9504953 -0.310739 0.0 0.9486833 0.3162279 0.0 0.9486833 0.3162278 0.0 0.9486833 0.3162279 0.0 0.9486833 0.3162278 0.0 -0.3009578 0.9536375 0.0 -0.3009578 0.9536375 0.0 -0.3009578 0.9536375 0.0 -0.3009579 0.9536375 0.0 -0.3200005 0.9474174 0.0 -0.3200005 0.9474174 0.0 -0.3200005 0.9474174 0.0 -0.3200005 0.9474174 0.0 -0.9488473 -0.3157354 -8.6E-6 -0.9488473 -0.3157354 -8.6E-6 -0.9488473 -0.3157354 -8.6E-6 -0.3222639 0.9466498 0.0 -0.3222639 0.9466498 0.0 -0.3222639 0.9466498 0.0 -0.3222639 0.9466498 0.0 -0.9488468 -0.3157368 0.0 -0.9488469 -0.3157369 0.0 -0.9488468 -0.3157368 0.0 -0.9488468 -0.3157369 0.0</float_array>
                    <technique_common>
                        <accessor count="106" source="#geometry0-normal-array" stride="3">
                            <param name="X" type="float"/>
                            <param name="Y" type="float"/>
                            <param name="Z" type="float"/>
                        </accessor>
                    </technique_common>
                </source>
                <vertices id="geometry0-vertex">
                    <input semantic="POSITION" source="#geometry0-position"/>
                </vertices>
                <triangles count="48" material="default_ai_0.2_sh_0.2_tr_0.0_dc_r_0.8_g_0.8_b_0.8_sc_r_1.0_g_1.0_b_1.0_ec_r_0.0_g_0.0_b_0_tri">
                    <input offset="0" semantic="VERTEX" source="#geometry0-vertex"/>
                    <input offset="1" semantic="NORMAL" source="#geometry0-normal"/>
                    <p>7 11 6 12 33 13 24 14 7 11 33 13 23 15 22 16 24 14 23 15 24 14 33 13 27 17 23 15 33 13 27 17 33 13 14 18 32 19 27 17 14 18 32 19 14 18 13 20 32 19 13 20 3 21 32 19 3 21 2 22 31 23 32 19 2 22 31 23 2 22 26 24 31 23 26 24 29 25 31 23 29 25 28 26 1 27 25 28 26 29 1 27 26 29 2 30 16 31 15 32 23 33 16 31 23 33 27 34 0 35 1 36 2 37 0 35 2 37 3 38 9 39 8 40 28 41 9 39 28 41 29 42 15 43 21 44 22 45 15 43 22 45 23 46 12 47 0 48 3 49 12 47 3 49 13 50 8 51 9 52 10 53 18 54 17 55 32 56 18 54 32 56 31 57 25 58 9 59 29 60 25 58 29 60 26 61 8 62 18 63 31 64 8 62 31 64 28 65 30 75 11 76 14 77 30 75 14 77 33 78 4 79 5 80 6 81 4 79 6 81 7 82 17 83 16 84 27 85 17 83 27 85 32 86 5 87 30 88 33 89 5 87 33 89 6 90 11 91 12 92 13 93 11 91 13 93 14 94 4 95 20 96 19 97 21 98 20 99 24 100 21 98 24 100 22 101 20 102 4 103 7 104 20 102 7 104 24 105</p>
                </triangles>
                <triangles count="16" material="default_ai_0.2_sh_0.2_tr_0.0_dc_r_1.0_g_0.2_b_0.2_sc_r_1.0_g_1.0_b_1.0_ec_r_0.0_g_0.0_b_0_tri">
                    <input offset="0" semantic="VERTEX" source="#geometry0-vertex"/>
                    <input offset="1" semantic="NORMAL" source="#geometry0-normal"/>
                    <p>4 0 19 1 10 2 5 3 4 0 10 2 30 4 5 3 10 2 11 5 30 4 10 2 0 6 12 7 11 5 0 6 11 5 10 2 1 8 0 6 10 2 1 8 10 2 9 9 1 8 9 9 25 10 20 66 21 67 15 68 20 66 15 68 16 69 20 66 16 69 17 70 20 66 17 70 18 71 20 66 18 71 8 72 20 66 8 72 10 73 20 66 10 73 19 74</p>
                </triangles>
            </mesh>
        </geometry>
    </library_geometries>
    <library_visual_scenes>
        <visual_scene id="Building_DEBW_5221000QyuF">
            <node>
                <instance_geometry url="#geometry0">
                    <bind_material>
                        <technique_common>
                            <instance_material symbol="default_ai_0.2_sh_0.2_tr_0.0_dc_r_0.8_g_0.8_b_0.8_sc_r_1.0_g_1.0_b_1.0_ec_r_0.0_g_0.0_b_0_tri" target="#default_ai_0.2_sh_0.2_tr_0.0_dc_r_0.8_g_0.8_b_0.8_sc_r_1.0_g_1.0_b_1.0_ec_r_0.0_g_0.0_b_0_mat"/>
                            <instance_material symbol="default_ai_0.2_sh_0.2_tr_0.0_dc_r_1.0_g_0.2_b_0.2_sc_r_1.0_g_1.0_b_1.0_ec_r_0.0_g_0.0_b_0_tri" target="#default_ai_0.2_sh_0.2_tr_0.0_dc_r_1.0_g_0.2_b_0.2_sc_r_1.0_g_1.0_b_1.0_ec_r_0.0_g_0.0_b_0_mat"/>
                        </technique_common>
                    </bind_material>
                </instance_geometry>
            </node>
        </visual_scene>
    </library_visual_scenes>
    <scene>
        <instance_visual_scene url="#Building_DEBW_5221000QyuF"/>
    </scene>
</COLLADA>
