<?xml version="1.0" encoding="UTF-8" standalone="yes"?>
<COLLADA xmlns="http://www.collada.org/2005/11/COLLADASchema" version="1.4.1">
    <asset>
        <contributor>
            <authoring_tool>3D City Database Importer/Exporter, version 5.5.3; Chair of Geoinformatics, Technical University of Munich</authoring_tool>
        </contributor>
        <created>2026-05-06T15:12:08.990</created>
        <modified>2026-05-06T15:12:08.990</modified>
        <unit meter="1.0" name="meters"/>
        <up_axis>Z_UP</up_axis>
    </asset>
    <library_materials>
        <material id="default_ai_0.2_sh_0.2_tr_0.0_dc_r_0.8_g_0.8_b_0.8_sc_r_1.0_g_1.0_b_1.0_ec_r_0.0_g_0.0_b_0_mat">
            <instance_effect url="#default_ai_0.2_sh_0.2_tr_0.0_dc_r_0.8_g_0.8_b_0.8_sc_r_1.0_g_1.0_b_1.0_ec_r_0.0_g_0.0_b_0_eff"/>
        </material>
        <material id="default_ai_0.2_sh_0.2_tr_0.0_dc_r_1.0_g_0.2_b_0.2_sc_r_1.0_g_1.0_b_1.0_ec_r_0.0_g_0.0_b_0_mat">
            <instance_effect url="#default_ai_0.2_sh_0.2_tr_0.0_dc_r_1.0_g_0.2_b_0.2_sc_r_1.0_g_1.0_b_1.0_ec_r_0.0_g_0.0_b_0_eff"/>
        </material>
    </library_materials>
    <library_effects>
        <effect id="default_ai_0.2_sh_0.2_tr_0.0_dc_r_0.8_g_0.8_b_0.8_sc_r_1.0_g_1.0_b_1.0_ec_r_0.0_g_0.0_b_0_eff">
            <profile_COMMON>
                <technique sid="COMMON">
                    <lambert>
                        <emission>
                            <color>0.0 0.0 0.0 1.0</color>
                        </emission>
                        <diffuse>
                            <color>0.8 0.8 0.8 1.0</color>
                        </diffuse>
                        <reflective>
                            <color>1.0 1.0 1.0 1.0</color>
                        </reflective>
                        <reflectivity>
                            <float>0.2</float>
                        </reflectivity>
                        <transparent opaque="A_ONE">
                            <color>1.0 1.0 1.0 1.0</color>
                        </transparent>
                        <transparency>
                            <float>1.0</float>
                        </transparency>
                    </lambert>
                </technique>
                <extra>
                    <technique profile="GOOGLEEARTH">
                        <double_sided>0</double_sided>
                    </technique>
                </extra>
            </profile_COMMON>
        </effect>
        <effect id="default_ai_0.2_sh_0.2_tr_0.0_dc_r_1.0_g_0.2_b_0.2_sc_r_1.0_g_1.0_b_1.0_ec_r_0.0_g_0.0_b_0_eff">
            <profile_COMMON>
                <technique sid="COMMON">
                    <lambert>
                        <emission>
                            <color>0.0 0.0 0.0 1.0</color>
                        </emission>
                        <diffuse>
                            <color>1.0 0.2 0.2 1.0</color>
                        </diffuse>
                        <reflective>
                            <color>1.0 1.0 1.0 1.0</color>
                        </reflective>
                        <reflectivity>
                            <float>0.2</float>
                        </reflectivity>
                        <transparent opaque="A_ONE">
                            <color>1.0 1.0 1.0 1.0</color>
                        </transparent>
                        <transparency>
                            <float>1.0</float>
                        </transparency>
                    </lambert>
                </technique>
                <extra>
                    <technique profile="GOOGLEEARTH">
                        <double_sided>0</double_sided>
                    </technique>
                </extra>
            </profile_COMMON>
        </effect>
    </library_effects>
    <library_geometries>
        <geometry id="geometry0">
            <mesh>
                <source id="geometry0-position">
                    <float_array id="geometry0-position-array" count="90">-23.136 -24.392 2.181 -25.12 -22.141 2.181 -25.12 -22.141 1.181 -23.136 -24.392 1.181 -18.351 -16.176 1.908 -18.351 -16.176 0.908 -13.107 -11.553 1.622 -13.107 -11.553 0.622 -7.194 -6.341 1.3 -7.194 -6.341 0.3 0.0 0.0 1.0 0.0 0.0 0.0 1.984 -2.251 1.0 1.984 -2.251 0.0 3.968 -4.502 1.0 3.968 -4.502 0.0 -3.227 -10.843 1.3 -3.227 -10.843 0.3 -9.139 -16.054 1.622 -9.139 -16.054 0.622 -14.384 -20.677 1.908 -14.384 -20.677 0.908 -21.152 -26.643 2.181 -21.152 -26.643 1.181 -16.369 -18.425 0.908 -11.121 -13.806 0.622 -5.213 -8.589 0.3 -16.369 -18.425 1.908 -11.121 -13.806 1.622 -5.213 -8.589 1.3</float_array>
                    <technique_common>
                        <accessor count="30" source="#geometry0-position-array" stride="3">
                            <param name="X" type="float"/>
                            <param name="Y" type="float"/>
                            <param name="Z" type="float"/>
                        </accessor>
                    </technique_common>
                </source>
                <source id="geometry0-normal">
                    <float_array id="geometry0-normal-array" count="504">0.6612313 -0.7501821 0.0 0.6612313 -0.7501821 0.0 0.6612313 -0.7501821 0.0 0.6612313 -0.7501822 0.0 0.6612313 -0.7501822 0.0 0.6612313 -0.7501822 0.0 0.6611801 -0.7502272 0.0 0.6611801 -0.7502272 0.0 0.6611801 -0.7502272 0.0 0.6611801 -0.7502272 0.0 0.6611801 -0.7502272 0.0 0.6611801 -0.7502272 0.0 0.6612622 -0.7501548 0.0 0.6612622 -0.7501548 0.0 0.6612622 -0.7501548 0.0 0.6612622 -0.7501548 0.0 0.6612622 -0.7501548 0.0 0.6612622 -0.7501548 0.0 0.6612241 -0.7501884 0.0 0.6612241 -0.7501884 0.0 0.6612241 -0.7501884 0.0 0.6612241 -0.7501884 0.0 0.6612241 -0.7501884 0.0 0.6612241 -0.7501884 0.0 -0.7501977 -0.6612136 0.0 -0.7501977 -0.6612136 0.0 -0.7501977 -0.6612136 0.0 -0.7501977 -0.6612136 0.0 -0.7501977 -0.6612136 0.0 -0.7501977 -0.6612136 0.0 -0.0306671 -0.0270263 -0.9991642 -0.0306671 -0.0270263 -0.9991642 -0.0306671 -0.0270263 -0.9991642 -0.0306623 -0.0270286 -0.9991643 -0.0306623 -0.0270286 -0.9991643 -0.0306623 -0.0270286 -0.9991643 -0.02269 -0.0199987 -0.9995425 -0.02269 -0.0199987 -0.9995425 -0.02269 -0.0199987 -0.9995425 -0.0226907 -0.0199969 -0.9995425 -0.0226907 -0.0199969 -0.9995425 -0.0226907 -0.0199969 -0.9995425 -0.0234593 -0.020673 -0.999511 -0.0234593 -0.020673 -0.999511 -0.0234593 -0.020673 -0.999511 -0.0234568 -0.0206745 -0.9995111 -0.0234568 -0.0206745 -0.9995111 -0.0234568 -0.0206745 -0.9995111 -0.0306214 -0.0269925 -0.9991665 -0.0306214 -0.0269925 -0.9991665 -0.0306214 -0.0269925 -0.9991665 -0.0306237 -0.0269865 -0.9991666 -0.0306237 -0.0269865 -0.9991666 -0.0306237 -0.0269865 -0.9991666 -0.0306631 -0.0270277 -0.9991643 -0.0306631 -0.0270277 -0.9991643 -0.0306631 -0.0270277 -0.9991643 -0.0306579 -0.0270302 -0.9991643 -0.0306579 -0.0270302 -0.9991643 -0.0306579 -0.0270302 -0.9991643 -0.0226898 -0.0199984 -0.9995425 -0.0226898 -0.0199984 -0.9995425 -0.0226898 -0.0199984 -0.9995425 -0.0226894 -0.0199993 -0.9995425 -0.0226894 -0.0199993 -0.9995425 -0.0226894 -0.0199993 -0.9995425 -0.0234601 -0.0206707 -0.9995111 -0.0234601 -0.0206707 -0.9995111 -0.0234601 -0.0206707 -0.9995111 -0.0234556 -0.0206734 -0.9995111 -0.0234556 -0.0206734 -0.9995111 -0.0234556 -0.0206734 -0.9995111 -0.0306224 -0.026999 -0.9991663 -0.0306224 -0.026999 -0.9991663 -0.0306224 -0.026999 -0.9991663 -0.0306274 -0.0269858 -0.9991665 -0.0306274 -0.0269858 -0.9991665 -0.0306274 -0.0269858 -0.9991665 0.0306671 0.0270263 0.9991642 0.0306671 0.0270263 0.9991642 0.0306671 0.0270263 0.9991642 0.02269 0.0199987 0.9995425 0.02269 0.0199987 0.9995425 0.02269 0.0199987 0.9995425 0.0226907 0.0199969 0.9995425 0.0226907 0.0199969 0.9995425 0.0226907 0.0199969 0.9995425 0.0306237 0.0269865 0.9991666 0.0306237 0.0269865 0.9991666 0.0306237 0.0269865 0.9991666 0.0306623 0.0270286 0.9991643 0.0306623 0.0270286 0.9991643 0.0306623 0.0270286 0.9991643 0.0306214 0.0269925 0.9991665 0.0306214 0.0269925 0.9991665 0.0306214 0.0269925 0.9991665 0.0234568 0.0206745 0.9995111 0.0234568 0.0206745 0.9995111 0.0234568 0.0206745 0.9995111 0.0226898 0.0199984 0.9995425 0.0226898 0.0199984 0.9995425 0.0226898 0.0199984 0.9995425 0.0234593 0.020673 0.999511 0.0234593 0.020673 0.999511 0.0234593 0.020673 0.999511 0.0306579 0.0270302 0.9991643 0.0306579 0.0270302 0.9991643 0.0306579 0.0270302 0.9991643 0.0306225 0.026999 0.9991663 0.0306225 0.026999 0.9991663 0.0306225 0.026999 0.9991663 0.0226894 0.0199993 0.9995425 0.0226894 0.0199993 0.9995425 0.0226894 0.0199993 0.9995425 0.0306631 0.0270277 0.9991643 0.0306631 0.0270277 0.9991643 0.0306631 0.0270277 0.9991643 0.0234556 0.0206734 0.9995111 0.0234556 0.0206734 0.9995111 0.0234556 0.0206734 0.9995111 0.0306274 0.0269858 0.9991665 0.0306274 0.0269858 0.9991665 0.0306274 0.0269858 0.9991665 0.0234601 0.0206707 0.9995111 0.0234601 0.0206707 0.9995111 0.0234601 0.0206707 0.9995111 -0.7501974 -0.661214 0.0 -0.7501974 -0.661214 0.0 -0.7501974 -0.661214 0.0 -0.7501974 -0.661214 0.0 -0.7501974 -0.661214 0.0 -0.7501974 -0.661214 0.0 -0.6612952 0.7501258 0.0 -0.6612952 0.7501258 0.0 -0.6612952 0.7501258 0.0 -0.6612952 0.7501258 0.0 -0.6612952 0.7501258 0.0 -0.6612952 0.7501258 0.0 -0.6611449 0.7502582 0.0 -0.6611449 0.7502582 0.0 -0.6611449 0.7502582 0.0 -0.6611449 0.7502582 0.0 -0.6611449 0.7502582 0.0 -0.6611449 0.7502582 0.0 -0.6612319 0.7501816 0.0 -0.6612319 0.7501816 0.0 -0.6612319 0.7501816 0.0 -0.6612319 0.7501816 0.0 -0.6612319 0.7501816 0.0 -0.6612319 0.7501816 0.0 -0.6612397 0.7501747 0.0 -0.6612397 0.7501747 0.0 -0.6612397 0.7501747 0.0 -0.6612397 0.7501746 0.0 -0.6612397 0.7501746 0.0 -0.6612397 0.7501746 0.0 0.7501976 0.6612138 0.0 0.7501976 0.6612138 0.0 0.7501976 0.6612138 0.0 0.7501976 0.6612138 0.0 0.7501976 0.6612138 0.0 0.7501976 0.6612138 0.0 0.7501976 0.6612138 0.0 0.7501976 0.6612138 0.0 0.7501976 0.6612138 0.0 0.7501976 0.6612138 0.0 0.7501976 0.6612138 0.0 0.7501976 0.6612138 0.0</float_array>
                    <technique_common>
                        <accessor count="168" source="#geometry0-normal-array" stride="3">
                            <param name="X" type="float"/>
                            <param name="Y" type="float"/>
                            <param name="Z" type="float"/>
                        </accessor>
                    </technique_common>
                </source>
                <vertices id="geometry0-vertex">
                    <input semantic="POSITION" source="#geometry0-position"/>
                </vertices>
                <triangles count="40" material="default_ai_0.2_sh_0.2_tr_0.0_dc_r_0.8_g_0.8_b_0.8_sc_r_1.0_g_1.0_b_1.0_ec_r_0.0_g_0.0_b_0_tri">
                    <input offset="0" semantic="VERTEX" source="#geometry0-vertex"/>
                    <input offset="1" semantic="NORMAL" source="#geometry0-normal"/>
                    <p>16 0 18 1 19 2 16 3 19 4 17 5 14 6 16 7 17 8 14 9 17 10 15 11 20 12 22 13 23 14 20 15 23 16 21 17 18 18 20 19 21 20 18 21 21 22 19 23 22 24 0 25 3 26 22 27 3 28 23 29 7 30 24 31 5 32 25 33 24 34 7 35 24 36 3 37 2 38 5 39 24 40 2 41 11 42 26 43 9 44 13 45 26 46 11 47 26 48 25 49 7 50 9 51 26 52 7 53 25 54 21 55 24 56 19 57 21 58 25 59 21 60 23 61 3 62 24 63 21 64 3 65 13 66 17 67 26 68 15 69 17 70 13 71 17 72 19 73 25 74 26 75 17 76 25 77 0 126 1 127 2 128 0 129 2 130 3 131 4 132 6 133 7 134 4 135 7 136 5 137 1 138 4 139 5 140 1 141 5 142 2 143 8 144 10 145 11 146 8 147 11 148 9 149 6 150 8 151 9 152 6 153 9 154 7 155 12 156 14 157 15 158 12 159 15 160 13 161 10 162 12 163 13 164 10 165 13 166 11 167</p>
                </triangles>
                <triangles count="16" material="default_ai_0.2_sh_0.2_tr_0.0_dc_r_1.0_g_0.2_b_0.2_sc_r_1.0_g_1.0_b_1.0_ec_r_0.0_g_0.0_b_0_tri">
                    <input offset="0" semantic="VERTEX" source="#geometry0-vertex"/>
                    <input offset="1" semantic="NORMAL" source="#geometry0-normal"/>
                    <p>4 78 27 79 6 80 1 81 0 82 27 83 1 84 27 85 4 86 6 87 29 88 8 89 6 90 27 91 28 92 6 93 28 94 29 95 10 96 29 97 12 98 0 99 22 100 20 101 8 102 29 103 10 104 28 105 20 106 18 107 28 108 18 109 16 110 0 111 20 112 27 113 27 114 20 115 28 116 12 117 16 118 14 119 28 120 16 121 29 122 29 123 16 124 12 125</p>
                </triangles>
            </mesh>
        </geometry>
    </library_geometries>
    <library_visual_scenes>
        <visual_scene id="Building_DEBW_B010000BV0S">
            <node>
                <instance_geometry url="#geometry0">
                    <bind_material>
                        <technique_common>
                            <instance_material symbol="default_ai_0.2_sh_0.2_tr_0.0_dc_r_0.8_g_0.8_b_0.8_sc_r_1.0_g_1.0_b_1.0_ec_r_0.0_g_0.0_b_0_tri" target="#default_ai_0.2_sh_0.2_tr_0.0_dc_r_0.8_g_0.8_b_0.8_sc_r_1.0_g_1.0_b_1.0_ec_r_0.0_g_0.0_b_0_mat"/>
                            <instance_material symbol="default_ai_0.2_sh_0.2_tr_0.0_dc_r_1.0_g_0.2_b_0.2_sc_r_1.0_g_1.0_b_1.0_ec_r_0.0_g_0.0_b_0_tri" target="#default_ai_0.2_sh_0.2_tr_0.0_dc_r_1.0_g_0.2_b_0.2_sc_r_1.0_g_1.0_b_1.0_ec_r_0.0_g_0.0_b_0_mat"/>
                        </technique_common>
                    </bind_material>
                </instance_geometry>
            </node>
        </visual_scene>
    </library_visual_scenes>
    <scene>
        <instance_visual_scene url="#Building_DEBW_B010000BV0S"/>
    </scene>
</COLLADA>
