<?xml version="1.0" encoding="UTF-8" standalone="yes"?>
<COLLADA xmlns="http://www.collada.org/2005/11/COLLADASchema" version="1.4.1">
    <asset>
        <contributor>
            <authoring_tool>3D City Database Importer/Exporter, version 5.5.3; Chair of Geoinformatics, Technical University of Munich</authoring_tool>
        </contributor>
        <created>2026-05-06T15:12:13.070</created>
        <modified>2026-05-06T15:12:13.070</modified>
        <unit meter="1.0" name="meters"/>
        <up_axis>Z_UP</up_axis>
    </asset>
    <library_materials>
        <material id="default_ai_0.2_sh_0.2_tr_0.0_dc_r_0.8_g_0.8_b_0.8_sc_r_1.0_g_1.0_b_1.0_ec_r_0.0_g_0.0_b_0_mat">
            <instance_effect url="#default_ai_0.2_sh_0.2_tr_0.0_dc_r_0.8_g_0.8_b_0.8_sc_r_1.0_g_1.0_b_1.0_ec_r_0.0_g_0.0_b_0_eff"/>
        </material>
        <material id="default_ai_0.2_sh_0.2_tr_0.0_dc_r_1.0_g_0.2_b_0.2_sc_r_1.0_g_1.0_b_1.0_ec_r_0.0_g_0.0_b_0_mat">
            <instance_effect url="#default_ai_0.2_sh_0.2_tr_0.0_dc_r_1.0_g_0.2_b_0.2_sc_r_1.0_g_1.0_b_1.0_ec_r_0.0_g_0.0_b_0_eff"/>
        </material>
    </library_materials>
    <library_effects>
        <effect id="default_ai_0.2_sh_0.2_tr_0.0_dc_r_0.8_g_0.8_b_0.8_sc_r_1.0_g_1.0_b_1.0_ec_r_0.0_g_0.0_b_0_eff">
            <profile_COMMON>
                <technique sid="COMMON">
                    <lambert>
                        <emission>
                            <color>0.0 0.0 0.0 1.0</color>
                        </emission>
                        <diffuse>
                            <color>0.8 0.8 0.8 1.0</color>
                        </diffuse>
                        <reflective>
                            <color>1.0 1.0 1.0 1.0</color>
                        </reflective>
                        <reflectivity>
                            <float>0.2</float>
                        </reflectivity>
                        <transparent opaque="A_ONE">
                            <color>1.0 1.0 1.0 1.0</color>
                        </transparent>
                        <transparency>
                            <float>1.0</float>
                        </transparency>
                    </lambert>
                </technique>
                <extra>
                    <technique profile="GOOGLEEARTH">
                        <double_sided>0</double_sided>
                    </technique>
                </extra>
            </profile_COMMON>
        </effect>
        <effect id="default_ai_0.2_sh_0.2_tr_0.0_dc_r_1.0_g_0.2_b_0.2_sc_r_1.0_g_1.0_b_1.0_ec_r_0.0_g_0.0_b_0_eff">
            <profile_COMMON>
                <technique sid="COMMON">
                    <lambert>
                        <emission>
                            <color>0.0 0.0 0.0 1.0</color>
                        </emission>
                        <diffuse>
                            <color>1.0 0.2 0.2 1.0</color>
                        </diffuse>
                        <reflective>
                            <color>1.0 1.0 1.0 1.0</color>
                        </reflective>
                        <reflectivity>
                            <float>0.2</float>
                        </reflectivity>
                        <transparent opaque="A_ONE">
                            <color>1.0 1.0 1.0 1.0</color>
                        </transparent>
                        <transparency>
                            <float>1.0</float>
                        </transparency>
                    </lambert>
                </technique>
                <extra>
                    <technique profile="GOOGLEEARTH">
                        <double_sided>0</double_sided>
                    </technique>
                </extra>
            </profile_COMMON>
        </effect>
    </library_effects>
    <library_geometries>
        <geometry id="geometry0">
            <mesh>
                <source id="geometry0-position">
                    <float_array id="geometry0-position-array" count="138">0.19 0.04 5.801 0.0 0.0 5.807 0.0 0.0 0.0 0.19 0.04 0.0 13.94 4.35 5.778 11.33 12.34 7.501 11.722 11.141 7.861 -3.07 10.82 6.664 -2.3 8.08 7.476 -2.53 7.92 7.499 -2.144 6.712 7.861 11.09 12.25 7.505 9.93 15.89 6.415 10.11 15.95 6.414 10.01 16.25 6.324 5.17 14.64 6.341 5.44 13.82 6.587 0.05 12.02 6.609 -1.35 16.41 5.294 -4.68 15.36 5.29 -3.28 10.96 6.608 -3.46 10.9 6.608 -3.41 10.72 6.662 13.94 4.35 0.0 11.33 12.34 0.0 -2.53 7.92 0.0 -1.35 16.41 0.0 -4.68 15.36 0.0 -3.41 10.72 0.0 -3.07 10.82 0.0 8.96 2.67 5.753 8.55 3.82 6.109 8.55 3.82 0.0 8.96 2.67 0.0 -0.09 0.84 6.048 -0.09 0.84 0.0 11.09 12.25 0.0 9.93 15.89 0.0 5.44 13.82 0.0 0.05 12.02 0.0 5.17 14.64 0.0 -3.46 10.9 0.0 -3.28 10.96 0.0 -2.3 8.08 0.0 10.01 16.25 0.0 10.11 15.95 0.0</float_array>
                    <technique_common>
                        <accessor count="46" source="#geometry0-position-array" stride="3">
                            <param name="X" type="float"/>
                            <param name="Y" type="float"/>
                            <param name="Z" type="float"/>
                        </accessor>
                    </technique_common>
                </source>
                <source id="geometry0-normal">
                    <float_array id="geometry0-normal-array" count="426">0.9438583 0.3303504 0.0 0.9438583 0.3303504 0.0 0.9438583 0.3303504 0.0 0.9438583 0.3303504 0.0 -0.9525777 -0.3042956 0.0 -0.9525777 -0.3042956 0.0 -0.9525777 -0.3042956 0.0 -0.9525777 -0.3042957 0.0 0.3260581 -0.9453497 0.0 0.3260581 -0.9453498 0.0 0.3260581 -0.9453497 0.0 0.3260581 -0.9453497 0.0 -0.3007202 0.9537124 0.0 -0.3007202 0.9537124 0.0 -0.3007202 0.9537124 0.0 -0.3007202 0.9537124 0.0 0.9527882 0.3036357 0.0 0.9527882 0.3036357 0.0 0.9527882 0.3036357 0.0 0.9527882 0.3036357 0.0 0.9527261 0.3038307 0.0 0.9527261 0.3038307 0.0 0.9527261 0.3038307 0.0 0.9527261 0.3038307 0.0 -0.5710641 0.8209056 0.0 -0.5710641 0.8209056 0.0 -0.5710641 0.8209056 0.0 -0.5710641 0.8209056 0.0 -0.3167555 0.9485072 0.0 -0.3167555 0.9485072 0.0 -0.3167555 0.9485072 0.0 -0.3167556 0.9485072 0.0 -0.9419271 -0.3358174 0.0 -0.9419271 -0.3358174 0.0 -0.9419271 -0.3358174 0.0 -0.9419271 -0.3358174 0.0 0.2821647 -0.959366 0.0 0.2821647 -0.959366 0.0 0.2821647 -0.959366 0.0 0.2821647 -0.959366 0.0 -0.3511243 0.9363289 0.0 -0.3511243 0.9363289 0.0 -0.3511243 0.9363289 0.0 -0.3511243 0.9363289 0.0 -0.9525671 -0.3043286 1.706E-4 -0.9525671 -0.3043286 1.706E-4 -0.9525671 -0.3043286 1.706E-4 0.0 0.0 -1.0 0.0 0.0 -1.0 0.0 0.0 -1.0 0.0 0.0 -1.0 0.0 0.0 -1.0 0.0 0.0 -1.0 0.0 0.0 -1.0 0.0 0.0 -1.0 0.0 0.0 -1.0 0.0 0.0 -1.0 0.0 0.0 -1.0 0.0 0.0 -1.0 0.0 0.0 -1.0 0.0 0.0 -1.0 0.0 0.0 -1.0 0.0 0.0 -1.0 0.0 0.0 -1.0 0.0 0.0 -1.0 0.0 0.0 -1.0 0.0 0.0 -1.0 0.0 0.0 -1.0 0.0 0.0 -1.0 -0.9498354 -0.3127504 0.0 -0.9498354 -0.3127504 0.0 -0.9498354 -0.3127504 0.0 -0.9498354 -0.3127504 0.0 -0.9635177 -0.2676445 0.0 -0.9635177 -0.2676445 0.0 -0.9635177 -0.2676445 0.0 -0.9635177 -0.2676445 0.0 -0.3162296 0.9486827 0.0 -0.3162296 0.9486827 0.0 -0.3162296 0.9486827 0.0 -0.3162296 0.9486827 0.0 0.9486839 0.3162259 0.0 0.9486839 0.316226 0.0 0.9486839 0.3162259 0.0 0.9486839 0.3162259 0.0 -0.9627081 -0.2705421 0.0 -0.9627081 -0.2705421 0.0 -0.9627081 -0.2705421 0.0 -0.9627081 -0.2705421 0.0 -0.9529258 -0.3032037 0.0 -0.9529258 -0.3032037 0.0 -0.9529258 -0.3032037 0.0 -0.9529258 -0.3032037 0.0 0.2060105 -0.9785498 0.0 0.2060105 -0.9785498 0.0 0.2060105 -0.9785498 0.0 0.2060105 -0.9785498 0.0 0.3162263 -0.9486839 0.0 0.3162263 -0.9486839 0.0 0.3162263 -0.9486839 0.0 0.3162263 -0.9486838 0.0 0.9505365 0.3106122 -5.176E-4 0.9505365 0.3106122 -5.176E-4 0.9505365 0.3106122 -5.176E-4 0.3196505 -0.9475355 0.0 0.3196506 -0.9475355 0.0 0.3196505 -0.9475355 0.0 0.3196505 -0.9475355 0.0 -0.3156395 0.9488792 0.0 -0.3156395 0.9488792 0.0 -0.3156395 0.9488792 0.0 -0.3156395 0.9488792 0.0 -0.0853301 0.2608922 0.9615893 -0.0843709 0.261016 0.9616404 -0.0840768 0.2611786 0.961622 -0.0831394 0.2614082 0.9616412 -0.0822023 0.2577933 0.9626969 -0.0821692 0.261857 0.9616024 -0.0833024 0.2613761 0.9616356 -0.0817524 0.2612875 0.9617928 -0.082705 0.2614663 0.9616628 -0.082995 0.2614194 0.9616505 -0.0836605 0.261303 0.9616245 -0.0820261 0.2570874 0.9629006 -0.0818493 0.2568136 0.9629889 -0.0685631 0.2144088 0.9743347 -0.0460847 0.1435432 0.9885704 -0.0454675 0.1419033 0.9888358 -0.0835472 0.261429 0.9616001 -0.0835759 0.2613914 0.9616079 0.9505696 0.3105114 0.0 0.9505696 0.3105114 0.0 0.9505696 0.3105114 0.0 0.9505696 0.3105114 0.0 0.0851776 -0.2666975 0.960009 0.0851717 -0.2666495 0.9600228 0.0854927 -0.2665206 0.9600301 0.0851805 -0.2666867 0.9600117 0.0851873 -0.2668051 0.9599782 0.0859941 -0.2663279 0.9600388 0.0864011 -0.2661831 0.9600424 0.0863571 -0.2661886 0.9600449</float_array>
                    <technique_common>
                        <accessor count="142" source="#geometry0-normal-array" stride="3">
                            <param name="X" type="float"/>
                            <param name="Y" type="float"/>
                            <param name="Z" type="float"/>
                        </accessor>
                    </technique_common>
                </source>
                <vertices id="geometry0-vertex">
                    <input semantic="POSITION" source="#geometry0-position"/>
                </vertices>
                <triangles count="66" material="default_ai_0.2_sh_0.2_tr_0.0_dc_r_0.8_g_0.8_b_0.8_sc_r_1.0_g_1.0_b_1.0_ec_r_0.0_g_0.0_b_0_tri">
                    <input offset="0" semantic="VERTEX" source="#geometry0-vertex"/>
                    <input offset="1" semantic="NORMAL" source="#geometry0-normal"/>
                    <p>34 0 0 1 3 2 34 0 3 2 35 3 1 4 9 5 25 6 1 4 25 6 2 7 31 8 34 9 35 10 31 8 35 10 32 11 19 12 18 13 26 14 19 12 26 14 27 15 12 16 11 17 36 18 12 16 36 18 37 19 18 20 17 21 39 22 18 20 39 22 26 23 9 24 8 25 43 26 9 24 43 26 25 27 17 28 16 29 38 30 17 28 38 30 39 31 30 32 31 33 32 34 30 32 32 34 33 35 7 36 22 37 28 38 7 36 28 38 29 39 11 40 5 41 24 42 11 40 24 42 36 43 9 44 1 45 10 46 40 47 44 48 38 49 45 50 37 51 44 48 44 48 37 51 38 49 37 51 36 52 38 49 38 49 36 52 39 53 24 54 23 55 36 52 36 52 23 55 39 53 33 56 32 57 23 55 23 55 32 57 39 53 32 57 35 58 39 53 39 53 35 58 26 59 3 60 2 61 35 58 2 61 25 62 35 58 25 62 43 63 35 58 35 58 43 63 26 59 43 63 29 64 26 59 26 59 29 64 27 65 27 65 29 64 42 66 42 66 29 64 41 67 41 67 29 64 28 68 16 69 15 70 40 71 16 69 40 71 38 72 22 73 21 74 41 75 22 73 41 75 28 76 21 77 20 78 42 79 21 77 42 79 41 80 14 81 13 82 45 83 14 81 45 83 44 84 8 85 7 86 29 87 8 85 29 87 43 88 20 89 19 90 27 91 20 89 27 91 42 92 0 93 1 94 2 95 0 93 2 95 3 96 13 97 12 98 37 99 13 97 37 99 45 100 4 101 5 102 6 103 4 104 30 105 33 106 4 104 33 106 23 107 15 108 14 109 44 110 15 108 44 110 40 111 5 130 4 131 23 132 5 130 23 132 24 133</p>
                </triangles>
                <triangles count="22" material="default_ai_0.2_sh_0.2_tr_0.0_dc_r_1.0_g_0.2_b_0.2_sc_r_1.0_g_1.0_b_1.0_ec_r_0.0_g_0.0_b_0_tri">
                    <input offset="0" semantic="VERTEX" source="#geometry0-vertex"/>
                    <input offset="1" semantic="NORMAL" source="#geometry0-normal"/>
                    <p>9 112 10 113 8 114 10 113 6 115 8 114 8 114 6 115 7 116 5 117 11 118 6 115 6 115 11 118 7 116 13 119 14 120 12 121 14 120 15 122 12 121 12 121 15 122 11 118 15 122 16 123 11 118 11 118 16 123 7 116 7 116 16 123 22 124 16 123 17 125 22 124 22 124 17 125 21 126 21 126 17 125 20 127 20 127 17 125 19 128 19 128 17 125 18 129 4 134 6 135 10 136 31 137 30 138 4 134 31 137 4 134 10 136 34 139 31 137 10 136 34 139 10 136 1 140 34 139 1 140 0 141</p>
                </triangles>
            </mesh>
        </geometry>
    </library_geometries>
    <library_visual_scenes>
        <visual_scene id="Building_DEBW_5221000QyyR">
            <node>
                <instance_geometry url="#geometry0">
                    <bind_material>
                        <technique_common>
                            <instance_material symbol="default_ai_0.2_sh_0.2_tr_0.0_dc_r_0.8_g_0.8_b_0.8_sc_r_1.0_g_1.0_b_1.0_ec_r_0.0_g_0.0_b_0_tri" target="#default_ai_0.2_sh_0.2_tr_0.0_dc_r_0.8_g_0.8_b_0.8_sc_r_1.0_g_1.0_b_1.0_ec_r_0.0_g_0.0_b_0_mat"/>
                            <instance_material symbol="default_ai_0.2_sh_0.2_tr_0.0_dc_r_1.0_g_0.2_b_0.2_sc_r_1.0_g_1.0_b_1.0_ec_r_0.0_g_0.0_b_0_tri" target="#default_ai_0.2_sh_0.2_tr_0.0_dc_r_1.0_g_0.2_b_0.2_sc_r_1.0_g_1.0_b_1.0_ec_r_0.0_g_0.0_b_0_mat"/>
                        </technique_common>
                    </bind_material>
                </instance_geometry>
            </node>
        </visual_scene>
    </library_visual_scenes>
    <scene>
        <instance_visual_scene url="#Building_DEBW_5221000QyyR"/>
    </scene>
</COLLADA>
