<?xml version="1.0" encoding="UTF-8" standalone="yes"?>
<COLLADA xmlns="http://www.collada.org/2005/11/COLLADASchema" version="1.4.1">
    <asset>
        <contributor>
            <authoring_tool>3D City Database Importer/Exporter, version 5.5.3; Chair of Geoinformatics, Technical University of Munich</authoring_tool>
        </contributor>
        <created>2026-05-06T15:12:10.186</created>
        <modified>2026-05-06T15:12:10.186</modified>
        <unit meter="1.0" name="meters"/>
        <up_axis>Z_UP</up_axis>
    </asset>
    <library_materials>
        <material id="default_ai_0.2_sh_0.2_tr_0.0_dc_r_0.8_g_0.8_b_0.8_sc_r_1.0_g_1.0_b_1.0_ec_r_0.0_g_0.0_b_0_mat">
            <instance_effect url="#default_ai_0.2_sh_0.2_tr_0.0_dc_r_0.8_g_0.8_b_0.8_sc_r_1.0_g_1.0_b_1.0_ec_r_0.0_g_0.0_b_0_eff"/>
        </material>
        <material id="default_ai_0.2_sh_0.2_tr_0.0_dc_r_1.0_g_0.2_b_0.2_sc_r_1.0_g_1.0_b_1.0_ec_r_0.0_g_0.0_b_0_mat">
            <instance_effect url="#default_ai_0.2_sh_0.2_tr_0.0_dc_r_1.0_g_0.2_b_0.2_sc_r_1.0_g_1.0_b_1.0_ec_r_0.0_g_0.0_b_0_eff"/>
        </material>
    </library_materials>
    <library_effects>
        <effect id="default_ai_0.2_sh_0.2_tr_0.0_dc_r_0.8_g_0.8_b_0.8_sc_r_1.0_g_1.0_b_1.0_ec_r_0.0_g_0.0_b_0_eff">
            <profile_COMMON>
                <technique sid="COMMON">
                    <lambert>
                        <emission>
                            <color>0.0 0.0 0.0 1.0</color>
                        </emission>
                        <diffuse>
                            <color>0.8 0.8 0.8 1.0</color>
                        </diffuse>
                        <reflective>
                            <color>1.0 1.0 1.0 1.0</color>
                        </reflective>
                        <reflectivity>
                            <float>0.2</float>
                        </reflectivity>
                        <transparent opaque="A_ONE">
                            <color>1.0 1.0 1.0 1.0</color>
                        </transparent>
                        <transparency>
                            <float>1.0</float>
                        </transparency>
                    </lambert>
                </technique>
                <extra>
                    <technique profile="GOOGLEEARTH">
                        <double_sided>0</double_sided>
                    </technique>
                </extra>
            </profile_COMMON>
        </effect>
        <effect id="default_ai_0.2_sh_0.2_tr_0.0_dc_r_1.0_g_0.2_b_0.2_sc_r_1.0_g_1.0_b_1.0_ec_r_0.0_g_0.0_b_0_eff">
            <profile_COMMON>
                <technique sid="COMMON">
                    <lambert>
                        <emission>
                            <color>0.0 0.0 0.0 1.0</color>
                        </emission>
                        <diffuse>
                            <color>1.0 0.2 0.2 1.0</color>
                        </diffuse>
                        <reflective>
                            <color>1.0 1.0 1.0 1.0</color>
                        </reflective>
                        <reflectivity>
                            <float>0.2</float>
                        </reflectivity>
                        <transparent opaque="A_ONE">
                            <color>1.0 1.0 1.0 1.0</color>
                        </transparent>
                        <transparency>
                            <float>1.0</float>
                        </transparency>
                    </lambert>
                </technique>
                <extra>
                    <technique profile="GOOGLEEARTH">
                        <double_sided>0</double_sided>
                    </technique>
                </extra>
            </profile_COMMON>
        </effect>
    </library_effects>
    <library_geometries>
        <geometry id="geometry0">
            <mesh>
                <source id="geometry0-position">
                    <float_array id="geometry0-position-array" count="42">4.22 -2.23 3.344 0.0 0.0 2.658 0.0 0.0 0.0 4.22 -2.23 0.0 1.69 3.29 2.653 1.69 3.29 0.0 7.14 0.48 2.614 7.14 0.48 0.0 5.3 -3.08 2.614 4.13 -2.43 3.337 4.13 -2.43 0.0 5.3 -3.08 0.0 2.696 -1.425 4.275 4.408 1.888 4.275</float_array>
                    <technique_common>
                        <accessor count="14" source="#geometry0-position-array" stride="3">
                            <param name="X" type="float"/>
                            <param name="Y" type="float"/>
                            <param name="Z" type="float"/>
                        </accessor>
                    </technique_common>
                </source>
                <source id="geometry0-normal">
                    <float_array id="geometry0-normal-array" count="138">-0.4856429 -0.8741574 0.0 -0.4856428 -0.8741573 0.0 -0.4856429 -0.8741574 0.0 -0.4856429 -0.8741574 0.0 -0.416215 0.2151116 0.8834546 -0.4162516 0.2150989 0.8834405 -0.416215 0.2151116 0.8834546 -0.4161784 0.2151242 0.8834687 -0.9119221 0.4103634 0.0 -0.9119221 0.4103634 0.0 -0.9119221 0.4103634 0.0 -0.9119221 0.4103634 0.0 0.0 0.0 -1.0 0.0 0.0 -1.0 0.0 0.0 -1.0 0.0 0.0 -1.0 0.0 0.0 -1.0 0.0 0.0 -1.0 0.42213 -0.2187883 0.8797374 0.421239 -0.2203498 0.8797747 0.4219307 -0.2193919 0.8796827 0.4225233 -0.2183063 0.8796684 0.4223294 -0.2181846 0.8797917 0.4222339 -0.2181903 0.8798362 0.4582708 0.8888125 3.299E-4 0.4582708 0.8888125 3.299E-4 0.4582708 0.8888125 3.299E-4 -0.4671817 -0.8841613 -2.522E-4 -0.4671817 -0.8841613 -2.522E-4 -0.4671817 -0.8841613 -2.522E-4 0.8883581 -0.4591513 0.0 0.8883581 -0.4591513 0.0 0.8883581 -0.4591513 0.0 0.8883581 -0.4591513 0.0 -0.4672138 -0.8841444 0.0 -0.4672138 -0.8841444 0.0 -0.4672138 -0.8841444 0.0 -0.4672138 -0.8841444 0.0 0.458269 0.8888135 0.0 0.458269 0.8888136 0.0 0.458269 0.8888135 0.0 0.458269 0.8888135 0.0 -0.8895077 0.4569204 0.0 -0.8895077 0.4569204 0.0 -0.8895077 0.4569204 0.0 -0.8895076 0.4569204 0.0</float_array>
                    <technique_common>
                        <accessor count="46" source="#geometry0-normal-array" stride="3">
                            <param name="X" type="float"/>
                            <param name="Y" type="float"/>
                            <param name="Z" type="float"/>
                        </accessor>
                    </technique_common>
                </source>
                <vertices id="geometry0-vertex">
                    <input semantic="POSITION" source="#geometry0-position"/>
                </vertices>
                <triangles count="18" material="default_ai_0.2_sh_0.2_tr_0.0_dc_r_0.8_g_0.8_b_0.8_sc_r_1.0_g_1.0_b_1.0_ec_r_0.0_g_0.0_b_0_tri">
                    <input offset="0" semantic="VERTEX" source="#geometry0-vertex"/>
                    <input offset="1" semantic="NORMAL" source="#geometry0-normal"/>
                    <p>8 0 9 1 10 2 8 0 10 2 11 3 9 8 0 9 3 10 9 8 3 10 10 11 11 12 10 13 3 14 7 15 11 12 3 14 7 15 3 14 2 16 7 15 2 16 5 17 6 24 4 25 13 26 1 27 0 28 12 29 6 30 8 31 11 32 6 30 11 32 7 33 0 34 1 35 2 36 0 34 2 36 3 37 4 38 6 39 7 40 4 38 7 40 5 41 1 42 4 43 5 44 1 42 5 44 2 45</p>
                </triangles>
                <triangles count="6" material="default_ai_0.2_sh_0.2_tr_0.0_dc_r_1.0_g_0.2_b_0.2_sc_r_1.0_g_1.0_b_1.0_ec_r_0.0_g_0.0_b_0_tri">
                    <input offset="0" semantic="VERTEX" source="#geometry0-vertex"/>
                    <input offset="1" semantic="NORMAL" source="#geometry0-normal"/>
                    <p>12 4 13 5 4 6 12 4 4 6 1 7 0 18 9 19 8 20 0 18 8 20 6 21 0 18 6 21 13 22 0 18 13 22 12 23</p>
                </triangles>
            </mesh>
        </geometry>
    </library_geometries>
    <library_visual_scenes>
        <visual_scene id="Building_DEBW_5221000QlrQ">
            <node>
                <instance_geometry url="#geometry0">
                    <bind_material>
                        <technique_common>
                            <instance_material symbol="default_ai_0.2_sh_0.2_tr_0.0_dc_r_0.8_g_0.8_b_0.8_sc_r_1.0_g_1.0_b_1.0_ec_r_0.0_g_0.0_b_0_tri" target="#default_ai_0.2_sh_0.2_tr_0.0_dc_r_0.8_g_0.8_b_0.8_sc_r_1.0_g_1.0_b_1.0_ec_r_0.0_g_0.0_b_0_mat"/>
                            <instance_material symbol="default_ai_0.2_sh_0.2_tr_0.0_dc_r_1.0_g_0.2_b_0.2_sc_r_1.0_g_1.0_b_1.0_ec_r_0.0_g_0.0_b_0_tri" target="#default_ai_0.2_sh_0.2_tr_0.0_dc_r_1.0_g_0.2_b_0.2_sc_r_1.0_g_1.0_b_1.0_ec_r_0.0_g_0.0_b_0_mat"/>
                        </technique_common>
                    </bind_material>
                </instance_geometry>
            </node>
        </visual_scene>
    </library_visual_scenes>
    <scene>
        <instance_visual_scene url="#Building_DEBW_5221000QlrQ"/>
    </scene>
</COLLADA>
