<?xml version="1.0" encoding="UTF-8" standalone="yes"?>
<COLLADA xmlns="http://www.collada.org/2005/11/COLLADASchema" version="1.4.1">
    <asset>
        <contributor>
            <authoring_tool>3D City Database Importer/Exporter, version 5.5.3; Chair of Geoinformatics, Technical University of Munich</authoring_tool>
        </contributor>
        <created>2026-05-06T15:12:07.996</created>
        <modified>2026-05-06T15:12:07.996</modified>
        <unit meter="1.0" name="meters"/>
        <up_axis>Z_UP</up_axis>
    </asset>
    <library_materials>
        <material id="default_ai_0.2_sh_0.2_tr_0.0_dc_r_0.8_g_0.8_b_0.8_sc_r_1.0_g_1.0_b_1.0_ec_r_0.0_g_0.0_b_0_mat">
            <instance_effect url="#default_ai_0.2_sh_0.2_tr_0.0_dc_r_0.8_g_0.8_b_0.8_sc_r_1.0_g_1.0_b_1.0_ec_r_0.0_g_0.0_b_0_eff"/>
        </material>
        <material id="default_ai_0.2_sh_0.2_tr_0.0_dc_r_1.0_g_0.2_b_0.2_sc_r_1.0_g_1.0_b_1.0_ec_r_0.0_g_0.0_b_0_mat">
            <instance_effect url="#default_ai_0.2_sh_0.2_tr_0.0_dc_r_1.0_g_0.2_b_0.2_sc_r_1.0_g_1.0_b_1.0_ec_r_0.0_g_0.0_b_0_eff"/>
        </material>
    </library_materials>
    <library_effects>
        <effect id="default_ai_0.2_sh_0.2_tr_0.0_dc_r_0.8_g_0.8_b_0.8_sc_r_1.0_g_1.0_b_1.0_ec_r_0.0_g_0.0_b_0_eff">
            <profile_COMMON>
                <technique sid="COMMON">
                    <lambert>
                        <emission>
                            <color>0.0 0.0 0.0 1.0</color>
                        </emission>
                        <diffuse>
                            <color>0.8 0.8 0.8 1.0</color>
                        </diffuse>
                        <reflective>
                            <color>1.0 1.0 1.0 1.0</color>
                        </reflective>
                        <reflectivity>
                            <float>0.2</float>
                        </reflectivity>
                        <transparent opaque="A_ONE">
                            <color>1.0 1.0 1.0 1.0</color>
                        </transparent>
                        <transparency>
                            <float>1.0</float>
                        </transparency>
                    </lambert>
                </technique>
                <extra>
                    <technique profile="GOOGLEEARTH">
                        <double_sided>0</double_sided>
                    </technique>
                </extra>
            </profile_COMMON>
        </effect>
        <effect id="default_ai_0.2_sh_0.2_tr_0.0_dc_r_1.0_g_0.2_b_0.2_sc_r_1.0_g_1.0_b_1.0_ec_r_0.0_g_0.0_b_0_eff">
            <profile_COMMON>
                <technique sid="COMMON">
                    <lambert>
                        <emission>
                            <color>0.0 0.0 0.0 1.0</color>
                        </emission>
                        <diffuse>
                            <color>1.0 0.2 0.2 1.0</color>
                        </diffuse>
                        <reflective>
                            <color>1.0 1.0 1.0 1.0</color>
                        </reflective>
                        <reflectivity>
                            <float>0.2</float>
                        </reflectivity>
                        <transparent opaque="A_ONE">
                            <color>1.0 1.0 1.0 1.0</color>
                        </transparent>
                        <transparency>
                            <float>1.0</float>
                        </transparency>
                    </lambert>
                </technique>
                <extra>
                    <technique profile="GOOGLEEARTH">
                        <double_sided>0</double_sided>
                    </technique>
                </extra>
            </profile_COMMON>
        </effect>
    </library_effects>
    <library_geometries>
        <geometry id="geometry0">
            <mesh>
                <source id="geometry0-position">
                    <float_array id="geometry0-position-array" count="120">0.39 5.42 8.652 0.0 0.0 8.652 0.0 0.0 0.0 0.39 5.42 0.0 -0.2 -2.05 8.652 -3.46 -1.83 8.652 -3.46 -1.83 0.0 -0.2 -2.05 0.0 -3.52 4.63 8.652 -3.44 5.69 8.652 -3.44 5.69 0.0 -3.52 4.63 0.0 -9.43 5.0 8.652 -9.43 5.0 0.0 -3.5 -2.34 8.652 -6.68 -2.12 8.652 -6.68 -2.12 0.0 -3.5 -2.34 0.0 -19.69 -1.25 8.652 -19.83 -3.04 8.652 -19.83 -3.04 0.0 -19.69 -1.25 0.0 -22.9 5.85 8.652 -22.9 5.85 0.0 -16.96 -1.44 8.652 -16.96 -1.44 0.0 -17.1 -3.25 0.0 -23.51 -2.79 0.0 -6.83 -3.86 0.0 -10.53 -3.63 0.0 -10.42 -1.87 0.0 -13.22 -1.7 0.0 -13.32 -3.48 0.0 -13.32 -3.48 8.652 -13.22 -1.7 8.652 -10.42 -1.87 8.652 -10.53 -3.63 8.652 -6.83 -3.86 8.652 -23.51 -2.79 8.652 -17.1 -3.25 8.652</float_array>
                    <technique_common>
                        <accessor count="40" source="#geometry0-position-array" stride="3">
                            <param name="X" type="float"/>
                            <param name="Y" type="float"/>
                            <param name="Z" type="float"/>
                        </accessor>
                    </technique_common>
                </source>
                <source id="geometry0-normal">
                    <float_array id="geometry0-normal-array" count="360">0.9969384 -0.0781912 0.0 0.9969384 -0.0781912 0.0 0.9969384 -0.0781912 0.0 0.9969384 -0.0781912 0.0 0.0703216 0.9975244 0.0 0.0703216 0.9975244 0.0 0.0703216 0.9975244 0.0 0.0703216 0.9975244 0.0 -0.0694291 -0.9975868 0.0 -0.0694291 -0.9975868 0.0 -0.0694291 -0.9975868 0.0 -0.0694291 -0.9975868 0.0 -0.997022 0.0771184 0.0 -0.997022 0.0771184 0.0 -0.997022 0.0771184 0.0 -0.997022 0.0771184 0.0 0.0624834 0.998046 0.0 0.0624834 0.998046 0.0 0.0624834 0.998046 0.0 0.0624834 0.998046 0.0 0.9963048 -0.0858884 0.0 0.9963048 -0.0858884 0.0 0.9963048 -0.0858884 0.0 0.9963048 -0.0858884 0.0 -0.9971641 0.0752576 0.0 -0.9971641 0.0752576 0.0 -0.9971641 0.0752576 0.0 -0.9971641 0.0752576 0.0 0.9969554 -0.0779738 0.0 0.9969554 -0.0779738 0.0 0.9969554 -0.0779738 0.0 0.9969554 -0.0779738 0.0 -0.997517 0.0704266 0.0 -0.997517 0.0704266 0.0 -0.997517 0.0704266 0.0 -0.997517 0.0704266 0.0 -0.0606027 -0.998162 0.0 -0.0606027 -0.998162 0.0 -0.0606027 -0.998162 0.0 -0.0606027 -0.998162 0.0 -0.0690174 -0.9976155 0.0 -0.0690174 -0.9976155 0.0 -0.0690174 -0.9976155 0.0 -0.0690174 -0.9976155 0.0 -0.0673315 -0.9977307 0.0 -0.0673315 -0.9977307 0.0 -0.0673315 -0.9977307 0.0 -0.0673315 -0.9977307 0.0 0.0629779 0.9980149 0.0 0.0629779 0.9980149 0.0 0.0629779 0.9980149 0.0 0.0629779 0.9980149 0.0 -0.0677786 -0.9977004 0.0 -0.0677786 -0.9977004 0.0 -0.0677786 -0.9977004 0.0 -0.0677786 -0.9977004 0.0 -0.9980526 0.0623781 0.0 -0.9980526 0.0623781 0.0 -0.9980526 0.0623781 0.0 -0.9980526 0.0623781 0.0 0.0 0.0 -1.0 0.0 0.0 -1.0 0.0 0.0 -1.0 0.0 0.0 -1.0 0.0 0.0 -1.0 0.0 0.0 -1.0 0.0 0.0 -1.0 0.0 0.0 -1.0 0.0 0.0 -1.0 0.0 0.0 -1.0 0.0 0.0 -1.0 0.0 0.0 -1.0 0.0 0.0 -1.0 0.0 0.0 -1.0 0.0 0.0 -1.0 0.0 0.0 -1.0 0.0 0.0 -1.0 0.0 0.0 -1.0 0.0 0.0 -1.0 0.0 0.0 -1.0 -0.0607342 -0.998154 0.0 -0.0607342 -0.998154 0.0 -0.0607342 -0.998154 0.0 -0.0607342 -0.998154 0.0 0.9952746 -0.0971 0.0 0.9952746 -0.0971 0.0 0.9952746 -0.0971 0.0 0.9952746 -0.0971 0.0 -0.0620423 -0.9980735 0.0 -0.0620423 -0.9980735 0.0 -0.0620423 -0.9980735 0.0 -0.0620423 -0.9980735 0.0 0.9984257 -0.056091 0.0 0.9984257 -0.056091 0.0 0.9984257 -0.056091 0.0 0.9984257 -0.056091 0.0 0.9974212 -0.0717702 0.0 0.9974212 -0.0717702 0.0 0.9974212 -0.0717702 0.0 0.9974212 -0.0717702 0.0 0.0 0.0 1.0 0.0 0.0 1.0 0.0 0.0 1.0 0.0 0.0 1.0 0.0 0.0 1.0 0.0 0.0 1.0 0.0 0.0 1.0 0.0 0.0 1.0 0.0 0.0 1.0 0.0 0.0 1.0 0.0 0.0 1.0 0.0 0.0 1.0 0.0 0.0 1.0 0.0 0.0 1.0 0.0 0.0 1.0 0.0 0.0 1.0 0.0 0.0 1.0 0.0 0.0 1.0 0.0 0.0 1.0 0.0 0.0 1.0</float_array>
                    <technique_common>
                        <accessor count="120" source="#geometry0-normal-array" stride="3">
                            <param name="X" type="float"/>
                            <param name="Y" type="float"/>
                            <param name="Z" type="float"/>
                        </accessor>
                    </technique_common>
                </source>
                <vertices id="geometry0-vertex">
                    <input semantic="POSITION" source="#geometry0-position"/>
                </vertices>
                <triangles count="58" material="default_ai_0.2_sh_0.2_tr_0.0_dc_r_0.8_g_0.8_b_0.8_sc_r_1.0_g_1.0_b_1.0_ec_r_0.0_g_0.0_b_0_tri">
                    <input offset="0" semantic="VERTEX" source="#geometry0-vertex"/>
                    <input offset="1" semantic="NORMAL" source="#geometry0-normal"/>
                    <p>5 0 14 1 17 2 5 0 17 2 6 3 9 4 0 5 3 6 9 4 3 6 10 7 24 8 18 9 21 10 24 8 21 10 25 11 39 12 24 13 25 14 39 12 25 14 26 15 12 16 8 17 11 18 12 16 11 18 13 19 15 20 37 21 28 22 15 20 28 22 16 23 8 24 9 25 10 26 8 24 10 26 11 27 18 28 19 29 20 30 18 28 20 30 21 31 38 32 22 33 23 34 38 32 23 34 27 35 35 36 34 37 31 38 35 36 31 38 30 39 14 40 15 41 16 42 14 40 16 42 17 43 4 44 5 45 6 46 4 44 6 46 7 47 22 48 12 49 13 50 22 48 13 50 23 51 19 52 38 53 27 54 19 52 27 54 20 55 36 56 35 57 30 58 36 56 30 58 29 59 31 60 32 61 26 62 31 60 26 62 25 63 31 60 25 63 21 64 30 65 31 60 21 64 28 66 29 67 30 65 16 68 28 66 30 65 16 68 30 65 21 64 6 69 17 70 16 68 6 69 16 68 21 64 2 71 7 72 6 69 2 71 6 69 21 64 3 73 2 71 21 64 11 74 10 75 3 73 11 74 3 73 21 64 13 76 11 74 21 64 23 77 13 76 21 64 23 77 21 64 20 78 23 77 20 78 27 79 33 80 39 81 26 82 33 80 26 82 32 83 1 84 4 85 7 86 1 84 7 86 2 87 37 88 36 89 29 90 37 88 29 90 28 91 34 92 33 93 32 94 34 92 32 94 31 95 0 96 1 97 2 98 0 96 2 98 3 99</p>
                </triangles>
                <triangles count="18" material="default_ai_0.2_sh_0.2_tr_0.0_dc_r_1.0_g_0.2_b_0.2_sc_r_1.0_g_1.0_b_1.0_ec_r_0.0_g_0.0_b_0_tri">
                    <input offset="0" semantic="VERTEX" source="#geometry0-vertex"/>
                    <input offset="1" semantic="NORMAL" source="#geometry0-normal"/>
                    <p>24 100 39 101 33 102 24 100 33 102 34 103 24 100 34 103 35 104 18 105 24 100 35 104 38 106 19 107 18 105 22 108 38 106 18 105 22 108 18 105 35 104 12 109 22 108 35 104 12 109 35 104 36 110 12 109 36 110 37 111 12 109 37 111 15 112 12 109 15 112 14 113 12 109 14 113 5 114 12 109 5 114 4 115 12 109 4 115 1 116 8 117 12 109 1 116 8 117 1 116 0 118 8 117 0 118 9 119</p>
                </triangles>
            </mesh>
        </geometry>
    </library_geometries>
    <library_visual_scenes>
        <visual_scene id="Building_DEBW_5221000QwzK">
            <node>
                <instance_geometry url="#geometry0">
                    <bind_material>
                        <technique_common>
                            <instance_material symbol="default_ai_0.2_sh_0.2_tr_0.0_dc_r_0.8_g_0.8_b_0.8_sc_r_1.0_g_1.0_b_1.0_ec_r_0.0_g_0.0_b_0_tri" target="#default_ai_0.2_sh_0.2_tr_0.0_dc_r_0.8_g_0.8_b_0.8_sc_r_1.0_g_1.0_b_1.0_ec_r_0.0_g_0.0_b_0_mat"/>
                            <instance_material symbol="default_ai_0.2_sh_0.2_tr_0.0_dc_r_1.0_g_0.2_b_0.2_sc_r_1.0_g_1.0_b_1.0_ec_r_0.0_g_0.0_b_0_tri" target="#default_ai_0.2_sh_0.2_tr_0.0_dc_r_1.0_g_0.2_b_0.2_sc_r_1.0_g_1.0_b_1.0_ec_r_0.0_g_0.0_b_0_mat"/>
                        </technique_common>
                    </bind_material>
                </instance_geometry>
            </node>
        </visual_scene>
    </library_visual_scenes>
    <scene>
        <instance_visual_scene url="#Building_DEBW_5221000QwzK"/>
    </scene>
</COLLADA>
