<?xml version="1.0" encoding="UTF-8" standalone="yes"?>
<COLLADA xmlns="http://www.collada.org/2005/11/COLLADASchema" version="1.4.1">
    <asset>
        <contributor>
            <authoring_tool>3D City Database Importer/Exporter, version 5.5.3; Chair of Geoinformatics, Technical University of Munich</authoring_tool>
        </contributor>
        <created>2026-05-06T15:12:10.732</created>
        <modified>2026-05-06T15:12:10.732</modified>
        <unit meter="1.0" name="meters"/>
        <up_axis>Z_UP</up_axis>
    </asset>
    <library_materials>
        <material id="default_ai_0.2_sh_0.2_tr_0.0_dc_r_0.8_g_0.8_b_0.8_sc_r_1.0_g_1.0_b_1.0_ec_r_0.0_g_0.0_b_0_mat">
            <instance_effect url="#default_ai_0.2_sh_0.2_tr_0.0_dc_r_0.8_g_0.8_b_0.8_sc_r_1.0_g_1.0_b_1.0_ec_r_0.0_g_0.0_b_0_eff"/>
        </material>
        <material id="default_ai_0.2_sh_0.2_tr_0.0_dc_r_1.0_g_0.2_b_0.2_sc_r_1.0_g_1.0_b_1.0_ec_r_0.0_g_0.0_b_0_mat">
            <instance_effect url="#default_ai_0.2_sh_0.2_tr_0.0_dc_r_1.0_g_0.2_b_0.2_sc_r_1.0_g_1.0_b_1.0_ec_r_0.0_g_0.0_b_0_eff"/>
        </material>
    </library_materials>
    <library_effects>
        <effect id="default_ai_0.2_sh_0.2_tr_0.0_dc_r_0.8_g_0.8_b_0.8_sc_r_1.0_g_1.0_b_1.0_ec_r_0.0_g_0.0_b_0_eff">
            <profile_COMMON>
                <technique sid="COMMON">
                    <lambert>
                        <emission>
                            <color>0.0 0.0 0.0 1.0</color>
                        </emission>
                        <diffuse>
                            <color>0.8 0.8 0.8 1.0</color>
                        </diffuse>
                        <reflective>
                            <color>1.0 1.0 1.0 1.0</color>
                        </reflective>
                        <reflectivity>
                            <float>0.2</float>
                        </reflectivity>
                        <transparent opaque="A_ONE">
                            <color>1.0 1.0 1.0 1.0</color>
                        </transparent>
                        <transparency>
                            <float>1.0</float>
                        </transparency>
                    </lambert>
                </technique>
                <extra>
                    <technique profile="GOOGLEEARTH">
                        <double_sided>0</double_sided>
                    </technique>
                </extra>
            </profile_COMMON>
        </effect>
        <effect id="default_ai_0.2_sh_0.2_tr_0.0_dc_r_1.0_g_0.2_b_0.2_sc_r_1.0_g_1.0_b_1.0_ec_r_0.0_g_0.0_b_0_eff">
            <profile_COMMON>
                <technique sid="COMMON">
                    <lambert>
                        <emission>
                            <color>0.0 0.0 0.0 1.0</color>
                        </emission>
                        <diffuse>
                            <color>1.0 0.2 0.2 1.0</color>
                        </diffuse>
                        <reflective>
                            <color>1.0 1.0 1.0 1.0</color>
                        </reflective>
                        <reflectivity>
                            <float>0.2</float>
                        </reflectivity>
                        <transparent opaque="A_ONE">
                            <color>1.0 1.0 1.0 1.0</color>
                        </transparent>
                        <transparency>
                            <float>1.0</float>
                        </transparency>
                    </lambert>
                </technique>
                <extra>
                    <technique profile="GOOGLEEARTH">
                        <double_sided>0</double_sided>
                    </technique>
                </extra>
            </profile_COMMON>
        </effect>
    </library_effects>
    <library_geometries>
        <geometry id="geometry0">
            <mesh>
                <source id="geometry0-position">
                    <float_array id="geometry0-position-array" count="219">0.146 0.237 7.149 0.0 0.0 7.048 0.0 0.0 0.0 0.146 0.237 0.0 -2.052 -1.327 6.742 -2.329 -1.362 6.78 -2.329 -1.362 0.0 -2.052 -1.327 0.0 0.502 1.289 7.656 0.449 1.015 7.515 0.449 1.015 0.0 0.502 1.289 0.0 -3.699 -1.166 7.172 -3.954 -1.055 7.287 -3.954 -1.055 0.0 -3.699 -1.166 0.0 -2.608 -1.372 6.832 -2.608 -1.372 0.0 0.912 1.487 7.68 0.881 1.436 7.658 0.881 1.436 0.0 0.912 1.487 0.0 0.912 1.487 7.654 -3.434 -1.254 7.069 -3.434 -1.254 0.0 -1.256 -1.076 6.715 -1.514 -1.183 6.709 -1.514 -1.183 0.0 -1.256 -1.076 0.0 -2.886 -1.357 6.898 -2.886 -1.357 0.0 -3.162 -1.318 6.977 -3.162 -1.318 0.0 -1.78 -1.267 6.718 -1.78 -1.267 0.0 -4.199 -0.921 0.0 -4.431 -0.766 0.0 -4.637 -0.599 0.0 0.371 0.747 0.0 0.27 0.487 0.0 -0.166 -0.224 0.0 -0.352 -0.432 0.0 -0.556 -0.623 0.0 -0.775 -0.795 0.0 -1.01 -0.946 0.0 -4.199 -0.921 7.411 -4.431 -0.766 7.545 -0.166 -0.224 6.959 0.371 0.747 7.384 0.27 0.487 7.261 -0.352 -0.432 6.882 -4.637 -0.599 7.68 -4.637 -0.599 7.654 -0.775 -0.795 6.77 -1.01 -0.946 6.735 -0.556 -0.623 6.819 -11.968 7.319 7.654 -8.498 -2.051 7.654 -6.496 4.031 12.016 -4.648 -0.591 7.664 0.881 1.436 7.622 4.162 2.709 7.654 -2.248 5.62 12.008 4.162 2.709 0.0 -8.498 -2.051 0.0 -4.648 -0.591 0.0 0.672 12.019 7.654 -11.778 7.389 7.655 -11.778 7.389 0.0 -11.968 7.319 0.0 -8.428 8.639 7.651 0.672 12.019 0.0 -8.428 8.639 0.0</float_array>
                    <technique_common>
                        <accessor count="73" source="#geometry0-position-array" stride="3">
                            <param name="X" type="float"/>
                            <param name="Y" type="float"/>
                            <param name="Z" type="float"/>
                        </accessor>
                    </technique_common>
                </source>
                <source id="geometry0-normal">
                    <float_array id="geometry0-normal-array" count="714">-0.3991206 -0.9168985 0.0 -0.3991206 -0.9168985 0.0 -0.3991206 -0.9168985 0.0 -0.3991206 -0.9168984 0.0 0.9363705 0.3510132 0.0 0.9363705 0.3510132 0.0 0.9363705 0.3510132 0.0 0.9363705 0.3510132 0.0 -0.3481866 0.9374253 0.0 -0.3481865 0.9374253 0.0 -0.3481866 0.9374253 0.0 -0.3481865 0.9374253 0.0 0.9601603 -0.2794497 0.0 0.9601603 -0.2794496 0.0 0.9601603 -0.2794497 0.0 0.9601603 -0.2794497 0.0 0.3617194 -0.932287 0.0 0.3617194 -0.932287 0.0 0.3617194 -0.932287 0.0 0.3617194 -0.932287 0.0 -0.6919799 -0.2562615 0.6749029 -0.6919799 -0.2562615 0.6749029 -0.6919799 -0.2562615 0.6749029 0.6163002 0.2310298 0.7528608 0.6163002 0.2310298 0.7528608 0.6163002 0.2310298 0.7528608 0.1791264 -0.474734 0.8617083 0.177138 -0.4536672 0.8733889 0.1784244 -0.465272 0.8669987 0.1803082 -0.4805372 0.8582384 0.1791562 -0.4765332 0.8607085 0.179059 -0.4745086 0.8618466 0.1793477 -0.4763642 0.8607623 0.1786052 -0.4740095 0.8622153 0.1804053 -0.4778012 0.8597442 0.1799741 -0.4773619 0.8600785 0.1793585 -0.4761002 0.8609059 0.1791761 -0.4760253 0.8609853 0.1790654 -0.4757251 0.8611743 0.178349 -0.4751015 0.8616671 0.1788356 -0.4753673 0.8614196 0.1774412 -0.4717076 0.8637167 0.1782444 -0.4751422 0.8616663 0.1789877 -0.4758636 0.861114 0.1791781 -0.4760653 0.8609629 0.1784555 -0.4751028 0.8616444 0.1788509 -0.475827 0.8611627 0.1788104 -0.475518 0.8613417 0.1783392 -0.4748915 0.861785 0.178909 -0.4759789 0.8610666 0.173987 -0.462448 0.869408 0.1715705 -0.4557796 0.8734004 0.1804492 -0.4800157 0.8585005 0.9321392 -0.3621002 0.0 0.9321392 -0.3621002 0.0 0.9321392 -0.3621002 0.0 0.9321392 -0.3621002 0.0 -0.9377609 -0.3472818 0.0 -0.9377609 -0.3472818 0.0 -0.9377609 -0.3472818 0.0 -0.9377609 -0.3472818 0.0 -0.6297407 -0.7768054 0.0 -0.6297407 -0.7768053 0.0 -0.6297407 -0.7768054 0.0 -0.6297407 -0.7768054 0.0 -0.6297407 -0.7768055 0.0 0.0 0.0 -1.0 0.0 0.0 -1.0 0.0 0.0 -1.0 0.0 0.0 -1.0 0.0 0.0 -1.0 0.0 0.0 -1.0 0.0 0.0 -1.0 0.0 0.0 -1.0 0.0 0.0 -1.0 0.0 0.0 -1.0 0.0 0.0 -1.0 0.0 0.0 -1.0 0.0 0.0 -1.0 0.0 0.0 -1.0 0.0 0.0 -1.0 0.0 0.0 -1.0 0.0 0.0 -1.0 0.0 0.0 -1.0 0.0 0.0 -1.0 0.0 0.0 -1.0 0.0 0.0 -1.0 0.0 0.0 -1.0 0.0 0.0 -1.0 0.0 0.0 -1.0 0.0 0.0 -1.0 0.0 0.0 -1.0 0.0 0.0 -1.0 0.0 0.0 -1.0 0.0 0.0 -1.0 0.0 0.0 -1.0 0.0 0.0 -1.0 0.0 0.0 -1.0 0.0 0.0 -1.0 0.0 0.0 -1.0 0.0 0.0 -1.0 0.0 0.0 -1.0 0.0 0.0 -1.0 -0.3518813 0.9360446 0.0 -0.3518813 0.9360446 0.0 -0.3518813 0.9360446 0.0 -0.3518813 0.9360446 0.0 -0.3151531 -0.9490408 0.0 -0.3151531 -0.9490408 0.0 -0.3151531 -0.9490408 0.0 -0.3151531 -0.9490408 0.0 0.895856 -0.4443446 0.0 0.895856 -0.4443446 0.0 0.895856 -0.4443446 0.0 0.895856 -0.4443446 0.0 -0.4798554 -0.8773476 0.0 -0.4798555 -0.8773476 0.0 -0.4798554 -0.8773476 0.0 -0.4798554 -0.8773476 0.0 0.3518813 -0.9360446 0.0 0.3518813 -0.9360446 0.0 0.3518813 -0.9360446 0.0 0.3518813 -0.9360446 0.0 0.0358193 -0.9993584 0.0 0.0358193 -0.9993584 0.0 0.0358193 -0.9993584 0.0 0.0358193 -0.9993584 0.0 -0.5555265 -0.8314989 0.0 -0.5555265 -0.8314989 0.0 -0.5555265 -0.8314989 0.0 -0.5555265 -0.8314988 0.0 0.617663 -0.786443 0.0 0.617663 -0.786443 0.0 0.617663 -0.786443 0.0 0.6176629 -0.7864429 0.0 0.3830895 -0.9237113 0.0 0.3830895 -0.9237113 0.0 0.3830895 -0.9237113 0.0 0.3830895 -0.9237113 0.0 -0.8545219 0.5194156 0.0 -0.8545219 0.5194156 0.0 -0.8545219 0.5194156 0.0 -0.8545218 0.5194155 0.0 -0.3495906 0.9369026 0.0 -0.3495906 0.9369026 0.0 -0.3495906 0.9369026 0.0 -0.3495906 0.9369026 0.0 -0.2290393 -0.9734172 0.0 -0.2290393 -0.9734172 0.0 -0.2290393 -0.9734172 0.0 -0.2290393 -0.9734172 0.0 0.3011314 -0.9535826 0.0 0.3011314 -0.9535826 0.0 0.3011314 -0.9535826 0.0 0.3011314 -0.9535826 0.0 -0.3518812 0.9360446 0.0 -0.3518812 0.9360446 0.0 -0.3518812 0.9360446 0.0 -0.3518812 0.9360446 0.0 0.7454287 -0.6665853 0.0 0.7454287 -0.6665853 0.0 0.7454287 -0.6665853 0.0 0.7454287 -0.6665853 0.0 -0.1399145 -0.9901636 0.0 -0.1399145 -0.9901636 0.0 -0.1399145 -0.9901636 0.0 -0.1399145 -0.9901636 0.0 0.8514116 -0.5244983 0.0 0.8514115 -0.5244982 0.0 0.8514116 -0.5244983 0.0 0.8514116 -0.5244982 0.0 -0.2297079 0.6166119 0.75301 -0.2293466 0.6169208 0.7528671 -0.2293734 0.6169343 0.7528479 -0.229359 0.6169642 0.7528278 -0.2300422 0.6162894 0.753172 -0.2307664 0.6155974 0.7535163 0.354581 -0.9350253 0.0 0.354581 -0.9350253 0.0 0.354581 -0.9350253 0.0 0.354581 -0.9350253 0.0 0.8545219 -0.5194156 0.0 0.8545219 -0.5194156 0.0 0.8545219 -0.5194156 0.0 0.8545219 -0.5194156 0.0 0.8545218 -0.5194156 0.0 -0.5881808 -0.8087295 0.0 -0.5881808 -0.8087295 0.0 -0.5881808 -0.8087295 0.0 -0.5881808 -0.8087295 0.0 0.467227 -0.8841374 0.0 0.467227 -0.8841374 0.0 0.467227 -0.8841374 0.0 0.467227 -0.8841374 0.0 0.2323486 -0.6161544 0.7525741 0.2319007 -0.6161695 0.7527 0.2317857 -0.6161191 0.7527766 0.2333079 -0.6162462 0.7522022 0.2332695 -0.6162447 0.7522152 0.2313558 -0.6153497 0.7535378 0.2312368 -0.6149913 0.7538669 0.2308407 -0.6139379 0.7548462 -0.3457052 0.9383432 0.0 -0.3457052 0.9383432 0.0 -0.3457052 0.9383432 0.0 -0.3457053 0.9383432 0.0 0.5405765 -0.8412949 0.0 0.5405765 -0.8412948 0.0 0.5405765 -0.8412949 0.0 0.5405765 -0.8412948 0.0 0.125357 -0.9921117 0.0 0.125357 -0.9921117 0.0 0.125357 -0.9921117 0.0 0.125357 -0.9921117 0.0 -0.0538784 -0.9985475 0.0 -0.0538784 -0.9985476 0.0 -0.0538784 -0.9985475 0.0 -0.0538784 -0.9985475 0.0 0.9818015 -0.1899104 0.0 0.9818015 -0.1899104 0.0 0.9818015 -0.1899104 0.0 0.9818015 -0.1899104 0.0 0.8034302 -0.5953991 0.0 0.8034301 -0.5953991 0.0 0.8034302 -0.5953991 0.0 0.8034302 -0.5953991 0.0 0.361615 -0.9323275 0.0 0.361615 -0.9323275 0.0 0.361615 -0.9323275 0.0 0.361615 -0.9323275 0.0 0.2154098 -0.9765238 0.0 0.2154098 -0.9765238 0.0 0.2154098 -0.9765238 0.0 0.2154098 -0.9765238 0.0 0.6834649 -0.7299834 0.0 0.6834649 -0.7299834 0.0 0.6834649 -0.7299834 0.0 0.6834649 -0.7299833 0.0</float_array>
                    <technique_common>
                        <accessor count="238" source="#geometry0-normal-array" stride="3">
                            <param name="X" type="float"/>
                            <param name="Y" type="float"/>
                            <param name="Z" type="float"/>
                        </accessor>
                    </technique_common>
                </source>
                <vertices id="geometry0-vertex">
                    <input semantic="POSITION" source="#geometry0-position"/>
                </vertices>
                <triangles count="111" material="default_ai_0.2_sh_0.2_tr_0.0_dc_r_0.8_g_0.8_b_0.8_sc_r_1.0_g_1.0_b_1.0_ec_r_0.0_g_0.0_b_0_tri">
                    <input offset="0" semantic="VERTEX" source="#geometry0-vertex"/>
                    <input offset="1" semantic="NORMAL" source="#geometry0-normal"/>
                    <p>12 0 13 1 14 2 12 0 14 2 15 3 66 4 61 5 63 6 66 4 63 6 71 7 70 8 66 9 71 10 70 8 71 10 72 11 9 12 48 13 38 14 9 12 38 14 10 15 61 16 60 17 20 18 61 16 20 18 63 19 48 53 49 54 39 55 48 53 39 55 38 56 57 57 56 58 69 59 57 57 69 59 64 60 37 61 36 62 46 63 52 64 37 61 46 63 52 64 46 63 51 65 63 66 20 67 21 68 63 66 21 68 37 69 63 66 37 69 65 70 71 71 63 66 65 70 71 71 65 70 64 72 72 73 71 71 64 72 68 74 72 73 64 72 68 74 64 72 69 75 27 76 34 77 7 78 27 76 7 78 6 79 27 76 6 79 17 80 27 76 17 80 30 81 27 76 30 81 32 82 27 76 32 82 24 83 27 76 24 83 15 84 27 76 15 84 14 85 27 76 14 85 35 86 27 76 35 86 36 87 27 76 36 87 37 88 28 89 27 76 37 88 44 90 28 89 37 88 43 91 44 90 37 88 42 92 43 91 37 88 41 93 42 92 37 88 40 94 41 93 37 88 2 95 40 94 37 88 3 96 2 95 37 88 39 97 3 96 37 88 38 98 39 97 37 88 10 99 38 98 37 88 11 100 10 99 37 88 11 100 37 88 21 101 11 100 21 101 20 102 22 103 21 104 37 105 22 103 37 105 52 106 23 107 12 108 15 109 23 107 15 109 24 110 49 111 0 112 3 113 49 111 3 113 39 114 13 115 45 116 35 117 13 115 35 117 14 118 37 119 21 120 22 121 37 119 22 121 52 122 5 123 16 124 17 125 5 123 17 125 6 126 45 127 46 128 36 129 45 127 36 129 35 130 55 131 53 132 43 133 55 131 43 133 42 134 25 135 26 136 27 137 25 135 27 137 28 138 60 139 22 140 21 141 60 139 21 141 20 142 67 143 70 144 72 145 67 143 72 145 68 146 31 147 23 148 24 149 31 147 24 149 32 150 26 151 33 152 34 153 26 151 34 153 27 154 22 155 52 156 51 157 22 155 51 157 18 158 47 159 50 160 41 161 47 159 41 161 40 162 29 163 31 164 32 165 29 163 32 165 30 166 0 167 1 168 2 169 0 167 2 169 3 170 59 177 57 178 64 179 59 177 64 179 65 180 20 181 21 182 22 183 20 181 22 183 18 184 20 181 18 184 19 185 52 186 59 187 65 188 52 186 65 188 37 189 54 190 25 191 28 192 54 190 28 192 44 193 56 202 67 203 68 204 56 202 68 204 69 205 53 206 54 207 44 208 53 206 44 208 43 209 4 210 5 211 6 212 4 210 6 212 7 213 16 214 29 215 30 216 16 214 30 216 17 217 8 218 9 219 10 220 8 218 10 220 11 221 1 222 47 223 40 224 1 222 40 224 2 225 19 226 8 227 11 228 19 226 11 228 20 229 33 230 4 231 7 232 33 230 7 232 34 233 50 234 55 235 42 236 50 234 42 236 41 237</p>
                </triangles>
                <triangles count="37" material="default_ai_0.2_sh_0.2_tr_0.0_dc_r_1.0_g_0.2_b_0.2_sc_r_1.0_g_1.0_b_1.0_ec_r_0.0_g_0.0_b_0_tri">
                    <input offset="0" semantic="VERTEX" source="#geometry0-vertex"/>
                    <input offset="1" semantic="NORMAL" source="#geometry0-normal"/>
                    <p>56 20 57 21 58 22 61 23 66 24 62 25 5 26 4 27 33 28 5 26 33 28 26 29 5 26 26 29 25 30 5 26 25 30 54 31 5 26 54 31 53 32 5 26 53 32 55 33 5 26 55 33 50 34 5 26 50 34 47 35 5 26 47 35 1 36 5 26 1 36 0 37 5 26 0 37 49 38 5 26 49 38 48 39 5 26 48 39 9 40 5 26 9 40 8 41 16 42 5 26 8 41 29 43 16 42 8 41 31 44 29 43 8 41 23 45 31 44 8 41 12 46 23 45 8 41 13 47 12 46 8 41 45 48 13 47 8 41 46 49 45 48 8 41 51 50 46 49 8 41 51 50 8 41 19 51 51 50 19 51 18 52 58 171 62 172 66 173 58 171 66 173 70 174 58 171 70 174 67 175 58 171 67 175 56 176 62 194 58 195 57 196 62 194 57 196 59 197 62 194 59 197 52 198 62 194 52 198 22 199 61 200 62 194 22 199 61 200 22 199 60 201</p>
                </triangles>
            </mesh>
        </geometry>
    </library_geometries>
    <library_visual_scenes>
        <visual_scene id="Building_DEBW_5221000QoG8">
            <node>
                <instance_geometry url="#geometry0">
                    <bind_material>
                        <technique_common>
                            <instance_material symbol="default_ai_0.2_sh_0.2_tr_0.0_dc_r_0.8_g_0.8_b_0.8_sc_r_1.0_g_1.0_b_1.0_ec_r_0.0_g_0.0_b_0_tri" target="#default_ai_0.2_sh_0.2_tr_0.0_dc_r_0.8_g_0.8_b_0.8_sc_r_1.0_g_1.0_b_1.0_ec_r_0.0_g_0.0_b_0_mat"/>
                            <instance_material symbol="default_ai_0.2_sh_0.2_tr_0.0_dc_r_1.0_g_0.2_b_0.2_sc_r_1.0_g_1.0_b_1.0_ec_r_0.0_g_0.0_b_0_tri" target="#default_ai_0.2_sh_0.2_tr_0.0_dc_r_1.0_g_0.2_b_0.2_sc_r_1.0_g_1.0_b_1.0_ec_r_0.0_g_0.0_b_0_mat"/>
                        </technique_common>
                    </bind_material>
                </instance_geometry>
            </node>
        </visual_scene>
    </library_visual_scenes>
    <scene>
        <instance_visual_scene url="#Building_DEBW_5221000QoG8"/>
    </scene>
</COLLADA>
