<?xml version="1.0" encoding="UTF-8" standalone="yes"?>
<COLLADA xmlns="http://www.collada.org/2005/11/COLLADASchema" version="1.4.1">
    <asset>
        <contributor>
            <authoring_tool>3D City Database Importer/Exporter, version 5.5.3; Chair of Geoinformatics, Technical University of Munich</authoring_tool>
        </contributor>
        <created>2026-05-06T15:12:07.218</created>
        <modified>2026-05-06T15:12:07.218</modified>
        <unit meter="1.0" name="meters"/>
        <up_axis>Z_UP</up_axis>
    </asset>
    <library_materials>
        <material id="default_ai_0.2_sh_0.2_tr_0.0_dc_r_0.8_g_0.8_b_0.8_sc_r_1.0_g_1.0_b_1.0_ec_r_0.0_g_0.0_b_0_mat">
            <instance_effect url="#default_ai_0.2_sh_0.2_tr_0.0_dc_r_0.8_g_0.8_b_0.8_sc_r_1.0_g_1.0_b_1.0_ec_r_0.0_g_0.0_b_0_eff"/>
        </material>
        <material id="default_ai_0.2_sh_0.2_tr_0.0_dc_r_1.0_g_0.2_b_0.2_sc_r_1.0_g_1.0_b_1.0_ec_r_0.0_g_0.0_b_0_mat">
            <instance_effect url="#default_ai_0.2_sh_0.2_tr_0.0_dc_r_1.0_g_0.2_b_0.2_sc_r_1.0_g_1.0_b_1.0_ec_r_0.0_g_0.0_b_0_eff"/>
        </material>
    </library_materials>
    <library_effects>
        <effect id="default_ai_0.2_sh_0.2_tr_0.0_dc_r_0.8_g_0.8_b_0.8_sc_r_1.0_g_1.0_b_1.0_ec_r_0.0_g_0.0_b_0_eff">
            <profile_COMMON>
                <technique sid="COMMON">
                    <lambert>
                        <emission>
                            <color>0.0 0.0 0.0 1.0</color>
                        </emission>
                        <diffuse>
                            <color>0.8 0.8 0.8 1.0</color>
                        </diffuse>
                        <reflective>
                            <color>1.0 1.0 1.0 1.0</color>
                        </reflective>
                        <reflectivity>
                            <float>0.2</float>
                        </reflectivity>
                        <transparent opaque="A_ONE">
                            <color>1.0 1.0 1.0 1.0</color>
                        </transparent>
                        <transparency>
                            <float>1.0</float>
                        </transparency>
                    </lambert>
                </technique>
                <extra>
                    <technique profile="GOOGLEEARTH">
                        <double_sided>0</double_sided>
                    </technique>
                </extra>
            </profile_COMMON>
        </effect>
        <effect id="default_ai_0.2_sh_0.2_tr_0.0_dc_r_1.0_g_0.2_b_0.2_sc_r_1.0_g_1.0_b_1.0_ec_r_0.0_g_0.0_b_0_eff">
            <profile_COMMON>
                <technique sid="COMMON">
                    <lambert>
                        <emission>
                            <color>0.0 0.0 0.0 1.0</color>
                        </emission>
                        <diffuse>
                            <color>1.0 0.2 0.2 1.0</color>
                        </diffuse>
                        <reflective>
                            <color>1.0 1.0 1.0 1.0</color>
                        </reflective>
                        <reflectivity>
                            <float>0.2</float>
                        </reflectivity>
                        <transparent opaque="A_ONE">
                            <color>1.0 1.0 1.0 1.0</color>
                        </transparent>
                        <transparency>
                            <float>1.0</float>
                        </transparency>
                    </lambert>
                </technique>
                <extra>
                    <technique profile="GOOGLEEARTH">
                        <double_sided>0</double_sided>
                    </technique>
                </extra>
            </profile_COMMON>
        </effect>
    </library_effects>
    <library_geometries>
        <geometry id="geometry0">
            <mesh>
                <source id="geometry0-position">
                    <float_array id="geometry0-position-array" count="102">0.0 0.0 9.139 5.89 -1.11 8.167 5.92 -0.9 8.369 9.64 -1.76 7.602 9.62 -3.74 5.698 17.86 -3.84 5.735 17.89 -1.33 8.149 17.95 -1.33 8.15 18.013 4.368 13.631 -6.161 4.775 13.631 -6.24 0.06 9.096 -0.21 -1.08 8.097 0.0 0.0 0.0 5.89 -1.11 0.0 -6.06 10.76 8.166 18.08 10.39 8.133 7.32 10.55 8.152 18.08 10.39 0.0 7.32 10.55 0.0 5.92 -0.9 0.0 -6.06 10.76 0.0 -6.24 0.06 0.0 -0.21 -1.08 0.0 4.44 10.59 0.0 4.48 11.17 0.0 7.28 11.11 0.0 17.95 -1.33 0.0 17.89 -1.33 0.0 17.86 -3.84 0.0 9.62 -3.74 0.0 9.64 -1.76 0.0 4.44 10.59 8.159 4.48 11.17 7.629 7.28 11.11 7.641</float_array>
                    <technique_common>
                        <accessor count="34" source="#geometry0-position-array" stride="3">
                            <param name="X" type="float"/>
                            <param name="Y" type="float"/>
                            <param name="Z" type="float"/>
                        </accessor>
                    </technique_common>
                </source>
                <source id="geometry0-normal">
                    <float_array id="geometry0-normal-array" count="318">-0.9976304 0.068802 0.0 -0.9976303 0.068802 0.0 -0.9976304 0.068802 0.0 -0.9976304 0.068802 0.0 -0.0114171 -0.6923541 0.7214676 -0.0115767 -0.6929139 0.7209273 -0.0116747 -0.6934233 0.7204359 -0.0116472 -0.6930297 0.7208149 -0.0116566 -0.6930496 0.7207956 -0.0116561 -0.6930881 0.7207587 -0.011736 -0.6937705 0.7201004 -0.0118066 -0.6943804 0.7195113 -0.0116587 -0.6931146 0.720733 -0.0116582 -0.6930894 0.7207575 -0.0116528 -0.6930875 0.7207593 -0.0116151 -0.6930677 0.7207789 -0.1851951 -0.9827018 0.0 -0.1851951 -0.9827018 0.0 -0.1851951 -0.9827018 0.0 -0.1851951 -0.9827018 0.0 0.9999385 -0.0110913 3.7E-5 0.9999385 -0.0110913 3.7E-5 0.9999385 -0.0110913 3.7E-5 0.0 -1.0 0.0 0.0 -1.0 0.0 0.0 -1.0 0.0 0.0 -1.0 0.0 -0.999949 0.0101007 0.0 -0.999949 0.0101007 0.0 -0.999949 0.0101007 0.0 -0.999949 0.0101007 0.0 0.9816154 -0.1908696 0.0 0.9816154 -0.1908696 0.0 0.9816154 -0.1908696 0.0 0.9816154 -0.1908696 0.0 0.0161884 0.999869 0.0 0.0161884 0.999869 0.0 0.0161884 0.999869 0.0 0.0161884 0.9998689 0.0 0.9974587 0.071247 0.0 0.9974587 0.071247 0.0 0.9974587 0.071247 0.0 0.9974588 0.0712471 0.0 0.0113796 0.6742127 0.7384496 0.0113502 0.6741506 0.7385067 0.0113506 0.6741866 0.7384738 0.0110076 0.652667 0.7575649 0.0105751 0.6191457 0.785205 0.0105097 0.6193102 0.7850761 0.0112208 0.6742742 0.7383958 0.0112801 0.6741043 0.73855 -0.225242 -0.9743028 0.0 -0.225242 -0.9743028 0.0 -0.225242 -0.9743028 0.0 -0.225242 -0.9743028 0.0 0.0148682 0.9998895 0.0 0.0148682 0.9998894 0.0 0.0148682 0.9998895 0.0 0.0148682 0.9998895 0.0 -0.1857641 -0.9825944 0.0 -0.1857641 -0.9825944 0.0 -0.1857641 -0.9825944 0.0 -0.1857641 -0.9825944 0.0 0.9999385 -0.0110914 0.0 0.9999385 -0.0110914 0.0 0.9999385 -0.0110914 0.0 0.9999385 -0.0110914 0.0 0.0 0.0 -1.0 0.0 0.0 -1.0 0.0 0.0 -1.0 0.0 0.0 -1.0 0.0 0.0 -1.0 0.0 0.0 -1.0 0.0 0.0 -1.0 0.0 0.0 -1.0 0.0 0.0 -1.0 0.0 0.0 -1.0 0.0 0.0 -1.0 0.0 0.0 -1.0 0.0 0.0 -1.0 0.0 0.0 -1.0 0.0 0.0 -1.0 0.0 0.0 -1.0 0.9999286 -0.0119509 0.0 0.9999286 -0.0119509 0.0 0.9999286 -0.0119509 0.0 0.9999286 -0.0119509 0.0 -0.012135 -0.9999263 0.0 -0.012135 -0.9999263 0.0 -0.012135 -0.9999263 0.0 -0.012135 -0.9999264 0.0 0.0214238 0.9997705 0.0 0.0214238 0.9997705 0.0 0.0214238 0.9997705 0.0 0.0214238 0.9997705 0.0 -0.9998585 0.01682 0.0 -0.9998586 0.01682 0.0 -0.9998585 0.01682 0.0 -0.9998585 0.01682 0.0 -0.9998586 0.0168145 -6.42E-5 -0.9998586 0.0168145 -6.42E-5 -0.9998586 0.0168145 -6.42E-5 0.9899493 -0.1414223 0.0 0.9899493 -0.1414223 0.0 0.9899493 -0.1414223 0.0 0.9899493 -0.1414223 0.0</float_array>
                    <technique_common>
                        <accessor count="106" source="#geometry0-normal-array" stride="3">
                            <param name="X" type="float"/>
                            <param name="Y" type="float"/>
                            <param name="Z" type="float"/>
                        </accessor>
                    </technique_common>
                </source>
                <vertices id="geometry0-vertex">
                    <input semantic="POSITION" source="#geometry0-position"/>
                </vertices>
                <triangles count="48" material="default_ai_0.2_sh_0.2_tr_0.0_dc_r_0.8_g_0.8_b_0.8_sc_r_1.0_g_1.0_b_1.0_ec_r_0.0_g_0.0_b_0_tri">
                    <input offset="0" semantic="VERTEX" source="#geometry0-vertex"/>
                    <input offset="1" semantic="NORMAL" source="#geometry0-normal"/>
                    <p>31 0 32 1 24 2 31 0 24 2 23 3 1 16 0 17 12 18 1 16 12 18 13 19 7 20 15 21 8 22 7 23 6 24 27 25 7 23 27 25 26 26 4 27 3 28 30 29 4 27 30 29 29 30 0 31 11 32 22 33 0 31 22 33 12 34 14 35 31 36 23 37 14 35 23 37 20 38 33 39 16 40 18 41 33 39 18 41 25 42 3 51 2 52 19 53 3 51 19 53 30 54 16 55 15 56 17 57 16 55 17 57 18 58 11 59 10 60 21 61 11 59 21 61 22 62 15 63 7 64 26 65 15 63 26 65 17 66 22 67 21 68 12 69 21 68 20 70 12 69 12 69 20 70 13 71 13 71 20 70 19 72 19 72 20 70 30 73 20 70 23 74 30 73 23 74 24 75 30 73 25 76 18 77 24 75 24 75 18 77 30 73 18 77 17 78 30 73 30 73 17 78 29 79 26 80 27 81 17 78 17 78 27 81 29 79 29 79 27 81 28 82 6 83 5 84 28 85 6 83 28 85 27 86 5 87 4 88 29 89 5 87 29 89 28 90 32 91 33 92 25 93 32 91 25 93 24 94 10 95 14 96 20 97 10 95 20 97 21 98 14 99 10 100 9 101 2 102 1 103 13 104 2 102 13 104 19 105</p>
                </triangles>
                <triangles count="16" material="default_ai_0.2_sh_0.2_tr_0.0_dc_r_1.0_g_0.2_b_0.2_sc_r_1.0_g_1.0_b_1.0_ec_r_0.0_g_0.0_b_0_tri">
                    <input offset="0" semantic="VERTEX" source="#geometry0-vertex"/>
                    <input offset="1" semantic="NORMAL" source="#geometry0-normal"/>
                    <p>1 4 2 5 0 6 4 7 5 8 3 9 5 8 6 10 3 9 3 9 6 10 2 5 2 5 6 10 0 6 6 10 7 11 0 6 7 11 8 12 0 6 8 12 9 13 0 6 0 6 9 13 11 14 11 14 9 13 10 15 14 43 9 44 8 45 31 46 14 43 8 45 31 46 8 45 15 47 31 46 15 47 16 48 31 46 16 48 33 49 31 46 33 49 32 50</p>
                </triangles>
            </mesh>
        </geometry>
    </library_geometries>
    <library_visual_scenes>
        <visual_scene id="Building_DEBW_5221000QkK8">
            <node>
                <instance_geometry url="#geometry0">
                    <bind_material>
                        <technique_common>
                            <instance_material symbol="default_ai_0.2_sh_0.2_tr_0.0_dc_r_0.8_g_0.8_b_0.8_sc_r_1.0_g_1.0_b_1.0_ec_r_0.0_g_0.0_b_0_tri" target="#default_ai_0.2_sh_0.2_tr_0.0_dc_r_0.8_g_0.8_b_0.8_sc_r_1.0_g_1.0_b_1.0_ec_r_0.0_g_0.0_b_0_mat"/>
                            <instance_material symbol="default_ai_0.2_sh_0.2_tr_0.0_dc_r_1.0_g_0.2_b_0.2_sc_r_1.0_g_1.0_b_1.0_ec_r_0.0_g_0.0_b_0_tri" target="#default_ai_0.2_sh_0.2_tr_0.0_dc_r_1.0_g_0.2_b_0.2_sc_r_1.0_g_1.0_b_1.0_ec_r_0.0_g_0.0_b_0_mat"/>
                        </technique_common>
                    </bind_material>
                </instance_geometry>
            </node>
        </visual_scene>
    </library_visual_scenes>
    <scene>
        <instance_visual_scene url="#Building_DEBW_5221000QkK8"/>
    </scene>
</COLLADA>
