<?xml version="1.0" encoding="UTF-8" standalone="yes"?>
<COLLADA xmlns="http://www.collada.org/2005/11/COLLADASchema" version="1.4.1">
    <asset>
        <contributor>
            <authoring_tool>3D City Database Importer/Exporter, version 5.5.3; Chair of Geoinformatics, Technical University of Munich</authoring_tool>
        </contributor>
        <created>2026-05-06T15:12:15.752</created>
        <modified>2026-05-06T15:12:15.752</modified>
        <unit meter="1.0" name="meters"/>
        <up_axis>Z_UP</up_axis>
    </asset>
    <library_materials>
        <material id="default_ai_0.2_sh_0.2_tr_0.0_dc_r_0.8_g_0.8_b_0.8_sc_r_1.0_g_1.0_b_1.0_ec_r_0.0_g_0.0_b_0_mat">
            <instance_effect url="#default_ai_0.2_sh_0.2_tr_0.0_dc_r_0.8_g_0.8_b_0.8_sc_r_1.0_g_1.0_b_1.0_ec_r_0.0_g_0.0_b_0_eff"/>
        </material>
        <material id="default_ai_0.2_sh_0.2_tr_0.0_dc_r_1.0_g_0.2_b_0.2_sc_r_1.0_g_1.0_b_1.0_ec_r_0.0_g_0.0_b_0_mat">
            <instance_effect url="#default_ai_0.2_sh_0.2_tr_0.0_dc_r_1.0_g_0.2_b_0.2_sc_r_1.0_g_1.0_b_1.0_ec_r_0.0_g_0.0_b_0_eff"/>
        </material>
    </library_materials>
    <library_effects>
        <effect id="default_ai_0.2_sh_0.2_tr_0.0_dc_r_0.8_g_0.8_b_0.8_sc_r_1.0_g_1.0_b_1.0_ec_r_0.0_g_0.0_b_0_eff">
            <profile_COMMON>
                <technique sid="COMMON">
                    <lambert>
                        <emission>
                            <color>0.0 0.0 0.0 1.0</color>
                        </emission>
                        <diffuse>
                            <color>0.8 0.8 0.8 1.0</color>
                        </diffuse>
                        <reflective>
                            <color>1.0 1.0 1.0 1.0</color>
                        </reflective>
                        <reflectivity>
                            <float>0.2</float>
                        </reflectivity>
                        <transparent opaque="A_ONE">
                            <color>1.0 1.0 1.0 1.0</color>
                        </transparent>
                        <transparency>
                            <float>1.0</float>
                        </transparency>
                    </lambert>
                </technique>
                <extra>
                    <technique profile="GOOGLEEARTH">
                        <double_sided>0</double_sided>
                    </technique>
                </extra>
            </profile_COMMON>
        </effect>
        <effect id="default_ai_0.2_sh_0.2_tr_0.0_dc_r_1.0_g_0.2_b_0.2_sc_r_1.0_g_1.0_b_1.0_ec_r_0.0_g_0.0_b_0_eff">
            <profile_COMMON>
                <technique sid="COMMON">
                    <lambert>
                        <emission>
                            <color>0.0 0.0 0.0 1.0</color>
                        </emission>
                        <diffuse>
                            <color>1.0 0.2 0.2 1.0</color>
                        </diffuse>
                        <reflective>
                            <color>1.0 1.0 1.0 1.0</color>
                        </reflective>
                        <reflectivity>
                            <float>0.2</float>
                        </reflectivity>
                        <transparent opaque="A_ONE">
                            <color>1.0 1.0 1.0 1.0</color>
                        </transparent>
                        <transparency>
                            <float>1.0</float>
                        </transparency>
                    </lambert>
                </technique>
                <extra>
                    <technique profile="GOOGLEEARTH">
                        <double_sided>0</double_sided>
                    </technique>
                </extra>
            </profile_COMMON>
        </effect>
    </library_effects>
    <library_geometries>
        <geometry id="geometry0">
            <mesh>
                <source id="geometry0-position">
                    <float_array id="geometry0-position-array" count="54">1.74 -0.526 3.509 0.0 0.0 3.416 0.0 0.0 0.0 1.74 -0.526 0.0 6.561 0.741 4.164 5.321 -1.139 3.768 5.321 -1.139 0.0 6.561 0.741 0.0 -1.691 0.668 0.0 -3.321 1.474 0.0 -4.879 2.411 0.0 -2.129 6.551 0.0 3.518 -0.907 0.0 -1.691 0.668 3.35 -2.129 6.551 4.17 -3.321 1.474 3.309 -4.879 2.411 3.295 3.518 -0.907 3.626</float_array>
                    <technique_common>
                        <accessor count="18" source="#geometry0-position-array" stride="3">
                            <param name="X" type="float"/>
                            <param name="Y" type="float"/>
                            <param name="Z" type="float"/>
                        </accessor>
                    </technique_common>
                </source>
                <source id="geometry0-normal">
                    <float_array id="geometry0-normal-array" count="162">-0.1276222 -0.9918228 0.0 -0.1276222 -0.9918228 0.0 -0.1276222 -0.9918228 0.0 -0.1276222 -0.9918228 0.0 0.8347727 -0.5505947 0.0 0.8347728 -0.5505947 0.0 0.8347727 -0.5505947 0.0 0.8347727 -0.5505946 0.0 -0.5153852 -0.8569586 0.0 -0.5153852 -0.8569586 0.0 -0.5153852 -0.8569586 0.0 -0.5153852 -0.8569586 0.0 -0.4432496 -0.8963982 0.0 -0.4432497 -0.8963983 0.0 -0.4432496 -0.8963982 0.0 -0.4432496 -0.8963982 0.0 -0.095371 -0.1428192 0.9851431 -0.0945306 -0.1384004 0.9858546 -0.0953939 -0.1418828 0.9852762 -0.096131 -0.144748 0.9847878 -0.0959802 -0.1443341 0.9848632 -0.0958917 -0.1445164 0.984845 -0.0959996 -0.1448458 0.9847862 -0.0945096 -0.1414013 0.9854308 -0.0928473 -0.1376055 0.9861258 0.0 0.0 -1.0 0.0 0.0 -1.0 0.0 0.0 -1.0 0.0 0.0 -1.0 0.0 0.0 -1.0 0.0 0.0 -1.0 0.0 0.0 -1.0 0.0 0.0 -1.0 0.0 0.0 -1.0 -0.2893661 -0.9572185 0.0 -0.2893661 -0.9572185 0.0 -0.2893661 -0.9572185 0.0 -0.2893661 -0.9572185 0.0 0.5558035 0.8313137 0.0 0.5558035 0.8313137 0.0 0.5558035 0.8313137 0.0 0.5558035 0.8313137 0.0 -0.8329778 0.5533065 0.0 -0.8329777 0.5533065 0.0 -0.8329778 0.5533065 0.0 -0.8329778 0.5533065 0.0 -0.3674044 -0.9300613 0.0 -0.3674044 -0.9300613 0.0 -0.3674044 -0.9300613 0.0 -0.3674044 -0.9300613 0.0 -0.2095291 -0.9778024 0.0 -0.2095291 -0.9778024 0.0 -0.2095291 -0.9778024 0.0 -0.2095291 -0.9778024 0.0</float_array>
                    <technique_common>
                        <accessor count="54" source="#geometry0-normal-array" stride="3">
                            <param name="X" type="float"/>
                            <param name="Y" type="float"/>
                            <param name="Z" type="float"/>
                        </accessor>
                    </technique_common>
                </source>
                <vertices id="geometry0-vertex">
                    <input semantic="POSITION" source="#geometry0-position"/>
                </vertices>
                <triangles count="25" material="default_ai_0.2_sh_0.2_tr_0.0_dc_r_0.8_g_0.8_b_0.8_sc_r_1.0_g_1.0_b_1.0_ec_r_0.0_g_0.0_b_0_tri">
                    <input offset="0" semantic="VERTEX" source="#geometry0-vertex"/>
                    <input offset="1" semantic="NORMAL" source="#geometry0-normal"/>
                    <p>5 0 17 1 12 2 5 0 12 2 6 3 4 4 5 5 6 6 4 4 6 6 7 7 15 8 16 9 10 10 15 8 10 10 9 11 13 12 15 13 9 14 13 12 9 14 8 15 6 25 12 26 3 27 6 25 3 27 2 28 6 25 2 28 8 29 6 25 8 29 9 30 6 25 9 30 10 31 6 25 10 31 11 32 6 25 11 32 7 33 0 34 1 35 2 36 0 34 2 36 3 37 14 38 4 39 7 40 14 38 7 40 11 41 16 42 14 43 11 44 16 42 11 44 10 45 1 46 13 47 8 48 1 46 8 48 2 49 17 50 0 51 3 52 17 50 3 52 12 53</p>
                </triangles>
                <triangles count="7" material="default_ai_0.2_sh_0.2_tr_0.0_dc_r_1.0_g_0.2_b_0.2_sc_r_1.0_g_1.0_b_1.0_ec_r_0.0_g_0.0_b_0_tri">
                    <input offset="0" semantic="VERTEX" source="#geometry0-vertex"/>
                    <input offset="1" semantic="NORMAL" source="#geometry0-normal"/>
                    <p>1 16 0 17 17 18 1 16 17 18 5 19 1 16 5 19 4 20 1 16 4 20 14 21 1 16 14 21 16 22 1 16 16 22 15 23 1 16 15 23 13 24</p>
                </triangles>
            </mesh>
        </geometry>
    </library_geometries>
    <library_visual_scenes>
        <visual_scene id="Building_DEBW_5221000QYZc">
            <node>
                <instance_geometry url="#geometry0">
                    <bind_material>
                        <technique_common>
                            <instance_material symbol="default_ai_0.2_sh_0.2_tr_0.0_dc_r_0.8_g_0.8_b_0.8_sc_r_1.0_g_1.0_b_1.0_ec_r_0.0_g_0.0_b_0_tri" target="#default_ai_0.2_sh_0.2_tr_0.0_dc_r_0.8_g_0.8_b_0.8_sc_r_1.0_g_1.0_b_1.0_ec_r_0.0_g_0.0_b_0_mat"/>
                            <instance_material symbol="default_ai_0.2_sh_0.2_tr_0.0_dc_r_1.0_g_0.2_b_0.2_sc_r_1.0_g_1.0_b_1.0_ec_r_0.0_g_0.0_b_0_tri" target="#default_ai_0.2_sh_0.2_tr_0.0_dc_r_1.0_g_0.2_b_0.2_sc_r_1.0_g_1.0_b_1.0_ec_r_0.0_g_0.0_b_0_mat"/>
                        </technique_common>
                    </bind_material>
                </instance_geometry>
            </node>
        </visual_scene>
    </library_visual_scenes>
    <scene>
        <instance_visual_scene url="#Building_DEBW_5221000QYZc"/>
    </scene>
</COLLADA>
