<?xml version="1.0" encoding="UTF-8" standalone="yes"?>
<COLLADA xmlns="http://www.collada.org/2005/11/COLLADASchema" version="1.4.1">
    <asset>
        <contributor>
            <authoring_tool>3D City Database Importer/Exporter, version 5.5.3; Chair of Geoinformatics, Technical University of Munich</authoring_tool>
        </contributor>
        <created>2026-05-06T15:12:12.732</created>
        <modified>2026-05-06T15:12:12.732</modified>
        <unit meter="1.0" name="meters"/>
        <up_axis>Z_UP</up_axis>
    </asset>
    <library_materials>
        <material id="default_ai_0.2_sh_0.2_tr_0.0_dc_r_0.8_g_0.8_b_0.8_sc_r_1.0_g_1.0_b_1.0_ec_r_0.0_g_0.0_b_0_mat">
            <instance_effect url="#default_ai_0.2_sh_0.2_tr_0.0_dc_r_0.8_g_0.8_b_0.8_sc_r_1.0_g_1.0_b_1.0_ec_r_0.0_g_0.0_b_0_eff"/>
        </material>
        <material id="default_ai_0.2_sh_0.2_tr_0.0_dc_r_1.0_g_0.2_b_0.2_sc_r_1.0_g_1.0_b_1.0_ec_r_0.0_g_0.0_b_0_mat">
            <instance_effect url="#default_ai_0.2_sh_0.2_tr_0.0_dc_r_1.0_g_0.2_b_0.2_sc_r_1.0_g_1.0_b_1.0_ec_r_0.0_g_0.0_b_0_eff"/>
        </material>
    </library_materials>
    <library_effects>
        <effect id="default_ai_0.2_sh_0.2_tr_0.0_dc_r_0.8_g_0.8_b_0.8_sc_r_1.0_g_1.0_b_1.0_ec_r_0.0_g_0.0_b_0_eff">
            <profile_COMMON>
                <technique sid="COMMON">
                    <lambert>
                        <emission>
                            <color>0.0 0.0 0.0 1.0</color>
                        </emission>
                        <diffuse>
                            <color>0.8 0.8 0.8 1.0</color>
                        </diffuse>
                        <reflective>
                            <color>1.0 1.0 1.0 1.0</color>
                        </reflective>
                        <reflectivity>
                            <float>0.2</float>
                        </reflectivity>
                        <transparent opaque="A_ONE">
                            <color>1.0 1.0 1.0 1.0</color>
                        </transparent>
                        <transparency>
                            <float>1.0</float>
                        </transparency>
                    </lambert>
                </technique>
                <extra>
                    <technique profile="GOOGLEEARTH">
                        <double_sided>0</double_sided>
                    </technique>
                </extra>
            </profile_COMMON>
        </effect>
        <effect id="default_ai_0.2_sh_0.2_tr_0.0_dc_r_1.0_g_0.2_b_0.2_sc_r_1.0_g_1.0_b_1.0_ec_r_0.0_g_0.0_b_0_eff">
            <profile_COMMON>
                <technique sid="COMMON">
                    <lambert>
                        <emission>
                            <color>0.0 0.0 0.0 1.0</color>
                        </emission>
                        <diffuse>
                            <color>1.0 0.2 0.2 1.0</color>
                        </diffuse>
                        <reflective>
                            <color>1.0 1.0 1.0 1.0</color>
                        </reflective>
                        <reflectivity>
                            <float>0.2</float>
                        </reflectivity>
                        <transparent opaque="A_ONE">
                            <color>1.0 1.0 1.0 1.0</color>
                        </transparent>
                        <transparency>
                            <float>1.0</float>
                        </transparency>
                    </lambert>
                </technique>
                <extra>
                    <technique profile="GOOGLEEARTH">
                        <double_sided>0</double_sided>
                    </technique>
                </extra>
            </profile_COMMON>
        </effect>
    </library_effects>
    <library_geometries>
        <geometry id="geometry0">
            <mesh>
                <source id="geometry0-position">
                    <float_array id="geometry0-position-array" count="60">0.76 -1.18 7.285 4.85 1.46 7.279 1.946 5.954 10.327 -10.483 -2.102 10.327 -8.34 -5.39 8.092 0.0 0.0 8.084 0.0 0.0 0.0 0.76 -1.18 0.0 -13.11 2.54 7.307 -1.7 9.94 7.305 -1.7 9.94 0.0 -13.11 2.54 0.0 0.45 8.27 8.763 -0.3 7.78 8.765 -13.39 2.36 7.306 -0.3 7.78 0.0 0.45 8.27 0.0 4.85 1.46 0.0 -8.34 -5.39 0.0 -13.39 2.36 0.0</float_array>
                    <technique_common>
                        <accessor count="20" source="#geometry0-position-array" stride="3">
                            <param name="X" type="float"/>
                            <param name="Y" type="float"/>
                            <param name="Z" type="float"/>
                        </accessor>
                    </technique_common>
                </source>
                <source id="geometry0-normal">
                    <float_array id="geometry0-normal-array" count="192">-0.5441352 0.8389976 0.0 -0.5441352 0.8389977 0.0 -0.5441352 0.8389976 0.0 -0.5441352 0.8389976 0.0 0.0 0.0 -1.0 0.0 0.0 -1.0 0.0 0.0 -1.0 0.0 0.0 -1.0 0.0 0.0 -1.0 0.0 0.0 -1.0 0.0 0.0 -1.0 0.0 0.0 -1.0 0.0 0.0 -1.0 -0.5469488 0.8371661 0.0 -0.5469488 0.8371661 0.0 -0.5469488 0.8371661 0.0 -0.5469487 0.8371661 0.0 0.8391529 0.5438956 0.0 0.8391529 0.5438956 0.0 0.8391529 0.5438956 0.0 0.8391529 0.5438956 0.0 0.839934 0.5426886 0.0 0.839934 0.5426886 0.0 0.839934 0.5426886 0.0 0.839934 0.5426886 0.0 -0.5407568 0.841179 0.0 -0.5407568 0.841179 0.0 -0.5407568 0.841179 0.0 -0.5407568 0.841179 0.0 0.5427919 -0.8398672 0.0 0.5427918 -0.8398672 0.0 0.5427919 -0.8398672 0.0 0.5427919 -0.8398672 0.0 -0.8378256 -0.545938 0.0 -0.8378256 -0.545938 0.0 -0.8378256 -0.545938 0.0 -0.8378256 -0.545938 0.0 -0.8407152 -0.5414776 0.0 -0.8407152 -0.5414777 0.0 -0.8407152 -0.5414776 0.0 -0.8407152 -0.5414776 0.0 -0.2682524 0.4131553 0.8702548 -0.268371 0.4140496 0.869793 -0.2682722 0.4136056 0.8700348 -0.2682778 0.4134201 0.8701211 -0.2683117 0.4140384 0.8698167 -0.2683512 0.4140036 0.8698211 -0.2682354 0.4141158 0.8698033 0.8399496 0.5426644 1.574E-4 0.8399496 0.5426644 1.574E-4 0.8399496 0.5426644 1.574E-4 0.2691955 -0.4152803 0.8689511 0.2691911 -0.4152322 0.8689755 0.2690914 -0.4152776 0.8689847 0.2691382 -0.4152951 0.8689618 0.2691073 -0.4152784 0.8689793 0.2693314 -0.4152848 0.8689069 0.542314 -0.8401759 0.0 0.542314 -0.8401759 0.0 0.542314 -0.8401759 0.0 0.542314 -0.8401759 0.0 -0.8378181 -0.5459495 -1.619E-4 -0.8378181 -0.5459495 -1.619E-4 -0.8378181 -0.5459495 -1.619E-4</float_array>
                    <technique_common>
                        <accessor count="64" source="#geometry0-normal-array" stride="3">
                            <param name="X" type="float"/>
                            <param name="Y" type="float"/>
                            <param name="Z" type="float"/>
                        </accessor>
                    </technique_common>
                </source>
                <vertices id="geometry0-vertex">
                    <input semantic="POSITION" source="#geometry0-position"/>
                </vertices>
                <triangles count="27" material="default_ai_0.2_sh_0.2_tr_0.0_dc_r_0.8_g_0.8_b_0.8_sc_r_1.0_g_1.0_b_1.0_ec_r_0.0_g_0.0_b_0_tri">
                    <input offset="0" semantic="VERTEX" source="#geometry0-vertex"/>
                    <input offset="1" semantic="NORMAL" source="#geometry0-normal"/>
                    <p>8 0 9 1 10 2 8 0 10 2 11 3 18 4 19 5 11 6 18 4 11 6 10 7 18 4 10 7 15 8 18 4 15 8 16 9 6 10 18 4 16 9 6 10 16 9 17 11 6 10 17 11 7 12 13 13 12 14 16 15 13 13 16 15 15 16 9 17 13 18 15 19 9 17 15 19 10 20 12 21 1 22 17 23 12 21 17 23 16 24 14 25 8 26 11 27 14 25 11 27 19 28 5 29 4 30 18 31 5 29 18 31 6 32 4 33 14 34 19 35 4 33 19 35 18 36 0 37 5 38 6 39 0 37 6 39 7 40 1 48 12 49 2 50 1 57 0 58 7 59 1 57 7 59 17 60 14 61 4 62 3 63</p>
                </triangles>
                <triangles count="9" material="default_ai_0.2_sh_0.2_tr_0.0_dc_r_1.0_g_0.2_b_0.2_sc_r_1.0_g_1.0_b_1.0_ec_r_0.0_g_0.0_b_0_tri">
                    <input offset="0" semantic="VERTEX" source="#geometry0-vertex"/>
                    <input offset="1" semantic="NORMAL" source="#geometry0-normal"/>
                    <p>14 41 3 42 2 43 8 44 14 41 2 43 13 45 9 46 8 44 13 45 8 44 2 43 13 45 2 43 12 47 3 51 4 52 5 53 2 54 3 51 5 53 2 54 5 53 0 55 2 54 0 55 1 56</p>
                </triangles>
            </mesh>
        </geometry>
    </library_geometries>
    <library_visual_scenes>
        <visual_scene id="Building_DEBW_5221000QuWT">
            <node>
                <instance_geometry url="#geometry0">
                    <bind_material>
                        <technique_common>
                            <instance_material symbol="default_ai_0.2_sh_0.2_tr_0.0_dc_r_0.8_g_0.8_b_0.8_sc_r_1.0_g_1.0_b_1.0_ec_r_0.0_g_0.0_b_0_tri" target="#default_ai_0.2_sh_0.2_tr_0.0_dc_r_0.8_g_0.8_b_0.8_sc_r_1.0_g_1.0_b_1.0_ec_r_0.0_g_0.0_b_0_mat"/>
                            <instance_material symbol="default_ai_0.2_sh_0.2_tr_0.0_dc_r_1.0_g_0.2_b_0.2_sc_r_1.0_g_1.0_b_1.0_ec_r_0.0_g_0.0_b_0_tri" target="#default_ai_0.2_sh_0.2_tr_0.0_dc_r_1.0_g_0.2_b_0.2_sc_r_1.0_g_1.0_b_1.0_ec_r_0.0_g_0.0_b_0_mat"/>
                        </technique_common>
                    </bind_material>
                </instance_geometry>
            </node>
        </visual_scene>
    </library_visual_scenes>
    <scene>
        <instance_visual_scene url="#Building_DEBW_5221000QuWT"/>
    </scene>
</COLLADA>
