<?xml version="1.0" encoding="UTF-8" standalone="yes"?>
<COLLADA xmlns="http://www.collada.org/2005/11/COLLADASchema" version="1.4.1">
    <asset>
        <contributor>
            <authoring_tool>3D City Database Importer/Exporter, version 5.5.3; Chair of Geoinformatics, Technical University of Munich</authoring_tool>
        </contributor>
        <created>2026-05-06T15:12:11.516</created>
        <modified>2026-05-06T15:12:11.516</modified>
        <unit meter="1.0" name="meters"/>
        <up_axis>Z_UP</up_axis>
    </asset>
    <library_materials>
        <material id="default_ai_0.2_sh_0.2_tr_0.0_dc_r_0.8_g_0.8_b_0.8_sc_r_1.0_g_1.0_b_1.0_ec_r_0.0_g_0.0_b_0_mat">
            <instance_effect url="#default_ai_0.2_sh_0.2_tr_0.0_dc_r_0.8_g_0.8_b_0.8_sc_r_1.0_g_1.0_b_1.0_ec_r_0.0_g_0.0_b_0_eff"/>
        </material>
        <material id="default_ai_0.2_sh_0.2_tr_0.0_dc_r_1.0_g_0.2_b_0.2_sc_r_1.0_g_1.0_b_1.0_ec_r_0.0_g_0.0_b_0_mat">
            <instance_effect url="#default_ai_0.2_sh_0.2_tr_0.0_dc_r_1.0_g_0.2_b_0.2_sc_r_1.0_g_1.0_b_1.0_ec_r_0.0_g_0.0_b_0_eff"/>
        </material>
    </library_materials>
    <library_effects>
        <effect id="default_ai_0.2_sh_0.2_tr_0.0_dc_r_0.8_g_0.8_b_0.8_sc_r_1.0_g_1.0_b_1.0_ec_r_0.0_g_0.0_b_0_eff">
            <profile_COMMON>
                <technique sid="COMMON">
                    <lambert>
                        <emission>
                            <color>0.0 0.0 0.0 1.0</color>
                        </emission>
                        <diffuse>
                            <color>0.8 0.8 0.8 1.0</color>
                        </diffuse>
                        <reflective>
                            <color>1.0 1.0 1.0 1.0</color>
                        </reflective>
                        <reflectivity>
                            <float>0.2</float>
                        </reflectivity>
                        <transparent opaque="A_ONE">
                            <color>1.0 1.0 1.0 1.0</color>
                        </transparent>
                        <transparency>
                            <float>1.0</float>
                        </transparency>
                    </lambert>
                </technique>
                <extra>
                    <technique profile="GOOGLEEARTH">
                        <double_sided>0</double_sided>
                    </technique>
                </extra>
            </profile_COMMON>
        </effect>
        <effect id="default_ai_0.2_sh_0.2_tr_0.0_dc_r_1.0_g_0.2_b_0.2_sc_r_1.0_g_1.0_b_1.0_ec_r_0.0_g_0.0_b_0_eff">
            <profile_COMMON>
                <technique sid="COMMON">
                    <lambert>
                        <emission>
                            <color>0.0 0.0 0.0 1.0</color>
                        </emission>
                        <diffuse>
                            <color>1.0 0.2 0.2 1.0</color>
                        </diffuse>
                        <reflective>
                            <color>1.0 1.0 1.0 1.0</color>
                        </reflective>
                        <reflectivity>
                            <float>0.2</float>
                        </reflectivity>
                        <transparent opaque="A_ONE">
                            <color>1.0 1.0 1.0 1.0</color>
                        </transparent>
                        <transparency>
                            <float>1.0</float>
                        </transparency>
                    </lambert>
                </technique>
                <extra>
                    <technique profile="GOOGLEEARTH">
                        <double_sided>0</double_sided>
                    </technique>
                </extra>
            </profile_COMMON>
        </effect>
    </library_effects>
    <library_geometries>
        <geometry id="geometry0">
            <mesh>
                <source id="geometry0-position">
                    <float_array id="geometry0-position-array" count="258">-0.1 -0.099 7.368 0.0 0.0 7.489 0.0 0.0 0.0 -0.1 -0.099 0.0 0.781 -2.746 7.124 0.643 -2.714 7.021 0.643 -2.714 0.0 0.781 -2.746 0.0 0.349 0.241 7.866 0.478 0.299 7.995 0.478 0.299 0.0 0.349 0.241 0.0 0.254 -2.547 6.76 0.136 -2.469 6.691 0.136 -2.469 0.0 0.254 -2.547 0.0 1.204 -2.767 7.467 1.062 -2.772 7.347 1.062 -2.772 0.0 1.204 -2.767 0.0 -0.487 -0.845 6.773 -0.451 -0.708 6.853 -0.451 -0.708 0.0 -0.487 -0.845 0.0 0.509 -2.67 6.926 0.509 -2.67 0.0 1.344 -2.749 7.59 1.344 -2.749 0.0 9.238 -0.401 8.281 2.218 -3.561 8.015 2.218 -3.561 0.0 9.238 -0.401 0.0 7.538 3.459 8.268 7.538 3.459 0.0 -0.255 -2.063 6.517 -0.328 -1.942 6.5 -0.328 -1.942 0.0 -0.255 -2.063 0.0 -0.39 -1.815 6.496 -0.39 -1.815 0.0 5.768 7.469 8.259 -1.322 4.339 7.991 3.653 2.76 11.534 -0.343 -0.446 7.039 -0.273 -0.324 7.143 -0.273 -0.324 0.0 -0.343 -0.446 0.0 5.768 7.469 0.0 -0.191 -0.208 7.253 -0.191 -0.208 0.0 -0.51 -0.984 6.702 -0.51 -0.984 0.0 0.109 0.091 7.612 0.226 0.171 7.738 0.226 0.171 0.0 0.109 0.091 0.0 -0.077 -2.284 6.582 -0.171 -2.177 6.544 -0.171 -2.177 0.0 -0.077 -2.284 0.0 0.921 -2.765 7.233 0.921 -2.765 0.0 0.379 -2.614 6.839 0.379 -2.614 0.0 1.617 -2.675 7.843 1.482 -2.718 7.715 1.482 -2.718 0.0 1.617 -2.675 0.0 4.374 1.137 11.534 -0.506 -1.408 6.55 -0.52 -1.267 6.59 -0.52 -1.267 0.0 -0.506 -1.408 0.0 1.748 -2.621 7.971 1.748 -2.621 0.0 -0.521 -1.125 6.641 -0.521 -1.125 0.0 0.025 -2.381 6.631 0.025 -2.381 0.0 -0.441 -1.683 6.502 -0.479 -1.547 6.521 -0.479 -1.547 0.0 -0.441 -1.683 0.0 -0.403 -0.575 0.0 -1.322 4.339 0.0 -0.403 -0.575 6.942</float_array>
                    <technique_common>
                        <accessor count="86" source="#geometry0-position-array" stride="3">
                            <param name="X" type="float"/>
                            <param name="Y" type="float"/>
                            <param name="Z" type="float"/>
                        </accessor>
                    </technique_common>
                </source>
                <source id="geometry0-normal">
                    <float_array id="geometry0-normal-array" count="786">0.9148434 0.4038087 0.0 0.9148434 0.4038087 0.0 0.9148434 0.4038087 0.0 0.9148434 0.4038087 0.0 -0.9816521 -0.1906804 0.0 -0.9816521 -0.1906804 0.0 -0.9816521 -0.1906804 0.0 -0.9816521 -0.1906804 0.0 -0.7035446 0.7106511 0.0 -0.7035446 0.7106512 0.0 -0.7035446 0.7106511 0.0 -0.7035446 0.7106511 0.0 -0.0495841 -0.9987699 0.0 -0.0495841 -0.9987699 0.0 -0.0495841 -0.9987699 0.0 -0.0495841 -0.9987699 0.0 -0.8944272 -0.4472135 0.0 -0.8944272 -0.4472135 0.0 -0.8944272 -0.4472135 0.0 -0.8944272 -0.4472135 0.0 -0.8165776 0.5772359 0.0 -0.8165776 0.5772359 0.0 -0.8165776 0.5772359 0.0 -0.8165775 0.5772358 0.0 -0.6138903 -0.273316 0.7405654 -0.6140341 -0.2727779 0.7406445 -0.6140425 -0.2728159 0.7406237 -0.6115462 -0.280763 0.7397184 -0.6110215 -0.2824872 0.7394956 -0.6146983 -0.2711355 0.7406967 -0.6168957 -0.2643077 0.7413375 -0.6130196 -0.2757421 0.7403872 -0.6123114 -0.278103 0.7400903 -0.6161123 -0.2672275 0.7409421 -0.6137401 -0.2736418 0.7405695 -0.6130742 -0.2755785 0.740403 -0.6142353 -0.2725064 0.7405777 -0.6142662 -0.2724827 0.7405608 -0.6136414 -0.2739015 0.7405553 -0.6133434 -0.2746795 0.7405141 -0.614814 -0.2713665 0.740516 -0.6151043 -0.27071 0.7405152 -0.6142796 -0.2724247 0.7405709 -0.6133817 -0.2742516 0.7406408 -0.6140326 -0.2730195 0.7405567 -0.6137533 -0.2734806 0.7406182 -0.6146632 -0.2719155 0.7404398 -0.61458 -0.2719379 0.7405006 -0.6125548 -0.2754676 0.7408739 -0.6136407 -0.2736924 0.7406333 -0.6148631 -0.2717132 0.740348 -0.6144767 -0.2722907 0.7404567 -0.6139897 -0.2730466 0.7405824 -0.6138874 -0.2731841 0.7406164 -0.6139932 -0.2730498 0.7405782 -0.6148658 -0.2718493 0.7402959 -0.6145424 -0.2722578 0.7404143 -0.6132653 -0.2739198 0.7408601 -0.614263 -0.2726965 0.7404847 -0.6155452 -0.2710912 0.7400092 -0.6126258 -0.2745427 0.7411585 -0.6125498 -0.2747074 0.7411603 -0.6130472 -0.2740796 0.7409813 -0.6126848 -0.2745294 0.7411147 -0.6144622 -0.2725756 0.740364 -0.564431 0.8254803 0.0 -0.564431 0.8254803 0.0 -0.564431 0.8254803 0.0 -0.564431 0.8254803 0.0 -0.9865851 0.1632479 0.0 -0.9865851 0.1632479 0.0 -0.9865851 0.1632479 0.0 -0.9865851 0.1632479 0.0 -0.4946162 0.8691115 0.0 -0.4946162 0.8691115 0.0 -0.4946162 0.8691115 0.0 -0.4946162 0.8691115 0.0 -0.2258909 -0.9741526 0.0 -0.2258909 -0.9741526 0.0 -0.2258909 -0.9741526 0.0 -0.2258909 -0.9741526 0.0 -0.9406166 0.3394707 0.0 -0.9406166 0.3394707 0.0 -0.9406166 0.3394707 0.0 -0.9406166 0.3394707 0.0 -0.9067211 0.4217308 0.0 -0.9067211 0.4217308 0.0 -0.9067211 0.4217308 0.0 -0.9067211 0.4217308 0.0 -0.6408768 0.7676437 0.0 -0.6408768 0.7676437 0.0 -0.6408768 0.7676437 0.0 -0.6408768 0.7676437 0.0 -0.75127 -0.659995 0.0 -0.75127 -0.659995 0.0 -0.75127 -0.659995 0.0 -0.75127 -0.659995 0.0 -0.9327981 -0.3603992 0.0 -0.9327981 -0.3603992 0.0 -0.9327981 -0.3603992 0.0 -0.9327982 -0.3603993 0.0 -0.3956239 -0.9184126 0.0 -0.3956239 -0.9184127 0.0 -0.3956239 -0.9184126 0.0 -0.3956239 -0.9184126 0.0 -0.1344819 -0.9909161 0.0 -0.1344819 -0.9909161 0.0 -0.1344819 -0.9909161 0.0 -0.1344819 -0.9909161 0.0 -0.4100707 0.9120537 0.0 -0.4100707 0.9120537 0.0 -0.4100707 0.9120537 0.0 -0.4100707 0.9120538 0.0 0.3034949 -0.9528331 0.0 0.3034949 -0.9528331 0.0 0.3034949 -0.9528331 0.0 0.3034949 -0.9528331 0.0 0.2672174 -0.6532605 0.7084106 0.2672174 -0.6532605 0.7084106 0.2672174 -0.6532605 0.7084106 -0.5514321 -0.8342198 0.0 -0.5514321 -0.8342198 0.0 -0.5514321 -0.8342198 0.0 -0.5514321 -0.8342198 0.0 0.2191766 -0.9756852 0.0 0.2191766 -0.9756852 0.0 0.2191766 -0.9756852 0.0 0.2191766 -0.9756852 0.0 -0.4038626 0.9148198 0.0 -0.4038626 0.9148198 0.0 -0.4038626 0.9148198 0.0 -0.4038626 0.9148198 0.0 0.5925224 0.2633289 0.7612983 0.5924434 0.2631865 0.761409 0.5924854 0.263354 0.7613185 0.592562 0.2634 0.7612429 0.5925965 0.2632786 0.7612579 -0.4724179 -0.8813747 0.0 -0.4724179 -0.8813747 0.0 -0.4724179 -0.8813747 0.0 -0.4724179 -0.8813747 0.0 -0.805056 -0.5931987 0.0 -0.8050561 -0.5931987 0.0 -0.805056 -0.5931987 0.0 -0.805056 -0.5931987 0.0 -0.9951068 -0.0988049 0.0 -0.9951068 -0.0988049 0.0 -0.9951068 -0.0988049 0.0 -0.9951069 -0.0988049 0.0 0.381104 -0.9245322 0.0 0.3811041 -0.9245322 0.0 0.381104 -0.9245322 0.0 0.381104 -0.9245322 0.0 -0.9671659 0.2541456 0.0 -0.9671659 0.2541456 0.0 -0.9671659 0.2541456 0.0 -0.9671659 0.2541456 0.0 0.0351903 -0.9993807 0.0 0.0351903 -0.9993807 0.0 0.0351903 -0.9993807 0.0 0.0351903 -0.9993807 0.0 -0.3119698 -0.950092 0.0 -0.3119699 -0.950092 0.0 -0.3119698 -0.950092 0.0 -0.3119698 -0.950092 0.0 -0.9999752 -0.0070424 0.0 -0.9999752 -0.0070424 0.0 -0.9999752 -0.0070424 0.0 -0.9999752 -0.0070424 0.0 -0.6212455 -0.7836159 0.0 -0.6212455 -0.783616 0.0 -0.6212455 -0.7836159 0.0 -0.6212455 -0.7836159 0.0 -0.7676437 0.6408768 0.0 -0.7676437 0.6408768 0.0 -0.7676437 0.6408768 0.0 -0.7676437 0.6408768 0.0 0.127521 -0.991836 0.0 0.127521 -0.9918359 0.0 0.127521 -0.991836 0.0 0.127521 -0.991836 0.0 -0.9969707 0.0777781 0.0 -0.9969707 0.0777781 0.0 -0.9969707 0.0777781 0.0 -0.9969707 0.0777781 0.0 0.9151752 0.4030564 0.0 0.9151752 0.4030564 0.0 0.9151752 0.4030564 0.0 0.9151751 0.4030564 0.0 0.4104727 -0.9118729 0.0 0.4104727 -0.9118729 0.0 0.4104727 -0.9118729 0.0 0.4104727 -0.9118729 0.0 -0.8562415 -0.5165758 0.0 -0.8562415 -0.5165758 0.0 -0.8562415 -0.5165758 0.0 -0.8562415 -0.5165758 0.0 -0.6891233 -0.7246442 0.0 -0.6891233 -0.7246441 0.0 -0.6891233 -0.7246442 0.0 -0.6891233 -0.7246442 0.0 0.0 0.0 -1.0 0.0 0.0 -1.0 0.0 0.0 -1.0 0.0 0.0 -1.0 0.0 0.0 -1.0 0.0 0.0 -1.0 0.0 0.0 -1.0 0.0 0.0 -1.0 0.0 0.0 -1.0 0.0 0.0 -1.0 0.0 0.0 -1.0 0.0 0.0 -1.0 0.0 0.0 -1.0 0.0 0.0 -1.0 0.0 0.0 -1.0 0.0 0.0 -1.0 0.0 0.0 -1.0 0.0 0.0 -1.0 0.0 0.0 -1.0 0.0 0.0 -1.0 0.0 0.0 -1.0 0.0 0.0 -1.0 0.0 0.0 -1.0 0.0 0.0 -1.0 0.0 0.0 -1.0 0.0 0.0 -1.0 0.0 0.0 -1.0 0.0 0.0 -1.0 0.0 0.0 -1.0 0.0 0.0 -1.0 0.0 0.0 -1.0 0.0 0.0 -1.0 0.0 0.0 -1.0 0.0 0.0 -1.0 0.0 0.0 -1.0 0.0 0.0 -1.0 0.0 0.0 -1.0 0.0 0.0 -1.0 0.0 0.0 -1.0 0.0 0.0 -1.0 0.0 0.0 -1.0 0.0 0.0 -1.0 -0.9631109 -0.2691046 0.0 -0.9631109 -0.2691046 0.0 -0.9631109 -0.2691046 0.0 -0.9631109 -0.2691046 0.0 -0.8986324 -0.4387023 0.0 -0.8986324 -0.4387023 0.0 -0.8986324 -0.4387023 0.0 -0.8986324 -0.4387023 0.0 -0.9134383 -0.4069774 0.0 -0.9134383 -0.4069774 0.0 -0.9134383 -0.4069774 0.0 -0.9134382 -0.4069774 0.0 -0.8673668 0.4976694 0.0 -0.8673668 0.4976694 0.0 -0.8673668 0.4976694 0.0 -0.8673668 0.4976694 0.0 -0.3060769 0.632387 0.7116205 -0.3060769 0.632387 0.7116205 -0.3060769 0.632387 0.7116205</float_array>
                    <technique_common>
                        <accessor count="262" source="#geometry0-normal-array" stride="3">
                            <param name="X" type="float"/>
                            <param name="Y" type="float"/>
                            <param name="Z" type="float"/>
                        </accessor>
                    </technique_common>
                </source>
                <vertices id="geometry0-vertex">
                    <input semantic="POSITION" source="#geometry0-position"/>
                </vertices>
                <triangles count="124" material="default_ai_0.2_sh_0.2_tr_0.0_dc_r_0.8_g_0.8_b_0.8_sc_r_1.0_g_1.0_b_1.0_ec_r_0.0_g_0.0_b_0_tri">
                    <input offset="0" semantic="VERTEX" source="#geometry0-vertex"/>
                    <input offset="1" semantic="NORMAL" source="#geometry0-normal"/>
                    <p>40 0 32 1 33 2 40 0 33 2 47 3 80 4 69 5 72 6 80 4 72 6 81 7 0 8 1 9 2 10 0 8 2 10 3 11 17 12 60 13 61 14 17 12 61 14 18 15 29 16 73 17 74 18 29 16 74 18 30 19 44 20 48 21 49 22 44 20 49 22 45 23 52 65 53 66 54 67 52 65 54 67 55 68 50 69 20 70 23 71 50 69 23 71 51 72 53 73 8 74 11 75 53 73 11 75 54 76 4 77 5 78 6 79 4 77 6 79 7 80 21 81 85 82 83 83 21 81 83 83 22 84 85 85 43 86 46 87 85 85 46 87 83 88 1 89 52 90 55 91 1 89 55 91 2 92 56 93 57 94 58 95 56 93 58 95 59 96 38 97 79 98 82 99 38 97 82 99 39 100 24 101 62 102 63 103 24 101 63 103 25 104 60 105 4 106 7 107 60 105 7 107 61 108 8 109 9 110 10 111 8 109 10 111 11 112 64 113 65 114 66 115 64 113 66 115 67 116 12 120 13 121 14 122 12 120 14 122 15 123 65 124 26 125 27 126 65 124 27 126 66 127 41 128 40 129 47 130 41 128 47 130 84 131 62 137 12 138 15 139 62 137 15 139 63 140 57 141 34 142 37 143 57 141 37 143 58 144 69 145 70 146 71 147 69 145 71 147 72 148 73 149 64 150 67 151 73 149 67 151 74 152 20 153 21 154 22 155 20 153 22 155 23 156 16 157 17 158 18 159 16 157 18 159 19 160 5 161 24 162 25 163 5 161 25 163 6 164 70 165 75 166 76 167 70 165 76 167 71 168 13 169 77 170 78 171 13 169 78 171 14 172 48 173 0 174 3 175 48 173 3 175 49 176 26 177 16 178 19 179 26 177 19 179 27 180 75 181 50 182 51 183 75 181 51 183 76 184 32 185 28 186 31 187 32 185 31 187 33 188 28 189 29 190 30 191 28 189 30 191 31 192 34 193 35 194 36 195 34 193 36 195 37 196 77 197 56 198 59 199 77 197 59 199 78 200 33 201 31 202 30 203 33 201 30 203 74 204 33 201 74 204 67 205 33 201 67 205 66 206 33 201 66 206 27 207 33 201 27 207 19 208 33 201 19 208 18 209 33 201 18 209 61 210 33 201 61 210 7 211 33 201 7 211 6 212 33 201 6 212 25 213 33 201 25 213 63 214 33 201 63 214 15 215 33 201 15 215 14 216 33 201 14 216 78 217 33 201 78 217 59 218 33 201 59 218 58 219 33 201 58 219 37 220 33 201 37 220 36 221 33 201 36 221 39 222 33 201 39 222 82 223 33 201 82 223 81 224 33 201 81 224 72 225 33 201 72 225 71 226 33 201 71 226 76 227 33 201 76 227 51 228 33 201 51 228 23 229 33 201 23 229 22 230 33 201 22 230 83 231 33 201 83 231 46 232 33 201 46 232 45 233 33 201 45 233 49 234 33 201 49 234 3 235 33 201 3 235 2 236 33 201 2 236 55 237 33 201 55 237 54 238 33 201 54 238 11 239 33 201 11 239 10 240 33 201 10 240 84 241 33 201 84 241 47 242 79 243 80 244 81 245 79 243 81 245 82 246 35 247 38 248 39 249 35 247 39 249 36 250 9 251 41 252 84 253 9 251 84 253 10 254 43 255 44 256 45 257 43 255 45 257 46 258</p>
                </triangles>
                <triangles count="44" material="default_ai_0.2_sh_0.2_tr_0.0_dc_r_1.0_g_0.2_b_0.2_sc_r_1.0_g_1.0_b_1.0_ec_r_0.0_g_0.0_b_0_tri">
                    <input offset="0" semantic="VERTEX" source="#geometry0-vertex"/>
                    <input offset="1" semantic="NORMAL" source="#geometry0-normal"/>
                    <p>68 24 42 25 41 26 68 24 41 26 9 27 68 24 9 27 8 28 68 24 8 28 53 29 68 24 53 29 52 30 68 24 52 30 1 31 68 24 1 31 0 32 68 24 0 32 48 33 68 24 48 33 44 34 68 24 44 34 43 35 68 24 43 35 85 36 68 24 85 36 21 37 68 24 21 37 20 38 68 24 20 38 50 39 68 24 50 39 75 40 68 24 75 40 70 41 68 24 70 41 69 42 68 24 69 42 80 43 68 24 80 43 79 44 68 24 79 44 38 45 68 24 38 45 35 46 68 24 35 46 34 47 68 24 34 47 57 48 68 24 57 48 56 49 68 24 56 49 77 50 68 24 77 50 13 51 68 24 13 51 12 52 68 24 12 52 62 53 68 24 62 53 24 54 68 24 24 54 5 55 68 24 5 55 4 56 68 24 4 56 60 57 68 24 60 57 17 58 68 24 17 58 16 59 68 24 16 59 26 60 68 24 26 60 65 61 68 24 65 61 64 62 68 24 64 62 73 63 68 24 73 63 29 64 29 117 28 118 68 119 42 132 68 133 28 134 42 132 28 134 32 135 42 132 32 135 40 136 40 259 41 260 42 261</p>
                </triangles>
            </mesh>
        </geometry>
    </library_geometries>
    <library_visual_scenes>
        <visual_scene id="Building_DEBW_5221000QqBw">
            <node>
                <instance_geometry url="#geometry0">
                    <bind_material>
                        <technique_common>
                            <instance_material symbol="default_ai_0.2_sh_0.2_tr_0.0_dc_r_0.8_g_0.8_b_0.8_sc_r_1.0_g_1.0_b_1.0_ec_r_0.0_g_0.0_b_0_tri" target="#default_ai_0.2_sh_0.2_tr_0.0_dc_r_0.8_g_0.8_b_0.8_sc_r_1.0_g_1.0_b_1.0_ec_r_0.0_g_0.0_b_0_mat"/>
                            <instance_material symbol="default_ai_0.2_sh_0.2_tr_0.0_dc_r_1.0_g_0.2_b_0.2_sc_r_1.0_g_1.0_b_1.0_ec_r_0.0_g_0.0_b_0_tri" target="#default_ai_0.2_sh_0.2_tr_0.0_dc_r_1.0_g_0.2_b_0.2_sc_r_1.0_g_1.0_b_1.0_ec_r_0.0_g_0.0_b_0_mat"/>
                        </technique_common>
                    </bind_material>
                </instance_geometry>
            </node>
        </visual_scene>
    </library_visual_scenes>
    <scene>
        <instance_visual_scene url="#Building_DEBW_5221000QqBw"/>
    </scene>
</COLLADA>
