<?xml version="1.0" encoding="UTF-8" standalone="yes"?>
<COLLADA xmlns="http://www.collada.org/2005/11/COLLADASchema" version="1.4.1">
    <asset>
        <contributor>
            <authoring_tool>3D City Database Importer/Exporter, version 5.5.3; Chair of Geoinformatics, Technical University of Munich</authoring_tool>
        </contributor>
        <created>2026-05-06T15:12:14.915</created>
        <modified>2026-05-06T15:12:14.915</modified>
        <unit meter="1.0" name="meters"/>
        <up_axis>Z_UP</up_axis>
    </asset>
    <library_materials>
        <material id="default_ai_0.2_sh_0.2_tr_0.0_dc_r_0.8_g_0.8_b_0.8_sc_r_1.0_g_1.0_b_1.0_ec_r_0.0_g_0.0_b_0_mat">
            <instance_effect url="#default_ai_0.2_sh_0.2_tr_0.0_dc_r_0.8_g_0.8_b_0.8_sc_r_1.0_g_1.0_b_1.0_ec_r_0.0_g_0.0_b_0_eff"/>
        </material>
        <material id="default_ai_0.2_sh_0.2_tr_0.0_dc_r_1.0_g_0.2_b_0.2_sc_r_1.0_g_1.0_b_1.0_ec_r_0.0_g_0.0_b_0_mat">
            <instance_effect url="#default_ai_0.2_sh_0.2_tr_0.0_dc_r_1.0_g_0.2_b_0.2_sc_r_1.0_g_1.0_b_1.0_ec_r_0.0_g_0.0_b_0_eff"/>
        </material>
    </library_materials>
    <library_effects>
        <effect id="default_ai_0.2_sh_0.2_tr_0.0_dc_r_0.8_g_0.8_b_0.8_sc_r_1.0_g_1.0_b_1.0_ec_r_0.0_g_0.0_b_0_eff">
            <profile_COMMON>
                <technique sid="COMMON">
                    <lambert>
                        <emission>
                            <color>0.0 0.0 0.0 1.0</color>
                        </emission>
                        <diffuse>
                            <color>0.8 0.8 0.8 1.0</color>
                        </diffuse>
                        <reflective>
                            <color>1.0 1.0 1.0 1.0</color>
                        </reflective>
                        <reflectivity>
                            <float>0.2</float>
                        </reflectivity>
                        <transparent opaque="A_ONE">
                            <color>1.0 1.0 1.0 1.0</color>
                        </transparent>
                        <transparency>
                            <float>1.0</float>
                        </transparency>
                    </lambert>
                </technique>
                <extra>
                    <technique profile="GOOGLEEARTH">
                        <double_sided>0</double_sided>
                    </technique>
                </extra>
            </profile_COMMON>
        </effect>
        <effect id="default_ai_0.2_sh_0.2_tr_0.0_dc_r_1.0_g_0.2_b_0.2_sc_r_1.0_g_1.0_b_1.0_ec_r_0.0_g_0.0_b_0_eff">
            <profile_COMMON>
                <technique sid="COMMON">
                    <lambert>
                        <emission>
                            <color>0.0 0.0 0.0 1.0</color>
                        </emission>
                        <diffuse>
                            <color>1.0 0.2 0.2 1.0</color>
                        </diffuse>
                        <reflective>
                            <color>1.0 1.0 1.0 1.0</color>
                        </reflective>
                        <reflectivity>
                            <float>0.2</float>
                        </reflectivity>
                        <transparent opaque="A_ONE">
                            <color>1.0 1.0 1.0 1.0</color>
                        </transparent>
                        <transparency>
                            <float>1.0</float>
                        </transparency>
                    </lambert>
                </technique>
                <extra>
                    <technique profile="GOOGLEEARTH">
                        <double_sided>0</double_sided>
                    </technique>
                </extra>
            </profile_COMMON>
        </effect>
    </library_effects>
    <library_geometries>
        <geometry id="geometry0">
            <mesh>
                <source id="geometry0-position">
                    <float_array id="geometry0-position-array" count="150">-11.85 3.34 9.0 -11.98 2.93 9.0 -14.03 3.57 9.0 -13.91 3.98 9.0 -13.82 4.29 9.0 -20.83 6.48 9.0 -20.93 6.17 9.0 -21.92 3.0 9.0 -22.39 3.15 9.0 -23.2 0.57 9.0 -22.72 0.42 9.0 -23.72 -2.8 9.0 -22.09 -3.29 9.0 -22.62 -4.96 9.0 -19.96 -5.79 9.0 -20.11 -6.27 9.0 -11.68 -8.89 9.0 -11.54 -8.41 9.0 -3.41 -10.94 9.0 -2.0 -6.42 9.0 -1.53 -6.57 9.0 -0.68 -3.84 9.0 -1.15 -3.69 9.0 0.0 0.0 9.0 -11.76 3.64 9.0 0.0 0.0 0.0 -11.76 3.64 0.0 -1.15 -3.69 0.0 -0.68 -3.84 0.0 -1.53 -6.57 0.0 -2.0 -6.42 0.0 -3.41 -10.94 0.0 -11.54 -8.41 0.0 -11.68 -8.89 0.0 -20.11 -6.27 0.0 -19.96 -5.79 0.0 -22.62 -4.96 0.0 -22.09 -3.29 0.0 -23.72 -2.8 0.0 -22.72 0.42 0.0 -23.2 0.57 0.0 -22.39 3.15 0.0 -21.92 3.0 0.0 -20.93 6.17 0.0 -20.83 6.48 0.0 -13.82 4.29 0.0 -13.91 3.98 0.0 -14.03 3.57 0.0 -11.98 2.93 0.0 -11.85 3.34 0.0</float_array>
                    <technique_common>
                        <accessor count="50" source="#geometry0-position-array" stride="3">
                            <param name="X" type="float"/>
                            <param name="Y" type="float"/>
                            <param name="Z" type="float"/>
                        </accessor>
                    </technique_common>
                </source>
                <source id="geometry0-normal">
                    <float_array id="geometry0-normal-array" count="450">-0.9540842 0.2995386 0.0 -0.9540842 0.2995386 0.0 -0.9540842 0.2995386 0.0 -0.9540842 0.2995386 0.0 0.3040408 0.952659 0.0 0.3040408 0.952659 0.0 0.3040408 0.952659 0.0 0.3040408 0.952659 0.0 -0.2971379 -0.9548346 0.0 -0.2971379 -0.9548346 0.0 -0.2971379 -0.9548346 0.0 -0.2971379 -0.9548346 0.0 -0.9578262 0.2873482 0.0 -0.9578262 0.2873482 0.0 -0.9578262 0.2873482 0.0 -0.9578262 0.2873482 0.0 0.9599999 -0.2800004 0.0 0.9599999 -0.2800004 0.0 0.9599999 -0.2800004 0.0 0.9599999 -0.2800004 0.0 -0.9545336 0.2981035 0.0 -0.9545336 0.2981035 0.0 -0.9545336 0.2981035 0.0 -0.9545336 0.2981035 0.0 -0.9517083 0.3070039 0.0 -0.9517083 0.3070039 0.0 -0.9517083 0.3070039 0.0 -0.9517083 0.3070039 0.0 -0.2967912 -0.9549424 0.0 -0.2967912 -0.9549424 0.0 -0.2967912 -0.9549424 0.0 -0.2967912 -0.9549424 0.0 0.0 0.0 -1.0 0.0 0.0 -1.0 0.0 0.0 -1.0 0.0 0.0 -1.0 0.0 0.0 -1.0 0.0 0.0 -1.0 0.0 0.0 -1.0 0.0 0.0 -1.0 0.0 0.0 -1.0 0.0 0.0 -1.0 0.0 0.0 -1.0 0.0 0.0 -1.0 0.0 0.0 -1.0 0.0 0.0 -1.0 0.0 0.0 -1.0 0.0 0.0 -1.0 0.0 0.0 -1.0 0.0 0.0 -1.0 0.0 0.0 -1.0 0.0 0.0 -1.0 0.0 0.0 -1.0 0.0 0.0 -1.0 0.0 0.0 -1.0 0.0 0.0 -1.0 0.0 0.0 -1.0 0.2981974 0.9545042 0.0 0.2981974 0.9545042 0.0 0.2981974 0.9545042 0.0 0.2981974 0.9545042 0.0 -0.9544791 0.2982777 0.0 -0.9544791 0.2982777 0.0 -0.9544791 0.2982777 0.0 -0.9544791 0.2982777 0.0 0.0 0.0 1.0 0.0 0.0 1.0 0.0 0.0 1.0 0.0 0.0 1.0 0.0 0.0 1.0 0.0 0.0 1.0 0.0 0.0 1.0 0.0 0.0 1.0 0.0 0.0 1.0 0.0 0.0 1.0 0.0 0.0 1.0 0.0 0.0 1.0 0.0 0.0 1.0 0.0 0.0 1.0 0.0 0.0 1.0 0.0 0.0 1.0 0.0 0.0 1.0 0.0 0.0 1.0 0.0 0.0 1.0 0.0 0.0 1.0 0.0 0.0 1.0 0.0 0.0 1.0 0.0 0.0 1.0 0.0 0.0 1.0 0.0 0.0 1.0 0.2956837 0.9552858 0.0 0.2956837 0.9552858 0.0 0.2956837 0.9552858 0.0 0.2956837 0.9552858 0.0 -0.297866 -0.9546077 0.0 -0.297866 -0.9546077 0.0 -0.297866 -0.9546077 0.0 -0.297866 -0.9546077 0.0 0.9547099 -0.2975383 0.0 0.9547099 -0.2975383 0.0 0.9547099 -0.2975383 0.0 0.9547099 -0.2975383 0.0 -0.9531503 0.3024971 0.0 -0.9531503 0.3024971 0.0 -0.9531503 0.3024971 0.0 -0.9531503 0.3024971 0.0 -0.287887 -0.9576644 0.0 -0.287887 -0.9576644 0.0 -0.287887 -0.9576644 0.0 -0.287887 -0.9576644 0.0 0.30404 0.9526593 0.0 0.30404 0.9526593 0.0 0.30404 0.9526593 0.0 0.30404 0.9526593 0.0 0.9603462 -0.2788107 0.0 0.9603462 -0.2788107 0.0 0.9603462 -0.2788107 0.0 0.9603462 -0.2788107 0.0 0.9547907 -0.2972791 0.0 0.9547907 -0.2972791 0.0 0.9547907 -0.2972791 0.0 0.9547907 -0.2972791 0.0 0.9597375 -0.2808985 0.0 0.9597375 -0.2808985 0.0 0.9597375 -0.2808985 0.0 0.9597375 -0.2808985 0.0 -0.9550062 0.2965858 0.0 -0.9550062 0.2965858 0.0 -0.9550062 0.2965858 0.0 -0.9550062 0.2965858 0.0 -0.2982742 -0.9544802 0.0 -0.2982742 -0.9544802 0.0 -0.2982742 -0.9544802 0.0 -0.2982742 -0.9544802 0.0 -0.3040403 -0.9526592 0.0 -0.3040403 -0.9526592 0.0 -0.3040403 -0.9526592 0.0 -0.3040403 -0.9526592 0.0 0.2980098 0.9545628 0.0 0.2980098 0.9545628 0.0 0.2980098 0.9545628 0.0 0.2980098 0.9545628 0.0 0.9546301 -0.297794 0.0 0.9546301 -0.297794 0.0 0.9546301 -0.297794 0.0 0.9546301 -0.297794 0.0 -0.9532312 0.3022422 0.0 -0.9532312 0.3022422 0.0 -0.9532312 0.3022422 0.0 -0.9532312 0.3022422 0.0</float_array>
                    <technique_common>
                        <accessor count="150" source="#geometry0-normal-array" stride="3">
                            <param name="X" type="float"/>
                            <param name="Y" type="float"/>
                            <param name="Z" type="float"/>
                        </accessor>
                    </technique_common>
                </source>
                <vertices id="geometry0-vertex">
                    <input semantic="POSITION" source="#geometry0-position"/>
                </vertices>
                <triangles count="73" material="default_ai_0.2_sh_0.2_tr_0.0_dc_r_0.8_g_0.8_b_0.8_sc_r_1.0_g_1.0_b_1.0_ec_r_0.0_g_0.0_b_0_tri">
                    <input offset="0" semantic="VERTEX" source="#geometry0-vertex"/>
                    <input offset="1" semantic="NORMAL" source="#geometry0-normal"/>
                    <p>9 0 8 1 41 2 9 0 41 2 40 3 8 4 7 5 42 6 8 4 42 6 41 7 18 8 17 9 32 10 18 8 32 10 31 11 0 12 24 13 26 14 0 12 26 14 49 15 17 16 16 17 33 18 17 16 33 18 32 19 7 20 6 21 43 22 7 20 43 22 42 23 6 24 5 25 44 26 6 24 44 26 43 27 16 28 15 29 34 30 16 28 34 30 33 31 45 32 46 33 47 34 44 35 45 32 47 34 43 36 44 35 47 34 42 37 43 36 47 34 42 37 47 34 48 38 40 39 41 40 42 37 40 39 42 37 48 38 39 41 40 39 48 38 38 42 39 41 48 38 37 43 38 42 48 38 36 44 37 43 48 38 35 45 36 44 48 38 34 46 35 45 48 38 33 47 34 46 48 38 33 47 48 38 49 48 33 47 49 48 26 49 32 50 33 47 26 49 32 50 26 49 25 51 32 50 25 51 27 52 32 50 27 52 28 53 30 54 31 55 32 50 30 54 32 50 28 53 30 54 28 53 29 56 5 57 4 58 45 59 5 57 45 59 44 60 15 61 14 62 35 63 15 61 35 63 34 64 24 90 23 91 25 92 24 90 25 92 26 93 14 94 13 95 36 96 14 94 36 96 35 97 23 98 22 99 27 100 23 98 27 100 25 101 13 102 12 103 37 104 13 102 37 104 36 105 12 106 11 107 38 108 12 106 38 108 37 109 22 110 21 111 28 112 22 110 28 112 27 113 4 114 3 115 46 116 4 114 46 116 45 117 21 118 20 119 29 120 21 118 29 120 28 121 3 122 2 123 47 124 3 122 47 124 46 125 11 126 10 127 39 128 11 126 39 128 38 129 10 130 9 131 40 132 10 130 40 132 39 133 20 134 19 135 30 136 20 134 30 136 29 137 2 138 1 139 48 140 2 138 48 140 47 141 19 142 18 143 31 144 19 142 31 144 30 145 1 146 0 147 49 148 1 146 49 148 48 149</p>
                </triangles>
                <triangles count="23" material="default_ai_0.2_sh_0.2_tr_0.0_dc_r_1.0_g_0.2_b_0.2_sc_r_1.0_g_1.0_b_1.0_ec_r_0.0_g_0.0_b_0_tri">
                    <input offset="0" semantic="VERTEX" source="#geometry0-vertex"/>
                    <input offset="1" semantic="NORMAL" source="#geometry0-normal"/>
                    <p>3 65 4 66 2 67 4 66 5 68 2 67 5 68 6 69 2 67 6 69 7 70 2 67 2 67 7 70 1 71 8 72 9 73 7 70 7 70 9 73 1 71 9 73 10 74 1 71 10 74 11 75 1 71 11 75 12 76 1 71 12 76 13 77 1 71 13 77 14 78 1 71 14 78 15 79 1 71 15 79 16 80 1 71 1 71 16 80 0 81 0 81 16 80 24 82 16 80 17 83 24 82 24 82 17 83 23 84 23 84 17 83 22 85 22 85 17 83 21 86 18 87 19 88 17 83 17 83 19 88 21 86 21 86 19 88 20 89</p>
                </triangles>
            </mesh>
        </geometry>
    </library_geometries>
    <library_visual_scenes>
        <visual_scene id="Building_DEBW_5221000QyF8">
            <node>
                <instance_geometry url="#geometry0">
                    <bind_material>
                        <technique_common>
                            <instance_material symbol="default_ai_0.2_sh_0.2_tr_0.0_dc_r_0.8_g_0.8_b_0.8_sc_r_1.0_g_1.0_b_1.0_ec_r_0.0_g_0.0_b_0_tri" target="#default_ai_0.2_sh_0.2_tr_0.0_dc_r_0.8_g_0.8_b_0.8_sc_r_1.0_g_1.0_b_1.0_ec_r_0.0_g_0.0_b_0_mat"/>
                            <instance_material symbol="default_ai_0.2_sh_0.2_tr_0.0_dc_r_1.0_g_0.2_b_0.2_sc_r_1.0_g_1.0_b_1.0_ec_r_0.0_g_0.0_b_0_tri" target="#default_ai_0.2_sh_0.2_tr_0.0_dc_r_1.0_g_0.2_b_0.2_sc_r_1.0_g_1.0_b_1.0_ec_r_0.0_g_0.0_b_0_mat"/>
                        </technique_common>
                    </bind_material>
                </instance_geometry>
            </node>
        </visual_scene>
    </library_visual_scenes>
    <scene>
        <instance_visual_scene url="#Building_DEBW_5221000QyF8"/>
    </scene>
</COLLADA>
