<?xml version="1.0" encoding="UTF-8" standalone="yes"?>
<COLLADA xmlns="http://www.collada.org/2005/11/COLLADASchema" version="1.4.1">
    <asset>
        <contributor>
            <authoring_tool>3D City Database Importer/Exporter, version 5.5.3; Chair of Geoinformatics, Technical University of Munich</authoring_tool>
        </contributor>
        <created>2026-05-06T15:12:05.438</created>
        <modified>2026-05-06T15:12:05.438</modified>
        <unit meter="1.0" name="meters"/>
        <up_axis>Z_UP</up_axis>
    </asset>
    <library_materials>
        <material id="default_ai_0.2_sh_0.2_tr_0.0_dc_r_0.8_g_0.8_b_0.8_sc_r_1.0_g_1.0_b_1.0_ec_r_0.0_g_0.0_b_0_mat">
            <instance_effect url="#default_ai_0.2_sh_0.2_tr_0.0_dc_r_0.8_g_0.8_b_0.8_sc_r_1.0_g_1.0_b_1.0_ec_r_0.0_g_0.0_b_0_eff"/>
        </material>
        <material id="default_ai_0.2_sh_0.2_tr_0.0_dc_r_1.0_g_0.2_b_0.2_sc_r_1.0_g_1.0_b_1.0_ec_r_0.0_g_0.0_b_0_mat">
            <instance_effect url="#default_ai_0.2_sh_0.2_tr_0.0_dc_r_1.0_g_0.2_b_0.2_sc_r_1.0_g_1.0_b_1.0_ec_r_0.0_g_0.0_b_0_eff"/>
        </material>
    </library_materials>
    <library_effects>
        <effect id="default_ai_0.2_sh_0.2_tr_0.0_dc_r_0.8_g_0.8_b_0.8_sc_r_1.0_g_1.0_b_1.0_ec_r_0.0_g_0.0_b_0_eff">
            <profile_COMMON>
                <technique sid="COMMON">
                    <lambert>
                        <emission>
                            <color>0.0 0.0 0.0 1.0</color>
                        </emission>
                        <diffuse>
                            <color>0.8 0.8 0.8 1.0</color>
                        </diffuse>
                        <reflective>
                            <color>1.0 1.0 1.0 1.0</color>
                        </reflective>
                        <reflectivity>
                            <float>0.2</float>
                        </reflectivity>
                        <transparent opaque="A_ONE">
                            <color>1.0 1.0 1.0 1.0</color>
                        </transparent>
                        <transparency>
                            <float>1.0</float>
                        </transparency>
                    </lambert>
                </technique>
                <extra>
                    <technique profile="GOOGLEEARTH">
                        <double_sided>0</double_sided>
                    </technique>
                </extra>
            </profile_COMMON>
        </effect>
        <effect id="default_ai_0.2_sh_0.2_tr_0.0_dc_r_1.0_g_0.2_b_0.2_sc_r_1.0_g_1.0_b_1.0_ec_r_0.0_g_0.0_b_0_eff">
            <profile_COMMON>
                <technique sid="COMMON">
                    <lambert>
                        <emission>
                            <color>0.0 0.0 0.0 1.0</color>
                        </emission>
                        <diffuse>
                            <color>1.0 0.2 0.2 1.0</color>
                        </diffuse>
                        <reflective>
                            <color>1.0 1.0 1.0 1.0</color>
                        </reflective>
                        <reflectivity>
                            <float>0.2</float>
                        </reflectivity>
                        <transparent opaque="A_ONE">
                            <color>1.0 1.0 1.0 1.0</color>
                        </transparent>
                        <transparency>
                            <float>1.0</float>
                        </transparency>
                    </lambert>
                </technique>
                <extra>
                    <technique profile="GOOGLEEARTH">
                        <double_sided>0</double_sided>
                    </technique>
                </extra>
            </profile_COMMON>
        </effect>
    </library_effects>
    <library_geometries>
        <geometry id="geometry0">
            <mesh>
                <source id="geometry0-position">
                    <float_array id="geometry0-position-array" count="90">-0.07 0.23 8.325 0.0 0.0 8.338 0.0 0.0 0.0 -0.07 0.23 0.0 0.82 -2.13 8.348 0.9 -2.33 8.348 0.9 -2.33 0.0 0.82 -2.13 0.0 -3.49 -15.61 8.491 1.25 -13.78 10.962 -0.185 -14.334 12.004 -9.72 -3.56 7.109 -5.125 -1.755 12.004 -6.91 -10.68 7.121 -5.62 -10.21 8.482 -0.12 -0.05 8.426 0.64 -2.2 8.479 0.64 -2.2 0.0 -0.12 -0.05 0.0 -9.72 -3.56 0.0 -6.91 -10.68 0.0 -5.62 -10.21 0.0 -3.49 -15.61 0.0 4.39 -11.83 8.5 1.03 -13.17 10.95 1.03 -13.17 0.0 4.39 -11.83 0.0 1.25 -13.78 0.0 0.73 -2.42 0.0 0.73 -2.42 8.477</float_array>
                    <technique_common>
                        <accessor count="30" source="#geometry0-position-array" stride="3">
                            <param name="X" type="float"/>
                            <param name="Y" type="float"/>
                            <param name="Z" type="float"/>
                        </accessor>
                    </technique_common>
                </source>
                <source id="geometry0-normal">
                    <float_array id="geometry0-normal-array" count="282">0.9284766 0.3713909 0.0 0.9284766 0.3713909 0.0 0.9284766 0.3713909 0.0 0.9284766 0.3713909 0.0 0.3846154 -0.923077 0.0 0.3846154 -0.9230769 0.0 0.3846154 -0.923077 0.0 0.3846154 -0.923077 0.0 0.9319861 0.3624941 0.0 0.9319861 0.362494 0.0 0.9319861 0.3624941 0.0 0.9319861 0.3624941 0.0 0.9406906 0.3392657 0.0 0.9406906 0.3392657 0.0 0.9406906 0.3392657 0.0 0.9406906 0.3392656 0.0 -0.9302481 -0.3669312 0.0 -0.9302481 -0.3669312 0.0 -0.9302481 -0.3669312 0.0 -0.9302481 -0.3669312 0.0 0.3601612 -0.9328901 9.9E-6 0.3601612 -0.9328901 9.9E-6 0.3601612 -0.9328901 9.9E-6 0.342328 -0.9395805 0.0 0.342328 -0.9395805 0.0 0.342328 -0.9395805 0.0 0.342328 -0.9395805 0.0 0.5191698 0.2076681 0.8290577 0.5206617 0.2068768 0.8283197 0.5097792 0.2018832 0.8362824 0.5136105 0.2020202 0.8339018 0.5049427 0.1984606 0.8400275 0.5216219 0.2047633 0.8282406 0.5219411 0.2052631 0.8279158 0.5215948 0.2055515 0.8280624 0.5217347 0.2054997 0.8279873 0.5215443 0.2048587 0.828266 0.5211394 0.2044781 0.8286148 0.5220324 0.2050116 0.8279205 0.0 0.0 -1.0 0.0 0.0 -1.0 0.0 0.0 -1.0 0.0 0.0 -1.0 0.0 0.0 -1.0 0.0 0.0 -1.0 0.0 0.0 -1.0 0.0 0.0 -1.0 0.0 0.0 -1.0 0.0 0.0 -1.0 0.0 0.0 -1.0 0.0 0.0 -1.0 0.0 0.0 -1.0 0.0 0.0 -1.0 0.9566739 0.2911616 0.0 0.9566739 0.2911616 0.0 0.9566739 0.2911616 0.0 0.9566739 0.2911616 0.0 0.3704373 -0.9288574 0.0 0.3704373 -0.9288576 0.0 0.3704373 -0.9288574 0.0 0.3704373 -0.9288574 0.0 -0.365555 0.9307897 -7.15E-5 -0.365555 0.9307897 -7.15E-5 -0.365555 0.9307897 -7.15E-5 -0.362446 0.9320048 0.0 -0.362446 0.9320048 0.0 -0.362446 0.9320048 0.0 -0.362446 0.9320047 0.0 0.4678884 -0.8837875 0.0 0.4678884 -0.8837875 0.0 0.4678884 -0.8837875 0.0 0.4678884 -0.8837875 0.0 0.9428283 0.3332788 0.0 0.9428283 0.3332788 0.0 0.9428283 0.3332788 0.0 0.9428283 0.3332788 0.0 -0.6553542 -0.2574425 0.7100946 -0.6553643 -0.2574512 0.710082 -0.6554021 -0.2574197 0.7100585 -0.6554123 -0.2573977 0.7100571 -0.6554465 -0.2573798 0.7100322 -0.6553947 -0.2573853 0.7100779 0.3601658 -0.9328884 0.0 0.3601657 -0.9328883 0.0 0.3601658 -0.9328884 0.0 0.3601658 -0.9328884 0.0 -0.3655629 0.9307867 0.0 -0.3655628 0.9307867 0.0 -0.3655629 0.9307867 0.0 -0.3655629 0.9307867 0.0 -0.9301788 -0.3671071 0.0 -0.9301787 -0.3671071 0.0 -0.9301788 -0.3671071 0.0 -0.9301788 -0.3671071 0.0</float_array>
                    <technique_common>
                        <accessor count="94" source="#geometry0-normal-array" stride="3">
                            <param name="X" type="float"/>
                            <param name="Y" type="float"/>
                            <param name="Z" type="float"/>
                        </accessor>
                    </technique_common>
                </source>
                <vertices id="geometry0-vertex">
                    <input semantic="POSITION" source="#geometry0-position"/>
                </vertices>
                <triangles count="42" material="default_ai_0.2_sh_0.2_tr_0.0_dc_r_0.8_g_0.8_b_0.8_sc_r_1.0_g_1.0_b_1.0_ec_r_0.0_g_0.0_b_0_tri">
                    <input offset="0" semantic="VERTEX" source="#geometry0-vertex"/>
                    <input offset="1" semantic="NORMAL" source="#geometry0-normal"/>
                    <p>4 0 5 1 6 2 4 0 6 2 7 3 1 4 15 5 18 6 1 4 18 6 2 7 29 8 23 9 26 10 29 8 26 10 28 11 24 12 9 13 27 14 24 12 27 14 25 15 8 16 14 17 21 18 8 16 21 18 22 19 8 20 9 21 10 22 14 23 13 24 20 25 14 23 20 25 21 26 26 39 25 40 28 41 27 42 22 43 25 40 25 40 22 43 28 41 22 43 21 44 28 41 21 44 20 45 28 41 20 45 19 46 28 41 28 41 19 46 6 47 3 48 2 49 19 46 2 49 18 50 19 46 18 50 17 51 19 46 19 46 17 51 6 47 6 47 17 51 7 52 0 53 1 54 2 55 0 53 2 55 3 56 23 57 24 58 25 59 23 57 25 59 26 60 0 61 11 62 12 63 16 64 4 65 7 66 16 64 7 66 17 67 5 68 29 69 28 70 5 68 28 70 6 71 15 72 16 73 17 74 15 72 17 74 18 75 9 82 8 83 22 84 9 82 22 84 27 85 11 86 0 87 3 88 11 86 3 88 19 89 13 90 11 91 19 92 13 90 19 92 20 93</p>
                </triangles>
                <triangles count="14" material="default_ai_0.2_sh_0.2_tr_0.0_dc_r_1.0_g_0.2_b_0.2_sc_r_1.0_g_1.0_b_1.0_ec_r_0.0_g_0.0_b_0_tri">
                    <input offset="0" semantic="VERTEX" source="#geometry0-vertex"/>
                    <input offset="1" semantic="NORMAL" source="#geometry0-normal"/>
                    <p>5 27 4 28 29 29 4 28 16 30 29 29 29 29 16 30 23 31 23 31 16 30 24 32 16 30 15 33 24 32 1 34 0 35 15 33 0 35 12 36 15 33 15 33 12 36 24 32 24 32 12 36 9 37 9 37 12 36 10 38 11 76 13 77 14 78 12 79 11 76 14 78 12 79 14 78 8 80 12 79 8 80 10 81</p>
                </triangles>
            </mesh>
        </geometry>
    </library_geometries>
    <library_visual_scenes>
        <visual_scene id="Building_DEBW_5221000QfUH">
            <node>
                <instance_geometry url="#geometry0">
                    <bind_material>
                        <technique_common>
                            <instance_material symbol="default_ai_0.2_sh_0.2_tr_0.0_dc_r_0.8_g_0.8_b_0.8_sc_r_1.0_g_1.0_b_1.0_ec_r_0.0_g_0.0_b_0_tri" target="#default_ai_0.2_sh_0.2_tr_0.0_dc_r_0.8_g_0.8_b_0.8_sc_r_1.0_g_1.0_b_1.0_ec_r_0.0_g_0.0_b_0_mat"/>
                            <instance_material symbol="default_ai_0.2_sh_0.2_tr_0.0_dc_r_1.0_g_0.2_b_0.2_sc_r_1.0_g_1.0_b_1.0_ec_r_0.0_g_0.0_b_0_tri" target="#default_ai_0.2_sh_0.2_tr_0.0_dc_r_1.0_g_0.2_b_0.2_sc_r_1.0_g_1.0_b_1.0_ec_r_0.0_g_0.0_b_0_mat"/>
                        </technique_common>
                    </bind_material>
                </instance_geometry>
            </node>
        </visual_scene>
    </library_visual_scenes>
    <scene>
        <instance_visual_scene url="#Building_DEBW_5221000QfUH"/>
    </scene>
</COLLADA>
