<?xml version="1.0" encoding="UTF-8" standalone="yes"?>
<COLLADA xmlns="http://www.collada.org/2005/11/COLLADASchema" version="1.4.1">
    <asset>
        <contributor>
            <authoring_tool>3D City Database Importer/Exporter, version 5.5.3; Chair of Geoinformatics, Technical University of Munich</authoring_tool>
        </contributor>
        <created>2026-05-06T15:12:03.972</created>
        <modified>2026-05-06T15:12:03.972</modified>
        <unit meter="1.0" name="meters"/>
        <up_axis>Z_UP</up_axis>
    </asset>
    <library_materials>
        <material id="default_ai_0.2_sh_0.2_tr_0.0_dc_r_0.8_g_0.8_b_0.8_sc_r_1.0_g_1.0_b_1.0_ec_r_0.0_g_0.0_b_0_mat">
            <instance_effect url="#default_ai_0.2_sh_0.2_tr_0.0_dc_r_0.8_g_0.8_b_0.8_sc_r_1.0_g_1.0_b_1.0_ec_r_0.0_g_0.0_b_0_eff"/>
        </material>
        <material id="default_ai_0.2_sh_0.2_tr_0.0_dc_r_1.0_g_0.2_b_0.2_sc_r_1.0_g_1.0_b_1.0_ec_r_0.0_g_0.0_b_0_mat">
            <instance_effect url="#default_ai_0.2_sh_0.2_tr_0.0_dc_r_1.0_g_0.2_b_0.2_sc_r_1.0_g_1.0_b_1.0_ec_r_0.0_g_0.0_b_0_eff"/>
        </material>
    </library_materials>
    <library_effects>
        <effect id="default_ai_0.2_sh_0.2_tr_0.0_dc_r_0.8_g_0.8_b_0.8_sc_r_1.0_g_1.0_b_1.0_ec_r_0.0_g_0.0_b_0_eff">
            <profile_COMMON>
                <technique sid="COMMON">
                    <lambert>
                        <emission>
                            <color>0.0 0.0 0.0 1.0</color>
                        </emission>
                        <diffuse>
                            <color>0.8 0.8 0.8 1.0</color>
                        </diffuse>
                        <reflective>
                            <color>1.0 1.0 1.0 1.0</color>
                        </reflective>
                        <reflectivity>
                            <float>0.2</float>
                        </reflectivity>
                        <transparent opaque="A_ONE">
                            <color>1.0 1.0 1.0 1.0</color>
                        </transparent>
                        <transparency>
                            <float>1.0</float>
                        </transparency>
                    </lambert>
                </technique>
                <extra>
                    <technique profile="GOOGLEEARTH">
                        <double_sided>0</double_sided>
                    </technique>
                </extra>
            </profile_COMMON>
        </effect>
        <effect id="default_ai_0.2_sh_0.2_tr_0.0_dc_r_1.0_g_0.2_b_0.2_sc_r_1.0_g_1.0_b_1.0_ec_r_0.0_g_0.0_b_0_eff">
            <profile_COMMON>
                <technique sid="COMMON">
                    <lambert>
                        <emission>
                            <color>0.0 0.0 0.0 1.0</color>
                        </emission>
                        <diffuse>
                            <color>1.0 0.2 0.2 1.0</color>
                        </diffuse>
                        <reflective>
                            <color>1.0 1.0 1.0 1.0</color>
                        </reflective>
                        <reflectivity>
                            <float>0.2</float>
                        </reflectivity>
                        <transparent opaque="A_ONE">
                            <color>1.0 1.0 1.0 1.0</color>
                        </transparent>
                        <transparency>
                            <float>1.0</float>
                        </transparency>
                    </lambert>
                </technique>
                <extra>
                    <technique profile="GOOGLEEARTH">
                        <double_sided>0</double_sided>
                    </technique>
                </extra>
            </profile_COMMON>
        </effect>
    </library_effects>
    <library_geometries>
        <geometry id="geometry0">
            <mesh>
                <source id="geometry0-position">
                    <float_array id="geometry0-position-array" count="48">1.24 -2.66 2.699 0.0 0.0 2.702 0.0 0.0 0.0 1.24 -2.66 0.0 2.395 1.268 4.032 4.65 2.41 2.75 4.65 2.41 0.0 2.395 1.268 0.0 5.99 -0.45 2.75 5.99 -0.45 0.0 3.7 -1.516 4.032 3.7 -1.516 0.0 0.69 0.32 3.076 0.69 0.32 0.0 0.66 0.39 3.077 0.66 0.39 0.0</float_array>
                    <technique_common>
                        <accessor count="16" source="#geometry0-position-array" stride="3">
                            <param name="X" type="float"/>
                            <param name="Y" type="float"/>
                            <param name="Z" type="float"/>
                        </accessor>
                    </technique_common>
                </source>
                <source id="geometry0-normal">
                    <float_array id="geometry0-normal-array" count="150">-0.420725 0.9071882 0.0 -0.420725 0.9071882 0.0 -0.420725 0.9071882 0.0 -0.420725 0.9071882 0.0 -0.4515283 0.8922569 0.0 -0.4515283 0.8922568 0.0 -0.4515283 0.8922569 0.0 -0.4515283 0.8922569 0.0 0.4097723 0.192036 0.8917449 0.409826 0.1920163 0.8917244 0.4097723 0.192036 0.8917449 0.4097187 0.1920556 0.8917652 -0.9063572 -0.4225124 0.0 -0.9063572 -0.4225124 0.0 -0.9063572 -0.4225124 0.0 -0.9063572 -0.4225123 0.0 -0.3993388 -0.1872207 0.8974837 -0.3992946 -0.1871693 0.8975141 -0.3996954 -0.1863026 0.897516 -0.399782 -0.1863364 0.8974704 -0.3995545 -0.1872706 0.8973773 -0.4006231 -0.1845158 0.8974715 -0.9191452 -0.3939191 0.0 -0.9191452 -0.3939191 0.0 -0.9191452 -0.3939191 0.0 -0.9191452 -0.3939191 0.0 -0.4517969 0.8921208 0.0 -0.4517969 0.8921208 0.0 -0.4517969 0.8921208 0.0 -0.4517969 0.8921208 0.0 0.4220184 -0.9065874 0.0 0.4220184 -0.9065874 0.0 0.4220184 -0.9065874 0.0 0.4220184 -0.9065872 0.0 0.905535 0.4242715 0.0 0.905535 0.4242715 0.0 0.905535 0.4242715 0.0 0.905535 0.4242715 0.0 0.4216744 -0.9067473 0.0 0.4216744 -0.9067473 0.0 0.4216744 -0.9067473 0.0 0.4216744 -0.9067473 0.0 0.0 0.0 -1.0 0.0 0.0 -1.0 0.0 0.0 -1.0 0.0 0.0 -1.0 0.0 0.0 -1.0 0.0 0.0 -1.0 0.0 0.0 -1.0 0.0 0.0 -1.0</float_array>
                    <technique_common>
                        <accessor count="50" source="#geometry0-normal-array" stride="3">
                            <param name="X" type="float"/>
                            <param name="Y" type="float"/>
                            <param name="Z" type="float"/>
                        </accessor>
                    </technique_common>
                </source>
                <vertices id="geometry0-vertex">
                    <input semantic="POSITION" source="#geometry0-position"/>
                </vertices>
                <triangles count="22" material="default_ai_0.2_sh_0.2_tr_0.0_dc_r_0.8_g_0.8_b_0.8_sc_r_1.0_g_1.0_b_1.0_ec_r_0.0_g_0.0_b_0_tri">
                    <input offset="0" semantic="VERTEX" source="#geometry0-vertex"/>
                    <input offset="1" semantic="NORMAL" source="#geometry0-normal"/>
                    <p>1 0 12 1 13 2 1 0 13 2 2 3 14 4 4 5 7 6 14 4 7 6 15 7 0 12 1 13 2 14 0 12 2 14 3 15 12 22 14 23 15 24 12 22 15 24 13 25 4 26 5 27 6 28 4 26 6 28 7 29 8 30 10 31 11 32 8 30 11 32 9 33 5 34 8 35 9 36 5 34 9 36 6 37 10 38 0 39 3 40 10 38 3 40 11 41 15 42 7 43 13 44 7 43 6 45 13 44 6 45 9 46 13 44 13 44 9 46 2 47 2 47 9 46 3 48 3 48 9 46 11 49</p>
                </triangles>
                <triangles count="6" material="default_ai_0.2_sh_0.2_tr_0.0_dc_r_1.0_g_0.2_b_0.2_sc_r_1.0_g_1.0_b_1.0_ec_r_0.0_g_0.0_b_0_tri">
                    <input offset="0" semantic="VERTEX" source="#geometry0-vertex"/>
                    <input offset="1" semantic="NORMAL" source="#geometry0-normal"/>
                    <p>10 8 8 9 5 10 10 8 5 10 4 11 0 16 10 17 4 18 12 19 1 20 0 16 12 19 0 16 4 18 12 19 4 18 14 21</p>
                </triangles>
            </mesh>
        </geometry>
    </library_geometries>
    <library_visual_scenes>
        <visual_scene id="Building_DEBW_5221000Qwx2">
            <node>
                <instance_geometry url="#geometry0">
                    <bind_material>
                        <technique_common>
                            <instance_material symbol="default_ai_0.2_sh_0.2_tr_0.0_dc_r_0.8_g_0.8_b_0.8_sc_r_1.0_g_1.0_b_1.0_ec_r_0.0_g_0.0_b_0_tri" target="#default_ai_0.2_sh_0.2_tr_0.0_dc_r_0.8_g_0.8_b_0.8_sc_r_1.0_g_1.0_b_1.0_ec_r_0.0_g_0.0_b_0_mat"/>
                            <instance_material symbol="default_ai_0.2_sh_0.2_tr_0.0_dc_r_1.0_g_0.2_b_0.2_sc_r_1.0_g_1.0_b_1.0_ec_r_0.0_g_0.0_b_0_tri" target="#default_ai_0.2_sh_0.2_tr_0.0_dc_r_1.0_g_0.2_b_0.2_sc_r_1.0_g_1.0_b_1.0_ec_r_0.0_g_0.0_b_0_mat"/>
                        </technique_common>
                    </bind_material>
                </instance_geometry>
            </node>
        </visual_scene>
    </library_visual_scenes>
    <scene>
        <instance_visual_scene url="#Building_DEBW_5221000Qwx2"/>
    </scene>
</COLLADA>
