<?xml version="1.0" encoding="UTF-8" standalone="yes"?>
<COLLADA xmlns="http://www.collada.org/2005/11/COLLADASchema" version="1.4.1">
    <asset>
        <contributor>
            <authoring_tool>3D City Database Importer/Exporter, version 5.5.3; Chair of Geoinformatics, Technical University of Munich</authoring_tool>
        </contributor>
        <created>2026-05-06T15:12:17.513</created>
        <modified>2026-05-06T15:12:17.513</modified>
        <unit meter="1.0" name="meters"/>
        <up_axis>Z_UP</up_axis>
    </asset>
    <library_materials>
        <material id="default_ai_0.2_sh_0.2_tr_0.0_dc_r_1.0_g_0.2_b_0.2_sc_r_1.0_g_1.0_b_1.0_ec_r_0.0_g_0.0_b_0_mat">
            <instance_effect url="#default_ai_0.2_sh_0.2_tr_0.0_dc_r_1.0_g_0.2_b_0.2_sc_r_1.0_g_1.0_b_1.0_ec_r_0.0_g_0.0_b_0_eff"/>
        </material>
        <material id="default_ai_0.2_sh_0.2_tr_0.0_dc_r_0.8_g_0.8_b_0.8_sc_r_1.0_g_1.0_b_1.0_ec_r_0.0_g_0.0_b_0_mat">
            <instance_effect url="#default_ai_0.2_sh_0.2_tr_0.0_dc_r_0.8_g_0.8_b_0.8_sc_r_1.0_g_1.0_b_1.0_ec_r_0.0_g_0.0_b_0_eff"/>
        </material>
    </library_materials>
    <library_effects>
        <effect id="default_ai_0.2_sh_0.2_tr_0.0_dc_r_1.0_g_0.2_b_0.2_sc_r_1.0_g_1.0_b_1.0_ec_r_0.0_g_0.0_b_0_eff">
            <profile_COMMON>
                <technique sid="COMMON">
                    <lambert>
                        <emission>
                            <color>0.0 0.0 0.0 1.0</color>
                        </emission>
                        <diffuse>
                            <color>1.0 0.2 0.2 1.0</color>
                        </diffuse>
                        <reflective>
                            <color>1.0 1.0 1.0 1.0</color>
                        </reflective>
                        <reflectivity>
                            <float>0.2</float>
                        </reflectivity>
                        <transparent opaque="A_ONE">
                            <color>1.0 1.0 1.0 1.0</color>
                        </transparent>
                        <transparency>
                            <float>1.0</float>
                        </transparency>
                    </lambert>
                </technique>
                <extra>
                    <technique profile="GOOGLEEARTH">
                        <double_sided>0</double_sided>
                    </technique>
                </extra>
            </profile_COMMON>
        </effect>
        <effect id="default_ai_0.2_sh_0.2_tr_0.0_dc_r_0.8_g_0.8_b_0.8_sc_r_1.0_g_1.0_b_1.0_ec_r_0.0_g_0.0_b_0_eff">
            <profile_COMMON>
                <technique sid="COMMON">
                    <lambert>
                        <emission>
                            <color>0.0 0.0 0.0 1.0</color>
                        </emission>
                        <diffuse>
                            <color>0.8 0.8 0.8 1.0</color>
                        </diffuse>
                        <reflective>
                            <color>1.0 1.0 1.0 1.0</color>
                        </reflective>
                        <reflectivity>
                            <float>0.2</float>
                        </reflectivity>
                        <transparent opaque="A_ONE">
                            <color>1.0 1.0 1.0 1.0</color>
                        </transparent>
                        <transparency>
                            <float>1.0</float>
                        </transparency>
                    </lambert>
                </technique>
                <extra>
                    <technique profile="GOOGLEEARTH">
                        <double_sided>0</double_sided>
                    </technique>
                </extra>
            </profile_COMMON>
        </effect>
    </library_effects>
    <library_geometries>
        <geometry id="geometry0">
            <mesh>
                <source id="geometry0-position">
                    <float_array id="geometry0-position-array" count="87">-0.315 -6.183 2.922 2.575 -4.513 4.406 2.58 -4.51 4.409 1.358 -2.374 4.412 0.0 0.0 4.415 -0.005 -0.003 4.412 -2.905 -1.683 2.922 0.0 0.0 0.0 -0.005 -0.003 0.0 -2.905 -1.683 0.0 -0.315 -6.183 0.0 2.575 -4.513 0.0 2.58 -4.51 0.0 1.358 -2.374 0.0 -0.005 -0.003 5.314 -0.325 0.567 4.758 -0.325 0.567 0.0 10.133 2.651 7.641 8.455 5.587 4.764 0.0 0.0 5.314 1.358 -2.374 7.641 2.575 -4.513 4.707 2.58 -4.51 4.707 3.045 -5.323 3.591 11.815 -0.293 3.599 8.455 5.587 0.0 3.045 -5.323 0.0 10.133 2.651 0.0 11.815 -0.293 0.0</float_array>
                    <technique_common>
                        <accessor count="29" source="#geometry0-position-array" stride="3">
                            <param name="X" type="float"/>
                            <param name="Y" type="float"/>
                            <param name="Z" type="float"/>
                        </accessor>
                    </technique_common>
                </source>
                <source id="geometry0-normal">
                    <float_array id="geometry0-normal-array" count="342">-0.3874839 -0.2228593 0.8945334 -0.3520904 -0.2026476 0.913765 -0.3521005 -0.2026462 0.9137613 -0.3745274 -0.2154527 0.9018367 -0.4175859 -0.2400907 0.8763439 -0.417596 -0.2400605 0.8763473 -0.3966614 -0.2280259 0.8891929 -0.5144777 0.8575038 0.0 -0.5144777 0.8575038 0.0 -0.5144777 0.8575038 0.0 -0.5144777 0.8575037 0.0 -0.5144777 0.8575037 0.0 -0.867993 -0.4965764 0.0 -0.867993 -0.4965764 0.0 -0.867993 -0.4965764 0.0 -0.867993 -0.4965764 0.0 0.0 0.0 -1.0 0.0 0.0 -1.0 0.0 0.0 -1.0 0.0 0.0 -1.0 0.0 0.0 -1.0 0.0 0.0 -1.0 0.0 0.0 -1.0 0.0 0.0 -1.0 0.0 0.0 -1.0 0.0 0.0 -1.0 0.5144957 -0.8574929 0.0 0.5144957 -0.857493 0.0 0.5144957 -0.857493 0.0 0.5144957 -0.8574929 0.0 0.5144957 -0.8574929 0.0 0.5003275 -0.8658362 0.0 0.5003275 -0.8658362 0.0 0.5003275 -0.8658362 0.0 0.5003275 -0.8658362 0.0 0.4975231 -0.8674508 0.0 0.497523 -0.8674508 0.0 0.4975231 -0.8674508 0.0 0.4975231 -0.8674508 0.0 0.0 0.0 -1.0 0.0 0.0 -1.0 0.0 0.0 -1.0 0.0 0.0 -1.0 0.0 0.0 -1.0 0.0 0.0 -1.0 0.0 0.0 -1.0 0.3757275 -0.6489826 0.6615516 0.3807239 -0.6648463 0.6426731 0.3807196 -0.6648726 0.6426485 0.3705109 -0.6327385 0.6799732 0.3704901 -0.6326599 0.6800578 0.380678 -0.6647492 0.6428007 -0.5012715 0.86529 0.0 -0.5012715 0.8652901 0.0 -0.5012715 0.86529 0.0 -0.5012715 0.86529 0.0 0.867993 0.4965764 0.0 0.867993 0.4965764 0.0 0.867993 0.4965764 0.0 0.867993 0.4965764 0.0 -0.4963519 0.8681214 0.0 -0.4963519 0.8681214 0.0 -0.4963519 0.8681214 0.0 -0.4963519 0.8681214 0.0 0.868018 0.4965327 0.0 0.8680181 0.4965327 0.0 0.868018 0.4965327 0.0 0.868018 0.4965327 0.0 -0.5144957 0.857493 0.0 -0.5144957 0.857493 0.0 -0.5144957 0.857493 0.0 -0.5144957 0.857493 0.0 -0.8719838 -0.4895347 0.0 -0.8719838 -0.4895347 0.0 -0.8719838 -0.4895347 0.0 -0.8719838 -0.4895347 0.0 -0.868018 -0.4965326 0.0 -0.868018 -0.4965326 0.0 -0.868018 -0.4965326 0.0 -0.868018 -0.4965326 0.0 0.8682796 0.4960752 0.0 0.8682796 0.4960752 0.0 0.8682796 0.4960752 0.0 0.8682796 0.4960753 0.0 -0.324877 0.5606712 0.7616449 -0.3220238 0.5623401 0.7616261 -0.3220223 0.5623224 0.7616398 -0.3220198 0.5623033 0.761655 -0.3277281 0.5590137 0.7616416 -0.3334231 0.5557013 0.7615938 0.8682067 0.4962027 0.0 0.8682067 0.4962027 0.0 0.8682067 0.4962027 0.0 0.8682067 0.4962027 0.0 -0.8666981 -0.4988329 0.0 -0.8666981 -0.4988329 0.0 -0.8666981 -0.4988329 0.0 -0.8666981 -0.4988329 0.0 -0.867993 -0.4965764 0.0 -0.867993 -0.4965765 0.0 -0.867993 -0.4965764 0.0 -0.8679931 -0.4965765 0.0 -0.8649384 -0.501878 0.0 -0.8649384 -0.501878 0.0 -0.8649384 -0.501878 0.0 -0.8649384 -0.501878 0.0 0.5144777 -0.8575038 0.0 0.5144777 -0.8575038 0.0 0.5144777 -0.8575038 0.0 0.5144777 -0.8575038 0.0 -0.868018 -0.4965327 0.0 -0.868018 -0.4965327 0.0 -0.868018 -0.4965327 0.0 -0.8680181 -0.4965327 0.0</float_array>
                    <technique_common>
                        <accessor count="114" source="#geometry0-normal-array" stride="3">
                            <param name="X" type="float"/>
                            <param name="Y" type="float"/>
                            <param name="Z" type="float"/>
                        </accessor>
                    </technique_common>
                </source>
                <vertices id="geometry0-vertex">
                    <input semantic="POSITION" source="#geometry0-position"/>
                </vertices>
                <triangles count="53" material="default_ai_0.2_sh_0.2_tr_0.0_dc_r_0.8_g_0.8_b_0.8_sc_r_1.0_g_1.0_b_1.0_ec_r_0.0_g_0.0_b_0_tri">
                    <input offset="0" semantic="VERTEX" source="#geometry0-vertex"/>
                    <input offset="1" semantic="NORMAL" source="#geometry0-normal"/>
                    <p>12 7 11 8 21 9 2 10 12 7 21 9 2 10 21 9 22 11 13 12 12 13 2 14 13 12 2 14 3 15 28 16 26 17 11 18 28 16 11 18 12 19 28 16 12 19 13 20 28 16 13 20 7 21 27 22 28 16 7 21 25 23 27 22 7 21 25 23 7 21 8 24 25 23 8 24 16 25 8 26 7 27 4 28 8 26 4 28 19 29 8 26 19 29 14 30 1 31 0 32 10 33 1 31 10 33 11 34 24 35 23 36 26 37 24 35 26 37 28 38 11 39 10 40 9 41 11 39 9 41 8 42 11 39 8 42 7 43 11 39 7 43 13 44 11 39 13 44 12 45 6 52 5 53 8 54 6 52 8 54 9 55 2 56 12 57 13 58 2 56 13 58 3 59 15 60 18 61 25 62 15 60 25 62 16 63 3 64 13 65 7 66 3 64 7 66 4 67 5 68 4 69 7 70 5 68 7 70 8 71 14 72 15 73 16 74 14 72 16 74 8 75 19 76 4 77 3 78 19 76 3 78 20 79 17 80 24 81 28 82 17 80 28 82 27 83 18 90 17 91 27 92 18 90 27 92 25 93 0 94 6 95 9 96 0 94 9 96 10 97 3 98 2 99 22 100 3 98 22 100 20 101 23 102 21 103 11 104 23 102 11 104 26 105 2 106 1 107 11 108 2 106 11 108 12 109 4 110 7 111 13 112 4 110 13 112 3 113</p>
                </triangles>
                <triangles count="13" material="default_ai_0.2_sh_0.2_tr_0.0_dc_r_1.0_g_0.2_b_0.2_sc_r_1.0_g_1.0_b_1.0_ec_r_0.0_g_0.0_b_0_tri">
                    <input offset="0" semantic="VERTEX" source="#geometry0-vertex"/>
                    <input offset="1" semantic="NORMAL" source="#geometry0-normal"/>
                    <p>5 0 6 1 0 2 5 0 0 2 1 3 5 0 1 3 2 4 5 0 2 4 3 5 5 0 3 5 4 6 24 46 17 47 20 48 24 46 20 48 22 49 24 46 22 49 21 50 24 46 21 50 23 51 19 84 20 85 17 86 19 84 17 86 18 87 19 84 18 87 15 88 19 84 15 88 14 89</p>
                </triangles>
            </mesh>
        </geometry>
    </library_geometries>
    <library_visual_scenes>
        <visual_scene id="Building_DEBW_5221000R00v">
            <node>
                <instance_geometry url="#geometry0">
                    <bind_material>
                        <technique_common>
                            <instance_material symbol="default_ai_0.2_sh_0.2_tr_0.0_dc_r_0.8_g_0.8_b_0.8_sc_r_1.0_g_1.0_b_1.0_ec_r_0.0_g_0.0_b_0_tri" target="#default_ai_0.2_sh_0.2_tr_0.0_dc_r_0.8_g_0.8_b_0.8_sc_r_1.0_g_1.0_b_1.0_ec_r_0.0_g_0.0_b_0_mat"/>
                            <instance_material symbol="default_ai_0.2_sh_0.2_tr_0.0_dc_r_1.0_g_0.2_b_0.2_sc_r_1.0_g_1.0_b_1.0_ec_r_0.0_g_0.0_b_0_tri" target="#default_ai_0.2_sh_0.2_tr_0.0_dc_r_1.0_g_0.2_b_0.2_sc_r_1.0_g_1.0_b_1.0_ec_r_0.0_g_0.0_b_0_mat"/>
                        </technique_common>
                    </bind_material>
                </instance_geometry>
            </node>
        </visual_scene>
    </library_visual_scenes>
    <scene>
        <instance_visual_scene url="#Building_DEBW_5221000R00v"/>
    </scene>
</COLLADA>
