<?xml version="1.0" encoding="UTF-8" standalone="yes"?>
<COLLADA xmlns="http://www.collada.org/2005/11/COLLADASchema" version="1.4.1">
    <asset>
        <contributor>
            <authoring_tool>3D City Database Importer/Exporter, version 5.5.3; Chair of Geoinformatics, Technical University of Munich</authoring_tool>
        </contributor>
        <created>2026-05-06T15:12:06.223</created>
        <modified>2026-05-06T15:12:06.223</modified>
        <unit meter="1.0" name="meters"/>
        <up_axis>Z_UP</up_axis>
    </asset>
    <library_materials>
        <material id="default_ai_0.2_sh_0.2_tr_0.0_dc_r_0.8_g_0.8_b_0.8_sc_r_1.0_g_1.0_b_1.0_ec_r_0.0_g_0.0_b_0_mat">
            <instance_effect url="#default_ai_0.2_sh_0.2_tr_0.0_dc_r_0.8_g_0.8_b_0.8_sc_r_1.0_g_1.0_b_1.0_ec_r_0.0_g_0.0_b_0_eff"/>
        </material>
        <material id="default_ai_0.2_sh_0.2_tr_0.0_dc_r_1.0_g_0.2_b_0.2_sc_r_1.0_g_1.0_b_1.0_ec_r_0.0_g_0.0_b_0_mat">
            <instance_effect url="#default_ai_0.2_sh_0.2_tr_0.0_dc_r_1.0_g_0.2_b_0.2_sc_r_1.0_g_1.0_b_1.0_ec_r_0.0_g_0.0_b_0_eff"/>
        </material>
    </library_materials>
    <library_effects>
        <effect id="default_ai_0.2_sh_0.2_tr_0.0_dc_r_0.8_g_0.8_b_0.8_sc_r_1.0_g_1.0_b_1.0_ec_r_0.0_g_0.0_b_0_eff">
            <profile_COMMON>
                <technique sid="COMMON">
                    <lambert>
                        <emission>
                            <color>0.0 0.0 0.0 1.0</color>
                        </emission>
                        <diffuse>
                            <color>0.8 0.8 0.8 1.0</color>
                        </diffuse>
                        <reflective>
                            <color>1.0 1.0 1.0 1.0</color>
                        </reflective>
                        <reflectivity>
                            <float>0.2</float>
                        </reflectivity>
                        <transparent opaque="A_ONE">
                            <color>1.0 1.0 1.0 1.0</color>
                        </transparent>
                        <transparency>
                            <float>1.0</float>
                        </transparency>
                    </lambert>
                </technique>
                <extra>
                    <technique profile="GOOGLEEARTH">
                        <double_sided>0</double_sided>
                    </technique>
                </extra>
            </profile_COMMON>
        </effect>
        <effect id="default_ai_0.2_sh_0.2_tr_0.0_dc_r_1.0_g_0.2_b_0.2_sc_r_1.0_g_1.0_b_1.0_ec_r_0.0_g_0.0_b_0_eff">
            <profile_COMMON>
                <technique sid="COMMON">
                    <lambert>
                        <emission>
                            <color>0.0 0.0 0.0 1.0</color>
                        </emission>
                        <diffuse>
                            <color>1.0 0.2 0.2 1.0</color>
                        </diffuse>
                        <reflective>
                            <color>1.0 1.0 1.0 1.0</color>
                        </reflective>
                        <reflectivity>
                            <float>0.2</float>
                        </reflectivity>
                        <transparent opaque="A_ONE">
                            <color>1.0 1.0 1.0 1.0</color>
                        </transparent>
                        <transparency>
                            <float>1.0</float>
                        </transparency>
                    </lambert>
                </technique>
                <extra>
                    <technique profile="GOOGLEEARTH">
                        <double_sided>0</double_sided>
                    </technique>
                </extra>
            </profile_COMMON>
        </effect>
    </library_effects>
    <library_geometries>
        <geometry id="geometry0">
            <mesh>
                <source id="geometry0-position">
                    <float_array id="geometry0-position-array" count="72">-0.44 -0.17 6.876 0.0 0.0 6.889 0.0 0.0 0.0 -0.44 -0.17 0.0 1.911 -4.439 9.732 -0.38 -0.34 6.982 -5.1 -2.32 6.927 -3.224 -6.704 9.732 -0.38 -0.34 0.0 -5.1 -2.32 0.0 -3.224 -6.704 0.0 -1.13 -11.6 6.642 1.28 -10.57 6.624 4.041 -9.39 6.604 -1.13 -11.6 0.0 1.28 -10.57 0.0 1.28 -10.57 4.027 1.911 -4.439 0.0 4.041 -9.39 0.0 4.041 -9.39 4.027 4.7 -10.92 4.027 4.7 -10.92 0.0 1.96 -12.11 4.027 1.96 -12.11 0.0</float_array>
                    <technique_common>
                        <accessor count="24" source="#geometry0-position-array" stride="3">
                            <param name="X" type="float"/>
                            <param name="Y" type="float"/>
                            <param name="Z" type="float"/>
                        </accessor>
                    </technique_common>
                </source>
                <source id="geometry0-normal">
                    <float_array id="geometry0-normal-array" count="264">-0.9194362 -0.3932392 0.0 -0.9194362 -0.3932392 0.0 -0.9194362 -0.3932392 0.0 -0.9194363 -0.3932393 0.0 -0.3868339 0.9221494 0.0 -0.3868339 0.9221494 0.0 -0.3868339 0.9221494 0.0 -0.3868339 0.9221494 0.0 -0.9429903 -0.3328201 0.0 -0.9429903 -0.3328201 0.0 -0.9429903 -0.3328201 0.0 -0.9429903 -0.3328201 0.0 0.9185017 0.3954172 0.0 0.9185016 0.3954171 0.0 0.9185017 0.3954172 0.0 0.9185017 0.3954172 0.0 -0.9147887 -0.4039327 0.0 -0.9147887 -0.4039327 0.0 -0.9147887 -0.4039327 0.0 -0.9147887 -0.4039327 0.0 0.9184294 0.3955849 0.0 0.9184294 0.3955849 0.0 0.9184294 0.3955849 0.0 0.9184294 0.3955849 0.0 0.3929983 -0.9195392 0.0 0.3929984 -0.9195392 0.0 0.3929984 -0.9195392 0.0 0.3929984 -0.9195392 0.0 0.3929983 -0.9195392 0.0 -0.9193618 -0.3934131 0.0 -0.9193618 -0.393413 0.0 -0.9193618 -0.3934131 0.0 -0.9193618 -0.3934131 0.0 0.3929944 -0.9195408 0.0 0.3929944 -0.9195408 0.0 0.3929944 -0.9195408 0.0 0.3929944 -0.9195408 0.0 0.0 0.0 -1.0 0.0 0.0 -1.0 0.0 0.0 -1.0 0.0 0.0 -1.0 0.2025984 -0.4592428 0.8648988 0.2025814 -0.4592741 0.8648862 0.2025984 -0.4592428 0.8648988 0.2026154 -0.4592116 0.8649115 0.3927821 -0.9193969 -0.0207732 0.3927821 -0.9193969 -0.0207732 0.3927821 -0.9193969 -0.0207732 0.3983587 -0.9172297 0.0 0.3983587 -0.9172297 0.0 0.3983587 -0.9172297 0.0 0.3983587 -0.9172297 0.0 -0.3929944 0.9195408 0.0 -0.3929944 0.9195408 0.0 -0.3929944 0.9195408 0.0 -0.3929944 0.9195408 0.0 0.0 0.0 -1.0 0.0 0.0 -1.0 0.0 0.0 -1.0 0.0 0.0 -1.0 0.0 0.0 -1.0 0.0 0.0 -1.0 0.0 0.0 -1.0 0.0 0.0 -1.0 0.0 0.0 -1.0 -0.3603993 0.9327981 0.0 -0.3603993 0.9327981 0.0 -0.3603993 0.9327981 0.0 -0.3603993 0.9327981 0.0 -0.2046351 0.4639026 0.8619274 -0.2046289 0.4639158 0.8619217 -0.2045184 0.4639609 0.8619237 -0.2046454 0.4642366 0.8617451 -0.2046473 0.4644101 0.8616512 -0.2050097 0.4647427 0.8613857 0.0 0.0 1.0 0.0 0.0 1.0 0.0 0.0 1.0 0.0 0.0 1.0 0.9185972 0.3951953 0.0 0.9185972 0.3951953 0.0 0.9185972 0.3951953 0.0 0.9185972 0.3951953 0.0 0.9185972 0.3951953 0.0 0.3929944 -0.9195408 0.0 0.3929944 -0.9195408 0.0 0.3929944 -0.9195408 0.0 0.3929944 -0.9195408 0.0</float_array>
                    <technique_common>
                        <accessor count="88" source="#geometry0-normal-array" stride="3">
                            <param name="X" type="float"/>
                            <param name="Y" type="float"/>
                            <param name="Z" type="float"/>
                        </accessor>
                    </technique_common>
                </source>
                <vertices id="geometry0-vertex">
                    <input semantic="POSITION" source="#geometry0-position"/>
                </vertices>
                <triangles count="39" material="default_ai_0.2_sh_0.2_tr_0.0_dc_r_0.8_g_0.8_b_0.8_sc_r_1.0_g_1.0_b_1.0_ec_r_0.0_g_0.0_b_0_tri">
                    <input offset="0" semantic="VERTEX" source="#geometry0-vertex"/>
                    <input offset="1" semantic="NORMAL" source="#geometry0-normal"/>
                    <p>11 0 7 1 10 2 11 0 10 2 14 3 6 4 5 5 8 6 6 4 8 6 9 7 5 8 0 9 3 10 5 8 3 10 8 11 1 12 4 13 17 14 1 12 17 14 2 15 22 16 16 17 15 18 22 16 15 18 23 19 19 20 20 21 21 22 19 20 21 22 18 23 14 24 15 25 16 26 14 24 16 26 12 27 14 24 12 27 11 28 7 29 6 30 9 31 7 29 9 31 10 32 16 33 15 34 18 35 16 33 18 35 19 36 23 37 15 38 18 39 23 37 18 39 21 40 20 48 22 49 23 50 20 48 23 50 21 51 18 52 15 53 16 54 18 52 16 54 19 55 17 56 18 57 15 58 17 56 15 58 14 59 17 56 14 59 10 60 17 56 10 60 9 61 17 56 9 61 8 62 17 56 8 62 3 63 17 56 3 63 2 64 0 65 1 66 2 67 0 65 2 67 3 68 18 79 17 80 4 81 19 82 18 79 4 81 19 82 4 81 13 83 16 84 19 85 13 86 16 84 13 86 12 87</p>
                </triangles>
                <triangles count="9" material="default_ai_0.2_sh_0.2_tr_0.0_dc_r_1.0_g_0.2_b_0.2_sc_r_1.0_g_1.0_b_1.0_ec_r_0.0_g_0.0_b_0_tri">
                    <input offset="0" semantic="VERTEX" source="#geometry0-vertex"/>
                    <input offset="1" semantic="NORMAL" source="#geometry0-normal"/>
                    <p>13 41 4 42 7 43 13 41 7 43 11 44 13 45 11 46 12 47 6 69 7 70 4 71 5 72 6 69 4 71 5 72 4 71 1 73 5 72 1 73 0 74 20 75 19 76 16 77 20 75 16 77 22 78</p>
                </triangles>
            </mesh>
        </geometry>
    </library_geometries>
    <library_visual_scenes>
        <visual_scene id="Building_DEBW_5221000Qi4g">
            <node>
                <instance_geometry url="#geometry0">
                    <bind_material>
                        <technique_common>
                            <instance_material symbol="default_ai_0.2_sh_0.2_tr_0.0_dc_r_0.8_g_0.8_b_0.8_sc_r_1.0_g_1.0_b_1.0_ec_r_0.0_g_0.0_b_0_tri" target="#default_ai_0.2_sh_0.2_tr_0.0_dc_r_0.8_g_0.8_b_0.8_sc_r_1.0_g_1.0_b_1.0_ec_r_0.0_g_0.0_b_0_mat"/>
                            <instance_material symbol="default_ai_0.2_sh_0.2_tr_0.0_dc_r_1.0_g_0.2_b_0.2_sc_r_1.0_g_1.0_b_1.0_ec_r_0.0_g_0.0_b_0_tri" target="#default_ai_0.2_sh_0.2_tr_0.0_dc_r_1.0_g_0.2_b_0.2_sc_r_1.0_g_1.0_b_1.0_ec_r_0.0_g_0.0_b_0_mat"/>
                        </technique_common>
                    </bind_material>
                </instance_geometry>
            </node>
        </visual_scene>
    </library_visual_scenes>
    <scene>
        <instance_visual_scene url="#Building_DEBW_5221000Qi4g"/>
    </scene>
</COLLADA>
