<?xml version="1.0" encoding="UTF-8" standalone="yes"?>
<COLLADA xmlns="http://www.collada.org/2005/11/COLLADASchema" version="1.4.1">
    <asset>
        <contributor>
            <authoring_tool>3D City Database Importer/Exporter, version 5.5.3; Chair of Geoinformatics, Technical University of Munich</authoring_tool>
        </contributor>
        <created>2026-05-06T15:12:02.880</created>
        <modified>2026-05-06T15:12:02.880</modified>
        <unit meter="1.0" name="meters"/>
        <up_axis>Z_UP</up_axis>
    </asset>
    <library_materials>
        <material id="default_ai_0.2_sh_0.2_tr_0.0_dc_r_0.8_g_0.8_b_0.8_sc_r_1.0_g_1.0_b_1.0_ec_r_0.0_g_0.0_b_0_mat">
            <instance_effect url="#default_ai_0.2_sh_0.2_tr_0.0_dc_r_0.8_g_0.8_b_0.8_sc_r_1.0_g_1.0_b_1.0_ec_r_0.0_g_0.0_b_0_eff"/>
        </material>
        <material id="default_ai_0.2_sh_0.2_tr_0.0_dc_r_1.0_g_0.2_b_0.2_sc_r_1.0_g_1.0_b_1.0_ec_r_0.0_g_0.0_b_0_mat">
            <instance_effect url="#default_ai_0.2_sh_0.2_tr_0.0_dc_r_1.0_g_0.2_b_0.2_sc_r_1.0_g_1.0_b_1.0_ec_r_0.0_g_0.0_b_0_eff"/>
        </material>
    </library_materials>
    <library_effects>
        <effect id="default_ai_0.2_sh_0.2_tr_0.0_dc_r_0.8_g_0.8_b_0.8_sc_r_1.0_g_1.0_b_1.0_ec_r_0.0_g_0.0_b_0_eff">
            <profile_COMMON>
                <technique sid="COMMON">
                    <lambert>
                        <emission>
                            <color>0.0 0.0 0.0 1.0</color>
                        </emission>
                        <diffuse>
                            <color>0.8 0.8 0.8 1.0</color>
                        </diffuse>
                        <reflective>
                            <color>1.0 1.0 1.0 1.0</color>
                        </reflective>
                        <reflectivity>
                            <float>0.2</float>
                        </reflectivity>
                        <transparent opaque="A_ONE">
                            <color>1.0 1.0 1.0 1.0</color>
                        </transparent>
                        <transparency>
                            <float>1.0</float>
                        </transparency>
                    </lambert>
                </technique>
                <extra>
                    <technique profile="GOOGLEEARTH">
                        <double_sided>0</double_sided>
                    </technique>
                </extra>
            </profile_COMMON>
        </effect>
        <effect id="default_ai_0.2_sh_0.2_tr_0.0_dc_r_1.0_g_0.2_b_0.2_sc_r_1.0_g_1.0_b_1.0_ec_r_0.0_g_0.0_b_0_eff">
            <profile_COMMON>
                <technique sid="COMMON">
                    <lambert>
                        <emission>
                            <color>0.0 0.0 0.0 1.0</color>
                        </emission>
                        <diffuse>
                            <color>1.0 0.2 0.2 1.0</color>
                        </diffuse>
                        <reflective>
                            <color>1.0 1.0 1.0 1.0</color>
                        </reflective>
                        <reflectivity>
                            <float>0.2</float>
                        </reflectivity>
                        <transparent opaque="A_ONE">
                            <color>1.0 1.0 1.0 1.0</color>
                        </transparent>
                        <transparency>
                            <float>1.0</float>
                        </transparency>
                    </lambert>
                </technique>
                <extra>
                    <technique profile="GOOGLEEARTH">
                        <double_sided>0</double_sided>
                    </technique>
                </extra>
            </profile_COMMON>
        </effect>
    </library_effects>
    <library_geometries>
        <geometry id="geometry0">
            <mesh>
                <source id="geometry0-position">
                    <float_array id="geometry0-position-array" count="42">-0.22 0.36 4.037 0.0 0.0 4.037 0.0 0.0 0.0 -0.22 0.36 0.0 -4.402 -2.155 10.242 -3.71 -1.74 9.216 -8.41 -4.56 4.256 6.01 -9.94 4.106 6.01 -9.94 0.0 -2.05 -14.97 4.256 1.916 -12.495 10.242 -2.05 -14.97 0.0 -8.41 -4.56 0.0 -3.71 -1.74 0.0</float_array>
                    <technique_common>
                        <accessor count="14" source="#geometry0-position-array" stride="3">
                            <param name="X" type="float"/>
                            <param name="Y" type="float"/>
                            <param name="Z" type="float"/>
                        </accessor>
                    </technique_common>
                </source>
                <source id="geometry0-normal">
                    <float_array id="geometry0-normal-array" count="156">0.8532819 0.52145 0.0 0.8532819 0.52145 0.0 0.8532819 0.52145 0.0 0.8532819 0.52145 0.0 0.0 0.0 -1.0 0.0 0.0 -1.0 0.0 0.0 -1.0 0.0 0.0 -1.0 0.0 0.0 -1.0 0.0 0.0 -1.0 -0.672563 -0.410928 0.615465 -0.672534 -0.4109352 0.615492 -0.672563 -0.410928 0.615465 -0.6725919 -0.4109207 0.6154382 0.670738 0.4098381 0.6181774 0.670738 0.4098381 0.6181774 0.670738 0.4098381 0.6181774 -0.5144957 0.8574929 0.0 -0.5144958 0.8574929 0.0 -0.5144957 0.8574929 0.0 -0.5144958 0.857493 0.0 0.67062 0.4100478 0.6181663 0.67062 0.4100478 0.6181663 0.67062 0.4100478 0.6181663 0.670738 0.4098378 0.6181776 0.670738 0.4098378 0.6181776 0.670738 0.4098378 0.6181776 0.6707129 0.4098801 0.6181766 0.6707129 0.4098801 0.6181766 0.6707129 0.4098801 0.6181766 0.8557408 0.5174047 0.0 0.8557408 0.5174047 0.0 0.8557408 0.5174047 0.0 0.8557408 0.5174047 0.0 -0.5155785 0.8568423 0.0 -0.5155785 0.8568423 0.0 -0.5155785 0.8568423 0.0 -0.5155785 0.8568425 0.0 -0.5144199 0.8575384 -9.76E-5 -0.5144199 0.8575384 -9.76E-5 -0.5144199 0.8575384 -9.76E-5 0.529431 -0.848353 -8.3E-6 0.529431 -0.848353 -8.3E-6 0.529431 -0.848353 -8.3E-6 0.5294312 -0.8483528 0.0 0.5294312 -0.848353 0.0 0.5294312 -0.8483528 0.0 0.5294312 -0.8483528 0.0 -0.8533426 -0.5213505 0.0 -0.8533426 -0.5213505 0.0 -0.8533426 -0.5213505 0.0 -0.8533426 -0.5213505 0.0</float_array>
                    <technique_common>
                        <accessor count="52" source="#geometry0-normal-array" stride="3">
                            <param name="X" type="float"/>
                            <param name="Y" type="float"/>
                            <param name="Z" type="float"/>
                        </accessor>
                    </technique_common>
                </source>
                <vertices id="geometry0-vertex">
                    <input semantic="POSITION" source="#geometry0-position"/>
                </vertices>
                <triangles count="18" material="default_ai_0.2_sh_0.2_tr_0.0_dc_r_0.8_g_0.8_b_0.8_sc_r_1.0_g_1.0_b_1.0_ec_r_0.0_g_0.0_b_0_tri">
                    <input offset="0" semantic="VERTEX" source="#geometry0-vertex"/>
                    <input offset="1" semantic="NORMAL" source="#geometry0-normal"/>
                    <p>0 0 1 1 2 2 0 0 2 2 3 3 13 4 3 5 2 6 13 4 2 6 8 7 13 4 8 7 11 8 13 4 11 8 12 9 6 17 5 18 13 19 6 17 13 19 12 20 1 30 7 31 8 32 1 30 8 32 2 33 5 34 0 35 3 36 5 34 3 36 13 37 5 38 6 39 4 40 9 41 7 42 10 43 7 44 9 45 11 46 7 44 11 46 8 47 9 48 6 49 12 50 9 48 12 50 11 51</p>
                </triangles>
                <triangles count="6" material="default_ai_0.2_sh_0.2_tr_0.0_dc_r_1.0_g_0.2_b_0.2_sc_r_1.0_g_1.0_b_1.0_ec_r_0.0_g_0.0_b_0_tri">
                    <input offset="0" semantic="VERTEX" source="#geometry0-vertex"/>
                    <input offset="1" semantic="NORMAL" source="#geometry0-normal"/>
                    <p>9 10 10 11 4 12 9 10 4 12 6 13 4 14 7 15 1 16 4 21 1 22 5 23 7 24 4 25 10 26 5 27 1 28 0 29</p>
                </triangles>
            </mesh>
        </geometry>
    </library_geometries>
    <library_visual_scenes>
        <visual_scene id="Building_DEBW_5221000QjUw">
            <node>
                <instance_geometry url="#geometry0">
                    <bind_material>
                        <technique_common>
                            <instance_material symbol="default_ai_0.2_sh_0.2_tr_0.0_dc_r_0.8_g_0.8_b_0.8_sc_r_1.0_g_1.0_b_1.0_ec_r_0.0_g_0.0_b_0_tri" target="#default_ai_0.2_sh_0.2_tr_0.0_dc_r_0.8_g_0.8_b_0.8_sc_r_1.0_g_1.0_b_1.0_ec_r_0.0_g_0.0_b_0_mat"/>
                            <instance_material symbol="default_ai_0.2_sh_0.2_tr_0.0_dc_r_1.0_g_0.2_b_0.2_sc_r_1.0_g_1.0_b_1.0_ec_r_0.0_g_0.0_b_0_tri" target="#default_ai_0.2_sh_0.2_tr_0.0_dc_r_1.0_g_0.2_b_0.2_sc_r_1.0_g_1.0_b_1.0_ec_r_0.0_g_0.0_b_0_mat"/>
                        </technique_common>
                    </bind_material>
                </instance_geometry>
            </node>
        </visual_scene>
    </library_visual_scenes>
    <scene>
        <instance_visual_scene url="#Building_DEBW_5221000QjUw"/>
    </scene>
</COLLADA>
