<?xml version="1.0" encoding="UTF-8" standalone="yes"?>
<COLLADA xmlns="http://www.collada.org/2005/11/COLLADASchema" version="1.4.1">
    <asset>
        <contributor>
            <authoring_tool>3D City Database Importer/Exporter, version 5.5.3; Chair of Geoinformatics, Technical University of Munich</authoring_tool>
        </contributor>
        <created>2026-05-06T15:12:11.751</created>
        <modified>2026-05-06T15:12:11.751</modified>
        <unit meter="1.0" name="meters"/>
        <up_axis>Z_UP</up_axis>
    </asset>
    <library_materials>
        <material id="default_ai_0.2_sh_0.2_tr_0.0_dc_r_0.8_g_0.8_b_0.8_sc_r_1.0_g_1.0_b_1.0_ec_r_0.0_g_0.0_b_0_mat">
            <instance_effect url="#default_ai_0.2_sh_0.2_tr_0.0_dc_r_0.8_g_0.8_b_0.8_sc_r_1.0_g_1.0_b_1.0_ec_r_0.0_g_0.0_b_0_eff"/>
        </material>
        <material id="default_ai_0.2_sh_0.2_tr_0.0_dc_r_1.0_g_0.2_b_0.2_sc_r_1.0_g_1.0_b_1.0_ec_r_0.0_g_0.0_b_0_mat">
            <instance_effect url="#default_ai_0.2_sh_0.2_tr_0.0_dc_r_1.0_g_0.2_b_0.2_sc_r_1.0_g_1.0_b_1.0_ec_r_0.0_g_0.0_b_0_eff"/>
        </material>
    </library_materials>
    <library_effects>
        <effect id="default_ai_0.2_sh_0.2_tr_0.0_dc_r_0.8_g_0.8_b_0.8_sc_r_1.0_g_1.0_b_1.0_ec_r_0.0_g_0.0_b_0_eff">
            <profile_COMMON>
                <technique sid="COMMON">
                    <lambert>
                        <emission>
                            <color>0.0 0.0 0.0 1.0</color>
                        </emission>
                        <diffuse>
                            <color>0.8 0.8 0.8 1.0</color>
                        </diffuse>
                        <reflective>
                            <color>1.0 1.0 1.0 1.0</color>
                        </reflective>
                        <reflectivity>
                            <float>0.2</float>
                        </reflectivity>
                        <transparent opaque="A_ONE">
                            <color>1.0 1.0 1.0 1.0</color>
                        </transparent>
                        <transparency>
                            <float>1.0</float>
                        </transparency>
                    </lambert>
                </technique>
                <extra>
                    <technique profile="GOOGLEEARTH">
                        <double_sided>0</double_sided>
                    </technique>
                </extra>
            </profile_COMMON>
        </effect>
        <effect id="default_ai_0.2_sh_0.2_tr_0.0_dc_r_1.0_g_0.2_b_0.2_sc_r_1.0_g_1.0_b_1.0_ec_r_0.0_g_0.0_b_0_eff">
            <profile_COMMON>
                <technique sid="COMMON">
                    <lambert>
                        <emission>
                            <color>0.0 0.0 0.0 1.0</color>
                        </emission>
                        <diffuse>
                            <color>1.0 0.2 0.2 1.0</color>
                        </diffuse>
                        <reflective>
                            <color>1.0 1.0 1.0 1.0</color>
                        </reflective>
                        <reflectivity>
                            <float>0.2</float>
                        </reflectivity>
                        <transparent opaque="A_ONE">
                            <color>1.0 1.0 1.0 1.0</color>
                        </transparent>
                        <transparency>
                            <float>1.0</float>
                        </transparency>
                    </lambert>
                </technique>
                <extra>
                    <technique profile="GOOGLEEARTH">
                        <double_sided>0</double_sided>
                    </technique>
                </extra>
            </profile_COMMON>
        </effect>
    </library_effects>
    <library_geometries>
        <geometry id="geometry0">
            <mesh>
                <source id="geometry0-position">
                    <float_array id="geometry0-position-array" count="78">3.49 -1.58 7.159 0.0 0.0 7.159 0.0 0.0 0.0 3.49 -1.58 0.0 5.13 5.42 0.0 6.55 4.68 0.0 3.62 -1.64 0.0 -3.02 -4.54 0.0 -6.4 -2.01 0.0 -6.61 -1.85 0.0 -0.85 10.43 0.0 0.52 13.53 0.0 7.63 10.21 0.0 7.39 9.54 0.0 7.08 9.68 0.0 7.08 9.68 7.159 5.13 5.42 7.159 7.39 9.54 7.159 7.63 10.21 7.159 0.52 13.53 7.159 -0.85 10.43 7.159 -6.61 -1.85 7.159 -6.4 -2.01 7.159 -3.02 -4.54 7.159 3.62 -1.64 7.159 6.55 4.68 7.159</float_array>
                    <technique_common>
                        <accessor count="26" source="#geometry0-position-array" stride="3">
                            <param name="X" type="float"/>
                            <param name="Y" type="float"/>
                            <param name="Z" type="float"/>
                        </accessor>
                    </technique_common>
                </source>
                <source id="geometry0-normal">
                    <float_array id="geometry0-normal-array" count="234">0.9072438 -0.4206052 0.0 0.9072438 -0.4206052 0.0 0.9072438 -0.4206052 0.0 0.9072438 -0.4206052 0.0 -0.5992418 -0.800568 0.0 -0.5992418 -0.800568 0.0 -0.5992418 -0.800568 0.0 -0.5992418 -0.800568 0.0 -0.9053527 0.4246605 0.0 -0.9053527 0.4246605 0.0 -0.9053527 0.4246605 0.0 -0.9053527 0.4246605 0.0 0.0 0.0 -1.0 0.0 0.0 -1.0 0.0 0.0 -1.0 0.0 0.0 -1.0 0.0 0.0 -1.0 0.0 0.0 -1.0 0.0 0.0 -1.0 0.0 0.0 -1.0 0.0 0.0 -1.0 0.0 0.0 -1.0 0.0 0.0 -1.0 0.0 0.0 -1.0 0.0 0.0 -1.0 0.0 0.0 1.0 0.0 0.0 1.0 0.0 0.0 1.0 0.0 0.0 1.0 0.0 0.0 1.0 0.0 0.0 1.0 0.0 0.0 1.0 0.0 0.0 1.0 0.0 0.0 1.0 0.0 0.0 1.0 0.0 0.0 1.0 0.0 0.0 1.0 0.0 0.0 1.0 0.9092668 -0.4162136 0.0 0.9092668 -0.4162136 0.0 0.9092668 -0.4162136 0.0 0.9092668 -0.4162136 0.0 -0.6060431 -0.7954319 0.0 -0.6060431 -0.7954319 0.0 -0.6060431 -0.7954319 0.0 -0.6060431 -0.7954319 0.0 -0.4115876 -0.9113702 0.0 -0.4115876 -0.9113702 0.0 -0.4115876 -0.9113702 0.0 -0.4115876 -0.9113702 0.0 -0.4124259 -0.9109913 0.0 -0.4124259 -0.9109913 0.0 -0.4124259 -0.9109913 0.0 -0.4124259 -0.9109913 0.0 -0.4190582 -0.9079593 0.0 -0.4190582 -0.9079593 0.0 -0.4190582 -0.9079593 0.0 -0.4190582 -0.9079593 0.0 0.4230947 0.9060855 0.0 0.4230947 0.9060855 0.0 0.4230947 0.9060855 0.0 0.4230947 0.9060855 0.0 0.4621392 0.8868074 0.0 0.4621392 0.8868074 0.0 0.4621392 0.8868074 0.0 0.4621392 0.8868074 0.0 0.9414235 -0.3372266 0.0 0.9414235 -0.3372266 0.0 0.9414235 -0.3372266 0.0 0.9414235 -0.3372266 0.0 -0.9146612 0.4042213 0.0 -0.9146612 0.4042213 0.0 -0.9146612 0.4042213 0.0 -0.9146612 0.4042213 0.0 0.8326141 -0.5538535 0.0 0.8326141 -0.5538535 0.0 0.8326141 -0.5538535 0.0 0.8326141 -0.5538535 0.0</float_array>
                    <technique_common>
                        <accessor count="78" source="#geometry0-normal-array" stride="3">
                            <param name="X" type="float"/>
                            <param name="Y" type="float"/>
                            <param name="Z" type="float"/>
                        </accessor>
                    </technique_common>
                </source>
                <vertices id="geometry0-vertex">
                    <input semantic="POSITION" source="#geometry0-position"/>
                </vertices>
                <triangles count="37" material="default_ai_0.2_sh_0.2_tr_0.0_dc_r_0.8_g_0.8_b_0.8_sc_r_1.0_g_1.0_b_1.0_ec_r_0.0_g_0.0_b_0_tri">
                    <input offset="0" semantic="VERTEX" source="#geometry0-vertex"/>
                    <input offset="1" semantic="NORMAL" source="#geometry0-normal"/>
                    <p>25 0 24 1 6 2 25 0 6 2 5 3 23 4 22 5 8 6 23 4 8 6 7 7 21 8 20 9 10 10 21 8 10 10 9 11 5 12 6 13 4 14 6 13 3 15 4 14 3 15 2 16 4 14 4 14 2 16 14 17 7 18 8 19 2 16 2 16 8 19 14 17 8 19 9 20 14 17 9 20 10 21 14 17 10 21 11 22 14 17 14 17 11 22 13 23 13 23 11 22 12 24 15 38 16 39 4 40 15 38 4 40 14 41 22 42 21 43 9 44 22 42 9 44 8 45 17 46 15 47 14 48 17 46 14 48 13 49 0 50 1 51 2 52 0 50 2 52 3 53 24 54 0 55 3 56 24 54 3 56 6 57 19 58 18 59 12 60 19 58 12 60 11 61 16 62 25 63 5 64 16 62 5 64 4 65 18 66 17 67 13 68 18 66 13 68 12 69 20 70 19 71 11 72 20 70 11 72 10 73 1 74 23 75 7 76 1 74 7 76 2 77</p>
                </triangles>
                <triangles count="11" material="default_ai_0.2_sh_0.2_tr_0.0_dc_r_1.0_g_0.2_b_0.2_sc_r_1.0_g_1.0_b_1.0_ec_r_0.0_g_0.0_b_0_tri">
                    <input offset="0" semantic="VERTEX" source="#geometry0-vertex"/>
                    <input offset="1" semantic="NORMAL" source="#geometry0-normal"/>
                    <p>17 25 18 26 15 27 18 26 19 28 15 27 15 27 19 28 16 29 19 28 20 30 16 29 20 30 21 31 16 29 16 29 21 31 25 32 21 31 22 33 25 32 23 34 1 35 22 33 22 33 1 35 25 32 1 35 0 36 25 32 25 32 0 36 24 37</p>
                </triangles>
            </mesh>
        </geometry>
    </library_geometries>
    <library_visual_scenes>
        <visual_scene id="Building_DEBW_5221000Qsk2">
            <node>
                <instance_geometry url="#geometry0">
                    <bind_material>
                        <technique_common>
                            <instance_material symbol="default_ai_0.2_sh_0.2_tr_0.0_dc_r_0.8_g_0.8_b_0.8_sc_r_1.0_g_1.0_b_1.0_ec_r_0.0_g_0.0_b_0_tri" target="#default_ai_0.2_sh_0.2_tr_0.0_dc_r_0.8_g_0.8_b_0.8_sc_r_1.0_g_1.0_b_1.0_ec_r_0.0_g_0.0_b_0_mat"/>
                            <instance_material symbol="default_ai_0.2_sh_0.2_tr_0.0_dc_r_1.0_g_0.2_b_0.2_sc_r_1.0_g_1.0_b_1.0_ec_r_0.0_g_0.0_b_0_tri" target="#default_ai_0.2_sh_0.2_tr_0.0_dc_r_1.0_g_0.2_b_0.2_sc_r_1.0_g_1.0_b_1.0_ec_r_0.0_g_0.0_b_0_mat"/>
                        </technique_common>
                    </bind_material>
                </instance_geometry>
            </node>
        </visual_scene>
    </library_visual_scenes>
    <scene>
        <instance_visual_scene url="#Building_DEBW_5221000Qsk2"/>
    </scene>
</COLLADA>
