<?xml version="1.0" encoding="UTF-8" standalone="yes"?>
<COLLADA xmlns="http://www.collada.org/2005/11/COLLADASchema" version="1.4.1">
    <asset>
        <contributor>
            <authoring_tool>3D City Database Importer/Exporter, version 5.5.3; Chair of Geoinformatics, Technical University of Munich</authoring_tool>
        </contributor>
        <created>2026-05-06T15:12:13.550</created>
        <modified>2026-05-06T15:12:13.550</modified>
        <unit meter="1.0" name="meters"/>
        <up_axis>Z_UP</up_axis>
    </asset>
    <library_materials>
        <material id="default_ai_0.2_sh_0.2_tr_0.0_dc_r_0.8_g_0.8_b_0.8_sc_r_1.0_g_1.0_b_1.0_ec_r_0.0_g_0.0_b_0_mat">
            <instance_effect url="#default_ai_0.2_sh_0.2_tr_0.0_dc_r_0.8_g_0.8_b_0.8_sc_r_1.0_g_1.0_b_1.0_ec_r_0.0_g_0.0_b_0_eff"/>
        </material>
        <material id="default_ai_0.2_sh_0.2_tr_0.0_dc_r_1.0_g_0.2_b_0.2_sc_r_1.0_g_1.0_b_1.0_ec_r_0.0_g_0.0_b_0_mat">
            <instance_effect url="#default_ai_0.2_sh_0.2_tr_0.0_dc_r_1.0_g_0.2_b_0.2_sc_r_1.0_g_1.0_b_1.0_ec_r_0.0_g_0.0_b_0_eff"/>
        </material>
    </library_materials>
    <library_effects>
        <effect id="default_ai_0.2_sh_0.2_tr_0.0_dc_r_0.8_g_0.8_b_0.8_sc_r_1.0_g_1.0_b_1.0_ec_r_0.0_g_0.0_b_0_eff">
            <profile_COMMON>
                <technique sid="COMMON">
                    <lambert>
                        <emission>
                            <color>0.0 0.0 0.0 1.0</color>
                        </emission>
                        <diffuse>
                            <color>0.8 0.8 0.8 1.0</color>
                        </diffuse>
                        <reflective>
                            <color>1.0 1.0 1.0 1.0</color>
                        </reflective>
                        <reflectivity>
                            <float>0.2</float>
                        </reflectivity>
                        <transparent opaque="A_ONE">
                            <color>1.0 1.0 1.0 1.0</color>
                        </transparent>
                        <transparency>
                            <float>1.0</float>
                        </transparency>
                    </lambert>
                </technique>
                <extra>
                    <technique profile="GOOGLEEARTH">
                        <double_sided>0</double_sided>
                    </technique>
                </extra>
            </profile_COMMON>
        </effect>
        <effect id="default_ai_0.2_sh_0.2_tr_0.0_dc_r_1.0_g_0.2_b_0.2_sc_r_1.0_g_1.0_b_1.0_ec_r_0.0_g_0.0_b_0_eff">
            <profile_COMMON>
                <technique sid="COMMON">
                    <lambert>
                        <emission>
                            <color>0.0 0.0 0.0 1.0</color>
                        </emission>
                        <diffuse>
                            <color>1.0 0.2 0.2 1.0</color>
                        </diffuse>
                        <reflective>
                            <color>1.0 1.0 1.0 1.0</color>
                        </reflective>
                        <reflectivity>
                            <float>0.2</float>
                        </reflectivity>
                        <transparent opaque="A_ONE">
                            <color>1.0 1.0 1.0 1.0</color>
                        </transparent>
                        <transparency>
                            <float>1.0</float>
                        </transparency>
                    </lambert>
                </technique>
                <extra>
                    <technique profile="GOOGLEEARTH">
                        <double_sided>0</double_sided>
                    </technique>
                </extra>
            </profile_COMMON>
        </effect>
    </library_effects>
    <library_geometries>
        <geometry id="geometry0">
            <mesh>
                <source id="geometry0-position">
                    <float_array id="geometry0-position-array" count="66">3.191 -3.992 9.014 11.174 1.228 9.014 8.38 5.48 5.734 0.0 0.0 5.734 2.2 -3.37 8.329 2.61 -3.1 8.328 0.0 0.0 0.0 2.2 -3.37 0.0 8.38 5.48 0.0 9.58 -5.72 5.819 10.4 -6.98 4.847 10.4 -6.98 0.0 9.58 -5.72 0.0 2.61 -3.1 0.0 13.88 -2.89 5.829 13.88 -2.89 0.0 6.3 -9.67 4.843 6.3 -9.67 0.0 4.38 -5.82 7.605 4.38 -5.82 0.0 3.96 -6.09 7.607 3.96 -6.09 0.0</float_array>
                    <technique_common>
                        <accessor count="22" source="#geometry0-position-array" stride="3">
                            <param name="X" type="float"/>
                            <param name="Y" type="float"/>
                            <param name="Z" type="float"/>
                        </accessor>
                    </technique_common>
                </source>
                <source id="geometry0-normal">
                    <float_array id="geometry0-normal-array" count="210">0.8357185 0.549158 6.9E-6 0.8357185 0.549158 6.9E-6 0.8357185 0.549158 6.9E-6 -0.2966017 0.4535357 0.8404361 -0.2966133 0.4535266 0.8404369 -0.2965184 0.4535001 0.8404847 -0.2964925 0.4534894 0.8404996 -0.2964436 0.4534618 0.8405317 -0.2965354 0.4534947 0.8404816 0.8381397 0.5454557 0.0 0.8381397 0.5454556 0.0 0.8381397 0.5454557 0.0 0.8381398 0.5454557 0.0 -0.8373633 -0.5466467 0.0 -0.8373633 -0.5466467 0.0 -0.8373633 -0.5466467 0.0 -0.8373633 -0.5466467 0.0 0.8357186 0.549158 0.0 0.8357186 0.549158 0.0 0.8357186 0.549158 0.0 0.8357186 0.549158 0.0 0.0 0.0 -1.0 0.0 0.0 -1.0 0.0 0.0 -1.0 0.0 0.0 -1.0 0.0 0.0 -1.0 0.0 0.0 -1.0 0.0 0.0 -1.0 0.0 0.0 -1.0 0.0 0.0 -1.0 0.0 0.0 -1.0 0.5485674 -0.8361063 0.0 0.5485674 -0.8361064 0.0 0.5485674 -0.8361063 0.0 0.5485674 -0.8361064 0.0 0.5499907 -0.8351707 0.0 0.5499907 -0.8351707 0.0 0.5499907 -0.8351707 0.0 0.5499907 -0.8351707 0.0 -0.5407575 0.8411785 0.0 -0.5407575 0.8411785 0.0 -0.5407575 0.8411785 0.0 -0.5407575 0.8411785 0.0 0.2970698 -0.4543459 0.8398329 0.2970814 -0.4543465 0.8398285 0.2970589 -0.4544041 0.8398053 0.2971414 -0.4542942 0.8398356 0.2971847 -0.4542669 0.839835 0.2969587 -0.4543426 0.839874 0.2967794 -0.4545057 0.8398491 0.2963358 -0.454746 0.8398757 -0.5473032 0.8369344 0.0 -0.5473032 0.8369344 0.0 -0.5473032 0.8369344 0.0 -0.5473032 0.8369344 0.0 -0.8381619 -0.5454215 0.0 -0.8381619 -0.5454215 0.0 -0.8381619 -0.5454215 0.0 -0.8381619 -0.5454215 0.0 -0.837052 -0.5471234 0.0 -0.837052 -0.5471234 0.0 -0.837052 -0.5471234 0.0 -0.837052 -0.5471234 0.0 -0.8381017 -0.5455136 4.94E-4 -0.8381017 -0.5455136 4.94E-4 -0.8381017 -0.5455136 4.94E-4 0.5497591 -0.8353232 0.0 0.5497591 -0.8353232 0.0 0.5497591 -0.8353232 0.0 0.5497591 -0.8353232 0.0</float_array>
                    <technique_common>
                        <accessor count="70" source="#geometry0-normal-array" stride="3">
                            <param name="X" type="float"/>
                            <param name="Y" type="float"/>
                            <param name="Z" type="float"/>
                        </accessor>
                    </technique_common>
                </source>
                <vertices id="geometry0-vertex">
                    <input semantic="POSITION" source="#geometry0-position"/>
                </vertices>
                <triangles count="30" material="default_ai_0.2_sh_0.2_tr_0.0_dc_r_0.8_g_0.8_b_0.8_sc_r_1.0_g_1.0_b_1.0_ec_r_0.0_g_0.0_b_0_tri">
                    <input offset="0" semantic="VERTEX" source="#geometry0-vertex"/>
                    <input offset="1" semantic="NORMAL" source="#geometry0-normal"/>
                    <p>14 0 2 1 1 2 9 9 10 10 11 11 9 9 11 11 12 12 4 13 3 14 6 15 4 13 6 15 7 16 2 17 14 18 15 19 2 17 15 19 8 20 11 21 17 22 21 23 11 21 21 23 19 24 11 21 19 24 13 25 12 26 11 21 13 25 15 27 12 26 13 25 8 28 15 27 13 25 8 28 13 25 7 29 8 28 7 29 6 30 10 31 16 32 17 33 10 31 17 33 11 34 5 35 4 36 7 37 5 35 7 37 13 38 20 39 18 40 19 41 20 39 19 41 21 42 3 51 2 52 8 53 3 51 8 53 6 54 18 55 5 56 13 57 18 55 13 57 19 58 16 59 20 60 21 61 16 59 21 61 17 62 5 63 18 64 0 65 14 66 9 67 12 68 14 66 12 68 15 69</p>
                </triangles>
                <triangles count="10" material="default_ai_0.2_sh_0.2_tr_0.0_dc_r_1.0_g_0.2_b_0.2_sc_r_1.0_g_1.0_b_1.0_ec_r_0.0_g_0.0_b_0_tri">
                    <input offset="0" semantic="VERTEX" source="#geometry0-vertex"/>
                    <input offset="1" semantic="NORMAL" source="#geometry0-normal"/>
                    <p>3 3 4 4 5 5 2 6 3 3 5 5 2 6 5 5 0 7 2 6 0 7 1 8 14 43 1 44 9 45 1 44 0 46 9 45 9 45 0 46 10 47 0 46 18 48 10 47 10 47 18 48 16 49 16 49 18 48 20 50</p>
                </triangles>
            </mesh>
        </geometry>
    </library_geometries>
    <library_visual_scenes>
        <visual_scene id="Building_DEBW_5221000Qaap">
            <node>
                <instance_geometry url="#geometry0">
                    <bind_material>
                        <technique_common>
                            <instance_material symbol="default_ai_0.2_sh_0.2_tr_0.0_dc_r_0.8_g_0.8_b_0.8_sc_r_1.0_g_1.0_b_1.0_ec_r_0.0_g_0.0_b_0_tri" target="#default_ai_0.2_sh_0.2_tr_0.0_dc_r_0.8_g_0.8_b_0.8_sc_r_1.0_g_1.0_b_1.0_ec_r_0.0_g_0.0_b_0_mat"/>
                            <instance_material symbol="default_ai_0.2_sh_0.2_tr_0.0_dc_r_1.0_g_0.2_b_0.2_sc_r_1.0_g_1.0_b_1.0_ec_r_0.0_g_0.0_b_0_tri" target="#default_ai_0.2_sh_0.2_tr_0.0_dc_r_1.0_g_0.2_b_0.2_sc_r_1.0_g_1.0_b_1.0_ec_r_0.0_g_0.0_b_0_mat"/>
                        </technique_common>
                    </bind_material>
                </instance_geometry>
            </node>
        </visual_scene>
    </library_visual_scenes>
    <scene>
        <instance_visual_scene url="#Building_DEBW_5221000Qaap"/>
    </scene>
</COLLADA>
