<?xml version="1.0" encoding="UTF-8" standalone="yes"?>
<COLLADA xmlns="http://www.collada.org/2005/11/COLLADASchema" version="1.4.1">
    <asset>
        <contributor>
            <authoring_tool>3D City Database Importer/Exporter, version 5.5.3; Chair of Geoinformatics, Technical University of Munich</authoring_tool>
        </contributor>
        <created>2026-05-06T15:12:02.360</created>
        <modified>2026-05-06T15:12:02.360</modified>
        <unit meter="1.0" name="meters"/>
        <up_axis>Z_UP</up_axis>
    </asset>
    <library_materials>
        <material id="default_ai_0.2_sh_0.2_tr_0.0_dc_r_1.0_g_0.2_b_0.2_sc_r_1.0_g_1.0_b_1.0_ec_r_0.0_g_0.0_b_0_mat">
            <instance_effect url="#default_ai_0.2_sh_0.2_tr_0.0_dc_r_1.0_g_0.2_b_0.2_sc_r_1.0_g_1.0_b_1.0_ec_r_0.0_g_0.0_b_0_eff"/>
        </material>
        <material id="default_ai_0.2_sh_0.2_tr_0.0_dc_r_0.8_g_0.8_b_0.8_sc_r_1.0_g_1.0_b_1.0_ec_r_0.0_g_0.0_b_0_mat">
            <instance_effect url="#default_ai_0.2_sh_0.2_tr_0.0_dc_r_0.8_g_0.8_b_0.8_sc_r_1.0_g_1.0_b_1.0_ec_r_0.0_g_0.0_b_0_eff"/>
        </material>
    </library_materials>
    <library_effects>
        <effect id="default_ai_0.2_sh_0.2_tr_0.0_dc_r_1.0_g_0.2_b_0.2_sc_r_1.0_g_1.0_b_1.0_ec_r_0.0_g_0.0_b_0_eff">
            <profile_COMMON>
                <technique sid="COMMON">
                    <lambert>
                        <emission>
                            <color>0.0 0.0 0.0 1.0</color>
                        </emission>
                        <diffuse>
                            <color>1.0 0.2 0.2 1.0</color>
                        </diffuse>
                        <reflective>
                            <color>1.0 1.0 1.0 1.0</color>
                        </reflective>
                        <reflectivity>
                            <float>0.2</float>
                        </reflectivity>
                        <transparent opaque="A_ONE">
                            <color>1.0 1.0 1.0 1.0</color>
                        </transparent>
                        <transparency>
                            <float>1.0</float>
                        </transparency>
                    </lambert>
                </technique>
                <extra>
                    <technique profile="GOOGLEEARTH">
                        <double_sided>0</double_sided>
                    </technique>
                </extra>
            </profile_COMMON>
        </effect>
        <effect id="default_ai_0.2_sh_0.2_tr_0.0_dc_r_0.8_g_0.8_b_0.8_sc_r_1.0_g_1.0_b_1.0_ec_r_0.0_g_0.0_b_0_eff">
            <profile_COMMON>
                <technique sid="COMMON">
                    <lambert>
                        <emission>
                            <color>0.0 0.0 0.0 1.0</color>
                        </emission>
                        <diffuse>
                            <color>0.8 0.8 0.8 1.0</color>
                        </diffuse>
                        <reflective>
                            <color>1.0 1.0 1.0 1.0</color>
                        </reflective>
                        <reflectivity>
                            <float>0.2</float>
                        </reflectivity>
                        <transparent opaque="A_ONE">
                            <color>1.0 1.0 1.0 1.0</color>
                        </transparent>
                        <transparency>
                            <float>1.0</float>
                        </transparency>
                    </lambert>
                </technique>
                <extra>
                    <technique profile="GOOGLEEARTH">
                        <double_sided>0</double_sided>
                    </technique>
                </extra>
            </profile_COMMON>
        </effect>
    </library_effects>
    <library_geometries>
        <geometry id="geometry0">
            <mesh>
                <source id="geometry0-position">
                    <float_array id="geometry0-position-array" count="42">-4.57 -7.54 2.912 0.93 -6.99 2.946 -2.017 -5.476 4.569 -4.636 -7.289 3.145 -2.48 -0.29 2.92 0.0 0.0 2.946 0.0 0.0 0.0 -2.48 -0.29 0.0 -6.37 -0.74 2.716 -6.37 -0.74 0.0 -4.57 -7.54 0.0 0.93 -6.99 0.0 -0.154 -0.018 3.039 -2.471 -2.066 4.569</float_array>
                    <technique_common>
                        <accessor count="14" source="#geometry0-position-array" stride="3">
                            <param name="X" type="float"/>
                            <param name="Y" type="float"/>
                            <param name="Z" type="float"/>
                        </accessor>
                    </technique_common>
                </source>
                <source id="geometry0-normal">
                    <float_array id="geometry0-normal-array" count="144">-0.4448665 -0.0592382 0.8936356 -0.4448808 -0.0592305 0.893629 -0.4448665 -0.0592382 0.8936356 -0.4448522 -0.0592459 0.8936422 -0.1149149 0.9933754 0.0 -0.1149149 0.9933754 0.0 -0.1149149 0.9933754 0.0 -0.1149149 0.9933754 0.0 -0.9667164 -0.2558443 0.0017753 -0.9667164 -0.2558443 0.0017753 -0.9667164 -0.2558443 0.0017753 0.0621843 -0.6704616 0.7393337 0.0624983 -0.670674 0.7391146 0.0621843 -0.6704616 0.7393337 0.0618703 -0.670249 0.7395527 0.5086341 0.0660819 0.8584431 0.5077281 0.0675978 0.8588613 0.5076984 0.0675709 0.8588809 0.5090865 0.0653238 0.8582329 0.5105004 0.0631033 0.8575589 -0.1162849 0.6754867 0.7281452 -0.1162437 0.6754901 0.7281486 -0.1162849 0.6754867 0.7281452 -0.1163261 0.6754834 0.7281418 0.991265 0.1318851 0.0 0.991265 0.1318851 0.0 0.991265 0.1318851 0.0 0.991265 0.1318851 0.0 0.0995038 -0.9950372 0.0 0.0995038 -0.9950372 0.0 0.0995038 -0.9950372 0.0 0.0995038 -0.9950372 0.0 -0.1161432 0.9932325 -8.45E-5 -0.1161432 0.9932325 -8.45E-5 -0.1161432 0.9932325 -8.45E-5 -0.1161441 0.9932324 0.0 -0.1161441 0.9932324 0.0 -0.1161441 0.9932324 0.0 -0.1161441 0.9932324 0.0 0.0 0.0 -1.0 0.0 0.0 -1.0 0.0 0.0 -1.0 0.0 0.0 -1.0 0.0 0.0 -1.0 -0.9667053 -0.2558925 0.0 -0.9667053 -0.2558925 0.0 -0.9667053 -0.2558925 0.0 -0.9667053 -0.2558925 0.0</float_array>
                    <technique_common>
                        <accessor count="48" source="#geometry0-normal-array" stride="3">
                            <param name="X" type="float"/>
                            <param name="Y" type="float"/>
                            <param name="Z" type="float"/>
                        </accessor>
                    </technique_common>
                </source>
                <vertices id="geometry0-vertex">
                    <input semantic="POSITION" source="#geometry0-position"/>
                </vertices>
                <triangles count="15" material="default_ai_0.2_sh_0.2_tr_0.0_dc_r_0.8_g_0.8_b_0.8_sc_r_1.0_g_1.0_b_1.0_ec_r_0.0_g_0.0_b_0_tri">
                    <input offset="0" semantic="VERTEX" source="#geometry0-vertex"/>
                    <input offset="1" semantic="NORMAL" source="#geometry0-normal"/>
                    <p>8 4 4 5 7 6 8 4 7 6 9 7 8 8 0 9 3 10 5 24 1 25 11 26 5 24 11 26 6 27 1 28 0 29 10 30 1 28 10 30 11 31 5 32 4 33 12 34 4 35 5 36 6 37 4 35 6 37 7 38 10 39 9 40 7 41 10 39 7 41 6 42 10 39 6 42 11 43 0 44 8 45 9 46 0 44 9 46 10 47</p>
                </triangles>
                <triangles count="9" material="default_ai_0.2_sh_0.2_tr_0.0_dc_r_1.0_g_0.2_b_0.2_sc_r_1.0_g_1.0_b_1.0_ec_r_0.0_g_0.0_b_0_tri">
                    <input offset="0" semantic="VERTEX" source="#geometry0-vertex"/>
                    <input offset="1" semantic="NORMAL" source="#geometry0-normal"/>
                    <p>3 0 2 1 13 2 3 0 13 2 8 3 0 11 1 12 2 13 0 11 2 13 3 14 13 15 2 16 1 17 13 15 1 17 5 18 13 15 5 18 12 19 13 20 12 21 4 22 13 20 4 22 8 23</p>
                </triangles>
            </mesh>
        </geometry>
    </library_geometries>
    <library_visual_scenes>
        <visual_scene id="Building_DEBW_5221000QhFJ">
            <node>
                <instance_geometry url="#geometry0">
                    <bind_material>
                        <technique_common>
                            <instance_material symbol="default_ai_0.2_sh_0.2_tr_0.0_dc_r_0.8_g_0.8_b_0.8_sc_r_1.0_g_1.0_b_1.0_ec_r_0.0_g_0.0_b_0_tri" target="#default_ai_0.2_sh_0.2_tr_0.0_dc_r_0.8_g_0.8_b_0.8_sc_r_1.0_g_1.0_b_1.0_ec_r_0.0_g_0.0_b_0_mat"/>
                            <instance_material symbol="default_ai_0.2_sh_0.2_tr_0.0_dc_r_1.0_g_0.2_b_0.2_sc_r_1.0_g_1.0_b_1.0_ec_r_0.0_g_0.0_b_0_tri" target="#default_ai_0.2_sh_0.2_tr_0.0_dc_r_1.0_g_0.2_b_0.2_sc_r_1.0_g_1.0_b_1.0_ec_r_0.0_g_0.0_b_0_mat"/>
                        </technique_common>
                    </bind_material>
                </instance_geometry>
            </node>
        </visual_scene>
    </library_visual_scenes>
    <scene>
        <instance_visual_scene url="#Building_DEBW_5221000QhFJ"/>
    </scene>
</COLLADA>
