<?xml version="1.0" encoding="UTF-8" standalone="yes"?>
<COLLADA xmlns="http://www.collada.org/2005/11/COLLADASchema" version="1.4.1">
    <asset>
        <contributor>
            <authoring_tool>3D City Database Importer/Exporter, version 5.5.3; Chair of Geoinformatics, Technical University of Munich</authoring_tool>
        </contributor>
        <created>2026-05-06T15:12:08.503</created>
        <modified>2026-05-06T15:12:08.503</modified>
        <unit meter="1.0" name="meters"/>
        <up_axis>Z_UP</up_axis>
    </asset>
    <library_materials>
        <material id="default_ai_0.2_sh_0.2_tr_0.0_dc_r_0.8_g_0.8_b_0.8_sc_r_1.0_g_1.0_b_1.0_ec_r_0.0_g_0.0_b_0_mat">
            <instance_effect url="#default_ai_0.2_sh_0.2_tr_0.0_dc_r_0.8_g_0.8_b_0.8_sc_r_1.0_g_1.0_b_1.0_ec_r_0.0_g_0.0_b_0_eff"/>
        </material>
        <material id="default_ai_0.2_sh_0.2_tr_0.0_dc_r_1.0_g_0.2_b_0.2_sc_r_1.0_g_1.0_b_1.0_ec_r_0.0_g_0.0_b_0_mat">
            <instance_effect url="#default_ai_0.2_sh_0.2_tr_0.0_dc_r_1.0_g_0.2_b_0.2_sc_r_1.0_g_1.0_b_1.0_ec_r_0.0_g_0.0_b_0_eff"/>
        </material>
    </library_materials>
    <library_effects>
        <effect id="default_ai_0.2_sh_0.2_tr_0.0_dc_r_0.8_g_0.8_b_0.8_sc_r_1.0_g_1.0_b_1.0_ec_r_0.0_g_0.0_b_0_eff">
            <profile_COMMON>
                <technique sid="COMMON">
                    <lambert>
                        <emission>
                            <color>0.0 0.0 0.0 1.0</color>
                        </emission>
                        <diffuse>
                            <color>0.8 0.8 0.8 1.0</color>
                        </diffuse>
                        <reflective>
                            <color>1.0 1.0 1.0 1.0</color>
                        </reflective>
                        <reflectivity>
                            <float>0.2</float>
                        </reflectivity>
                        <transparent opaque="A_ONE">
                            <color>1.0 1.0 1.0 1.0</color>
                        </transparent>
                        <transparency>
                            <float>1.0</float>
                        </transparency>
                    </lambert>
                </technique>
                <extra>
                    <technique profile="GOOGLEEARTH">
                        <double_sided>0</double_sided>
                    </technique>
                </extra>
            </profile_COMMON>
        </effect>
        <effect id="default_ai_0.2_sh_0.2_tr_0.0_dc_r_1.0_g_0.2_b_0.2_sc_r_1.0_g_1.0_b_1.0_ec_r_0.0_g_0.0_b_0_eff">
            <profile_COMMON>
                <technique sid="COMMON">
                    <lambert>
                        <emission>
                            <color>0.0 0.0 0.0 1.0</color>
                        </emission>
                        <diffuse>
                            <color>1.0 0.2 0.2 1.0</color>
                        </diffuse>
                        <reflective>
                            <color>1.0 1.0 1.0 1.0</color>
                        </reflective>
                        <reflectivity>
                            <float>0.2</float>
                        </reflectivity>
                        <transparent opaque="A_ONE">
                            <color>1.0 1.0 1.0 1.0</color>
                        </transparent>
                        <transparency>
                            <float>1.0</float>
                        </transparency>
                    </lambert>
                </technique>
                <extra>
                    <technique profile="GOOGLEEARTH">
                        <double_sided>0</double_sided>
                    </technique>
                </extra>
            </profile_COMMON>
        </effect>
    </library_effects>
    <library_geometries>
        <geometry id="geometry0">
            <mesh>
                <source id="geometry0-position">
                    <float_array id="geometry0-position-array" count="468">0.53 -0.21 3.782 0.0 0.0 3.83 0.0 0.0 0.0 0.53 -0.21 0.0 -15.897 4.949 5.258 -15.694 4.82 5.239 -15.694 4.82 0.0 -15.897 4.949 0.0 -16.951 -0.689 5.318 -17.172 -0.729 5.338 -17.172 -0.729 0.0 -16.951 -0.689 0.0 -14.349 3.605 5.114 -14.23 3.569 5.103 -14.23 3.569 0.0 -14.349 3.605 0.0 -15.329 4.51 5.205 -15.17 4.33 5.19 -15.17 4.33 0.0 -15.329 4.51 0.0 -24.43 9.47 6.034 -22.59 7.3 5.86 -22.59 7.3 0.0 -24.43 9.47 0.0 -17.395 -0.75 5.357 -17.62 -0.75 5.377 -17.62 -0.75 0.0 -17.395 -0.75 0.0 -11.0 -0.46 4.796 -11.05 -1.26 4.796 -11.05 -1.26 0.0 -11.0 -0.46 0.0 -32.3 7.7 6.717 -30.16 9.99 6.542 -30.16 9.99 0.0 -32.3 7.7 0.0 -0.32 2.97 3.875 0.24 2.62 3.824 0.24 2.62 0.0 -0.32 2.97 0.0 13.34 2.54 2.671 13.07 -2.02 2.668 13.07 -2.02 0.0 13.34 2.54 0.0 -14.108 3.543 5.092 -14.108 3.543 0.0 -0.44 -0.29 3.867 -0.44 -0.29 0.0 -14.962 4.02 5.17 -14.876 3.93 5.162 -14.876 3.93 0.0 -14.962 4.02 0.0 -13.84 0.66 5.052 -14.031 0.671 5.069 -14.031 0.671 0.0 -13.84 0.66 0.0 -14.782 3.848 5.153 -14.782 3.848 0.0 -10.66 0.7 4.773 -10.79 -0.47 4.777 -10.79 -0.47 0.0 -10.66 0.7 0.0 -15.142 0.417 5.165 -15.31 0.324 5.18 -15.31 0.324 0.0 -15.142 0.417 0.0 -22.51 6.82 5.85 -16.8 5.26 5.339 -16.8 5.26 0.0 -22.51 6.82 0.0 4.96 -0.75 3.39 1.88 -0.28 3.663 1.88 -0.28 0.0 4.96 -0.75 0.0 -16.564 5.214 5.318 -16.564 5.214 0.0 -14.223 0.666 5.086 -14.223 0.666 0.0 -14.682 3.774 5.144 -14.576 3.708 5.134 -14.576 3.708 0.0 -14.682 3.774 0.0 -14.602 0.611 5.119 -14.787 0.561 5.135 -14.787 0.561 0.0 -14.602 0.611 0.0 -15.946 -0.208 5.233 -16.128 -0.34 5.248 -16.128 -0.34 0.0 -15.946 -0.208 0.0 -14.465 3.652 5.124 -14.465 3.652 0.0 -14.414 0.646 5.103 -14.414 0.646 0.0 -13.85 -1.09 0.0 -13.81 -0.42 0.0 -13.92 -0.41 0.0 -14.967 0.496 0.0 -15.469 0.218 0.0 -15.62 0.1 0.0 -15.776 -0.061 0.0 -16.321 -0.454 0.0 -16.524 -0.551 0.0 -16.734 -0.63 0.0 -19.96 -0.92 0.0 -23.23 -1.58 0.0 -25.36 -3.67 0.0 -28.35 -4.42 0.0 -31.11 -3.41 0.0 -32.85 -0.82 0.0 -27.29 10.74 0.0 -16.334 5.147 0.0 -16.111 5.058 0.0 -15.504 4.673 0.0 -15.11 4.221 0.0 -15.04 4.118 0.0 -13.985 3.527 0.0 -13.86 3.522 0.0 -13.735 3.527 0.0 -13.612 3.543 0.0 -13.49 3.57 0.0 -13.43 4.62 0.0 -10.47 4.44 0.0 -10.53 3.31 0.0 1.73 -0.25 0.0 -27.29 10.74 6.293 -13.92 -0.41 5.053 -13.985 3.527 5.081 -16.734 -0.63 5.3 -15.776 -0.061 5.219 -15.504 4.673 5.222 -19.96 -0.92 5.582 -23.23 -1.58 5.866 -15.469 0.218 5.193 -25.36 -3.67 6.042 -28.35 -4.42 6.3 -15.62 0.1 5.206 -16.111 5.058 5.277 -16.321 -0.454 5.264 -16.524 -0.551 5.282 -31.11 -3.41 6.549 -32.85 -0.82 6.717 -13.86 3.522 5.07 -13.85 -1.09 5.043 -16.334 5.147 5.297 1.73 -0.25 3.677 -10.53 3.31 4.776 -10.47 4.44 4.777 -13.43 4.62 5.039 -13.49 3.57 5.038 -13.612 3.543 5.049 -13.735 3.527 5.059 -15.04 4.118 5.178 -15.11 4.221 5.184 -14.967 0.496 5.151 -13.81 -0.42 5.043</float_array>
                    <technique_common>
                        <accessor count="156" source="#geometry0-position-array" stride="3">
                            <param name="X" type="float"/>
                            <param name="Y" type="float"/>
                            <param name="Z" type="float"/>
                        </accessor>
                    </technique_common>
                </source>
                <source id="geometry0-normal">
                    <float_array id="geometry0-normal-array" count="1404">0.611921 0.7909189 0.0 0.611921 0.7909189 0.0 0.611921 0.7909189 0.0 0.611921 0.7909189 0.0 0.9980525 -0.0623785 0.0 0.9980525 -0.0623785 0.0 0.9980525 -0.0623785 0.0 0.9980525 -0.0623785 0.0 0.178101 -0.9840122 0.0 0.178101 -0.9840122 0.0 0.178101 -0.9840122 0.0 0.178101 -0.9840122 0.0 0.339644 -0.9405541 0.0 0.339644 -0.9405541 0.0 0.339644 -0.9405541 0.0 0.339644 -0.9405541 0.0 0.7181702 -0.6958674 0.0 0.7181702 -0.6958674 0.0 0.7181702 -0.6958674 0.0 0.7181702 -0.6958675 0.0 0.5299991 0.8479982 0.0 0.5299991 0.8479982 0.0 0.5299991 0.8479982 0.0 0.5299991 0.8479982 0.0 0.9938837 -0.1104316 0.0 0.9938837 -0.1104316 0.0 0.9938837 -0.1104316 0.0 0.9938837 -0.1104316 0.0 0.4114468 -0.9114338 0.0 0.4114468 -0.9114338 0.0 0.4114468 -0.9114338 0.0 0.4114468 -0.9114338 0.0 0.039967 0.999201 0.0 0.039967 0.999201 0.0 0.039967 0.999201 0.0 0.039967 0.999201 0.0 -0.9983714 0.0570493 0.0 -0.9983714 0.0570493 0.0 -0.9983714 0.0570493 0.0 -0.9983714 0.0570493 0.0 0.5085812 -0.8610141 0.0 0.5085812 -0.8610141 0.0 0.5085812 -0.8610141 0.0 0.5085812 -0.8610141 0.0 -0.1547113 -0.9879597 0.0 -0.1547114 -0.9879597 0.0 -0.1547113 -0.9879597 0.0 -0.1547113 -0.9879597 0.0 0.2609098 -0.9653631 0.0 0.2609098 -0.9653631 0.0 0.2609098 -0.9653631 0.0 0.2609098 -0.9653631 0.0 0.1978452 -0.9802333 0.0 0.1978452 -0.9802333 0.0 0.1978452 -0.9802333 0.0 0.1978453 -0.9802333 0.0 0.0606986 0.9981562 0.0 0.0606986 0.9981562 0.0 0.0606986 0.9981562 0.0 0.0606986 0.9981561 0.0 0.3755187 0.9268148 0.0 0.3755187 0.9268148 0.0 0.3755187 0.9268148 0.0 0.3755187 0.9268149 0.0 -0.2528336 0.9675097 0.0 -0.2528337 0.9675097 0.0 -0.2528336 0.9675097 0.0 -0.2528336 0.9675097 0.0 0.1913149 0.9815287 0.0 0.1913149 0.9815287 0.0 0.1913149 0.9815287 0.0 0.1913149 0.9815287 0.0 0.1041426 -0.9945624 0.0 0.1041426 -0.9945624 0.0 0.1041426 -0.9945624 0.0 0.1041426 -0.9945624 0.0 0.0061068 0.9999813 0.0 0.0061068 0.9999813 0.0 0.0061068 0.9999813 0.0 0.0061068 0.9999813 0.0 0.28956 0.9571599 0.0 0.28956 0.9571599 0.0 0.28956 0.9571599 0.0 0.28956 0.9571599 0.0 0.2796814 0.9600929 0.0 0.2796814 0.9600929 0.0 0.2796814 0.9600929 0.0 0.2796814 0.9600928 0.0 -0.3683644 -0.9296815 0.0 -0.3683644 -0.9296815 0.0 -0.3683644 -0.9296815 0.0 -0.3683644 -0.9296815 0.0 -0.0606027 -0.998162 0.0 -0.0606027 -0.998162 0.0 -0.0606027 -0.998162 0.0 -0.0606027 -0.998162 0.0 0.4538645 0.8910707 0.0 0.4538645 0.8910707 0.0 0.4538645 0.8910707 0.0 0.4538645 0.8910707 0.0 0.0937559 -0.9955952 0.0 0.0937559 -0.9955952 0.0 0.0937559 -0.9955952 0.0 0.0937559 -0.9955952 0.0 0.7229924 0.690856 0.0 0.7229924 0.690856 0.0 0.7229924 0.690856 0.0 0.7229925 0.690856 0.0 0.8760442 0.4822308 0.0 0.8760442 0.4822308 0.0 0.8760442 0.4822308 0.0 0.8760442 0.4822308 0.0 0.9982517 -0.0591071 0.0 0.9982516 -0.0591071 0.0 0.9982517 -0.0591071 0.0 0.9982517 -0.0591071 0.0 0.587113 -0.809505 0.0 0.587113 -0.809505 0.0 0.587113 -0.809505 0.0 0.587113 -0.8095051 0.0 0.2623638 -0.964969 0.0 0.2623637 -0.964969 0.0 0.2623638 -0.964969 0.0 0.2623638 -0.964969 0.0 -0.0905359 -0.9958932 0.0 -0.0905359 -0.9958932 0.0 -0.0905359 -0.9958932 0.0 -0.0905359 -0.9958932 0.0 0.3521015 -0.9359618 0.0 0.3521014 -0.9359618 0.0 0.3521015 -0.9359618 0.0 0.3521015 -0.9359618 0.0 0.9863939 0.1643988 0.0 0.9863939 0.1643988 0.0 0.9863939 0.1643988 0.0 0.9863939 0.1643988 0.0 0.5547016 -0.8320494 0.0 0.5547016 -0.8320494 0.0 0.5547016 -0.8320494 0.0 0.5547016 -0.8320494 0.0 -0.0333148 -0.999445 0.0 -0.0333148 -0.999445 0.0 -0.0333148 -0.999445 0.0 -0.0333148 -0.9994449 0.0 0.4058417 0.9139434 0.0 0.4058417 0.9139434 0.0 0.4058417 0.9139434 0.0 0.4058418 0.9139434 0.0 0.3706722 0.9287637 0.0 0.3706722 0.9287637 0.0 0.3706722 0.9287637 0.0 0.3706722 0.9287637 0.0 0.0724587 -0.9973714 0.0 0.0724587 -0.9973714 0.0 0.0724587 -0.9973714 0.0 0.0724587 -0.9973714 0.0 0.4843154 -0.8748935 0.0 0.4843154 -0.8748935 0.0 0.4843154 -0.8748935 0.0 0.4843154 -0.8748935 0.0 0.6157452 -0.7879454 0.0 0.6157452 -0.7879454 0.0 0.6157452 -0.7879454 0.0 0.6157452 -0.7879454 0.0 0.7003728 -0.7137773 0.0 0.7003728 -0.7137773 0.0 0.7003728 -0.7137773 0.0 0.7003728 -0.7137773 0.0 0.5948458 0.8038398 0.0 0.5948458 0.8038398 0.0 0.5948458 0.8038398 0.0 0.5948458 0.8038398 0.0 0.6815737 0.7317494 0.0 0.6815737 0.7317494 0.0 0.6815737 0.7317494 0.0 0.6815737 0.7317494 0.0 0.0332822 0.999446 0.0 0.0332822 0.999446 0.0 0.0332822 0.999446 0.0 0.0332822 0.999446 0.0 0.2084346 0.9780363 0.0 0.2084346 0.9780363 0.0 0.2084346 0.9780363 0.0 0.2084346 0.9780363 0.0 0.0260329 -0.9996611 0.0 0.0260329 -0.9996611 0.0 0.0260329 -0.9996611 0.0 0.0260329 -0.9996611 0.0 0.4504278 0.8928128 0.0 0.4504278 0.8928128 0.0 0.4504278 0.8928128 0.0 0.4504278 0.8928128 0.0 -0.0475651 -0.9988682 0.0 -0.0475651 -0.9988682 0.0 -0.0475651 -0.9988682 0.0 -0.0475651 -0.9988682 0.0 0.7824241 0.6227459 0.0 0.7824242 0.6227459 0.0 0.7824241 0.6227459 0.0 0.7824241 0.6227459 0.0 0.9985933 -0.0530222 0.0 0.9985933 -0.0530222 0.0 0.9985933 -0.0530222 0.0 0.9985934 -0.0530222 0.0 -0.9979229 0.0644198 0.0 -0.9979229 0.0644198 0.0 -0.9979229 0.0644198 0.0 -0.9979229 0.0644198 0.0 0.2432989 -0.9699514 0.0 0.2432989 -0.9699514 0.0 0.2432989 -0.9699514 0.0 0.2432989 -0.9699514 0.0 0.2635462 0.9646468 0.0 0.2635462 0.9646468 0.0 0.2635462 0.9646468 0.0 0.2635462 0.9646468 0.0 0.0880294 -0.0078102 0.9960873 0.0877245 -0.0060065 0.9961267 0.0881443 -0.0039802 0.9960998 0.0883275 -0.0059938 0.9960734 0.089796 -0.0065723 0.9959385 0.0874749 -0.0055391 0.9961513 0.0875422 -0.0054714 0.9961458 0.0883613 -0.0083958 0.9960531 0.0884765 -0.0085961 0.9960412 0.0875414 -0.0118026 0.9960909 0.0878129 -0.0093699 0.9960929 0.0789391 0.0038355 0.9968721 0.0770536 0.0058433 0.9970098 0.0796998 0.0041742 0.9968102 0.0819579 5.099E-4 0.9966357 0.0901811 -0.0098483 0.9958767 0.0814547 0.0033934 0.9966713 0.0853022 -0.003443 0.9963493 0.0841944 1.351E-4 0.9964494 0.0956071 -0.0191514 0.995235 0.0791931 0.0128209 0.9967769 0.0888553 -0.0076717 0.996015 0.0665921 0.0352825 0.9971563 0.0747917 0.0159771 0.9970712 0.0880896 -0.0060963 0.9960939 0.0871163 -0.0036992 0.9961913 0.0866295 -0.0022333 0.9962381 0.0839713 0.0074323 0.9964404 0.0874995 -0.0052042 0.996151 0.0879235 -0.0096108 0.9960809 0.0874595 -0.0054445 0.9961532 0.0872097 -0.0049904 0.9961775 0.0875868 -0.0053447 0.9961426 0.0867558 0.0058786 0.9962122 0.0858221 0.0174502 0.9961576 0.0862016 0.0159964 0.9961494 0.0875517 -0.0063569 0.9961398 0.0878692 -0.0058791 0.9961147 0.0880251 -0.006138 0.9960994 0.0877021 -0.0055694 0.9961312 0.0876779 -0.0058306 0.9961318 0.0877133 -0.0056041 0.99613 0.0879888 -0.0036148 0.9961149 0.0869758 -0.010047 0.9961598 0.0869152 -0.0105209 0.9961601 0.0883857 -0.00132 0.9960855 0.0878118 -0.0047149 0.9961259 0.0877336 -0.0053389 0.9961296 0.0876233 -0.0057823 0.9961369 0.0872166 -0.0081612 0.996156 0.0875963 -0.0061057 0.9961374 0.0884297 -0.001979 0.9960805 0.0877822 -0.0050027 0.9961271 0.0870525 -0.0086287 0.9961663 0.0873426 -0.007204 0.9961523 0.0876971 -0.0056261 0.9961312 0.0873822 -0.0069905 0.9961503 0.0872406 -0.007682 0.9961577 0.0906075 0.0073074 0.9958599 0.086153 -0.0123043 0.996206 0.0869067 -0.0098626 0.9961676 0.091396 0.0092441 0.9957717 0.0882205 -0.0035018 0.9960949 0.0876219 -0.0058971 0.9961364 0.0858014 -0.0130087 0.9962274 0.0866353 -0.0099002 0.996191 0.0881685 -0.0040186 0.9960976 0.0877461 -0.0057517 0.9961262 0.0878073 -0.0059661 0.9961196 0.0876872 -0.0056688 0.9961319 0.0878582 -0.0058567 0.9961158 0.08748 -0.0057496 0.9961497 0.089716 -0.0041248 0.9959589 0.0899351 -0.0040867 0.9959393 0.086624 -0.0069534 0.9962168 0.0867008 -0.0069646 0.9962101 0.0877509 -0.0055343 0.9961271 0.0876394 -0.0058445 0.9961352 0.7494729 0.6620349 0.0 0.749473 0.6620349 0.0 0.7494729 0.6620349 0.0 0.7494729 0.6620349 0.0 0.7627193 0.6467297 0.0 0.7627193 0.6467297 0.0 0.7627193 0.6467297 0.0 0.7627193 0.6467298 0.0 0.4311392 -0.9022855 0.0 0.4311391 -0.9022855 0.0 0.4311392 -0.9022855 0.0 0.4311392 -0.9022855 0.0 -0.9972166 0.0745582 0.0 -0.9972166 0.0745582 0.0 -0.9972166 0.0745582 0.0 -0.9972167 0.0745582 0.0 -0.0574962 -0.9983457 0.0 -0.0574962 -0.9983457 0.0 -0.0574962 -0.9983457 0.0 -0.0574962 -0.9983457 0.0 0.5503133 -0.8349582 0.0 0.5503134 -0.8349582 0.0 0.5503133 -0.8349582 0.0 0.5503133 -0.8349582 0.0 -0.1961162 -0.9805807 0.0 -0.1961162 -0.9805807 0.0 -0.1961162 -0.9805807 0.0 -0.1961162 -0.9805807 0.0 0.8270774 0.5620881 0.0 0.8270774 0.562088 0.0 0.8270774 0.5620881 0.0 0.8270773 0.5620881 0.0 0.5285586 0.8488969 0.0 0.5285586 0.8488969 0.0 0.5285586 0.8488969 0.0 0.5285586 0.8488969 0.0 0.654083 -0.7564228 0.0 0.654083 -0.7564228 0.0 0.654083 -0.7564228 0.0 0.654083 -0.7564228 0.0 -0.7306308 0.6827728 0.0 -0.7306308 0.6827728 0.0 -0.7306308 0.6827728 0.0 -0.7306308 0.6827728 0.0 0.183025 -0.9831083 0.0 0.183025 -0.9831083 0.0 0.183025 -0.9831083 0.0 0.183025 -0.9831083 0.0 0.5363364 0.8440043 0.0 0.5363364 0.8440043 0.0 0.5363364 0.8440043 0.0 0.5363364 0.8440043 0.0 -0.2160814 0.9763753 0.0 -0.2160814 0.9763753 0.0 -0.2160814 0.9763753 0.0 -0.2160814 0.9763753 0.0 -0.8300731 -0.5576546 0.0 -0.8300731 -0.5576546 0.0 -0.8300731 -0.5576546 0.0 -0.8300731 -0.5576546 0.0 0.0 -1.0 0.0 0.0 -1.0 0.0 0.0 -1.0 0.0 0.0 -1.0 0.0 -0.0964176 -0.995341 0.0 -0.0964176 -0.995341 0.0 -0.0964176 -0.995341 0.0 -0.0964176 -0.9953409 0.0 -0.1508512 -0.9885565 0.0 -0.1508512 -0.9885565 0.0 -0.1508512 -0.9885565 0.0 -0.1508512 -0.9885564 0.0 -0.3436547 -0.9390961 0.0 -0.3436547 -0.9390962 0.0 -0.3436547 -0.9390961 0.0 -0.3436547 -0.9390961 0.0 0.1289946 0.9916453 0.0 0.1289946 0.9916453 0.0 0.1289946 0.9916453 0.0 0.1289946 0.9916453 0.0 0.6573656 0.7535719 0.0 0.6573656 0.7535718 0.0 0.6573656 0.7535719 0.0 0.6573656 0.7535719 0.0 0.0 0.0 -1.0 0.0 0.0 -1.0 0.0 0.0 -1.0 0.0 0.0 -1.0 0.0 0.0 -1.0 0.0 0.0 -1.0 0.0 0.0 -1.0 0.0 0.0 -1.0 0.0 0.0 -1.0 0.0 0.0 -1.0 0.0 0.0 -1.0 0.0 0.0 -1.0 0.0 0.0 -1.0 0.0 0.0 -1.0 0.0 0.0 -1.0 0.0 0.0 -1.0 0.0 0.0 -1.0 0.0 0.0 -1.0 0.0 0.0 -1.0 0.0 0.0 -1.0 0.0 0.0 -1.0 0.0 0.0 -1.0 0.0 0.0 -1.0 0.0 0.0 -1.0 0.0 0.0 -1.0 0.0 0.0 -1.0 0.0 0.0 -1.0 0.0 0.0 -1.0 0.0 0.0 -1.0 0.0 0.0 -1.0 0.0 0.0 -1.0 0.0 0.0 -1.0 0.0 0.0 -1.0 0.0 0.0 -1.0 0.0 0.0 -1.0 0.0 0.0 -1.0 0.0 0.0 -1.0 0.0 0.0 -1.0 0.0 0.0 -1.0 0.0 0.0 -1.0 0.0 0.0 -1.0 0.0 0.0 -1.0 0.0 0.0 -1.0 0.0 0.0 -1.0 0.0 0.0 -1.0 0.0 0.0 -1.0 0.0 0.0 -1.0 0.0 0.0 -1.0 0.0 0.0 -1.0 0.0 0.0 -1.0 0.0 0.0 -1.0 0.0 0.0 -1.0 0.0 0.0 -1.0 0.0 0.0 -1.0 0.0 0.0 -1.0 0.0 0.0 -1.0 0.0 0.0 -1.0 0.0 0.0 -1.0 0.0 0.0 -1.0 0.0 0.0 -1.0 0.0 0.0 -1.0 0.0 0.0 -1.0 0.0 0.0 -1.0 0.0 0.0 -1.0 0.0 0.0 -1.0 0.0 0.0 -1.0 0.0 0.0 -1.0 0.0 0.0 -1.0 0.0 0.0 -1.0 0.0 0.0 -1.0 0.0 0.0 -1.0 0.0 0.0 -1.0 0.0 0.0 -1.0 0.0 0.0 -1.0 0.0 0.0 -1.0 0.0 0.0 -1.0 0.0 0.0 -1.0 0.0 0.0 -1.0 -0.9982226 0.0595953 0.0 -0.9982226 0.0595953 0.0 -0.9982226 0.0595953 0.0 -0.9982226 0.0595953 0.0 -0.1289956 0.9916452 0.0 -0.1289956 0.9916452 0.0 -0.1289956 0.9916452 0.0 -0.1289956 0.9916452 0.0 -0.039967 0.999201 0.0 -0.039967 0.999201 0.0 -0.039967 0.999201 0.0 -0.039967 0.999201 0.0</float_array>
                    <technique_common>
                        <accessor count="468" source="#geometry0-normal-array" stride="3">
                            <param name="X" type="float"/>
                            <param name="Y" type="float"/>
                            <param name="Z" type="float"/>
                        </accessor>
                    </technique_common>
                </source>
                <vertices id="geometry0-vertex">
                    <input semantic="POSITION" source="#geometry0-position"/>
                </vertices>
                <triangles count="232" material="default_ai_0.2_sh_0.2_tr_0.0_dc_r_0.8_g_0.8_b_0.8_sc_r_1.0_g_1.0_b_1.0_ec_r_0.0_g_0.0_b_0_tri">
                    <input offset="0" semantic="VERTEX" source="#geometry0-vertex"/>
                    <input offset="1" semantic="NORMAL" source="#geometry0-normal"/>
                    <p>5 0 130 1 113 2 5 0 113 2 6 3 28 4 29 5 30 6 28 4 30 6 31 7 8 8 9 9 10 10 8 8 10 10 11 11 83 12 154 13 97 14 83 12 97 14 84 15 136 16 129 17 100 18 136 16 100 18 99 19 36 20 37 21 38 22 36 20 38 22 39 23 58 24 59 25 60 26 58 24 60 26 61 27 154 28 62 29 65 30 154 28 65 30 97 31 127 32 142 33 117 34 127 32 117 34 116 35 149 36 148 37 121 38 149 36 121 38 120 39 87 40 138 41 101 42 87 40 101 42 88 43 41 44 70 45 73 46 41 44 73 46 42 47 82 48 83 49 84 50 82 48 84 50 85 51 131 52 132 53 105 54 131 52 105 54 104 55 148 56 147 57 122 58 148 56 122 58 121 59 90 60 12 61 15 62 90 60 15 62 91 63 33 64 125 65 110 66 33 64 110 66 34 67 67 68 74 69 75 70 67 68 75 70 68 71 76 72 92 73 93 74 76 72 93 74 77 75 37 76 40 77 43 78 37 76 43 78 38 79 12 80 13 81 14 82 12 80 14 82 15 83 74 84 144 85 111 86 74 84 111 86 75 87 0 88 1 89 2 90 0 88 2 90 3 91 29 92 143 93 94 94 29 92 94 94 30 95 137 96 4 97 7 98 137 96 7 98 112 99 9 100 24 101 27 102 9 100 27 102 10 103 48 104 49 105 50 106 48 104 50 106 51 107 17 108 153 109 114 110 17 108 114 110 18 111 40 112 41 113 42 114 40 112 42 114 43 115 86 116 87 117 88 118 86 116 88 118 89 119 128 120 8 121 11 122 128 120 11 122 103 123 155 124 126 125 96 126 155 124 96 126 95 127 139 128 128 129 103 130 139 128 103 130 102 131 21 132 66 133 69 134 21 132 69 134 22 135 63 136 133 137 98 138 63 136 98 138 64 139 145 140 0 141 3 142 145 140 3 142 124 143 125 144 20 145 23 146 125 144 23 146 110 147 144 148 137 149 112 150 144 148 112 150 111 151 25 152 131 153 104 154 25 152 104 154 26 155 62 156 63 157 64 158 62 156 64 158 65 159 133 160 136 161 99 162 133 160 99 162 98 163 132 164 134 165 106 166 132 164 106 166 105 167 56 168 78 169 81 170 56 168 81 170 57 171 130 172 16 173 19 174 130 172 19 174 113 175 146 176 36 177 39 178 146 176 39 178 123 179 13 180 44 181 45 182 13 180 45 182 14 183 53 184 76 185 77 186 53 184 77 186 54 187 79 188 90 189 91 190 79 188 91 190 80 191 59 192 28 193 31 194 59 192 31 194 60 195 152 196 48 197 51 198 152 196 51 198 115 199 147 200 146 201 123 202 147 200 123 202 122 203 141 204 32 205 35 206 141 204 35 206 109 207 134 208 135 209 107 210 134 208 107 210 106 211 66 212 67 213 68 214 66 212 68 214 69 215 16 294 17 295 18 296 16 294 18 296 19 297 20 298 21 299 22 300 20 298 22 300 23 301 138 302 139 303 102 304 138 302 102 304 101 305 126 306 52 307 55 308 126 306 55 308 96 309 52 310 53 311 54 312 52 310 54 312 55 313 1 314 46 315 47 316 1 314 47 316 2 317 71 318 145 319 124 320 71 318 124 320 72 321 153 322 152 323 115 324 153 322 115 324 114 325 78 326 79 327 80 328 78 326 80 328 81 329 129 330 86 331 89 332 129 330 89 332 100 333 32 334 33 335 34 336 32 334 34 336 35 337 92 338 82 339 85 340 92 338 85 340 93 341 4 342 5 343 6 344 4 342 6 344 7 345 150 346 149 347 120 348 150 346 120 348 119 349 140 350 141 351 109 352 140 350 109 352 108 353 24 354 25 355 26 356 24 354 26 356 27 357 46 358 58 359 61 360 46 358 61 360 47 361 70 362 71 363 72 364 70 362 72 364 73 365 135 366 140 367 108 368 135 366 108 368 107 369 44 370 127 371 116 372 44 370 116 372 45 373 49 374 56 375 57 376 49 374 57 376 50 377 47 378 61 379 2 380 60 381 31 382 61 379 30 383 94 384 31 382 31 382 94 384 61 379 94 384 95 385 61 379 95 385 96 386 61 379 96 386 55 387 61 379 55 387 54 388 61 379 100 389 89 390 99 391 89 390 88 392 99 391 88 392 101 393 99 391 101 393 102 394 99 391 99 391 102 394 98 395 102 394 103 396 98 395 103 396 11 397 98 395 98 395 11 397 64 398 11 397 10 399 64 398 10 399 27 400 64 398 64 398 27 400 65 401 27 400 26 402 65 401 26 402 104 403 65 401 65 401 104 403 97 404 97 404 104 403 84 405 104 403 105 406 84 405 84 405 105 406 85 407 106 408 107 409 105 406 107 409 108 410 105 406 105 406 108 410 85 407 108 410 109 411 85 407 85 407 109 411 93 412 93 412 109 411 77 413 109 411 35 414 77 413 77 413 35 414 54 388 54 388 35 414 61 379 61 379 35 414 2 380 34 415 110 416 35 414 110 416 23 417 35 414 23 417 22 418 35 414 22 418 69 419 35 414 69 419 68 420 35 414 68 420 75 421 35 414 75 421 111 422 35 414 111 422 112 423 35 414 112 423 7 424 35 414 7 424 6 425 35 414 6 425 113 426 35 414 113 426 19 427 35 414 19 427 18 428 35 414 18 428 114 429 35 414 114 429 115 430 35 414 115 430 51 431 35 414 51 431 50 432 35 414 50 432 57 433 35 414 57 433 81 434 35 414 81 434 80 435 35 414 80 435 91 436 35 414 91 436 15 437 35 414 15 437 14 438 35 414 35 414 14 438 2 380 14 438 45 439 2 380 45 439 116 440 2 380 116 440 117 441 2 380 117 441 118 442 2 380 118 442 119 443 2 380 119 443 120 444 2 380 121 445 122 446 120 444 122 446 123 447 120 444 120 444 123 447 2 380 123 447 39 448 2 380 2 380 39 448 3 449 3 449 39 448 124 450 124 450 39 448 72 451 72 451 39 448 73 452 39 448 38 453 73 452 73 452 38 453 42 454 42 454 38 453 43 455 143 456 155 457 95 458 143 456 95 458 94 459 151 460 150 461 119 462 151 460 119 462 118 463 142 464 151 465 118 466 142 464 118 466 117 467</p>
                </triangles>
                <triangles count="76" material="default_ai_0.2_sh_0.2_tr_0.0_dc_r_1.0_g_0.2_b_0.2_sc_r_1.0_g_1.0_b_1.0_ec_r_0.0_g_0.0_b_0_tri">
                    <input offset="0" semantic="VERTEX" source="#geometry0-vertex"/>
                    <input offset="1" semantic="NORMAL" source="#geometry0-normal"/>
                    <p>58 216 46 217 1 218 28 219 59 220 58 216 143 221 29 222 28 219 143 221 28 219 58 216 155 223 143 221 58 216 126 224 155 223 58 216 52 225 126 224 58 216 53 226 52 225 58 216 86 227 129 228 136 229 87 230 86 227 136 229 138 231 87 230 136 229 139 232 138 231 136 229 139 232 136 229 133 233 128 234 139 232 133 233 8 235 128 234 133 233 8 235 133 233 63 236 9 237 8 235 63 236 24 238 9 237 63 236 24 238 63 236 62 239 25 240 24 238 62 239 131 241 25 240 62 239 131 241 62 239 154 242 131 241 154 242 83 243 132 244 131 241 83 243 132 244 83 243 82 245 135 246 134 247 132 244 140 248 135 246 132 244 140 248 132 244 82 245 141 249 140 248 82 245 141 249 82 245 92 250 141 249 92 250 76 251 32 252 141 249 76 251 32 252 76 251 53 226 32 252 53 226 58 216 32 252 58 216 1 218 125 253 33 254 32 252 20 255 125 253 32 252 21 256 20 255 32 252 66 257 21 256 32 252 67 258 66 257 32 252 74 259 67 258 32 252 144 260 74 259 32 252 137 261 144 260 32 252 4 262 137 261 32 252 5 263 4 262 32 252 130 264 5 263 32 252 16 265 130 264 32 252 17 266 16 265 32 252 153 267 17 266 32 252 152 268 153 267 32 252 48 269 152 268 32 252 49 270 48 269 32 252 56 271 49 270 32 252 78 272 56 271 32 252 79 273 78 272 32 252 90 274 79 273 32 252 12 275 90 274 32 252 13 276 12 275 32 252 13 276 32 252 1 218 44 277 13 276 1 218 127 278 44 277 1 218 142 279 127 278 1 218 151 280 142 279 1 218 150 281 151 280 1 218 149 282 150 281 1 218 147 283 148 284 149 282 146 285 147 283 149 282 146 285 149 282 1 218 36 286 146 285 1 218 36 286 1 218 0 287 36 286 0 287 145 288 36 286 145 288 71 289 36 286 71 289 70 290 37 291 36 286 70 290 37 291 70 290 41 292 37 291 41 292 40 293</p>
                </triangles>
            </mesh>
        </geometry>
    </library_geometries>
    <library_visual_scenes>
        <visual_scene id="Building_DEBW_5221000QyIu">
            <node>
                <instance_geometry url="#geometry0">
                    <bind_material>
                        <technique_common>
                            <instance_material symbol="default_ai_0.2_sh_0.2_tr_0.0_dc_r_0.8_g_0.8_b_0.8_sc_r_1.0_g_1.0_b_1.0_ec_r_0.0_g_0.0_b_0_tri" target="#default_ai_0.2_sh_0.2_tr_0.0_dc_r_0.8_g_0.8_b_0.8_sc_r_1.0_g_1.0_b_1.0_ec_r_0.0_g_0.0_b_0_mat"/>
                            <instance_material symbol="default_ai_0.2_sh_0.2_tr_0.0_dc_r_1.0_g_0.2_b_0.2_sc_r_1.0_g_1.0_b_1.0_ec_r_0.0_g_0.0_b_0_tri" target="#default_ai_0.2_sh_0.2_tr_0.0_dc_r_1.0_g_0.2_b_0.2_sc_r_1.0_g_1.0_b_1.0_ec_r_0.0_g_0.0_b_0_mat"/>
                        </technique_common>
                    </bind_material>
                </instance_geometry>
            </node>
        </visual_scene>
    </library_visual_scenes>
    <scene>
        <instance_visual_scene url="#Building_DEBW_5221000QyIu"/>
    </scene>
</COLLADA>
