<?xml version="1.0" encoding="UTF-8" standalone="yes"?>
<COLLADA xmlns="http://www.collada.org/2005/11/COLLADASchema" version="1.4.1">
    <asset>
        <contributor>
            <authoring_tool>3D City Database Importer/Exporter, version 5.5.3; Chair of Geoinformatics, Technical University of Munich</authoring_tool>
        </contributor>
        <created>2026-05-06T15:12:14.774</created>
        <modified>2026-05-06T15:12:14.774</modified>
        <unit meter="1.0" name="meters"/>
        <up_axis>Z_UP</up_axis>
    </asset>
    <library_materials>
        <material id="default_ai_0.2_sh_0.2_tr_0.0_dc_r_0.8_g_0.8_b_0.8_sc_r_1.0_g_1.0_b_1.0_ec_r_0.0_g_0.0_b_0_mat">
            <instance_effect url="#default_ai_0.2_sh_0.2_tr_0.0_dc_r_0.8_g_0.8_b_0.8_sc_r_1.0_g_1.0_b_1.0_ec_r_0.0_g_0.0_b_0_eff"/>
        </material>
        <material id="default_ai_0.2_sh_0.2_tr_0.0_dc_r_1.0_g_0.2_b_0.2_sc_r_1.0_g_1.0_b_1.0_ec_r_0.0_g_0.0_b_0_mat">
            <instance_effect url="#default_ai_0.2_sh_0.2_tr_0.0_dc_r_1.0_g_0.2_b_0.2_sc_r_1.0_g_1.0_b_1.0_ec_r_0.0_g_0.0_b_0_eff"/>
        </material>
    </library_materials>
    <library_effects>
        <effect id="default_ai_0.2_sh_0.2_tr_0.0_dc_r_0.8_g_0.8_b_0.8_sc_r_1.0_g_1.0_b_1.0_ec_r_0.0_g_0.0_b_0_eff">
            <profile_COMMON>
                <technique sid="COMMON">
                    <lambert>
                        <emission>
                            <color>0.0 0.0 0.0 1.0</color>
                        </emission>
                        <diffuse>
                            <color>0.8 0.8 0.8 1.0</color>
                        </diffuse>
                        <reflective>
                            <color>1.0 1.0 1.0 1.0</color>
                        </reflective>
                        <reflectivity>
                            <float>0.2</float>
                        </reflectivity>
                        <transparent opaque="A_ONE">
                            <color>1.0 1.0 1.0 1.0</color>
                        </transparent>
                        <transparency>
                            <float>1.0</float>
                        </transparency>
                    </lambert>
                </technique>
                <extra>
                    <technique profile="GOOGLEEARTH">
                        <double_sided>0</double_sided>
                    </technique>
                </extra>
            </profile_COMMON>
        </effect>
        <effect id="default_ai_0.2_sh_0.2_tr_0.0_dc_r_1.0_g_0.2_b_0.2_sc_r_1.0_g_1.0_b_1.0_ec_r_0.0_g_0.0_b_0_eff">
            <profile_COMMON>
                <technique sid="COMMON">
                    <lambert>
                        <emission>
                            <color>0.0 0.0 0.0 1.0</color>
                        </emission>
                        <diffuse>
                            <color>1.0 0.2 0.2 1.0</color>
                        </diffuse>
                        <reflective>
                            <color>1.0 1.0 1.0 1.0</color>
                        </reflective>
                        <reflectivity>
                            <float>0.2</float>
                        </reflectivity>
                        <transparent opaque="A_ONE">
                            <color>1.0 1.0 1.0 1.0</color>
                        </transparent>
                        <transparency>
                            <float>1.0</float>
                        </transparency>
                    </lambert>
                </technique>
                <extra>
                    <technique profile="GOOGLEEARTH">
                        <double_sided>0</double_sided>
                    </technique>
                </extra>
            </profile_COMMON>
        </effect>
    </library_effects>
    <library_geometries>
        <geometry id="geometry0">
            <mesh>
                <source id="geometry0-position">
                    <float_array id="geometry0-position-array" count="60">2.14 0.36 5.488 0.0 0.0 5.94 0.0 0.0 0.0 2.14 0.36 0.0 -6.28 8.4 5.908 -2.348 5.529 7.465 -2.348 5.529 0.0 -6.28 8.4 0.0 -9.15 4.45 5.902 -9.15 4.45 0.0 1.8 2.5 5.941 1.81 2.46 5.932 1.81 2.46 0.0 1.8 2.5 0.0 -5.205 1.566 7.465 -5.205 1.566 0.0 -1.08 -1.45 5.949 -1.07 -1.51 5.936 -1.08 -1.45 0.0 -1.07 -1.51 0.0</float_array>
                    <technique_common>
                        <accessor count="20" source="#geometry0-position-array" stride="3">
                            <param name="X" type="float"/>
                            <param name="Y" type="float"/>
                            <param name="Z" type="float"/>
                        </accessor>
                    </technique_common>
                </source>
                <source id="geometry0-normal">
                    <float_array id="geometry0-normal-array" count="186">-0.8090017 0.5878062 0.0 -0.8090017 0.5878062 0.0 -0.8090017 0.5878062 0.0 -0.8090017 0.5878062 0.0 0.9701425 0.2425356 0.0 0.9701425 0.2425356 0.0 0.9701425 0.2425356 0.0 0.9701425 0.2425356 0.0 0.8159183 -0.5781672 0.0 0.8159183 -0.5781672 0.0 0.8159183 -0.5781672 0.0 0.8159183 -0.5781672 0.0 0.0 0.0 -1.0 0.0 0.0 -1.0 0.0 0.0 -1.0 0.0 0.0 -1.0 0.0 0.0 -1.0 0.0 0.0 -1.0 0.0 0.0 -1.0 0.0 0.0 -1.0 0.0 0.0 -1.0 0.0 0.0 -1.0 -0.5901653 -0.8072824 0.0 -0.5901654 -0.8072824 0.0 -0.5901653 -0.8072824 0.0 -0.5901653 -0.8072824 0.0 0.2281484 -0.1644195 0.9596429 0.2307513 -0.1663529 0.9586869 0.2307488 -0.1663258 0.9586922 0.247832 -0.1789077 0.9521404 0.2523075 -0.1824488 0.9502912 0.255999 -0.1850349 0.9488028 0.230503 -0.16648 0.9587246 0.2341239 -0.168439 0.9575042 0.1658933 -0.9861437 0.0 0.1658933 -0.9861437 0.0 0.1658933 -0.9861437 0.0 0.1658933 -0.9861437 0.0 -0.2471207 0.1781303 0.952471 -0.2471179 0.1781047 0.9524766 -0.2471207 0.1781303 0.952471 -0.2471235 0.1781559 0.9524655 0.5896972 0.8076244 0.0 0.5896972 0.8076244 0.0 0.5896972 0.8076244 0.0 0.5896972 0.8076245 0.0 0.5897334 0.807598 0.0 0.5897334 0.8075981 0.0 0.5897334 0.807598 0.0 0.5897334 0.807598 0.0 -0.9863939 -0.164399 0.0 -0.9863939 -0.164399 0.0 -0.9863939 -0.164399 0.0 -0.9863939 -0.164399 0.0 0.9878771 0.1552379 0.0 0.9878771 0.1552379 0.0 0.9878771 0.1552379 0.0 0.9878771 0.1552379 0.0 -0.5902178 -0.8072442 0.0 -0.5902178 -0.8072442 0.0 -0.5902178 -0.8072442 0.0 -0.5902177 -0.8072441 0.0</float_array>
                    <technique_common>
                        <accessor count="62" source="#geometry0-normal-array" stride="3">
                            <param name="X" type="float"/>
                            <param name="Y" type="float"/>
                            <param name="Z" type="float"/>
                        </accessor>
                    </technique_common>
                </source>
                <vertices id="geometry0-vertex">
                    <input semantic="POSITION" source="#geometry0-position"/>
                </vertices>
                <triangles count="28" material="default_ai_0.2_sh_0.2_tr_0.0_dc_r_0.8_g_0.8_b_0.8_sc_r_1.0_g_1.0_b_1.0_ec_r_0.0_g_0.0_b_0_tri">
                    <input offset="0" semantic="VERTEX" source="#geometry0-vertex"/>
                    <input offset="1" semantic="NORMAL" source="#geometry0-normal"/>
                    <p>8 0 4 1 7 2 8 0 7 2 9 3 10 4 11 5 12 6 10 4 12 6 13 7 1 8 17 9 19 10 1 8 19 10 2 11 13 12 12 13 3 14 13 12 3 14 2 15 6 16 13 12 2 15 7 17 6 16 2 15 9 18 7 17 2 15 15 19 9 18 2 15 18 20 15 19 2 15 18 20 2 15 19 21 14 22 8 23 9 24 14 22 9 24 15 25 0 34 1 35 2 36 0 34 2 36 3 37 4 42 5 43 6 44 4 42 6 44 7 45 5 46 10 47 13 48 5 46 13 48 6 49 17 50 16 51 18 52 17 50 18 52 19 53 11 54 0 55 3 56 11 54 3 56 12 57 16 58 14 59 15 60 16 58 15 60 18 61</p>
                </triangles>
                <triangles count="8" material="default_ai_0.2_sh_0.2_tr_0.0_dc_r_1.0_g_0.2_b_0.2_sc_r_1.0_g_1.0_b_1.0_ec_r_0.0_g_0.0_b_0_tri">
                    <input offset="0" semantic="VERTEX" source="#geometry0-vertex"/>
                    <input offset="1" semantic="NORMAL" source="#geometry0-normal"/>
                    <p>10 26 5 27 14 28 10 26 14 28 16 29 11 30 10 26 16 29 1 31 0 32 11 30 1 31 11 30 16 29 1 31 16 29 17 33 5 38 4 39 8 40 5 38 8 40 14 41</p>
                </triangles>
            </mesh>
        </geometry>
    </library_geometries>
    <library_visual_scenes>
        <visual_scene id="Building_DEBW_5221000QyEA">
            <node>
                <instance_geometry url="#geometry0">
                    <bind_material>
                        <technique_common>
                            <instance_material symbol="default_ai_0.2_sh_0.2_tr_0.0_dc_r_0.8_g_0.8_b_0.8_sc_r_1.0_g_1.0_b_1.0_ec_r_0.0_g_0.0_b_0_tri" target="#default_ai_0.2_sh_0.2_tr_0.0_dc_r_0.8_g_0.8_b_0.8_sc_r_1.0_g_1.0_b_1.0_ec_r_0.0_g_0.0_b_0_mat"/>
                            <instance_material symbol="default_ai_0.2_sh_0.2_tr_0.0_dc_r_1.0_g_0.2_b_0.2_sc_r_1.0_g_1.0_b_1.0_ec_r_0.0_g_0.0_b_0_tri" target="#default_ai_0.2_sh_0.2_tr_0.0_dc_r_1.0_g_0.2_b_0.2_sc_r_1.0_g_1.0_b_1.0_ec_r_0.0_g_0.0_b_0_mat"/>
                        </technique_common>
                    </bind_material>
                </instance_geometry>
            </node>
        </visual_scene>
    </library_visual_scenes>
    <scene>
        <instance_visual_scene url="#Building_DEBW_5221000QyEA"/>
    </scene>
</COLLADA>
