<?xml version="1.0" encoding="UTF-8" standalone="yes"?>
<COLLADA xmlns="http://www.collada.org/2005/11/COLLADASchema" version="1.4.1">
    <asset>
        <contributor>
            <authoring_tool>3D City Database Importer/Exporter, version 5.5.3; Chair of Geoinformatics, Technical University of Munich</authoring_tool>
        </contributor>
        <created>2026-05-06T15:12:18.507</created>
        <modified>2026-05-06T15:12:18.507</modified>
        <unit meter="1.0" name="meters"/>
        <up_axis>Z_UP</up_axis>
    </asset>
    <library_materials>
        <material id="default_ai_0.2_sh_0.2_tr_0.0_dc_r_0.8_g_0.8_b_0.8_sc_r_1.0_g_1.0_b_1.0_ec_r_0.0_g_0.0_b_0_mat">
            <instance_effect url="#default_ai_0.2_sh_0.2_tr_0.0_dc_r_0.8_g_0.8_b_0.8_sc_r_1.0_g_1.0_b_1.0_ec_r_0.0_g_0.0_b_0_eff"/>
        </material>
        <material id="default_ai_0.2_sh_0.2_tr_0.0_dc_r_1.0_g_0.2_b_0.2_sc_r_1.0_g_1.0_b_1.0_ec_r_0.0_g_0.0_b_0_mat">
            <instance_effect url="#default_ai_0.2_sh_0.2_tr_0.0_dc_r_1.0_g_0.2_b_0.2_sc_r_1.0_g_1.0_b_1.0_ec_r_0.0_g_0.0_b_0_eff"/>
        </material>
    </library_materials>
    <library_effects>
        <effect id="default_ai_0.2_sh_0.2_tr_0.0_dc_r_0.8_g_0.8_b_0.8_sc_r_1.0_g_1.0_b_1.0_ec_r_0.0_g_0.0_b_0_eff">
            <profile_COMMON>
                <technique sid="COMMON">
                    <lambert>
                        <emission>
                            <color>0.0 0.0 0.0 1.0</color>
                        </emission>
                        <diffuse>
                            <color>0.8 0.8 0.8 1.0</color>
                        </diffuse>
                        <reflective>
                            <color>1.0 1.0 1.0 1.0</color>
                        </reflective>
                        <reflectivity>
                            <float>0.2</float>
                        </reflectivity>
                        <transparent opaque="A_ONE">
                            <color>1.0 1.0 1.0 1.0</color>
                        </transparent>
                        <transparency>
                            <float>1.0</float>
                        </transparency>
                    </lambert>
                </technique>
                <extra>
                    <technique profile="GOOGLEEARTH">
                        <double_sided>0</double_sided>
                    </technique>
                </extra>
            </profile_COMMON>
        </effect>
        <effect id="default_ai_0.2_sh_0.2_tr_0.0_dc_r_1.0_g_0.2_b_0.2_sc_r_1.0_g_1.0_b_1.0_ec_r_0.0_g_0.0_b_0_eff">
            <profile_COMMON>
                <technique sid="COMMON">
                    <lambert>
                        <emission>
                            <color>0.0 0.0 0.0 1.0</color>
                        </emission>
                        <diffuse>
                            <color>1.0 0.2 0.2 1.0</color>
                        </diffuse>
                        <reflective>
                            <color>1.0 1.0 1.0 1.0</color>
                        </reflective>
                        <reflectivity>
                            <float>0.2</float>
                        </reflectivity>
                        <transparent opaque="A_ONE">
                            <color>1.0 1.0 1.0 1.0</color>
                        </transparent>
                        <transparency>
                            <float>1.0</float>
                        </transparency>
                    </lambert>
                </technique>
                <extra>
                    <technique profile="GOOGLEEARTH">
                        <double_sided>0</double_sided>
                    </technique>
                </extra>
            </profile_COMMON>
        </effect>
    </library_effects>
    <library_geometries>
        <geometry id="geometry0">
            <mesh>
                <source id="geometry0-position">
                    <float_array id="geometry0-position-array" count="333">-12.08 0.6 6.685 32.205 -2.436 6.685 32.22 -2.21 6.685 14.88 -1.02 6.685 12.08 -0.83 6.685 7.25 -0.5 6.685 5.26 -0.36 6.685 0.0 0.0 6.685 -12.07 0.82 6.685 0.0 0.0 0.0 -12.07 0.82 0.0 5.26 -0.36 0.0 7.25 -0.5 0.0 12.08 -0.83 0.0 14.88 -1.02 0.0 32.22 -2.21 0.0 32.205 -2.436 0.0 -12.08 0.6 0.0 -66.066 13.628 13.95 -67.358 -7.391 14.016 -63.94 -11.26 12.536 -63.169 3.063 12.536 -62.426 16.854 12.536 -71.22 -10.75 12.536 -69.28 17.31 12.536 -63.94 -11.26 0.0 -71.22 -10.75 0.0 -69.28 17.31 0.0 -62.426 16.854 0.0 -62.426 16.854 8.042 -63.94 -11.26 8.035 34.14 -10.82 8.206 33.96 -13.49 7.958 33.96 -13.49 0.0 34.14 -10.82 0.0 31.65 -10.65 8.206 31.643 -10.649 8.206 31.46 -13.32 7.958 31.46 -13.32 0.0 31.65 -10.65 0.0 31.643 -10.649 0.0 -19.86 -19.56 8.497 -27.01 -19.08 8.497 -27.01 -19.08 8.035 -27.01 -19.08 0.0 -19.86 -19.56 0.0 -18.06 1.01 8.497 -17.48 9.39 8.497 -17.25 12.75 8.497 -17.178 13.847 8.497 -24.45 14.33 8.497 -24.89 14.359 8.497 -24.98 12.942 8.497 -19.463 -19.587 8.497 -19.463 -19.587 0.0 -24.89 14.359 0.0 -24.45 14.33 0.0 -17.178 13.847 0.0 -17.25 12.75 0.0 -17.48 9.39 0.0 -18.06 1.01 0.0 -24.89 14.359 8.035 -17.08 15.34 8.542 -17.178 13.847 8.542 -17.08 15.34 0.0 -16.67 21.41 8.542 -16.89 21.42 8.542 -23.91 21.89 8.542 -24.45 14.33 8.542 -23.91 21.89 0.0 -16.89 21.42 0.0 -16.67 21.41 0.0 31.125 -18.22 6.916 35.39 -18.47 6.916 35.39 -18.47 0.0 31.125 -18.22 0.0 30.81 -22.82 0.0 35.15 -22.28 0.0 34.25 -23.07 0.0 35.15 -22.28 6.916 34.25 -23.07 6.916 30.81 -22.82 6.916 32.205 -2.436 10.73 31.65 -10.65 10.73 -12.08 0.6 10.73 -18.06 1.01 10.73 -19.463 -19.587 10.73 30.8 -22.95 10.73 30.81 -22.82 10.73 31.125 -18.22 10.73 31.12 -18.22 10.73 31.46 -13.32 10.73 31.643 -10.649 10.73 31.12 -18.22 0.0 30.8 -22.95 0.0 -64.69 -25.24 8.035 -64.69 -25.24 0.0 -27.58 -28.07 12.217 -27.56 -27.76 12.319 -27.01 -19.08 15.158 -26.643 -13.291 17.051 -63.915 -10.793 17.051 -63.94 -11.26 16.898 -64.69 -25.24 12.329 -64.71 -25.56 12.224 -27.56 -27.76 8.035 -27.58 -28.07 8.035 -64.71 -25.56 8.035 -64.71 -25.56 0.0 -27.58 -28.07 0.0 -27.56 -27.76 0.0</float_array>
                    <technique_common>
                        <accessor count="111" source="#geometry0-position-array" stride="3">
                            <param name="X" type="float"/>
                            <param name="Y" type="float"/>
                            <param name="Z" type="float"/>
                        </accessor>
                    </technique_common>
                </source>
                <source id="geometry0-normal">
                    <float_array id="geometry0-normal-array" count="1344">0.9979964 -0.0632695 1.767E-4 0.9979966 -0.0632669 0.0 0.9979964 -0.0632695 1.767E-4 0.9979963 -0.063272 3.534E-4 0.9979252 -0.0643839 0.0 0.9979252 -0.0643839 0.0 0.9979252 -0.0643839 0.0 0.9979252 -0.0643839 0.0 -0.0674464 -0.9977229 0.0 -0.0674464 -0.9977229 0.0 -0.0674464 -0.9977229 0.0 -0.0674464 -0.9977229 0.0 0.0 0.0 1.0 0.0 0.0 1.0 0.0 0.0 1.0 0.0 0.0 1.0 0.0 0.0 1.0 0.0 0.0 1.0 0.0 0.0 1.0 0.0 0.0 1.0 0.0 0.0 1.0 0.0 0.0 1.0 0.6596851 -0.7515422 0.0 0.6596851 -0.7515422 0.0 0.6596851 -0.7515422 0.0 0.6596851 -0.7515422 0.0 -0.9985538 0.053763 -3.6E-5 -0.9985543 0.0537517 0.0 -0.9985538 0.053763 -3.6E-5 -0.9985531 0.0537743 -7.21E-5 -0.0678434 -0.997696 0.0 -0.0678434 -0.997696 0.0 -0.0678434 -0.997696 0.0 -0.0678434 -0.997696 0.0 0.0681641 0.9976741 0.0 0.0681641 0.9976741 0.0 0.0681641 0.9976741 0.0 0.0681641 0.9976741 0.0 -0.0674464 -0.9977229 0.0 -0.0674464 -0.9977229 0.0 -0.0674464 -0.9977229 0.0 -0.0674464 -0.9977229 0.0 0.0 0.0 -1.0 0.0 0.0 -1.0 0.0 0.0 -1.0 0.0 0.0 -1.0 0.0 0.0 -1.0 0.0 0.0 -1.0 0.0 0.0 -1.0 0.0 0.0 -1.0 0.0 0.0 -1.0 0.0 0.0 -1.0 0.0 0.0 -1.0 0.9979985 -0.0632371 0.0 0.9979985 -0.0632371 0.0 0.9979985 -0.0632371 0.0 0.9979985 -0.0632371 0.0 0.9979985 -0.0632371 0.0 0.0251097 0.3774162 0.9257032 0.0251097 0.3774162 0.9257032 0.0251097 0.3774162 0.9257032 0.0681146 0.9976775 0.0 0.0681146 0.9976775 0.0 0.0681146 0.9976775 0.0 0.0681146 0.9976775 0.0 -0.9985532 0.0537743 0.0 -0.9985532 0.0537743 0.0 -0.9985532 0.0537743 0.0 -0.9985532 0.0537743 0.0 -0.9976636 0.0683184 0.0 -0.9976636 0.0683184 0.0 -0.9976636 0.0683184 0.0 -0.9976636 0.0683184 0.0 0.0454088 0.9989685 0.0 0.0454088 0.9989685 0.0 0.0454088 0.9989685 0.0 0.0454088 0.9989685 0.0 0.9979964 -0.063272 0.0 0.9979964 -0.063272 0.0 0.9979964 -0.063272 0.0 0.9979964 -0.063272 0.0 0.0662731 0.9978015 0.0 0.0662731 0.9978015 0.0 0.0662731 0.9978015 0.0 0.0662731 0.9978015 0.0 0.9978527 -0.0654984 0.0 0.9978527 -0.0654984 0.0 0.9978527 -0.0654984 0.0 0.9978527 -0.0654984 0.0 0.9978527 -0.0654984 0.0 0.9985532 -0.0537743 0.0 0.9985532 -0.0537743 0.0 0.9985532 -0.0537743 0.0 0.9985531 -0.0537743 0.0 0.0 0.0 -1.0 0.0 0.0 -1.0 0.0 0.0 -1.0 0.0 0.0 -1.0 -0.9979964 0.063272 0.0 -0.9979964 0.063272 0.0 -0.9979964 0.063272 0.0 -0.9979964 0.063272 0.0 0.0677015 0.9977056 0.0 0.0677015 0.9977056 0.0 0.0677015 0.9977056 0.0 0.0677015 0.9977056 0.0 0.0 0.0 -1.0 0.0 0.0 -1.0 0.0 0.0 -1.0 0.0 0.0 -1.0 0.0 0.0 -1.0 0.0 0.0 -1.0 0.0 0.0 -1.0 0.0 0.0 -1.0 0.0 0.0 -1.0 0.9985518 -0.0537977 0.0 0.9985518 -0.0537977 0.0 0.9985518 -0.0537977 0.0 0.0 0.0 1.0 0.0 0.0 1.0 0.0 0.0 1.0 0.0 0.0 1.0 0.0 0.0 1.0 -0.9985624 0.0536017 -1.56E-5 -0.9985704 0.0534518 0.0 -0.9985624 0.0536017 -1.56E-5 -0.9985543 0.0537517 -3.11E-5 -0.9979965 0.0632695 -1.845E-4 -0.9979963 0.063272 0.0 -0.9979965 0.0632695 -1.845E-4 -0.9979966 0.0632669 -3.69E-4 0.9976881 -0.0679592 0.0 0.9976881 -0.0679592 0.0 0.9976881 -0.0679592 0.0 0.9976881 -0.0679592 0.0 0.9977266 -0.0673917 0.0 0.9977266 -0.0673917 0.0 0.9977266 -0.0673917 0.0 0.9977266 -0.0673917 0.0 0.9976636 -0.0683184 0.0 0.9976636 -0.0683184 0.0 0.9976636 -0.0683184 0.0 0.9976636 -0.0683184 0.0 0.0982014 0.3035448 0.9477431 0.0206934 0.3087604 0.9509147 0.0207054 0.3087426 0.9509202 0.0207086 0.3087372 0.9509219 0.1760516 0.2964143 0.938693 0.3271014 0.2768358 0.9035301 0.9985537 -0.053763 3.6E-5 0.9985532 -0.0537743 7.21E-5 0.9985537 -0.053763 3.6E-5 0.9985543 -0.0537517 0.0 0.9976013 -0.069221 0.0 0.9976013 -0.069221 0.0 0.9976013 -0.069221 0.0 0.9976013 -0.069221 0.0 0.9976013 -0.069221 0.0 -0.997989 0.0633869 0.0 -0.997989 0.0633869 0.0 -0.997989 0.0633869 0.0 0.0 0.0 -1.0 0.0 0.0 -1.0 0.0 0.0 -1.0 0.0 0.0 -1.0 0.0 0.0 -1.0 0.0684664 0.9976534 0.0 0.0684664 0.9976534 0.0 0.0684664 0.9976534 0.0 0.0684664 0.9976534 0.0 -0.0667588 -0.9977691 0.0 -0.0667588 -0.9977691 0.0 -0.0667588 -0.9977691 0.0 -0.0667588 -0.9977691 0.0 -0.0667588 -0.9977691 0.0 0.0657672 0.9978349 0.0 0.0657672 0.997835 0.0 0.0657673 0.997835 0.0 0.0657673 0.997835 0.0 0.0657672 0.997835 0.0 0.997725 -0.0674141 0.0 0.9977251 -0.0674141 0.0 0.9977251 -0.0674141 0.0 0.9977251 -0.0674141 0.0 0.9977251 -0.0674141 0.0 0.0585162 0.9982864 0.0 0.0585162 0.9982864 0.0 0.0585162 0.9982864 0.0 0.0585162 0.9982864 0.0 0.1413458 0.9899603 0.0 0.1413458 0.9899603 0.0 0.1413458 0.9899603 0.0 0.1413458 0.9899603 0.0 0.0 0.0 1.0 0.0 0.0 1.0 0.0 0.0 1.0 0.0 0.0 1.0 0.0 0.0 1.0 0.0 0.0 1.0 0.9978049 -0.0662233 0.0 0.9978049 -0.0662233 0.0 0.9978049 -0.0662233 0.0 0.9978049 -0.0662233 0.0 0.0663232 0.9977982 0.0 0.0663232 0.9977983 0.0 0.0663232 0.9977982 0.0 0.0663232 0.9977982 0.0 -0.0662731 -0.9978015 0.0 -0.0662731 -0.9978015 0.0 -0.0662731 -0.9978015 0.0 -0.0662731 -0.9978015 0.0 0.0683954 0.9976583 0.0 0.0683954 0.9976583 0.0 0.0683954 0.9976583 0.0 0.0683954 0.9976583 0.0 -0.998564 0.0535713 0.0 -0.998564 0.0535713 0.0 -0.998564 0.0535713 0.0 -0.998564 0.0535713 0.0 0.0663836 0.9977942 0.0 0.0663836 0.9977942 0.0 0.0663836 0.9977942 0.0 0.0663836 0.9977942 0.0 0.0663836 0.9977942 0.0 0.9970544 -0.0766976 0.0 0.9970544 -0.0766976 0.0 0.9970544 -0.0766976 0.0 0.9970544 -0.0766976 0.0 0.9970544 -0.0766976 0.0 -0.9976612 0.0683536 0.0 -0.9976612 0.0683536 0.0 -0.9976612 0.0683536 0.0 -0.9976612 0.0683536 0.0 -0.066982 -0.9977542 0.0 -0.066982 -0.9977542 0.0 -0.066982 -0.9977542 0.0 -0.066982 -0.9977542 0.0 -0.066982 -0.9977542 0.0 0.9976654 -0.0682924 0.0 0.9976654 -0.0682924 0.0 0.9976654 -0.0682924 0.0 0.9976654 -0.0682924 0.0 0.0 0.0 1.0 0.0 0.0 1.0 0.0 0.0 1.0 0.0 0.0 1.0 0.0 0.0 1.0 0.0 0.0 1.0 0.0 0.0 1.0 0.0 0.0 1.0 0.0 0.0 1.0 0.0 0.0 1.0 0.0 0.0 1.0 0.0 0.0 -1.0 0.0 0.0 -1.0 0.0 0.0 -1.0 0.0 0.0 -1.0 0.0 0.0 -1.0 0.0 0.0 -1.0 0.0 0.0 1.0 0.0 0.0 1.0 0.0 0.0 1.0 0.0 0.0 1.0 0.0 0.0 1.0 0.0 0.0 1.0 0.0 0.0 1.0 0.0 0.0 1.0 0.0 0.0 1.0 0.3777261 -0.0203316 0.9256942 0.3776411 -0.0203457 0.9257284 0.3776917 -0.0203291 0.9257082 0.3777685 -0.0203245 0.9256769 0.3777947 -0.0203365 0.925666 0.0 0.0 -1.0 0.0 0.0 -1.0 0.0 0.0 -1.0 0.0 0.0 -1.0 0.0 0.0 -1.0 -0.9980532 0.0623679 0.0 -0.9980532 0.0623679 0.0 -0.9980532 0.0623679 0.0 -0.9980532 0.0623679 0.0 -0.0698837 -0.9975551 0.0 -0.0698837 -0.9975551 0.0 -0.0698837 -0.9975551 0.0 -0.0698837 -0.9975551 0.0 -0.0698837 -0.9975551 0.0 0.9979966 -0.0632681 -8.0E-7 0.9979965 -0.0632692 0.0 0.9979966 -0.0632681 -8.0E-7 0.9979966 -0.0632669 -1.5E-6 -0.9989685 0.0454087 0.0 -0.9989685 0.0454087 0.0 -0.9989685 0.0454087 0.0 -0.9989685 0.0454087 0.0 0.0 0.0 -1.0 0.0 0.0 -1.0 0.0 0.0 -1.0 0.0 0.0 -1.0 0.0 0.0 -1.0 0.0 0.0 -1.0 0.0 0.0 -1.0 0.0 0.0 -1.0 -0.0264421 -0.3774478 0.9256533 -0.0264421 -0.3774478 0.9256533 -0.0264421 -0.3774478 0.9256533 -0.9976881 0.0679592 0.0 -0.9976881 0.0679592 0.0 -0.9976881 0.0679592 0.0 -0.9976881 0.0679592 0.0 0.9976134 -0.0690472 0.0 0.9976134 -0.0690472 0.0 0.9976134 -0.0690472 0.0 0.9976134 -0.0690472 0.0 0.0684013 0.9976579 0.0 0.0684013 0.9976579 0.0 0.0684013 0.9976579 0.0 0.0684013 0.9976579 0.0 0.0684013 0.9976579 0.0 0.0684013 0.9976579 0.0 0.0668019 0.9977663 0.0 0.0668019 0.9977663 0.0 0.0668019 0.9977663 0.0 0.0668019 0.9977663 0.0 0.0677808 0.9977002 0.0 0.0677808 0.9977002 0.0 0.0677808 0.9977002 0.0 0.0677808 0.9977002 0.0 -0.0207918 -0.3101121 0.9504727 -0.0208128 -0.3105301 0.9503357 -0.0208412 -0.3108982 0.9502147 -0.0208135 -0.3104397 0.9503653 -0.0207634 -0.3095803 0.9506466 -0.0207597 -0.3095755 0.9506482 -0.0207499 -0.3096033 0.9506394 -0.9838253 0.1011085 -0.1478684 -0.9838253 0.1011085 -0.1478684 -0.9838253 0.1011085 -0.1478684 0.9976612 -0.0683536 0.0 0.9976612 -0.0683536 0.0 0.9976612 -0.0683536 0.0 0.9976612 -0.0683536 0.0 -0.9976881 0.0679592 0.0 -0.9976881 0.0679592 0.0 -0.9976881 0.0679592 0.0 -0.9976881 0.0679592 0.0 -0.0683954 -0.9976583 0.0 -0.0683954 -0.9976583 0.0 -0.0683954 -0.9976583 0.0 -0.0683954 -0.9976583 0.0 -0.9974587 0.0712472 0.0 -0.9974587 0.0712472 0.0 -0.9974587 0.0712472 0.0 -0.9974587 0.0712472 0.0 -0.9974587 0.0712472 0.0 -0.0662731 -0.9978015 0.0 -0.0662731 -0.9978015 0.0 -0.0662731 -0.9978015 0.0 -0.0662731 -0.9978015 0.0 0.9977353 -0.0672632 0.0 0.9977353 -0.0672632 0.0 0.9977353 -0.0672632 0.0 0.9977353 -0.0672632 0.0 -0.9976186 0.068973 0.0 -0.9976186 0.068973 0.0 -0.9976186 0.068973 0.0 -0.9976186 0.068973 0.0 -0.0678542 -0.9976953 0.0 -0.0678542 -0.9976953 0.0 -0.0678542 -0.9976953 0.0 -0.0678542 -0.9976953 0.0 0.9976636 -0.0683184 0.0 0.9976636 -0.0683184 0.0 0.9976636 -0.0683184 0.0 0.9976636 -0.0683184 0.0 -0.998564 0.0535713 0.0 -0.998564 0.0535713 0.0 -0.998564 0.0535713 0.0 -0.998564 0.0535713 0.0 -0.998564 0.0535713 0.0 0.9979252 -0.0643839 0.0 0.9979252 -0.0643839 0.0 0.9979252 -0.0643839 0.0 0.9979252 -0.0643839 0.0 0.0682813 0.9976662 0.0 0.0682813 0.9976662 0.0 0.0682813 0.9976662 0.0 0.0682813 0.9976662 0.0 0.0 1.0 0.0 0.0 1.0 0.0 0.0 1.0 0.0 0.0 1.0 0.0 0.0 1.0 0.0 0.9980219 -0.0628669 0.0 0.9980219 -0.0628669 0.0 0.9980219 -0.0628669 0.0 0.9980219 -0.0628669 0.0 -0.0130739 -0.0915557 0.9957141 -0.0085395 -0.0918878 0.9957327 -0.009679 -0.0917987 0.9957305 -0.0062722 -0.0920531 0.9957343 -0.0062605 -0.0920656 0.9957333 -0.9980532 0.0623679 0.0 -0.9980532 0.0623679 0.0 -0.9980532 0.0623679 0.0 -0.9980532 0.0623679 0.0 0.9976611 -0.0683536 0.0 0.9976612 -0.0683536 0.0 0.9976611 -0.0683536 0.0 0.9976611 -0.0683536 0.0 -0.0724832 -0.9973696 0.0 -0.0724832 -0.9973696 0.0 -0.0724832 -0.9973696 0.0 -0.0724832 -0.9973696 0.0 0.9979985 -0.0632371 0.0 0.9979985 -0.0632371 0.0 0.9979985 -0.0632371 0.0 0.9979985 -0.0632371 0.0 0.0683954 0.9976583 0.0 0.0683954 0.9976583 0.0 0.0683954 0.9976583 0.0 0.0683954 0.9976583 0.0 0.997853 -0.0654931 0.0 0.997853 -0.0654931 0.0 0.997853 -0.0654931 0.0 0.997853 -0.0654931 0.0 -0.3773955 0.0260985 0.9256844 -0.3773588 0.0261023 0.9256992 -0.3773955 0.0260985 0.9256844 -0.3774321 0.0260948 0.9256696 0.0701783 0.9975345 0.0 0.0701783 0.9975345 0.0 0.0701783 0.9975345 0.0 0.0701783 0.9975345 0.0 0.0 0.0 -1.0 0.0 0.0 -1.0 0.0 0.0 -1.0 0.0 0.0 -1.0 0.0 0.0 -1.0 0.0 0.0 -1.0 0.0 0.0 -1.0 0.0 0.0 -1.0 0.0 0.0 -1.0 -0.1413458 -0.9899603 0.0 -0.1413458 -0.9899603 0.0 -0.1413458 -0.9899603 0.0 -0.1413458 -0.9899603 0.0 -0.1413458 -0.9899603 0.0</float_array>
                    <technique_common>
                        <accessor count="448" source="#geometry0-normal-array" stride="3">
                            <param name="X" type="float"/>
                            <param name="Y" type="float"/>
                            <param name="Z" type="float"/>
                        </accessor>
                    </technique_common>
                </source>
                <vertices id="geometry0-vertex">
                    <input semantic="POSITION" source="#geometry0-position"/>
                </vertices>
                <triangles count="205" material="default_ai_0.2_sh_0.2_tr_0.0_dc_r_0.8_g_0.8_b_0.8_sc_r_1.0_g_1.0_b_1.0_ec_r_0.0_g_0.0_b_0_tri">
                    <input offset="0" semantic="VERTEX" source="#geometry0-vertex"/>
                    <input offset="1" semantic="NORMAL" source="#geometry0-normal"/>
                    <p>52 0 42 1 43 2 52 0 43 2 61 3 105 4 106 5 109 6 105 4 109 6 110 7 106 8 107 9 108 10 106 8 108 10 109 11 79 22 80 23 78 24 79 22 78 24 77 25 30 26 20 27 21 28 30 26 21 28 29 29 32 30 37 31 38 32 32 30 38 32 33 33 5 34 4 35 13 36 5 34 13 36 12 37 106 38 97 39 104 40 106 38 104 40 107 41 38 42 93 43 40 44 75 45 76 46 93 43 76 46 94 47 93 43 94 47 54 48 93 43 93 43 54 48 40 44 54 48 60 49 40 44 40 44 60 49 39 50 60 49 17 51 39 50 39 50 17 51 16 52 98 53 105 54 43 55 98 53 43 55 42 56 98 53 42 56 99 57 35 61 31 62 34 63 35 61 34 63 39 64 30 65 29 66 28 67 30 65 28 67 25 68 75 69 76 70 81 71 75 69 81 71 72 72 66 73 65 74 71 75 66 73 71 75 70 76 44 77 55 78 61 79 44 77 61 79 43 80 57 81 56 82 50 83 57 81 50 83 49 84 57 85 64 86 62 87 49 88 57 85 62 87 49 88 62 87 63 89 25 90 28 91 29 92 25 90 29 92 30 93 25 94 26 95 27 96 25 94 27 96 28 97 61 98 55 99 44 100 61 98 44 100 43 101 4 102 3 103 14 104 4 102 14 104 13 105 58 106 59 107 60 108 57 109 58 106 60 108 56 110 57 109 60 108 56 110 60 108 54 111 56 110 54 111 45 112 56 110 45 112 44 113 56 110 44 113 55 114 21 115 29 116 22 117 20 123 102 124 101 125 20 123 101 125 21 126 61 127 43 128 42 129 61 127 42 129 52 130 54 131 60 132 46 133 54 131 46 133 53 134 65 135 62 136 64 137 65 135 64 137 71 138 81 139 72 140 89 141 81 139 89 141 88 142 30 149 29 150 21 151 30 149 21 151 20 152 93 153 38 154 37 155 93 153 37 155 91 156 93 153 91 156 90 157 61 158 52 159 51 160 38 161 40 162 39 163 38 161 39 163 34 164 38 161 34 164 33 165 3 166 2 167 15 168 3 166 15 168 14 169 54 170 94 171 87 172 53 173 54 170 87 172 53 173 87 172 86 174 56 175 55 176 61 177 56 175 61 177 51 178 56 175 51 178 50 179 39 180 16 181 1 182 39 180 1 182 82 183 39 180 82 183 83 184 72 185 73 186 74 187 72 185 74 187 75 188 36 189 35 190 39 191 36 189 39 191 40 192 2 199 1 200 16 201 2 199 16 201 15 202 29 203 61 204 55 205 29 203 55 205 28 206 50 207 49 208 63 209 50 207 63 209 68 210 1 211 0 212 84 213 1 211 84 213 82 214 95 215 30 216 25 217 95 215 25 217 96 218 28 219 27 220 24 221 29 222 28 219 24 221 29 222 24 221 22 223 94 224 76 225 81 226 94 224 81 226 88 227 94 224 88 227 87 228 40 229 38 230 37 231 40 229 37 231 36 232 44 233 45 234 41 235 43 236 44 233 41 235 43 236 41 235 42 237 48 238 47 239 59 240 48 238 59 240 58 241 64 253 57 254 56 255 64 253 56 255 69 256 64 253 69 256 70 257 64 253 70 257 71 258 77 273 78 274 76 275 77 273 76 275 75 276 77 273 75 276 74 277 107 278 104 279 103 280 107 278 103 280 95 281 26 282 25 283 30 284 26 282 30 284 20 285 26 282 20 285 23 286 100 287 99 288 42 289 100 287 42 289 52 290 0 291 8 292 10 293 0 291 10 293 17 294 110 295 109 296 108 297 110 295 108 297 96 298 110 295 96 298 25 299 110 295 25 299 28 300 44 301 110 295 28 300 44 301 28 300 55 302 46 306 53 307 86 308 46 306 86 308 85 309 47 310 46 311 60 312 47 310 60 312 59 313 17 314 60 315 46 316 17 314 46 316 85 317 0 318 17 314 85 317 0 318 85 317 84 319 67 320 66 321 70 322 67 320 70 322 69 323 8 324 7 325 9 326 8 324 9 326 10 327 37 338 38 339 40 340 37 338 40 340 36 341 46 342 60 343 54 344 46 342 54 344 53 345 17 346 16 347 1 348 17 346 1 348 0 349 69 350 56 351 50 352 69 350 50 352 68 353 69 350 68 353 67 354 50 355 56 356 57 357 50 355 57 357 49 358 31 359 32 360 33 361 31 359 33 361 34 362 23 363 24 364 27 365 23 363 27 365 26 366 53 367 41 368 45 369 53 367 45 369 54 370 81 371 76 372 75 373 81 371 75 373 72 374 20 375 30 376 95 377 20 375 95 377 103 378 20 375 103 378 102 379 105 380 98 381 97 382 105 380 97 382 106 383 7 384 6 385 11 386 7 384 11 386 9 387 75 388 93 389 90 390 72 391 75 388 90 390 72 391 90 390 89 392 73 393 79 394 77 395 73 393 77 395 74 396 107 402 95 403 96 404 107 402 96 404 108 405 37 406 36 407 92 408 37 406 92 408 91 409 80 410 81 411 76 412 80 410 76 412 78 413 43 414 105 415 110 416 43 414 110 416 44 417 1 418 16 419 17 420 1 418 17 420 0 421 49 422 48 423 58 424 49 422 58 424 57 425 6 430 5 431 12 432 6 430 12 432 11 433 16 434 17 435 10 436 16 434 10 436 9 437 16 434 9 437 11 438 16 434 11 438 12 439 16 434 12 439 13 440 16 434 13 440 14 441 16 434 14 441 15 442 40 443 39 444 83 445 36 446 40 443 83 445 36 446 83 445 92 447</p>
                </triangles>
                <triangles count="51" material="default_ai_0.2_sh_0.2_tr_0.0_dc_r_1.0_g_0.2_b_0.2_sc_r_1.0_g_1.0_b_1.0_ec_r_0.0_g_0.0_b_0_tri">
                    <input offset="0" semantic="VERTEX" source="#geometry0-vertex"/>
                    <input offset="1" semantic="NORMAL" source="#geometry0-normal"/>
                    <p>47 12 48 13 46 14 48 13 49 15 46 14 49 15 50 16 46 14 46 14 50 16 53 17 53 17 50 16 41 18 41 18 50 16 42 19 42 19 50 16 52 20 52 20 50 16 51 21 18 58 22 59 24 60 72 118 81 119 80 120 72 118 80 120 79 121 72 118 79 121 73 122 101 143 100 144 52 145 101 143 52 145 61 146 101 143 61 146 29 147 101 143 29 147 21 148 67 193 68 194 63 195 67 193 63 195 62 196 66 197 67 193 62 196 66 197 62 196 65 198 90 242 91 243 92 244 88 245 89 246 90 242 87 247 88 245 90 242 86 248 87 247 90 242 86 248 90 242 92 244 85 249 86 248 92 244 85 249 92 244 83 250 84 251 85 249 83 250 84 251 83 250 82 252 7 259 8 260 0 261 7 259 0 261 1 262 6 263 7 259 1 262 5 264 6 263 1 262 5 264 1 262 2 265 4 266 5 264 2 265 4 266 2 265 3 267 21 268 22 269 18 270 21 268 18 270 19 271 21 268 19 271 20 272 19 303 23 304 20 305 103 328 104 329 97 330 103 328 97 330 98 331 103 328 98 331 99 332 103 328 99 332 100 333 103 328 100 333 101 334 103 335 101 336 102 337 36 397 37 398 35 399 35 399 37 398 31 400 31 400 37 398 32 401 19 426 18 427 24 428 19 426 24 428 23 429</p>
                </triangles>
            </mesh>
        </geometry>
    </library_geometries>
    <library_visual_scenes>
        <visual_scene id="Building_DEBW_5221000R0TE">
            <node>
                <instance_geometry url="#geometry0">
                    <bind_material>
                        <technique_common>
                            <instance_material symbol="default_ai_0.2_sh_0.2_tr_0.0_dc_r_0.8_g_0.8_b_0.8_sc_r_1.0_g_1.0_b_1.0_ec_r_0.0_g_0.0_b_0_tri" target="#default_ai_0.2_sh_0.2_tr_0.0_dc_r_0.8_g_0.8_b_0.8_sc_r_1.0_g_1.0_b_1.0_ec_r_0.0_g_0.0_b_0_mat"/>
                            <instance_material symbol="default_ai_0.2_sh_0.2_tr_0.0_dc_r_1.0_g_0.2_b_0.2_sc_r_1.0_g_1.0_b_1.0_ec_r_0.0_g_0.0_b_0_tri" target="#default_ai_0.2_sh_0.2_tr_0.0_dc_r_1.0_g_0.2_b_0.2_sc_r_1.0_g_1.0_b_1.0_ec_r_0.0_g_0.0_b_0_mat"/>
                        </technique_common>
                    </bind_material>
                </instance_geometry>
            </node>
        </visual_scene>
    </library_visual_scenes>
    <scene>
        <instance_visual_scene url="#Building_DEBW_5221000R0TE"/>
    </scene>
</COLLADA>
