<?xml version="1.0" encoding="UTF-8" standalone="yes"?>
<COLLADA xmlns="http://www.collada.org/2005/11/COLLADASchema" version="1.4.1">
    <asset>
        <contributor>
            <authoring_tool>3D City Database Importer/Exporter, version 5.5.3; Chair of Geoinformatics, Technical University of Munich</authoring_tool>
        </contributor>
        <created>2026-05-06T15:12:04.830</created>
        <modified>2026-05-06T15:12:04.830</modified>
        <unit meter="1.0" name="meters"/>
        <up_axis>Z_UP</up_axis>
    </asset>
    <library_materials>
        <material id="default_ai_0.2_sh_0.2_tr_0.0_dc_r_0.8_g_0.8_b_0.8_sc_r_1.0_g_1.0_b_1.0_ec_r_0.0_g_0.0_b_0_mat">
            <instance_effect url="#default_ai_0.2_sh_0.2_tr_0.0_dc_r_0.8_g_0.8_b_0.8_sc_r_1.0_g_1.0_b_1.0_ec_r_0.0_g_0.0_b_0_eff"/>
        </material>
        <material id="default_ai_0.2_sh_0.2_tr_0.0_dc_r_1.0_g_0.2_b_0.2_sc_r_1.0_g_1.0_b_1.0_ec_r_0.0_g_0.0_b_0_mat">
            <instance_effect url="#default_ai_0.2_sh_0.2_tr_0.0_dc_r_1.0_g_0.2_b_0.2_sc_r_1.0_g_1.0_b_1.0_ec_r_0.0_g_0.0_b_0_eff"/>
        </material>
    </library_materials>
    <library_effects>
        <effect id="default_ai_0.2_sh_0.2_tr_0.0_dc_r_0.8_g_0.8_b_0.8_sc_r_1.0_g_1.0_b_1.0_ec_r_0.0_g_0.0_b_0_eff">
            <profile_COMMON>
                <technique sid="COMMON">
                    <lambert>
                        <emission>
                            <color>0.0 0.0 0.0 1.0</color>
                        </emission>
                        <diffuse>
                            <color>0.8 0.8 0.8 1.0</color>
                        </diffuse>
                        <reflective>
                            <color>1.0 1.0 1.0 1.0</color>
                        </reflective>
                        <reflectivity>
                            <float>0.2</float>
                        </reflectivity>
                        <transparent opaque="A_ONE">
                            <color>1.0 1.0 1.0 1.0</color>
                        </transparent>
                        <transparency>
                            <float>1.0</float>
                        </transparency>
                    </lambert>
                </technique>
                <extra>
                    <technique profile="GOOGLEEARTH">
                        <double_sided>0</double_sided>
                    </technique>
                </extra>
            </profile_COMMON>
        </effect>
        <effect id="default_ai_0.2_sh_0.2_tr_0.0_dc_r_1.0_g_0.2_b_0.2_sc_r_1.0_g_1.0_b_1.0_ec_r_0.0_g_0.0_b_0_eff">
            <profile_COMMON>
                <technique sid="COMMON">
                    <lambert>
                        <emission>
                            <color>0.0 0.0 0.0 1.0</color>
                        </emission>
                        <diffuse>
                            <color>1.0 0.2 0.2 1.0</color>
                        </diffuse>
                        <reflective>
                            <color>1.0 1.0 1.0 1.0</color>
                        </reflective>
                        <reflectivity>
                            <float>0.2</float>
                        </reflectivity>
                        <transparent opaque="A_ONE">
                            <color>1.0 1.0 1.0 1.0</color>
                        </transparent>
                        <transparency>
                            <float>1.0</float>
                        </transparency>
                    </lambert>
                </technique>
                <extra>
                    <technique profile="GOOGLEEARTH">
                        <double_sided>0</double_sided>
                    </technique>
                </extra>
            </profile_COMMON>
        </effect>
    </library_effects>
    <library_geometries>
        <geometry id="geometry0">
            <mesh>
                <source id="geometry0-position">
                    <float_array id="geometry0-position-array" count="246">0.41 -0.98 9.479 0.0 0.0 9.399 0.0 0.0 0.0 0.41 -0.98 0.0 11.99 -13.58 7.377 12.05 -6.97 7.375 11.61 -5.91 7.677 10.85 -6.22 8.188 10.08 -4.32 8.718 10.84 -4.01 8.208 8.28 2.27 9.97 7.122 1.796 10.748 6.905 -23.951 10.748 8.567 -26.21 9.614 11.9 -24.57 7.375 11.92 -22.07 7.376 10.54 -22.06 8.307 10.56 -19.6 8.308 11.94 -19.61 7.377 11.97 -16.06 7.377 10.59 -16.05 8.308 10.61 -13.57 8.308 6.79 1.66 10.685 7.55 -26.71 9.437 -1.79 -27.44 9.104 -0.24 -30.57 8.067 -1.372 -28.284 9.184 10.84 -4.01 0.0 8.28 2.27 0.0 11.61 -5.91 0.0 10.85 -6.22 0.0 -0.05 -17.08 9.417 -0.03 -14.66 9.417 -0.03 -14.66 0.0 -0.05 -17.08 0.0 5.72 -27.62 9.114 1.12 -29.9 8.304 1.12 -29.9 0.0 5.72 -27.62 0.0 10.56 -19.6 0.0 11.94 -19.61 0.0 1.34 -14.67 9.677 1.37 -11.23 9.677 1.37 -11.23 0.0 1.34 -14.67 0.0 0.01 -9.29 9.416 -2.81 -2.35 8.87 -2.81 -2.35 0.0 0.01 -9.29 0.0 5.05 0.96 10.356 4.67 1.89 10.283 0.0 -11.22 9.417 -5.56 -19.82 8.376 -4.02 -22.9 8.673 -4.92 -23.35 8.503 -3.35 -26.47 8.806 -2.68 -27.88 8.936 11.97 -16.06 0.0 -0.24 -30.57 0.0 11.9 -24.57 0.0 11.92 -22.07 0.0 4.99 -26.15 9.833 6.82 -25.24 10.156 -4.92 -23.35 0.0 -3.35 -26.47 0.0 -5.56 -19.82 0.0 -4.02 -22.9 0.0 0.0 -11.22 0.0 6.82 -25.24 0.0 7.55 -26.71 0.0 12.05 -6.97 0.0 4.67 1.89 0.0 10.59 -16.05 0.0 -2.68 -27.88 0.0 10.08 -4.32 0.0 10.54 -22.06 0.0 -1.79 -27.44 0.0 10.61 -13.57 0.0 11.99 -13.58 0.0 6.79 1.66 0.0 5.05 0.96 0.0 4.99 -26.15 0.0</float_array>
                    <technique_common>
                        <accessor count="82" source="#geometry0-position-array" stride="3">
                            <param name="X" type="float"/>
                            <param name="Y" type="float"/>
                            <param name="Z" type="float"/>
                        </accessor>
                    </technique_common>
                </source>
                <source id="geometry0-normal">
                    <float_array id="geometry0-normal-array" count="756">0.9267851 0.3755921 0.0 0.9267851 0.3755921 0.0 0.9267851 0.3755921 0.0 0.9267851 0.3755922 0.0 -0.0072464 -0.9999738 0.0 -0.0072464 -0.9999737 0.0 -0.0072464 -0.9999738 0.0 -0.0072464 -0.9999738 0.0 -0.4472142 0.8944269 0.0 -0.4472142 0.8944269 0.0 -0.4472142 0.8944269 0.0 -0.4472142 0.8944269 0.0 -0.3751521 0.9269632 0.0 -0.3751521 0.9269633 0.0 -0.3751521 0.9269632 0.0 -0.3751521 0.9269632 0.0 0.5592368 -0.004726 0.8289946 0.5592366 -0.004726 0.8289946 0.3878546 -0.0032777 0.9217147 0.4334753 -0.0036809 0.9011579 0.4600432 -0.0038611 0.8878881 0.5592416 -0.0048013 0.8289909 0.5592362 -0.0048056 0.8289945 0.5592858 -0.0048291 0.8289609 0.5591578 -0.0047612 0.8290475 0.5591971 -0.0047213 0.8290213 0.5591456 -0.004734 0.829056 0.5591351 -0.0047353 0.829063 0.5591076 -0.0047849 0.8290812 0.5590718 -0.0047868 0.8291054 0.558616 -0.0049945 0.8294114 0.5589519 -0.0045803 0.8291874 0.5589719 -0.0044702 0.8291746 0.5591235 -0.0041187 0.8290741 0.4412636 -0.8973775 -4.319E-4 0.4412636 -0.8973775 -4.319E-4 0.4412636 -0.8973775 -4.319E-4 -0.9264375 -0.3764486 0.0 -0.9264375 -0.3764486 0.0 -0.9264375 -0.3764486 0.0 -0.9264375 -0.3764486 0.0 -0.3915037 0.9201766 0.0 -0.3915037 0.9201766 0.0 -0.3915037 0.9201766 0.0 -0.3915037 0.9201766 0.0 0.4419291 -0.89705 0.0 0.4419291 -0.89705 0.0 0.4419291 -0.89705 0.0 0.4419291 -0.89705 0.0 0.926016 0.3774843 0.0 0.926016 0.3774843 0.0 0.926016 0.3774843 0.0 0.926016 0.3774843 0.0 0.9257054 0.3782453 0.0 0.9257054 0.3782453 0.0 0.9257054 0.3782453 0.0 0.9257054 0.3782453 0.0 -0.8961384 -0.4437747 0.0 -0.8961384 -0.4437747 0.0 -0.8961384 -0.4437747 0.0 -0.8961384 -0.4437747 0.0 0.9999675 -0.0080641 0.0 0.9999675 -0.0080641 0.0 0.9999675 -0.0080641 0.0 0.9999675 -0.0080641 0.0 0.3776837 -0.9259347 0.0 0.3776837 -0.9259347 0.0 0.3776837 -0.9259347 0.0 0.3776837 -0.9259347 0.0 0.4414285 -0.8972964 0.0 0.4414285 -0.8972964 0.0 0.4414285 -0.8972964 0.0 0.4414285 -0.8972964 0.0 0.0 0.0 -1.0 0.0 0.0 -1.0 0.0 0.0 -1.0 0.0 0.0 -1.0 0.0 0.0 -1.0 0.0 0.0 -1.0 0.0 0.0 -1.0 0.0 0.0 -1.0 0.0 0.0 -1.0 0.0 0.0 -1.0 0.0 0.0 -1.0 0.0 0.0 -1.0 0.0 0.0 -1.0 0.0 0.0 -1.0 0.0 0.0 -1.0 0.0 0.0 -1.0 0.0 0.0 -1.0 0.0 0.0 -1.0 0.0 0.0 -1.0 0.0 0.0 -1.0 0.0 0.0 -1.0 0.0 0.0 -1.0 0.0 0.0 -1.0 0.0 0.0 -1.0 0.0 0.0 -1.0 0.0 0.0 -1.0 0.0 0.0 -1.0 0.0 0.0 -1.0 0.0 0.0 -1.0 0.0 0.0 -1.0 0.0 0.0 -1.0 0.0 0.0 -1.0 0.0 0.0 -1.0 0.0 0.0 -1.0 0.0 0.0 -1.0 0.0 0.0 -1.0 0.0 0.0 -1.0 0.0 0.0 -1.0 0.0 0.0 -1.0 -0.4452625 0.8954001 0.0 -0.4452625 0.8954001 0.0 -0.4452625 0.8954001 0.0 -0.4452625 0.8954001 0.0 -0.922519 -0.3859518 0.0 -0.922519 -0.3859518 0.0 -0.922519 -0.3859518 0.0 -0.9225189 -0.3859518 0.0 0.999968 -0.0079999 0.0 0.999968 -0.0079999 0.0 0.999968 -0.0079999 0.0 0.999968 -0.0079999 0.0 -0.3788747 0.9254479 0.0 -0.3788747 0.9254479 0.0 -0.3788747 0.9254479 0.0 -0.3788747 0.9254479 0.0 0.4440942 -0.8959801 0.0 0.4440942 -0.8959801 0.0 0.4440942 -0.8959801 0.0 0.4440942 -0.8959801 0.0 -0.186475 0.0014612 0.9824587 -0.1861462 9.39E-4 0.9825216 -0.1862686 0.001255 0.982498 -0.1867686 0.0016901 0.9824025 -0.1869425 0.0017547 0.9823694 -0.1870526 0.0016827 0.9823484 -0.186766 0.0015526 0.9824032 -0.1863892 0.0016212 0.9824746 -0.18705 0.0014925 0.9823493 -0.1865382 0.0016223 0.9824464 -0.1863866 0.0015453 0.9824752 -0.1866612 0.001653 0.9824229 -0.1864421 0.0015408 0.9824647 -0.185943 0.0014517 0.9825594 -0.1863974 0.0015892 0.9824731 -0.1866614 0.0015727 0.9824231 -0.186386 0.001495 0.9824755 -0.1864146 0.0015093 0.98247 -0.1865681 0.0017008 0.9824405 -0.186463 0.0015271 0.9824608 -0.1867904 0.0020486 0.9823977 -0.8956424 -0.444775 0.0 -0.8956423 -0.444775 0.0 -0.8956424 -0.444775 0.0 -0.8956424 -0.444775 0.0 -0.0072464 -0.9999738 0.0 -0.0072464 -0.9999738 0.0 -0.0072464 -0.9999738 0.0 -0.0072464 -0.9999738 0.0 -0.3776841 0.9259345 0.0 -0.3776841 0.9259345 0.0 -0.3776841 0.9259345 0.0 -0.3776841 0.9259345 0.0 -0.8944272 -0.4472136 0.0 -0.8944272 -0.4472136 0.0 -0.8944272 -0.4472136 0.0 -0.8944272 -0.4472136 0.0 0.0072464 0.9999738 0.0 0.0072464 0.9999738 0.0 0.0072464 0.9999738 0.0 0.0072464 0.9999738 0.0 -0.0072985 -0.9999734 0.0 -0.0072985 -0.9999734 0.0 -0.0072985 -0.9999734 0.0 -0.0072985 -0.9999734 0.0 -0.999962 0.0087206 0.0 -0.999962 0.0087206 0.0 -0.999962 0.0087206 0.0 -0.999962 0.0087206 0.0 0.048402 -0.4193609 0.9065284 0.0483541 -0.4194306 0.9064987 0.0484424 -0.4194574 0.9064816 0.0483434 -0.4193855 0.9065201 0.048314 -0.419365 0.9065311 0.0482422 -0.4192379 0.9065938 0.0482131 -0.4193832 0.9065281 0.0483228 -0.4191837 0.9066147 0.0484375 -0.4190397 0.9066751 0.9999669 -0.00813 0.0 0.9999669 -0.00813 0.0 0.9999669 -0.00813 0.0 0.9999669 -0.00813 0.0 0.8956426 0.4447745 0.0 0.8956426 0.4447745 0.0 0.8956426 0.4447745 0.0 0.8956426 0.4447745 0.0 -0.9999866 0.0051813 0.0 -0.9999866 0.0051813 0.0 -0.9999866 0.0051813 0.0 -0.9999866 0.0051813 0.0 0.0072992 0.9999734 0.0 0.0072992 0.9999734 0.0 0.0072992 0.9999734 0.0 0.0072992 0.9999734 0.0 0.9235915 0.3833781 0.0 0.9235915 0.3833781 0.0 0.9235915 0.3833781 0.0 0.9235915 0.3833781 0.0 -0.3790123 0.9253916 -3.349E-4 -0.3790123 0.9253916 -3.349E-4 -0.3790123 0.9253916 -3.349E-4 0.443179 -0.8964331 0.0 0.443179 -0.8964331 0.0 0.443179 -0.8964331 0.0 0.443179 -0.8964332 0.0 -0.893279 -0.4495027 0.0 -0.893279 -0.4495027 0.0 -0.893279 -0.4495027 0.0 -0.893279 -0.4495028 0.0 -0.8961237 -0.4438043 1.112E-4 -0.8961237 -0.4438043 1.112E-4 -0.8961237 -0.4438043 1.112E-4 0.4452552 -0.8954037 0.0 0.4452552 -0.8954037 0.0 0.4452552 -0.8954037 0.0 0.4452552 -0.8954037 0.0 -0.9032155 -0.4291874 0.0 -0.9032155 -0.4291874 0.0 -0.9032155 -0.4291874 0.0 -0.9032155 -0.4291874 0.0 0.9999643 -0.0084506 0.0 0.9999643 -0.0084506 0.0 0.9999643 -0.0084506 0.0 0.9999643 -0.0084506 0.0 -0.9999658 0.0082642 0.0 -0.9999658 0.0082642 0.0 -0.9999658 0.0082642 0.0 -0.9999658 0.0082642 0.0 0.0072464 0.9999738 0.0 0.0072464 0.9999737 0.0 0.0072464 0.9999738 0.0 0.0072464 0.9999738 0.0 -0.3732285 0.9277394 0.0 -0.3732285 0.9277394 0.0 -0.3732285 0.9277394 0.0 -0.3732285 0.9277394 0.0 0.9999588 -0.0090768 0.0 0.9999588 -0.0090768 0.0 0.9999588 -0.0090768 0.0 0.9999588 -0.0090768 0.0</float_array>
                    <technique_common>
                        <accessor count="252" source="#geometry0-normal-array" stride="3">
                            <param name="X" type="float"/>
                            <param name="Y" type="float"/>
                            <param name="Z" type="float"/>
                        </accessor>
                    </technique_common>
                </source>
                <vertices id="geometry0-vertex">
                    <input semantic="POSITION" source="#geometry0-position"/>
                </vertices>
                <triangles count="118" material="default_ai_0.2_sh_0.2_tr_0.0_dc_r_0.8_g_0.8_b_0.8_sc_r_1.0_g_1.0_b_1.0_ec_r_0.0_g_0.0_b_0_tri">
                    <input offset="0" semantic="VERTEX" source="#geometry0-vertex"/>
                    <input offset="1" semantic="NORMAL" source="#geometry0-normal"/>
                    <p>8 0 7 1 30 2 8 0 30 2 74 3 18 4 17 5 39 6 18 4 39 6 40 7 54 8 53 9 66 10 54 8 66 10 63 11 1 12 50 13 71 14 1 12 71 14 2 15 23 34 14 35 13 36 45 37 46 38 47 39 45 37 47 39 48 40 46 41 0 42 3 43 46 41 3 43 47 44 36 45 25 46 58 47 36 45 58 47 37 48 10 49 9 50 27 51 10 49 27 51 28 52 50 53 49 54 80 55 50 53 80 55 71 56 25 57 24 58 76 59 25 57 76 59 58 60 21 61 20 62 72 63 21 61 72 63 77 64 9 65 8 66 74 67 9 65 74 67 27 68 14 69 23 70 69 71 14 69 69 71 59 72 57 73 40 74 72 75 40 74 39 76 72 75 72 75 39 76 77 77 60 78 59 79 75 80 59 79 69 81 75 80 75 80 69 81 39 76 39 76 69 81 77 77 69 81 68 82 77 77 68 82 81 83 77 77 38 84 37 85 81 83 81 83 37 85 77 77 37 85 58 86 77 77 58 86 76 87 77 77 76 87 73 88 77 77 73 88 64 89 77 77 63 90 66 91 64 89 64 89 66 91 77 77 66 91 65 92 77 77 65 92 34 93 77 77 33 94 44 95 34 93 34 93 44 95 77 77 44 95 43 96 77 77 77 77 43 96 78 97 78 97 43 96 70 98 70 98 43 96 29 99 29 99 43 96 30 100 30 100 43 96 74 101 43 96 67 102 74 101 67 102 48 103 74 101 48 103 47 104 74 101 74 101 47 104 27 105 27 105 47 104 28 106 28 106 47 104 79 107 79 107 47 104 80 108 47 104 3 109 80 108 80 108 3 109 71 110 71 110 3 109 2 111 52 112 31 113 34 114 52 112 34 114 65 115 0 116 1 117 2 118 0 116 2 118 3 119 15 120 14 121 59 122 15 120 59 122 60 123 22 124 10 125 28 126 22 124 28 126 79 127 35 128 36 129 37 130 35 128 37 130 38 131 23 153 62 154 68 155 23 153 68 155 69 156 4 157 21 158 77 159 4 157 77 159 78 160 7 161 6 162 29 163 7 161 29 163 30 164 53 165 52 166 65 167 53 165 65 167 66 168 20 169 19 170 57 171 20 169 57 171 72 172 42 173 51 174 67 175 42 173 67 175 43 176 41 177 42 178 43 179 41 177 43 179 44 180 17 190 16 191 75 192 17 190 75 192 39 193 61 194 35 195 38 196 61 194 38 196 81 197 51 198 45 199 48 200 51 198 48 200 67 201 32 202 41 203 44 204 32 202 44 204 33 205 6 206 5 207 70 208 6 206 70 208 29 209 10 210 22 211 11 212 24 213 56 214 73 215 24 213 73 215 76 216 55 217 54 218 63 219 55 217 63 219 64 220 24 221 25 222 26 223 62 224 61 225 81 226 62 224 81 226 68 227 56 228 55 229 64 230 56 228 64 230 73 231 19 232 18 233 40 234 19 232 40 234 57 235 31 236 32 237 33 238 31 236 33 238 34 239 16 240 15 241 60 242 16 240 60 242 75 243 49 244 22 245 79 246 49 244 79 246 80 247 5 248 4 249 78 250 5 248 78 250 70 251</p>
                </triangles>
                <triangles count="42" material="default_ai_0.2_sh_0.2_tr_0.0_dc_r_1.0_g_0.2_b_0.2_sc_r_1.0_g_1.0_b_1.0_ec_r_0.0_g_0.0_b_0_tri">
                    <input offset="0" semantic="VERTEX" source="#geometry0-vertex"/>
                    <input offset="1" semantic="NORMAL" source="#geometry0-normal"/>
                    <p>18 16 19 17 20 18 17 19 18 16 20 18 17 19 20 18 21 20 14 21 15 22 16 23 13 24 14 21 16 23 13 24 16 23 17 19 13 24 17 19 21 20 12 25 13 24 21 20 11 26 12 25 21 20 11 26 21 20 4 27 10 28 11 26 4 27 8 29 9 30 10 28 8 29 10 28 4 27 7 31 8 29 4 27 7 31 4 27 5 32 7 31 5 32 6 33 24 132 26 133 12 134 24 132 12 134 11 135 24 132 11 135 22 136 56 137 24 132 22 136 53 138 54 139 55 140 53 138 55 140 56 137 31 141 52 142 53 138 31 141 53 138 56 137 41 143 32 144 31 141 41 143 31 141 56 137 41 143 56 137 22 136 41 143 22 136 49 145 41 143 49 145 50 146 42 147 41 143 50 146 51 148 42 147 50 146 45 149 51 148 50 146 0 150 46 151 45 149 0 150 45 149 50 146 0 150 50 146 1 152 23 181 13 182 62 183 13 182 12 184 62 183 62 183 12 184 61 185 12 184 26 186 61 185 61 185 26 186 35 187 35 187 26 186 36 188 36 188 26 186 25 189</p>
                </triangles>
            </mesh>
        </geometry>
    </library_geometries>
    <library_visual_scenes>
        <visual_scene id="Building_DEBW_5221000QwCB">
            <node>
                <instance_geometry url="#geometry0">
                    <bind_material>
                        <technique_common>
                            <instance_material symbol="default_ai_0.2_sh_0.2_tr_0.0_dc_r_0.8_g_0.8_b_0.8_sc_r_1.0_g_1.0_b_1.0_ec_r_0.0_g_0.0_b_0_tri" target="#default_ai_0.2_sh_0.2_tr_0.0_dc_r_0.8_g_0.8_b_0.8_sc_r_1.0_g_1.0_b_1.0_ec_r_0.0_g_0.0_b_0_mat"/>
                            <instance_material symbol="default_ai_0.2_sh_0.2_tr_0.0_dc_r_1.0_g_0.2_b_0.2_sc_r_1.0_g_1.0_b_1.0_ec_r_0.0_g_0.0_b_0_tri" target="#default_ai_0.2_sh_0.2_tr_0.0_dc_r_1.0_g_0.2_b_0.2_sc_r_1.0_g_1.0_b_1.0_ec_r_0.0_g_0.0_b_0_mat"/>
                        </technique_common>
                    </bind_material>
                </instance_geometry>
            </node>
        </visual_scene>
    </library_visual_scenes>
    <scene>
        <instance_visual_scene url="#Building_DEBW_5221000QwCB"/>
    </scene>
</COLLADA>
