<?xml version="1.0" encoding="UTF-8" standalone="yes"?>
<COLLADA xmlns="http://www.collada.org/2005/11/COLLADASchema" version="1.4.1">
    <asset>
        <contributor>
            <authoring_tool>3D City Database Importer/Exporter, version 5.5.3; Chair of Geoinformatics, Technical University of Munich</authoring_tool>
        </contributor>
        <created>2026-05-06T15:12:02.223</created>
        <modified>2026-05-06T15:12:02.223</modified>
        <unit meter="1.0" name="meters"/>
        <up_axis>Z_UP</up_axis>
    </asset>
    <library_materials>
        <material id="default_ai_0.2_sh_0.2_tr_0.0_dc_r_0.8_g_0.8_b_0.8_sc_r_1.0_g_1.0_b_1.0_ec_r_0.0_g_0.0_b_0_mat">
            <instance_effect url="#default_ai_0.2_sh_0.2_tr_0.0_dc_r_0.8_g_0.8_b_0.8_sc_r_1.0_g_1.0_b_1.0_ec_r_0.0_g_0.0_b_0_eff"/>
        </material>
        <material id="default_ai_0.2_sh_0.2_tr_0.0_dc_r_1.0_g_0.2_b_0.2_sc_r_1.0_g_1.0_b_1.0_ec_r_0.0_g_0.0_b_0_mat">
            <instance_effect url="#default_ai_0.2_sh_0.2_tr_0.0_dc_r_1.0_g_0.2_b_0.2_sc_r_1.0_g_1.0_b_1.0_ec_r_0.0_g_0.0_b_0_eff"/>
        </material>
    </library_materials>
    <library_effects>
        <effect id="default_ai_0.2_sh_0.2_tr_0.0_dc_r_0.8_g_0.8_b_0.8_sc_r_1.0_g_1.0_b_1.0_ec_r_0.0_g_0.0_b_0_eff">
            <profile_COMMON>
                <technique sid="COMMON">
                    <lambert>
                        <emission>
                            <color>0.0 0.0 0.0 1.0</color>
                        </emission>
                        <diffuse>
                            <color>0.8 0.8 0.8 1.0</color>
                        </diffuse>
                        <reflective>
                            <color>1.0 1.0 1.0 1.0</color>
                        </reflective>
                        <reflectivity>
                            <float>0.2</float>
                        </reflectivity>
                        <transparent opaque="A_ONE">
                            <color>1.0 1.0 1.0 1.0</color>
                        </transparent>
                        <transparency>
                            <float>1.0</float>
                        </transparency>
                    </lambert>
                </technique>
                <extra>
                    <technique profile="GOOGLEEARTH">
                        <double_sided>0</double_sided>
                    </technique>
                </extra>
            </profile_COMMON>
        </effect>
        <effect id="default_ai_0.2_sh_0.2_tr_0.0_dc_r_1.0_g_0.2_b_0.2_sc_r_1.0_g_1.0_b_1.0_ec_r_0.0_g_0.0_b_0_eff">
            <profile_COMMON>
                <technique sid="COMMON">
                    <lambert>
                        <emission>
                            <color>0.0 0.0 0.0 1.0</color>
                        </emission>
                        <diffuse>
                            <color>1.0 0.2 0.2 1.0</color>
                        </diffuse>
                        <reflective>
                            <color>1.0 1.0 1.0 1.0</color>
                        </reflective>
                        <reflectivity>
                            <float>0.2</float>
                        </reflectivity>
                        <transparent opaque="A_ONE">
                            <color>1.0 1.0 1.0 1.0</color>
                        </transparent>
                        <transparency>
                            <float>1.0</float>
                        </transparency>
                    </lambert>
                </technique>
                <extra>
                    <technique profile="GOOGLEEARTH">
                        <double_sided>0</double_sided>
                    </technique>
                </extra>
            </profile_COMMON>
        </effect>
    </library_effects>
    <library_geometries>
        <geometry id="geometry0">
            <mesh>
                <source id="geometry0-position">
                    <float_array id="geometry0-position-array" count="60">-1.416 9.561 10.874 -5.05 6.89 7.028 -1.63 2.29 7.046 -1.87 2.1 6.786 -0.21 -0.16 6.781 0.0 0.0 7.006 3.53 -4.74 7.029 7.175 -2.084 10.874 0.0 0.0 0.0 3.53 -4.74 0.0 -1.416 9.561 0.0 -5.05 6.89 0.0 7.175 -2.084 0.0 -0.21 -0.16 0.0 -1.87 2.1 0.0 -1.63 2.29 0.0 2.19 12.21 0.0 10.79 0.55 0.0 10.79 0.55 7.055 2.19 12.21 7.054</float_array>
                    <technique_common>
                        <accessor count="20" source="#geometry0-position-array" stride="3">
                            <param name="X" type="float"/>
                            <param name="Y" type="float"/>
                            <param name="Z" type="float"/>
                        </accessor>
                    </technique_common>
                </source>
                <source id="geometry0-normal">
                    <float_array id="geometry0-normal-array" count="186">-0.8025051 -0.5966452 0.0 -0.8025052 -0.5966452 0.0 -0.8025051 -0.5966452 0.0 -0.8025051 -0.5966452 0.0 0.5888894 -0.8082137 0.0 0.5888894 -0.8082137 0.0 0.5888894 -0.8082137 0.0 0.5888894 -0.8082137 0.0 -0.8059512 -0.5919819 0.0 -0.8059512 -0.5919819 0.0 -0.8059512 -0.5919819 0.0 -0.8059512 -0.5919819 0.0 0.5225211 0.3854719 0.760515 0.5225443 0.3854753 0.7604975 0.5225211 0.3854719 0.760515 0.5224981 0.3854685 0.7605326 -0.592032 0.8059144 0.0 -0.592032 0.8059144 0.0 -0.592032 0.8059144 0.0 -0.592032 0.8059144 0.0 0.5889097 -0.8081989 0.0 0.5889097 -0.8081989 0.0 0.5889097 -0.8081989 0.0 0.5889097 -0.8081989 0.0 0.6060432 -0.7954317 0.0 0.6060432 -0.7954317 0.0 0.6060432 -0.7954317 0.0 0.6060432 -0.7954317 0.0 -0.5221165 -0.3851644 0.7609486 -0.5220785 -0.3851589 0.7609774 -0.5221629 -0.385173 0.7609125 -0.522046 -0.3851815 0.7609884 -0.5218533 -0.3849227 0.7612513 -0.5219225 -0.3849336 0.7611983 -0.5211233 -0.3844576 0.7619861 -0.5221449 -0.385226 0.7608979 0.8047782 0.5935757 0.0 0.8047782 0.5935757 0.0 0.8047782 0.5935757 0.0 0.8047782 0.5935757 0.0 -0.8020259 -0.5972893 0.0 -0.8020259 -0.5972893 0.0 -0.8020259 -0.5972893 0.0 -0.802026 -0.5972893 0.0 -0.620703 0.7840458 0.0 -0.620703 0.7840458 0.0 -0.620703 0.7840458 0.0 -0.620703 0.7840458 0.0 -0.592238 0.8057631 0.0 -0.592238 0.8057631 0.0 -0.592238 0.8057631 0.0 -0.592238 0.8057631 0.0 0.0 0.0 -1.0 0.0 0.0 -1.0 0.0 0.0 -1.0 0.0 0.0 -1.0 0.0 0.0 -1.0 0.0 0.0 -1.0 0.0 0.0 -1.0 0.0 0.0 -1.0 0.0 0.0 -1.0 0.0 0.0 -1.0</float_array>
                    <technique_common>
                        <accessor count="62" source="#geometry0-normal-array" stride="3">
                            <param name="X" type="float"/>
                            <param name="Y" type="float"/>
                            <param name="Z" type="float"/>
                        </accessor>
                    </technique_common>
                </source>
                <vertices id="geometry0-vertex">
                    <input semantic="POSITION" source="#geometry0-position"/>
                </vertices>
                <triangles count="28" material="default_ai_0.2_sh_0.2_tr_0.0_dc_r_0.8_g_0.8_b_0.8_sc_r_1.0_g_1.0_b_1.0_ec_r_0.0_g_0.0_b_0_tri">
                    <input offset="0" semantic="VERTEX" source="#geometry0-vertex"/>
                    <input offset="1" semantic="NORMAL" source="#geometry0-normal"/>
                    <p>2 0 1 1 11 2 2 0 11 2 15 3 18 4 7 5 12 6 18 4 12 6 17 7 4 8 3 9 14 10 4 8 14 10 13 11 0 16 19 17 16 18 0 16 16 18 10 19 7 20 6 21 9 22 7 20 9 22 12 23 5 24 4 25 13 26 5 24 13 26 8 27 19 36 18 37 17 38 19 36 17 38 16 39 6 40 5 41 8 42 6 40 8 42 9 43 3 44 2 45 15 46 3 44 15 46 14 47 1 48 0 49 10 50 1 48 10 50 11 51 9 52 8 53 12 54 12 54 8 53 17 55 17 55 8 53 16 56 16 56 8 53 10 57 8 53 13 58 10 57 14 59 15 60 13 58 13 58 15 60 10 57 10 57 15 60 11 61</p>
                </triangles>
                <triangles count="8" material="default_ai_0.2_sh_0.2_tr_0.0_dc_r_1.0_g_0.2_b_0.2_sc_r_1.0_g_1.0_b_1.0_ec_r_0.0_g_0.0_b_0_tri">
                    <input offset="0" semantic="VERTEX" source="#geometry0-vertex"/>
                    <input offset="1" semantic="NORMAL" source="#geometry0-normal"/>
                    <p>7 12 18 13 19 14 7 12 19 14 0 15 6 28 7 29 0 30 5 31 6 28 0 30 4 32 5 31 0 30 2 33 3 34 4 32 2 33 4 32 0 30 2 33 0 30 1 35</p>
                </triangles>
            </mesh>
        </geometry>
    </library_geometries>
    <library_visual_scenes>
        <visual_scene id="Building_DEBW_5221000Qm6O">
            <node>
                <instance_geometry url="#geometry0">
                    <bind_material>
                        <technique_common>
                            <instance_material symbol="default_ai_0.2_sh_0.2_tr_0.0_dc_r_0.8_g_0.8_b_0.8_sc_r_1.0_g_1.0_b_1.0_ec_r_0.0_g_0.0_b_0_tri" target="#default_ai_0.2_sh_0.2_tr_0.0_dc_r_0.8_g_0.8_b_0.8_sc_r_1.0_g_1.0_b_1.0_ec_r_0.0_g_0.0_b_0_mat"/>
                            <instance_material symbol="default_ai_0.2_sh_0.2_tr_0.0_dc_r_1.0_g_0.2_b_0.2_sc_r_1.0_g_1.0_b_1.0_ec_r_0.0_g_0.0_b_0_tri" target="#default_ai_0.2_sh_0.2_tr_0.0_dc_r_1.0_g_0.2_b_0.2_sc_r_1.0_g_1.0_b_1.0_ec_r_0.0_g_0.0_b_0_mat"/>
                        </technique_common>
                    </bind_material>
                </instance_geometry>
            </node>
        </visual_scene>
    </library_visual_scenes>
    <scene>
        <instance_visual_scene url="#Building_DEBW_5221000Qm6O"/>
    </scene>
</COLLADA>
