<?xml version="1.0" encoding="UTF-8" standalone="yes"?>
<COLLADA xmlns="http://www.collada.org/2005/11/COLLADASchema" version="1.4.1">
    <asset>
        <contributor>
            <authoring_tool>3D City Database Importer/Exporter, version 5.5.3; Chair of Geoinformatics, Technical University of Munich</authoring_tool>
        </contributor>
        <created>2026-05-06T15:12:11.705</created>
        <modified>2026-05-06T15:12:11.705</modified>
        <unit meter="1.0" name="meters"/>
        <up_axis>Z_UP</up_axis>
    </asset>
    <library_materials>
        <material id="default_ai_0.2_sh_0.2_tr_0.0_dc_r_0.8_g_0.8_b_0.8_sc_r_1.0_g_1.0_b_1.0_ec_r_0.0_g_0.0_b_0_mat">
            <instance_effect url="#default_ai_0.2_sh_0.2_tr_0.0_dc_r_0.8_g_0.8_b_0.8_sc_r_1.0_g_1.0_b_1.0_ec_r_0.0_g_0.0_b_0_eff"/>
        </material>
        <material id="default_ai_0.2_sh_0.2_tr_0.0_dc_r_1.0_g_0.2_b_0.2_sc_r_1.0_g_1.0_b_1.0_ec_r_0.0_g_0.0_b_0_mat">
            <instance_effect url="#default_ai_0.2_sh_0.2_tr_0.0_dc_r_1.0_g_0.2_b_0.2_sc_r_1.0_g_1.0_b_1.0_ec_r_0.0_g_0.0_b_0_eff"/>
        </material>
    </library_materials>
    <library_effects>
        <effect id="default_ai_0.2_sh_0.2_tr_0.0_dc_r_0.8_g_0.8_b_0.8_sc_r_1.0_g_1.0_b_1.0_ec_r_0.0_g_0.0_b_0_eff">
            <profile_COMMON>
                <technique sid="COMMON">
                    <lambert>
                        <emission>
                            <color>0.0 0.0 0.0 1.0</color>
                        </emission>
                        <diffuse>
                            <color>0.8 0.8 0.8 1.0</color>
                        </diffuse>
                        <reflective>
                            <color>1.0 1.0 1.0 1.0</color>
                        </reflective>
                        <reflectivity>
                            <float>0.2</float>
                        </reflectivity>
                        <transparent opaque="A_ONE">
                            <color>1.0 1.0 1.0 1.0</color>
                        </transparent>
                        <transparency>
                            <float>1.0</float>
                        </transparency>
                    </lambert>
                </technique>
                <extra>
                    <technique profile="GOOGLEEARTH">
                        <double_sided>0</double_sided>
                    </technique>
                </extra>
            </profile_COMMON>
        </effect>
        <effect id="default_ai_0.2_sh_0.2_tr_0.0_dc_r_1.0_g_0.2_b_0.2_sc_r_1.0_g_1.0_b_1.0_ec_r_0.0_g_0.0_b_0_eff">
            <profile_COMMON>
                <technique sid="COMMON">
                    <lambert>
                        <emission>
                            <color>0.0 0.0 0.0 1.0</color>
                        </emission>
                        <diffuse>
                            <color>1.0 0.2 0.2 1.0</color>
                        </diffuse>
                        <reflective>
                            <color>1.0 1.0 1.0 1.0</color>
                        </reflective>
                        <reflectivity>
                            <float>0.2</float>
                        </reflectivity>
                        <transparent opaque="A_ONE">
                            <color>1.0 1.0 1.0 1.0</color>
                        </transparent>
                        <transparency>
                            <float>1.0</float>
                        </transparency>
                    </lambert>
                </technique>
                <extra>
                    <technique profile="GOOGLEEARTH">
                        <double_sided>0</double_sided>
                    </technique>
                </extra>
            </profile_COMMON>
        </effect>
    </library_effects>
    <library_geometries>
        <geometry id="geometry0">
            <mesh>
                <source id="geometry0-position">
                    <float_array id="geometry0-position-array" count="48">-0.943 5.886 14.843 0.0 0.0 9.71 0.0 0.0 0.0 -0.943 5.886 0.0 -11.59 2.57 13.483 -11.839 4.13 14.843 -11.839 4.13 0.0 -11.59 2.57 0.0 -12.79 10.05 9.699 -1.89 11.8 9.705 -1.89 11.8 0.0 -12.79 10.05 0.0 -12.54 8.51 11.037 -12.54 8.51 0.0 -10.87 -1.76 0.0 -10.87 -1.76 9.704</float_array>
                    <technique_common>
                        <accessor count="16" source="#geometry0-position-array" stride="3">
                            <param name="X" type="float"/>
                            <param name="Y" type="float"/>
                            <param name="Z" type="float"/>
                        </accessor>
                    </technique_common>
                </source>
                <source id="geometry0-normal">
                    <float_array id="geometry0-normal-array" count="150">-0.9874998 -0.1576199 0.0 -0.9874999 -0.1576199 0.0 -0.9874998 -0.1576199 0.0 -0.9874998 -0.1576199 0.0 0.9874208 0.1581142 0.0 0.9874208 0.1581142 0.0 0.9874208 0.1581142 0.0 0.9874208 0.1581142 0.0 -0.9864554 -0.1640296 0.0 -0.9864554 -0.1640296 0.0 -0.9864554 -0.1640296 0.0 -0.9864554 -0.1640296 0.0 0.159832 -0.9871442 0.0 0.159832 -0.9871443 0.0 0.159832 -0.9871442 0.0 0.159832 -0.9871442 0.0 -0.1036192 0.6427943 0.7589985 -0.1036073 0.6428847 0.7589236 -0.1036273 0.6428431 0.7589559 -0.1036252 0.642749 0.7590359 -0.103603 0.6426963 0.7590835 -0.9874336 -0.1580345 0.0 -0.9874336 -0.1580345 0.0 -0.9874336 -0.1580345 0.0 -0.9874336 -0.1580345 0.0 0.0 0.0 -1.0 0.0 0.0 -1.0 0.0 0.0 -1.0 0.0 0.0 -1.0 0.0 0.0 -1.0 0.0 0.0 -1.0 0.0 0.0 -1.0 0.0 0.0 -1.0 0.103859 -0.6441447 0.7578198 0.1038195 -0.6442013 0.7577772 0.1038513 -0.6441543 0.7578127 0.1038788 -0.6441165 0.7578412 0.1038744 -0.6441257 0.757834 -0.1585204 0.9873557 0.0 -0.1585204 0.9873557 0.0 -0.1585204 0.9873557 0.0 -0.1585204 0.9873557 0.0 -0.9870781 -0.1602399 0.0 -0.9870781 -0.1602399 0.0 -0.9870781 -0.1602399 0.0 -0.9870781 -0.1602399 0.0 0.9874082 0.1581933 0.0 0.9874082 0.1581933 0.0 0.9874082 0.1581933 0.0 0.9874082 0.1581933 0.0</float_array>
                    <technique_common>
                        <accessor count="50" source="#geometry0-normal-array" stride="3">
                            <param name="X" type="float"/>
                            <param name="Y" type="float"/>
                            <param name="Z" type="float"/>
                        </accessor>
                    </technique_common>
                </source>
                <vertices id="geometry0-vertex">
                    <input semantic="POSITION" source="#geometry0-position"/>
                </vertices>
                <triangles count="22" material="default_ai_0.2_sh_0.2_tr_0.0_dc_r_0.8_g_0.8_b_0.8_sc_r_1.0_g_1.0_b_1.0_ec_r_0.0_g_0.0_b_0_tri">
                    <input offset="0" semantic="VERTEX" source="#geometry0-vertex"/>
                    <input offset="1" semantic="NORMAL" source="#geometry0-normal"/>
                    <p>4 0 5 1 6 2 4 0 6 2 7 3 9 4 0 5 3 6 9 4 3 6 10 7 15 8 4 9 7 10 15 8 7 10 14 11 1 12 15 13 14 14 1 12 14 14 2 15 5 21 12 22 13 23 5 21 13 23 6 24 2 25 14 26 7 27 2 25 7 27 6 28 2 25 6 28 13 29 2 25 13 29 11 30 3 31 2 25 11 30 3 31 11 30 10 32 8 38 9 39 10 40 8 38 10 40 11 41 12 42 8 43 11 44 12 42 11 44 13 45 0 46 1 47 2 48 0 46 2 48 3 49</p>
                </triangles>
                <triangles count="6" material="default_ai_0.2_sh_0.2_tr_0.0_dc_r_1.0_g_0.2_b_0.2_sc_r_1.0_g_1.0_b_1.0_ec_r_0.0_g_0.0_b_0_tri">
                    <input offset="0" semantic="VERTEX" source="#geometry0-vertex"/>
                    <input offset="1" semantic="NORMAL" source="#geometry0-normal"/>
                    <p>12 16 5 17 0 18 12 16 0 18 9 19 12 16 9 19 8 20 1 33 0 34 5 35 1 33 5 35 4 36 1 33 4 36 15 37</p>
                </triangles>
            </mesh>
        </geometry>
    </library_geometries>
    <library_visual_scenes>
        <visual_scene id="Building_DEBW_5221000QU3o">
            <node>
                <instance_geometry url="#geometry0">
                    <bind_material>
                        <technique_common>
                            <instance_material symbol="default_ai_0.2_sh_0.2_tr_0.0_dc_r_0.8_g_0.8_b_0.8_sc_r_1.0_g_1.0_b_1.0_ec_r_0.0_g_0.0_b_0_tri" target="#default_ai_0.2_sh_0.2_tr_0.0_dc_r_0.8_g_0.8_b_0.8_sc_r_1.0_g_1.0_b_1.0_ec_r_0.0_g_0.0_b_0_mat"/>
                            <instance_material symbol="default_ai_0.2_sh_0.2_tr_0.0_dc_r_1.0_g_0.2_b_0.2_sc_r_1.0_g_1.0_b_1.0_ec_r_0.0_g_0.0_b_0_tri" target="#default_ai_0.2_sh_0.2_tr_0.0_dc_r_1.0_g_0.2_b_0.2_sc_r_1.0_g_1.0_b_1.0_ec_r_0.0_g_0.0_b_0_mat"/>
                        </technique_common>
                    </bind_material>
                </instance_geometry>
            </node>
        </visual_scene>
    </library_visual_scenes>
    <scene>
        <instance_visual_scene url="#Building_DEBW_5221000QU3o"/>
    </scene>
</COLLADA>
