<?xml version="1.0" encoding="UTF-8" standalone="yes"?>
<COLLADA xmlns="http://www.collada.org/2005/11/COLLADASchema" version="1.4.1">
    <asset>
        <contributor>
            <authoring_tool>3D City Database Importer/Exporter, version 5.5.3; Chair of Geoinformatics, Technical University of Munich</authoring_tool>
        </contributor>
        <created>2026-05-06T15:12:06.511</created>
        <modified>2026-05-06T15:12:06.511</modified>
        <unit meter="1.0" name="meters"/>
        <up_axis>Z_UP</up_axis>
    </asset>
    <library_materials>
        <material id="default_ai_0.2_sh_0.2_tr_0.0_dc_r_0.8_g_0.8_b_0.8_sc_r_1.0_g_1.0_b_1.0_ec_r_0.0_g_0.0_b_0_mat">
            <instance_effect url="#default_ai_0.2_sh_0.2_tr_0.0_dc_r_0.8_g_0.8_b_0.8_sc_r_1.0_g_1.0_b_1.0_ec_r_0.0_g_0.0_b_0_eff"/>
        </material>
        <material id="default_ai_0.2_sh_0.2_tr_0.0_dc_r_1.0_g_0.2_b_0.2_sc_r_1.0_g_1.0_b_1.0_ec_r_0.0_g_0.0_b_0_mat">
            <instance_effect url="#default_ai_0.2_sh_0.2_tr_0.0_dc_r_1.0_g_0.2_b_0.2_sc_r_1.0_g_1.0_b_1.0_ec_r_0.0_g_0.0_b_0_eff"/>
        </material>
    </library_materials>
    <library_effects>
        <effect id="default_ai_0.2_sh_0.2_tr_0.0_dc_r_0.8_g_0.8_b_0.8_sc_r_1.0_g_1.0_b_1.0_ec_r_0.0_g_0.0_b_0_eff">
            <profile_COMMON>
                <technique sid="COMMON">
                    <lambert>
                        <emission>
                            <color>0.0 0.0 0.0 1.0</color>
                        </emission>
                        <diffuse>
                            <color>0.8 0.8 0.8 1.0</color>
                        </diffuse>
                        <reflective>
                            <color>1.0 1.0 1.0 1.0</color>
                        </reflective>
                        <reflectivity>
                            <float>0.2</float>
                        </reflectivity>
                        <transparent opaque="A_ONE">
                            <color>1.0 1.0 1.0 1.0</color>
                        </transparent>
                        <transparency>
                            <float>1.0</float>
                        </transparency>
                    </lambert>
                </technique>
                <extra>
                    <technique profile="GOOGLEEARTH">
                        <double_sided>0</double_sided>
                    </technique>
                </extra>
            </profile_COMMON>
        </effect>
        <effect id="default_ai_0.2_sh_0.2_tr_0.0_dc_r_1.0_g_0.2_b_0.2_sc_r_1.0_g_1.0_b_1.0_ec_r_0.0_g_0.0_b_0_eff">
            <profile_COMMON>
                <technique sid="COMMON">
                    <lambert>
                        <emission>
                            <color>0.0 0.0 0.0 1.0</color>
                        </emission>
                        <diffuse>
                            <color>1.0 0.2 0.2 1.0</color>
                        </diffuse>
                        <reflective>
                            <color>1.0 1.0 1.0 1.0</color>
                        </reflective>
                        <reflectivity>
                            <float>0.2</float>
                        </reflectivity>
                        <transparent opaque="A_ONE">
                            <color>1.0 1.0 1.0 1.0</color>
                        </transparent>
                        <transparency>
                            <float>1.0</float>
                        </transparency>
                    </lambert>
                </technique>
                <extra>
                    <technique profile="GOOGLEEARTH">
                        <double_sided>0</double_sided>
                    </technique>
                </extra>
            </profile_COMMON>
        </effect>
    </library_effects>
    <library_geometries>
        <geometry id="geometry0">
            <mesh>
                <source id="geometry0-position">
                    <float_array id="geometry0-position-array" count="42">2.52 -2.2 4.058 5.12 -0.86 4.047 3.829 -1.525 5.24 1.69 -3.3 3.046 2.76 -2.66 4.047 2.274 1.266 5.24 0.0 0.0 3.149 0.0 0.0 0.0 3.52 1.96 0.0 5.12 -0.86 0.0 2.52 -2.2 0.0 2.76 -2.66 0.0 1.69 -3.3 0.0 3.52 1.96 4.068</float_array>
                    <technique_common>
                        <accessor count="14" source="#geometry0-position-array" stride="3">
                            <param name="X" type="float"/>
                            <param name="Y" type="float"/>
                            <param name="Z" type="float"/>
                        </accessor>
                    </technique_common>
                </source>
                <source id="geometry0-normal">
                    <float_array id="geometry0-normal-array" count="138">0.4581212 -0.8888897 2.706E-4 0.4581212 -0.8888897 2.706E-4 0.4581212 -0.8888897 2.706E-4 0.8865849 0.462566 0.0 0.8865848 0.462566 0.0 0.8865849 0.462566 0.0 0.8865849 0.462566 0.0 0.8697575 0.4934793 0.0 0.8697575 0.4934794 0.0 0.8697575 0.4934793 0.0 0.8697575 0.4934794 0.0 -0.4865094 0.8736753 1.193E-4 -0.4865094 0.8736753 1.193E-4 -0.4865094 0.8736753 1.193E-4 -0.4864857 0.8736886 0.0 -0.4864857 0.8736886 0.0 -0.4864857 0.8736886 0.0 -0.4864857 0.8736885 0.0 -0.89007 -0.4558238 0.0 -0.89007 -0.4558238 0.0 -0.89007 -0.4558238 0.0 -0.89007 -0.4558238 0.0 0.0 0.0 -1.0 0.0 0.0 -1.0 0.0 0.0 -1.0 0.0 0.0 -1.0 0.0 0.0 -1.0 0.0 0.0 -1.0 0.5546707 0.308994 0.7725692 0.5547279 0.3089863 0.7725312 0.5546707 0.308994 0.7725692 0.5546135 0.3090017 0.7726073 -0.5470315 -0.3046882 0.7796933 -0.5472583 -0.3045946 0.7795706 -0.5471758 -0.3045224 0.7796568 -0.5470722 -0.3045677 0.7797119 -0.5469474 -0.3047307 0.7797357 -0.5473801 -0.3042331 0.7796263 0.4581203 -0.8888902 0.0 0.4581204 -0.8888902 0.0 0.4581203 -0.8888902 0.0 0.4581203 -0.8888902 0.0 0.5133157 -0.8582 0.0 0.5133157 -0.8582 0.0 0.5133157 -0.8582 0.0 0.5133157 -0.8582 0.0</float_array>
                    <technique_common>
                        <accessor count="46" source="#geometry0-normal-array" stride="3">
                            <param name="X" type="float"/>
                            <param name="Y" type="float"/>
                            <param name="Z" type="float"/>
                        </accessor>
                    </technique_common>
                </source>
                <vertices id="geometry0-vertex">
                    <input semantic="POSITION" source="#geometry0-position"/>
                </vertices>
                <triangles count="18" material="default_ai_0.2_sh_0.2_tr_0.0_dc_r_0.8_g_0.8_b_0.8_sc_r_1.0_g_1.0_b_1.0_ec_r_0.0_g_0.0_b_0_tri">
                    <input offset="0" semantic="VERTEX" source="#geometry0-vertex"/>
                    <input offset="1" semantic="NORMAL" source="#geometry0-normal"/>
                    <p>0 0 1 1 2 2 0 3 4 4 11 5 0 3 11 5 10 6 13 7 1 8 9 9 13 7 9 9 8 10 13 11 6 12 5 13 6 14 13 15 8 16 6 14 8 16 7 17 3 18 6 19 7 20 3 18 7 20 12 21 11 22 12 23 7 24 10 25 11 22 7 24 10 25 7 24 8 26 10 25 8 26 9 27 1 38 0 39 10 40 1 38 10 40 9 41 4 42 3 43 12 44 4 42 12 44 11 45</p>
                </triangles>
                <triangles count="6" material="default_ai_0.2_sh_0.2_tr_0.0_dc_r_1.0_g_0.2_b_0.2_sc_r_1.0_g_1.0_b_1.0_ec_r_0.0_g_0.0_b_0_tri">
                    <input offset="0" semantic="VERTEX" source="#geometry0-vertex"/>
                    <input offset="1" semantic="NORMAL" source="#geometry0-normal"/>
                    <p>2 28 1 29 13 30 2 28 13 30 5 31 5 32 6 33 3 34 0 35 2 36 5 32 0 35 5 32 3 34 0 35 3 34 4 37</p>
                </triangles>
            </mesh>
        </geometry>
    </library_geometries>
    <library_visual_scenes>
        <visual_scene id="Building_DEBW_5221000Qh6i">
            <node>
                <instance_geometry url="#geometry0">
                    <bind_material>
                        <technique_common>
                            <instance_material symbol="default_ai_0.2_sh_0.2_tr_0.0_dc_r_0.8_g_0.8_b_0.8_sc_r_1.0_g_1.0_b_1.0_ec_r_0.0_g_0.0_b_0_tri" target="#default_ai_0.2_sh_0.2_tr_0.0_dc_r_0.8_g_0.8_b_0.8_sc_r_1.0_g_1.0_b_1.0_ec_r_0.0_g_0.0_b_0_mat"/>
                            <instance_material symbol="default_ai_0.2_sh_0.2_tr_0.0_dc_r_1.0_g_0.2_b_0.2_sc_r_1.0_g_1.0_b_1.0_ec_r_0.0_g_0.0_b_0_tri" target="#default_ai_0.2_sh_0.2_tr_0.0_dc_r_1.0_g_0.2_b_0.2_sc_r_1.0_g_1.0_b_1.0_ec_r_0.0_g_0.0_b_0_mat"/>
                        </technique_common>
                    </bind_material>
                </instance_geometry>
            </node>
        </visual_scene>
    </library_visual_scenes>
    <scene>
        <instance_visual_scene url="#Building_DEBW_5221000Qh6i"/>
    </scene>
</COLLADA>
