<?xml version="1.0" encoding="UTF-8" standalone="yes"?>
<COLLADA xmlns="http://www.collada.org/2005/11/COLLADASchema" version="1.4.1">
    <asset>
        <contributor>
            <authoring_tool>3D City Database Importer/Exporter, version 5.5.3; Chair of Geoinformatics, Technical University of Munich</authoring_tool>
        </contributor>
        <created>2026-05-06T15:12:18.262</created>
        <modified>2026-05-06T15:12:18.262</modified>
        <unit meter="1.0" name="meters"/>
        <up_axis>Z_UP</up_axis>
    </asset>
    <library_materials>
        <material id="default_ai_0.2_sh_0.2_tr_0.0_dc_r_1.0_g_0.2_b_0.2_sc_r_1.0_g_1.0_b_1.0_ec_r_0.0_g_0.0_b_0_mat">
            <instance_effect url="#default_ai_0.2_sh_0.2_tr_0.0_dc_r_1.0_g_0.2_b_0.2_sc_r_1.0_g_1.0_b_1.0_ec_r_0.0_g_0.0_b_0_eff"/>
        </material>
        <material id="default_ai_0.2_sh_0.2_tr_0.0_dc_r_0.8_g_0.8_b_0.8_sc_r_1.0_g_1.0_b_1.0_ec_r_0.0_g_0.0_b_0_mat">
            <instance_effect url="#default_ai_0.2_sh_0.2_tr_0.0_dc_r_0.8_g_0.8_b_0.8_sc_r_1.0_g_1.0_b_1.0_ec_r_0.0_g_0.0_b_0_eff"/>
        </material>
    </library_materials>
    <library_effects>
        <effect id="default_ai_0.2_sh_0.2_tr_0.0_dc_r_1.0_g_0.2_b_0.2_sc_r_1.0_g_1.0_b_1.0_ec_r_0.0_g_0.0_b_0_eff">
            <profile_COMMON>
                <technique sid="COMMON">
                    <lambert>
                        <emission>
                            <color>0.0 0.0 0.0 1.0</color>
                        </emission>
                        <diffuse>
                            <color>1.0 0.2 0.2 1.0</color>
                        </diffuse>
                        <reflective>
                            <color>1.0 1.0 1.0 1.0</color>
                        </reflective>
                        <reflectivity>
                            <float>0.2</float>
                        </reflectivity>
                        <transparent opaque="A_ONE">
                            <color>1.0 1.0 1.0 1.0</color>
                        </transparent>
                        <transparency>
                            <float>1.0</float>
                        </transparency>
                    </lambert>
                </technique>
                <extra>
                    <technique profile="GOOGLEEARTH">
                        <double_sided>0</double_sided>
                    </technique>
                </extra>
            </profile_COMMON>
        </effect>
        <effect id="default_ai_0.2_sh_0.2_tr_0.0_dc_r_0.8_g_0.8_b_0.8_sc_r_1.0_g_1.0_b_1.0_ec_r_0.0_g_0.0_b_0_eff">
            <profile_COMMON>
                <technique sid="COMMON">
                    <lambert>
                        <emission>
                            <color>0.0 0.0 0.0 1.0</color>
                        </emission>
                        <diffuse>
                            <color>0.8 0.8 0.8 1.0</color>
                        </diffuse>
                        <reflective>
                            <color>1.0 1.0 1.0 1.0</color>
                        </reflective>
                        <reflectivity>
                            <float>0.2</float>
                        </reflectivity>
                        <transparent opaque="A_ONE">
                            <color>1.0 1.0 1.0 1.0</color>
                        </transparent>
                        <transparency>
                            <float>1.0</float>
                        </transparency>
                    </lambert>
                </technique>
                <extra>
                    <technique profile="GOOGLEEARTH">
                        <double_sided>0</double_sided>
                    </technique>
                </extra>
            </profile_COMMON>
        </effect>
    </library_effects>
    <library_geometries>
        <geometry id="geometry0">
            <mesh>
                <source id="geometry0-position">
                    <float_array id="geometry0-position-array" count="72">-5.63 -12.42 8.914 0.0 0.0 8.914 0.0 0.0 0.0 -5.63 -12.42 0.0 -5.63 -12.42 8.866 22.85 31.02 0.0 1.356 -15.663 0.0 -0.024 0.016 0.0 15.48 34.41 0.0 -0.024 0.016 8.914 15.48 34.41 8.914 22.85 31.02 8.914 1.356 -15.663 8.914 1.356 -15.663 8.866 -0.024 0.016 9.702 15.48 34.41 9.702 -0.27 0.18 9.702 -0.27 0.18 0.0 -14.87 -21.23 8.866 -9.96 -10.41 8.866 -9.96 -10.41 0.0 -14.87 -21.23 0.0 -3.56 -26.34 8.866 -3.56 -26.34 0.0</float_array>
                    <technique_common>
                        <accessor count="24" source="#geometry0-position-array" stride="3">
                            <param name="X" type="float"/>
                            <param name="Y" type="float"/>
                            <param name="Z" type="float"/>
                        </accessor>
                    </technique_common>
                </source>
                <source id="geometry0-normal">
                    <float_array id="geometry0-normal-array" count="288">0.0 0.0 1.0 0.0 0.0 1.0 0.0 0.0 1.0 0.0 0.0 1.0 0.0 0.0 1.0 0.0 0.0 1.0 0.9116565 -0.4109531 0.0 0.9116565 -0.4109531 0.0 0.9116565 -0.4109531 0.0 0.9116565 -0.4109531 0.0 -0.9107929 0.4128635 0.0 -0.9107929 0.4128635 0.0 -0.9107929 0.4128635 0.0 -0.9107929 0.4128635 0.0 -0.9107929 0.4128635 0.0 0.0 0.0 1.0 0.0 0.0 1.0 0.0 0.0 1.0 -0.9084482 0.4179977 0.0 -0.9084482 0.4179976 0.0 -0.9084482 0.4179977 0.0 -0.9084482 0.4179977 0.0 -0.9084482 0.4179976 0.0 0.9116566 -0.4109532 0.0 0.9116566 -0.4109532 0.0 0.9116566 -0.4109532 0.0 0.9116566 -0.4109532 0.0 0.0 0.0 1.0 0.0 0.0 1.0 0.0 0.0 1.0 0.0 0.0 1.0 0.0 0.0 1.0 -0.4117379 -0.9113024 0.0 -0.4117379 -0.9113024 0.0 -0.4117379 -0.9113024 0.0 -0.4117379 -0.9113024 0.0 -0.4210579 -0.9070338 0.0 -0.4210579 -0.9070338 0.0 -0.4210579 -0.9070338 0.0 -0.4210579 -0.9070338 0.0 0.4210498 0.9070375 0.0 0.4210498 0.9070375 0.0 0.4210498 0.9070375 0.0 0.4210498 0.9070375 0.0 0.4178852 0.9084998 0.0 0.4178852 0.9084998 0.0 0.4178852 0.9084998 0.0 0.4178852 0.9084998 0.0 0.0 0.0 -1.0 0.0 0.0 -1.0 0.0 0.0 -1.0 0.0 0.0 -1.0 0.0 0.0 -1.0 -0.4210579 -0.9070337 0.0 -0.4210579 -0.9070337 0.0 -0.4210579 -0.9070337 0.0 -0.4210579 -0.9070337 0.0 -0.9116565 0.4109531 0.0 -0.9116565 0.4109531 0.0 -0.9116565 0.4109531 0.0 -0.9116565 0.4109531 0.0 -0.5547001 -0.8320503 0.0 -0.5547001 -0.8320503 0.0 -0.5547001 -0.8320503 0.0 -0.5547001 -0.8320503 0.0 -0.5547002 -0.8320503 0.0 -0.5547002 -0.8320504 0.0 -0.5547002 -0.8320504 0.0 -0.5547002 -0.8320504 0.0 -0.5547002 -0.8320504 0.0 0.0 0.0 -1.0 0.0 0.0 -1.0 0.0 0.0 -1.0 0.4210579 0.9070337 0.0 0.4210579 0.9070337 0.0 0.4210579 0.9070337 0.0 0.4210579 0.9070337 0.0 0.908344 -0.4182239 0.0 0.908344 -0.4182239 0.0 0.908344 -0.4182239 0.0 0.908344 -0.4182239 0.0 0.908344 -0.4182239 0.0 0.9083425 -0.4182272 0.0 0.9083425 -0.4182272 0.0 0.9083425 -0.4182272 0.0 0.9083425 -0.4182272 0.0 0.0 0.0 -1.0 0.0 0.0 -1.0 0.0 0.0 -1.0 0.0 0.0 -1.0 0.0 0.0 -1.0 0.0 0.0 -1.0 -0.9106257 0.4132321 0.0 -0.9106257 0.4132321 0.0 -0.9106257 0.4132321 0.0 -0.9106257 0.4132321 0.0</float_array>
                    <technique_common>
                        <accessor count="96" source="#geometry0-normal-array" stride="3">
                            <param name="X" type="float"/>
                            <param name="Y" type="float"/>
                            <param name="Z" type="float"/>
                        </accessor>
                    </technique_common>
                </source>
                <vertices id="geometry0-vertex">
                    <input semantic="POSITION" source="#geometry0-position"/>
                </vertices>
                <triangles count="44" material="default_ai_0.2_sh_0.2_tr_0.0_dc_r_0.8_g_0.8_b_0.8_sc_r_1.0_g_1.0_b_1.0_ec_r_0.0_g_0.0_b_0_tri">
                    <input offset="0" semantic="VERTEX" source="#geometry0-vertex"/>
                    <input offset="1" semantic="NORMAL" source="#geometry0-normal"/>
                    <p>9 6 7 7 8 8 9 6 8 8 10 9 2 10 3 11 4 12 2 10 4 12 0 13 2 10 0 13 1 14 8 18 17 19 16 20 10 21 8 18 16 20 10 21 16 20 15 22 9 23 10 24 15 25 9 23 15 25 14 26 22 32 18 33 21 34 22 32 21 34 23 35 4 36 13 37 12 38 4 36 12 38 0 39 19 40 4 41 3 42 19 40 3 42 20 43 10 44 11 45 5 46 10 44 5 46 8 47 20 48 3 49 6 50 20 48 6 50 23 51 20 48 23 51 21 52 4 53 3 54 6 55 4 53 6 55 13 56 8 57 7 58 9 59 8 57 9 59 10 60 17 61 7 62 9 63 17 61 9 63 14 64 17 61 14 64 16 65 1 66 9 67 7 68 1 66 7 68 2 69 17 70 8 71 7 72 6 73 3 74 4 75 6 73 4 75 13 76 6 77 5 78 11 79 13 80 6 77 11 79 13 80 11 79 12 81 13 82 22 83 23 84 13 82 23 84 6 85 7 86 8 87 5 88 2 89 7 86 5 88 2 89 5 88 6 90 2 89 6 90 3 91 18 92 19 93 20 94 18 92 20 94 21 95</p>
                </triangles>
                <triangles count="8" material="default_ai_0.2_sh_0.2_tr_0.0_dc_r_1.0_g_0.2_b_0.2_sc_r_1.0_g_1.0_b_1.0_ec_r_0.0_g_0.0_b_0_tri">
                    <input offset="0" semantic="VERTEX" source="#geometry0-vertex"/>
                    <input offset="1" semantic="NORMAL" source="#geometry0-normal"/>
                    <p>12 0 11 1 10 2 1 3 0 4 12 0 1 3 12 0 10 2 1 3 10 2 9 5 14 15 15 16 16 17 22 27 13 28 4 29 22 27 4 29 19 30 22 27 19 30 18 31</p>
                </triangles>
            </mesh>
        </geometry>
    </library_geometries>
    <library_visual_scenes>
        <visual_scene id="Building_DEBW_5221000R0NO">
            <node>
                <instance_geometry url="#geometry0">
                    <bind_material>
                        <technique_common>
                            <instance_material symbol="default_ai_0.2_sh_0.2_tr_0.0_dc_r_0.8_g_0.8_b_0.8_sc_r_1.0_g_1.0_b_1.0_ec_r_0.0_g_0.0_b_0_tri" target="#default_ai_0.2_sh_0.2_tr_0.0_dc_r_0.8_g_0.8_b_0.8_sc_r_1.0_g_1.0_b_1.0_ec_r_0.0_g_0.0_b_0_mat"/>
                            <instance_material symbol="default_ai_0.2_sh_0.2_tr_0.0_dc_r_1.0_g_0.2_b_0.2_sc_r_1.0_g_1.0_b_1.0_ec_r_0.0_g_0.0_b_0_tri" target="#default_ai_0.2_sh_0.2_tr_0.0_dc_r_1.0_g_0.2_b_0.2_sc_r_1.0_g_1.0_b_1.0_ec_r_0.0_g_0.0_b_0_mat"/>
                        </technique_common>
                    </bind_material>
                </instance_geometry>
            </node>
        </visual_scene>
    </library_visual_scenes>
    <scene>
        <instance_visual_scene url="#Building_DEBW_5221000R0NO"/>
    </scene>
</COLLADA>
