<?xml version="1.0" encoding="UTF-8" standalone="yes"?>
<COLLADA xmlns="http://www.collada.org/2005/11/COLLADASchema" version="1.4.1">
    <asset>
        <contributor>
            <authoring_tool>3D City Database Importer/Exporter, version 5.5.3; Chair of Geoinformatics, Technical University of Munich</authoring_tool>
        </contributor>
        <created>2026-05-06T15:12:05.858</created>
        <modified>2026-05-06T15:12:05.858</modified>
        <unit meter="1.0" name="meters"/>
        <up_axis>Z_UP</up_axis>
    </asset>
    <library_materials>
        <material id="default_ai_0.2_sh_0.2_tr_0.0_dc_r_0.8_g_0.8_b_0.8_sc_r_1.0_g_1.0_b_1.0_ec_r_0.0_g_0.0_b_0_mat">
            <instance_effect url="#default_ai_0.2_sh_0.2_tr_0.0_dc_r_0.8_g_0.8_b_0.8_sc_r_1.0_g_1.0_b_1.0_ec_r_0.0_g_0.0_b_0_eff"/>
        </material>
        <material id="default_ai_0.2_sh_0.2_tr_0.0_dc_r_1.0_g_0.2_b_0.2_sc_r_1.0_g_1.0_b_1.0_ec_r_0.0_g_0.0_b_0_mat">
            <instance_effect url="#default_ai_0.2_sh_0.2_tr_0.0_dc_r_1.0_g_0.2_b_0.2_sc_r_1.0_g_1.0_b_1.0_ec_r_0.0_g_0.0_b_0_eff"/>
        </material>
    </library_materials>
    <library_effects>
        <effect id="default_ai_0.2_sh_0.2_tr_0.0_dc_r_0.8_g_0.8_b_0.8_sc_r_1.0_g_1.0_b_1.0_ec_r_0.0_g_0.0_b_0_eff">
            <profile_COMMON>
                <technique sid="COMMON">
                    <lambert>
                        <emission>
                            <color>0.0 0.0 0.0 1.0</color>
                        </emission>
                        <diffuse>
                            <color>0.8 0.8 0.8 1.0</color>
                        </diffuse>
                        <reflective>
                            <color>1.0 1.0 1.0 1.0</color>
                        </reflective>
                        <reflectivity>
                            <float>0.2</float>
                        </reflectivity>
                        <transparent opaque="A_ONE">
                            <color>1.0 1.0 1.0 1.0</color>
                        </transparent>
                        <transparency>
                            <float>1.0</float>
                        </transparency>
                    </lambert>
                </technique>
                <extra>
                    <technique profile="GOOGLEEARTH">
                        <double_sided>0</double_sided>
                    </technique>
                </extra>
            </profile_COMMON>
        </effect>
        <effect id="default_ai_0.2_sh_0.2_tr_0.0_dc_r_1.0_g_0.2_b_0.2_sc_r_1.0_g_1.0_b_1.0_ec_r_0.0_g_0.0_b_0_eff">
            <profile_COMMON>
                <technique sid="COMMON">
                    <lambert>
                        <emission>
                            <color>0.0 0.0 0.0 1.0</color>
                        </emission>
                        <diffuse>
                            <color>1.0 0.2 0.2 1.0</color>
                        </diffuse>
                        <reflective>
                            <color>1.0 1.0 1.0 1.0</color>
                        </reflective>
                        <reflectivity>
                            <float>0.2</float>
                        </reflectivity>
                        <transparent opaque="A_ONE">
                            <color>1.0 1.0 1.0 1.0</color>
                        </transparent>
                        <transparency>
                            <float>1.0</float>
                        </transparency>
                    </lambert>
                </technique>
                <extra>
                    <technique profile="GOOGLEEARTH">
                        <double_sided>0</double_sided>
                    </technique>
                </extra>
            </profile_COMMON>
        </effect>
    </library_effects>
    <library_geometries>
        <geometry id="geometry0">
            <mesh>
                <source id="geometry0-position">
                    <float_array id="geometry0-position-array" count="48">0.68 -6.43 7.53 0.0 0.0 7.53 0.0 0.0 0.0 0.68 -6.43 0.0 16.875 -2.878 13.379 17.42 -7.89 7.53 16.33 2.13 7.53 1.02 -9.67 7.53 1.02 -9.67 0.0 15.08 -8.14 7.53 15.08 -8.14 0.0 17.42 -7.89 0.0 0.49 -4.635 13.409 -0.04 0.4 7.53 16.33 2.13 0.0 -0.04 0.4 0.0</float_array>
                    <technique_common>
                        <accessor count="16" source="#geometry0-position-array" stride="3">
                            <param name="X" type="float"/>
                            <param name="Y" type="float"/>
                            <param name="Z" type="float"/>
                        </accessor>
                    </technique_common>
                </source>
                <source id="geometry0-normal">
                    <float_array id="geometry0-normal-array" count="180">-0.994539 -0.1043652 -2.767E-4 -0.994539 -0.1043652 -2.767E-4 -0.994539 -0.1043652 -2.767E-4 0.0819739 -0.7533028 0.6525452 0.0819739 -0.7533028 0.6525452 0.0819739 -0.7533028 0.6525452 0.081973 -0.7533019 0.6525463 0.081973 -0.7533019 0.6525463 0.081973 -0.7533019 0.6525463 -0.9950272 -0.0995027 0.0044851 -0.9950272 -0.0995027 0.0044851 -0.9950272 -0.0995027 0.0044851 -0.9950372 -0.0995037 0.0 -0.9950372 -0.0995037 0.0 -0.9950372 -0.0995037 0.0 -0.9950372 -0.0995037 0.0 0.0 0.0 -1.0 0.0 0.0 -1.0 0.0 0.0 -1.0 0.0 0.0 -1.0 0.0 0.0 -1.0 0.0 0.0 -1.0 0.0 0.0 -1.0 -0.9944544 -0.1051678 0.0 -0.9944544 -0.1051678 0.0 -0.9944544 -0.1051678 0.0 -0.9944544 -0.1051678 0.0 -0.1050959 0.9944621 0.0 -0.1050959 0.9944621 0.0 -0.1050959 0.9944621 0.0 -0.1050959 0.9944621 0.0 0.9941352 0.1081445 0.0 0.9941352 0.1081445 0.0 0.9941352 0.1081445 0.0 0.9941352 0.1081445 0.0 -0.9944545 -0.1051678 -2.89E-5 -0.9944545 -0.1051678 -2.89E-5 -0.9944545 -0.1051678 -2.89E-5 -0.9945391 -0.1043652 0.0 -0.9945391 -0.1043652 0.0 -0.9945391 -0.1043652 0.0 -0.9945391 -0.1043652 0.0 0.1062332 -0.9943413 0.0 0.1062332 -0.9943413 0.0 0.1062332 -0.9943413 0.0 0.1062332 -0.9943413 0.0 0.9941352 0.1081445 -3.7E-5 0.9941352 0.1081445 -3.7E-5 0.9941352 0.1081445 -3.7E-5 -0.0796213 0.7535339 0.6525695 -0.0796065 0.7535174 0.6525904 -0.0796213 0.7535339 0.6525695 -0.0796361 0.7535505 0.6525487 0.1081807 -0.9941313 0.0 0.1081807 -0.9941313 0.0 0.1081807 -0.9941313 0.0 0.1081807 -0.9941313 0.0 0.0804669 -0.7531689 0.6528872 0.0804669 -0.7531689 0.6528872 0.0804669 -0.7531689 0.6528872</float_array>
                    <technique_common>
                        <accessor count="60" source="#geometry0-normal-array" stride="3">
                            <param name="X" type="float"/>
                            <param name="Y" type="float"/>
                            <param name="Z" type="float"/>
                        </accessor>
                    </technique_common>
                </source>
                <vertices id="geometry0-vertex">
                    <input semantic="POSITION" source="#geometry0-position"/>
                </vertices>
                <triangles count="23" material="default_ai_0.2_sh_0.2_tr_0.0_dc_r_0.8_g_0.8_b_0.8_sc_r_1.0_g_1.0_b_1.0_ec_r_0.0_g_0.0_b_0_tri">
                    <input offset="0" semantic="VERTEX" source="#geometry0-vertex"/>
                    <input offset="1" semantic="NORMAL" source="#geometry0-normal"/>
                    <p>12 0 0 1 7 2 1 9 12 10 13 11 1 12 13 13 15 14 1 12 15 14 2 15 14 16 11 17 10 18 14 16 10 18 8 19 14 16 8 19 3 20 14 16 3 20 2 21 14 16 2 21 15 22 0 23 1 24 2 25 0 23 2 25 3 26 13 27 6 28 14 29 13 27 14 29 15 30 6 31 5 32 11 33 6 31 11 33 14 34 0 35 12 36 1 37 7 38 0 39 3 40 7 38 3 40 8 41 5 42 9 43 10 44 5 42 10 44 11 45 4 46 5 47 6 48 9 53 7 54 8 55 9 53 8 55 10 56</p>
                </triangles>
                <triangles count="5" material="default_ai_0.2_sh_0.2_tr_0.0_dc_r_1.0_g_0.2_b_0.2_sc_r_1.0_g_1.0_b_1.0_ec_r_0.0_g_0.0_b_0_tri">
                    <input offset="0" semantic="VERTEX" source="#geometry0-vertex"/>
                    <input offset="1" semantic="NORMAL" source="#geometry0-normal"/>
                    <p>9 3 4 4 7 5 7 6 4 7 12 8 12 49 4 50 6 51 12 49 6 51 13 52 4 57 9 58 5 59</p>
                </triangles>
            </mesh>
        </geometry>
    </library_geometries>
    <library_visual_scenes>
        <visual_scene id="Building_DEBW_5221000QhWq">
            <node>
                <instance_geometry url="#geometry0">
                    <bind_material>
                        <technique_common>
                            <instance_material symbol="default_ai_0.2_sh_0.2_tr_0.0_dc_r_0.8_g_0.8_b_0.8_sc_r_1.0_g_1.0_b_1.0_ec_r_0.0_g_0.0_b_0_tri" target="#default_ai_0.2_sh_0.2_tr_0.0_dc_r_0.8_g_0.8_b_0.8_sc_r_1.0_g_1.0_b_1.0_ec_r_0.0_g_0.0_b_0_mat"/>
                            <instance_material symbol="default_ai_0.2_sh_0.2_tr_0.0_dc_r_1.0_g_0.2_b_0.2_sc_r_1.0_g_1.0_b_1.0_ec_r_0.0_g_0.0_b_0_tri" target="#default_ai_0.2_sh_0.2_tr_0.0_dc_r_1.0_g_0.2_b_0.2_sc_r_1.0_g_1.0_b_1.0_ec_r_0.0_g_0.0_b_0_mat"/>
                        </technique_common>
                    </bind_material>
                </instance_geometry>
            </node>
        </visual_scene>
    </library_visual_scenes>
    <scene>
        <instance_visual_scene url="#Building_DEBW_5221000QhWq"/>
    </scene>
</COLLADA>
