<?xml version="1.0" encoding="UTF-8" standalone="yes"?>
<COLLADA xmlns="http://www.collada.org/2005/11/COLLADASchema" version="1.4.1">
    <asset>
        <contributor>
            <authoring_tool>3D City Database Importer/Exporter, version 5.5.3; Chair of Geoinformatics, Technical University of Munich</authoring_tool>
        </contributor>
        <created>2026-05-06T15:12:06.562</created>
        <modified>2026-05-06T15:12:06.562</modified>
        <unit meter="1.0" name="meters"/>
        <up_axis>Z_UP</up_axis>
    </asset>
    <library_materials>
        <material id="default_ai_0.2_sh_0.2_tr_0.0_dc_r_0.8_g_0.8_b_0.8_sc_r_1.0_g_1.0_b_1.0_ec_r_0.0_g_0.0_b_0_mat">
            <instance_effect url="#default_ai_0.2_sh_0.2_tr_0.0_dc_r_0.8_g_0.8_b_0.8_sc_r_1.0_g_1.0_b_1.0_ec_r_0.0_g_0.0_b_0_eff"/>
        </material>
        <material id="default_ai_0.2_sh_0.2_tr_0.0_dc_r_1.0_g_0.2_b_0.2_sc_r_1.0_g_1.0_b_1.0_ec_r_0.0_g_0.0_b_0_mat">
            <instance_effect url="#default_ai_0.2_sh_0.2_tr_0.0_dc_r_1.0_g_0.2_b_0.2_sc_r_1.0_g_1.0_b_1.0_ec_r_0.0_g_0.0_b_0_eff"/>
        </material>
    </library_materials>
    <library_effects>
        <effect id="default_ai_0.2_sh_0.2_tr_0.0_dc_r_0.8_g_0.8_b_0.8_sc_r_1.0_g_1.0_b_1.0_ec_r_0.0_g_0.0_b_0_eff">
            <profile_COMMON>
                <technique sid="COMMON">
                    <lambert>
                        <emission>
                            <color>0.0 0.0 0.0 1.0</color>
                        </emission>
                        <diffuse>
                            <color>0.8 0.8 0.8 1.0</color>
                        </diffuse>
                        <reflective>
                            <color>1.0 1.0 1.0 1.0</color>
                        </reflective>
                        <reflectivity>
                            <float>0.2</float>
                        </reflectivity>
                        <transparent opaque="A_ONE">
                            <color>1.0 1.0 1.0 1.0</color>
                        </transparent>
                        <transparency>
                            <float>1.0</float>
                        </transparency>
                    </lambert>
                </technique>
                <extra>
                    <technique profile="GOOGLEEARTH">
                        <double_sided>0</double_sided>
                    </technique>
                </extra>
            </profile_COMMON>
        </effect>
        <effect id="default_ai_0.2_sh_0.2_tr_0.0_dc_r_1.0_g_0.2_b_0.2_sc_r_1.0_g_1.0_b_1.0_ec_r_0.0_g_0.0_b_0_eff">
            <profile_COMMON>
                <technique sid="COMMON">
                    <lambert>
                        <emission>
                            <color>0.0 0.0 0.0 1.0</color>
                        </emission>
                        <diffuse>
                            <color>1.0 0.2 0.2 1.0</color>
                        </diffuse>
                        <reflective>
                            <color>1.0 1.0 1.0 1.0</color>
                        </reflective>
                        <reflectivity>
                            <float>0.2</float>
                        </reflectivity>
                        <transparent opaque="A_ONE">
                            <color>1.0 1.0 1.0 1.0</color>
                        </transparent>
                        <transparency>
                            <float>1.0</float>
                        </transparency>
                    </lambert>
                </technique>
                <extra>
                    <technique profile="GOOGLEEARTH">
                        <double_sided>0</double_sided>
                    </technique>
                </extra>
            </profile_COMMON>
        </effect>
    </library_effects>
    <library_geometries>
        <geometry id="geometry0">
            <mesh>
                <source id="geometry0-position">
                    <float_array id="geometry0-position-array" count="54">3.69 -6.09 6.763 0.0 0.0 6.763 0.0 0.0 0.0 3.69 -6.09 0.0 10.61 -17.54 6.763 10.61 -17.54 0.0 7.66 4.64 6.763 18.226 -12.949 6.763 18.226 -12.949 6.605 18.226 -12.949 0.0 7.66 4.64 0.0 14.16 -15.4 0.0 14.16 -15.4 6.763 14.16 -15.4 6.605 15.17 -17.08 6.776 19.23 -14.62 6.775 15.17 -17.08 0.0 19.23 -14.62 0.0</float_array>
                    <technique_common>
                        <accessor count="18" source="#geometry0-position-array" stride="3">
                            <param name="X" type="float"/>
                            <param name="Y" type="float"/>
                            <param name="Z" type="float"/>
                        </accessor>
                    </technique_common>
                </source>
                <source id="geometry0-normal">
                    <float_array id="geometry0-normal-array" count="198">0.5182084 -0.8552544 0.0 0.5182084 -0.8552544 0.0 0.5182084 -0.8552544 0.0 0.5182084 -0.8552544 0.0 -0.8552544 -0.5182083 0.0 -0.8552544 -0.5182083 0.0 -0.8552544 -0.5182083 0.0 -0.8552544 -0.5182083 0.0 -0.8558397 -0.5172411 0.0 -0.8558397 -0.5172411 0.0 -0.8558397 -0.5172411 0.0 -0.8558397 -0.5172411 0.0 -0.5181037 0.8553178 0.0 -0.5181037 0.8553178 0.0 -0.5181037 0.8553178 0.0 -0.5181037 0.8553178 0.0 0.8571759 0.5150237 0.0 0.8571759 0.5150237 0.0 0.8571759 0.5150237 0.0 0.8571759 0.5150237 0.0 0.0 0.0 -1.0 0.0 0.0 -1.0 0.0 0.0 -1.0 0.0 0.0 -1.0 0.5162687 -0.8564267 0.0 0.5162687 -0.8564267 0.0 0.5162687 -0.8564267 0.0 0.5162687 -0.8564267 0.0 0.5162687 -0.8564267 0.0 -0.0448528 0.0744186 0.9962179 -0.0448551 0.0744341 0.9962167 -0.0448528 0.0744186 0.9962179 -0.0448504 0.0744031 0.9962192 -0.8570426 -0.5152458 0.0 -0.8570426 -0.5152458 0.0 -0.8570426 -0.5152458 0.0 -0.8570426 -0.5152458 0.0 0.8572219 0.5149472 0.0 0.8572219 0.5149471 0.0 0.857222 0.5149472 0.0 0.857222 0.5149472 0.0 0.8572219 0.5149472 0.0 0.0 0.0 1.0 0.0 0.0 1.0 0.0 0.0 1.0 0.0 0.0 1.0 0.0 0.0 1.0 0.0 0.0 1.0 -0.5162601 0.8564318 0.0 -0.5162601 0.8564318 0.0 -0.5162601 0.8564318 0.0 -0.5162601 0.8564318 0.0 0.5162601 -0.8564318 0.0 0.5162601 -0.8564318 0.0 0.5162601 -0.8564318 0.0 0.5162601 -0.8564318 0.0 0.5162601 -0.8564318 0.0 0.5162601 -0.8564318 0.0 0.5162601 -0.8564318 0.0 0.5162601 -0.8564318 0.0 0.0 0.0 -1.0 0.0 0.0 -1.0 0.0 0.0 -1.0 0.0 0.0 -1.0 0.0 0.0 -1.0 0.0 0.0 -1.0</float_array>
                    <technique_common>
                        <accessor count="66" source="#geometry0-normal-array" stride="3">
                            <param name="X" type="float"/>
                            <param name="Y" type="float"/>
                            <param name="Z" type="float"/>
                        </accessor>
                    </technique_common>
                </source>
                <vertices id="geometry0-vertex">
                    <input semantic="POSITION" source="#geometry0-position"/>
                </vertices>
                <triangles count="30" material="default_ai_0.2_sh_0.2_tr_0.0_dc_r_0.8_g_0.8_b_0.8_sc_r_1.0_g_1.0_b_1.0_ec_r_0.0_g_0.0_b_0_tri">
                    <input offset="0" semantic="VERTEX" source="#geometry0-vertex"/>
                    <input offset="1" semantic="NORMAL" source="#geometry0-normal"/>
                    <p>15 0 14 1 16 2 15 0 16 2 17 3 0 4 1 5 2 6 0 4 2 6 3 7 4 8 0 9 3 10 4 8 3 10 5 11 1 12 6 13 10 14 1 12 10 14 2 15 8 16 15 17 17 18 8 16 17 18 9 19 9 20 17 21 16 22 9 20 16 22 11 23 5 24 11 25 13 26 5 24 13 26 12 27 5 24 12 27 4 28 14 33 13 34 11 35 14 33 11 35 16 36 9 37 10 38 6 39 8 40 9 37 6 39 8 40 6 39 7 41 9 48 11 49 13 50 9 48 13 50 8 51 13 52 8 53 7 54 13 52 7 54 12 55 13 56 11 57 9 58 13 56 9 58 8 59 3 60 2 61 10 62 3 60 10 62 9 63 3 60 9 63 11 64 3 60 11 64 5 65</p>
                </triangles>
                <triangles count="6" material="default_ai_0.2_sh_0.2_tr_0.0_dc_r_1.0_g_0.2_b_0.2_sc_r_1.0_g_1.0_b_1.0_ec_r_0.0_g_0.0_b_0_tri">
                    <input offset="0" semantic="VERTEX" source="#geometry0-vertex"/>
                    <input offset="1" semantic="NORMAL" source="#geometry0-normal"/>
                    <p>13 29 14 30 15 31 13 29 15 31 8 32 7 42 6 43 1 44 7 42 1 44 0 45 12 46 7 42 0 45 12 46 0 45 4 47</p>
                </triangles>
            </mesh>
        </geometry>
    </library_geometries>
    <library_visual_scenes>
        <visual_scene id="Building_DEBW_5221000QizO">
            <node>
                <instance_geometry url="#geometry0">
                    <bind_material>
                        <technique_common>
                            <instance_material symbol="default_ai_0.2_sh_0.2_tr_0.0_dc_r_0.8_g_0.8_b_0.8_sc_r_1.0_g_1.0_b_1.0_ec_r_0.0_g_0.0_b_0_tri" target="#default_ai_0.2_sh_0.2_tr_0.0_dc_r_0.8_g_0.8_b_0.8_sc_r_1.0_g_1.0_b_1.0_ec_r_0.0_g_0.0_b_0_mat"/>
                            <instance_material symbol="default_ai_0.2_sh_0.2_tr_0.0_dc_r_1.0_g_0.2_b_0.2_sc_r_1.0_g_1.0_b_1.0_ec_r_0.0_g_0.0_b_0_tri" target="#default_ai_0.2_sh_0.2_tr_0.0_dc_r_1.0_g_0.2_b_0.2_sc_r_1.0_g_1.0_b_1.0_ec_r_0.0_g_0.0_b_0_mat"/>
                        </technique_common>
                    </bind_material>
                </instance_geometry>
            </node>
        </visual_scene>
    </library_visual_scenes>
    <scene>
        <instance_visual_scene url="#Building_DEBW_5221000QizO"/>
    </scene>
</COLLADA>
