<?xml version="1.0" encoding="UTF-8" standalone="yes"?>
<COLLADA xmlns="http://www.collada.org/2005/11/COLLADASchema" version="1.4.1">
    <asset>
        <contributor>
            <authoring_tool>3D City Database Importer/Exporter, version 5.5.3; Chair of Geoinformatics, Technical University of Munich</authoring_tool>
        </contributor>
        <created>2026-05-06T15:12:12.067</created>
        <modified>2026-05-06T15:12:12.067</modified>
        <unit meter="1.0" name="meters"/>
        <up_axis>Z_UP</up_axis>
    </asset>
    <library_materials>
        <material id="default_ai_0.2_sh_0.2_tr_0.0_dc_r_0.8_g_0.8_b_0.8_sc_r_1.0_g_1.0_b_1.0_ec_r_0.0_g_0.0_b_0_mat">
            <instance_effect url="#default_ai_0.2_sh_0.2_tr_0.0_dc_r_0.8_g_0.8_b_0.8_sc_r_1.0_g_1.0_b_1.0_ec_r_0.0_g_0.0_b_0_eff"/>
        </material>
        <material id="default_ai_0.2_sh_0.2_tr_0.0_dc_r_1.0_g_0.2_b_0.2_sc_r_1.0_g_1.0_b_1.0_ec_r_0.0_g_0.0_b_0_mat">
            <instance_effect url="#default_ai_0.2_sh_0.2_tr_0.0_dc_r_1.0_g_0.2_b_0.2_sc_r_1.0_g_1.0_b_1.0_ec_r_0.0_g_0.0_b_0_eff"/>
        </material>
    </library_materials>
    <library_effects>
        <effect id="default_ai_0.2_sh_0.2_tr_0.0_dc_r_0.8_g_0.8_b_0.8_sc_r_1.0_g_1.0_b_1.0_ec_r_0.0_g_0.0_b_0_eff">
            <profile_COMMON>
                <technique sid="COMMON">
                    <lambert>
                        <emission>
                            <color>0.0 0.0 0.0 1.0</color>
                        </emission>
                        <diffuse>
                            <color>0.8 0.8 0.8 1.0</color>
                        </diffuse>
                        <reflective>
                            <color>1.0 1.0 1.0 1.0</color>
                        </reflective>
                        <reflectivity>
                            <float>0.2</float>
                        </reflectivity>
                        <transparent opaque="A_ONE">
                            <color>1.0 1.0 1.0 1.0</color>
                        </transparent>
                        <transparency>
                            <float>1.0</float>
                        </transparency>
                    </lambert>
                </technique>
                <extra>
                    <technique profile="GOOGLEEARTH">
                        <double_sided>0</double_sided>
                    </technique>
                </extra>
            </profile_COMMON>
        </effect>
        <effect id="default_ai_0.2_sh_0.2_tr_0.0_dc_r_1.0_g_0.2_b_0.2_sc_r_1.0_g_1.0_b_1.0_ec_r_0.0_g_0.0_b_0_eff">
            <profile_COMMON>
                <technique sid="COMMON">
                    <lambert>
                        <emission>
                            <color>0.0 0.0 0.0 1.0</color>
                        </emission>
                        <diffuse>
                            <color>1.0 0.2 0.2 1.0</color>
                        </diffuse>
                        <reflective>
                            <color>1.0 1.0 1.0 1.0</color>
                        </reflective>
                        <reflectivity>
                            <float>0.2</float>
                        </reflectivity>
                        <transparent opaque="A_ONE">
                            <color>1.0 1.0 1.0 1.0</color>
                        </transparent>
                        <transparency>
                            <float>1.0</float>
                        </transparency>
                    </lambert>
                </technique>
                <extra>
                    <technique profile="GOOGLEEARTH">
                        <double_sided>0</double_sided>
                    </technique>
                </extra>
            </profile_COMMON>
        </effect>
    </library_effects>
    <library_geometries>
        <geometry id="geometry0">
            <mesh>
                <source id="geometry0-position">
                    <float_array id="geometry0-position-array" count="78">-4.03 7.58 6.995 0.0 0.0 7.015 0.0 0.0 0.0 -4.03 7.58 0.0 -6.19 -3.99 8.324 -2.94 -2.27 8.597 -4.273 -2.976 9.247 -2.71 -1.43 8.337 -4.06 7.64 6.994 -4.16 7.58 7.044 -8.656 5.157 9.247 -2.94 -2.27 0.0 -2.71 -1.43 0.0 -8.17 -3.36 7.709 -9.44 -0.98 7.714 -9.44 -0.98 0.0 -8.17 -3.36 0.0 -13.16 2.73 7.069 -4.16 7.58 0.0 -13.16 2.73 0.0 -11.34 -0.69 7.061 -11.34 -0.69 0.0 -6.64 -3.85 8.184 -6.64 -3.85 0.0 -4.06 7.64 0.0 -6.19 -3.99 0.0</float_array>
                    <technique_common>
                        <accessor count="26" source="#geometry0-position-array" stride="3">
                            <param name="X" type="float"/>
                            <param name="Y" type="float"/>
                            <param name="Z" type="float"/>
                        </accessor>
                    </technique_common>
                </source>
                <source id="geometry0-normal">
                    <float_array id="geometry0-normal-array" count="246">-0.8827813 -0.4697841 0.0 -0.8827813 -0.4697841 0.0 -0.8827813 -0.4697841 0.0 -0.8827813 -0.4697841 0.0 -0.1508841 -0.9885514 0.0 -0.1508841 -0.9885514 0.0 -0.1508841 -0.9885514 0.0 -0.1508841 -0.9885514 0.0 0.348783 0.1878574 0.918183 0.3481152 0.1887977 0.9182436 0.3496527 0.1879332 0.9178367 0.3494074 0.1879564 0.9179252 0.3484517 0.1878878 0.9183025 0.3473552 0.1902556 0.9182304 0.3462393 0.1905712 0.9185865 0.34638 0.1885035 0.9189599 -0.4743913 0.8803141 6.24E-5 -0.4743913 0.8803141 6.24E-5 -0.4743913 0.8803141 6.24E-5 0.9644984 -0.2640888 0.0 0.9644983 -0.2640888 0.0 0.9644984 -0.2640888 0.0 0.9644984 -0.2640888 0.0 -0.3446718 -0.1856285 0.9201866 -0.3451975 -0.1861346 0.9198872 -0.3445502 -0.1854403 0.9202701 -0.3443297 -0.1852605 0.9203888 -0.3447603 -0.1857868 0.9201215 -0.3447921 -0.1857926 0.9201084 -0.3447047 -0.1856584 0.9201682 -0.3445889 -0.1855303 0.9202375 0.4677628 -0.883854 0.0 0.4677628 -0.8838541 0.0 0.4677628 -0.883854 0.0 0.4677628 -0.883854 0.0 -0.5144957 0.8574929 0.0 -0.5144957 0.8574929 0.0 -0.5144957 0.8574929 0.0 -0.5144957 0.8574929 0.0 -0.3050015 -0.9523519 0.0 -0.3050015 -0.9523519 0.0 -0.3050015 -0.9523519 0.0 -0.3050015 -0.9523519 0.0 -0.8822504 -0.4707805 0.0 -0.8822504 -0.4707805 0.0 -0.8822504 -0.4707805 0.0 -0.8822504 -0.4707805 0.0 -0.2970669 -0.9548566 0.0 -0.2970669 -0.9548566 0.0 -0.2970669 -0.9548566 0.0 -0.2970669 -0.9548567 0.0 -0.4743914 0.880314 0.0 -0.4743914 0.8803141 0.0 -0.4743914 0.880314 0.0 -0.4743914 0.880314 0.0 0.4666877 -0.8844222 0.0 0.4666877 -0.8844222 0.0 0.4666877 -0.8844222 0.0 0.4666877 -0.8844222 0.0 0.4678035 -0.8838324 -6.213E-4 0.4678035 -0.8838324 -6.213E-4 0.4678035 -0.8838324 -6.213E-4 0.8829648 0.4694391 0.0 0.8829648 0.4694391 0.0 0.8829648 0.4694391 0.0 0.8829648 0.4694391 0.0 0.8944286 0.4472108 0.0 0.8944286 0.4472108 0.0 0.8944286 0.4472108 0.0 0.8944286 0.4472108 0.0 0.0 0.0 -1.0 0.0 0.0 -1.0 0.0 0.0 -1.0 0.0 0.0 -1.0 0.0 0.0 -1.0 0.0 0.0 -1.0 0.0 0.0 -1.0 0.0 0.0 -1.0 0.0 0.0 -1.0 0.0 0.0 -1.0 0.0 0.0 -1.0 0.0 0.0 -1.0</float_array>
                    <technique_common>
                        <accessor count="82" source="#geometry0-normal-array" stride="3">
                            <param name="X" type="float"/>
                            <param name="Y" type="float"/>
                            <param name="Z" type="float"/>
                        </accessor>
                    </technique_common>
                </source>
                <vertices id="geometry0-vertex">
                    <input semantic="POSITION" source="#geometry0-position"/>
                </vertices>
                <triangles count="36" material="default_ai_0.2_sh_0.2_tr_0.0_dc_r_0.8_g_0.8_b_0.8_sc_r_1.0_g_1.0_b_1.0_ec_r_0.0_g_0.0_b_0_tri">
                    <input offset="0" semantic="VERTEX" source="#geometry0-vertex"/>
                    <input offset="1" semantic="NORMAL" source="#geometry0-normal"/>
                    <p>20 0 17 1 19 2 20 0 19 2 21 3 14 4 20 5 21 6 14 4 21 6 15 7 9 16 17 17 10 18 7 19 5 20 11 21 7 19 11 21 12 22 5 31 4 32 25 33 5 31 25 33 11 34 9 35 8 36 24 37 9 35 24 37 18 38 22 39 13 40 16 41 22 39 16 41 23 42 13 43 14 44 15 45 13 43 15 45 16 46 4 47 22 48 23 49 4 47 23 49 25 50 17 51 9 52 18 53 17 51 18 53 19 54 1 55 7 56 12 57 1 55 12 57 2 58 4 59 5 60 6 61 0 62 1 63 2 64 0 62 2 64 3 65 8 66 0 67 3 68 8 66 3 68 24 69 15 70 21 71 19 72 15 70 19 72 18 73 15 70 18 73 24 74 15 70 24 74 3 75 15 70 3 75 2 76 15 70 2 76 12 77 15 70 12 77 11 78 15 70 11 78 25 79 15 70 25 79 23 80 15 70 23 80 16 81</p>
                </triangles>
                <triangles count="12" material="default_ai_0.2_sh_0.2_tr_0.0_dc_r_1.0_g_0.2_b_0.2_sc_r_1.0_g_1.0_b_1.0_ec_r_0.0_g_0.0_b_0_tri">
                    <input offset="0" semantic="VERTEX" source="#geometry0-vertex"/>
                    <input offset="1" semantic="NORMAL" source="#geometry0-normal"/>
                    <p>1 8 0 9 7 10 7 10 0 9 5 11 5 11 0 9 6 12 6 12 0 9 10 13 10 13 0 9 9 14 9 14 0 9 8 15 14 23 13 24 22 25 14 23 22 25 4 26 14 23 4 26 6 27 14 23 6 27 10 28 14 23 10 28 17 29 14 23 17 29 20 30</p>
                </triangles>
            </mesh>
        </geometry>
    </library_geometries>
    <library_visual_scenes>
        <visual_scene id="Building_DEBW_5221000Qsud">
            <node>
                <instance_geometry url="#geometry0">
                    <bind_material>
                        <technique_common>
                            <instance_material symbol="default_ai_0.2_sh_0.2_tr_0.0_dc_r_0.8_g_0.8_b_0.8_sc_r_1.0_g_1.0_b_1.0_ec_r_0.0_g_0.0_b_0_tri" target="#default_ai_0.2_sh_0.2_tr_0.0_dc_r_0.8_g_0.8_b_0.8_sc_r_1.0_g_1.0_b_1.0_ec_r_0.0_g_0.0_b_0_mat"/>
                            <instance_material symbol="default_ai_0.2_sh_0.2_tr_0.0_dc_r_1.0_g_0.2_b_0.2_sc_r_1.0_g_1.0_b_1.0_ec_r_0.0_g_0.0_b_0_tri" target="#default_ai_0.2_sh_0.2_tr_0.0_dc_r_1.0_g_0.2_b_0.2_sc_r_1.0_g_1.0_b_1.0_ec_r_0.0_g_0.0_b_0_mat"/>
                        </technique_common>
                    </bind_material>
                </instance_geometry>
            </node>
        </visual_scene>
    </library_visual_scenes>
    <scene>
        <instance_visual_scene url="#Building_DEBW_5221000Qsud"/>
    </scene>
</COLLADA>
