<?xml version="1.0" encoding="UTF-8" standalone="yes"?>
<COLLADA xmlns="http://www.collada.org/2005/11/COLLADASchema" version="1.4.1">
    <asset>
        <contributor>
            <authoring_tool>3D City Database Importer/Exporter, version 5.5.3; Chair of Geoinformatics, Technical University of Munich</authoring_tool>
        </contributor>
        <created>2026-05-06T15:12:15.511</created>
        <modified>2026-05-06T15:12:15.511</modified>
        <unit meter="1.0" name="meters"/>
        <up_axis>Z_UP</up_axis>
    </asset>
    <library_materials>
        <material id="default_ai_0.2_sh_0.2_tr_0.0_dc_r_0.8_g_0.8_b_0.8_sc_r_1.0_g_1.0_b_1.0_ec_r_0.0_g_0.0_b_0_mat">
            <instance_effect url="#default_ai_0.2_sh_0.2_tr_0.0_dc_r_0.8_g_0.8_b_0.8_sc_r_1.0_g_1.0_b_1.0_ec_r_0.0_g_0.0_b_0_eff"/>
        </material>
        <material id="default_ai_0.2_sh_0.2_tr_0.0_dc_r_1.0_g_0.2_b_0.2_sc_r_1.0_g_1.0_b_1.0_ec_r_0.0_g_0.0_b_0_mat">
            <instance_effect url="#default_ai_0.2_sh_0.2_tr_0.0_dc_r_1.0_g_0.2_b_0.2_sc_r_1.0_g_1.0_b_1.0_ec_r_0.0_g_0.0_b_0_eff"/>
        </material>
    </library_materials>
    <library_effects>
        <effect id="default_ai_0.2_sh_0.2_tr_0.0_dc_r_0.8_g_0.8_b_0.8_sc_r_1.0_g_1.0_b_1.0_ec_r_0.0_g_0.0_b_0_eff">
            <profile_COMMON>
                <technique sid="COMMON">
                    <lambert>
                        <emission>
                            <color>0.0 0.0 0.0 1.0</color>
                        </emission>
                        <diffuse>
                            <color>0.8 0.8 0.8 1.0</color>
                        </diffuse>
                        <reflective>
                            <color>1.0 1.0 1.0 1.0</color>
                        </reflective>
                        <reflectivity>
                            <float>0.2</float>
                        </reflectivity>
                        <transparent opaque="A_ONE">
                            <color>1.0 1.0 1.0 1.0</color>
                        </transparent>
                        <transparency>
                            <float>1.0</float>
                        </transparency>
                    </lambert>
                </technique>
                <extra>
                    <technique profile="GOOGLEEARTH">
                        <double_sided>0</double_sided>
                    </technique>
                </extra>
            </profile_COMMON>
        </effect>
        <effect id="default_ai_0.2_sh_0.2_tr_0.0_dc_r_1.0_g_0.2_b_0.2_sc_r_1.0_g_1.0_b_1.0_ec_r_0.0_g_0.0_b_0_eff">
            <profile_COMMON>
                <technique sid="COMMON">
                    <lambert>
                        <emission>
                            <color>0.0 0.0 0.0 1.0</color>
                        </emission>
                        <diffuse>
                            <color>1.0 0.2 0.2 1.0</color>
                        </diffuse>
                        <reflective>
                            <color>1.0 1.0 1.0 1.0</color>
                        </reflective>
                        <reflectivity>
                            <float>0.2</float>
                        </reflectivity>
                        <transparent opaque="A_ONE">
                            <color>1.0 1.0 1.0 1.0</color>
                        </transparent>
                        <transparency>
                            <float>1.0</float>
                        </transparency>
                    </lambert>
                </technique>
                <extra>
                    <technique profile="GOOGLEEARTH">
                        <double_sided>0</double_sided>
                    </technique>
                </extra>
            </profile_COMMON>
        </effect>
    </library_effects>
    <library_geometries>
        <geometry id="geometry0">
            <mesh>
                <source id="geometry0-position">
                    <float_array id="geometry0-position-array" count="66">-0.86 1.37 3.305 0.0 0.0 2.043 0.0 0.0 0.0 -0.86 1.37 0.0 -0.535 4.397 5.16 -2.22 7.04 3.781 -6.43 4.38 3.772 -4.739 1.717 5.16 -4.55 1.42 4.886 -4.49 1.46 4.887 -2.54 -1.61 2.05 0.74 2.37 3.292 -0.32 4.06 4.848 -2.22 7.04 0.0 -6.43 4.38 0.0 -0.32 4.06 0.0 -0.535 4.397 0.0 -2.54 -1.61 0.0 -4.739 1.717 0.0 -4.55 1.42 0.0 -4.49 1.46 0.0 0.74 2.37 0.0</float_array>
                    <technique_common>
                        <accessor count="22" source="#geometry0-position-array" stride="3">
                            <param name="X" type="float"/>
                            <param name="Y" type="float"/>
                            <param name="Z" type="float"/>
                        </accessor>
                    </technique_common>
                </source>
                <source id="geometry0-normal">
                    <float_array id="geometry0-normal-array" count="204">0.8430428 0.5378466 0.0 0.8430428 0.5378466 0.0 0.8430428 0.5378466 0.0 0.8430428 0.5378466 0.0 0.0 0.0 -1.0 0.0 0.0 -1.0 0.0 0.0 -1.0 0.0 0.0 -1.0 0.0 0.0 -1.0 0.0 0.0 -1.0 0.0 0.0 -1.0 0.0 0.0 -1.0 0.0 0.0 -1.0 0.0 0.0 -1.0 0.0 0.0 -1.0 -0.8441832 -0.5360547 0.0 -0.8441832 -0.5360547 0.0 -0.8441832 -0.5360547 0.0 -0.8441832 -0.5360547 0.0 0.5353685 -0.8446186 0.0 0.5353685 -0.8446186 0.0 0.5353685 -0.8446186 0.0 0.5353685 -0.8446186 0.0 0.8432146 0.5375772 0.0 0.8432146 0.5375772 0.0 0.8432146 0.5375772 0.0 0.8432146 0.5375772 0.0 -0.843662 -0.5368747 0.0 -0.843662 -0.5368747 0.0 -0.843662 -0.5368747 0.0 -0.843662 -0.5368747 0.0 0.5546983 -0.8320516 0.0 0.5546983 -0.8320516 0.0 0.5546983 -0.8320516 0.0 0.5546983 -0.8320516 0.0 0.8469547 0.531665 0.0 0.8469547 0.531665 0.0 0.8469547 0.531665 0.0 0.8469548 0.531665 0.0 0.8471524 0.53135 0.0 0.8471524 0.53135 0.0 0.8471524 0.53135 0.0 0.8471524 0.53135 0.0 -0.534144 0.8453935 0.0 -0.534144 0.8453935 0.0 -0.534144 0.8453935 0.0 -0.5341441 0.8453935 0.0 -0.2164954 0.3395794 0.9153227 -0.2164974 0.3395549 0.9153314 -0.2164954 0.3395794 0.9153227 -0.2164934 0.3396039 0.915314 -0.8441142 -0.5361636 0.0 -0.8441142 -0.5361636 0.0 -0.8441142 -0.5361636 0.0 -0.8441141 -0.5361636 0.0 0.3306903 -0.5187103 0.7884057 0.3307428 -0.5188219 0.7883102 0.3310003 -0.5181255 0.7886601 0.3306309 -0.5186739 0.7884545 0.3306291 -0.5187342 0.7884158 0.3310944 -0.5180135 0.7886942 0.3313976 -0.5174556 0.788933 0.3308308 -0.5185035 0.7884828 0.331544 -0.5170454 0.7891403 0.5299989 -0.8479983 0.0 0.5299989 -0.8479983 0.0 0.5299989 -0.8479983 0.0 0.5299989 -0.8479983 0.0</float_array>
                    <technique_common>
                        <accessor count="68" source="#geometry0-normal-array" stride="3">
                            <param name="X" type="float"/>
                            <param name="Y" type="float"/>
                            <param name="Z" type="float"/>
                        </accessor>
                    </technique_common>
                </source>
                <vertices id="geometry0-vertex">
                    <input semantic="POSITION" source="#geometry0-position"/>
                </vertices>
                <triangles count="31" material="default_ai_0.2_sh_0.2_tr_0.0_dc_r_0.8_g_0.8_b_0.8_sc_r_1.0_g_1.0_b_1.0_ec_r_0.0_g_0.0_b_0_tri">
                    <input offset="0" semantic="VERTEX" source="#geometry0-vertex"/>
                    <input offset="1" semantic="NORMAL" source="#geometry0-normal"/>
                    <p>4 0 12 1 15 2 4 0 15 2 16 3 15 4 21 5 16 6 16 6 21 5 13 7 13 7 21 5 14 8 14 8 21 5 18 9 21 5 3 10 18 9 3 10 2 11 18 9 17 12 20 13 2 11 2 11 20 13 18 9 18 9 20 13 19 14 7 15 6 16 14 17 7 15 14 17 18 18 1 19 10 20 17 21 1 19 17 21 2 22 5 23 4 24 16 25 5 23 16 25 13 26 8 27 7 28 18 29 8 27 18 29 19 30 9 31 8 32 19 33 9 31 19 33 20 34 0 35 1 36 2 37 0 35 2 37 3 38 12 39 11 40 21 41 12 39 21 41 15 42 6 43 5 44 13 45 6 43 13 45 14 46 10 51 9 52 20 53 10 51 20 53 17 54 11 64 0 65 3 66 11 64 3 66 21 67</p>
                </triangles>
                <triangles count="9" material="default_ai_0.2_sh_0.2_tr_0.0_dc_r_1.0_g_0.2_b_0.2_sc_r_1.0_g_1.0_b_1.0_ec_r_0.0_g_0.0_b_0_tri">
                    <input offset="0" semantic="VERTEX" source="#geometry0-vertex"/>
                    <input offset="1" semantic="NORMAL" source="#geometry0-normal"/>
                    <p>4 47 5 48 6 49 4 47 6 49 7 50 12 55 4 56 7 57 11 58 12 55 7 57 0 59 11 58 7 57 1 60 0 59 7 57 9 61 10 62 1 60 9 61 1 60 7 57 9 61 7 57 8 63</p>
                </triangles>
            </mesh>
        </geometry>
    </library_geometries>
    <library_visual_scenes>
        <visual_scene id="Building_DEBW_5221000QYXk">
            <node>
                <instance_geometry url="#geometry0">
                    <bind_material>
                        <technique_common>
                            <instance_material symbol="default_ai_0.2_sh_0.2_tr_0.0_dc_r_0.8_g_0.8_b_0.8_sc_r_1.0_g_1.0_b_1.0_ec_r_0.0_g_0.0_b_0_tri" target="#default_ai_0.2_sh_0.2_tr_0.0_dc_r_0.8_g_0.8_b_0.8_sc_r_1.0_g_1.0_b_1.0_ec_r_0.0_g_0.0_b_0_mat"/>
                            <instance_material symbol="default_ai_0.2_sh_0.2_tr_0.0_dc_r_1.0_g_0.2_b_0.2_sc_r_1.0_g_1.0_b_1.0_ec_r_0.0_g_0.0_b_0_tri" target="#default_ai_0.2_sh_0.2_tr_0.0_dc_r_1.0_g_0.2_b_0.2_sc_r_1.0_g_1.0_b_1.0_ec_r_0.0_g_0.0_b_0_mat"/>
                        </technique_common>
                    </bind_material>
                </instance_geometry>
            </node>
        </visual_scene>
    </library_visual_scenes>
    <scene>
        <instance_visual_scene url="#Building_DEBW_5221000QYXk"/>
    </scene>
</COLLADA>
