<?xml version="1.0" encoding="UTF-8" standalone="yes"?>
<COLLADA xmlns="http://www.collada.org/2005/11/COLLADASchema" version="1.4.1">
    <asset>
        <contributor>
            <authoring_tool>3D City Database Importer/Exporter, version 5.5.3; Chair of Geoinformatics, Technical University of Munich</authoring_tool>
        </contributor>
        <created>2026-05-06T15:12:17.182</created>
        <modified>2026-05-06T15:12:17.182</modified>
        <unit meter="1.0" name="meters"/>
        <up_axis>Z_UP</up_axis>
    </asset>
    <library_materials>
        <material id="default_ai_0.2_sh_0.2_tr_0.0_dc_r_0.8_g_0.8_b_0.8_sc_r_1.0_g_1.0_b_1.0_ec_r_0.0_g_0.0_b_0_mat">
            <instance_effect url="#default_ai_0.2_sh_0.2_tr_0.0_dc_r_0.8_g_0.8_b_0.8_sc_r_1.0_g_1.0_b_1.0_ec_r_0.0_g_0.0_b_0_eff"/>
        </material>
        <material id="default_ai_0.2_sh_0.2_tr_0.0_dc_r_1.0_g_0.2_b_0.2_sc_r_1.0_g_1.0_b_1.0_ec_r_0.0_g_0.0_b_0_mat">
            <instance_effect url="#default_ai_0.2_sh_0.2_tr_0.0_dc_r_1.0_g_0.2_b_0.2_sc_r_1.0_g_1.0_b_1.0_ec_r_0.0_g_0.0_b_0_eff"/>
        </material>
    </library_materials>
    <library_effects>
        <effect id="default_ai_0.2_sh_0.2_tr_0.0_dc_r_0.8_g_0.8_b_0.8_sc_r_1.0_g_1.0_b_1.0_ec_r_0.0_g_0.0_b_0_eff">
            <profile_COMMON>
                <technique sid="COMMON">
                    <lambert>
                        <emission>
                            <color>0.0 0.0 0.0 1.0</color>
                        </emission>
                        <diffuse>
                            <color>0.8 0.8 0.8 1.0</color>
                        </diffuse>
                        <reflective>
                            <color>1.0 1.0 1.0 1.0</color>
                        </reflective>
                        <reflectivity>
                            <float>0.2</float>
                        </reflectivity>
                        <transparent opaque="A_ONE">
                            <color>1.0 1.0 1.0 1.0</color>
                        </transparent>
                        <transparency>
                            <float>1.0</float>
                        </transparency>
                    </lambert>
                </technique>
                <extra>
                    <technique profile="GOOGLEEARTH">
                        <double_sided>0</double_sided>
                    </technique>
                </extra>
            </profile_COMMON>
        </effect>
        <effect id="default_ai_0.2_sh_0.2_tr_0.0_dc_r_1.0_g_0.2_b_0.2_sc_r_1.0_g_1.0_b_1.0_ec_r_0.0_g_0.0_b_0_eff">
            <profile_COMMON>
                <technique sid="COMMON">
                    <lambert>
                        <emission>
                            <color>0.0 0.0 0.0 1.0</color>
                        </emission>
                        <diffuse>
                            <color>1.0 0.2 0.2 1.0</color>
                        </diffuse>
                        <reflective>
                            <color>1.0 1.0 1.0 1.0</color>
                        </reflective>
                        <reflectivity>
                            <float>0.2</float>
                        </reflectivity>
                        <transparent opaque="A_ONE">
                            <color>1.0 1.0 1.0 1.0</color>
                        </transparent>
                        <transparency>
                            <float>1.0</float>
                        </transparency>
                    </lambert>
                </technique>
                <extra>
                    <technique profile="GOOGLEEARTH">
                        <double_sided>0</double_sided>
                    </technique>
                </extra>
            </profile_COMMON>
        </effect>
    </library_effects>
    <library_geometries>
        <geometry id="geometry0">
            <mesh>
                <source id="geometry0-position">
                    <float_array id="geometry0-position-array" count="468">0.275 0.835 11.141 0.0 0.0 10.974 0.0 0.0 0.0 0.275 0.835 0.0 0.478 1.691 11.329 0.738 1.681 11.269 0.792 2.442 11.464 -5.54 2.883 12.991 -9.394 0.057 13.076 -10.389 -6.645 11.467 -10.366 -6.648 11.461 -9.487 -6.672 11.26 -8.609 -6.62 11.079 -7.738 -6.494 10.92 -6.882 -6.294 10.784 -6.046 -6.022 10.673 -5.235 -5.68 10.586 -4.457 -5.27 10.525 -3.717 -4.795 10.49 -3.02 -4.259 10.482 -2.371 -3.666 10.5 -1.775 -3.019 10.544 -1.236 -2.324 10.614 -0.758 -1.585 10.71 -0.345 -0.809 10.83 -19.872 5.531 11.237 -20.042 3.121 11.08 -19.928 4.739 11.437 0.485 4.939 11.015 0.568 4.071 11.177 0.568 4.071 0.0 0.485 4.939 0.0 -4.457 -5.27 0.0 -3.717 -4.795 0.0 -15.538 11.928 10.496 -14.803 12.397 10.536 -14.803 12.397 0.0 -15.538 11.928 0.0 -16.027 -4.466 10.524 -16.695 -3.893 10.476 -16.695 -3.893 0.0 -16.027 -4.466 0.0 -2.371 -3.666 0.0 -1.775 -3.019 0.0 0.328 5.797 10.873 0.328 5.797 0.0 -20.042 3.121 0.0 -19.872 5.531 0.0 -19.722 5.511 0.0 -19.517 6.359 0.0 -19.241 7.186 0.0 -18.895 7.986 0.0 -18.483 8.755 0.0 -18.006 9.485 0.0 -17.47 10.173 0.0 -16.877 10.812 0.0 -16.231 11.398 0.0 -14.03 12.801 0.0 -13.226 13.139 0.0 -12.396 13.407 0.0 -11.547 13.603 0.0 -10.683 13.726 0.0 -9.813 13.776 0.0 -8.941 13.751 0.0 -8.075 13.652 0.0 -7.22 13.48 0.0 -6.382 13.236 0.0 -5.569 12.922 0.0 -4.785 12.54 0.0 -4.037 12.092 0.0 -3.329 11.582 0.0 -2.667 11.014 0.0 -2.056 10.392 0.0 -1.5 9.721 0.0 -1.003 9.004 0.0 -0.569 8.248 0.0 -0.201 7.457 0.0 0.099 6.638 0.0 0.908 4.061 0.0 0.738 1.681 0.0 0.478 1.691 0.0 -0.345 -0.809 0.0 -0.758 -1.585 0.0 -1.236 -2.324 0.0 -3.02 -4.259 0.0 -5.235 -5.68 0.0 -6.046 -6.022 0.0 -6.882 -6.294 0.0 -7.738 -6.494 0.0 -8.609 -6.62 0.0 -9.487 -6.672 0.0 -10.366 -6.648 0.0 -11.24 -6.55 0.0 -12.102 -6.377 0.0 -12.947 -6.132 0.0 -13.768 -5.816 0.0 -14.558 -5.431 0.0 -15.313 -4.98 0.0 -17.311 -3.266 0.0 -17.871 -2.588 0.0 -18.372 -1.865 0.0 -18.81 -1.102 0.0 -19.181 -0.305 0.0 -19.482 0.521 0.0 -19.712 1.37 0.0 -19.869 2.235 0.0 -19.952 3.111 0.0 -8.941 13.751 11.499 -8.075 13.652 11.361 0.908 4.061 11.092 0.099 6.638 10.754 -0.201 7.457 10.657 -0.569 8.248 10.584 -1.003 9.004 10.535 -1.5 9.721 10.511 -2.056 10.392 10.511 -2.667 11.014 10.535 -3.329 11.582 10.585 -4.037 12.092 10.658 -4.785 12.54 10.755 -5.569 12.922 10.874 -6.382 13.236 11.016 -7.22 13.48 11.178 -8.813 13.736 11.532 -9.532 7.71 12.991 -11.24 -6.55 11.278 -12.102 -6.377 11.101 -19.712 1.37 10.805 -19.869 2.235 10.942 -10.683 13.726 11.111 -9.813 13.776 11.295 -14.03 12.801 10.602 -19.241 7.186 10.934 -18.895 7.986 10.797 -13.031 4.454 13.076 -17.311 -3.266 10.452 -18.372 -1.865 10.476 -18.81 -1.102 10.524 -19.181 -0.305 10.595 -19.482 0.521 10.689 -14.558 -5.431 10.689 -15.313 -4.98 10.595 -17.871 -2.588 10.452 -13.768 -5.816 10.805 -12.947 -6.132 10.943 -11.547 13.603 10.949 -12.396 13.407 10.809 -13.226 13.139 10.693 -16.231 11.398 10.481 -16.877 10.812 10.493 -17.47 10.173 10.531 -18.006 9.485 10.595 -18.483 8.755 10.683 -19.517 6.359 11.094 -19.722 5.511 11.276 -19.952 3.111 11.1</float_array>
                    <technique_common>
                        <accessor count="156" source="#geometry0-position-array" stride="3">
                            <param name="X" type="float"/>
                            <param name="Y" type="float"/>
                            <param name="Z" type="float"/>
                        </accessor>
                    </technique_common>
                </source>
                <source id="geometry0-normal">
                    <float_array id="geometry0-normal-array" count="1428">-0.8219469 -0.5695642 0.0 -0.8219469 -0.5695642 0.0 -0.8219469 -0.5695642 0.0 -0.8219469 -0.5695642 0.0 0.9648697 0.2627291 0.0 0.9648697 0.262729 0.0 0.9648697 0.2627291 0.0 0.9648697 0.2627291 0.0 0.9389874 0.3439515 0.0 0.9389874 0.3439515 0.0 0.9389874 0.3439515 0.0 0.9389874 0.3439515 0.0 -0.3592075 -0.9332577 0.0 -0.3592075 -0.9332577 0.0 -0.3592075 -0.9332577 0.0 -0.3592075 -0.9332577 0.0 -0.9955413 -0.0943266 0.0 -0.9955413 -0.0943266 0.0 -0.9955413 -0.0943266 0.0 -0.9955413 -0.0943266 0.0 -0.1967725 -0.9804491 0.0 -0.1967725 -0.9804491 0.0 -0.1967725 -0.9804491 0.0 -0.1967725 -0.9804491 0.0 0.059122 -0.9982508 0.0 0.0591219 -0.9982508 0.0 0.059122 -0.9982508 0.0 0.0591219 -0.9982508 0.0 -0.9652085 -0.2614812 0.0 -0.9652085 -0.2614812 0.0 -0.9652085 -0.2614812 0.0 -0.9652086 -0.2614812 0.0 0.7700058 0.638037 0.0 0.7700058 0.638037 0.0 0.7700058 0.638037 0.0 0.7700058 0.638037 0.0 -0.3875447 0.9218509 0.0 -0.3875447 0.9218509 0.0 -0.3875447 0.9218509 0.0 -0.3875447 0.9218509 0.0 -0.0272938 -0.9996275 0.0 -0.0272938 -0.9996275 0.0 -0.0272938 -0.9996275 0.0 -0.0272938 -0.9996275 0.0 -0.9975213 0.0703646 0.0 -0.9975214 0.0703646 0.0 -0.9975213 0.0703646 0.0 -0.9975213 0.0703646 0.0 0.3602859 0.932842 0.0 0.3602859 0.932842 0.0 0.3602859 0.932842 0.0 0.3602859 0.932842 0.0 0.0286575 0.9995893 0.0 0.0286575 0.9995893 0.0 0.0286575 0.9995893 0.0 0.0286575 0.9995893 0.0 0.0293997 0.9995677 0.0 0.0293997 0.9995677 0.0 0.0293997 0.9995677 0.0 0.0293997 0.9995678 0.0 -0.0573768 0.9983526 0.0 -0.0573768 0.9983526 0.0 -0.0573768 0.9983526 0.0 -0.0573768 0.9983526 0.0 -0.8672624 -0.4978515 0.0 -0.8672624 -0.4978515 0.0 -0.8672624 -0.4978515 0.0 -0.8672623 -0.4978515 0.0 0.7902087 -0.612838 0.0 0.7902086 -0.6128379 0.0 0.7902087 -0.612838 0.0 0.7902087 -0.612838 0.0 0.5401827 -0.8415477 0.0 0.5401827 -0.8415477 0.0 0.5401827 -0.8415477 0.0 0.5401827 -0.8415477 0.0 -0.8814626 0.4722538 0.0 -0.8814626 0.4722538 0.0 -0.8814626 0.4722538 0.0 -0.8814626 0.4722538 0.0 0.609601 -0.7927084 0.0 0.609601 -0.7927084 0.0 0.609601 -0.7927084 0.0 0.609601 -0.7927084 0.0 0.1972195 0.9803594 0.0 0.1972195 0.9803594 0.0 0.1972195 0.9803594 0.0 0.1972195 0.9803594 0.0 -0.2341786 -0.1927718 0.95289 -0.2348028 -0.1958117 0.9521164 -0.2337621 -0.1904926 0.9534506 -0.2333863 -0.1895699 0.9537264 -0.2341818 -0.1938894 0.9526625 -0.2343503 -0.1938089 0.9526374 -0.2342147 -0.19381 0.9526706 -0.2345597 -0.1939277 0.9525618 -0.2343578 -0.1938124 0.9526349 -0.2343 -0.1937884 0.9526539 -0.2345322 -0.1938745 0.9525794 -0.234643 -0.1939287 0.952541 -0.2346438 -0.1939185 0.9525429 -0.2344248 -0.1938759 0.9526055 -0.2333202 -0.1936413 0.9529244 -0.2331697 -0.193588 0.9529721 -0.2338528 -0.1936823 0.9527855 -0.2343773 -0.1937206 0.9526488 -0.2358222 -0.193761 0.9522839 -0.234401 -0.1938401 0.9526186 -0.2325971 -0.1938562 0.9530574 -0.2332939 -0.1938125 0.9528959 -0.7329985 0.6802302 0.0 -0.7329985 0.6802302 0.0 -0.7329985 0.6802302 0.0 -0.7329985 0.6802302 0.0 0.5138211 0.8578974 0.0 0.5138211 0.8578974 0.0 0.5138211 0.8578974 0.0 0.5138211 0.8578974 0.0 -0.2129302 0.2537823 0.9435334 -0.2136494 0.2542186 0.9432533 -0.21361 0.2540526 0.9433069 -0.2135264 0.2538318 0.9433853 -0.2134598 0.2537496 0.9434225 -0.2137599 0.2540804 0.9432655 -0.21354 0.2538907 0.9433665 -0.2136299 0.2539238 0.9433372 -0.2140815 0.2543541 0.9431188 -0.2137093 0.2540575 0.9432831 -0.2133194 0.2537753 0.9434474 -0.2131796 0.2536751 0.9435059 -0.214292 0.254303 0.9430848 -0.2138209 0.2541271 0.9432392 -0.2125369 0.2534676 0.9437066 -0.2128176 0.2535916 0.9436101 -0.2143071 0.2541121 0.9431328 -0.2138349 0.2540364 0.9432604 -0.212606 0.2536358 0.943646 -0.2111515 0.2533671 0.9440446 -0.2105998 0.2532061 0.944211 -0.2116451 0.2533339 0.943943 -0.2167022 0.2546555 0.9424387 0.9974652 -0.0711422 0.0014159 0.9974652 -0.0711422 0.0014159 0.9974652 -0.0711422 0.0014159 0.1321639 0.9912279 0.0 0.1321639 0.9912279 0.0 0.1321639 0.9912279 0.0 0.1321639 0.9912279 0.0 0.821862 0.5696867 0.0 0.8218619 0.5696867 0.0 0.821862 0.5696867 0.0 0.821862 0.5696867 0.0 -0.7888576 0.6145759 0.0 -0.7888576 0.614576 0.0 -0.7888576 0.6145759 0.0 -0.7888576 0.6145759 0.0 0.0 0.0 -1.0 0.0 0.0 -1.0 0.0 0.0 -1.0 0.0 0.0 -1.0 0.0 0.0 -1.0 0.0 0.0 -1.0 0.0 0.0 -1.0 0.0 0.0 -1.0 0.0 0.0 -1.0 0.0 0.0 -1.0 0.0 0.0 -1.0 0.0 0.0 -1.0 0.0 0.0 -1.0 0.0 0.0 -1.0 0.0 0.0 -1.0 0.0 0.0 -1.0 0.0 0.0 -1.0 0.0 0.0 -1.0 0.0 0.0 -1.0 0.0 0.0 -1.0 0.0 0.0 -1.0 0.0 0.0 -1.0 0.0 0.0 -1.0 0.0 0.0 -1.0 0.0 0.0 -1.0 0.0 0.0 -1.0 0.0 0.0 -1.0 0.0 0.0 -1.0 0.0 0.0 -1.0 0.0 0.0 -1.0 0.0 0.0 -1.0 0.0 0.0 -1.0 0.0 0.0 -1.0 0.0 0.0 -1.0 0.0 0.0 -1.0 0.0 0.0 -1.0 0.0 0.0 -1.0 0.0 0.0 -1.0 0.0 0.0 -1.0 0.0 0.0 -1.0 0.0 0.0 -1.0 0.0 0.0 -1.0 0.0 0.0 -1.0 0.0 0.0 -1.0 0.0 0.0 -1.0 0.0 0.0 -1.0 0.0 0.0 -1.0 0.0 0.0 -1.0 0.0 0.0 -1.0 0.0 0.0 -1.0 0.0 0.0 -1.0 0.0 0.0 -1.0 0.0 0.0 -1.0 0.0 0.0 -1.0 0.0 0.0 -1.0 0.0 0.0 -1.0 0.0 0.0 -1.0 0.0 0.0 -1.0 0.0 0.0 -1.0 0.0 0.0 -1.0 0.0 0.0 -1.0 0.0 0.0 -1.0 0.0 0.0 -1.0 0.0 0.0 -1.0 0.0 0.0 -1.0 0.0 0.0 -1.0 0.0 0.0 -1.0 0.0 0.0 -1.0 0.0 0.0 -1.0 0.0 0.0 -1.0 0.0 0.0 -1.0 0.0 0.0 -1.0 0.0 0.0 -1.0 0.0 0.0 -1.0 0.9730132 -0.2307496 0.0 0.9730132 -0.2307496 0.0 0.9730132 -0.2307496 0.0 0.9730132 -0.2307496 0.0 -0.9395605 -0.3423829 0.0 -0.9395605 -0.3423829 0.0 -0.9395605 -0.3423829 0.0 -0.9395605 -0.3423829 0.0 -0.7710106 -0.6368223 0.0 -0.7710106 -0.6368223 0.0 -0.7710106 -0.6368223 0.0 -0.7710106 -0.6368223 0.0 -0.972001 0.2349766 0.0 -0.972001 0.2349766 0.0 -0.972001 0.2349766 0.0 -0.972001 0.2349766 0.0 -0.5379142 0.8429996 0.0 -0.5379142 0.8429996 0.0 -0.5379142 0.8429996 0.0 -0.5379142 0.8429996 0.0 0.7133865 0.7007707 0.0 0.7133865 0.7007707 0.0 0.7133865 0.7007707 0.0 0.7133865 0.7007707 0.0 0.1135789 0.993529 0.0 0.1135789 0.993529 0.0 0.1135789 0.993529 0.0 0.1135789 0.993529 0.0 -0.9065894 -0.4220138 0.0 -0.9065894 -0.4220138 0.0 -0.9065894 -0.4220138 0.0 -0.9065894 -0.4220138 0.0 -0.9485682 0.316573 0.0 -0.9485682 0.316573 0.0 -0.9485682 0.316573 0.0 -0.9485682 0.316573 0.0 -0.6510726 -0.7590154 0.0 -0.6510726 -0.7590154 0.0 -0.6510726 -0.7590154 0.0 -0.6510726 -0.7590155 0.0 0.2275171 -0.9737741 0.0 0.2275171 -0.9737741 0.0 0.2275171 -0.9737741 0.0 0.2275171 -0.9737741 0.0 -0.917835 0.3969621 0.0 -0.917835 0.3969621 0.0 -0.917835 0.3969621 0.0 -0.917835 0.3969621 0.0 0.9974587 -0.0712471 0.0 0.9974587 -0.0712471 0.0 0.9974587 -0.0712471 0.0 0.9974587 -0.0712471 0.0 0.309395 -0.9509336 0.0 0.309395 -0.9509336 0.0 0.309395 -0.9509336 0.0 0.309395 -0.9509336 0.0 0.9498147 -0.3128132 0.0 0.9498146 -0.3128132 0.0 0.9498147 -0.3128132 0.0 0.9498147 -0.3128132 0.0 0.6511689 0.7589328 0.0 0.6511689 0.7589329 0.0 0.6511689 0.7589328 0.0 0.6511689 0.7589328 0.0 0.5844859 0.8114038 0.0 0.5844859 0.8114038 0.0 0.5844859 0.8114038 0.0 0.5844859 0.8114038 0.0 -0.3072704 0.9516222 0.0 -0.3072704 0.9516222 0.0 -0.3072704 0.9516222 0.0 -0.3072704 0.9516222 0.0 0.2428471 0.2008267 0.9490489 0.2428556 0.2008451 0.9490429 0.2320528 0.1997809 0.9519659 0.2427987 0.2007743 0.9490724 0.2431678 0.2010621 0.948917 0.2426977 0.2007553 0.9491023 0.2426188 0.2006452 0.9491457 0.2425227 0.2006392 0.9491716 0.2425552 0.2006033 0.9491708 0.242912 0.200823 0.9490331 0.2434119 0.2010016 0.9488673 0.2428014 0.2008314 0.9490597 0.24153 0.2003444 0.949487 0.2431554 0.2008084 0.9489738 0.2433998 0.2009174 0.9488882 0.2430521 0.2008119 0.9489996 0.2417258 0.2006342 0.9493759 0.2425348 0.2006632 0.9491634 0.1703963 0.1938034 0.966129 0.1696708 0.193674 0.9662827 0.2303933 0.1997768 0.9523697 0.2431541 0.2006337 0.9490112 -0.4631919 0.886258 0.0 -0.4631918 0.886258 0.0 -0.4631919 0.886258 0.0 -0.4631918 0.886258 0.0 -0.2784721 -0.9604443 0.0 -0.2784721 -0.9604443 0.0 -0.2784721 -0.9604443 0.0 -0.2784722 -0.9604443 0.0 0.0137259 0.0113525 0.9998413 0.0137271 0.0113525 0.9998413 0.0137259 0.0113525 0.9998413 0.0137247 0.0113525 0.9998414 -0.6074927 0.7943252 0.0 -0.6074927 0.7943252 0.0 -0.6074927 0.7943252 0.0 -0.6074927 0.7943252 0.0 0.9198493 -0.392272 0.0 0.9198493 -0.392272 0.0 0.9198493 -0.392272 0.0 0.9198493 -0.392272 0.0 -0.1104312 -0.9938837 0.0 -0.1104312 -0.9938837 0.0 -0.1104312 -0.9938837 0.0 -0.1104312 -0.9938837 0.0 0.2084105 -0.2569828 0.9436763 0.2084228 -0.25686 0.943707 0.210057 -0.2575498 0.9431564 0.2091914 -0.2573163 0.9434125 0.2091295 -0.2580335 0.9432304 0.2080833 -0.2568994 0.9437712 0.209725 -0.2575269 0.9432366 0.2093817 -0.2573413 0.9433635 0.2084859 -0.2569045 0.9436809 0.2092409 -0.2573649 0.9433883 0.2099361 -0.2577658 0.9431244 0.2097895 -0.2576736 0.9431822 0.2093701 -0.2573293 0.9433694 0.209496 -0.2574814 0.9432999 0.2097747 -0.2576993 0.9431785 0.2095699 -0.2575118 0.9432752 0.2092463 -0.2571132 0.9434558 0.2102709 -0.2585108 0.9428459 0.2106537 -0.2590081 0.9426239 0.2095466 -0.2574766 0.94329 0.20869 -0.26057 0.9426302 0.2082659 -0.2621612 0.9422828 0.2096554 -0.2566392 0.943494 0.674539 -0.7382392 0.0 0.674539 -0.7382392 0.0 0.674539 -0.7382392 0.0 0.674539 -0.7382392 0.0 0.9066804 0.4218183 0.0 0.9066804 0.4218183 0.0 0.9066804 0.4218183 0.0 0.9066804 0.4218183 0.0 0.7355002 -0.6775244 0.0 0.7355002 -0.6775244 0.0 0.7355002 -0.6775244 0.0 0.7355003 -0.6775244 0.0 -0.9839245 -0.1785847 0.0 -0.9839245 -0.1785847 0.0 -0.9839245 -0.1785847 0.0 -0.9839245 -0.1785847 0.0 -0.1114294 -0.9937723 0.0 -0.1114294 -0.9937723 0.0 -0.1114294 -0.9937723 0.0 -0.1114294 -0.9937723 0.0 -0.5128227 -0.8584945 0.0 -0.5128227 -0.8584945 0.0 -0.5128227 -0.8584945 0.0 -0.5128227 -0.8584946 0.0 -0.0384331 -0.9992611 0.0 -0.0384331 -0.9992611 0.0 -0.0384331 -0.9992611 0.0 -0.0384331 -0.9992612 0.0 -0.7133357 -0.7008225 0.0 -0.7133357 -0.7008225 0.0 -0.7133357 -0.7008225 0.0 -0.7133357 -0.7008225 0.0 -0.5842444 -0.8115778 0.0 -0.5842444 -0.8115777 0.0 -0.5842444 -0.8115778 0.0 -0.5842444 -0.8115778 0.0 0.8672529 0.4978677 0.0 0.8672531 0.4978678 0.0 0.8672529 0.4978677 0.0 0.8672529 0.4978678 0.0 -0.6718732 0.7406662 0.0 -0.6718732 0.7406662 0.0 -0.6718732 0.7406662 0.0 -0.6718732 0.7406662 0.0 0.9836675 0.1799951 0.0 0.9836675 0.1799951 0.0 0.9836675 0.1799951 0.0 0.9836675 0.1799951 0.0 -0.119326 -0.9921042 0.0386071 -0.119326 -0.9921042 0.0386071 -0.119326 -0.9921042 0.0386071 0.1146517 0.9933822 0.0068373 0.1146517 0.9933822 0.0068373 0.1146517 0.9933822 0.0068373 -0.8371314 0.5470018 0.0 -0.8371314 0.5470018 0.0 -0.8371314 0.5470018 0.0 -0.8371314 0.5470018 0.0 -0.2249434 0.9743719 0.0 -0.2249434 0.9743719 0.0 -0.2249434 0.9743719 0.0 -0.2249434 0.9743719 0.0 0.3885649 -0.9214213 0.0 0.388565 -0.9214214 0.0 0.3885649 -0.9214213 0.0 0.3885649 -0.9214213 0.0 0.4662147 -0.8846716 0.0 0.4662147 -0.8846716 0.0 0.4662147 -0.8846716 0.0 0.4662147 -0.8846716 0.0 0.882762 -0.4698205 0.0 0.882762 -0.4698205 0.0 0.882762 -0.4698205 0.0 0.882762 -0.4698205 0.0 -0.9975188 0.0703986 -5.253E-4 -0.9975188 0.0703986 -5.253E-4 -0.9975188 0.0703986 -5.253E-4 0.2795595 0.9601284 0.0 0.2795595 0.9601284 0.0 0.2795595 0.9601284 0.0 0.2795595 0.9601284 0.0 -0.4380871 -0.8989325 0.0 -0.4380871 -0.8989325 0.0 -0.4380871 -0.8989325 0.0 -0.4380871 -0.8989325 0.0 0.1431709 -0.989698 0.0 0.1431709 -0.9896979 0.0 0.1431709 -0.989698 0.0 0.1431709 -0.989698 0.0 0.8396616 -0.54311 0.0 0.8396615 -0.54311 0.0 0.8396616 -0.54311 0.0 0.8396616 -0.54311 0.0 -0.1409402 0.9900181 0.0 -0.1409402 0.9900181 0.0 -0.1409402 0.9900181 0.0 -0.1409402 0.9900181 0.0 0.9954593 0.0951879 0.0 0.9954593 0.0951879 0.0 0.9954593 0.0951879 0.0 0.9954593 0.0951879 0.0 0.438017 0.8989668 0.0 0.438017 0.8989667 0.0 0.438017 0.8989668 0.0 0.438017 0.8989668 0.0</float_array>
                    <technique_common>
                        <accessor count="476" source="#geometry0-normal-array" stride="3">
                            <param name="X" type="float"/>
                            <param name="Y" type="float"/>
                            <param name="Z" type="float"/>
                        </accessor>
                    </technique_common>
                </source>
                <vertices id="geometry0-vertex">
                    <input semantic="POSITION" source="#geometry0-position"/>
                </vertices>
                <triangles count="224" material="default_ai_0.2_sh_0.2_tr_0.0_dc_r_0.8_g_0.8_b_0.8_sc_r_1.0_g_1.0_b_1.0_ec_r_0.0_g_0.0_b_0_tri">
                    <input offset="0" semantic="VERTEX" source="#geometry0-vertex"/>
                    <input offset="1" semantic="NORMAL" source="#geometry0-normal"/>
                    <p>142 0 136 1 100 2 142 0 100 2 99 3 110 4 44 5 45 6 110 4 45 6 77 7 111 8 110 9 77 10 111 8 77 10 76 11 144 12 143 13 95 14 144 12 95 14 94 15 128 16 155 17 106 18 128 16 106 18 105 19 125 20 126 21 93 22 125 20 93 22 92 23 12 24 11 25 90 26 12 24 90 26 89 27 139 28 127 29 104 30 139 28 104 30 103 31 115 32 114 33 73 34 115 32 73 34 72 35 131 36 147 37 58 38 131 36 58 38 57 39 11 40 10 41 91 42 11 40 91 42 90 43 26 44 25 45 47 46 26 44 47 46 46 47 121 48 120 49 67 50 121 48 67 50 66 51 130 52 107 53 63 54 130 52 63 54 62 55 29 56 109 57 78 58 29 56 78 58 30 59 129 60 130 61 62 62 129 60 62 62 61 63 136 64 137 65 101 66 136 64 101 66 100 67 22 68 21 69 43 70 22 68 43 70 83 71 18 72 17 73 32 74 18 72 32 74 33 75 133 76 152 77 52 78 133 76 52 78 51 79 19 80 18 81 33 82 19 80 33 82 84 83 108 84 122 85 65 86 108 84 65 86 64 87 150 110 149 111 55 112 150 110 55 112 54 113 119 114 118 115 69 116 119 114 69 116 68 117 5 141 109 142 6 143 25 144 154 145 48 146 25 144 48 146 47 147 114 148 113 149 74 150 114 148 74 150 73 151 151 152 150 153 54 154 151 152 54 154 53 155 104 156 105 157 106 158 103 159 104 156 106 158 102 160 103 159 106 158 101 161 102 160 106 158 100 162 101 161 106 158 99 163 100 162 106 158 98 164 99 163 106 158 40 165 98 164 106 158 41 166 40 165 106 158 97 167 41 166 106 158 96 168 97 167 106 158 95 169 96 168 106 158 94 170 95 169 106 158 93 171 94 170 106 158 92 172 93 171 106 158 91 173 92 172 106 158 90 174 91 173 106 158 89 175 90 174 106 158 88 176 89 175 106 158 87 177 88 176 106 158 86 178 87 177 106 158 85 179 86 178 106 158 32 180 85 179 106 158 33 181 32 180 106 158 84 182 33 181 106 158 42 183 84 182 106 158 43 184 42 183 106 158 83 185 43 184 106 158 82 186 83 185 106 158 81 187 82 186 106 158 2 188 81 187 106 158 3 189 2 188 106 158 80 190 3 189 106 158 80 190 106 158 46 191 80 190 46 191 47 192 80 190 47 192 48 193 80 190 48 193 49 194 80 190 49 194 50 195 80 190 50 195 51 196 80 190 51 196 52 197 80 190 52 197 53 198 80 190 53 198 54 199 80 190 54 199 55 200 80 190 55 200 56 201 80 190 56 201 37 202 80 190 37 202 36 203 80 190 36 203 57 204 80 190 57 204 58 205 80 190 58 205 59 206 80 190 59 206 60 207 80 190 60 207 61 208 80 190 61 208 62 209 80 190 62 209 63 210 80 190 63 210 64 211 80 190 64 211 65 212 80 190 65 212 66 213 80 190 66 213 67 214 80 190 67 214 68 215 80 190 68 215 69 216 80 190 69 216 70 217 80 190 70 217 71 218 80 190 71 218 72 219 80 190 72 219 73 220 80 190 73 220 74 221 80 190 74 221 75 222 80 190 75 222 76 223 80 190 76 223 77 224 80 190 77 224 45 225 80 190 45 225 31 226 80 190 31 226 30 227 80 190 30 227 78 228 80 190 78 228 79 229 4 230 0 231 3 232 4 230 3 232 80 233 138 234 139 235 103 236 138 234 103 236 102 237 135 238 142 239 99 240 135 238 99 240 98 241 154 242 153 243 49 244 154 242 49 244 48 245 34 246 35 247 36 248 34 246 36 248 37 249 116 250 115 251 72 252 116 250 72 252 71 253 107 254 108 255 64 256 107 254 64 256 63 257 137 258 138 259 102 260 137 258 102 260 101 261 153 262 132 263 50 264 153 262 50 264 49 265 38 266 39 267 40 268 38 266 40 268 41 269 14 270 13 271 88 272 14 270 88 272 87 273 132 274 133 275 51 276 132 274 51 276 50 277 109 278 5 279 79 280 109 278 79 280 78 281 15 282 14 283 87 284 15 282 87 284 86 285 0 286 1 287 2 288 0 286 2 288 3 289 117 290 116 291 71 292 117 290 71 292 70 293 118 294 117 295 70 296 118 294 70 296 69 297 147 298 146 299 59 300 147 298 59 300 58 301 35 324 131 325 57 326 35 324 57 326 36 327 126 328 144 329 94 330 126 328 94 330 93 331 148 336 34 337 37 338 148 336 37 338 56 339 1 340 24 341 81 342 1 340 81 342 2 343 155 344 26 345 46 346 155 344 46 346 106 347 20 371 19 372 84 373 20 371 84 373 42 374 112 375 111 376 76 377 112 375 76 377 75 378 21 379 20 380 42 381 21 379 42 381 43 382 127 383 128 384 105 385 127 383 105 385 104 386 10 387 125 388 92 389 10 387 92 389 91 390 140 391 141 392 97 393 140 391 97 393 96 394 5 395 4 396 80 397 5 395 80 397 79 398 39 399 135 400 98 401 39 399 98 401 40 402 141 403 38 404 41 405 141 403 41 405 97 406 113 407 112 408 75 409 113 407 75 409 74 410 149 411 148 412 56 413 149 411 56 413 55 414 44 415 28 416 31 417 44 415 31 417 45 418 125 419 10 420 9 421 108 422 107 423 123 424 152 425 151 426 53 427 152 425 53 427 52 428 146 429 145 430 60 431 146 429 60 431 59 432 16 433 15 434 86 435 16 433 86 435 85 436 17 437 16 438 85 439 17 437 85 439 32 440 24 441 23 442 82 443 24 441 82 443 81 444 25 445 26 446 27 447 122 448 121 449 66 450 122 448 66 450 65 451 143 452 140 453 96 454 143 452 96 454 95 455 13 456 12 457 89 458 13 456 89 458 88 459 23 460 22 461 83 462 23 460 83 462 82 463 145 464 129 465 61 466 145 464 61 466 60 467 28 468 29 469 30 470 28 468 30 470 31 471 120 472 119 473 68 474 120 472 68 474 67 475</p>
                </triangles>
                <triangles count="84" material="default_ai_0.2_sh_0.2_tr_0.0_dc_r_1.0_g_0.2_b_0.2_sc_r_1.0_g_1.0_b_1.0_ec_r_0.0_g_0.0_b_0_tri">
                    <input offset="0" semantic="VERTEX" source="#geometry0-vertex"/>
                    <input offset="1" semantic="NORMAL" source="#geometry0-normal"/>
                    <p>144 88 126 89 125 90 144 88 125 90 9 91 144 88 9 91 8 92 144 88 8 92 134 93 144 88 134 93 27 94 143 95 144 88 27 94 140 96 143 95 27 94 141 97 140 96 27 94 38 98 141 97 27 94 39 99 38 98 27 94 135 100 39 99 27 94 142 101 135 100 27 94 136 102 142 101 27 94 137 103 136 102 27 94 138 104 137 103 27 94 139 105 138 104 27 94 127 106 139 105 27 94 128 107 127 106 27 94 155 108 128 107 27 94 155 108 27 94 26 109 27 118 134 119 124 120 27 118 124 120 123 121 27 118 123 121 107 122 27 118 107 122 130 123 27 118 130 123 129 124 27 118 129 124 145 125 27 118 145 125 146 126 27 118 146 126 147 127 27 118 147 127 131 128 27 118 131 128 35 129 27 118 35 129 34 130 27 118 34 130 148 131 27 118 148 131 149 132 27 118 149 132 150 133 27 118 150 133 151 134 27 118 151 134 152 135 27 118 152 135 133 136 27 118 133 136 132 137 154 138 25 139 27 118 154 138 27 118 132 137 154 138 132 137 153 140 124 302 7 303 6 304 123 305 124 302 6 304 108 306 123 305 6 304 122 307 108 306 6 304 121 308 122 307 6 304 120 309 121 308 6 304 119 310 120 309 6 304 118 311 119 310 6 304 117 312 118 311 6 304 116 313 117 312 6 304 115 314 116 313 6 304 114 315 115 314 6 304 113 316 114 315 6 304 112 317 113 316 6 304 111 318 112 317 6 304 110 319 111 318 6 304 44 320 110 319 6 304 29 321 28 322 44 320 29 321 44 320 6 304 29 321 6 304 109 323 8 332 7 333 124 334 8 332 124 334 134 335 23 348 24 349 1 350 23 348 1 350 0 351 23 348 0 351 4 352 22 353 23 348 4 352 21 354 22 353 4 352 20 355 21 354 4 352 19 356 20 355 4 352 18 357 19 356 4 352 17 358 18 357 4 352 16 359 17 358 4 352 15 360 16 359 4 352 14 361 15 360 4 352 13 362 14 361 4 352 12 363 13 362 4 352 11 364 12 363 4 352 10 365 11 364 4 352 9 366 10 365 4 352 8 367 9 366 4 352 7 368 8 367 4 352 7 368 4 352 5 369 7 368 5 369 6 370</p>
                </triangles>
            </mesh>
        </geometry>
    </library_geometries>
    <library_visual_scenes>
        <visual_scene id="Building_DEBW_5221000Qzqx">
            <node>
                <instance_geometry url="#geometry0">
                    <bind_material>
                        <technique_common>
                            <instance_material symbol="default_ai_0.2_sh_0.2_tr_0.0_dc_r_0.8_g_0.8_b_0.8_sc_r_1.0_g_1.0_b_1.0_ec_r_0.0_g_0.0_b_0_tri" target="#default_ai_0.2_sh_0.2_tr_0.0_dc_r_0.8_g_0.8_b_0.8_sc_r_1.0_g_1.0_b_1.0_ec_r_0.0_g_0.0_b_0_mat"/>
                            <instance_material symbol="default_ai_0.2_sh_0.2_tr_0.0_dc_r_1.0_g_0.2_b_0.2_sc_r_1.0_g_1.0_b_1.0_ec_r_0.0_g_0.0_b_0_tri" target="#default_ai_0.2_sh_0.2_tr_0.0_dc_r_1.0_g_0.2_b_0.2_sc_r_1.0_g_1.0_b_1.0_ec_r_0.0_g_0.0_b_0_mat"/>
                        </technique_common>
                    </bind_material>
                </instance_geometry>
            </node>
        </visual_scene>
    </library_visual_scenes>
    <scene>
        <instance_visual_scene url="#Building_DEBW_5221000Qzqx"/>
    </scene>
</COLLADA>
