<?xml version="1.0" encoding="UTF-8" standalone="yes"?>
<COLLADA xmlns="http://www.collada.org/2005/11/COLLADASchema" version="1.4.1">
    <asset>
        <contributor>
            <authoring_tool>3D City Database Importer/Exporter, version 5.5.3; Chair of Geoinformatics, Technical University of Munich</authoring_tool>
        </contributor>
        <created>2026-05-06T15:12:10.741</created>
        <modified>2026-05-06T15:12:10.741</modified>
        <unit meter="1.0" name="meters"/>
        <up_axis>Z_UP</up_axis>
    </asset>
    <library_materials>
        <material id="default_ai_0.2_sh_0.2_tr_0.0_dc_r_0.8_g_0.8_b_0.8_sc_r_1.0_g_1.0_b_1.0_ec_r_0.0_g_0.0_b_0_mat">
            <instance_effect url="#default_ai_0.2_sh_0.2_tr_0.0_dc_r_0.8_g_0.8_b_0.8_sc_r_1.0_g_1.0_b_1.0_ec_r_0.0_g_0.0_b_0_eff"/>
        </material>
        <material id="default_ai_0.2_sh_0.2_tr_0.0_dc_r_1.0_g_0.2_b_0.2_sc_r_1.0_g_1.0_b_1.0_ec_r_0.0_g_0.0_b_0_mat">
            <instance_effect url="#default_ai_0.2_sh_0.2_tr_0.0_dc_r_1.0_g_0.2_b_0.2_sc_r_1.0_g_1.0_b_1.0_ec_r_0.0_g_0.0_b_0_eff"/>
        </material>
    </library_materials>
    <library_effects>
        <effect id="default_ai_0.2_sh_0.2_tr_0.0_dc_r_0.8_g_0.8_b_0.8_sc_r_1.0_g_1.0_b_1.0_ec_r_0.0_g_0.0_b_0_eff">
            <profile_COMMON>
                <technique sid="COMMON">
                    <lambert>
                        <emission>
                            <color>0.0 0.0 0.0 1.0</color>
                        </emission>
                        <diffuse>
                            <color>0.8 0.8 0.8 1.0</color>
                        </diffuse>
                        <reflective>
                            <color>1.0 1.0 1.0 1.0</color>
                        </reflective>
                        <reflectivity>
                            <float>0.2</float>
                        </reflectivity>
                        <transparent opaque="A_ONE">
                            <color>1.0 1.0 1.0 1.0</color>
                        </transparent>
                        <transparency>
                            <float>1.0</float>
                        </transparency>
                    </lambert>
                </technique>
                <extra>
                    <technique profile="GOOGLEEARTH">
                        <double_sided>0</double_sided>
                    </technique>
                </extra>
            </profile_COMMON>
        </effect>
        <effect id="default_ai_0.2_sh_0.2_tr_0.0_dc_r_1.0_g_0.2_b_0.2_sc_r_1.0_g_1.0_b_1.0_ec_r_0.0_g_0.0_b_0_eff">
            <profile_COMMON>
                <technique sid="COMMON">
                    <lambert>
                        <emission>
                            <color>0.0 0.0 0.0 1.0</color>
                        </emission>
                        <diffuse>
                            <color>1.0 0.2 0.2 1.0</color>
                        </diffuse>
                        <reflective>
                            <color>1.0 1.0 1.0 1.0</color>
                        </reflective>
                        <reflectivity>
                            <float>0.2</float>
                        </reflectivity>
                        <transparent opaque="A_ONE">
                            <color>1.0 1.0 1.0 1.0</color>
                        </transparent>
                        <transparency>
                            <float>1.0</float>
                        </transparency>
                    </lambert>
                </technique>
                <extra>
                    <technique profile="GOOGLEEARTH">
                        <double_sided>0</double_sided>
                    </technique>
                </extra>
            </profile_COMMON>
        </effect>
    </library_effects>
    <library_geometries>
        <geometry id="geometry0">
            <mesh>
                <source id="geometry0-position">
                    <float_array id="geometry0-position-array" count="90">-8.48 6.51 9.0 -11.69 9.44 9.0 -11.57 9.57 9.0 -11.81 9.8 9.0 -17.27 3.83 9.0 -14.87 1.64 9.0 -16.02 0.38 9.0 -13.52 -1.91 9.0 -13.93 -2.36 9.0 -8.67 -7.16 9.0 -5.73 -3.94 9.0 -4.53 -5.03 9.0 -4.02 -4.48 9.0 0.0 0.0 9.0 -7.84 7.2 9.0 0.0 0.0 0.0 -7.84 7.2 0.0 -4.02 -4.48 0.0 -4.53 -5.03 0.0 -5.73 -3.94 0.0 -8.67 -7.16 0.0 -13.93 -2.36 0.0 -13.52 -1.91 0.0 -16.02 0.38 0.0 -14.87 1.64 0.0 -17.27 3.83 0.0 -11.81 9.8 0.0 -11.57 9.57 0.0 -11.69 9.44 0.0 -8.48 6.51 0.0</float_array>
                    <technique_common>
                        <accessor count="30" source="#geometry0-position-array" stride="3">
                            <param name="X" type="float"/>
                            <param name="Y" type="float"/>
                            <param name="Z" type="float"/>
                        </accessor>
                    </technique_common>
                </source>
                <source id="geometry0-normal">
                    <float_array id="geometry0-normal-array" count="270">0.7332681 -0.6799396 0.0 0.7332681 -0.6799396 0.0 0.7332681 -0.6799396 0.0 0.7332681 -0.6799396 0.0 -0.6740695 -0.7386679 0.0 -0.6740695 -0.7386679 0.0 -0.6740695 -0.7386679 0.0 -0.6740695 -0.7386679 0.0 0.7348041 -0.6782795 0.0 0.7348041 -0.6782795 0.0 0.7348041 -0.6782795 0.0 0.7348041 -0.6782795 0.0 -0.7331719 0.6800433 0.0 -0.7331719 0.6800433 0.0 -0.7331719 0.6800433 0.0 -0.7331719 0.6800433 0.0 -0.6740503 -0.7386855 0.0 -0.6740503 -0.7386855 0.0 -0.6740503 -0.7386855 0.0 -0.6740503 -0.7386855 0.0 0.0 0.0 1.0 0.0 0.0 1.0 0.0 0.0 1.0 0.0 0.0 1.0 0.0 0.0 1.0 0.0 0.0 1.0 0.0 0.0 1.0 0.0 0.0 1.0 0.0 0.0 1.0 0.0 0.0 1.0 0.0 0.0 1.0 0.0 0.0 1.0 0.0 0.0 1.0 0.0 0.0 1.0 0.0 0.0 1.0 -0.7391964 0.6734899 0.0 -0.7391964 0.6734899 0.0 -0.7391964 0.6734899 0.0 -0.7391964 0.6734899 0.0 0.676405 0.7365299 0.0 0.676405 0.7365299 0.0 0.676405 0.7365299 0.0 0.676405 0.7365299 0.0 0.0 0.0 -1.0 0.0 0.0 -1.0 0.0 0.0 -1.0 0.0 0.0 -1.0 0.0 0.0 -1.0 0.0 0.0 -1.0 0.0 0.0 -1.0 0.0 0.0 -1.0 0.0 0.0 -1.0 0.0 0.0 -1.0 0.0 0.0 -1.0 0.0 0.0 -1.0 0.0 0.0 -1.0 0.0 0.0 -1.0 0.0 0.0 -1.0 -0.6754575 -0.737399 0.0 -0.6754575 -0.737399 0.0 -0.6754575 -0.737399 0.0 -0.6754575 -0.737399 0.0 -0.6723658 -0.7402191 0.0 -0.6723658 -0.7402191 0.0 -0.6723658 -0.7402191 0.0 -0.6723658 -0.7402191 0.0 0.7442846 -0.6678625 0.0 0.7442846 -0.6678625 0.0 0.7442846 -0.6678625 0.0 0.7442846 -0.6678625 0.0 0.7384855 -0.6742694 0.0 0.7384855 -0.6742694 0.0 0.7384855 -0.6742694 0.0 0.7384855 -0.6742694 0.0 0.691905 0.7219885 0.0 0.691905 0.7219885 0.0 0.691905 0.7219885 0.0 0.691905 0.7219885 0.0 0.6741602 0.7385852 0.0 0.6741602 0.7385852 0.0 0.6741602 0.7385852 0.0 0.6741602 0.7385852 0.0 -0.7386122 0.6741306 0.0 -0.7386122 0.6741306 0.0 -0.7386122 0.6741306 0.0 -0.7386122 0.6741306 0.0 -0.7379233 0.6748846 0.0 -0.7379233 0.6748846 0.0 -0.7379233 0.6748846 0.0 -0.7379233 0.6748846 0.0</float_array>
                    <technique_common>
                        <accessor count="90" source="#geometry0-normal-array" stride="3">
                            <param name="X" type="float"/>
                            <param name="Y" type="float"/>
                            <param name="Z" type="float"/>
                        </accessor>
                    </technique_common>
                </source>
                <vertices id="geometry0-vertex">
                    <input semantic="POSITION" source="#geometry0-position"/>
                </vertices>
                <triangles count="43" material="default_ai_0.2_sh_0.2_tr_0.0_dc_r_0.8_g_0.8_b_0.8_sc_r_1.0_g_1.0_b_1.0_ec_r_0.0_g_0.0_b_0_tri">
                    <input offset="0" semantic="VERTEX" source="#geometry0-vertex"/>
                    <input offset="1" semantic="NORMAL" source="#geometry0-normal"/>
                    <p>12 0 11 1 18 2 12 0 18 2 17 3 9 4 8 5 21 6 9 4 21 6 20 7 2 8 1 9 28 10 2 8 28 10 27 11 0 12 14 13 16 14 0 12 16 14 29 15 5 16 4 17 25 18 5 16 25 18 24 19 8 35 7 36 22 37 8 35 22 37 21 38 14 39 13 40 15 41 14 39 15 41 16 42 26 43 27 44 28 45 25 46 26 43 28 45 25 46 28 45 29 47 24 48 25 46 29 47 23 49 24 48 29 47 22 50 23 49 29 47 22 50 29 47 16 51 22 50 16 51 15 52 21 53 22 50 15 52 19 54 20 55 21 53 19 54 21 53 15 52 19 54 15 52 17 56 19 54 17 56 18 57 7 58 6 59 23 60 7 58 23 60 22 61 11 62 10 63 19 64 11 62 19 64 18 65 13 66 12 67 17 68 13 66 17 68 15 69 10 70 9 71 20 72 10 70 20 72 19 73 3 74 2 75 27 76 3 74 27 76 26 77 1 78 0 79 29 80 1 78 29 80 28 81 6 82 5 83 24 84 6 82 24 84 23 85 4 86 3 87 26 88 4 86 26 88 25 89</p>
                </triangles>
                <triangles count="13" material="default_ai_0.2_sh_0.2_tr_0.0_dc_r_1.0_g_0.2_b_0.2_sc_r_1.0_g_1.0_b_1.0_ec_r_0.0_g_0.0_b_0_tri">
                    <input offset="0" semantic="VERTEX" source="#geometry0-vertex"/>
                    <input offset="1" semantic="NORMAL" source="#geometry0-normal"/>
                    <p>2 20 3 21 1 22 3 21 4 23 1 22 1 22 4 23 0 24 4 23 5 25 0 24 5 25 6 26 0 24 6 26 7 27 0 24 0 24 7 27 14 28 14 28 7 27 13 29 7 27 8 30 13 29 9 31 10 32 8 30 8 30 10 32 13 29 13 29 10 32 12 33 12 33 10 32 11 34</p>
                </triangles>
            </mesh>
        </geometry>
    </library_geometries>
    <library_visual_scenes>
        <visual_scene id="Building_DEBW_5221000Qspe">
            <node>
                <instance_geometry url="#geometry0">
                    <bind_material>
                        <technique_common>
                            <instance_material symbol="default_ai_0.2_sh_0.2_tr_0.0_dc_r_0.8_g_0.8_b_0.8_sc_r_1.0_g_1.0_b_1.0_ec_r_0.0_g_0.0_b_0_tri" target="#default_ai_0.2_sh_0.2_tr_0.0_dc_r_0.8_g_0.8_b_0.8_sc_r_1.0_g_1.0_b_1.0_ec_r_0.0_g_0.0_b_0_mat"/>
                            <instance_material symbol="default_ai_0.2_sh_0.2_tr_0.0_dc_r_1.0_g_0.2_b_0.2_sc_r_1.0_g_1.0_b_1.0_ec_r_0.0_g_0.0_b_0_tri" target="#default_ai_0.2_sh_0.2_tr_0.0_dc_r_1.0_g_0.2_b_0.2_sc_r_1.0_g_1.0_b_1.0_ec_r_0.0_g_0.0_b_0_mat"/>
                        </technique_common>
                    </bind_material>
                </instance_geometry>
            </node>
        </visual_scene>
    </library_visual_scenes>
    <scene>
        <instance_visual_scene url="#Building_DEBW_5221000Qspe"/>
    </scene>
</COLLADA>
