<?xml version="1.0" encoding="UTF-8" standalone="yes"?>
<COLLADA xmlns="http://www.collada.org/2005/11/COLLADASchema" version="1.4.1">
    <asset>
        <contributor>
            <authoring_tool>3D City Database Importer/Exporter, version 5.5.3; Chair of Geoinformatics, Technical University of Munich</authoring_tool>
        </contributor>
        <created>2026-05-06T15:12:07.690</created>
        <modified>2026-05-06T15:12:07.690</modified>
        <unit meter="1.0" name="meters"/>
        <up_axis>Z_UP</up_axis>
    </asset>
    <library_materials>
        <material id="default_ai_0.2_sh_0.2_tr_0.0_dc_r_0.8_g_0.8_b_0.8_sc_r_1.0_g_1.0_b_1.0_ec_r_0.0_g_0.0_b_0_mat">
            <instance_effect url="#default_ai_0.2_sh_0.2_tr_0.0_dc_r_0.8_g_0.8_b_0.8_sc_r_1.0_g_1.0_b_1.0_ec_r_0.0_g_0.0_b_0_eff"/>
        </material>
        <material id="default_ai_0.2_sh_0.2_tr_0.0_dc_r_1.0_g_0.2_b_0.2_sc_r_1.0_g_1.0_b_1.0_ec_r_0.0_g_0.0_b_0_mat">
            <instance_effect url="#default_ai_0.2_sh_0.2_tr_0.0_dc_r_1.0_g_0.2_b_0.2_sc_r_1.0_g_1.0_b_1.0_ec_r_0.0_g_0.0_b_0_eff"/>
        </material>
    </library_materials>
    <library_effects>
        <effect id="default_ai_0.2_sh_0.2_tr_0.0_dc_r_0.8_g_0.8_b_0.8_sc_r_1.0_g_1.0_b_1.0_ec_r_0.0_g_0.0_b_0_eff">
            <profile_COMMON>
                <technique sid="COMMON">
                    <lambert>
                        <emission>
                            <color>0.0 0.0 0.0 1.0</color>
                        </emission>
                        <diffuse>
                            <color>0.8 0.8 0.8 1.0</color>
                        </diffuse>
                        <reflective>
                            <color>1.0 1.0 1.0 1.0</color>
                        </reflective>
                        <reflectivity>
                            <float>0.2</float>
                        </reflectivity>
                        <transparent opaque="A_ONE">
                            <color>1.0 1.0 1.0 1.0</color>
                        </transparent>
                        <transparency>
                            <float>1.0</float>
                        </transparency>
                    </lambert>
                </technique>
                <extra>
                    <technique profile="GOOGLEEARTH">
                        <double_sided>0</double_sided>
                    </technique>
                </extra>
            </profile_COMMON>
        </effect>
        <effect id="default_ai_0.2_sh_0.2_tr_0.0_dc_r_1.0_g_0.2_b_0.2_sc_r_1.0_g_1.0_b_1.0_ec_r_0.0_g_0.0_b_0_eff">
            <profile_COMMON>
                <technique sid="COMMON">
                    <lambert>
                        <emission>
                            <color>0.0 0.0 0.0 1.0</color>
                        </emission>
                        <diffuse>
                            <color>1.0 0.2 0.2 1.0</color>
                        </diffuse>
                        <reflective>
                            <color>1.0 1.0 1.0 1.0</color>
                        </reflective>
                        <reflectivity>
                            <float>0.2</float>
                        </reflectivity>
                        <transparent opaque="A_ONE">
                            <color>1.0 1.0 1.0 1.0</color>
                        </transparent>
                        <transparency>
                            <float>1.0</float>
                        </transparency>
                    </lambert>
                </technique>
                <extra>
                    <technique profile="GOOGLEEARTH">
                        <double_sided>0</double_sided>
                    </technique>
                </extra>
            </profile_COMMON>
        </effect>
    </library_effects>
    <library_geometries>
        <geometry id="geometry0">
            <mesh>
                <source id="geometry0-position">
                    <float_array id="geometry0-position-array" count="459">0.0 0.0 0.0 0.253 3.682 0.0 3.88 3.44 0.0 3.88 3.44 19.691 0.253 3.682 18.937 0.091 1.318 19.421 0.0 0.0 19.691 0.0 0.0 19.421 3.88 3.44 7.292 0.253 3.682 7.292 22.52 5.35 7.292 22.52 5.35 7.307 22.46 4.35 7.302 22.46 4.35 7.292 22.37 2.84 7.295 22.37 2.84 0.0 22.46 4.35 0.0 -6.32 7.331 7.292 -6.32 7.331 17.691 -6.32 7.331 21.084 -6.32 7.331 21.431 6.447 6.454 23.972 6.242 3.282 23.972 7.92 3.17 22.233 22.222 2.214 7.406 22.332 2.207 7.292 22.52 5.35 0.0 22.52 5.35 7.139 7.92 3.17 7.292 7.92 3.17 7.406 3.88 3.44 23.502 7.92 3.17 0.0 -6.541 4.136 21.428 22.332 2.207 0.0 -6.541 4.136 0.0 -6.32 7.331 0.0 -6.541 4.136 20.508 -6.541 4.136 19.421 0.253 3.682 19.421 -6.32 7.331 7.139 -6.541 4.136 7.292 -6.541 4.136 17.691 -30.76 -5.53 7.035 -30.766 -5.53 7.035 -30.766 -5.53 0.0 -30.76 -5.53 0.0 -30.819 -6.397 7.035 -23.655 -6.881 7.035 -22.747 5.219 7.035 -21.26 25.02 7.035 -28.63 25.5 7.035 -28.92 21.47 7.035 -28.907 21.469 7.035 -30.819 -6.397 0.0 -30.819 -6.397 7.019 -28.63 25.5 0.0 -28.92 21.47 0.0 -28.907 21.469 0.0 -21.26 25.02 0.0 -22.747 5.219 0.0 -23.655 -6.881 0.0 -23.655 -6.881 7.019 -51.67 -4.1 7.92 -49.83 22.91 7.92 -49.83 22.91 0.0 -51.67 -4.1 0.0 -28.92 21.47 7.92 -28.907 21.469 7.92 -37.91 -5.03 0.0 -30.766 -5.53 7.92 -37.91 -5.03 7.92 -15.164 4.713 0.0 -21.01 28.35 0.0 -13.64 27.85 0.0 -13.64 27.85 19.194 -21.01 28.35 19.194 -21.26 25.02 19.194 -22.747 5.219 19.194 -15.164 4.713 19.194 -13.945 23.219 19.194 -13.64 27.85 18.321 -13.64 27.85 17.691 -15.164 4.713 17.691 -4.44 34.49 7.139 26.5 46.09 7.139 26.5 46.09 0.0 -4.44 34.49 0.0 26.49 31.66 7.139 24.87 7.86 7.139 24.87 7.86 0.0 26.49 31.66 0.0 27.33 43.93 7.139 27.33 43.93 0.0 24.68 5.073 7.139 23.83 5.26 7.139 23.83 5.26 0.0 24.68 5.073 0.0 -4.71 30.59 0.0 -4.71 30.59 7.139 7.55 -1.88 7.406 7.78 1.38 7.406 7.78 1.38 0.0 7.55 -1.88 0.0 8.33 -2.78 7.406 23.26 -3.78 7.406 23.659 1.76 7.406 23.73 2.74 7.406 22.37 2.84 7.406 22.332 2.207 7.406 23.73 2.74 0.0 23.659 1.76 0.0 23.26 -3.78 0.0 8.33 -2.78 0.0 -13.42 31.19 0.0 -6.133 10.028 21.57 -14.775 10.615 21.57 -15.164 4.713 20.506 -13.42 31.19 17.691 -4.71 30.59 17.691 -15.164 4.713 19.421 30.27 6.67 0.0 30.07 3.89 0.0 30.07 3.89 12.813 24.68 5.073 12.813 30.27 6.67 12.813 24.87 7.86 12.813 -25.18 -8.901 7.019 -29.18 -8.62 7.019 -29.18 -8.62 0.0 -25.18 -8.901 0.0 -30.97 -8.5 0.0 -30.92 -7.9 0.0 -4.28 -8.19 0.0 -4.33 -9.04 0.0 -7.02 -11.38 0.0 -8.15 -10.08 0.0 -30.97 -8.5 7.019 -30.92 -7.9 7.019 -8.15 -10.08 7.019 -7.02 -11.38 7.019 -4.33 -9.04 7.019 -4.28 -8.19 7.019 -0.16 -2.53 19.421 -0.58 -8.44 19.421 -0.58 -8.44 0.0 -0.16 -2.53 0.0 -15.164 4.712 0.0 -23.655 -6.881 19.421 -4.28 -8.19 19.421 -15.164 4.712 19.421 -22.747 5.219 19.421 -15.164 4.712 19.194 -15.164 4.712 17.691</float_array>
                    <technique_common>
                        <accessor count="153" source="#geometry0-position-array" stride="3">
                            <param name="X" type="float"/>
                            <param name="Y" type="float"/>
                            <param name="Z" type="float"/>
                        </accessor>
                    </technique_common>
                </source>
                <source id="geometry0-normal">
                    <float_array id="geometry0-normal-array" count="2073">0.0 0.0 -1.0 0.0 0.0 -1.0 0.0 0.0 -1.0 0.0 0.0 -1.0 0.0 0.0 -1.0 0.0 0.0 -1.0 0.0 0.0 -1.0 0.0 0.0 -1.0 0.0 0.0 -1.0 0.0 0.0 -1.0 -0.7547306 -0.6560348 0.0 -0.7547306 -0.6560348 0.0 -0.7547306 -0.6560348 0.0 -0.7547306 -0.6560348 0.0 0.0 0.0 -1.0 0.0 0.0 -1.0 0.0 0.0 -1.0 0.0 0.0 -1.0 0.0 0.0 -1.0 0.0 0.0 -1.0 0.0 0.0 -1.0 0.0 0.0 -1.0 0.0 0.0 -1.0 -0.0668889 -0.9977604 0.0 -0.0668889 -0.9977604 0.0 -0.0668889 -0.9977604 0.0 -0.0668889 -0.9977604 0.0 -0.9976121 0.0690654 0.0 -0.9976121 0.0690654 0.0 -0.9976121 0.0690654 0.0 -0.9976121 0.0690654 0.0 -0.069818 -0.9975597 0.0 -0.069818 -0.9975597 0.0 -0.069818 -0.9975597 0.0 -0.069818 -0.9975597 0.0 -0.069818 -0.9975597 0.0 -0.9982029 0.0599239 0.0 -0.9982029 0.0599239 0.0 -0.9982029 0.0599239 0.0 -0.998203 0.0599239 0.0 0.0 0.0 1.0 0.0 0.0 1.0 0.0 0.0 1.0 0.0 0.0 1.0 0.0 0.0 1.0 0.0 0.0 1.0 0.0 0.0 1.0 0.0 0.0 1.0 0.0 0.0 1.0 0.0 0.0 1.0 0.0649912 0.9978858 0.0 0.0649912 0.9978858 0.0 0.0649912 0.9978858 0.0 0.0649912 0.9978858 0.0 -0.0674076 -0.9977255 0.0 -0.0674076 -0.9977255 0.0 -0.0674076 -0.9977255 0.0 -0.0674076 -0.9977255 0.0 0.0 0.0 1.0 0.0 0.0 1.0 0.0 0.0 1.0 0.0 0.0 1.0 0.0 0.0 1.0 0.0 0.0 1.0 0.0666495 0.9977764 0.0 0.0666495 0.9977764 0.0 0.0666495 0.9977764 0.0 0.0666495 0.9977764 0.0 0.0666495 0.9977765 0.0 0.066675 0.9977747 0.0 0.066675 0.9977747 0.0 0.066675 0.9977747 0.0 0.066675 0.9977747 0.0 0.066675 0.9977747 0.0 0.066675 0.9977747 0.0 0.066675 0.9977747 0.0 0.066675 0.9977747 0.0 0.066675 0.9977747 0.0 0.066675 0.9977747 0.0 0.9976482 -0.0685415 -5.6E-6 0.9976249 -0.06888 0.0 0.9976363 -0.0687155 -1.12E-5 0.9976539 -0.0684593 -1.12E-5 0.9976602 -0.0683676 0.0 0.9976602 -0.0683676 0.0 0.9976649 -0.0682998 0.0 0.9976649 -0.0682998 0.0 0.9976649 -0.0682998 0.0 0.9976649 -0.0682998 0.0 0.0 0.0 1.0 0.0 0.0 1.0 0.0 0.0 1.0 0.0 0.0 1.0 0.0 0.0 1.0 0.0 0.0 1.0 0.0667111 0.9977723 0.0 0.0667111 0.9977723 0.0 0.0667111 0.9977723 0.0 0.0667111 0.9977723 0.0 0.0667111 0.9977723 0.0 0.0667111 0.9977723 0.0 -0.9976163 0.0690056 0.0 -0.9976163 0.0690056 0.0 -0.9976163 0.0690056 0.0 -0.9976163 0.0690056 0.0 -0.9971962 0.074831 0.0 -0.9971962 0.074831 0.0 -0.9971962 0.074831 0.0 -0.9971962 0.074831 0.0 -0.9971962 0.074831 0.0 -0.0667647 -0.9977688 0.0 -0.0667647 -0.9977688 0.0 -0.0667647 -0.9977688 0.0 -0.0667647 -0.9977688 0.0 -0.0667647 -0.9977688 0.0 0.7180347 -0.0463011 0.6944655 0.7174202 -0.0463626 0.6950963 0.7169048 -0.0461439 0.6956424 0.7189025 -0.046333 0.6935651 0.719443 -0.0464885 0.6929941 0.7174315 -0.0462793 0.6950901 0.7174105 -0.0463007 0.6951104 0.717348 -0.0463607 0.6951708 0.9976164 -0.0690056 0.0 0.9976164 -0.0690056 0.0 0.9976164 -0.0690056 0.0 0.9976164 -0.0690056 0.0 0.0666495 0.9977765 0.0 0.0666495 0.9977764 0.0 0.0666495 0.9977765 0.0 0.0666495 0.9977765 0.0 0.0666495 0.9977765 0.0 -0.9978377 0.0657261 0.0 -0.9978377 0.0657261 0.0 -0.9978377 0.0657261 0.0 -0.9978377 0.0657261 0.0 0.9976128 -0.0690553 0.0 0.9976128 -0.0690553 0.0 0.9976128 -0.0690553 0.0 0.9976128 -0.0690553 0.0 0.067687 0.9977066 0.0 0.067687 0.9977066 0.0 0.067687 0.9977066 0.0 0.067687 0.9977066 0.0 0.067687 0.9977066 0.0 0.067687 0.9977067 0.0 -0.9978377 0.0657267 1.79E-5 -0.9978378 0.0657261 0.0 -0.9978378 0.0657261 0.0 -0.9978377 0.0657271 2.69E-5 -0.9978375 0.0657281 5.37E-5 -0.0667647 -0.9977688 0.0 -0.0667647 -0.9977688 0.0 -0.0667647 -0.9977688 0.0 -0.0667647 -0.9977688 0.0 -0.0667647 -0.9977688 0.0 -0.0674334 -0.9977238 0.0 -0.0674334 -0.9977238 0.0 -0.0674334 -0.9977238 0.0 -0.0674334 -0.9977238 0.0 0.9976163 -0.0690056 0.0 0.9976163 -0.0690056 0.0 0.9976163 -0.0690056 0.0 0.9976163 -0.0690056 0.0 0.9976163 -0.0690056 0.0 0.9976163 -0.0690056 0.0 0.9976163 -0.0690056 0.0 0.9976163 -0.0690056 0.0 0.9976164 -0.0690056 0.0 -0.9976842 0.068016 0.0 -0.9976842 0.068016 0.0 -0.9976842 0.068016 0.0 -0.9976842 0.068016 0.0 -0.9971937 0.0748644 0.0 -0.9971937 0.0748644 0.0 -0.9971937 0.0748644 0.0 -0.9971937 0.0748644 0.0 -0.9971937 0.0748644 0.0 -0.0685405 -0.9976484 0.0 -0.0685405 -0.9976484 0.0 -0.0685405 -0.9976484 0.0 -0.0685405 -0.9976484 0.0 -0.0674064 -0.9977256 0.0 -0.0674064 -0.9977256 0.0 -0.0674064 -0.9977256 0.0 -0.0674064 -0.9977256 0.0 0.9982047 -0.0598937 0.0 0.9982048 -0.0598937 0.0 0.9982048 -0.0598937 0.0 0.9982048 -0.0598937 0.0 0.9982048 -0.0598937 0.0 -0.9971921 0.0748863 0.0 -0.9971921 0.0748863 0.0 -0.9971921 0.0748863 0.0 -0.9971921 0.0748863 0.0 -0.9976163 0.0690056 0.0 -0.9976163 0.0690056 0.0 -0.9976163 0.0690056 0.0 -0.9976163 0.0690056 0.0 -0.9976163 0.0690056 0.0 0.9976379 -0.0686918 0.0 0.9976379 -0.0686918 0.0 0.9976379 -0.0686918 0.0 0.9976379 -0.0686918 0.0 0.0685278 0.9976493 0.0 0.0685278 0.9976493 0.0 0.0685278 0.9976493 0.0 0.0685278 0.9976493 0.0 -0.9976164 0.0690056 0.0 -0.9976164 0.0690056 0.0 -0.9976164 0.0690056 0.0 -0.9976164 0.0690056 0.0 -0.0665737 -0.9977815 0.0 -0.0665737 -0.9977815 0.0 -0.0665737 -0.9977815 0.0 -0.0665737 -0.9977815 0.0 -0.0666706 -0.9977751 0.0 -0.0666706 -0.9977751 0.0 -0.0666706 -0.9977751 0.0 -0.0666706 -0.9977751 0.0 -0.9976163 0.0690056 0.0 -0.9976163 0.0690056 0.0 -0.9976163 0.0690056 0.0 -0.9976163 0.0690056 0.0 -0.9976164 0.0690056 0.0 -0.0666827 -0.9977731 -0.0015325 -0.0666703 -0.9977704 -0.003065 -0.0666827 -0.9977731 -0.0015325 -0.066695 -0.9977734 0.0 0.0 0.0 -1.0 0.0 0.0 -1.0 0.0 0.0 -1.0 0.0 0.0 -1.0 -0.0665737 -0.9977815 0.0 -0.0665737 -0.9977815 0.0 -0.0665737 -0.9977815 0.0 -0.0665737 -0.9977815 0.0 -0.0674064 -0.9977256 0.0 -0.0674064 -0.9977256 0.0 -0.0674064 -0.9977256 0.0 -0.0674064 -0.9977256 0.0 0.9971921 -0.0748863 0.0 0.9971921 -0.0748863 0.0 0.9971921 -0.0748863 0.0 0.9971921 -0.0748863 0.0 -0.066675 -0.9977747 0.0 -0.066675 -0.9977747 0.0 -0.066675 -0.9977747 0.0 -0.066675 -0.9977747 0.0 -0.066675 -0.9977747 0.0 -0.066675 -0.9977747 0.0 -0.066675 -0.9977747 0.0 -0.066675 -0.9977747 0.0 -0.066675 -0.9977747 0.0 -0.066675 -0.9977747 0.0 0.9982029 -0.0599239 0.0 0.9982029 -0.0599239 0.0 0.9982029 -0.0599239 0.0 0.998203 -0.0599239 0.0 0.9971962 -0.074831 0.0 0.9971962 -0.074831 0.0 0.9971962 -0.074831 0.0 0.9971962 -0.074831 0.0 0.9971962 -0.074831 0.0 -0.2143778 -0.9767509 0.0 -0.2143778 -0.9767508 0.0 -0.2143778 -0.9767508 0.0 -0.2143778 -0.9767509 0.0 -0.2143778 -0.9767509 0.0 -0.06669 -0.9977738 -1.28E-5 -0.0666829 -0.9977742 0.0 -0.0666829 -0.9977742 0.0 -0.0666829 -0.9977742 0.0 -0.0666669 -0.9977753 -2.56E-5 -0.0666971 -0.9977733 -2.56E-5 -0.0667433 -0.9977702 0.0 -0.9976379 0.0686918 0.0 -0.9976379 0.0686918 0.0 -0.9976379 0.0686918 0.0 -0.9976379 0.0686918 0.0 0.9974843 -0.0708872 0.0 0.9974843 -0.0708872 0.0 0.9974843 -0.0708872 0.0 0.9974843 -0.0708872 0.0 0.9974221 -0.0717573 0.0 0.9974221 -0.0717573 0.0 0.9974221 -0.0717573 0.0 0.9974221 -0.0717573 0.0 0.0 0.0 -1.0 0.0 0.0 -1.0 0.0 0.0 -1.0 0.0 0.0 -1.0 0.0 0.0 -1.0 0.0 0.0 -1.0 0.0 0.0 -1.0 0.0 0.0 -1.0 0.0 0.0 -1.0 0.0665737 0.9977815 0.0 0.0665737 0.9977815 0.0 0.0665737 0.9977815 0.0 0.0665737 0.9977815 0.0 0.0 0.0 -1.0 0.0 0.0 -1.0 0.0 0.0 -1.0 0.0 0.0 -1.0 0.0 0.0 -1.0 0.0 0.0 -1.0 -0.9976417 0.0686333 6.287E-4 -0.9976218 0.0688798 0.0025147 -0.9976355 0.0687155 0.0012574 -0.9976476 0.068551 0.0 -0.9976476 0.068551 0.0 -0.9976476 0.068551 0.0 0.0666827 0.9977731 0.0015442 0.0666706 0.997775 0.0 0.0666827 0.9977731 0.0015442 0.0666946 0.9977686 0.0030885 0.0 0.0 1.0 0.0 0.0 1.0 0.0 0.0 1.0 0.0 0.0 1.0 -0.9982029 0.0599239 0.0 -0.998203 0.0599239 0.0 -0.9982029 0.0599239 0.0 -0.9982029 0.0599239 0.0 0.9980062 -0.063115 0.0 0.9980062 -0.063115 0.0 0.9980062 -0.063115 0.0 0.9980062 -0.063115 0.0 0.0665738 0.9977815 0.0 0.0665737 0.9977815 0.0 0.0665738 0.9977815 0.0 0.0665738 0.9977815 0.0 -0.0666829 -0.9977742 0.0 -0.0666829 -0.9977742 0.0 -0.0666829 -0.9977742 0.0 -0.0666829 -0.9977742 0.0 0.9978383 -0.065718 0.0 0.9978383 -0.065718 0.0 0.9978383 -0.065718 0.0 0.0 0.0 1.0 0.0 0.0 1.0 0.0 0.0 1.0 0.0 0.0 1.0 0.0 0.0 1.0 0.0 0.0 1.0 0.0 0.0 1.0 0.0 0.0 1.0 0.0 0.0 1.0 0.0 0.0 1.0 0.0666706 0.9977751 0.0 0.0666706 0.9977751 0.0 0.0666706 0.9977751 0.0 0.0666706 0.9977751 0.0 -0.0120197 -0.1765883 0.9842114 -0.0120476 -0.1766358 0.9842026 -0.0120344 -0.1766196 0.9842056 -0.0120058 -0.1765646 0.9842158 -0.0119904 -0.1765258 0.9842229 0.2152068 0.9765686 0.0 0.2152068 0.9765685 0.0 0.2152068 0.9765685 0.0 0.2152068 0.9765686 0.0 0.2152068 0.9765686 0.0 -0.0674138 -0.9977251 0.0 -0.0674138 -0.9977251 0.0 -0.0674138 -0.9977251 0.0 -0.0674138 -0.9977251 0.0 -0.0674139 -0.9977251 0.0 -0.9978377 0.0657259 0.0 -0.9978377 0.0657259 0.0 -0.9978377 0.0657259 0.0 -0.1943533 0.0125574 0.9808512 -0.1943573 0.0125227 0.9808509 -0.194363 0.0125564 0.9808493 -0.1943513 0.0125748 0.9808514 -0.194334 0.0125594 0.980855 0.9976602 -0.0683676 0.0 0.9976602 -0.0683676 0.0 0.9976602 -0.0683676 0.0 0.9976379 -0.0686918 0.0 0.9976379 -0.0686918 0.0 0.9976379 -0.0686918 0.0 0.9976379 -0.0686918 0.0 -0.9978378 0.0657259 0.0 -0.9978378 0.0657259 0.0 -0.9978378 0.0657259 0.0 -0.9978378 0.0657259 0.0 0.0 0.0 -1.0 0.0 0.0 -1.0 0.0 0.0 -1.0 -0.9976842 0.068016 0.0 -0.9976842 0.068016 0.0 -0.9976842 0.068016 0.0 -0.9976842 0.068016 0.0 0.0 -1.0 0.0 0.0 -1.0 0.0 0.0 -1.0 0.0 0.0 -1.0 0.0 0.012663 0.1844934 0.9827522 0.0127105 0.1845146 0.9827476 0.0127305 0.1845213 0.9827461 0.0126392 0.1844828 0.9827545 0.0125278 0.1844377 0.9827644 -0.0685278 -0.9976493 0.0 -0.0685278 -0.9976493 0.0 -0.0685278 -0.9976493 0.0 -0.0685278 -0.9976493 0.0 -0.9976128 0.0690553 0.0 -0.9976128 0.0690553 0.0 -0.9976128 0.0690553 0.0 -0.9976128 0.0690553 0.0 0.0685278 0.9976492 0.0 0.0685278 0.9976492 0.0 0.0685278 0.9976492 0.0 0.0685278 0.9976492 0.0 0.0667111 0.9977724 0.0 0.0667111 0.9977724 0.0 0.0667111 0.9977724 0.0 0.0667111 0.9977724 0.0 -0.1856765 0.2093856 0.9600427 -0.1856217 0.2092837 0.9600755 -0.1856765 0.2093856 0.9600427 -0.1857313 0.2094876 0.9600098 0.9976842 -0.068016 0.0 0.9976842 -0.068016 0.0 0.9976842 -0.068016 0.0 0.9976842 -0.068016 0.0 0.0 0.0 1.0 0.0 0.0 1.0 0.0 0.0 1.0 0.0 0.0 1.0 0.0 0.0 1.0 0.0 0.0 1.0 0.0 0.0 1.0 0.0 0.0 1.0 0.0 0.0 1.0 0.0687235 0.9976357 0.0 0.0687235 0.9976357 0.0 0.0687235 0.9976357 0.0 0.0687235 0.9976357 0.0 0.0687235 0.9976357 0.0 0.0 0.0 -1.0 0.0 0.0 -1.0 0.0 0.0 -1.0 0.0 0.0 -1.0 0.0 0.0 -1.0 0.0 0.0 -1.0 0.0 0.0 -1.0 0.0 0.0 -1.0 0.0 0.0 -1.0 0.6634057 -0.7482599 0.0 0.6634057 -0.7482599 0.0 0.6634057 -0.7482599 0.0 0.6634057 -0.7482599 0.0 0.6634057 -0.7482599 0.0 0.6634057 -0.7482599 0.0 -0.9975204 0.0703772 0.0 -0.9975204 0.0703772 0.0 -0.9975204 0.0703772 0.0 -0.9975204 0.0703772 0.0 0.9976128 -0.0690553 0.0 0.9976129 -0.0690553 0.0 0.9976129 -0.0690553 0.0 0.9976128 -0.0690553 0.0 0.9976128 -0.0690553 0.0 0.0674076 0.9977255 0.0 0.0674076 0.9977255 0.0 0.0674076 0.9977255 0.0 0.0674076 0.9977255 0.0 -0.9976926 0.0678938 0.0 -0.9976925 0.0678938 0.0 -0.9976926 0.0678938 0.0 -0.9976926 0.0678938 0.0 -0.9976925 0.0678938 0.0 -0.9976877 0.0679653 0.0 -0.9976877 0.0679653 0.0 -0.9976877 0.0679653 0.0 -0.9976877 0.0679653 0.0 0.9982285 -0.0594959 0.0 0.9982285 -0.0594959 0.0 0.9982285 -0.0594959 0.0 -0.9971962 0.074831 0.0 -0.9971962 0.074831 0.0 -0.9971962 0.074831 0.0 -0.9971962 0.074831 0.0 -0.9971962 0.074831 0.0 0.0 0.0 1.0 0.0 0.0 1.0 0.0 0.0 1.0 0.0 0.0 1.0 0.0 0.0 1.0 0.0 0.0 1.0 0.0 0.0 1.0 0.0 0.0 1.0 0.0 0.0 1.0 0.0 0.0 1.0 -0.9976249 0.06888 0.0 -0.9976249 0.06888 0.0 -0.9976249 0.06888 0.0 0.0674064 0.9977256 0.0 0.0674064 0.9977256 0.0 0.0674064 0.9977256 0.0 0.0674064 0.9977256 0.0 0.9982048 -0.0598937 0.0 0.9982048 -0.0598937 0.0 0.9982048 -0.0598937 0.0 0.9982048 -0.0598937 0.0 -0.0674076 -0.9977255 0.0 -0.0674076 -0.9977255 0.0 -0.0674076 -0.9977255 0.0 -0.0674076 -0.9977255 0.0 -0.0674076 -0.9977255 0.0 0.0 0.0 -1.0 0.0 0.0 -1.0 0.0 0.0 -1.0 0.0 0.0 -1.0 0.0 0.0 -1.0 0.0 0.0 -1.0 0.0 0.0 -1.0 0.0 0.0 -1.0 0.0 0.0 -1.0 -0.0700773 -0.9975415 0.0 -0.0700773 -0.9975415 0.0 -0.0700773 -0.9975415 0.0 -0.0700773 -0.9975415 0.0 -0.9974208 0.0717749 0.0 -0.9974208 0.0717749 0.0 -0.9974208 0.0717749 0.0 -0.9974208 0.0717749 0.0 -0.0668295 -0.9977644 0.0 -0.0668295 -0.9977644 0.0 -0.0668295 -0.9977644 0.0 -0.0668295 -0.9977644 0.0 0.9976088 -0.0691128 -4.02E-5 0.9976048 -0.0691703 0.0 0.9976088 -0.0691128 -4.02E-5 0.9976128 -0.0690553 -8.04E-5 -0.066695 -0.9977734 0.0 -0.066695 -0.9977734 0.0 -0.066695 -0.9977734 0.0 0.0 0.0 -1.0 0.0 0.0 -1.0 0.0 0.0 -1.0 0.0 0.0 -1.0 0.0 0.0 -1.0 0.0 0.0 -1.0 0.0 0.0 -1.0 0.0 0.0 -1.0 0.0 0.0 -1.0 0.0 0.0 -1.0 0.9982285 -0.0594959 0.0 0.9982285 -0.0594959 0.0 0.9982285 -0.0594959 0.0 0.9982285 -0.0594959 0.0 -0.7556892 -0.6549304 0.0 -0.7556892 -0.6549304 0.0 -0.7556892 -0.6549304 0.0 -0.7556892 -0.6549304 0.0 -0.3510571 0.936354 0.0 -0.3510571 0.936354 0.0 -0.3510571 0.936354 0.0 -0.3510571 0.936354 0.0 -0.9965459 0.0830442 0.0 -0.9965459 0.0830442 0.0 -0.9965459 0.0830442 0.0 -0.9965459 0.0830442 0.0 -0.9971921 0.0748863 0.0 -0.9971921 0.0748863 0.0 -0.9971921 0.0748863 0.0 -0.9971921 0.0748863 0.0 0.9976915 -0.0679101 0.0 0.9976915 -0.0679101 0.0 0.9976915 -0.0679101 0.0 0.9976915 -0.0679101 0.0 0.0 0.0 1.0 0.0 0.0 1.0 0.0 0.0 1.0 0.0 0.0 1.0 0.0 0.0 1.0 0.0 0.0 1.0 0.0 0.0 1.0 0.0 0.0 1.0 0.0 0.0 1.0 0.0 0.0 1.0 0.9978377 -0.0657261 0.0 0.9978377 -0.0657261 0.0 0.9978377 -0.0657261 0.0 0.9978377 -0.0657261 0.0 0.0733314 0.9973077 0.0 0.0733314 0.9973076 0.0 0.0733314 0.9973076 0.0 0.0733314 0.9973076 0.0 0.0733314 0.9973076 0.0 0.9978379 -0.065724 -8.3E-6 0.9978375 -0.0657281 0.0 0.9978377 -0.0657271 -1.25E-5 0.997838 -0.065722 -1.25E-5 0.9978383 -0.065718 0.0 0.0766518 0.9970579 0.0 0.0766518 0.997058 0.0 0.0766518 0.9970579 0.0 0.0766518 0.9970579 0.0 0.0766518 0.9970579 0.0 -0.0665801 -0.9977811 0.0 -0.0665801 -0.9977811 0.0 -0.0665801 -0.9977811 0.0 -0.0665801 -0.997781 0.0 -0.0665801 -0.997781 0.0 -0.0665801 -0.997781 0.0 0.933457 0.3586895 0.0 0.933457 0.3586895 0.0 0.933457 0.3586895 0.0 0.933457 0.3586895 0.0 -0.0690654 -0.9976122 0.0 -0.0690654 -0.9976122 0.0 -0.0690654 -0.9976122 0.0 -0.0690654 -0.9976122 0.0 -0.9978363 0.0657476 4.87E-5 -0.997835 0.0657672 0.0 -0.9978363 0.0657476 4.87E-5 -0.9978376 0.0657281 9.75E-5 0.9974165 -0.0718356 0.0 0.9974165 -0.0718356 0.0 0.9974165 -0.0718356 0.0 0.9974165 -0.0718356 0.0 0.6563176 -0.7544847 0.0 0.6563176 -0.7544847 0.0 0.6563176 -0.7544847 0.0 0.6563176 -0.7544847 0.0 0.0 0.0 -1.0 0.0 0.0 -1.0 0.0 0.0 -1.0 0.0 0.0 -1.0 0.0 0.0 -1.0 0.0 0.0 -1.0 0.9973859 -0.0722587 0.0 0.9973859 -0.0722587 0.0 0.9973859 -0.0722587 0.0 0.9973859 -0.0722587 0.0 0.9982744 -0.0587217 0.0 0.9982744 -0.0587217 0.0 0.9982744 -0.0587217 0.0 0.9982744 -0.0587217 0.0 -0.0667647 -0.9977688 0.0 -0.0667647 -0.9977688 0.0 -0.0667647 -0.9977688 0.0 -0.0667647 -0.9977688 0.0 0.0 0.0 -1.0 0.0 0.0 -1.0 0.0 0.0 -1.0 0.0 0.0 -1.0 0.0 0.0 -1.0 -0.9977497 0.0670476 0.0 -0.9977497 0.0670476 0.0 -0.9977497 0.0670476 0.0 -0.9977497 0.0670476 0.0 -0.9969554 0.0779741 0.0 -0.9969554 0.0779741 0.0 -0.9969554 0.0779741 0.0 -0.9969554 0.0779741 0.0 -0.9969554 0.0779741 0.0 -0.214862 -0.9766444 0.0 -0.214862 -0.9766444 0.0 -0.214862 -0.9766444 0.0 -0.214862 -0.9766444 0.0 -0.0766518 -0.9970579 0.0 -0.0766518 -0.9970579 0.0 -0.0766518 -0.9970579 0.0 -0.0766518 -0.9970579 0.0 0.0687039 0.9976371 0.0 0.0687039 0.9976371 0.0 0.0687039 0.9976371 0.0 0.0687039 0.9976371 0.0 0.0685284 0.9976491 1.2E-6 0.0685278 0.9976492 0.0 0.0685278 0.9976492 0.0 0.0685278 0.9976492 0.0 0.0685278 0.9976492 0.0 0.068529 0.9976491 2.5E-6 0.0685302 0.997649 4.9E-6 0.0635073 0.9979814 0.0 0.0635073 0.9979814 0.0 0.0635073 0.9979814 0.0 -0.0666321 -0.9977775 3.416E-4 -0.0666398 -0.9977771 0.0 -0.0666398 -0.9977771 0.0 -0.0666398 -0.9977771 0.0 -0.0666574 -0.9977757 6.832E-4 -0.0666244 -0.9977779 6.832E-4 -0.0665737 -0.9977815 0.0</float_array>
                    <technique_common>
                        <accessor count="691" source="#geometry0-normal-array" stride="3">
                            <param name="X" type="float"/>
                            <param name="Y" type="float"/>
                            <param name="Z" type="float"/>
                        </accessor>
                    </technique_common>
                </source>
                <vertices id="geometry0-vertex">
                    <input semantic="POSITION" source="#geometry0-position"/>
                </vertices>
                <triangles count="339" material="default_ai_0.2_sh_0.2_tr_0.0_dc_r_0.8_g_0.8_b_0.8_sc_r_1.0_g_1.0_b_1.0_ec_r_0.0_g_0.0_b_0_tri">
                    <input offset="0" semantic="VERTEX" source="#geometry0-vertex"/>
                    <input offset="1" semantic="NORMAL" source="#geometry0-normal"/>
                    <p>35 0 97 1 26 2 26 2 97 1 95 3 95 3 97 1 96 4 96 4 97 1 89 5 89 5 97 1 90 6 90 6 97 1 92 7 92 7 97 1 85 8 85 8 97 1 86 9 139 10 138 11 135 12 139 10 135 12 134 13 56 14 55 15 57 16 55 15 58 17 57 16 57 16 58 17 44 18 44 18 58 17 45 19 45 19 58 17 53 20 58 17 59 21 53 20 53 20 59 21 60 22 127 23 136 24 130 25 127 23 130 25 128 26 98 27 83 28 86 29 98 27 86 29 97 30 68 31 44 32 43 33 68 31 43 33 69 34 68 31 69 34 70 35 14 36 25 37 108 38 14 36 108 38 107 39 50 50 49 51 58 52 50 50 58 52 55 53 132 54 141 55 61 56 132 54 61 56 60 57 149 64 37 65 41 66 151 67 149 64 41 66 151 67 41 66 152 68 37 69 38 70 4 71 37 69 4 71 9 72 41 73 37 69 9 72 41 73 9 72 40 74 1 75 34 76 40 77 1 75 40 77 9 78 5 79 7 80 0 81 5 79 0 81 1 82 5 79 1 82 9 83 5 79 9 83 4 84 91 85 87 86 90 87 91 85 90 87 92 88 77 95 151 96 152 97 77 95 152 97 146 98 48 99 77 95 146 98 48 99 146 98 59 100 19 101 36 102 32 103 19 101 32 103 20 104 48 105 59 106 60 107 48 105 60 107 61 108 48 105 61 108 47 109 41 110 82 111 40 112 40 112 82 111 34 113 34 113 82 111 71 114 40 123 17 124 18 125 40 123 18 125 41 126 152 127 41 128 40 129 152 127 40 129 34 130 152 127 34 130 146 131 73 132 71 133 82 134 73 132 82 134 81 135 39 136 35 137 97 138 39 136 97 138 98 139 73 140 72 141 75 142 81 143 73 140 75 142 80 144 81 143 75 142 80 144 75 142 74 145 80 146 81 147 82 148 80 146 82 148 78 149 80 146 78 149 79 150 78 151 82 152 41 153 78 151 41 153 37 154 78 151 37 154 119 155 70 156 62 157 65 158 70 156 65 158 68 159 19 160 36 161 41 162 19 160 41 162 18 163 39 164 17 165 40 166 39 164 40 166 34 167 39 164 34 167 35 168 88 169 89 170 96 171 88 169 96 171 93 172 72 173 58 174 49 175 72 173 49 175 76 176 72 173 76 176 75 177 94 178 27 179 26 180 94 178 26 180 95 181 54 182 61 183 47 184 54 182 47 184 46 185 16 186 26 187 27 188 16 186 27 188 10 189 16 186 10 189 13 190 49 191 48 192 77 193 49 191 77 193 76 194 40 195 17 196 39 197 40 195 39 197 35 198 40 195 35 198 34 199 43 200 52 201 67 202 43 200 67 202 69 203 27 204 26 205 35 206 27 204 35 206 39 207 40 208 41 209 18 210 40 208 18 210 17 211 8 212 9 213 1 214 8 212 1 214 2 215 31 216 33 217 25 218 31 216 25 218 28 219 36 220 19 221 18 222 37 223 36 220 18 222 37 223 18 222 41 224 28 225 25 226 24 227 28 225 24 227 29 228 89 229 120 230 121 231 89 229 121 231 96 232 4 233 9 234 8 235 4 233 8 235 3 236 53 237 60 238 61 239 53 237 61 239 54 240 59 241 58 242 49 243 59 241 49 243 48 244 34 245 1 246 9 247 34 245 9 247 40 248 4 249 38 250 37 251 4 249 37 251 41 252 4 249 41 252 40 253 4 249 40 253 9 254 25 255 33 256 15 257 25 255 15 257 14 258 48 259 47 260 61 261 48 259 61 261 60 262 48 259 60 262 59 263 96 264 121 265 122 266 93 267 96 264 122 266 93 267 122 266 123 268 3 269 8 270 28 271 3 269 28 271 29 272 3 269 29 272 23 273 3 269 23 273 22 274 3 269 22 274 30 275 57 276 44 277 43 278 57 276 43 278 52 279 142 280 143 281 144 282 142 280 144 282 145 283 124 284 122 285 121 286 124 284 121 286 120 287 132 288 60 289 59 290 132 288 59 290 146 291 132 288 146 291 34 292 132 288 34 292 1 293 132 288 1 293 0 294 132 288 0 294 145 295 132 288 145 295 144 296 2 297 1 298 9 299 2 297 9 299 8 300 35 301 34 302 71 303 35 301 71 303 73 304 35 301 73 304 113 305 35 301 113 305 97 306 7 307 5 308 4 309 7 307 4 309 9 310 7 307 9 310 1 311 7 307 1 311 0 312 25 313 28 314 29 315 25 313 29 315 24 316 14 321 15 322 33 323 14 321 33 323 25 324 7 325 142 326 145 327 7 325 145 327 0 328 8 329 9 330 4 331 8 329 4 331 3 332 28 333 8 334 2 335 28 333 2 335 31 336 79 337 80 338 74 339 25 350 33 351 31 352 25 350 31 352 28 353 120 359 89 360 88 361 120 359 88 361 125 362 120 359 125 362 124 363 132 364 144 365 143 366 141 367 132 364 143 366 141 367 143 366 148 368 81 369 80 370 117 371 5 377 4 378 38 379 43 380 44 381 57 382 43 380 57 382 52 383 81 384 117 385 113 386 81 384 113 386 73 387 0 388 1 389 2 390 88 391 93 392 123 393 88 391 123 393 125 394 42 395 43 396 44 397 42 395 44 397 45 398 35 404 26 405 27 406 35 404 27 406 39 407 35 408 39 409 98 410 35 408 98 410 97 411 27 412 39 413 17 414 27 412 17 414 10 415 151 416 77 417 150 418 151 416 150 418 149 419 96 424 89 425 88 426 96 424 88 426 93 427 97 437 113 438 117 439 98 440 97 437 117 439 98 440 117 439 118 441 15 442 33 443 16 444 33 443 31 445 16 444 16 444 31 445 26 446 26 446 31 445 35 447 31 445 2 448 35 447 35 447 2 448 34 449 34 449 2 448 1 450 0 451 2 452 8 453 0 451 8 453 3 454 7 455 0 451 3 454 7 455 3 454 6 456 99 457 100 458 101 459 99 457 101 459 102 460 118 461 18 462 17 463 118 461 17 463 39 464 118 461 39 464 98 465 132 466 60 467 61 468 132 466 61 468 141 469 45 470 53 471 54 472 45 470 54 472 46 473 45 470 46 473 42 474 62 475 63 476 64 477 62 475 64 477 65 478 13 479 12 480 14 481 147 482 150 483 77 484 147 482 77 484 48 485 147 482 48 485 47 486 5 497 7 498 6 499 60 500 53 501 54 502 60 500 54 502 61 503 10 504 11 505 12 506 10 504 12 506 13 507 148 508 147 509 47 510 148 508 47 510 61 511 148 508 61 511 141 512 111 513 112 514 102 515 111 513 102 515 101 516 111 513 101 516 31 517 111 513 31 517 33 518 111 513 33 518 15 519 110 520 111 513 15 519 110 520 15 519 109 521 126 522 127 523 128 524 126 522 128 524 129 525 51 526 50 527 55 528 51 526 55 528 56 529 104 530 103 531 112 532 104 530 112 532 111 533 114 534 19 535 18 536 114 534 18 536 118 537 29 538 24 539 23 540 133 541 134 542 135 543 133 541 135 543 129 544 133 541 129 544 128 545 133 541 128 545 130 546 133 541 130 546 131 547 133 541 131 547 53 548 133 541 53 548 60 549 133 541 60 549 132 550 13 551 14 552 15 553 13 551 15 553 16 554 103 555 99 556 102 557 103 555 102 557 112 558 83 559 84 560 85 561 83 559 85 561 86 562 136 563 137 564 131 565 136 563 131 565 130 566 58 567 59 568 48 569 58 567 48 569 49 570 87 571 88 572 89 573 87 571 89 573 90 574 82 585 71 586 73 587 82 585 73 587 81 588 109 589 15 590 14 591 109 589 14 591 107 592 109 589 107 592 106 593 79 594 78 595 82 596 79 594 82 596 81 597 79 594 81 597 80 598 57 599 56 600 66 601 52 602 57 599 66 601 52 602 66 601 67 603 78 604 77 605 48 606 78 604 48 606 59 607 82 608 78 604 59 607 82 608 59 607 71 609 84 610 91 611 92 612 84 610 92 612 85 613 138 614 126 615 129 616 138 614 129 616 135 617 78 618 116 619 115 620 78 618 115 620 79 621 105 622 104 623 111 624 105 622 111 624 110 625 140 626 139 627 134 628 140 626 134 628 133 629 68 630 65 631 64 632 68 630 64 632 56 633 68 630 56 633 57 634 68 630 57 634 44 635 106 636 105 637 110 638 106 636 110 638 109 639 141 640 140 641 133 642 141 640 133 642 132 643 116 644 119 645 37 646 116 644 37 646 36 647 72 648 73 649 71 650 58 651 72 648 71 650 58 651 71 650 59 652 137 653 54 654 53 655 137 653 53 655 131 656 31 657 101 658 100 659 28 660 31 657 100 659 28 660 100 659 29 661 93 662 94 663 95 664 93 662 95 664 96 665 52 666 51 667 56 668 52 666 56 668 57 669 63 670 66 671 56 672 63 670 56 672 64 673 11 674 10 675 17 676 11 674 17 676 18 677 11 674 18 677 19 678 11 674 19 678 20 679 11 674 20 679 21 680 25 681 24 682 108 683 3 684 30 685 32 686 3 684 32 686 36 687 3 684 36 687 37 688 3 684 37 688 38 689 3 684 38 689 4 690</p>
                </triangles>
                <triangles count="66" material="default_ai_0.2_sh_0.2_tr_0.0_dc_r_1.0_g_0.2_b_0.2_sc_r_1.0_g_1.0_b_1.0_ec_r_0.0_g_0.0_b_0_tri">
                    <input offset="0" semantic="VERTEX" source="#geometry0-vertex"/>
                    <input offset="1" semantic="NORMAL" source="#geometry0-normal"/>
                    <p>93 40 88 41 94 42 94 42 88 41 27 43 27 43 88 41 39 44 39 44 88 41 98 45 98 45 88 41 83 46 83 46 88 41 84 47 88 41 87 48 84 47 84 47 87 48 91 49 66 58 63 59 62 60 66 58 62 60 70 61 66 58 70 61 69 62 66 58 69 62 67 63 78 89 79 90 74 91 78 89 74 91 75 92 78 89 75 92 76 93 78 89 76 93 77 94 24 115 25 116 14 117 24 115 14 117 12 118 24 115 12 118 11 119 24 115 11 119 21 120 23 121 24 115 21 120 23 121 21 120 22 122 123 317 122 318 124 319 123 317 124 319 125 320 149 340 150 341 147 342 149 340 147 342 148 343 149 340 148 343 143 344 149 340 143 344 142 345 149 340 142 345 7 346 149 340 7 346 5 347 149 340 5 347 38 348 149 340 38 348 37 349 115 354 116 355 36 356 115 354 36 356 19 357 115 354 19 357 114 358 21 372 20 373 32 374 21 372 32 374 30 375 21 372 30 375 22 376 114 399 118 400 117 401 114 399 117 401 80 402 114 399 80 402 115 403 3 420 4 421 5 422 3 420 5 422 6 423 50 428 51 429 52 430 49 431 50 428 52 430 49 431 52 430 43 432 49 431 43 432 42 433 49 431 42 433 46 434 48 435 49 431 46 434 48 435 46 434 47 436 100 487 99 488 103 489 100 487 103 489 104 490 100 487 104 490 105 491 29 492 100 487 105 491 24 493 29 492 105 491 108 494 24 493 105 491 108 494 105 491 106 495 108 494 106 495 107 496 139 575 140 576 138 577 138 577 140 576 126 578 126 578 140 576 127 579 127 579 140 576 136 580 136 580 140 576 137 581 137 581 140 576 54 582 54 582 140 576 61 583 61 583 140 576 141 584</p>
                </triangles>
            </mesh>
        </geometry>
    </library_geometries>
    <library_visual_scenes>
        <visual_scene id="Building_DEBW_5221000QWi0">
            <node>
                <instance_geometry url="#geometry0">
                    <bind_material>
                        <technique_common>
                            <instance_material symbol="default_ai_0.2_sh_0.2_tr_0.0_dc_r_0.8_g_0.8_b_0.8_sc_r_1.0_g_1.0_b_1.0_ec_r_0.0_g_0.0_b_0_tri" target="#default_ai_0.2_sh_0.2_tr_0.0_dc_r_0.8_g_0.8_b_0.8_sc_r_1.0_g_1.0_b_1.0_ec_r_0.0_g_0.0_b_0_mat"/>
                            <instance_material symbol="default_ai_0.2_sh_0.2_tr_0.0_dc_r_1.0_g_0.2_b_0.2_sc_r_1.0_g_1.0_b_1.0_ec_r_0.0_g_0.0_b_0_tri" target="#default_ai_0.2_sh_0.2_tr_0.0_dc_r_1.0_g_0.2_b_0.2_sc_r_1.0_g_1.0_b_1.0_ec_r_0.0_g_0.0_b_0_mat"/>
                        </technique_common>
                    </bind_material>
                </instance_geometry>
            </node>
        </visual_scene>
    </library_visual_scenes>
    <scene>
        <instance_visual_scene url="#Building_DEBW_5221000QWi0"/>
    </scene>
</COLLADA>
