<?xml version="1.0" encoding="UTF-8" standalone="yes"?>
<COLLADA xmlns="http://www.collada.org/2005/11/COLLADASchema" version="1.4.1">
    <asset>
        <contributor>
            <authoring_tool>3D City Database Importer/Exporter, version 5.5.3; Chair of Geoinformatics, Technical University of Munich</authoring_tool>
        </contributor>
        <created>2026-05-06T15:12:18.343</created>
        <modified>2026-05-06T15:12:18.343</modified>
        <unit meter="1.0" name="meters"/>
        <up_axis>Z_UP</up_axis>
    </asset>
    <library_materials>
        <material id="default_ai_0.2_sh_0.2_tr_0.0_dc_r_0.8_g_0.8_b_0.8_sc_r_1.0_g_1.0_b_1.0_ec_r_0.0_g_0.0_b_0_mat">
            <instance_effect url="#default_ai_0.2_sh_0.2_tr_0.0_dc_r_0.8_g_0.8_b_0.8_sc_r_1.0_g_1.0_b_1.0_ec_r_0.0_g_0.0_b_0_eff"/>
        </material>
        <material id="default_ai_0.2_sh_0.2_tr_0.0_dc_r_1.0_g_0.2_b_0.2_sc_r_1.0_g_1.0_b_1.0_ec_r_0.0_g_0.0_b_0_mat">
            <instance_effect url="#default_ai_0.2_sh_0.2_tr_0.0_dc_r_1.0_g_0.2_b_0.2_sc_r_1.0_g_1.0_b_1.0_ec_r_0.0_g_0.0_b_0_eff"/>
        </material>
    </library_materials>
    <library_effects>
        <effect id="default_ai_0.2_sh_0.2_tr_0.0_dc_r_0.8_g_0.8_b_0.8_sc_r_1.0_g_1.0_b_1.0_ec_r_0.0_g_0.0_b_0_eff">
            <profile_COMMON>
                <technique sid="COMMON">
                    <lambert>
                        <emission>
                            <color>0.0 0.0 0.0 1.0</color>
                        </emission>
                        <diffuse>
                            <color>0.8 0.8 0.8 1.0</color>
                        </diffuse>
                        <reflective>
                            <color>1.0 1.0 1.0 1.0</color>
                        </reflective>
                        <reflectivity>
                            <float>0.2</float>
                        </reflectivity>
                        <transparent opaque="A_ONE">
                            <color>1.0 1.0 1.0 1.0</color>
                        </transparent>
                        <transparency>
                            <float>1.0</float>
                        </transparency>
                    </lambert>
                </technique>
                <extra>
                    <technique profile="GOOGLEEARTH">
                        <double_sided>0</double_sided>
                    </technique>
                </extra>
            </profile_COMMON>
        </effect>
        <effect id="default_ai_0.2_sh_0.2_tr_0.0_dc_r_1.0_g_0.2_b_0.2_sc_r_1.0_g_1.0_b_1.0_ec_r_0.0_g_0.0_b_0_eff">
            <profile_COMMON>
                <technique sid="COMMON">
                    <lambert>
                        <emission>
                            <color>0.0 0.0 0.0 1.0</color>
                        </emission>
                        <diffuse>
                            <color>1.0 0.2 0.2 1.0</color>
                        </diffuse>
                        <reflective>
                            <color>1.0 1.0 1.0 1.0</color>
                        </reflective>
                        <reflectivity>
                            <float>0.2</float>
                        </reflectivity>
                        <transparent opaque="A_ONE">
                            <color>1.0 1.0 1.0 1.0</color>
                        </transparent>
                        <transparency>
                            <float>1.0</float>
                        </transparency>
                    </lambert>
                </technique>
                <extra>
                    <technique profile="GOOGLEEARTH">
                        <double_sided>0</double_sided>
                    </technique>
                </extra>
            </profile_COMMON>
        </effect>
    </library_effects>
    <library_geometries>
        <geometry id="geometry0">
            <mesh>
                <source id="geometry0-position">
                    <float_array id="geometry0-position-array" count="84">-4.64 -0.05 7.322 -4.62 0.24 7.319 0.0 0.0 5.642 0.04 0.0 5.628 0.06 0.31 5.626 0.15 0.31 5.593 0.28 3.1 5.594 0.22 3.1 5.616 0.59 11.05 5.617 -12.1 11.68 10.224 -12.17 11.68 10.249 -12.19 11.4 10.252 -12.24 11.4 10.27 -12.76 0.38 10.27 0.0 0.0 0.0 0.04 0.0 0.0 0.06 0.31 0.0 0.15 0.31 0.0 0.28 3.1 0.0 0.22 3.1 0.0 -12.24 11.4 0.0 -12.76 0.38 0.0 -12.17 11.68 0.0 -12.19 11.4 0.0 -12.1 11.68 0.0 0.59 11.05 0.0 -4.62 0.24 0.0 -4.64 -0.05 0.0</float_array>
                    <technique_common>
                        <accessor count="28" source="#geometry0-position-array" stride="3">
                            <param name="X" type="float"/>
                            <param name="Y" type="float"/>
                            <param name="Z" type="float"/>
                        </accessor>
                    </technique_common>
                </source>
                <source id="geometry0-normal">
                    <float_array id="geometry0-normal-array" count="252">0.9989187 -0.0464906 0.0 0.9989187 -0.0464906 0.0 0.9989187 -0.0464906 0.0 0.9989187 -0.0464906 0.0 0.0 1.0 0.0 0.0 1.0 0.0 0.0 1.0 0.0 0.0 1.0 0.0 0.9989163 -0.0465445 0.0 0.9989163 -0.0465445 0.0 0.9989163 -0.0465445 0.0 0.9989162 -0.0465445 0.0 -0.9974588 0.0712451 0.0 -0.9974589 0.0712451 0.0 -0.9974588 0.0712451 0.0 -0.9974588 0.0712451 0.0 0.9979253 -0.0643823 0.0 0.9979253 -0.0643823 0.0 0.9979253 -0.0643823 0.0 0.9979253 -0.0643823 0.0 0.0 1.0 0.0 0.0 1.0 0.0 0.0 1.0 0.0 0.0 1.0 0.0 0.0 -1.0 0.0 0.0 -1.0 0.0 0.0 -1.0 0.0 0.0 -1.0 0.0 0.9976304 -0.068802 0.0 0.9976304 -0.068802 0.0 0.9976304 -0.068802 0.0 0.9976303 -0.068802 0.0 0.0495843 0.99877 0.0 0.0495843 0.9987699 0.0 0.0495843 0.99877 0.0 0.0495843 0.99877 0.0 -0.9988886 0.0471345 0.0 -0.9988886 0.0471345 0.0 -0.9988886 0.0471345 0.0 -0.9988886 0.0471345 0.0 0.0 0.0 -1.0 0.0 0.0 -1.0 0.0 0.0 -1.0 0.0 0.0 -1.0 0.0 0.0 -1.0 0.0 0.0 -1.0 0.0 0.0 -1.0 0.0 0.0 -1.0 0.0 0.0 -1.0 0.0 0.0 -1.0 0.0 0.0 -1.0 0.0 0.0 -1.0 0.0 0.0 -1.0 0.0 0.0 -1.0 0.3397022 -0.0171801 0.9403761 0.3404639 -0.0160655 0.9401203 0.3418621 -0.0150112 0.9396303 0.3418389 -0.0150592 0.939638 0.3353326 -0.022311 0.9418356 0.3354203 -0.0221849 0.9418073 0.3424138 -0.0136265 0.9394504 0.3409276 -0.0163206 0.9399478 0.3402702 -0.0163562 0.9401855 0.3390657 -0.0177766 0.9405948 0.3390245 -0.0178192 0.9406088 0.3416752 -0.0162099 0.9396783 0.3405055 -0.0159657 0.940107 0.3442128 -0.016375 0.9387488 0.0 1.0 0.0 0.0 1.0 0.0 0.0 1.0 0.0 0.0 1.0 0.0 -0.0528816 -0.9986008 0.0 -0.0528816 -0.9986008 0.0 -0.0528816 -0.9986008 0.0 -0.0528816 -0.9986008 0.0 -0.0518781 -0.9986534 0.0 -0.0518781 -0.9986534 0.0 -0.0518781 -0.9986534 0.0 -0.0518781 -0.9986534 0.0 0.0 -1.0 0.0 0.0 -1.0 0.0 0.0 -1.0 0.0 0.0 -1.0 0.0</float_array>
                    <technique_common>
                        <accessor count="84" source="#geometry0-normal-array" stride="3">
                            <param name="X" type="float"/>
                            <param name="Y" type="float"/>
                            <param name="Z" type="float"/>
                        </accessor>
                    </technique_common>
                </source>
                <vertices id="geometry0-vertex">
                    <input semantic="POSITION" source="#geometry0-position"/>
                </vertices>
                <triangles count="40" material="default_ai_0.2_sh_0.2_tr_0.0_dc_r_0.8_g_0.8_b_0.8_sc_r_1.0_g_1.0_b_1.0_ec_r_0.0_g_0.0_b_0_tri">
                    <input offset="0" semantic="VERTEX" source="#geometry0-vertex"/>
                    <input offset="1" semantic="NORMAL" source="#geometry0-normal"/>
                    <p>8 0 7 1 19 2 8 0 19 2 25 3 12 4 11 5 23 6 12 4 23 6 20 7 6 8 5 9 17 10 6 8 17 10 18 11 11 12 10 13 22 14 11 12 22 14 23 15 4 16 3 17 15 18 4 16 15 18 16 19 7 20 6 21 18 22 7 20 18 22 19 23 5 24 4 25 16 26 5 24 16 26 17 27 1 28 0 29 27 30 1 28 27 30 26 31 9 32 8 33 25 34 9 32 25 34 24 35 13 36 12 37 20 38 13 36 20 38 21 39 26 40 27 41 21 42 26 40 21 42 20 43 26 40 20 43 23 44 26 40 23 44 22 45 26 40 22 45 24 46 26 40 24 46 25 47 26 40 25 47 19 48 26 40 19 48 18 49 14 50 26 40 18 49 16 51 15 52 14 50 16 51 14 50 18 49 16 51 18 49 17 53 10 68 9 69 24 70 10 68 24 70 22 71 0 72 13 73 21 74 0 72 21 74 27 75 2 76 1 77 26 78 2 76 26 78 14 79 3 80 2 81 14 82 3 80 14 82 15 83</p>
                </triangles>
                <triangles count="12" material="default_ai_0.2_sh_0.2_tr_0.0_dc_r_1.0_g_0.2_b_0.2_sc_r_1.0_g_1.0_b_1.0_ec_r_0.0_g_0.0_b_0_tri">
                    <input offset="0" semantic="VERTEX" source="#geometry0-vertex"/>
                    <input offset="1" semantic="NORMAL" source="#geometry0-normal"/>
                    <p>12 54 13 55 0 56 12 54 0 56 1 57 12 54 1 57 2 58 12 54 2 58 3 59 12 54 3 59 4 60 12 54 4 60 5 61 11 62 12 54 5 61 10 63 11 62 5 61 9 64 10 63 5 61 7 65 8 66 9 64 7 65 9 64 5 61 7 65 5 61 6 67</p>
                </triangles>
            </mesh>
        </geometry>
    </library_geometries>
    <library_visual_scenes>
        <visual_scene id="Building_DEBW_5221000R0gl">
            <node>
                <instance_geometry url="#geometry0">
                    <bind_material>
                        <technique_common>
                            <instance_material symbol="default_ai_0.2_sh_0.2_tr_0.0_dc_r_0.8_g_0.8_b_0.8_sc_r_1.0_g_1.0_b_1.0_ec_r_0.0_g_0.0_b_0_tri" target="#default_ai_0.2_sh_0.2_tr_0.0_dc_r_0.8_g_0.8_b_0.8_sc_r_1.0_g_1.0_b_1.0_ec_r_0.0_g_0.0_b_0_mat"/>
                            <instance_material symbol="default_ai_0.2_sh_0.2_tr_0.0_dc_r_1.0_g_0.2_b_0.2_sc_r_1.0_g_1.0_b_1.0_ec_r_0.0_g_0.0_b_0_tri" target="#default_ai_0.2_sh_0.2_tr_0.0_dc_r_1.0_g_0.2_b_0.2_sc_r_1.0_g_1.0_b_1.0_ec_r_0.0_g_0.0_b_0_mat"/>
                        </technique_common>
                    </bind_material>
                </instance_geometry>
            </node>
        </visual_scene>
    </library_visual_scenes>
    <scene>
        <instance_visual_scene url="#Building_DEBW_5221000R0gl"/>
    </scene>
</COLLADA>
