<?xml version="1.0" encoding="UTF-8" standalone="yes"?>
<COLLADA xmlns="http://www.collada.org/2005/11/COLLADASchema" version="1.4.1">
    <asset>
        <contributor>
            <authoring_tool>3D City Database Importer/Exporter, version 5.5.3; Chair of Geoinformatics, Technical University of Munich</authoring_tool>
        </contributor>
        <created>2026-05-06T15:12:06.521</created>
        <modified>2026-05-06T15:12:06.521</modified>
        <unit meter="1.0" name="meters"/>
        <up_axis>Z_UP</up_axis>
    </asset>
    <library_materials>
        <material id="default_ai_0.2_sh_0.2_tr_0.0_dc_r_0.8_g_0.8_b_0.8_sc_r_1.0_g_1.0_b_1.0_ec_r_0.0_g_0.0_b_0_mat">
            <instance_effect url="#default_ai_0.2_sh_0.2_tr_0.0_dc_r_0.8_g_0.8_b_0.8_sc_r_1.0_g_1.0_b_1.0_ec_r_0.0_g_0.0_b_0_eff"/>
        </material>
        <material id="default_ai_0.2_sh_0.2_tr_0.0_dc_r_1.0_g_0.2_b_0.2_sc_r_1.0_g_1.0_b_1.0_ec_r_0.0_g_0.0_b_0_mat">
            <instance_effect url="#default_ai_0.2_sh_0.2_tr_0.0_dc_r_1.0_g_0.2_b_0.2_sc_r_1.0_g_1.0_b_1.0_ec_r_0.0_g_0.0_b_0_eff"/>
        </material>
    </library_materials>
    <library_effects>
        <effect id="default_ai_0.2_sh_0.2_tr_0.0_dc_r_0.8_g_0.8_b_0.8_sc_r_1.0_g_1.0_b_1.0_ec_r_0.0_g_0.0_b_0_eff">
            <profile_COMMON>
                <technique sid="COMMON">
                    <lambert>
                        <emission>
                            <color>0.0 0.0 0.0 1.0</color>
                        </emission>
                        <diffuse>
                            <color>0.8 0.8 0.8 1.0</color>
                        </diffuse>
                        <reflective>
                            <color>1.0 1.0 1.0 1.0</color>
                        </reflective>
                        <reflectivity>
                            <float>0.2</float>
                        </reflectivity>
                        <transparent opaque="A_ONE">
                            <color>1.0 1.0 1.0 1.0</color>
                        </transparent>
                        <transparency>
                            <float>1.0</float>
                        </transparency>
                    </lambert>
                </technique>
                <extra>
                    <technique profile="GOOGLEEARTH">
                        <double_sided>0</double_sided>
                    </technique>
                </extra>
            </profile_COMMON>
        </effect>
        <effect id="default_ai_0.2_sh_0.2_tr_0.0_dc_r_1.0_g_0.2_b_0.2_sc_r_1.0_g_1.0_b_1.0_ec_r_0.0_g_0.0_b_0_eff">
            <profile_COMMON>
                <technique sid="COMMON">
                    <lambert>
                        <emission>
                            <color>0.0 0.0 0.0 1.0</color>
                        </emission>
                        <diffuse>
                            <color>1.0 0.2 0.2 1.0</color>
                        </diffuse>
                        <reflective>
                            <color>1.0 1.0 1.0 1.0</color>
                        </reflective>
                        <reflectivity>
                            <float>0.2</float>
                        </reflectivity>
                        <transparent opaque="A_ONE">
                            <color>1.0 1.0 1.0 1.0</color>
                        </transparent>
                        <transparency>
                            <float>1.0</float>
                        </transparency>
                    </lambert>
                </technique>
                <extra>
                    <technique profile="GOOGLEEARTH">
                        <double_sided>0</double_sided>
                    </technique>
                </extra>
            </profile_COMMON>
        </effect>
    </library_effects>
    <library_geometries>
        <geometry id="geometry0">
            <mesh>
                <source id="geometry0-position">
                    <float_array id="geometry0-position-array" count="120">-0.46 -6.76 8.515 0.0 0.0 8.515 0.0 0.0 0.0 -0.46 -6.76 0.0 3.05 -6.99 9.398 3.05 -6.99 0.0 3.05 -6.99 8.792 3.05 -6.99 9.335 3.073 -6.66 9.398 3.457 -1.145 9.4 3.52 -0.238 9.4 3.52 -0.238 0.0 11.742 -13.797 8.646 15.72 -14.07 7.646 16.16 -7.49 7.641 12.16 -7.23 8.646 15.72 -14.07 0.0 16.16 -7.49 0.0 12.16 -7.23 0.0 11.742 -13.797 0.0 11.742 -13.797 8.645 12.16 -7.23 8.652 12.23 -6.13 8.653 11.43 -5.19 8.856 10.33 -5.12 9.116 10.092 -8.616 9.116 9.748 -13.66 9.116 9.748 -13.66 0.0 10.33 -5.12 0.0 11.43 -5.19 0.0 12.23 -6.13 0.0 9.748 -13.66 8.149 10.33 -5.12 9.036 2.62 -13.17 8.15 2.62 -13.17 0.0 10.63 -0.72 0.0 10.63 -0.72 9.493 3.52 -0.238 9.494 3.306 -3.312 10.04 10.42 -3.797 10.04</float_array>
                    <technique_common>
                        <accessor count="40" source="#geometry0-position-array" stride="3">
                            <param name="X" type="float"/>
                            <param name="Y" type="float"/>
                            <param name="Z" type="float"/>
                        </accessor>
                    </technique_common>
                </source>
                <source id="geometry0-normal">
                    <float_array id="geometry0-normal-array" count="549">-0.0684663 -0.9976534 0.0 -0.0684663 -0.9976534 0.0 -0.0684663 -0.9976534 0.0 -0.0684663 -0.9976534 0.0 0.0676366 0.99771 0.0 0.0676366 0.99771 0.0 0.0676366 0.99771 0.0 0.0676366 0.99771 0.0 0.0676366 0.99771 0.0 0.9979814 -0.0635076 0.0 0.9979814 -0.0635076 0.0 0.9979813 -0.0635076 0.0 0.9979814 -0.0635076 0.0 0.9979814 -0.0635076 0.0 -0.0653867 -0.99786 0.0 -0.0653867 -0.99786 0.0 -0.0653867 -0.99786 0.0 -0.0653867 -0.99786 0.0 -0.0653867 -0.99786 0.0 -0.0653867 -0.99786 0.0 0.0 0.0 -1.0 0.0 0.0 -1.0 0.0 0.0 -1.0 0.0 0.0 -1.0 0.0 0.0 -1.0 0.0 0.0 -1.0 0.9975846 -0.069462 -1.797E-4 0.9975845 -0.069464 0.0 0.9975846 -0.069462 -1.797E-4 0.9975846 -0.06946 -3.594E-4 0.9976856 -0.0679966 1.079E-4 0.9976838 -0.0680239 0.0 0.9976829 -0.0680347 1.258E-4 0.9976864 -0.067983 1.618E-4 0.9976907 -0.0679206 7.21E-5 -0.0685811 -0.9976456 0.0 -0.0685811 -0.9976456 0.0 -0.0685811 -0.9976456 0.0 -0.0685811 -0.9976456 0.0 -0.9976825 0.0680418 0.0 -0.9976825 0.0680418 0.0 -0.9976825 0.0680418 0.0 0.9975893 -0.0693916 -5.513E-4 0.9975951 -0.0692927 -0.0016539 0.997591 -0.0693668 -8.269E-4 0.997586 -0.069441 0.0 0.9975861 -0.069441 0.0 0.2427352 -0.0154725 0.9699692 0.2427677 -0.0154966 0.9699607 0.2427352 -0.0154725 0.9699692 0.2427028 -0.0154484 0.9699777 -0.2428276 0.0165698 0.969928 -0.2427479 0.0165183 0.9699488 -0.2428276 0.0165698 0.969928 -0.2429073 0.0166213 0.9699071 0.9564683 -0.066663 0.2841203 0.9564683 -0.066663 0.2841203 0.9564683 -0.066663 0.2841203 -0.904999 0.062861 0.4207437 -0.904999 0.062861 0.4207437 -0.904999 0.062861 0.4207437 -0.9975963 0.0692928 0.0 -0.9975963 0.0692928 0.0 -0.9975963 0.0692928 0.0 -0.9975881 0.0694115 0.0 -0.9975881 0.0694115 0.0 -0.9975881 0.0694115 0.0 -0.9975881 0.0694115 0.0 -0.9976858 0.0679921 0.0 -0.9976858 0.0679921 0.0 -0.9976858 0.0679921 0.0 -0.9976858 0.0679922 0.0 0.0 0.0 -1.0 0.0 0.0 -1.0 0.0 0.0 -1.0 0.0 0.0 -1.0 0.0 0.0 -1.0 0.0 0.0 -1.0 -0.9976903 0.067927 2.837E-4 -0.9976897 0.0679335 5.674E-4 -0.9976903 0.067927 2.837E-4 -0.9976907 0.0679206 0.0 0.9979804 -0.0635231 0.0 0.9979804 -0.0635231 0.0 0.9979804 -0.0635231 0.0 0.9979804 -0.0635231 0.0 0.9979804 -0.0635231 0.0 0.9977717 -0.0667202 0.0 0.9977717 -0.0667202 0.0 0.9977717 -0.0667202 0.0 0.9977717 -0.0667202 0.0 0.9979804 -0.0635231 0.0 0.9979804 -0.0635231 0.0 0.9979804 -0.0635231 0.0 0.9975801 -0.0695283 0.0 0.9975801 -0.0695283 0.0 0.9975801 -0.0695283 0.0 0.0119083 0.1741457 0.9846479 0.0119386 0.1740632 0.9846621 0.0119083 0.1741457 0.9846479 0.0118781 0.1742282 0.9846337 0.9976838 -0.0680239 0.0 0.9976838 -0.0680239 0.0 0.9976838 -0.0680239 0.0 0.9976837 -0.0680239 0.0 0.0648631 0.9978942 0.0 0.0648631 0.9978942 0.0 0.0648631 0.9978942 0.0 0.0648631 0.9978942 0.0 -0.9975881 0.0694115 0.0 -0.9975881 0.0694115 0.0 -0.9975881 0.0694115 0.0 0.9976858 -0.0679921 0.0 0.9976858 -0.0679921 0.0 0.9976858 -0.0679921 0.0 0.9976858 -0.0679922 0.0 -0.9975885 0.0694051 -3.673E-4 -0.9975922 0.06935 -5.548E-4 -0.9975885 0.0694051 -3.673E-4 -0.9975847 0.0694602 -1.798E-4 -0.9976928 0.0678903 0.0 -0.9976928 0.0678903 0.0 -0.9976928 0.0678903 0.0 -0.9976928 0.0678903 0.0 0.0 0.0 -1.0 0.0 0.0 -1.0 0.0 0.0 -1.0 0.0 0.0 -1.0 -0.997589 0.0693992 4.8E-6 -0.9975963 0.0692928 0.0 -0.9975912 0.0693669 7.2E-6 -0.9975852 0.0694525 7.2E-6 -0.9975845 0.069464 0.0 0.9976903 -0.067927 -2.837E-4 0.9976907 -0.0679206 0.0 0.9976903 -0.067927 -2.837E-4 0.9976897 -0.0679335 -5.674E-4 -0.0685446 -0.9976481 0.0 -0.0685446 -0.9976481 0.0 -0.0685446 -0.9976481 0.0 -0.0685446 -0.9976481 0.0 -0.0685446 -0.9976481 0.0 -0.9975824 0.0694942 1.86E-5 -0.9975847 0.0694601 3.73E-5 -0.9975824 0.0694942 1.86E-5 -0.99758 0.0695283 0.0 0.0 0.0 -1.0 0.0 0.0 -1.0 0.0 0.0 -1.0 0.0 0.0 -1.0 0.0674596 0.997722 0.0 0.0674596 0.997722 0.0 0.0674596 0.997722 0.0 0.0674596 0.997722 0.0 0.7615397 0.6481183 0.0 0.7615398 0.6481183 0.0 0.7615397 0.6481183 0.0 0.7615397 0.6481183 0.0 -0.9884811 0.091857 -0.1202804 -0.9884811 0.091857 -0.1202804 -0.9884811 0.091857 -0.1202804 0.0400803 -0.1907647 0.9808173 -0.0127747 -0.18738 0.9822045 -0.0127598 -0.1874131 0.9821983 -0.0127463 -0.1874451 0.9821924 0.0931064 -0.1935955 0.9766535 0.197911 -0.1975645 0.960104 -0.9979804 0.0635231 0.0 -0.9979804 0.0635231 0.0 -0.9979804 0.0635231 0.0 -0.9979804 0.0635231 0.0 0.228856 -0.0155461 0.9733362 0.2288388 -0.0156068 0.9733393 0.2288429 -0.0156054 0.9733383 0.2287952 -0.0155224 0.9733508 0.2287683 -0.0154631 0.9733582 0.2289253 -0.0155396 0.97332 0.2290577 -0.0155937 0.9732879 0.063508 0.9979813 0.0 0.063508 0.9979813 0.0 0.063508 0.9979813 0.0 0.063508 0.9979813 0.0 0.063508 0.9979813 0.0</float_array>
                    <technique_common>
                        <accessor count="183" source="#geometry0-normal-array" stride="3">
                            <param name="X" type="float"/>
                            <param name="Y" type="float"/>
                            <param name="Z" type="float"/>
                        </accessor>
                    </technique_common>
                </source>
                <vertices id="geometry0-vertex">
                    <input semantic="POSITION" source="#geometry0-position"/>
                </vertices>
                <triangles count="79" material="default_ai_0.2_sh_0.2_tr_0.0_dc_r_0.8_g_0.8_b_0.8_sc_r_1.0_g_1.0_b_1.0_ec_r_0.0_g_0.0_b_0_tri">
                    <input offset="0" semantic="VERTEX" source="#geometry0-vertex"/>
                    <input offset="1" semantic="NORMAL" source="#geometry0-normal"/>
                    <p>13 0 12 1 19 2 13 0 19 2 16 3 35 4 11 5 10 6 35 4 10 6 37 7 35 4 37 7 36 8 18 9 30 10 22 11 15 12 18 9 22 11 15 12 22 11 21 13 3 14 5 15 6 16 3 14 6 16 7 17 3 14 7 17 4 18 3 14 4 18 0 19 18 20 19 21 27 22 18 20 27 22 28 23 18 20 28 23 29 24 18 20 29 24 30 25 7 26 6 27 9 28 7 26 9 28 8 29 24 30 32 31 36 32 24 30 36 32 39 33 24 30 39 33 25 34 31 35 33 36 34 37 31 35 34 37 27 38 25 39 31 40 26 41 10 42 9 43 6 44 10 42 6 44 5 45 10 42 5 45 11 46 10 61 9 62 37 63 5 64 34 65 33 66 5 64 33 66 6 67 28 68 27 69 31 70 28 68 31 70 32 71 11 72 35 73 28 74 11 72 28 74 27 75 11 72 27 75 34 76 11 72 34 76 5 77 32 78 31 79 25 80 32 78 25 80 24 81 18 82 15 83 12 84 18 82 12 84 20 85 18 82 20 85 19 86 14 87 13 88 16 89 14 87 16 89 17 90 12 91 15 92 21 93 4 94 7 95 8 96 32 101 28 102 35 103 32 101 35 103 36 104 15 105 14 106 17 107 15 105 17 107 18 108 7 109 6 110 33 111 31 112 27 113 28 114 31 112 28 114 32 115 38 116 37 117 9 118 38 116 9 118 8 119 0 120 1 121 2 122 0 120 2 122 3 123 2 124 11 125 5 126 2 124 5 126 3 127 9 128 10 129 11 130 9 128 11 130 5 131 9 128 5 131 6 132 32 133 24 134 25 135 32 133 25 135 31 136 27 137 19 138 20 139 31 140 27 137 20 139 31 140 20 139 26 141 8 142 9 143 6 144 8 142 6 144 7 145 18 146 17 147 16 148 18 146 16 148 19 149 1 150 10 151 11 152 1 150 11 152 2 153 23 154 22 155 30 156 23 154 30 156 29 157 18 167 19 168 12 169 18 167 12 169 15 170 29 178 28 179 32 180 29 178 32 180 24 181 29 178 24 181 23 182</p>
                </triangles>
                <triangles count="18" material="default_ai_0.2_sh_0.2_tr_0.0_dc_r_1.0_g_0.2_b_0.2_sc_r_1.0_g_1.0_b_1.0_ec_r_0.0_g_0.0_b_0_tri">
                    <input offset="0" semantic="VERTEX" source="#geometry0-vertex"/>
                    <input offset="1" semantic="NORMAL" source="#geometry0-normal"/>
                    <p>12 47 13 48 14 49 12 47 14 49 15 50 10 51 1 52 0 53 10 51 0 53 4 54 10 55 4 56 8 57 10 58 8 59 9 60 36 97 37 98 38 99 36 97 38 99 39 100 38 158 8 159 7 160 39 161 38 162 7 163 39 161 7 163 33 164 39 161 33 164 31 165 39 161 31 165 25 166 25 171 26 172 20 173 25 171 20 173 21 174 25 171 21 174 22 175 25 171 22 175 23 176 25 171 23 176 24 177</p>
                </triangles>
            </mesh>
        </geometry>
    </library_geometries>
    <library_visual_scenes>
        <visual_scene id="Building_DEBW_5221000Qht0">
            <node>
                <instance_geometry url="#geometry0">
                    <bind_material>
                        <technique_common>
                            <instance_material symbol="default_ai_0.2_sh_0.2_tr_0.0_dc_r_0.8_g_0.8_b_0.8_sc_r_1.0_g_1.0_b_1.0_ec_r_0.0_g_0.0_b_0_tri" target="#default_ai_0.2_sh_0.2_tr_0.0_dc_r_0.8_g_0.8_b_0.8_sc_r_1.0_g_1.0_b_1.0_ec_r_0.0_g_0.0_b_0_mat"/>
                            <instance_material symbol="default_ai_0.2_sh_0.2_tr_0.0_dc_r_1.0_g_0.2_b_0.2_sc_r_1.0_g_1.0_b_1.0_ec_r_0.0_g_0.0_b_0_tri" target="#default_ai_0.2_sh_0.2_tr_0.0_dc_r_1.0_g_0.2_b_0.2_sc_r_1.0_g_1.0_b_1.0_ec_r_0.0_g_0.0_b_0_mat"/>
                        </technique_common>
                    </bind_material>
                </instance_geometry>
            </node>
        </visual_scene>
    </library_visual_scenes>
    <scene>
        <instance_visual_scene url="#Building_DEBW_5221000Qht0"/>
    </scene>
</COLLADA>
