<?xml version="1.0" encoding="UTF-8" standalone="yes"?>
<COLLADA xmlns="http://www.collada.org/2005/11/COLLADASchema" version="1.4.1">
    <asset>
        <contributor>
            <authoring_tool>3D City Database Importer/Exporter, version 5.5.3; Chair of Geoinformatics, Technical University of Munich</authoring_tool>
        </contributor>
        <created>2026-05-06T15:12:14.346</created>
        <modified>2026-05-06T15:12:14.346</modified>
        <unit meter="1.0" name="meters"/>
        <up_axis>Z_UP</up_axis>
    </asset>
    <library_materials>
        <material id="default_ai_0.2_sh_0.2_tr_0.0_dc_r_1.0_g_0.2_b_0.2_sc_r_1.0_g_1.0_b_1.0_ec_r_0.0_g_0.0_b_0_mat">
            <instance_effect url="#default_ai_0.2_sh_0.2_tr_0.0_dc_r_1.0_g_0.2_b_0.2_sc_r_1.0_g_1.0_b_1.0_ec_r_0.0_g_0.0_b_0_eff"/>
        </material>
        <material id="default_ai_0.2_sh_0.2_tr_0.0_dc_r_0.8_g_0.8_b_0.8_sc_r_1.0_g_1.0_b_1.0_ec_r_0.0_g_0.0_b_0_mat">
            <instance_effect url="#default_ai_0.2_sh_0.2_tr_0.0_dc_r_0.8_g_0.8_b_0.8_sc_r_1.0_g_1.0_b_1.0_ec_r_0.0_g_0.0_b_0_eff"/>
        </material>
    </library_materials>
    <library_effects>
        <effect id="default_ai_0.2_sh_0.2_tr_0.0_dc_r_1.0_g_0.2_b_0.2_sc_r_1.0_g_1.0_b_1.0_ec_r_0.0_g_0.0_b_0_eff">
            <profile_COMMON>
                <technique sid="COMMON">
                    <lambert>
                        <emission>
                            <color>0.0 0.0 0.0 1.0</color>
                        </emission>
                        <diffuse>
                            <color>1.0 0.2 0.2 1.0</color>
                        </diffuse>
                        <reflective>
                            <color>1.0 1.0 1.0 1.0</color>
                        </reflective>
                        <reflectivity>
                            <float>0.2</float>
                        </reflectivity>
                        <transparent opaque="A_ONE">
                            <color>1.0 1.0 1.0 1.0</color>
                        </transparent>
                        <transparency>
                            <float>1.0</float>
                        </transparency>
                    </lambert>
                </technique>
                <extra>
                    <technique profile="GOOGLEEARTH">
                        <double_sided>0</double_sided>
                    </technique>
                </extra>
            </profile_COMMON>
        </effect>
        <effect id="default_ai_0.2_sh_0.2_tr_0.0_dc_r_0.8_g_0.8_b_0.8_sc_r_1.0_g_1.0_b_1.0_ec_r_0.0_g_0.0_b_0_eff">
            <profile_COMMON>
                <technique sid="COMMON">
                    <lambert>
                        <emission>
                            <color>0.0 0.0 0.0 1.0</color>
                        </emission>
                        <diffuse>
                            <color>0.8 0.8 0.8 1.0</color>
                        </diffuse>
                        <reflective>
                            <color>1.0 1.0 1.0 1.0</color>
                        </reflective>
                        <reflectivity>
                            <float>0.2</float>
                        </reflectivity>
                        <transparent opaque="A_ONE">
                            <color>1.0 1.0 1.0 1.0</color>
                        </transparent>
                        <transparency>
                            <float>1.0</float>
                        </transparency>
                    </lambert>
                </technique>
                <extra>
                    <technique profile="GOOGLEEARTH">
                        <double_sided>0</double_sided>
                    </technique>
                </extra>
            </profile_COMMON>
        </effect>
    </library_effects>
    <library_geometries>
        <geometry id="geometry0">
            <mesh>
                <source id="geometry0-position">
                    <float_array id="geometry0-position-array" count="267">0.33 6.34 7.866 0.33 6.34 7.878 0.331 6.351 7.878 0.331 6.351 7.866 9.669 5.957 7.866 9.669 5.957 9.308 9.44 1.68 9.303 9.44 1.68 9.147 9.44 1.68 7.866 -0.033 -0.027 7.871 0.0 0.0 7.866 0.0 0.0 0.0 -0.033 -0.027 0.0 9.111 -4.453 7.866 9.111 -4.453 9.156 9.111 -4.453 9.296 7.58 -4.38 10.354 7.58 -4.38 7.866 0.331 6.351 0.0 0.33 6.34 0.0 0.0 0.0 7.893 -0.259 -4.008 7.866 5.333 -4.273 11.906 5.907 6.116 11.906 9.44 1.68 0.0 9.111 -4.453 0.0 7.58 -4.38 0.0 5.462 -4.279 0.0 -0.259 -4.008 0.0 4.901 6.158 0.0 9.669 5.957 0.0 7.58 -4.38 10.175 0.199 -4.03 8.197 5.462 -4.279 11.689 4.901 6.158 7.866 5.462 -4.28 7.866 4.901 6.158 11.179 -0.611 10.376 8.828 -0.57 11.15 8.828 -0.57 11.15 0.0 -0.611 10.376 0.0 6.78 10.75 11.621 6.74 10.01 11.621 6.74 10.01 0.0 6.78 10.75 0.0 5.118 10.84 12.798 5.078 10.093 12.798 6.205 10.037 12.0 5.111 10.091 0.0 -0.611 10.376 8.83 5.111 10.091 12.746 5.111 10.091 11.002 10.97 1.6 0.0 10.86 -0.54 0.0 11.16 -0.56 0.0 10.95 -4.54 0.0 10.86 -0.54 8.119 11.16 -0.56 7.917 10.95 -4.54 7.921 10.97 1.6 8.119 -0.82 6.4 0.0 10.76 9.81 0.0 10.55 5.92 0.0 9.67 5.97 0.0 10.76 9.81 8.893 10.55 5.92 8.895 4.901 6.158 12.746 9.669 5.957 9.496 9.67 5.97 9.496 6.74 10.01 11.635 -0.82 6.4 8.832 0.33 6.34 9.619 0.331 6.351 9.619 7.53 -5.29 10.174 7.53 -5.29 0.0 6.71 -5.249 10.761 6.71 -5.249 0.0 5.412 -5.184 11.689 5.412 -5.184 0.0 -0.31 -4.9 7.892 -0.19 -2.36 7.878 -0.19 -2.36 0.0 -0.31 -4.9 0.0 -1.28 -1.07 7.108 -0.033 -0.027 7.895 -1.28 -1.07 0.0 -0.27 -4.9 0.0 -0.27 -4.9 7.919 -0.259 -4.008 7.893</float_array>
                    <technique_common>
                        <accessor count="89" source="#geometry0-position-array" stride="3">
                            <param name="X" type="float"/>
                            <param name="Y" type="float"/>
                            <param name="Z" type="float"/>
                        </accessor>
                    </technique_common>
                </source>
                <source id="geometry0-normal">
                    <float_array id="geometry0-normal-array" count="1194">0.5564173 -0.028604 0.8304105 0.5563477 -0.0286261 0.8304564 0.5565984 -0.028588 0.8302896 0.5566299 -0.0285801 0.8302689 0.5564421 -0.0286023 0.830394 0.5569854 -0.0285544 0.8300312 0.5602309 -0.0323387 0.827705 0.5621184 -0.030014 0.826512 0.562115 -0.0300123 0.8265144 0.5570576 -0.0362446 0.8296826 0.5573016 -0.0359231 0.8295327 0.5623715 -0.0297051 0.8263509 0.5622596 -0.0298739 0.826421 0.5622209 -0.0299262 0.8264454 -0.9958931 0.0905372 0.0 -0.9958931 0.0905372 0.0 -0.9958931 0.0905372 0.0 -0.9958931 0.0905372 0.0 0.0543413 0.9985224 0.0 0.0543413 0.9985224 0.0 0.0543413 0.9985224 0.0 0.0543413 0.9985224 0.0 -0.6332378 0.7739573 0.0 -0.6332378 0.7739573 0.0 -0.6332378 0.7739573 0.0 -0.0500144 -0.9987485 0.0 -0.0500144 -0.9987485 0.0 -0.0500144 -0.9987485 0.0 -0.0500144 -0.9987485 0.0 -0.0468686 -0.9988633 0.0086898 -0.0530098 -0.9985825 0.0047817 -0.0468686 -0.9988633 0.0086898 -0.040725 -0.999091 0.0125974 0.0496897 0.9987647 0.0 0.0496897 0.9987647 0.0 0.0496897 0.9987647 0.0 0.0496897 0.9987648 0.0 0.0496897 0.9987648 0.0 -0.0476271 -0.9988652 0.0 -0.0476271 -0.9988652 0.0 -0.0476271 -0.9988652 0.0 -0.0476271 -0.9988652 0.0 -0.0476271 -0.9988652 0.0 0.5766248 -0.0308483 0.8164265 0.5765792 -0.0308744 0.8164577 0.576672 -0.0306903 0.8163991 0.5766477 -0.0308352 0.8164109 0.5765304 -0.0311642 0.8164812 0.998611 -0.0526905 0.0 0.9986109 -0.0526905 0.0 0.998611 -0.0526905 0.0 0.998611 -0.0526905 0.0 -0.5631725 0.0352965 0.8255852 -0.5635817 0.0300921 0.8255121 -0.5635445 0.0300212 0.82554 -0.5634043 0.0299878 0.8256369 -0.5627849 0.0405712 0.8256072 -0.5622056 0.0511123 0.8254166 -0.9985999 0.0528975 0.0 -0.9985999 0.0528975 0.0 -0.9985999 0.0528975 0.0 -0.9985999 0.0528975 0.0 -0.0567264 -0.9983897 0.0 -0.0567264 -0.9983897 0.0 -0.0567264 -0.9983897 0.0 -0.0567264 -0.9983897 0.0 0.0421943 0.9991095 0.0 0.0421943 0.9991095 0.0 0.0421943 0.9991095 0.0 0.0421943 0.9991095 0.0 -0.9986482 0.0519801 0.0 -0.9986482 0.0519801 0.0 -0.9986482 0.0519801 0.0 -0.9986482 0.0519801 0.0 0.0419945 0.9991179 -3.65E-5 0.041713 0.9991297 0.0 0.0419324 0.9991204 -5.47E-5 0.0421352 0.9991119 -5.47E-5 0.0421187 0.9991126 0.0 -0.0474034 -0.9988758 -6.35E-5 -0.0473163 -0.99888 -1.27E-4 -0.0474034 -0.9988758 -6.35E-5 -0.0474905 -0.9988717 0.0 -0.0473971 -0.9988761 -6.35E-5 -0.0471618 -0.9988872 -1.27E-4 -0.0473971 -0.9988761 -6.35E-5 -0.0476325 -0.9988649 0.0 -0.0421187 -0.9991126 0.0 -0.0421187 -0.9991126 0.0 -0.0421187 -0.9991126 0.0 -0.0421187 -0.9991126 0.0 -0.0499201 -0.9987532 0.0 -0.0499201 -0.9987532 0.0 -0.0499201 -0.9987532 0.0 -0.0499201 -0.9987532 0.0 -0.9958931 0.0905372 0.0 -0.9958931 0.0905372 0.0 -0.9958931 0.0905372 0.0 -0.9958931 0.0905372 0.0 0.0352828 0.9991599 -0.0208494 0.049662 0.9987661 0.0 0.0352828 0.9991599 -0.0208494 0.0208809 0.9989126 -0.0416855 0.0 0.0 -1.0 0.0 0.0 -1.0 0.0 0.0 -1.0 0.0 0.0 -1.0 0.0 0.0 -1.0 0.0 0.0 -1.0 0.0497462 0.9987619 0.0 0.0497462 0.9987619 0.0 0.0497462 0.9987619 0.0 0.0497462 0.9987619 0.0 -0.0421943 -0.9991095 0.0 -0.0421943 -0.9991095 0.0 -0.0421943 -0.9991095 0.0 -0.0421943 -0.9991094 0.0 -0.0420196 -0.9991168 3.37E-5 -0.041713 -0.9991297 0.0 -0.0419158 -0.9991211 5.06E-5 -0.0421729 -0.9991103 5.06E-5 -0.0422272 -0.999108 0.0 0.9985697 -0.0534656 0.0 0.9985697 -0.0534656 0.0 0.9985697 -0.0534656 0.0 0.9985697 -0.0534656 0.0 0.9985697 -0.0534656 0.0 0.0421187 0.9991126 0.0 0.0421187 0.9991126 0.0 0.0421187 0.9991126 0.0 0.0421187 0.9991126 0.0 -0.0473971 -0.9988761 1.307E-4 -0.0476325 -0.9988649 0.0 -0.0473971 -0.9988761 1.307E-4 -0.0471618 -0.9988873 2.614E-4 0.9985422 -0.0539759 0.0 0.9985422 -0.0539759 0.0 0.9985422 -0.0539759 0.0 0.9985422 -0.0539759 0.0 0.049662 0.9987661 0.0 0.049662 0.9987661 0.0 0.049662 0.9987661 0.0 0.049662 0.9987661 0.0 0.5671121 -0.0313344 0.8230444 0.5672189 -0.0313674 0.8229694 0.5671721 -0.0313473 0.8230026 0.5671022 -0.0313209 0.8230517 0.5670523 -0.0313216 0.8230861 0.5670254 -0.0313286 0.8231044 -0.9983925 0.0566784 0.0 -0.9983925 0.0566784 0.0 -0.9983925 0.0566784 0.0 -0.9983925 0.0566784 0.0 0.0497462 0.9987619 0.0 0.0497462 0.9987619 0.0 0.0497462 0.9987619 0.0 0.9983925 -0.0566784 0.0 0.9983925 -0.0566784 0.0 0.9983925 -0.0566784 0.0 0.9983925 -0.0566784 0.0 0.9985642 -0.0535671 0.0 0.9985642 -0.0535671 0.0 0.9985642 -0.0535671 0.0 0.9985642 -0.0535671 0.0 0.9985642 -0.0535671 0.0 0.9985642 -0.0535671 0.0 0.9985642 -0.0535671 0.0 0.9985642 -0.0535671 0.0 0.0421943 0.9991095 0.0 0.0421943 0.9991094 0.0 0.0421943 0.9991095 0.0 0.0421943 0.9991095 0.0 0.9985642 -0.0535671 0.0 0.9985642 -0.0535671 0.0 0.9985642 -0.0535671 0.0 0.9985642 -0.0535671 0.0 -0.0421943 -0.9991095 0.0 -0.0421943 -0.9991095 0.0 -0.0421943 -0.9991095 0.0 -0.0421943 -0.9991095 0.0 -0.9986481 0.0519801 0.0 -0.9986481 0.0519801 0.0 -0.9986481 0.0519801 0.0 -0.9986481 0.0519801 0.0 -0.9988859 0.0471915 0.0 -0.9988859 0.0471915 0.0 -0.9988859 0.0471915 0.0 -0.9988859 0.0471915 0.0 -0.047461 -0.9988731 -2.089E-4 -0.0474315 -0.9988744 2.614E-4 -0.047461 -0.9988731 -2.089E-4 -0.0474905 -0.9988714 -6.792E-4 0.9985697 -0.0534656 0.0 0.9985697 -0.0534656 0.0 0.9985697 -0.0534656 0.0 0.9985697 -0.0534656 0.0 0.0665189 0.9977852 0.0 0.0665189 0.9977852 0.0 0.0665189 0.9977852 0.0 0.0665189 0.9977852 0.0 0.0504022 0.998729 0.0 0.0504022 0.998729 0.0 0.0504022 0.998729 0.0 0.0 0.0 -1.0 0.0 0.0 -1.0 0.0 0.0 -1.0 0.0 0.0 -1.0 0.0 0.0 -1.0 0.9986815 -0.0513344 0.0 0.9986815 -0.0513344 0.0 0.9986815 -0.0513344 0.0 0.9986815 -0.0513344 0.0 -0.6332377 0.7739573 0.0 -0.6332378 0.7739573 0.0 -0.6332377 0.7739573 0.0 -0.6332377 0.7739573 0.0 -0.5535196 0.0309038 0.8322626 -0.5515566 0.0304726 0.8335806 -0.5515721 0.0307367 0.8335607 -0.5516509 0.031049 0.833497 -0.6606323 0.0370964 0.7497926 -0.656438 0.0367713 0.7534834 -0.6542053 0.0367935 0.7554215 -0.5448728 0.0305613 0.8379616 -0.5519097 0.0310686 0.8333249 0.0542474 0.9985275 2.478E-4 0.0542474 0.9985275 2.478E-4 0.0542474 0.9985275 2.478E-4 0.9970521 -0.0767273 0.0 0.9970521 -0.0767273 0.0 0.9970521 -0.0767273 0.0 0.9970521 -0.0767273 0.0 0.9970521 -0.0767273 0.0 0.9970521 -0.0767273 0.0 -0.052103 -0.9986417 0.0 -0.052103 -0.9986417 0.0 -0.052103 -0.9986417 0.0 -0.052103 -0.9986417 0.0 -0.0476271 -0.9988652 0.0 -0.0476271 -0.9988652 0.0 -0.0476271 -0.9988652 0.0 -0.0476271 -0.9988652 0.0 -0.0434022 -0.9990561 -0.0017834 -0.0421187 -0.9991126 0.0 -0.0428391 -0.9990813 -0.0011889 -0.0431994 -0.9990649 -0.0017834 -0.041713 -0.9991297 0.0 0.9984939 -0.054862 0.0 0.9984939 -0.054862 0.0 0.9984939 -0.054862 0.0 0.998494 -0.054862 0.0 0.998494 -0.054862 0.0 -0.5840083 0.0392166 0.8107998 -0.5832822 0.0530265 0.8105369 -0.5838457 0.0426826 0.8107419 -0.5823632 0.0359279 0.8121344 -0.5823522 0.0358675 0.8121449 -0.5813681 0.0376592 0.8127688 -0.5843132 0.0321529 0.8108911 -0.641575 0.7670604 0.0 -0.6415749 0.7670603 0.0 -0.6415749 0.7670604 0.0 -0.6415749 0.7670604 0.0 -0.6415748 0.7670605 0.0 -0.0472554 -0.9988828 0.0 -0.0472554 -0.9988828 0.0 -0.0472554 -0.9988829 0.0 -0.0472554 -0.9988828 0.0 -0.0472554 -0.9988829 0.0 -0.9986213 0.0524929 0.0 -0.9986213 0.0524929 0.0 -0.9986213 0.0524929 0.0 -0.9986213 0.0524929 0.0 -0.7638353 -0.6454113 0.0 -0.7638353 -0.6454113 0.0 -0.7638353 -0.6454113 0.0 -0.7638354 -0.6454113 0.0 -0.049662 -0.9987661 0.0 -0.049662 -0.9987661 0.0 -0.049662 -0.9987661 0.0 -0.049662 -0.9987661 0.0 -0.0497462 -0.9987619 0.0 -0.0497462 -0.9987619 0.0 -0.0497462 -0.9987619 0.0 -0.0497462 -0.9987619 0.0 -0.0497462 -0.9987619 0.0 -0.0497462 -0.9987619 0.0 -0.0497462 -0.9987619 0.0 -0.0497462 -0.9987619 0.0 0.5803772 -0.0323213 0.8137061 0.5802178 -0.032056 0.8138303 0.5802238 -0.032082 0.813825 0.5804569 -0.0324539 0.8136441 0.5806838 -0.0327998 0.8134681 0.0473039 0.9988805 -1.307E-4 0.0471618 0.9988872 0.0 0.0473039 0.9988805 -1.307E-4 0.0474461 0.9988738 -2.614E-4 0.9983925 -0.0566784 0.0 0.9983925 -0.0566784 0.0 0.9983925 -0.0566784 0.0 0.9983925 -0.0566784 0.0 -0.0352827 -0.9991599 0.0208495 -0.0208808 -0.9989126 0.0416856 -0.0352827 -0.9991599 0.0208495 -0.049662 -0.9987661 0.0 -0.0421943 -0.9991095 0.0 -0.0421943 -0.9991095 0.0 -0.0421943 -0.9991095 0.0 -0.0421943 -0.9991094 0.0 -0.5709743 0.0304098 0.8204045 -0.5709977 0.0302467 0.8203943 -0.5709743 0.0304098 0.8204045 -0.570951 0.030573 0.8204147 0.0479803 0.9988483 0.0 0.0479803 0.9988483 0.0 0.0479803 0.9988483 0.0 0.0 0.0 -1.0 0.0 0.0 -1.0 0.0 0.0 -1.0 0.0 0.0 -1.0 0.0 0.0 -1.0 0.0 0.0 -1.0 0.0 0.0 -1.0 0.0 0.0 -1.0 0.0 0.0 -1.0 0.0 0.0 -1.0 0.0 0.0 -1.0 0.047461 0.9988731 2.089E-4 0.0474905 0.9988714 6.792E-4 0.047461 0.9988731 2.089E-4 0.0474315 0.9988744 -2.614E-4 0.0522162 0.9986358 0.0 0.0522162 0.9986358 0.0 0.0522162 0.9986358 0.0 0.0522162 0.9986358 0.0 0.0522162 0.9986358 0.0 -0.0499375 -0.9987524 0.0 -0.0499375 -0.9987524 0.0 -0.0499375 -0.9987524 0.0 -0.0499375 -0.9987524 0.0 0.0473971 0.9988761 6.35E-5 0.0476325 0.9988649 0.0 0.0473971 0.9988761 6.35E-5 0.0471618 0.9988872 1.27E-4 0.0 0.0 -1.0 0.0 0.0 -1.0 0.0 0.0 -1.0 0.0 0.0 -1.0 0.0 0.0 -1.0 0.0 0.0 -1.0 0.0 0.0 -1.0 0.0 0.0 -1.0 0.0 0.0 -1.0 0.0 0.0 -1.0 0.0 0.0 -1.0 0.9958931 -0.0905372 0.0 0.9958931 -0.0905372 0.0 0.9958931 -0.0905372 0.0 0.9958931 -0.0905372 0.0 0.9958931 -0.0905372 0.0 0.9958931 -0.0905372 0.0 0.0474034 0.9988758 6.35E-5 0.0473163 0.99888 0.0 0.0474034 0.9988758 6.35E-5 0.0474905 0.9988717 1.27E-4 -0.9985642 0.0535671 0.0 -0.9985642 0.0535671 0.0 -0.9985642 0.0535671 0.0 -0.9985642 0.0535671 0.0 0.0 -1.0 0.0 0.0 -1.0 0.0 0.0 -1.0 0.0 0.0 -1.0 0.0 -0.0476986 -0.9988616 -5.177E-4 -0.0470332 -0.9988933 -3.404E-4 -0.0477653 -0.9988583 -7.766E-4 -0.0480314 -0.9988457 -6.064E-4 -0.0475653 -0.9988682 0.0 -0.9985642 0.0535671 0.0 -0.9985642 0.0535671 0.0 -0.9985642 0.0535671 0.0 -0.9985642 0.0535671 0.0 0.998546 -0.0539061 0.0 0.998546 -0.0539061 0.0 0.998546 -0.0539061 0.0 0.998546 -0.0539061 0.0 0.0 0.0 -1.0 0.0 0.0 -1.0 0.0 0.0 -1.0 0.0 0.0 -1.0 0.0 0.0 -1.0 0.0 0.0 -1.0 0.0 0.0 -1.0 0.0 0.0 -1.0 0.0 0.0 -1.0 0.0 0.0 -1.0 0.0 0.0 -1.0</float_array>
                    <technique_common>
                        <accessor count="398" source="#geometry0-normal-array" stride="3">
                            <param name="X" type="float"/>
                            <param name="Y" type="float"/>
                            <param name="Z" type="float"/>
                        </accessor>
                    </technique_common>
                </source>
                <vertices id="geometry0-vertex">
                    <input semantic="POSITION" source="#geometry0-position"/>
                </vertices>
                <triangles count="188" material="default_ai_0.2_sh_0.2_tr_0.0_dc_r_0.8_g_0.8_b_0.8_sc_r_1.0_g_1.0_b_1.0_ec_r_0.0_g_0.0_b_0_tri">
                    <input offset="0" semantic="VERTEX" source="#geometry0-vertex"/>
                    <input offset="1" semantic="NORMAL" source="#geometry0-normal"/>
                    <p>0 14 1 15 2 16 0 14 2 16 3 17 38 18 41 19 44 20 38 18 44 20 39 21 9 22 20 23 10 24 75 25 77 26 78 27 75 25 78 27 76 28 46 29 49 30 50 31 46 29 50 31 47 32 61 33 43 34 42 35 61 33 42 35 69 36 61 33 69 36 64 37 16 38 17 39 13 40 16 38 13 40 14 41 16 38 14 41 15 42 57 48 58 49 55 50 57 48 55 50 54 51 37 58 38 59 39 60 37 58 39 60 40 61 65 62 68 63 63 64 65 62 63 64 62 65 3 66 34 67 29 68 3 66 29 68 18 69 10 70 0 71 19 72 10 70 19 72 11 73 34 74 36 75 23 76 34 74 23 76 5 77 34 74 5 77 4 78 28 79 27 80 35 81 28 79 35 81 21 82 17 83 35 84 27 85 17 83 27 85 26 86 29 87 30 88 4 89 29 87 4 89 34 90 77 91 87 92 86 93 77 91 86 93 78 94 0 95 3 96 18 97 0 95 18 97 19 98 42 99 51 100 50 101 42 99 50 101 47 102 54 103 55 104 25 105 53 106 54 103 25 105 53 106 25 105 24 107 53 106 24 107 52 108 48 109 40 110 49 111 48 109 49 111 51 112 2 113 3 114 34 115 2 113 34 115 36 116 23 117 36 118 34 119 23 117 34 119 4 120 23 117 4 120 5 121 7 122 8 123 4 124 7 122 4 124 5 125 7 122 5 125 6 126 30 127 29 128 34 129 30 127 34 129 4 130 17 131 31 132 33 133 17 131 33 133 35 134 41 135 42 136 43 137 41 135 43 137 44 138 42 139 43 140 48 141 42 139 48 141 51 142 12 149 28 150 21 151 12 149 21 151 9 152 51 153 49 154 50 155 88 156 21 157 9 158 88 156 9 158 84 159 25 160 24 161 8 162 25 160 8 162 13 163 15 164 14 165 7 166 15 164 7 166 6 167 36 168 34 169 3 170 36 168 3 170 2 171 8 172 7 173 14 174 8 172 14 174 13 175 3 176 18 177 29 178 3 176 29 178 34 179 10 180 20 181 1 182 10 180 1 182 0 183 79 184 80 185 81 186 79 184 81 186 82 187 35 188 33 189 32 190 35 188 32 190 21 191 4 192 8 193 24 194 4 192 24 194 30 195 56 196 57 197 54 198 56 196 54 198 53 199 69 200 42 201 47 202 40 203 39 204 44 205 40 203 44 205 43 206 40 203 43 206 48 207 59 208 56 209 53 210 59 208 53 210 52 211 9 212 10 213 11 214 9 212 11 214 12 215 41 225 38 226 45 227 30 228 63 229 68 230 4 231 30 228 68 230 5 232 4 231 68 230 5 232 68 230 67 233 71 234 70 235 60 236 71 234 60 236 19 237 13 238 17 239 26 240 13 238 26 240 25 241 5 242 67 243 66 244 23 245 5 242 66 244 23 245 66 244 36 246 74 247 26 248 17 249 74 247 17 249 31 250 74 247 31 250 73 251 12 259 85 260 83 261 9 262 12 259 83 261 9 262 83 261 84 263 25 264 55 265 58 266 13 267 25 264 58 266 13 267 58 266 14 268 70 269 49 270 40 271 70 269 40 271 60 272 80 273 83 274 85 275 80 273 85 275 81 276 51 277 48 278 43 279 51 277 43 279 42 280 51 281 50 282 49 283 48 284 51 285 49 286 48 284 49 286 37 287 48 284 37 287 40 288 31 294 17 295 35 296 31 294 35 296 33 297 21 298 28 299 12 300 21 298 12 300 9 301 42 302 47 303 50 304 42 302 50 304 51 305 72 306 2 307 36 308 72 306 36 308 66 309 32 314 21 315 88 316 18 317 19 318 60 319 18 317 60 319 40 320 18 317 40 320 48 321 18 317 48 321 43 322 18 317 43 322 61 323 29 324 18 317 61 323 63 325 30 326 29 324 63 325 29 324 61 323 63 325 61 323 62 327 35 328 21 329 32 330 35 328 32 330 33 331 52 332 24 333 8 334 52 332 8 334 7 335 52 332 7 335 59 336 73 337 75 338 76 339 73 337 76 339 74 340 17 341 26 342 27 343 17 341 27 343 35 344 29 345 30 346 24 347 29 345 24 347 25 348 29 345 25 348 26 349 29 345 26 349 27 350 29 345 27 350 28 351 19 352 18 353 29 345 11 354 19 352 29 345 11 354 29 345 28 351 11 354 28 351 12 355 19 356 18 357 3 358 19 356 3 358 2 359 19 356 2 359 72 360 19 356 72 360 71 361 27 362 28 363 21 364 27 362 21 364 35 365 7 366 8 367 13 368 7 366 13 368 14 369 87 370 79 371 82 372 87 370 82 372 86 373 22 374 32 375 33 376 22 374 33 376 31 377 22 374 31 377 16 378 8 379 24 380 25 381 8 379 25 381 13 382 64 383 65 384 62 385 64 383 62 385 61 386 85 387 12 388 81 389 81 389 12 388 82 390 12 388 28 391 82 390 82 390 28 391 86 392 86 392 28 391 78 393 78 393 28 391 76 394 76 394 28 391 74 395 74 395 28 391 26 396 26 396 28 391 27 397</p>
                </triangles>
                <triangles count="38" material="default_ai_0.2_sh_0.2_tr_0.0_dc_r_1.0_g_0.2_b_0.2_sc_r_1.0_g_1.0_b_1.0_ec_r_0.0_g_0.0_b_0_tri">
                    <input offset="0" semantic="VERTEX" source="#geometry0-vertex"/>
                    <input offset="1" semantic="NORMAL" source="#geometry0-normal"/>
                    <p>7 0 14 1 58 2 56 3 59 4 7 0 56 3 7 0 58 2 56 3 58 2 57 5 47 6 50 7 66 8 47 6 66 8 67 9 47 6 67 9 68 10 47 6 68 10 65 11 69 12 47 6 65 11 69 12 65 11 64 13 45 43 46 44 47 45 45 43 47 45 42 46 45 43 42 46 41 47 72 52 66 53 50 54 72 52 50 54 49 55 72 52 49 55 70 56 72 52 70 56 71 57 16 143 15 144 6 145 16 143 6 145 5 146 16 143 5 146 23 147 16 143 23 147 22 148 87 216 77 217 33 218 87 216 33 218 32 219 87 216 32 219 88 220 79 221 87 216 88 220 79 221 88 220 84 222 80 223 79 221 84 222 80 223 84 222 83 224 23 252 2 253 1 254 23 252 1 254 20 255 22 256 23 252 20 255 22 256 20 255 9 257 22 256 9 257 21 258 31 289 33 290 77 291 31 289 77 291 75 292 31 289 75 292 73 293 38 310 37 311 46 312 38 310 46 312 45 313</p>
                </triangles>
            </mesh>
        </geometry>
    </library_geometries>
    <library_visual_scenes>
        <visual_scene id="Building_DEBW_5221000QaVA">
            <node>
                <instance_geometry url="#geometry0">
                    <bind_material>
                        <technique_common>
                            <instance_material symbol="default_ai_0.2_sh_0.2_tr_0.0_dc_r_0.8_g_0.8_b_0.8_sc_r_1.0_g_1.0_b_1.0_ec_r_0.0_g_0.0_b_0_tri" target="#default_ai_0.2_sh_0.2_tr_0.0_dc_r_0.8_g_0.8_b_0.8_sc_r_1.0_g_1.0_b_1.0_ec_r_0.0_g_0.0_b_0_mat"/>
                            <instance_material symbol="default_ai_0.2_sh_0.2_tr_0.0_dc_r_1.0_g_0.2_b_0.2_sc_r_1.0_g_1.0_b_1.0_ec_r_0.0_g_0.0_b_0_tri" target="#default_ai_0.2_sh_0.2_tr_0.0_dc_r_1.0_g_0.2_b_0.2_sc_r_1.0_g_1.0_b_1.0_ec_r_0.0_g_0.0_b_0_mat"/>
                        </technique_common>
                    </bind_material>
                </instance_geometry>
            </node>
        </visual_scene>
    </library_visual_scenes>
    <scene>
        <instance_visual_scene url="#Building_DEBW_5221000QaVA"/>
    </scene>
</COLLADA>
