<?xml version="1.0" encoding="UTF-8" standalone="yes"?>
<COLLADA xmlns="http://www.collada.org/2005/11/COLLADASchema" version="1.4.1">
    <asset>
        <contributor>
            <authoring_tool>3D City Database Importer/Exporter, version 5.5.3; Chair of Geoinformatics, Technical University of Munich</authoring_tool>
        </contributor>
        <created>2026-05-06T15:12:18.148</created>
        <modified>2026-05-06T15:12:18.148</modified>
        <unit meter="1.0" name="meters"/>
        <up_axis>Z_UP</up_axis>
    </asset>
    <library_materials>
        <material id="default_ai_0.2_sh_0.2_tr_0.0_dc_r_0.8_g_0.8_b_0.8_sc_r_1.0_g_1.0_b_1.0_ec_r_0.0_g_0.0_b_0_mat">
            <instance_effect url="#default_ai_0.2_sh_0.2_tr_0.0_dc_r_0.8_g_0.8_b_0.8_sc_r_1.0_g_1.0_b_1.0_ec_r_0.0_g_0.0_b_0_eff"/>
        </material>
        <material id="default_ai_0.2_sh_0.2_tr_0.0_dc_r_1.0_g_0.2_b_0.2_sc_r_1.0_g_1.0_b_1.0_ec_r_0.0_g_0.0_b_0_mat">
            <instance_effect url="#default_ai_0.2_sh_0.2_tr_0.0_dc_r_1.0_g_0.2_b_0.2_sc_r_1.0_g_1.0_b_1.0_ec_r_0.0_g_0.0_b_0_eff"/>
        </material>
    </library_materials>
    <library_effects>
        <effect id="default_ai_0.2_sh_0.2_tr_0.0_dc_r_0.8_g_0.8_b_0.8_sc_r_1.0_g_1.0_b_1.0_ec_r_0.0_g_0.0_b_0_eff">
            <profile_COMMON>
                <technique sid="COMMON">
                    <lambert>
                        <emission>
                            <color>0.0 0.0 0.0 1.0</color>
                        </emission>
                        <diffuse>
                            <color>0.8 0.8 0.8 1.0</color>
                        </diffuse>
                        <reflective>
                            <color>1.0 1.0 1.0 1.0</color>
                        </reflective>
                        <reflectivity>
                            <float>0.2</float>
                        </reflectivity>
                        <transparent opaque="A_ONE">
                            <color>1.0 1.0 1.0 1.0</color>
                        </transparent>
                        <transparency>
                            <float>1.0</float>
                        </transparency>
                    </lambert>
                </technique>
                <extra>
                    <technique profile="GOOGLEEARTH">
                        <double_sided>0</double_sided>
                    </technique>
                </extra>
            </profile_COMMON>
        </effect>
        <effect id="default_ai_0.2_sh_0.2_tr_0.0_dc_r_1.0_g_0.2_b_0.2_sc_r_1.0_g_1.0_b_1.0_ec_r_0.0_g_0.0_b_0_eff">
            <profile_COMMON>
                <technique sid="COMMON">
                    <lambert>
                        <emission>
                            <color>0.0 0.0 0.0 1.0</color>
                        </emission>
                        <diffuse>
                            <color>1.0 0.2 0.2 1.0</color>
                        </diffuse>
                        <reflective>
                            <color>1.0 1.0 1.0 1.0</color>
                        </reflective>
                        <reflectivity>
                            <float>0.2</float>
                        </reflectivity>
                        <transparent opaque="A_ONE">
                            <color>1.0 1.0 1.0 1.0</color>
                        </transparent>
                        <transparency>
                            <float>1.0</float>
                        </transparency>
                    </lambert>
                </technique>
                <extra>
                    <technique profile="GOOGLEEARTH">
                        <double_sided>0</double_sided>
                    </technique>
                </extra>
            </profile_COMMON>
        </effect>
    </library_effects>
    <library_geometries>
        <geometry id="geometry0">
            <mesh>
                <source id="geometry0-position">
                    <float_array id="geometry0-position-array" count="72">0.0 0.0 0.0 2.138 1.31 0.0 4.668 2.86 0.0 8.278 -2.77 0.0 3.688 -5.74 0.0 1.208 -1.88 0.0 2.138 1.31 7.85 4.668 2.86 6.128 8.278 -2.77 6.132 3.688 -5.74 9.305 1.208 -1.88 9.305 1.208 -1.88 7.744 1.139 0.698 8.53 0.0 0.0 9.305 0.0 0.0 7.744 2.138 1.31 9.218 0.658 3.58 9.208 -1.445 2.249 7.744 0.658 3.58 0.0 -1.445 2.249 0.0 -2.492 -4.22 0.0 -5.062 -0.04 0.0 -2.492 -4.22 5.18 -5.062 -0.04 5.237</float_array>
                    <technique_common>
                        <accessor count="24" source="#geometry0-position-array" stride="3">
                            <param name="X" type="float"/>
                            <param name="Y" type="float"/>
                            <param name="Z" type="float"/>
                        </accessor>
                    </technique_common>
                </source>
                <source id="geometry0-normal">
                    <float_array id="geometry0-normal-array" count="318">0.5224483 -0.852671 4.26E-5 0.5224451 -0.8526729 1.279E-4 0.5224475 -0.8526714 6.4E-5 0.5224498 -0.85267 0.0 0.5224498 -0.8526701 0.0 0.5432513 -0.8395703 0.0 0.5432512 -0.8395702 0.0 0.5432513 -0.8395703 0.0 0.5432513 -0.8395703 0.0 0.8418095 0.5397748 0.0 0.8418095 0.5397748 0.0 0.8418095 0.5397748 0.0 0.8418095 0.5397748 0.0 0.837684 0.5461552 0.0 0.837684 0.5461552 0.0 0.837684 0.5461552 0.0 0.837684 0.5461552 0.0 0.8376841 0.5461552 0.0 -0.8413121 -0.5405496 0.0 -0.8413121 -0.5405496 0.0 -0.8413121 -0.5405496 0.0 -0.8413121 -0.5405496 0.0 -0.8518682 -0.5237563 0.0 -0.8518683 -0.5237563 0.0 -0.8518682 -0.5237563 0.0 -0.8518682 -0.5237562 0.0 0.0 0.0 -1.0 0.0 0.0 -1.0 0.0 0.0 -1.0 0.0 0.0 -1.0 0.0 0.0 -1.0 0.0 0.0 -1.0 -0.84132 -0.5405373 0.0 -0.84132 -0.5405373 0.0 -0.84132 -0.5405373 0.0 -0.84132 -0.5405373 0.0 -0.84132 -0.5405373 0.0 -0.4264655 -0.2740016 0.8620037 -0.4265684 -0.2740736 0.8619298 -0.4266979 -0.2740293 0.8618798 -0.426414 -0.2739657 0.8620406 -0.4260004 -0.2739462 0.8622513 -0.4251896 -0.2731938 0.8628899 -0.4251801 -0.2732008 0.8628924 -0.425187 -0.2731956 0.8628905 -0.4251944 -0.2731903 0.8628887 -0.4251947 -0.2731902 0.8628885 -0.5224483 0.852671 -4.26E-5 -0.5224451 0.8526729 -1.279E-4 -0.5224475 0.8526715 -6.4E-5 -0.5224498 0.85267 0.0 -0.5224498 0.85267 0.0 0.4223155 0.2713322 0.8648864 0.4223278 0.2713645 0.8648703 0.4223153 0.2713461 0.8648821 0.4223045 0.2713003 0.8649019 0.4223298 0.2713512 0.8648735 0.4223573 0.2714448 0.8648306 0.4223486 0.2714277 0.8648403 -0.5347939 0.8449826 0.0 -0.5347939 0.8449826 0.0 -0.5347939 0.8449826 0.0 -0.5347939 0.8449826 0.0 0.5345085 -0.8451631 0.0 0.5345085 -0.8451631 0.0 0.5345085 -0.8451631 0.0 0.5345085 -0.845163 0.0 -0.8412948 -0.5405766 0.0 -0.8412948 -0.5405766 0.0 -0.8412948 -0.5405766 0.0 -0.8412948 -0.5405766 0.0 -0.8412948 -0.5405766 0.0 -0.8412948 -0.5405766 0.0 -0.8412948 -0.5405766 0.0 -0.8412948 -0.5405766 0.0 0.5223819 -0.8527117 0.0 0.5223819 -0.8527117 0.0 0.5223819 -0.8527117 0.0 0.8412948 0.5405766 0.0 0.8412948 0.5405766 0.0 0.8412948 0.5405766 0.0 0.8412948 0.5405766 0.0 0.0 0.0 -1.0 0.0 0.0 -1.0 0.0 0.0 -1.0 0.0 0.0 -1.0 -0.522404 0.8526981 0.0 -0.522404 0.8526981 0.0 -0.522404 0.8526981 0.0 -0.5224039 0.8526981 0.0 0.0 0.0 -1.0 0.0 0.0 -1.0 0.0 0.0 -1.0 0.0 0.0 -1.0 0.0 0.0 -1.0 0.8413121 0.5405496 0.0 0.8413121 0.5405496 0.0 0.8413121 0.5405496 0.0 0.8413121 0.5405496 0.0 -0.5225093 0.8526335 0.0 -0.5225093 0.8526335 0.0 -0.5225093 0.8526335 0.0 -0.5347575 0.8450055 0.0 -0.5347575 0.8450055 0.0 -0.5347575 0.8450055 0.0 -0.5347575 0.8450055 0.0</float_array>
                    <technique_common>
                        <accessor count="106" source="#geometry0-normal-array" stride="3">
                            <param name="X" type="float"/>
                            <param name="Y" type="float"/>
                            <param name="Z" type="float"/>
                        </accessor>
                    </technique_common>
                </source>
                <vertices id="geometry0-vertex">
                    <input semantic="POSITION" source="#geometry0-position"/>
                </vertices>
                <triangles count="47" material="default_ai_0.2_sh_0.2_tr_0.0_dc_r_0.8_g_0.8_b_0.8_sc_r_1.0_g_1.0_b_1.0_ec_r_0.0_g_0.0_b_0_tri">
                    <input offset="0" semantic="VERTEX" source="#geometry0-vertex"/>
                    <input offset="1" semantic="NORMAL" source="#geometry0-normal"/>
                    <p>6 0 12 1 14 2 6 0 14 2 0 3 6 0 0 3 1 4 8 5 9 6 4 7 8 5 4 7 3 8 7 9 8 10 3 11 7 9 3 11 2 12 1 13 18 14 16 15 6 16 1 13 16 15 6 16 16 15 15 17 14 18 17 19 19 20 14 18 19 20 0 21 22 22 23 23 21 24 22 22 21 24 20 25 3 26 4 27 5 28 3 26 5 28 0 29 3 26 0 29 1 30 3 26 1 30 2 31 5 32 4 33 9 34 11 35 5 32 9 34 11 35 9 34 10 36 14 47 12 48 6 49 14 47 6 49 1 50 14 47 1 50 0 51 17 59 16 60 18 61 17 59 18 61 19 62 11 63 22 64 20 65 11 63 20 65 5 66 14 67 11 68 10 69 14 67 10 69 13 70 0 71 5 72 11 73 0 71 11 73 14 74 12 75 6 76 15 77 5 78 0 79 14 80 5 78 14 80 11 81 19 82 18 83 1 84 19 82 1 84 0 85 6 86 7 87 2 88 6 86 2 88 1 89 21 90 19 91 0 92 21 90 0 92 5 93 21 90 5 93 20 94 0 95 19 96 17 97 0 95 17 97 14 98 12 99 14 100 13 101 23 102 17 103 19 104 23 102 19 104 21 105</p>
                </triangles>
                <triangles count="11" material="default_ai_0.2_sh_0.2_tr_0.0_dc_r_1.0_g_0.2_b_0.2_sc_r_1.0_g_1.0_b_1.0_ec_r_0.0_g_0.0_b_0_tri">
                    <input offset="0" semantic="VERTEX" source="#geometry0-vertex"/>
                    <input offset="1" semantic="NORMAL" source="#geometry0-normal"/>
                    <p>16 37 17 38 14 39 16 37 14 39 12 40 16 37 12 40 15 41 22 42 11 43 14 44 22 42 14 44 17 45 22 42 17 45 23 46 9 52 8 53 10 54 10 54 8 53 13 55 13 55 8 53 12 56 12 56 8 53 6 57 6 57 8 53 7 58</p>
                </triangles>
            </mesh>
        </geometry>
    </library_geometries>
    <library_visual_scenes>
        <visual_scene id="Building_DEBW_5221000R0QR">
            <node>
                <instance_geometry url="#geometry0">
                    <bind_material>
                        <technique_common>
                            <instance_material symbol="default_ai_0.2_sh_0.2_tr_0.0_dc_r_0.8_g_0.8_b_0.8_sc_r_1.0_g_1.0_b_1.0_ec_r_0.0_g_0.0_b_0_tri" target="#default_ai_0.2_sh_0.2_tr_0.0_dc_r_0.8_g_0.8_b_0.8_sc_r_1.0_g_1.0_b_1.0_ec_r_0.0_g_0.0_b_0_mat"/>
                            <instance_material symbol="default_ai_0.2_sh_0.2_tr_0.0_dc_r_1.0_g_0.2_b_0.2_sc_r_1.0_g_1.0_b_1.0_ec_r_0.0_g_0.0_b_0_tri" target="#default_ai_0.2_sh_0.2_tr_0.0_dc_r_1.0_g_0.2_b_0.2_sc_r_1.0_g_1.0_b_1.0_ec_r_0.0_g_0.0_b_0_mat"/>
                        </technique_common>
                    </bind_material>
                </instance_geometry>
            </node>
        </visual_scene>
    </library_visual_scenes>
    <scene>
        <instance_visual_scene url="#Building_DEBW_5221000R0QR"/>
    </scene>
</COLLADA>
