<?xml version="1.0" encoding="UTF-8" standalone="yes"?>
<COLLADA xmlns="http://www.collada.org/2005/11/COLLADASchema" version="1.4.1">
    <asset>
        <contributor>
            <authoring_tool>3D City Database Importer/Exporter, version 5.5.3; Chair of Geoinformatics, Technical University of Munich</authoring_tool>
        </contributor>
        <created>2026-05-06T15:12:13.735</created>
        <modified>2026-05-06T15:12:13.735</modified>
        <unit meter="1.0" name="meters"/>
        <up_axis>Z_UP</up_axis>
    </asset>
    <library_materials>
        <material id="default_ai_0.2_sh_0.2_tr_0.0_dc_r_0.8_g_0.8_b_0.8_sc_r_1.0_g_1.0_b_1.0_ec_r_0.0_g_0.0_b_0_mat">
            <instance_effect url="#default_ai_0.2_sh_0.2_tr_0.0_dc_r_0.8_g_0.8_b_0.8_sc_r_1.0_g_1.0_b_1.0_ec_r_0.0_g_0.0_b_0_eff"/>
        </material>
        <material id="default_ai_0.2_sh_0.2_tr_0.0_dc_r_1.0_g_0.2_b_0.2_sc_r_1.0_g_1.0_b_1.0_ec_r_0.0_g_0.0_b_0_mat">
            <instance_effect url="#default_ai_0.2_sh_0.2_tr_0.0_dc_r_1.0_g_0.2_b_0.2_sc_r_1.0_g_1.0_b_1.0_ec_r_0.0_g_0.0_b_0_eff"/>
        </material>
    </library_materials>
    <library_effects>
        <effect id="default_ai_0.2_sh_0.2_tr_0.0_dc_r_0.8_g_0.8_b_0.8_sc_r_1.0_g_1.0_b_1.0_ec_r_0.0_g_0.0_b_0_eff">
            <profile_COMMON>
                <technique sid="COMMON">
                    <lambert>
                        <emission>
                            <color>0.0 0.0 0.0 1.0</color>
                        </emission>
                        <diffuse>
                            <color>0.8 0.8 0.8 1.0</color>
                        </diffuse>
                        <reflective>
                            <color>1.0 1.0 1.0 1.0</color>
                        </reflective>
                        <reflectivity>
                            <float>0.2</float>
                        </reflectivity>
                        <transparent opaque="A_ONE">
                            <color>1.0 1.0 1.0 1.0</color>
                        </transparent>
                        <transparency>
                            <float>1.0</float>
                        </transparency>
                    </lambert>
                </technique>
                <extra>
                    <technique profile="GOOGLEEARTH">
                        <double_sided>0</double_sided>
                    </technique>
                </extra>
            </profile_COMMON>
        </effect>
        <effect id="default_ai_0.2_sh_0.2_tr_0.0_dc_r_1.0_g_0.2_b_0.2_sc_r_1.0_g_1.0_b_1.0_ec_r_0.0_g_0.0_b_0_eff">
            <profile_COMMON>
                <technique sid="COMMON">
                    <lambert>
                        <emission>
                            <color>0.0 0.0 0.0 1.0</color>
                        </emission>
                        <diffuse>
                            <color>1.0 0.2 0.2 1.0</color>
                        </diffuse>
                        <reflective>
                            <color>1.0 1.0 1.0 1.0</color>
                        </reflective>
                        <reflectivity>
                            <float>0.2</float>
                        </reflectivity>
                        <transparent opaque="A_ONE">
                            <color>1.0 1.0 1.0 1.0</color>
                        </transparent>
                        <transparency>
                            <float>1.0</float>
                        </transparency>
                    </lambert>
                </technique>
                <extra>
                    <technique profile="GOOGLEEARTH">
                        <double_sided>0</double_sided>
                    </technique>
                </extra>
            </profile_COMMON>
        </effect>
    </library_effects>
    <library_geometries>
        <geometry id="geometry0">
            <mesh>
                <source id="geometry0-position">
                    <float_array id="geometry0-position-array" count="126">-4.47 -1.67 6.366 0.0 0.0 6.365 0.0 0.0 0.0 -4.47 -1.67 0.0 -2.851 -5.953 9.022 -2.47 -6.96 8.392 -2.24 -6.89 8.383 -0.9 -10.41 6.179 3.15 -8.9 6.178 2.444 -6.903 7.418 1.529 -4.318 9.022 -2.47 -6.96 0.0 -2.24 -6.89 0.0 -0.9 -10.41 0.0 0.365 -1.031 7.0 0.126 -0.355 6.583 3.15 -8.9 0.0 -2.851 -5.953 0.0 0.126 -0.355 0.0 1.526 -4.309 0.0 1.529 -4.318 0.0 1.529 -4.318 8.98 1.526 -4.309 8.985 0.128 -0.354 0.0 0.13 -0.36 0.0 5.44 1.71 0.0 5.74 1.82 0.0 6.59 -0.42 0.0 7.224 -2.088 0.0 9.16 -7.19 0.0 3.35 -9.46 0.0 3.152 -8.899 0.0 5.44 1.71 6.593 5.74 1.82 6.597 0.126 -0.355 6.59 0.128 -0.354 6.59 3.35 -9.46 5.872 9.16 -7.19 5.875 7.224 -2.088 8.985 0.13 -0.36 6.594 6.59 -0.42 7.966 3.152 -8.899 6.178</float_array>
                    <technique_common>
                        <accessor count="42" source="#geometry0-position-array" stride="3">
                            <param name="X" type="float"/>
                            <param name="Y" type="float"/>
                            <param name="Z" type="float"/>
                        </accessor>
                    </technique_common>
                </source>
                <source id="geometry0-normal">
                    <float_array id="geometry0-normal-array" count="456">0.9347539 0.355296 0.0 0.9347539 0.355296 0.0 0.9347539 0.355296 0.0 0.9347538 0.355296 0.0 -0.9345718 -0.3557745 0.0 -0.9345718 -0.3557745 0.0 -0.9345718 -0.3557745 0.0 -0.9345718 -0.3557745 0.0 -0.9442181 -0.3292386 -0.0073612 -0.9464794 -0.3220078 -0.022082 -0.9448078 -0.3274392 -0.0110419 -0.9429903 -0.3328201 0.0 -0.9429903 -0.3328201 0.0 -0.9486808 -0.3162353 0.0 -0.9486808 -0.3162353 0.0 -0.9486808 -0.3162353 0.0 -0.9486808 -0.3162353 0.0 -0.3499749 0.9367591 0.0 -0.3499749 0.9367591 0.0 -0.3499749 0.9367591 0.0 -0.3499749 0.9367591 0.0 0.9426963 0.3336521 1.58E-5 0.9426234 0.3338578 0.0 0.9426394 0.3338127 2.37E-5 0.9427327 0.3335492 2.37E-5 0.9428099 0.3333307 0.0 0.1848751 -0.4521617 0.8725658 0.1798288 -0.4613529 0.8688011 0.189848 -0.442858 0.8762617 0.1898814 -0.4428346 0.8762662 0.1798803 -0.4614065 0.8687618 0.1798646 -0.4615062 0.8687121 -0.9391684 -0.3430228 -0.0172669 -0.9310786 -0.3611253 -0.0517802 -0.9372846 -0.3476014 -0.0259016 -0.9426553 -0.3337677 0.0 -0.9426553 -0.3337677 0.0 0.9424008 0.3344859 0.0 0.9424008 0.3344859 0.0 0.9424008 0.3344859 0.0 0.9424008 0.3344859 0.0 0.946353 0.323129 0.0018653 0.9415376 0.3368618 0.0055956 0.9451692 0.3265693 0.002798 0.9486808 0.3162353 0.0 0.9486808 0.3162353 0.0 0.9486808 0.3162353 0.0 0.0 0.0 -1.0 0.0 0.0 -1.0 0.0 0.0 -1.0 0.0 0.0 -1.0 0.0 0.0 -1.0 0.0 0.0 -1.0 0.0 0.0 -1.0 0.0 0.0 -1.0 0.0 0.0 -1.0 0.0 0.0 -1.0 0.0 0.0 -1.0 0.0 0.0 -1.0 -0.9425814 -0.3339766 -3.55E-5 -0.942687 -0.3336784 0.0 -0.9426389 -0.3338141 -5.33E-5 -0.9425285 -0.3341257 -5.33E-5 -0.9424661 -0.3343015 0.0 0.0 0.0 -1.0 0.0 0.0 -1.0 0.0 0.0 -1.0 0.0 0.0 -1.0 0.0 0.0 -1.0 0.0 0.0 -1.0 0.0 0.0 -1.0 0.0 0.0 -1.0 0.0 0.0 -1.0 0.0 0.0 -1.0 0.1765316 -0.4732634 0.8630517 0.176593 -0.4730748 0.8631426 0.1768007 -0.4731788 0.8630431 0.1765278 -0.4733508 0.8630046 0.1769229 -0.473119 0.8630508 0.1766291 -0.4731688 0.8630837 0.1776555 -0.4727564 0.863099 0.942687 0.3336783 0.0 0.942687 0.3336783 0.0 0.942687 0.3336783 0.0 -0.175444 0.4701259 0.8649862 -0.1754754 0.4700809 0.8650042 -0.1755095 0.4700264 0.8650269 -0.175578 0.470552 0.8647272 -0.1753785 0.4702253 0.8649455 -0.1751444 0.4693182 0.8654853 0.9349514 0.3547757 0.0 0.9349515 0.3547758 0.0 0.9349514 0.3547757 0.0 0.9349514 0.3547758 0.0 -0.212295 0.4512059 0.8668011 -0.1801026 0.4620551 0.8683709 -0.1801043 0.4620492 0.8683738 -0.1801079 0.4621672 0.8683102 -0.1813838 0.4644897 0.8668041 -0.1813553 0.4644909 0.8668094 -0.2636787 0.4443988 0.8561444 -0.3048851 0.4341748 0.8476658 -0.2407562 0.4815195 0.8427191 -0.344255 0.9388762 0.0 -0.344255 0.9388762 0.0 -0.344255 0.9388762 0.0 -0.344255 0.9388762 0.0 -0.3632082 0.931708 0.0 -0.3632082 0.931708 0.0 -0.3632082 0.931708 0.0 -0.3632083 0.931708 0.0 -0.9428099 -0.3333308 0.0 -0.9428099 -0.3333308 0.0 -0.9428099 -0.3333308 0.0 0.2911623 -0.9566737 0.0 0.2911623 -0.9566737 0.0 0.2911623 -0.9566737 0.0 0.2911623 -0.9566737 0.0 -0.9354015 -0.3535874 0.0 -0.9354015 -0.3535874 0.0 -0.9354015 -0.3535874 0.0 -0.9354015 -0.3535874 0.0 0.3493481 -0.936993 0.0 0.349348 -0.936993 0.0 0.3493481 -0.936993 0.0 0.3493481 -0.9369931 0.0 -0.4472083 0.8944299 0.0 -0.4472083 0.8944299 0.0 -0.4472083 0.8944299 0.0 -0.4472083 0.8944299 0.0 -0.4472083 0.8944299 0.0 0.9349498 0.3547802 0.0 0.9349498 0.3547802 0.0 0.9349498 0.3547802 0.0 0.9349498 0.3547802 0.0 0.948684 0.3162256 0.0 0.948684 0.3162256 0.0 0.948684 0.3162256 0.0 0.948684 0.3162256 0.0 0.9402988 0.3401304 -0.0122239 0.9376673 0.3466734 -0.0244453 0.9402988 0.3401304 -0.0122239 0.9427432 0.3335196 0.0 0.9427432 0.3335196 0.0 0.3639157 -0.9314319 0.0 0.3639157 -0.9314319 0.0 0.3639157 -0.9314319 0.0 0.3639157 -0.9314319 0.0 -0.9352945 -0.3538702 0.0 -0.9352945 -0.3538702 0.0 -0.9352945 -0.3538702 0.0 -0.9352946 -0.3538702 0.0</float_array>
                    <technique_common>
                        <accessor count="152" source="#geometry0-normal-array" stride="3">
                            <param name="X" type="float"/>
                            <param name="Y" type="float"/>
                            <param name="Z" type="float"/>
                        </accessor>
                    </technique_common>
                </source>
                <vertices id="geometry0-vertex">
                    <input semantic="POSITION" source="#geometry0-position"/>
                </vertices>
                <triangles count="72" material="default_ai_0.2_sh_0.2_tr_0.0_dc_r_0.8_g_0.8_b_0.8_sc_r_1.0_g_1.0_b_1.0_ec_r_0.0_g_0.0_b_0_tri">
                    <input offset="0" semantic="VERTEX" source="#geometry0-vertex"/>
                    <input offset="1" semantic="NORMAL" source="#geometry0-normal"/>
                    <p>40 0 38 1 28 2 40 0 28 2 27 3 7 4 6 5 12 6 7 4 12 6 13 7 36 8 9 9 41 10 36 8 41 10 31 11 36 8 31 11 30 12 19 13 20 14 21 15 19 13 21 15 22 16 0 17 1 18 2 19 0 17 2 19 3 20 14 21 22 22 19 23 14 21 19 23 18 24 14 21 18 24 15 25 22 32 14 33 15 34 22 32 15 34 18 35 22 32 18 35 19 36 18 37 2 38 1 39 18 37 1 39 15 40 22 41 14 42 10 43 22 41 10 43 21 44 22 41 21 44 20 45 22 41 20 45 19 46 23 47 24 48 18 49 18 49 24 48 19 50 24 48 25 51 19 50 19 50 25 51 20 52 20 52 25 51 31 53 31 53 25 51 30 54 30 54 25 51 29 55 29 55 25 51 28 56 28 56 25 51 27 57 27 57 25 51 26 58 9 59 21 60 20 61 9 59 20 61 31 62 9 59 31 62 41 63 11 64 17 65 12 66 17 65 3 67 12 66 3 67 2 68 12 66 12 66 2 68 13 69 13 69 2 68 16 70 16 70 2 68 20 71 20 71 2 68 19 72 19 72 2 68 18 73 9 81 21 82 10 83 38 90 37 91 29 92 38 90 29 92 28 93 32 103 33 104 26 105 32 103 26 105 25 106 39 107 32 108 25 109 39 107 25 109 24 110 34 111 15 112 14 113 6 114 5 115 11 116 6 114 11 116 12 117 4 118 0 119 3 120 4 118 3 120 17 121 8 122 7 123 13 124 8 122 13 124 16 125 23 126 18 127 15 128 23 126 15 128 34 129 23 126 34 129 35 130 33 131 40 132 27 133 33 131 27 133 26 134 35 135 39 136 24 137 35 135 24 137 23 138 21 139 9 140 8 141 21 139 8 141 16 142 21 139 16 142 20 143 37 144 36 145 30 146 37 144 30 146 29 147 5 148 4 149 17 150 5 148 17 150 11 151</p>
                </triangles>
                <triangles count="20" material="default_ai_0.2_sh_0.2_tr_0.0_dc_r_1.0_g_0.2_b_0.2_sc_r_1.0_g_1.0_b_1.0_ec_r_0.0_g_0.0_b_0_tri">
                    <input offset="0" semantic="VERTEX" source="#geometry0-vertex"/>
                    <input offset="1" semantic="NORMAL" source="#geometry0-normal"/>
                    <p>37 26 38 27 22 28 37 26 22 28 21 29 37 26 21 29 9 30 37 26 9 30 36 31 9 74 10 75 4 76 8 77 9 74 4 76 6 78 7 79 8 77 6 78 8 77 4 76 6 78 4 76 5 80 0 84 4 85 10 86 0 84 10 86 14 87 0 84 14 87 15 88 0 84 15 88 1 89 14 94 22 95 38 96 14 94 38 96 40 97 14 94 40 97 33 98 14 94 33 98 32 99 14 94 32 99 39 100 34 101 14 94 39 100 34 101 39 100 35 102</p>
                </triangles>
            </mesh>
        </geometry>
    </library_geometries>
    <library_visual_scenes>
        <visual_scene id="Building_DEBW_5221000QbCL">
            <node>
                <instance_geometry url="#geometry0">
                    <bind_material>
                        <technique_common>
                            <instance_material symbol="default_ai_0.2_sh_0.2_tr_0.0_dc_r_0.8_g_0.8_b_0.8_sc_r_1.0_g_1.0_b_1.0_ec_r_0.0_g_0.0_b_0_tri" target="#default_ai_0.2_sh_0.2_tr_0.0_dc_r_0.8_g_0.8_b_0.8_sc_r_1.0_g_1.0_b_1.0_ec_r_0.0_g_0.0_b_0_mat"/>
                            <instance_material symbol="default_ai_0.2_sh_0.2_tr_0.0_dc_r_1.0_g_0.2_b_0.2_sc_r_1.0_g_1.0_b_1.0_ec_r_0.0_g_0.0_b_0_tri" target="#default_ai_0.2_sh_0.2_tr_0.0_dc_r_1.0_g_0.2_b_0.2_sc_r_1.0_g_1.0_b_1.0_ec_r_0.0_g_0.0_b_0_mat"/>
                        </technique_common>
                    </bind_material>
                </instance_geometry>
            </node>
        </visual_scene>
    </library_visual_scenes>
    <scene>
        <instance_visual_scene url="#Building_DEBW_5221000QbCL"/>
    </scene>
</COLLADA>
