<?xml version="1.0" encoding="UTF-8" standalone="yes"?>
<COLLADA xmlns="http://www.collada.org/2005/11/COLLADASchema" version="1.4.1">
    <asset>
        <contributor>
            <authoring_tool>3D City Database Importer/Exporter, version 5.5.3; Chair of Geoinformatics, Technical University of Munich</authoring_tool>
        </contributor>
        <created>2026-05-06T15:12:07.254</created>
        <modified>2026-05-06T15:12:07.254</modified>
        <unit meter="1.0" name="meters"/>
        <up_axis>Z_UP</up_axis>
    </asset>
    <library_materials>
        <material id="default_ai_0.2_sh_0.2_tr_0.0_dc_r_0.8_g_0.8_b_0.8_sc_r_1.0_g_1.0_b_1.0_ec_r_0.0_g_0.0_b_0_mat">
            <instance_effect url="#default_ai_0.2_sh_0.2_tr_0.0_dc_r_0.8_g_0.8_b_0.8_sc_r_1.0_g_1.0_b_1.0_ec_r_0.0_g_0.0_b_0_eff"/>
        </material>
        <material id="default_ai_0.2_sh_0.2_tr_0.0_dc_r_1.0_g_0.2_b_0.2_sc_r_1.0_g_1.0_b_1.0_ec_r_0.0_g_0.0_b_0_mat">
            <instance_effect url="#default_ai_0.2_sh_0.2_tr_0.0_dc_r_1.0_g_0.2_b_0.2_sc_r_1.0_g_1.0_b_1.0_ec_r_0.0_g_0.0_b_0_eff"/>
        </material>
    </library_materials>
    <library_effects>
        <effect id="default_ai_0.2_sh_0.2_tr_0.0_dc_r_0.8_g_0.8_b_0.8_sc_r_1.0_g_1.0_b_1.0_ec_r_0.0_g_0.0_b_0_eff">
            <profile_COMMON>
                <technique sid="COMMON">
                    <lambert>
                        <emission>
                            <color>0.0 0.0 0.0 1.0</color>
                        </emission>
                        <diffuse>
                            <color>0.8 0.8 0.8 1.0</color>
                        </diffuse>
                        <reflective>
                            <color>1.0 1.0 1.0 1.0</color>
                        </reflective>
                        <reflectivity>
                            <float>0.2</float>
                        </reflectivity>
                        <transparent opaque="A_ONE">
                            <color>1.0 1.0 1.0 1.0</color>
                        </transparent>
                        <transparency>
                            <float>1.0</float>
                        </transparency>
                    </lambert>
                </technique>
                <extra>
                    <technique profile="GOOGLEEARTH">
                        <double_sided>0</double_sided>
                    </technique>
                </extra>
            </profile_COMMON>
        </effect>
        <effect id="default_ai_0.2_sh_0.2_tr_0.0_dc_r_1.0_g_0.2_b_0.2_sc_r_1.0_g_1.0_b_1.0_ec_r_0.0_g_0.0_b_0_eff">
            <profile_COMMON>
                <technique sid="COMMON">
                    <lambert>
                        <emission>
                            <color>0.0 0.0 0.0 1.0</color>
                        </emission>
                        <diffuse>
                            <color>1.0 0.2 0.2 1.0</color>
                        </diffuse>
                        <reflective>
                            <color>1.0 1.0 1.0 1.0</color>
                        </reflective>
                        <reflectivity>
                            <float>0.2</float>
                        </reflectivity>
                        <transparent opaque="A_ONE">
                            <color>1.0 1.0 1.0 1.0</color>
                        </transparent>
                        <transparency>
                            <float>1.0</float>
                        </transparency>
                    </lambert>
                </technique>
                <extra>
                    <technique profile="GOOGLEEARTH">
                        <double_sided>0</double_sided>
                    </technique>
                </extra>
            </profile_COMMON>
        </effect>
    </library_effects>
    <library_geometries>
        <geometry id="geometry0">
            <mesh>
                <source id="geometry0-position">
                    <float_array id="geometry0-position-array" count="72">6.963 -4.432 8.908 8.56 -3.91 8.019 8.4 -3.43 8.02 11.72 -2.32 6.168 9.87 3.21 6.184 8.68 2.83 6.844 4.972 1.621 8.908 -0.31 -0.1 5.965 0.0 0.0 6.137 0.0 0.0 0.0 -0.31 -0.1 0.0 8.68 2.83 0.0 4.972 1.621 0.0 11.72 -2.32 0.0 8.4 -3.43 0.0 8.56 -3.91 0.0 6.963 -4.432 0.0 4.46 -5.25 0.0 4.3 -4.76 0.0 1.49 -5.67 0.0 9.87 3.21 0.0 1.49 -5.67 5.949 4.3 -4.76 7.514 4.46 -5.25 7.513</float_array>
                    <technique_common>
                        <accessor count="24" source="#geometry0-position-array" stride="3">
                            <param name="X" type="float"/>
                            <param name="Y" type="float"/>
                            <param name="Z" type="float"/>
                        </accessor>
                    </technique_common>
                </source>
                <source id="geometry0-normal">
                    <float_array id="geometry0-normal-array" count="222">0.9483397 0.3172566 0.0 0.9483397 0.3172566 0.0 0.9483397 0.3172566 0.0 0.9483397 0.3172566 0.0 0.4439807 0.146281 0.8840153 0.4443329 0.1461534 0.8838594 0.4441423 0.1462039 0.8839469 0.4440815 0.1461615 0.8839844 0.4442842 0.1461044 0.883892 0.4442446 0.1460597 0.8839193 0.4442364 0.1462373 0.883894 0.0 0.0 -1.0 0.0 0.0 -1.0 0.0 0.0 -1.0 0.0 0.0 -1.0 0.0 0.0 -1.0 0.0 0.0 -1.0 0.0 0.0 -1.0 0.0 0.0 -1.0 0.0 0.0 -1.0 0.0 0.0 -1.0 0.0 0.0 -1.0 0.0 0.0 -1.0 -0.3070028 0.9517086 0.0 -0.3070028 0.9517086 0.0 -0.3070028 0.9517086 0.0 -0.3070028 0.9517086 0.0 0.3106871 -0.9505122 0.0 0.3106871 -0.9505122 0.0 0.3106871 -0.9505122 0.0 0.3106871 -0.9505122 0.0 0.3106399 -0.9505277 0.0 0.3106399 -0.9505277 0.0 0.3106399 -0.9505277 0.0 0.3106399 -0.9505277 0.0 -0.3099903 0.9507397 0.0 -0.3099903 0.9507397 0.0 -0.3099903 0.9507397 0.0 -0.3099903 0.9507397 0.0 0.3080906 -0.951357 0.0 0.3080906 -0.951357 0.0 0.3080906 -0.951357 0.0 0.3080906 -0.951357 0.0 0.3170846 -0.9483973 0.0 0.3170846 -0.9483973 0.0 0.3170846 -0.9483973 0.0 0.3170846 -0.9483973 0.0 -0.9506055 -0.3104016 0.0 -0.9506055 -0.3104016 0.0 -0.9506055 -0.3104016 0.0 -0.9506055 -0.3104016 0.0 -0.3041949 0.9526098 0.0 -0.3041949 0.9526098 0.0 -0.3041949 0.9526098 0.0 -0.3041949 0.9526098 0.0 -0.309968 0.9507471 0.0 -0.309968 0.9507471 0.0 -0.309968 0.9507471 0.0 -0.309968 0.9507471 0.0 -0.9515475 -0.3075019 0.0 -0.9515475 -0.3075019 0.0 -0.9515475 -0.3075019 0.0 -0.9515475 -0.3075019 0.0 0.9486829 0.3162292 0.0 0.9486828 0.3162292 0.0 0.9486829 0.3162292 0.0 0.9486829 0.3162292 0.0 -0.4439467 -0.1463975 0.8840131 -0.4446893 -0.1462706 0.8836607 -0.4442301 -0.1463296 0.8838819 -0.4441457 -0.1460264 0.8839745 -0.4443098 -0.1456574 0.8839529 -0.4442909 -0.1456938 0.8839564 -0.444759 -0.1462665 0.8836264</float_array>
                    <technique_common>
                        <accessor count="74" source="#geometry0-normal-array" stride="3">
                            <param name="X" type="float"/>
                            <param name="Y" type="float"/>
                            <param name="Z" type="float"/>
                        </accessor>
                    </technique_common>
                </source>
                <vertices id="geometry0-vertex">
                    <input semantic="POSITION" source="#geometry0-position"/>
                </vertices>
                <triangles count="34" material="default_ai_0.2_sh_0.2_tr_0.0_dc_r_0.8_g_0.8_b_0.8_sc_r_1.0_g_1.0_b_1.0_ec_r_0.0_g_0.0_b_0_tri">
                    <input offset="0" semantic="VERTEX" source="#geometry0-vertex"/>
                    <input offset="1" semantic="NORMAL" source="#geometry0-normal"/>
                    <p>4 0 3 1 13 2 4 0 13 2 20 3 11 11 20 12 13 13 11 11 13 13 14 14 12 15 11 11 14 14 12 15 14 14 15 16 12 15 15 16 16 17 12 15 16 17 17 18 12 15 17 18 18 19 12 15 18 19 19 20 9 21 12 15 19 20 9 21 19 20 10 22 7 23 8 24 9 25 7 23 9 25 10 26 1 27 0 28 16 29 1 27 16 29 15 30 0 31 23 32 17 33 0 31 17 33 16 34 6 35 5 36 11 37 6 35 11 37 12 38 22 39 21 40 19 41 22 39 19 41 18 42 3 43 2 44 14 45 3 43 14 45 13 46 23 47 22 48 18 49 23 47 18 49 17 50 5 51 4 52 20 53 5 51 20 53 11 54 8 55 6 56 12 57 8 55 12 57 9 58 21 59 7 60 10 61 21 59 10 61 19 62 2 63 1 64 15 65 2 63 15 65 14 66</p>
                </triangles>
                <triangles count="10" material="default_ai_0.2_sh_0.2_tr_0.0_dc_r_1.0_g_0.2_b_0.2_sc_r_1.0_g_1.0_b_1.0_ec_r_0.0_g_0.0_b_0_tri">
                    <input offset="0" semantic="VERTEX" source="#geometry0-vertex"/>
                    <input offset="1" semantic="NORMAL" source="#geometry0-normal"/>
                    <p>5 4 6 5 0 6 4 7 5 4 0 6 2 8 3 9 4 7 2 8 4 7 0 6 2 8 0 6 1 10 23 67 0 68 6 69 22 70 23 67 6 69 22 70 6 69 8 71 22 70 8 71 7 72 22 70 7 72 21 73</p>
                </triangles>
            </mesh>
        </geometry>
    </library_geometries>
    <library_visual_scenes>
        <visual_scene id="Building_DEBW_5221000QhYO">
            <node>
                <instance_geometry url="#geometry0">
                    <bind_material>
                        <technique_common>
                            <instance_material symbol="default_ai_0.2_sh_0.2_tr_0.0_dc_r_0.8_g_0.8_b_0.8_sc_r_1.0_g_1.0_b_1.0_ec_r_0.0_g_0.0_b_0_tri" target="#default_ai_0.2_sh_0.2_tr_0.0_dc_r_0.8_g_0.8_b_0.8_sc_r_1.0_g_1.0_b_1.0_ec_r_0.0_g_0.0_b_0_mat"/>
                            <instance_material symbol="default_ai_0.2_sh_0.2_tr_0.0_dc_r_1.0_g_0.2_b_0.2_sc_r_1.0_g_1.0_b_1.0_ec_r_0.0_g_0.0_b_0_tri" target="#default_ai_0.2_sh_0.2_tr_0.0_dc_r_1.0_g_0.2_b_0.2_sc_r_1.0_g_1.0_b_1.0_ec_r_0.0_g_0.0_b_0_mat"/>
                        </technique_common>
                    </bind_material>
                </instance_geometry>
            </node>
        </visual_scene>
    </library_visual_scenes>
    <scene>
        <instance_visual_scene url="#Building_DEBW_5221000QhYO"/>
    </scene>
</COLLADA>
