<?xml version="1.0" encoding="UTF-8" standalone="yes"?>
<COLLADA xmlns="http://www.collada.org/2005/11/COLLADASchema" version="1.4.1">
    <asset>
        <contributor>
            <authoring_tool>3D City Database Importer/Exporter, version 5.5.3; Chair of Geoinformatics, Technical University of Munich</authoring_tool>
        </contributor>
        <created>2026-05-06T15:12:16.061</created>
        <modified>2026-05-06T15:12:16.061</modified>
        <unit meter="1.0" name="meters"/>
        <up_axis>Z_UP</up_axis>
    </asset>
    <library_materials>
        <material id="default_ai_0.2_sh_0.2_tr_0.0_dc_r_0.8_g_0.8_b_0.8_sc_r_1.0_g_1.0_b_1.0_ec_r_0.0_g_0.0_b_0_mat">
            <instance_effect url="#default_ai_0.2_sh_0.2_tr_0.0_dc_r_0.8_g_0.8_b_0.8_sc_r_1.0_g_1.0_b_1.0_ec_r_0.0_g_0.0_b_0_eff"/>
        </material>
        <material id="default_ai_0.2_sh_0.2_tr_0.0_dc_r_1.0_g_0.2_b_0.2_sc_r_1.0_g_1.0_b_1.0_ec_r_0.0_g_0.0_b_0_mat">
            <instance_effect url="#default_ai_0.2_sh_0.2_tr_0.0_dc_r_1.0_g_0.2_b_0.2_sc_r_1.0_g_1.0_b_1.0_ec_r_0.0_g_0.0_b_0_eff"/>
        </material>
    </library_materials>
    <library_effects>
        <effect id="default_ai_0.2_sh_0.2_tr_0.0_dc_r_0.8_g_0.8_b_0.8_sc_r_1.0_g_1.0_b_1.0_ec_r_0.0_g_0.0_b_0_eff">
            <profile_COMMON>
                <technique sid="COMMON">
                    <lambert>
                        <emission>
                            <color>0.0 0.0 0.0 1.0</color>
                        </emission>
                        <diffuse>
                            <color>0.8 0.8 0.8 1.0</color>
                        </diffuse>
                        <reflective>
                            <color>1.0 1.0 1.0 1.0</color>
                        </reflective>
                        <reflectivity>
                            <float>0.2</float>
                        </reflectivity>
                        <transparent opaque="A_ONE">
                            <color>1.0 1.0 1.0 1.0</color>
                        </transparent>
                        <transparency>
                            <float>1.0</float>
                        </transparency>
                    </lambert>
                </technique>
                <extra>
                    <technique profile="GOOGLEEARTH">
                        <double_sided>0</double_sided>
                    </technique>
                </extra>
            </profile_COMMON>
        </effect>
        <effect id="default_ai_0.2_sh_0.2_tr_0.0_dc_r_1.0_g_0.2_b_0.2_sc_r_1.0_g_1.0_b_1.0_ec_r_0.0_g_0.0_b_0_eff">
            <profile_COMMON>
                <technique sid="COMMON">
                    <lambert>
                        <emission>
                            <color>0.0 0.0 0.0 1.0</color>
                        </emission>
                        <diffuse>
                            <color>1.0 0.2 0.2 1.0</color>
                        </diffuse>
                        <reflective>
                            <color>1.0 1.0 1.0 1.0</color>
                        </reflective>
                        <reflectivity>
                            <float>0.2</float>
                        </reflectivity>
                        <transparent opaque="A_ONE">
                            <color>1.0 1.0 1.0 1.0</color>
                        </transparent>
                        <transparency>
                            <float>1.0</float>
                        </transparency>
                    </lambert>
                </technique>
                <extra>
                    <technique profile="GOOGLEEARTH">
                        <double_sided>0</double_sided>
                    </technique>
                </extra>
            </profile_COMMON>
        </effect>
    </library_effects>
    <library_geometries>
        <geometry id="geometry0">
            <mesh>
                <source id="geometry0-position">
                    <float_array id="geometry0-position-array" count="84">-3.06 2.92 8.003 0.0 0.0 11.541 0.0 0.0 0.0 -3.06 2.92 0.0 -7.791 -9.193 12.165 -11.4 -5.74 7.987 -11.4 -5.74 0.0 -7.791 -9.193 0.0 0.623 -0.428 12.165 4.4 -4.03 7.772 4.4 -4.03 0.0 0.623 -0.428 0.0 4.23 -4.21 7.771 4.23 -4.21 0.0 0.08 0.09 11.537 -0.96 -9.34 7.932 -3.89 -12.41 7.922 -3.89 -12.41 0.0 -0.96 -9.34 0.0 -6.67 -10.08 10.967 -6.76 -10.18 10.964 -6.76 -10.18 0.0 -6.67 -10.08 0.0 0.08 0.09 0.0 -0.81 -9.49 7.753 -0.81 -9.49 0.0 -4.06 -12.58 0.0 -4.06 -12.58 7.926</float_array>
                    <technique_common>
                        <accessor count="28" source="#geometry0-position-array" stride="3">
                            <param name="X" type="float"/>
                            <param name="Y" type="float"/>
                            <param name="Z" type="float"/>
                        </accessor>
                    </technique_common>
                </source>
                <source id="geometry0-normal">
                    <float_array id="geometry0-normal-array" count="258">0.6903633 0.7234629 0.0 0.6903633 0.7234629 0.0 0.6903633 0.7234629 0.0 0.6903633 0.7234629 0.0 0.7270126 -0.6866241 0.0 0.7270127 -0.6866241 0.0 0.7270126 -0.6866241 0.0 0.7270127 -0.6866241 0.0 0.7071072 -0.7071063 0.0 0.7071072 -0.7071064 0.0 0.7071072 -0.7071063 0.0 0.7071073 -0.7071063 0.0 0.6902539 0.7235673 0.0 0.6902539 0.7235673 0.0 0.6902539 0.7235673 0.0 0.6902539 0.7235673 0.0 -0.6913182 -0.7225505 0.0 -0.6913181 -0.7225505 0.0 -0.6913182 -0.7225505 0.0 -0.6913182 -0.7225505 0.0 0.7432949 -0.668964 0.0 0.7432949 -0.668964 0.0 0.7432949 -0.668964 0.0 0.7432948 -0.668964 0.0 0.7233555 -0.6904758 0.0 0.7233555 -0.6904758 0.0 0.7233555 -0.6904758 0.0 0.7233555 -0.6904758 0.0 0.690143 0.723673 0.0 0.690143 0.723673 0.0 0.690143 0.723673 0.0 0.690143 0.723673 0.0 -0.4628603 0.444358 0.7670113 -0.462855 0.4443197 0.7670367 -0.4626969 0.4446068 0.7669656 -0.4626953 0.4446102 0.7669647 -0.4628501 0.44433 0.7670336 -0.46236 0.4450765 0.7668965 -0.691725 -0.7221609 0.0 -0.691725 -0.7221609 0.0 -0.691725 -0.7221609 0.0 -0.691725 -0.7221609 0.0 -0.707106 -0.7071076 0.0 -0.707106 -0.7071076 0.0 -0.707106 -0.7071076 0.0 -0.7071059 -0.7071076 0.0 0.0 0.0 -1.0 0.0 0.0 -1.0 0.0 0.0 -1.0 0.0 0.0 -1.0 0.0 0.0 -1.0 0.0 0.0 -1.0 0.0 0.0 -1.0 0.0 0.0 -1.0 0.0 0.0 -1.0 0.0 0.0 -1.0 0.0 0.0 -1.0 0.0 0.0 -1.0 0.0 0.0 -1.0 0.0 0.0 -1.0 -0.7474093 0.6643638 0.0 -0.7474093 0.6643638 0.0 -0.7474093 0.6643638 0.0 -0.7474093 0.6643638 0.0 -0.7202894 0.6936736 0.0 -0.7202894 0.6936737 0.0 -0.7202894 0.6936736 0.0 -0.7202894 0.6936736 0.0 -0.6915252 -0.7223524 0.0 -0.6915252 -0.7223524 0.0 -0.6915252 -0.7223524 0.0 -0.6915252 -0.7223524 0.0 0.723409 -0.6904197 0.0 0.723409 -0.6904197 0.0 0.723409 -0.6904197 0.0 0.723409 -0.6904197 0.0 0.4642424 -0.4441859 0.7662755 0.464552 -0.4459488 0.7650627 0.4648841 -0.4447573 0.7655546 0.4645646 -0.4450209 0.7655953 0.4628491 -0.4444049 0.7669909 0.4652457 -0.4467034 0.7642006 0.4600172 -0.4415665 0.7703267 0.4555193 -0.4372725 0.7754321 0.4653021 -0.4451037 0.7650991 0.4669883 -0.4432443 0.7651512</float_array>
                    <technique_common>
                        <accessor count="86" source="#geometry0-normal-array" stride="3">
                            <param name="X" type="float"/>
                            <param name="Y" type="float"/>
                            <param name="Z" type="float"/>
                        </accessor>
                    </technique_common>
                </source>
                <vertices id="geometry0-vertex">
                    <input semantic="POSITION" source="#geometry0-position"/>
                </vertices>
                <triangles count="40" material="default_ai_0.2_sh_0.2_tr_0.0_dc_r_0.8_g_0.8_b_0.8_sc_r_1.0_g_1.0_b_1.0_ec_r_0.0_g_0.0_b_0_tri">
                    <input offset="0" semantic="VERTEX" source="#geometry0-vertex"/>
                    <input offset="1" semantic="NORMAL" source="#geometry0-normal"/>
                    <p>0 0 1 1 2 2 0 0 2 2 3 3 9 4 12 5 13 6 9 4 13 6 10 7 16 8 27 9 26 10 16 8 26 10 17 11 14 12 8 13 11 14 14 12 11 14 23 15 4 16 5 17 6 18 4 16 6 18 7 19 19 20 20 21 21 22 19 20 21 22 22 23 12 24 24 25 25 26 12 24 25 26 13 27 8 28 9 29 10 30 8 28 10 30 11 31 27 38 19 39 22 40 27 38 22 40 26 41 24 42 15 43 18 44 24 42 18 44 25 45 23 46 11 47 2 48 11 47 10 49 2 48 10 49 13 50 2 48 2 48 13 50 3 51 3 51 13 50 6 52 6 52 13 50 7 53 25 54 18 55 13 50 13 50 18 55 7 53 17 56 26 57 18 55 26 57 22 58 18 55 18 55 22 58 7 53 7 53 22 58 21 59 1 60 14 61 23 62 1 60 23 62 2 63 5 64 0 65 3 66 5 64 3 66 6 67 20 68 4 69 7 70 20 68 7 70 21 71 15 72 16 73 17 74 15 72 17 74 18 75</p>
                </triangles>
                <triangles count="12" material="default_ai_0.2_sh_0.2_tr_0.0_dc_r_1.0_g_0.2_b_0.2_sc_r_1.0_g_1.0_b_1.0_ec_r_0.0_g_0.0_b_0_tri">
                    <input offset="0" semantic="VERTEX" source="#geometry0-vertex"/>
                    <input offset="1" semantic="NORMAL" source="#geometry0-normal"/>
                    <p>5 32 4 33 8 34 1 35 0 36 5 32 1 35 5 32 8 34 1 35 8 34 14 37 9 76 8 77 4 78 12 79 9 76 4 78 15 80 24 81 12 79 15 80 12 79 4 78 27 82 16 83 15 80 19 84 27 82 15 80 19 84 15 80 4 78 19 84 4 78 20 85</p>
                </triangles>
            </mesh>
        </geometry>
    </library_geometries>
    <library_visual_scenes>
        <visual_scene id="Building_DEBW_5221000QZEb">
            <node>
                <instance_geometry url="#geometry0">
                    <bind_material>
                        <technique_common>
                            <instance_material symbol="default_ai_0.2_sh_0.2_tr_0.0_dc_r_0.8_g_0.8_b_0.8_sc_r_1.0_g_1.0_b_1.0_ec_r_0.0_g_0.0_b_0_tri" target="#default_ai_0.2_sh_0.2_tr_0.0_dc_r_0.8_g_0.8_b_0.8_sc_r_1.0_g_1.0_b_1.0_ec_r_0.0_g_0.0_b_0_mat"/>
                            <instance_material symbol="default_ai_0.2_sh_0.2_tr_0.0_dc_r_1.0_g_0.2_b_0.2_sc_r_1.0_g_1.0_b_1.0_ec_r_0.0_g_0.0_b_0_tri" target="#default_ai_0.2_sh_0.2_tr_0.0_dc_r_1.0_g_0.2_b_0.2_sc_r_1.0_g_1.0_b_1.0_ec_r_0.0_g_0.0_b_0_mat"/>
                        </technique_common>
                    </bind_material>
                </instance_geometry>
            </node>
        </visual_scene>
    </library_visual_scenes>
    <scene>
        <instance_visual_scene url="#Building_DEBW_5221000QZEb"/>
    </scene>
</COLLADA>
