<?xml version="1.0" encoding="UTF-8" standalone="yes"?>
<COLLADA xmlns="http://www.collada.org/2005/11/COLLADASchema" version="1.4.1">
    <asset>
        <contributor>
            <authoring_tool>3D City Database Importer/Exporter, version 5.5.3; Chair of Geoinformatics, Technical University of Munich</authoring_tool>
        </contributor>
        <created>2026-05-06T15:12:08.349</created>
        <modified>2026-05-06T15:12:08.349</modified>
        <unit meter="1.0" name="meters"/>
        <up_axis>Z_UP</up_axis>
    </asset>
    <library_materials>
        <material id="default_ai_0.2_sh_0.2_tr_0.0_dc_r_0.8_g_0.8_b_0.8_sc_r_1.0_g_1.0_b_1.0_ec_r_0.0_g_0.0_b_0_mat">
            <instance_effect url="#default_ai_0.2_sh_0.2_tr_0.0_dc_r_0.8_g_0.8_b_0.8_sc_r_1.0_g_1.0_b_1.0_ec_r_0.0_g_0.0_b_0_eff"/>
        </material>
        <material id="default_ai_0.2_sh_0.2_tr_0.0_dc_r_1.0_g_0.2_b_0.2_sc_r_1.0_g_1.0_b_1.0_ec_r_0.0_g_0.0_b_0_mat">
            <instance_effect url="#default_ai_0.2_sh_0.2_tr_0.0_dc_r_1.0_g_0.2_b_0.2_sc_r_1.0_g_1.0_b_1.0_ec_r_0.0_g_0.0_b_0_eff"/>
        </material>
    </library_materials>
    <library_effects>
        <effect id="default_ai_0.2_sh_0.2_tr_0.0_dc_r_0.8_g_0.8_b_0.8_sc_r_1.0_g_1.0_b_1.0_ec_r_0.0_g_0.0_b_0_eff">
            <profile_COMMON>
                <technique sid="COMMON">
                    <lambert>
                        <emission>
                            <color>0.0 0.0 0.0 1.0</color>
                        </emission>
                        <diffuse>
                            <color>0.8 0.8 0.8 1.0</color>
                        </diffuse>
                        <reflective>
                            <color>1.0 1.0 1.0 1.0</color>
                        </reflective>
                        <reflectivity>
                            <float>0.2</float>
                        </reflectivity>
                        <transparent opaque="A_ONE">
                            <color>1.0 1.0 1.0 1.0</color>
                        </transparent>
                        <transparency>
                            <float>1.0</float>
                        </transparency>
                    </lambert>
                </technique>
                <extra>
                    <technique profile="GOOGLEEARTH">
                        <double_sided>0</double_sided>
                    </technique>
                </extra>
            </profile_COMMON>
        </effect>
        <effect id="default_ai_0.2_sh_0.2_tr_0.0_dc_r_1.0_g_0.2_b_0.2_sc_r_1.0_g_1.0_b_1.0_ec_r_0.0_g_0.0_b_0_eff">
            <profile_COMMON>
                <technique sid="COMMON">
                    <lambert>
                        <emission>
                            <color>0.0 0.0 0.0 1.0</color>
                        </emission>
                        <diffuse>
                            <color>1.0 0.2 0.2 1.0</color>
                        </diffuse>
                        <reflective>
                            <color>1.0 1.0 1.0 1.0</color>
                        </reflective>
                        <reflectivity>
                            <float>0.2</float>
                        </reflectivity>
                        <transparent opaque="A_ONE">
                            <color>1.0 1.0 1.0 1.0</color>
                        </transparent>
                        <transparency>
                            <float>1.0</float>
                        </transparency>
                    </lambert>
                </technique>
                <extra>
                    <technique profile="GOOGLEEARTH">
                        <double_sided>0</double_sided>
                    </technique>
                </extra>
            </profile_COMMON>
        </effect>
    </library_effects>
    <library_geometries>
        <geometry id="geometry0">
            <mesh>
                <source id="geometry0-position">
                    <float_array id="geometry0-position-array" count="453">0.0 0.0 0.0 -0.27 -4.13 0.0 -8.99 -3.55 0.0 -8.826 0.465 0.0 -0.27 -4.13 20.474 -8.99 -3.55 20.474 0.0 0.0 20.474 0.0 0.0 20.417 -8.826 0.465 20.474 -8.826 0.465 20.417 -3.482 12.388 26.219 -4.74 12.5 25.983 -7.091 12.656 25.543 -9.533 12.818 25.086 -10.31 3.99 25.079 -10.56 1.15 25.076 -8.8 1.09 25.404 -4.436 0.941 26.219 1.18 3.21 18.54 1.007 0.756 18.495 1.007 0.756 0.0 1.18 3.21 0.0 -10.56 1.15 0.0 -8.8 1.09 0.0 -8.8 1.09 20.417 -10.31 3.99 0.0 1.78 10.64 18.567 1.789 10.639 18.554 1.789 10.639 0.0 1.78 10.64 0.0 1.9 12.06 18.564 1.9 12.06 0.0 -0.347 0.802 20.417 1.206 3.208 18.503 -1.14 12.3 22.894 -1.15 12.18 22.894 -1.14 12.3 0.0 -9.533 12.818 0.0 -4.74 12.5 0.0 -3.482 12.388 0.0 -1.15 12.18 0.0 1.206 3.208 0.0 -4.436 0.941 0.0 -4.74 12.5 25.543 -4.436 0.941 20.417 -12.815 26.166 22.944 -12.879 25.371 22.077 -6.72 25.06 22.077 -6.63 25.8 22.887 -12.75 26.96 22.077 -12.75 26.96 0.0 -12.879 25.371 0.0 -6.54 26.54 22.077 -6.72 25.06 0.0 -6.54 26.54 0.0 -16.64 12.11 20.419 -16.44 13.86 20.419 -16.44 13.86 0.0 -16.64 12.11 0.0 -17.519 4.42 0.0 -13.9 13.66 0.0 -13.895 13.66 0.0 -13.945 13.11 0.0 -13.943 13.11 0.0 -14.713 4.253 0.0 -13.9 13.66 20.419 -14.713 4.253 20.419 -13.943 13.11 20.419 -13.945 13.11 20.419 -13.895 13.66 20.419 -17.519 4.42 20.419 -16.142 4.338 20.419 -14.713 4.253 20.089 -13.151 22.29 0.0 -13.778 14.957 0.0 -13.778 14.956 0.0 -13.78 14.93 0.0 -14.88 15.03 0.0 -14.43 22.32 0.0 -13.78 14.93 21.889 -14.88 15.03 23.036 -14.43 22.32 23.036 -13.151 22.29 21.708 -13.778 14.957 21.888 -13.778 14.956 21.888 -10.31 3.99 25.391 -11.65 4.07 25.391 -11.65 4.07 19.382 -11.65 4.07 0.0 -9.533 12.818 25.391 -13.943 13.11 25.391 -14.713 4.253 25.391 -14.713 4.253 21.441 -14.412 4.235 21.517 -17.637 3.386 20.734 -11.75 2.99 19.374 -14.521 3.177 21.517 -11.75 2.99 0.0 -17.637 3.386 0.0 -17.637 3.386 20.427 -17.519 4.42 20.737 -17.519 4.42 20.427 -16.64 12.11 20.427 -19.909 12.34 20.427 -20.25 7.37 20.427 -20.51 3.58 20.427 -19.909 12.34 0.0 -20.25 7.37 0.0 -20.51 3.58 0.0 -20.25 7.37 20.46 -21.74 7.5 20.46 -21.74 7.5 0.0 -21.33 12.44 20.46 -21.33 12.44 0.0 -19.909 12.34 20.46 -4.61 14.37 25.543 -4.61 14.37 0.0 -4.61 14.37 22.097 -13.943 13.11 25.543 -13.945 13.11 25.543 -13.895 13.66 25.543 -13.9 13.66 25.543 -13.785 14.93 0.0 -13.783 14.957 0.0 -13.78 14.93 25.543 -13.785 14.93 25.543 -13.783 14.957 25.543 -13.778 14.957 22.097 0.95 -0.05 20.417 1.007 0.756 20.417 0.95 -0.05 0.0 -13.13 22.29 22.097 -12.879 25.371 22.097 -13.13 22.29 0.0 -2.89 14.26 22.097 -2.89 14.26 0.0 -2.17 24.83 0.0 -2.17 24.83 22.097 -13.778 14.956 22.097 -6.72 25.06 22.097 -13.151 22.29 22.097 5.62 10.39 20.433 5.33 6.27 20.433 5.33 6.27 0.0 5.62 10.39 0.0 2.38 6.41 20.433 2.38 6.41 0.0 2.19 3.15 20.433 2.19 3.15 0.0 1.789 10.639 20.433 1.206 3.208 20.433</float_array>
                    <technique_common>
                        <accessor count="151" source="#geometry0-position-array" stride="3">
                            <param name="X" type="float"/>
                            <param name="Y" type="float"/>
                            <param name="Z" type="float"/>
                        </accessor>
                    </technique_common>
                </source>
                <source id="geometry0-normal">
                    <float_array id="geometry0-normal-array" count="2016">0.0 1.0 0.0 0.0 1.0 0.0 0.0 1.0 0.0 0.0 1.0 0.0 0.0 -1.0 0.0 0.0 -1.0 0.0 0.0 -1.0 0.0 0.0 -1.0 0.0 0.0 -1.0 0.0 0.0 -1.0 0.0 0.0 0.0 1.0 0.0 0.0 1.0 0.0 0.0 1.0 0.0 0.0 1.0 0.0 0.0 1.0 0.0 0.0 1.0 0.0 0.0 -1.0 0.0 0.0 -1.0 0.0 0.0 -1.0 0.0 0.0 -1.0 0.0 0.0 -1.0 0.0 0.0 -1.0 -0.9962423 0.0866103 0.0 -0.9962422 0.0866103 0.0 -0.9962423 0.0866103 0.0 -0.9962423 0.0866103 0.0 -0.9962422 0.0866103 0.0 -0.9981002 0.0616111 0.0 -0.9981002 0.0616111 0.0 -0.9981002 0.0616111 0.0 -0.9981002 0.0616111 0.0 -0.0663671 -0.9977952 0.0 -0.0663671 -0.9977952 0.0 -0.0663671 -0.9977952 0.0 -0.0663671 -0.9977952 0.0 -0.067023 -0.9977513 4.007E-4 -0.067023 -0.9977513 4.007E-4 -0.067023 -0.9977513 4.007E-4 0.0662092 0.9978058 0.0 0.0662092 0.9978058 0.0 0.0662092 0.9978058 0.0 0.0 0.0 1.0 0.0 0.0 1.0 0.0 0.0 1.0 0.0 0.0 1.0 -0.0905352 -0.9958932 0.0 -0.0905352 -0.9958932 0.0 -0.0905352 -0.9958932 0.0 -0.0905352 -0.9958932 0.0 0.0648591 0.9978945 0.0 0.0648591 0.9978945 0.0 0.0648591 0.9978945 0.0 0.0648591 0.9978945 0.0 0.0648591 0.9978945 0.0 0.0 0.0 -1.0 0.0 0.0 -1.0 0.0 0.0 -1.0 0.0 0.0 -1.0 0.0 0.0 -1.0 0.0 0.0 -1.0 0.0 0.0 -1.0 0.0 0.0 -1.0 -0.9969365 0.0782148 0.0 -0.9969365 0.0782148 0.0 -0.9969365 0.0782148 0.0 -0.9969365 0.0782148 0.0 0.0 -1.0 0.0 0.0 -1.0 0.0 0.0 -1.0 0.0 0.0 -1.0 0.0 0.0 -1.0 0.0 0.9976545 -0.0684507 0.0 0.9976545 -0.0684507 0.0 0.9976545 -0.0684507 0.0 0.9976545 -0.0684507 0.0 0.0 0.0 -1.0 0.0 0.0 -1.0 0.0 0.0 -1.0 0.0 0.0 -1.0 -0.0661249 -0.9978111 -6.724E-4 -0.066113 -0.9978122 0.0 -0.0660907 -0.9978131 -0.0010086 -0.0661309 -0.9978105 -0.0010086 -0.0661935 -0.9978068 0.0 -0.9967209 0.0809168 0.0 -0.9967209 0.0809168 0.0 -0.9967209 0.0809168 0.0 -0.9967209 0.0809168 0.0 0.9978698 -0.065236 0.0 0.9978698 -0.065236 0.0 0.9978698 -0.065236 0.0 0.9978698 -0.065236 0.0 0.9978698 -0.065236 0.0 0.0 1.0 0.0 0.0 1.0 0.0 0.0 1.0 0.0 0.0 1.0 0.0 0.0594103 0.9982336 0.0 0.0594103 0.9982336 0.0 0.0594103 0.9982336 0.0 -0.2198637 0.0790717 -0.9723207 -0.2198637 0.0790717 -0.9723207 -0.2198637 0.0790717 -0.9723207 0.0 0.0 -1.0 0.0 0.0 -1.0 0.0 0.0 -1.0 0.0 0.0 -1.0 0.0 0.0 -1.0 -0.0588408 -0.9982674 0.0 -0.0588408 -0.9982674 0.0 -0.0588408 -0.9982674 0.0 -0.0588408 -0.9982674 0.0 -0.0588408 -0.9982674 0.0 -0.0593772 -0.9982356 0.0 -0.0593772 -0.9982356 0.0 -0.0593772 -0.9982356 0.0 0.0701845 0.997534 0.0 0.0701845 0.997534 0.0 0.0701845 0.997534 0.0 0.0701845 0.9975341 0.0 0.0701845 0.9975341 0.0 0.0504311 0.9987276 0.0 0.0504311 0.9987276 0.0 0.0504311 0.9987276 0.0 0.0504311 0.9987276 0.0 -0.0595955 -0.9982226 0.0 -0.0595955 -0.9982226 0.0 -0.0595955 -0.9982226 0.0 -0.0595955 -0.9982226 0.0 -0.0595955 -0.9982226 0.0 -0.0595955 -0.9982226 0.0 -0.0637879 -0.9979634 0.0 -0.0637879 -0.9979634 0.0 -0.0637879 -0.9979634 0.0 -0.0637879 -0.9979634 0.0 -0.9963654 0.0851815 0.0 -0.9963654 0.0851815 0.0 -0.9963654 0.0851815 0.0 -0.9963654 0.0851815 0.0 -0.0341231 -0.9994176 0.0 -0.0341231 -0.9994176 0.0 -0.0341231 -0.9994176 0.0 -0.0341231 -0.9994176 0.0 0.0 0.0 -1.0 0.0 0.0 -1.0 0.0 0.0 -1.0 0.0 0.0 -1.0 0.0 0.0 -1.0 0.0 0.0 -1.0 0.0 0.0 -1.0 0.0 0.0 -1.0 0.0 0.0 -1.0 0.0 0.0 -1.0 0.0 0.0 -1.0 0.9926851 -0.1207317 0.0 0.9926851 -0.1207317 0.0 0.9926851 -0.1207317 0.0 0.9926851 -0.1207317 0.0 0.1104749 0.9938789 0.0 0.1104749 0.9938789 0.0 0.1104749 0.9938789 0.0 0.1104749 0.9938789 0.0 0.0 0.0 -1.0 0.0 0.0 -1.0 0.0 0.0 -1.0 0.0 0.0 -1.0 0.0 0.0 -1.0 0.0 0.0 -1.0 0.9976545 -0.0684507 0.0 0.9976545 -0.0684507 0.0 0.9976545 -0.0684507 0.0 0.9976545 -0.0684507 0.0 0.0 0.0 -1.0 0.0 0.0 -1.0 0.0 0.0 -1.0 0.0 0.0 -1.0 0.0 0.0 -1.0 0.0 0.0 -1.0 0.0 0.0 1.0 0.0 0.0 1.0 0.0 0.0 1.0 0.0 0.0 1.0 0.0886798 0.9960603 0.0 0.0886798 0.9960602 0.0 0.0886798 0.9960602 0.0 0.0886798 0.9960603 0.0 0.0886798 0.9960603 0.0 0.9975319 -0.0702146 0.0 0.9975319 -0.0702146 0.0 0.9975319 -0.0702146 0.0 0.9975319 -0.0702146 0.0 0.0 0.0 -1.0 0.0 0.0 -1.0 0.0 0.0 -1.0 0.0 0.0 -1.0 0.0 0.0 -1.0 0.0 1.0 0.0 0.0 1.0 0.0 0.0 1.0 0.0 0.0 1.0 0.0 0.0 1.0 0.0 -0.1828328 0.0152095 0.9830264 -0.1830567 0.0152561 0.9829839 -0.1830531 0.0152543 0.9829847 -0.1830065 0.0152369 0.9829936 -0.1829572 0.0152202 0.9830031 -0.1826175 0.0152418 0.9830658 -0.1824882 0.0151539 0.9830912 -0.1826924 0.0150435 0.9830551 -0.0671152 -0.9977452 0.0 -0.0671152 -0.9977452 0.0 -0.0671152 -0.9977453 0.0 -0.0671152 -0.9977452 0.0 -0.0671152 -0.9977452 0.0 -0.9976552 0.0684408 0.0 -0.9976552 0.0684408 0.0 -0.9976552 0.0684408 0.0 -0.9976552 0.0684408 0.0 0.0784971 0.9969143 0.0 0.0784971 0.9969143 0.0 0.0784971 0.9969143 0.0 0.0784971 0.9969143 0.0 0.9964483 -0.0842069 0.0 0.9964483 -0.0842069 0.0 0.9964483 -0.0842069 0.0 0.9964483 -0.0842069 0.0 -0.0525588 -0.9986178 0.0 -0.0525588 -0.9986178 0.0 -0.0525588 -0.9986178 0.0 -0.0525588 -0.9986178 0.0 -0.996698 0.0811982 0.0 -0.996698 0.0811982 0.0 -0.996698 0.0811982 0.0 -0.996698 0.0811982 0.0 -0.996698 0.0811982 0.0 -0.9991668 0.0408127 0.0 -0.9991668 0.0408127 0.0 -0.9991668 0.0408127 0.0 -0.9991668 0.0408127 0.0 -0.9991668 0.0408127 0.0 -0.9955657 0.0940691 0.0 -0.9955657 0.0940691 0.0 -0.9955657 0.0940691 0.0 -0.9955657 0.0940691 0.0 0.0 0.0 -1.0 0.0 0.0 -1.0 0.0 0.0 -1.0 0.0 0.0 -1.0 0.0 0.0 -1.0 0.0 0.0 -1.0 0.0 0.0 1.0 0.0 0.0 1.0 0.0 0.0 1.0 0.0 0.0 1.0 0.0 0.0 1.0 0.0 0.0 1.0 0.0 0.0 1.0 0.0 0.0 1.0 0.0 0.0 1.0 0.0 0.0 1.0 0.0 0.0 1.0 0.0504849 0.9987248 0.0 0.0504849 0.9987249 0.0 0.0504849 0.9987248 0.0 0.0504849 0.9987248 0.0 0.0504849 0.9987249 0.0 0.0147809 0.9845225 0.1746337 0.0147809 0.9845225 0.1746337 0.0147809 0.9845225 0.1746337 -0.242042 0.0248718 0.9699469 -0.242026 0.0248056 0.9699526 -0.242042 0.0248718 0.9699469 -0.2420581 0.024938 0.9699412 -0.0660684 -0.9978151 0.0 -0.0660684 -0.9978151 0.0 -0.0660684 -0.9978151 0.0 -0.0660684 -0.9978151 0.0 -0.0660684 -0.9978151 0.0 -0.9991358 0.0415641 0.0 -0.9991358 0.0415641 0.0 -0.9991358 0.0415641 0.0 -0.9991358 0.0415641 0.0 -0.0474042 -0.9988758 0.0 -0.0474042 -0.9988758 0.0 -0.0474042 -0.9988758 0.0 -0.0474042 -0.9988758 0.0 -0.0869182 -0.9962155 0.0 -0.0869182 -0.9962155 0.0 -0.0869182 -0.9962155 0.0 -0.0869182 -0.9962155 0.0 -0.0869182 -0.9962155 0.0 -0.9958934 0.0905343 0.0 -0.9958934 0.0905343 0.0 -0.9958934 0.0905343 0.0 -0.9958934 0.0905343 0.0 -0.0638229 -0.9979612 0.0 -0.0638229 -0.9979612 0.0 -0.0638229 -0.9979612 0.0 -0.0638229 -0.9979612 0.0 0.0526123 0.998615 0.0 0.0526123 0.998615 0.0 0.0526123 0.998615 0.0 0.0526123 0.998615 0.0 -0.0662013 -0.9978063 2.0E-7 -0.0661935 -0.9978068 0.0 -0.0661973 -0.9978065 4.0E-7 -0.0662052 -0.997806 4.0E-7 -0.0662092 -0.9978058 0.0 0.0 0.0 1.0 0.0 0.0 1.0 0.0 0.0 1.0 0.0 0.0 1.0 0.0 0.0 1.0 0.0 0.0 1.0 0.0 0.0 1.0 0.0 0.0 1.0 0.0 0.0 1.0 -0.0596592 -0.9982188 1.74E-5 -0.0596389 -0.99822 0.0 -0.0596724 -0.998218 2.61E-5 -0.0596694 -0.9982182 2.61E-5 -0.059633 -0.9982204 0.0 0.9926851 -0.1207318 1.0E-7 0.9926851 -0.1207318 1.0E-7 0.9926851 -0.1207318 1.0E-7 0.0638962 0.9979566 0.0 0.0638962 0.9979566 0.0 0.0638962 0.9979566 0.0 0.0638962 0.9979566 0.0 0.0 -1.0 0.0 0.0 -1.0 0.0 0.0 -1.0 0.0 0.0 -1.0 0.0 0.0426052 0.999092 3.09E-5 0.0638615 0.9979588 0.0 0.0638789 0.9979576 4.64E-5 0.0319644 0.999489 4.64E-5 0.0 1.0 0.0 0.0 1.0 0.0 0.9958934 -0.0905343 0.0 0.9958934 -0.0905343 0.0 0.9958934 -0.0905343 0.0 0.9958934 -0.0905343 0.0 -0.033974 -0.9994227 0.0 -0.033974 -0.9994227 0.0 -0.033974 -0.9994227 0.0 -0.9935306 0.1135648 0.0 -0.9935306 0.1135648 0.0 -0.9935306 0.1135648 0.0 -0.9935306 0.1135648 0.0 0.0594447 0.9982316 0.0 0.0594447 0.9982316 0.0 0.0594447 0.9982316 0.0 0.0594447 0.9982316 0.0 -0.0594107 -0.9982337 -8.0E-7 -0.0594447 -0.9982316 0.0 -0.0594275 -0.9982326 -1.2E-6 -0.0593938 -0.9982346 -1.2E-6 -0.0593772 -0.9982356 0.0 0.8147224 -0.0679161 0.5758601 0.8148192 -0.0679075 0.5757241 0.8147849 -0.0678823 0.5757755 0.8148067 -0.0678364 0.5757501 0.8147383 -0.0679031 0.5758391 0.8145903 -0.0680114 0.5760356 0.8154554 -0.0679731 0.5748149 0.8147479 -0.0678053 0.5758371 0.8157744 -0.0678684 0.5743745 0.8147907 -0.067639 0.5757961 0.8177928 -0.0680822 0.5714716 -0.0504311 -0.9987276 0.0 -0.0504311 -0.9987276 0.0 -0.0504311 -0.9987276 0.0 -0.0504311 -0.9987276 0.0 0.9962423 -0.0866103 0.0 0.9962423 -0.0866103 0.0 0.9962423 -0.0866103 0.0 0.9962423 -0.0866103 0.0 0.9962423 -0.0866103 0.0 0.0 0.0 -1.0 0.0 0.0 -1.0 0.0 0.0 -1.0 0.0 0.0 -1.0 0.0 0.0 -1.0 0.0 0.0 -1.0 0.0 0.0 -1.0 0.0 0.0 -1.0 -0.9969366 0.0782148 0.0 -0.9969366 0.0782148 0.0 -0.9969366 0.0782148 0.0 -0.9969366 0.0782148 0.0 0.9961491 -0.0876765 0.0 0.9961491 -0.0876765 0.0 0.9961491 -0.0876765 0.0 0.996149 -0.0876765 0.0 0.9975088 -0.0705434 0.0 0.9975087 -0.0705434 0.0 0.9975087 -0.0705434 0.0 0.9975088 -0.0705434 0.0 0.9975088 -0.0705434 0.0 -0.9965457 0.0830455 0.0 -0.9965457 0.0830455 0.0 -0.9965457 0.0830455 0.0 -0.9965457 0.0830455 0.0 0.9975243 -0.0703226 0.0 0.9975243 -0.0703226 0.0 0.9975243 -0.0703226 0.0 0.9975243 -0.0703226 0.0 0.0234484 0.9997251 0.0 0.0234484 0.9997251 0.0 0.0234484 0.9997251 0.0 0.0234484 0.999725 0.0 0.9957407 -0.0921986 0.0 0.9957407 -0.0921986 0.0 0.9957407 -0.0921986 0.0 0.9957407 -0.0921985 0.0 -0.9965735 0.0827115 0.0 -0.9965735 0.0827115 0.0 -0.9965735 0.0827115 0.0 -0.9965735 0.0827115 0.0 -0.9963654 0.0851815 0.0 -0.9963654 0.0851815 0.0 -0.9963654 0.0851815 0.0 -0.9963654 0.0851815 0.0 -0.0526123 -0.998615 0.0 -0.0526123 -0.998615 0.0 -0.0526123 -0.998615 0.0 -0.0526123 -0.998615 0.0 -0.0673718 -0.9977279 0.0 -0.0673718 -0.9977279 0.0 -0.0673718 -0.9977279 0.0 -0.0673718 -0.9977279 0.0 0.0341231 0.9994176 0.0 0.0341231 0.9994176 0.0 0.0341231 0.9994176 0.0 0.0341231 0.9994176 0.0 0.0339656 0.999423 3.0E-7 0.0339538 0.9994234 0.0 0.0339614 0.9994231 5.0E-7 0.0339715 0.9994228 5.0E-7 0.033974 0.9994227 0.0 -0.9967207 0.0809168 -6.212E-4 -0.9967207 0.0809168 -6.212E-4 -0.9967207 0.0809168 -6.212E-4 0.9976881 -0.0679598 0.0 0.9976881 -0.0679598 0.0 0.9976881 -0.0679598 0.0 0.9976881 -0.0679598 0.0 -0.0340711 -0.9994194 0.0 -0.0340711 -0.9994194 0.0 -0.0340711 -0.9994194 0.0 -0.0340711 -0.9994194 0.0 -0.0340711 -0.9994194 0.0 0.0787024 0.9968982 0.0 0.0787024 0.9968982 0.0 0.0787024 0.9968982 0.0 0.0787024 0.9968982 0.0 0.0 0.0 -1.0 0.0 0.0 -1.0 0.0 0.0 -1.0 0.0 0.0 -1.0 0.0660684 0.9978151 0.0 0.0660684 0.9978151 0.0 0.0660684 0.9978151 0.0 0.0660684 0.9978151 0.0 0.0660684 0.9978151 0.0 0.0660684 0.9978151 0.0 -0.0596389 -0.99822 0.0 -0.0596389 -0.99822 0.0 -0.0596389 -0.99822 0.0 -0.0596389 -0.99822 0.0 0.996149 -0.0876765 0.0 0.996149 -0.0876765 0.0 0.996149 -0.0876765 0.0 0.9961491 -0.0876765 0.0 0.7195556 -0.0388513 0.6933472 0.7190555 -0.0444582 0.693529 0.7191721 -0.0444294 0.6934101 0.7197971 -0.0360473 0.693248 0.7202551 -0.0276915 0.6931563 0.6079915 -0.0623976 0.7914878 0.6080678 -0.0621649 0.7914475 0.6079915 -0.0623976 0.7914878 0.607915 -0.0626303 0.7915281 0.9935306 -0.1135648 0.0 0.9935306 -0.1135648 0.0 0.9935306 -0.1135648 0.0 0.9935306 -0.1135648 0.0 -0.997268 0.0738678 0.0 -0.997268 0.0738678 0.0 -0.997268 0.0738678 0.0 -0.997268 0.0738678 0.0 -0.9962423 0.0866103 0.0 -0.9962423 0.0866103 0.0 -0.9962423 0.0866103 0.0 -0.9962423 0.0866103 0.0 -0.9962423 0.0866103 0.0 0.9986904 -0.0511608 0.0 0.9970549 -0.0766909 0.0 0.9970549 -0.0766909 0.0 0.9992635 -0.0383737 0.0 1.0 0.0 0.0 1.0 0.0 0.0 -0.0596756 -0.9982178 -3.6E-6 -0.0596928 -0.9982169 0.0 -0.0596928 -0.9982169 0.0 -0.0596671 -0.9982183 -5.4E-6 -0.0596414 -0.9982198 -1.09E-5 0.0 0.0 1.0 0.0 0.0 1.0 0.0 0.0 1.0 0.0 0.0 1.0 0.0 0.0 1.0 0.0 0.0 1.0 0.0 0.0 1.0 0.0 0.0 1.0 0.9983832 -0.0568413 0.0 1.0 0.0 0.0 1.0 0.0 0.0 0.9990907 -0.0426353 0.0 0.9963645 -0.085193 0.0 0.9963645 -0.085193 0.0 -0.0767 -0.9970542 0.0 -0.0767 -0.9970542 0.0 -0.0767 -0.9970542 0.0 -0.0767 -0.9970543 0.0 0.0 0.0 -1.0 0.0 0.0 -1.0 0.0 0.0 -1.0 0.0 0.0 -1.0 0.0 0.0 -1.0 0.0 0.0 -1.0 0.0 0.0 -1.0 0.0 0.0 -1.0 0.0 0.0 -1.0 0.0 0.0 -1.0 0.0 0.0 -1.0 0.0 0.0 -1.0 0.0 0.0 -1.0 0.0 0.0 -1.0 0.0 0.0 -1.0 0.0526123 0.998615 0.0 0.0526123 0.998615 0.0 0.0526123 0.998615 0.0 0.0526123 0.998615 0.0 0.0496987 0.7346607 0.6766119 0.0496899 0.7347034 0.6765663 0.0496987 0.7346607 0.6766119 0.0497076 0.7346181 0.6766576 -0.9958934 0.0905344 0.0 -0.9958934 0.0905344 0.0 -0.9958934 0.0905344 0.0 -0.9958934 0.0905344 0.0 0.9935306 -0.1135648 0.0 0.9935306 -0.1135648 0.0 0.9935306 -0.1135648 0.0 0.9935306 -0.1135648 0.0 -0.9935513 0.113384 0.0 -0.9935513 0.113384 0.0 -0.9935513 0.113384 0.0 -0.9935513 0.113384 0.0 -0.9961479 0.0876891 0.0 -0.9961479 0.0876891 0.0 -0.9961479 0.0876891 0.0 -0.9961479 0.0876891 0.0 -0.0372131 -0.7354404 0.6765668 -0.0371229 -0.7351739 0.6768613 -0.0372131 -0.7354404 0.6765668 -0.0373034 -0.7357067 0.6762722 0.9935513 -0.113384 0.0 0.9935513 -0.113384 0.0 0.9935513 -0.113384 0.0 0.9935513 -0.113384 0.0 0.9935513 -0.113384 0.0 -0.9935513 0.113384 0.0 -0.9935513 0.113384 0.0 -0.9935513 0.113384 0.0 -0.9935513 0.113384 0.0 -0.9935513 0.113384 0.0 -0.9976545 0.0684507 0.0 -0.9976545 0.0684507 0.0 -0.9976545 0.0684507 0.0 -0.9976545 0.0684507 0.0 0.0339538 0.9994234 0.0 0.0339538 0.9994234 0.0 0.0339538 0.9994234 0.0 0.0596389 0.99822 0.0 0.0596389 0.99822 0.0 0.0596389 0.99822 0.0 0.0596389 0.99822 0.0 0.0888408 0.9960458 0.0 0.0888408 0.9960458 0.0 0.0888408 0.9960458 0.0 0.0888408 0.9960459 0.0 -0.9935327 0.113546 0.0 -0.9935327 0.113546 0.0 -0.9935327 0.113546 0.0 -0.9935327 0.113546 0.0 -0.0339656 -0.999423 -3.0E-7 -0.033974 -0.9994227 0.0 -0.0339715 -0.9994228 -5.0E-7 -0.0339614 -0.9994231 -5.0E-7 -0.0339538 -0.9994234 0.0 0.0 0.0 -1.0 0.0 0.0 -1.0 0.0 0.0 -1.0 0.0 0.0 -1.0 0.0 0.0 1.0 0.0 0.0 1.0 0.0 0.0 1.0 0.0 0.0 1.0 0.0 0.0 1.0 0.0 0.0 1.0 0.0 0.0 1.0 0.070199 0.9975331 0.0 0.070199 0.9975331 0.0 0.070199 0.9975331 0.0 0.070199 0.9975331 0.0 0.070199 0.9975331 0.0 0.9983059 -0.0581835 0.0 0.9983059 -0.0581835 0.0 0.9983059 -0.0581835 0.0 0.9983059 -0.0581835 0.0 0.0594218 0.998233 9.77E-5 0.0594447 0.9982316 2.931E-4 0.0594275 0.9982327 1.465E-4 0.0594103 0.9982337 0.0 0.0594103 0.9982336 0.0 0.0596671 0.9982183 5.4E-6 0.0596927 0.9982168 0.0 0.0596671 0.9982183 5.4E-6 0.0596414 0.9982198 1.09E-5 0.0504311 0.9987276 0.0 0.0504311 0.9987276 0.0 0.0504311 0.9987276 0.0 0.0504311 0.9987276 0.0 0.0662013 0.9978063 -2.0E-7 0.0662092 0.9978058 0.0 0.0662052 0.997806 -4.0E-7 0.0661973 0.9978065 -4.0E-7 0.0661935 0.9978068 0.0 -0.996149 0.0876765 0.0 -0.996149 0.0876765 0.0 -0.996149 0.0876765 0.0 -0.9961491 0.0876765 0.0 0.9969365 -0.0782148 0.0 0.9969365 -0.0782148 0.0 0.9969365 -0.0782148 0.0 0.9969365 -0.0782148 0.0 -0.0341231 -0.9994176 0.0 -0.0341231 -0.9994176 0.0 -0.0341231 -0.9994176 0.0 -0.0341231 -0.9994176 0.0 0.9975923 -0.0693512 0.0 0.9975923 -0.0693511 0.0 0.9975923 -0.0693512 0.0 0.9975923 -0.0693512 0.0 0.9975924 -0.0693512 0.0 0.0 0.0 1.0 0.0 0.0 1.0 0.0 0.0 1.0 0.0 0.0 1.0 0.0 0.0 1.0 0.0 0.0 1.0 0.0 0.0 1.0 0.0 0.0 1.0 0.0 0.0 1.0 0.0 0.0 1.0 0.0674784 0.9977207 0.0 0.0674784 0.9977207 0.0 0.0674784 0.9977207 0.0 0.0674784 0.9977207 0.0</float_array>
                    <technique_common>
                        <accessor count="672" source="#geometry0-normal-array" stride="3">
                            <param name="X" type="float"/>
                            <param name="Y" type="float"/>
                            <param name="Z" type="float"/>
                        </accessor>
                    </technique_common>
                </source>
                <vertices id="geometry0-vertex">
                    <input semantic="POSITION" source="#geometry0-position"/>
                </vertices>
                <triangles count="320" material="default_ai_0.2_sh_0.2_tr_0.0_dc_r_0.8_g_0.8_b_0.8_sc_r_1.0_g_1.0_b_1.0_ec_r_0.0_g_0.0_b_0_tri">
                    <input offset="0" semantic="VERTEX" source="#geometry0-vertex"/>
                    <input offset="1" semantic="NORMAL" source="#geometry0-normal"/>
                    <p>65 0 69 1 61 2 65 0 61 2 60 3 62 4 63 5 90 6 62 4 90 6 118 7 68 8 62 4 118 7 68 8 118 7 119 9 77 16 78 17 73 18 77 16 73 18 74 19 77 16 74 19 75 20 77 16 75 20 76 21 91 22 90 23 67 24 92 25 91 22 67 24 92 25 67 24 66 26 80 27 81 28 78 29 80 27 78 29 77 30 4 31 5 32 2 33 4 31 2 33 1 34 94 35 95 36 96 37 43 38 12 39 11 40 79 45 80 46 77 47 79 45 77 47 76 48 144 49 28 50 27 51 144 49 27 51 149 52 144 49 149 52 141 53 63 54 64 55 59 56 63 54 59 56 58 57 62 58 63 54 58 57 62 58 58 57 57 59 62 58 57 59 60 60 62 58 60 60 61 61 27 62 28 63 41 64 27 62 41 64 33 65 60 66 61 67 69 68 60 66 69 68 120 69 60 66 120 69 121 70 104 71 103 72 114 73 104 71 114 73 109 74 54 75 53 76 51 77 54 75 51 77 50 78 12 79 118 80 90 81 12 79 90 81 89 82 12 79 89 82 13 83 46 84 49 85 50 86 46 84 50 86 51 87 1 88 0 89 7 90 1 88 7 90 6 91 1 88 6 91 4 92 68 93 67 94 63 95 68 93 63 95 62 96 100 97 92 98 72 99 100 100 72 101 71 102 59 103 64 104 88 105 59 103 88 105 97 106 59 103 97 106 98 107 41 108 148 109 147 110 33 111 41 108 147 110 33 111 147 110 150 112 71 113 72 114 66 115 58 116 106 117 103 118 55 119 58 116 103 118 55 119 103 118 102 120 47 121 53 122 51 123 47 121 51 123 46 124 88 125 25 126 14 127 88 125 14 127 85 128 87 129 88 125 85 128 87 129 85 128 86 130 75 131 116 132 117 133 75 131 117 133 138 134 75 135 84 136 82 137 75 135 82 137 73 138 16 139 24 140 44 141 16 139 44 141 17 142 116 143 38 144 37 145 116 143 37 145 63 146 116 143 63 146 62 147 116 143 62 147 61 148 116 143 61 148 60 149 116 143 60 149 76 150 74 151 116 143 76 150 74 151 76 150 122 152 74 151 122 152 123 153 52 154 47 155 53 156 52 154 53 156 54 157 26 158 27 159 28 160 26 158 28 160 29 161 20 162 130 163 0 164 20 162 0 164 3 165 42 166 20 162 3 165 42 166 3 165 23 167 104 168 107 169 106 170 104 168 106 170 103 171 148 172 41 173 28 174 146 175 148 172 28 174 146 175 28 174 144 176 146 175 144 176 143 177 39 182 38 183 43 184 39 182 43 184 11 185 39 182 11 185 10 186 141 187 142 188 143 189 141 187 143 189 144 190 25 191 88 192 64 193 25 191 64 193 63 194 25 191 63 194 37 195 133 196 73 197 82 198 133 196 82 198 140 199 133 196 140 199 131 200 98 209 97 210 95 211 99 212 98 209 95 211 99 212 95 211 94 213 105 214 104 215 107 216 105 214 107 216 108 217 56 218 65 219 60 220 56 218 60 220 57 221 30 222 26 223 29 224 30 222 29 224 31 225 128 226 7 227 0 228 128 226 0 228 130 229 51 230 133 231 131 232 46 233 51 230 131 232 46 233 131 232 132 234 3 235 2 236 5 237 9 238 3 235 5 237 9 238 5 237 8 239 121 240 124 241 76 242 121 240 76 242 60 243 106 244 58 245 59 246 106 244 59 246 98 247 106 244 98 247 108 248 106 244 108 248 107 249 136 261 53 262 47 263 136 261 47 263 139 264 136 261 139 264 137 265 13 273 89 274 90 275 13 273 90 275 63 276 13 273 63 276 37 277 9 278 24 279 23 280 9 278 23 280 3 281 142 282 145 283 146 284 142 282 146 284 143 285 111 286 107 287 104 288 111 286 104 288 109 289 111 286 109 289 110 290 69 291 61 292 62 293 69 291 62 293 68 294 134 295 117 296 116 297 134 295 116 297 135 298 7 299 9 300 8 301 7 299 8 301 6 302 12 303 13 304 37 305 12 303 37 305 38 306 12 303 38 306 43 307 86 317 91 318 92 319 86 317 92 319 93 320 86 317 93 320 87 321 52 322 48 323 47 324 117 325 116 326 74 327 117 325 74 327 127 328 124 329 125 330 122 331 124 329 122 331 76 332 126 333 115 334 117 335 126 333 117 335 127 336 126 333 127 336 74 337 126 333 74 337 123 338 62 339 61 340 69 341 62 339 69 341 68 342 44 343 32 344 17 345 58 346 59 347 70 348 58 346 70 348 55 349 71 350 70 351 101 352 71 350 101 352 100 353 71 354 70 355 59 356 71 354 59 356 64 357 71 354 64 357 72 358 51 370 53 371 47 372 51 370 47 372 46 373 67 374 66 375 72 376 67 374 72 376 64 377 67 374 64 377 63 378 116 379 75 380 73 381 116 379 73 381 133 382 116 379 133 382 51 383 116 379 51 383 53 384 116 379 53 384 136 385 116 379 136 385 135 386 27 387 33 388 150 389 27 387 150 389 149 390 14 391 13 392 89 393 14 391 89 393 85 394 130 395 20 396 19 397 130 395 19 397 129 398 130 395 129 398 128 399 35 400 34 401 36 402 35 400 36 402 40 403 18 404 19 405 20 406 18 404 20 406 21 407 81 408 82 409 73 410 81 408 73 410 78 411 87 412 95 413 97 414 87 412 97 414 88 415 110 416 112 417 113 418 110 416 113 418 111 419 82 420 84 421 138 422 82 420 138 422 140 423 3 424 0 425 7 426 3 424 7 426 9 427 99 428 105 429 108 430 99 428 108 430 98 431 42 432 23 433 24 434 42 432 24 434 44 435 32 436 19 437 20 438 32 436 20 438 42 439 32 436 42 439 44 440 45 441 49 442 46 443 137 444 134 445 135 446 137 444 135 446 136 447 22 448 23 449 24 450 22 448 24 450 16 451 22 448 16 451 15 452 34 453 30 454 31 455 34 453 31 455 36 456 107 457 111 458 113 459 107 457 113 459 106 460 13 461 37 462 63 463 13 461 63 463 67 464 13 461 67 464 90 465 13 461 90 465 89 466 64 467 88 468 87 469 64 467 87 469 72 470 14 471 25 472 37 473 14 471 37 473 13 474 70 484 55 485 102 486 70 484 102 486 101 487 125 488 126 489 123 490 125 488 123 490 122 491 72 492 66 493 67 494 72 492 67 494 63 495 72 492 63 495 64 496 84 497 79 498 76 499 84 497 76 499 75 500 84 497 75 500 74 501 84 497 74 501 83 502 93 503 92 504 66 505 93 503 66 505 72 506 93 503 72 506 87 507 83 516 84 517 75 518 83 516 75 518 74 519 83 516 74 519 73 520 83 516 73 520 82 521 33 522 18 523 21 524 33 522 21 524 41 525 37 526 38 527 25 528 25 528 38 527 22 529 22 529 38 527 23 530 23 530 38 527 42 531 42 531 38 527 20 532 20 532 38 527 21 533 21 533 38 527 41 534 38 527 39 535 41 534 39 535 40 536 41 534 40 536 36 537 41 534 31 538 29 539 36 537 36 537 29 539 41 534 41 534 29 539 28 540 7 541 0 542 3 543 7 541 3 543 9 544 69 549 68 550 119 551 69 549 119 551 120 552 59 553 58 554 55 555 59 553 55 555 70 556 101 557 99 558 94 559 101 557 94 559 100 560 15 561 14 562 25 563 15 561 25 563 22 564 101 569 99 570 98 571 70 572 101 569 98 571 70 572 98 571 59 573 70 574 59 575 98 576 70 574 98 576 99 577 70 574 99 577 101 578 106 579 107 580 104 581 106 579 104 581 103 582 19 583 32 584 129 585 87 586 88 587 64 588 87 586 64 588 72 589 10 590 35 591 40 592 10 590 40 592 39 593 55 594 56 595 57 596 55 594 57 596 58 597 32 598 44 599 42 600 32 598 42 600 20 601 32 598 20 601 19 602 0 603 1 604 2 605 0 603 2 605 3 606 106 614 113 615 112 616 103 617 106 614 112 616 103 617 112 616 114 618 145 619 147 620 148 621 145 619 148 621 146 622 70 623 71 624 72 625 70 623 72 625 64 626 70 623 64 626 59 627 72 628 92 629 93 630 72 628 93 630 87 631 47 632 46 633 132 634 47 632 132 634 139 635 12 636 43 637 38 638 12 636 38 638 37 639 12 636 37 639 13 640 37 641 25 642 14 643 37 641 14 643 13 644 33 645 41 646 28 647 33 645 28 647 27 648 42 649 44 650 24 651 42 649 24 651 23 652 38 653 116 654 117 655 38 653 117 655 115 656 38 653 115 656 43 657 49 668 52 669 54 670 49 668 54 670 50 671</p>
                </triangles>
                <triangles count="68" material="default_ai_0.2_sh_0.2_tr_0.0_dc_r_1.0_g_0.2_b_0.2_sc_r_1.0_g_1.0_b_1.0_ec_r_0.0_g_0.0_b_0_tri">
                    <input offset="0" semantic="VERTEX" source="#geometry0-vertex"/>
                    <input offset="1" semantic="NORMAL" source="#geometry0-normal"/>
                    <p>105 10 99 11 101 12 105 10 101 12 102 13 105 10 102 13 103 14 105 10 103 14 104 15 114 41 112 42 110 43 114 41 110 43 109 44 8 178 5 179 4 180 8 178 4 180 6 181 16 201 17 202 10 203 16 201 10 203 11 204 16 201 11 204 12 205 16 201 12 205 13 206 16 201 13 206 14 207 16 201 14 207 15 208 142 250 141 251 149 252 145 253 142 250 149 252 145 253 149 252 150 254 145 253 150 254 147 255 90 256 91 257 86 258 90 256 86 258 85 259 90 256 85 259 89 260 93 266 92 267 100 268 93 269 100 270 94 271 93 269 94 271 96 272 70 308 71 309 66 310 70 308 66 310 67 311 70 308 67 311 68 312 70 308 68 312 69 313 70 308 69 313 65 314 55 315 70 308 65 314 55 315 65 314 56 316 35 359 10 360 17 361 35 359 17 361 32 362 35 359 32 362 19 363 35 359 19 363 18 364 35 359 18 364 33 365 34 366 35 359 33 365 26 367 30 368 34 366 26 367 34 366 33 365 26 367 33 365 27 369 83 475 82 476 81 477 83 475 81 477 80 478 83 475 80 478 79 479 95 480 87 481 93 482 95 480 93 482 96 483 131 508 140 509 138 510 131 508 138 510 117 511 131 508 117 511 134 512 131 508 134 512 137 513 131 508 137 513 139 514 131 508 139 514 132 515 52 545 49 546 45 547 52 545 45 547 48 548 45 565 46 566 47 567 45 565 47 567 48 568 9 607 7 608 128 609 9 607 128 609 129 610 9 607 129 610 32 611 9 607 32 611 44 612 9 607 44 612 24 613 43 658 115 659 12 660 12 660 115 659 118 661 118 661 115 659 119 662 119 662 115 659 120 663 120 663 115 659 121 664 121 664 115 659 124 665 115 659 126 666 124 665 124 665 126 666 125 667</p>
                </triangles>
            </mesh>
        </geometry>
    </library_geometries>
    <library_visual_scenes>
        <visual_scene id="Building_DEBW_5221000Qybq">
            <node>
                <instance_geometry url="#geometry0">
                    <bind_material>
                        <technique_common>
                            <instance_material symbol="default_ai_0.2_sh_0.2_tr_0.0_dc_r_0.8_g_0.8_b_0.8_sc_r_1.0_g_1.0_b_1.0_ec_r_0.0_g_0.0_b_0_tri" target="#default_ai_0.2_sh_0.2_tr_0.0_dc_r_0.8_g_0.8_b_0.8_sc_r_1.0_g_1.0_b_1.0_ec_r_0.0_g_0.0_b_0_mat"/>
                            <instance_material symbol="default_ai_0.2_sh_0.2_tr_0.0_dc_r_1.0_g_0.2_b_0.2_sc_r_1.0_g_1.0_b_1.0_ec_r_0.0_g_0.0_b_0_tri" target="#default_ai_0.2_sh_0.2_tr_0.0_dc_r_1.0_g_0.2_b_0.2_sc_r_1.0_g_1.0_b_1.0_ec_r_0.0_g_0.0_b_0_mat"/>
                        </technique_common>
                    </bind_material>
                </instance_geometry>
            </node>
        </visual_scene>
    </library_visual_scenes>
    <scene>
        <instance_visual_scene url="#Building_DEBW_5221000Qybq"/>
    </scene>
</COLLADA>
