<?xml version="1.0" encoding="UTF-8" standalone="yes"?>
<COLLADA xmlns="http://www.collada.org/2005/11/COLLADASchema" version="1.4.1">
    <asset>
        <contributor>
            <authoring_tool>3D City Database Importer/Exporter, version 5.5.3; Chair of Geoinformatics, Technical University of Munich</authoring_tool>
        </contributor>
        <created>2026-05-06T15:12:04.484</created>
        <modified>2026-05-06T15:12:04.484</modified>
        <unit meter="1.0" name="meters"/>
        <up_axis>Z_UP</up_axis>
    </asset>
    <library_materials>
        <material id="default_ai_0.2_sh_0.2_tr_0.0_dc_r_0.8_g_0.8_b_0.8_sc_r_1.0_g_1.0_b_1.0_ec_r_0.0_g_0.0_b_0_mat">
            <instance_effect url="#default_ai_0.2_sh_0.2_tr_0.0_dc_r_0.8_g_0.8_b_0.8_sc_r_1.0_g_1.0_b_1.0_ec_r_0.0_g_0.0_b_0_eff"/>
        </material>
        <material id="default_ai_0.2_sh_0.2_tr_0.0_dc_r_1.0_g_0.2_b_0.2_sc_r_1.0_g_1.0_b_1.0_ec_r_0.0_g_0.0_b_0_mat">
            <instance_effect url="#default_ai_0.2_sh_0.2_tr_0.0_dc_r_1.0_g_0.2_b_0.2_sc_r_1.0_g_1.0_b_1.0_ec_r_0.0_g_0.0_b_0_eff"/>
        </material>
    </library_materials>
    <library_effects>
        <effect id="default_ai_0.2_sh_0.2_tr_0.0_dc_r_0.8_g_0.8_b_0.8_sc_r_1.0_g_1.0_b_1.0_ec_r_0.0_g_0.0_b_0_eff">
            <profile_COMMON>
                <technique sid="COMMON">
                    <lambert>
                        <emission>
                            <color>0.0 0.0 0.0 1.0</color>
                        </emission>
                        <diffuse>
                            <color>0.8 0.8 0.8 1.0</color>
                        </diffuse>
                        <reflective>
                            <color>1.0 1.0 1.0 1.0</color>
                        </reflective>
                        <reflectivity>
                            <float>0.2</float>
                        </reflectivity>
                        <transparent opaque="A_ONE">
                            <color>1.0 1.0 1.0 1.0</color>
                        </transparent>
                        <transparency>
                            <float>1.0</float>
                        </transparency>
                    </lambert>
                </technique>
                <extra>
                    <technique profile="GOOGLEEARTH">
                        <double_sided>0</double_sided>
                    </technique>
                </extra>
            </profile_COMMON>
        </effect>
        <effect id="default_ai_0.2_sh_0.2_tr_0.0_dc_r_1.0_g_0.2_b_0.2_sc_r_1.0_g_1.0_b_1.0_ec_r_0.0_g_0.0_b_0_eff">
            <profile_COMMON>
                <technique sid="COMMON">
                    <lambert>
                        <emission>
                            <color>0.0 0.0 0.0 1.0</color>
                        </emission>
                        <diffuse>
                            <color>1.0 0.2 0.2 1.0</color>
                        </diffuse>
                        <reflective>
                            <color>1.0 1.0 1.0 1.0</color>
                        </reflective>
                        <reflectivity>
                            <float>0.2</float>
                        </reflectivity>
                        <transparent opaque="A_ONE">
                            <color>1.0 1.0 1.0 1.0</color>
                        </transparent>
                        <transparency>
                            <float>1.0</float>
                        </transparency>
                    </lambert>
                </technique>
                <extra>
                    <technique profile="GOOGLEEARTH">
                        <double_sided>0</double_sided>
                    </technique>
                </extra>
            </profile_COMMON>
        </effect>
    </library_effects>
    <library_geometries>
        <geometry id="geometry0">
            <mesh>
                <source id="geometry0-position">
                    <float_array id="geometry0-position-array" count="81">-4.233 -1.119 4.007 -3.76 -2.9 3.378 0.48 -1.81 3.368 0.0 0.0 4.007 0.0 0.0 0.0 0.48 -1.81 0.0 -3.76 -2.9 0.0 -4.233 -1.119 0.0 3.41 11.13 4.45 3.41 11.13 4.927 4.48 7.08 9.301 4.48 7.08 4.45 4.551 6.811 9.592 5.94 1.57 4.465 5.94 1.57 4.45 -6.78 8.47 4.45 -6.78 8.47 4.91 -4.233 -1.119 4.45 -6.78 8.47 0.0 5.64 1.491 4.45 5.64 1.491 4.465 0.0 0.0 4.456 5.64 1.491 0.0 -5.629 4.137 9.592 5.94 1.57 0.0 4.48 7.08 0.0 3.41 11.13 0.0</float_array>
                    <technique_common>
                        <accessor count="27" source="#geometry0-position-array" stride="3">
                            <param name="X" type="float"/>
                            <param name="Y" type="float"/>
                            <param name="Z" type="float"/>
                        </accessor>
                    </technique_common>
                </source>
                <source id="geometry0-normal">
                    <float_array id="geometry0-normal-array" count="300">-0.9664869 -0.2567157 8.1E-6 -0.9664869 -0.256716 1.62E-5 -0.9664869 -0.2567157 8.1E-6 -0.9664871 -0.2567153 0.0 -0.9664871 -0.2567153 0.0 -0.9664871 -0.2567152 0.0 -0.9664871 -0.2567153 0.0 -0.9664871 -0.2567153 0.0 -0.9664871 -0.2567153 0.0 0.9666414 0.2561337 0.0 0.9666414 0.2561337 0.0 0.9666414 0.2561337 0.0 0.9666414 0.2561337 0.0 0.2555816 -0.9667875 0.0 0.2555816 -0.9667875 0.0 0.2555816 -0.9667875 0.0 0.2555816 -0.9667875 0.0 0.2555816 -0.9667875 0.0 0.9668267 0.2554332 0.0 0.9668267 0.2554332 0.0 0.9668267 0.2554332 0.0 0.9668267 0.2554332 0.0 -0.1835316 0.6987318 0.6914406 -0.1834955 0.6985191 0.691665 -0.1834811 0.6985499 0.6916378 -0.1835497 0.6988381 0.6913283 -0.1836327 0.6990953 0.6910462 0.0825305 -0.3122764 0.9463996 0.0825221 -0.3123209 0.9463856 0.0825305 -0.3122764 0.9463996 0.082539 -0.3122318 0.9464136 0.2546518 -0.9670328 0.0 0.2546518 -0.9670328 0.0 0.2546518 -0.9670328 0.0 0.2546518 -0.9670328 0.0 0.9665886 0.2563329 0.0 0.9665886 0.2563329 0.0 0.9665886 0.2563329 0.0 0.9665886 0.2563329 0.0 -0.9664957 -0.2566829 0.0 -0.9664957 -0.2566829 0.0 -0.9664957 -0.2566829 0.0 -0.9664957 -0.2566829 0.0 -0.2555724 0.9667899 0.0 -0.2555724 0.9667899 0.0 -0.2555724 0.9667899 0.0 -0.2555724 0.9667899 0.0 -0.2525765 0.9675769 0.0 -0.2525765 0.9675769 0.0 -0.2525765 0.9675769 0.0 -0.2525765 0.9675769 0.0 0.2555724 -0.9667899 0.0 0.2555724 -0.9667899 0.0 0.2555724 -0.9667899 0.0 0.2555724 -0.9667899 0.0 0.0 0.0 -1.0 0.0 0.0 -1.0 0.0 0.0 -1.0 0.0 0.0 -1.0 0.9668267 0.2554332 0.0 0.9668267 0.2554332 0.0 0.9668267 0.2554332 0.0 0.9668267 0.2554332 0.0 0.2555816 -0.9667875 0.0 0.2555816 -0.9667875 0.0 0.2555816 -0.9667875 0.0 0.2546518 -0.9670328 0.0 0.2546518 -0.9670328 0.0 0.2546518 -0.9670328 0.0 0.2546518 -0.9670328 0.0 0.9666781 0.2559945 1.697E-4 0.9666414 0.2561336 0.0 0.9666414 0.2561337 0.0 0.9666966 0.2559249 2.546E-4 0.9667518 0.2557161 5.091E-4 0.0 0.0 -1.0 0.0 0.0 -1.0 0.0 0.0 -1.0 0.0 0.0 -1.0 0.0 0.0 -1.0 0.0 0.0 -1.0 0.0 0.0 -1.0 -0.2525764 0.9675769 0.0 -0.2525765 0.9675769 0.0 -0.2525764 0.9675769 0.0 -0.2525764 0.9675769 0.0 0.1746387 -0.6643897 0.7266964 0.1746258 -0.6644779 0.7266188 0.1745749 -0.6645175 0.7265949 0.1746882 -0.6642771 0.7267874 0.1747025 -0.6642619 0.7267979 0.1745525 -0.6645266 0.7265919 0.2489799 -0.9685087 0.0 0.2489799 -0.9685087 0.0 0.2489799 -0.9685087 0.0 0.2489799 -0.9685087 0.0 0.2555723 -0.9667899 0.0 0.2555724 -0.9667899 0.0 0.2555723 -0.9667899 0.0 0.2555724 -0.9667899 0.0</float_array>
                    <technique_common>
                        <accessor count="100" source="#geometry0-normal-array" stride="3">
                            <param name="X" type="float"/>
                            <param name="Y" type="float"/>
                            <param name="Z" type="float"/>
                        </accessor>
                    </technique_common>
                </source>
                <vertices id="geometry0-vertex">
                    <input semantic="POSITION" source="#geometry0-position"/>
                </vertices>
                <triangles count="45" material="default_ai_0.2_sh_0.2_tr_0.0_dc_r_0.8_g_0.8_b_0.8_sc_r_1.0_g_1.0_b_1.0_ec_r_0.0_g_0.0_b_0_tri">
                    <input offset="0" semantic="VERTEX" source="#geometry0-vertex"/>
                    <input offset="1" semantic="NORMAL" source="#geometry0-normal"/>
                    <p>17 0 23 1 16 2 17 0 16 2 15 3 18 4 7 5 0 6 18 4 0 6 17 7 18 4 17 7 15 8 11 9 14 10 24 11 11 9 24 11 25 12 4 13 22 14 19 15 3 16 4 13 19 15 3 16 19 15 21 17 8 18 11 19 25 20 8 18 25 20 26 21 14 31 13 32 20 33 14 31 20 33 19 34 3 35 2 36 5 37 3 35 5 37 4 38 1 39 0 40 7 41 1 39 7 41 6 42 4 43 7 44 0 45 4 43 0 45 3 46 15 47 8 48 26 49 15 47 26 49 18 50 0 51 7 52 4 53 0 51 4 53 3 54 4 55 5 56 6 57 4 55 6 57 7 58 8 59 9 60 10 61 8 59 10 61 11 62 19 63 20 64 21 65 14 66 19 67 22 68 14 66 22 68 24 69 13 70 14 71 11 72 13 70 11 72 10 73 13 70 10 73 12 74 7 75 18 76 26 77 7 75 26 77 25 78 4 79 7 75 25 78 22 80 4 79 25 78 22 80 25 78 24 81 15 82 16 83 9 84 15 82 9 84 8 85 2 92 1 93 6 94 2 92 6 94 5 95 17 96 0 97 3 98 17 96 3 98 21 99</p>
                </triangles>
                <triangles count="9" material="default_ai_0.2_sh_0.2_tr_0.0_dc_r_1.0_g_0.2_b_0.2_sc_r_1.0_g_1.0_b_1.0_ec_r_0.0_g_0.0_b_0_tri">
                    <input offset="0" semantic="VERTEX" source="#geometry0-vertex"/>
                    <input offset="1" semantic="NORMAL" source="#geometry0-normal"/>
                    <p>10 22 9 23 16 24 10 22 16 24 23 25 10 22 23 25 12 26 0 27 1 28 2 29 0 27 2 29 3 30 23 86 17 87 21 88 23 86 21 88 20 89 23 86 20 89 13 90 23 86 13 90 12 91</p>
                </triangles>
            </mesh>
        </geometry>
    </library_geometries>
    <library_visual_scenes>
        <visual_scene id="Building_DEBW_5221000QfOL">
            <node>
                <instance_geometry url="#geometry0">
                    <bind_material>
                        <technique_common>
                            <instance_material symbol="default_ai_0.2_sh_0.2_tr_0.0_dc_r_0.8_g_0.8_b_0.8_sc_r_1.0_g_1.0_b_1.0_ec_r_0.0_g_0.0_b_0_tri" target="#default_ai_0.2_sh_0.2_tr_0.0_dc_r_0.8_g_0.8_b_0.8_sc_r_1.0_g_1.0_b_1.0_ec_r_0.0_g_0.0_b_0_mat"/>
                            <instance_material symbol="default_ai_0.2_sh_0.2_tr_0.0_dc_r_1.0_g_0.2_b_0.2_sc_r_1.0_g_1.0_b_1.0_ec_r_0.0_g_0.0_b_0_tri" target="#default_ai_0.2_sh_0.2_tr_0.0_dc_r_1.0_g_0.2_b_0.2_sc_r_1.0_g_1.0_b_1.0_ec_r_0.0_g_0.0_b_0_mat"/>
                        </technique_common>
                    </bind_material>
                </instance_geometry>
            </node>
        </visual_scene>
    </library_visual_scenes>
    <scene>
        <instance_visual_scene url="#Building_DEBW_5221000QfOL"/>
    </scene>
</COLLADA>
