<?xml version="1.0" encoding="UTF-8" standalone="yes"?>
<COLLADA xmlns="http://www.collada.org/2005/11/COLLADASchema" version="1.4.1">
    <asset>
        <contributor>
            <authoring_tool>3D City Database Importer/Exporter, version 5.5.3; Chair of Geoinformatics, Technical University of Munich</authoring_tool>
        </contributor>
        <created>2026-05-06T15:12:18.344</created>
        <modified>2026-05-06T15:12:18.344</modified>
        <unit meter="1.0" name="meters"/>
        <up_axis>Z_UP</up_axis>
    </asset>
    <library_materials>
        <material id="default_ai_0.2_sh_0.2_tr_0.0_dc_r_0.8_g_0.8_b_0.8_sc_r_1.0_g_1.0_b_1.0_ec_r_0.0_g_0.0_b_0_mat">
            <instance_effect url="#default_ai_0.2_sh_0.2_tr_0.0_dc_r_0.8_g_0.8_b_0.8_sc_r_1.0_g_1.0_b_1.0_ec_r_0.0_g_0.0_b_0_eff"/>
        </material>
        <material id="default_ai_0.2_sh_0.2_tr_0.0_dc_r_1.0_g_0.2_b_0.2_sc_r_1.0_g_1.0_b_1.0_ec_r_0.0_g_0.0_b_0_mat">
            <instance_effect url="#default_ai_0.2_sh_0.2_tr_0.0_dc_r_1.0_g_0.2_b_0.2_sc_r_1.0_g_1.0_b_1.0_ec_r_0.0_g_0.0_b_0_eff"/>
        </material>
    </library_materials>
    <library_effects>
        <effect id="default_ai_0.2_sh_0.2_tr_0.0_dc_r_0.8_g_0.8_b_0.8_sc_r_1.0_g_1.0_b_1.0_ec_r_0.0_g_0.0_b_0_eff">
            <profile_COMMON>
                <technique sid="COMMON">
                    <lambert>
                        <emission>
                            <color>0.0 0.0 0.0 1.0</color>
                        </emission>
                        <diffuse>
                            <color>0.8 0.8 0.8 1.0</color>
                        </diffuse>
                        <reflective>
                            <color>1.0 1.0 1.0 1.0</color>
                        </reflective>
                        <reflectivity>
                            <float>0.2</float>
                        </reflectivity>
                        <transparent opaque="A_ONE">
                            <color>1.0 1.0 1.0 1.0</color>
                        </transparent>
                        <transparency>
                            <float>1.0</float>
                        </transparency>
                    </lambert>
                </technique>
                <extra>
                    <technique profile="GOOGLEEARTH">
                        <double_sided>0</double_sided>
                    </technique>
                </extra>
            </profile_COMMON>
        </effect>
        <effect id="default_ai_0.2_sh_0.2_tr_0.0_dc_r_1.0_g_0.2_b_0.2_sc_r_1.0_g_1.0_b_1.0_ec_r_0.0_g_0.0_b_0_eff">
            <profile_COMMON>
                <technique sid="COMMON">
                    <lambert>
                        <emission>
                            <color>0.0 0.0 0.0 1.0</color>
                        </emission>
                        <diffuse>
                            <color>1.0 0.2 0.2 1.0</color>
                        </diffuse>
                        <reflective>
                            <color>1.0 1.0 1.0 1.0</color>
                        </reflective>
                        <reflectivity>
                            <float>0.2</float>
                        </reflectivity>
                        <transparent opaque="A_ONE">
                            <color>1.0 1.0 1.0 1.0</color>
                        </transparent>
                        <transparency>
                            <float>1.0</float>
                        </transparency>
                    </lambert>
                </technique>
                <extra>
                    <technique profile="GOOGLEEARTH">
                        <double_sided>0</double_sided>
                    </technique>
                </extra>
            </profile_COMMON>
        </effect>
    </library_effects>
    <library_geometries>
        <geometry id="geometry0">
            <mesh>
                <source id="geometry0-position">
                    <float_array id="geometry0-position-array" count="48">2.8 1.19 6.449 0.0 0.0 6.414 0.0 0.0 0.0 2.8 1.19 0.0 -0.27 0.7 6.837 -3.15 -0.46 6.835 -3.15 -0.46 0.0 -0.27 0.7 0.0 -2.05 13.51 6.749 0.272 7.612 10.34 0.272 7.612 0.0 -2.05 13.51 0.0 -5.426 5.325 10.34 -7.75 11.23 6.745 -7.75 11.23 0.0 -5.426 5.325 0.0</float_array>
                    <technique_common>
                        <accessor count="16" source="#geometry0-position-array" stride="3">
                            <param name="X" type="float"/>
                            <param name="Y" type="float"/>
                            <param name="Z" type="float"/>
                        </accessor>
                    </technique_common>
                </source>
                <source id="geometry0-normal">
                    <float_array id="geometry0-normal-array" count="150">-0.9305695 -0.3661152 0.0 -0.9305695 -0.3661152 0.0 -0.9305695 -0.3661152 0.0 -0.9305695 -0.3661152 0.0 -0.9330016 -0.3598721 0.0 -0.9330016 -0.3598721 0.0 -0.9330016 -0.3598721 0.0 -0.9330016 -0.3598721 0.0 0.9305012 0.3662888 0.0 0.9305013 0.3662888 0.0 0.9305012 0.3662888 0.0 0.9305012 0.3662888 0.0 0.1828775 -0.4558385 0.8710724 0.1829332 -0.4557732 0.8710949 0.1829195 -0.4558157 0.8710755 0.1828911 -0.4558412 0.8710681 0.1828478 -0.4558496 0.8710728 0.1829737 -0.4557813 0.8710821 0.0 0.0 -1.0 0.0 0.0 -1.0 0.0 0.0 -1.0 0.0 0.0 -1.0 0.0 0.0 -1.0 0.0 0.0 -1.0 0.0 0.0 -1.0 0.0 0.0 -1.0 -0.1836002 0.4574545 0.8700726 -0.1835955 0.457462 0.8700696 -0.1836002 0.4574545 0.8700726 -0.183605 0.4574469 0.8700756 -0.3713908 0.9284766 0.0 -0.3713908 0.9284766 0.0 -0.3713908 0.9284766 0.0 -0.3713908 0.9284766 0.0 -0.9305272 -0.3662227 0.0 -0.9305272 -0.3662227 0.0 -0.9305272 -0.3662227 0.0 -0.9305272 -0.3662227 0.0 0.3736108 -0.9275855 0.0 0.3736108 -0.9275855 0.0 0.3736108 -0.9275855 0.0 0.3736108 -0.9275855 0.0 0.9304866 0.3663259 0.0 0.9304866 0.3663259 0.0 0.9304866 0.3663259 0.0 0.9304866 0.3663259 0.0 0.3911407 -0.9203309 0.0 0.3911407 -0.9203309 0.0 0.3911407 -0.9203309 0.0 0.3911406 -0.9203309 0.0</float_array>
                    <technique_common>
                        <accessor count="50" source="#geometry0-normal-array" stride="3">
                            <param name="X" type="float"/>
                            <param name="Y" type="float"/>
                            <param name="Z" type="float"/>
                        </accessor>
                    </technique_common>
                </source>
                <vertices id="geometry0-vertex">
                    <input semantic="POSITION" source="#geometry0-position"/>
                </vertices>
                <triangles count="22" material="default_ai_0.2_sh_0.2_tr_0.0_dc_r_0.8_g_0.8_b_0.8_sc_r_1.0_g_1.0_b_1.0_ec_r_0.0_g_0.0_b_0_tri">
                    <input offset="0" semantic="VERTEX" source="#geometry0-vertex"/>
                    <input offset="1" semantic="NORMAL" source="#geometry0-normal"/>
                    <p>5 0 12 1 15 2 5 0 15 2 6 3 1 4 4 5 7 6 1 4 7 6 2 7 9 8 0 9 3 10 9 8 3 10 10 11 6 18 15 19 7 20 15 19 14 21 7 20 14 21 11 22 7 20 7 20 11 22 2 23 2 23 11 22 3 24 3 24 11 22 10 25 13 30 8 31 11 32 13 30 11 32 14 33 12 34 13 35 14 36 12 34 14 36 15 37 4 38 5 39 6 40 4 38 6 40 7 41 8 42 9 43 10 44 8 42 10 44 11 45 0 46 1 47 2 48 0 46 2 48 3 49</p>
                </triangles>
                <triangles count="6" material="default_ai_0.2_sh_0.2_tr_0.0_dc_r_1.0_g_0.2_b_0.2_sc_r_1.0_g_1.0_b_1.0_ec_r_0.0_g_0.0_b_0_tri">
                    <input offset="0" semantic="VERTEX" source="#geometry0-vertex"/>
                    <input offset="1" semantic="NORMAL" source="#geometry0-normal"/>
                    <p>0 12 9 13 12 14 4 15 1 16 0 12 4 15 0 12 12 14 4 15 12 14 5 17 9 26 8 27 13 28 9 26 13 28 12 29</p>
                </triangles>
            </mesh>
        </geometry>
    </library_geometries>
    <library_visual_scenes>
        <visual_scene id="Building_DEBW_5221000R0hq">
            <node>
                <instance_geometry url="#geometry0">
                    <bind_material>
                        <technique_common>
                            <instance_material symbol="default_ai_0.2_sh_0.2_tr_0.0_dc_r_0.8_g_0.8_b_0.8_sc_r_1.0_g_1.0_b_1.0_ec_r_0.0_g_0.0_b_0_tri" target="#default_ai_0.2_sh_0.2_tr_0.0_dc_r_0.8_g_0.8_b_0.8_sc_r_1.0_g_1.0_b_1.0_ec_r_0.0_g_0.0_b_0_mat"/>
                            <instance_material symbol="default_ai_0.2_sh_0.2_tr_0.0_dc_r_1.0_g_0.2_b_0.2_sc_r_1.0_g_1.0_b_1.0_ec_r_0.0_g_0.0_b_0_tri" target="#default_ai_0.2_sh_0.2_tr_0.0_dc_r_1.0_g_0.2_b_0.2_sc_r_1.0_g_1.0_b_1.0_ec_r_0.0_g_0.0_b_0_mat"/>
                        </technique_common>
                    </bind_material>
                </instance_geometry>
            </node>
        </visual_scene>
    </library_visual_scenes>
    <scene>
        <instance_visual_scene url="#Building_DEBW_5221000R0hq"/>
    </scene>
</COLLADA>
