<?xml version="1.0" encoding="UTF-8" standalone="yes"?>
<COLLADA xmlns="http://www.collada.org/2005/11/COLLADASchema" version="1.4.1">
    <asset>
        <contributor>
            <authoring_tool>3D City Database Importer/Exporter, version 5.5.3; Chair of Geoinformatics, Technical University of Munich</authoring_tool>
        </contributor>
        <created>2026-05-06T15:12:14.633</created>
        <modified>2026-05-06T15:12:14.633</modified>
        <unit meter="1.0" name="meters"/>
        <up_axis>Z_UP</up_axis>
    </asset>
    <library_materials>
        <material id="default_ai_0.2_sh_0.2_tr_0.0_dc_r_0.8_g_0.8_b_0.8_sc_r_1.0_g_1.0_b_1.0_ec_r_0.0_g_0.0_b_0_mat">
            <instance_effect url="#default_ai_0.2_sh_0.2_tr_0.0_dc_r_0.8_g_0.8_b_0.8_sc_r_1.0_g_1.0_b_1.0_ec_r_0.0_g_0.0_b_0_eff"/>
        </material>
        <material id="default_ai_0.2_sh_0.2_tr_0.0_dc_r_1.0_g_0.2_b_0.2_sc_r_1.0_g_1.0_b_1.0_ec_r_0.0_g_0.0_b_0_mat">
            <instance_effect url="#default_ai_0.2_sh_0.2_tr_0.0_dc_r_1.0_g_0.2_b_0.2_sc_r_1.0_g_1.0_b_1.0_ec_r_0.0_g_0.0_b_0_eff"/>
        </material>
    </library_materials>
    <library_effects>
        <effect id="default_ai_0.2_sh_0.2_tr_0.0_dc_r_0.8_g_0.8_b_0.8_sc_r_1.0_g_1.0_b_1.0_ec_r_0.0_g_0.0_b_0_eff">
            <profile_COMMON>
                <technique sid="COMMON">
                    <lambert>
                        <emission>
                            <color>0.0 0.0 0.0 1.0</color>
                        </emission>
                        <diffuse>
                            <color>0.8 0.8 0.8 1.0</color>
                        </diffuse>
                        <reflective>
                            <color>1.0 1.0 1.0 1.0</color>
                        </reflective>
                        <reflectivity>
                            <float>0.2</float>
                        </reflectivity>
                        <transparent opaque="A_ONE">
                            <color>1.0 1.0 1.0 1.0</color>
                        </transparent>
                        <transparency>
                            <float>1.0</float>
                        </transparency>
                    </lambert>
                </technique>
                <extra>
                    <technique profile="GOOGLEEARTH">
                        <double_sided>0</double_sided>
                    </technique>
                </extra>
            </profile_COMMON>
        </effect>
        <effect id="default_ai_0.2_sh_0.2_tr_0.0_dc_r_1.0_g_0.2_b_0.2_sc_r_1.0_g_1.0_b_1.0_ec_r_0.0_g_0.0_b_0_eff">
            <profile_COMMON>
                <technique sid="COMMON">
                    <lambert>
                        <emission>
                            <color>0.0 0.0 0.0 1.0</color>
                        </emission>
                        <diffuse>
                            <color>1.0 0.2 0.2 1.0</color>
                        </diffuse>
                        <reflective>
                            <color>1.0 1.0 1.0 1.0</color>
                        </reflective>
                        <reflectivity>
                            <float>0.2</float>
                        </reflectivity>
                        <transparent opaque="A_ONE">
                            <color>1.0 1.0 1.0 1.0</color>
                        </transparent>
                        <transparency>
                            <float>1.0</float>
                        </transparency>
                    </lambert>
                </technique>
                <extra>
                    <technique profile="GOOGLEEARTH">
                        <double_sided>0</double_sided>
                    </technique>
                </extra>
            </profile_COMMON>
        </effect>
    </library_effects>
    <library_geometries>
        <geometry id="geometry0">
            <mesh>
                <source id="geometry0-position">
                    <float_array id="geometry0-position-array" count="69">-2.352 -7.166 4.609 0.0 0.0 4.62 0.0 0.0 0.0 -2.352 -7.166 0.0 -2.352 -7.166 3.993 9.96 -7.84 4.557 9.01 -10.76 4.556 9.01 -10.76 0.0 9.96 -7.84 0.0 5.619 -1.835 8.967 5.619 -1.835 0.0 3.298 -8.953 8.967 6.07 -9.83 6.826 11.3 -3.69 4.567 11.3 -3.69 0.0 6.07 -9.83 4.095 6.07 -9.83 0.0 3.298 -8.953 0.0 3.298 -8.953 4.061 -2.56 -7.8 0.0 5.13 -10.32 0.0 -2.56 -7.8 3.241 5.13 -10.32 3.241</float_array>
                    <technique_common>
                        <accessor count="23" source="#geometry0-position-array" stride="3">
                            <param name="X" type="float"/>
                            <param name="Y" type="float"/>
                            <param name="Z" type="float"/>
                        </accessor>
                    </technique_common>
                </source>
                <source id="geometry0-normal">
                    <float_array id="geometry0-normal-array" count="270">-0.3015594 -0.9534474 0.0 -0.3015594 -0.9534474 0.0 -0.3015594 -0.9534474 0.0 -0.3015594 -0.9534474 0.0 0.9516221 -0.3072708 0.0 0.9516221 -0.3072708 0.0 0.9516221 -0.3072708 0.0 0.9516221 -0.3072708 0.0 -0.9501714 0.3117279 0.0 -0.9501714 0.3117279 0.0 -0.9501714 0.3117279 0.0 -0.9501714 0.3117279 0.0 -0.5632755 0.1836548 0.8056002 -0.5632687 0.1836375 0.8056089 -0.5632755 0.1836548 0.8056002 -0.5632824 0.1836721 0.8055915 -0.301597 -0.9534355 0.0 -0.301597 -0.9534355 0.0 -0.301597 -0.9534355 0.0 -0.301597 -0.9534355 0.0 -0.301597 -0.9534355 0.0 -0.3114043 -0.9502775 0.0 -0.3114043 -0.9502775 0.0 -0.3114043 -0.9502775 0.0 -0.3114043 -0.9502775 0.0 -0.3016416 -0.9534214 0.0 -0.3016416 -0.9534214 0.0 -0.3016416 -0.9534214 0.0 -0.3016416 -0.9534214 0.0 0.9509383 -0.3093805 0.0 0.9509383 -0.3093805 0.0 0.9509383 -0.3093805 0.0 0.9509383 -0.3093805 0.0 0.0 0.0 -1.0 0.0 0.0 -1.0 0.0 0.0 -1.0 0.0 0.0 -1.0 0.0 0.0 -1.0 0.5809572 -0.1894191 0.7915864 0.563683 -0.1838028 0.8052813 0.5637075 -0.1838664 0.8052498 0.5636856 -0.183874 0.8052633 0.5979251 -0.1948798 0.7775007 0.6309725 -0.2055383 0.7480828 0.3103987 0.9506065 0.0 0.3103987 0.9506065 0.0 0.3103987 0.9506065 0.0 0.3103987 0.9506065 0.0 -0.3015594 -0.9534474 0.0 -0.3015594 -0.9534475 0.0 -0.3015594 -0.9534474 0.0 -0.3015594 -0.9534474 0.0 0.3104361 0.9505942 0.0 0.3104361 0.9505942 0.0 0.3104361 0.9505942 0.0 0.3104361 0.9505942 0.0 0.4622434 -0.8867531 0.0 0.4622434 -0.8867531 0.0 0.4622434 -0.8867531 0.0 0.4622434 -0.8867531 0.0 0.3016416 0.9534214 0.0 0.3016416 0.9534214 0.0 0.3016416 0.9534214 0.0 0.3016416 0.9534214 0.0 0.3015594 0.9534474 0.0 0.3015594 0.9534474 0.0 0.3015594 0.9534474 0.0 0.3015594 0.9534475 0.0 -0.9501317 0.311849 0.0 -0.9501317 0.311849 0.0 -0.9501317 0.311849 0.0 -0.9501317 0.311849 0.0 -0.9501318 0.311849 0.0 0.0 0.0 -1.0 0.0 0.0 -1.0 0.0 0.0 -1.0 0.0 0.0 -1.0 0.0 0.0 -1.0 0.0 0.0 -1.0 0.0 0.0 -1.0 0.0 0.0 -1.0 -0.3016416 -0.9534215 0.0 -0.3016416 -0.9534214 0.0 -0.3016416 -0.9534215 0.0 -0.3016416 -0.9534215 0.0 -0.2327906 -0.7105528 0.6640205 -0.2329304 -0.7108074 0.663699 -0.2328363 -0.7105312 0.6640275 -0.2327893 -0.7103932 0.6641917 -0.2329277 -0.7104884 0.6640413</float_array>
                    <technique_common>
                        <accessor count="90" source="#geometry0-normal-array" stride="3">
                            <param name="X" type="float"/>
                            <param name="Y" type="float"/>
                            <param name="Z" type="float"/>
                        </accessor>
                    </technique_common>
                </source>
                <vertices id="geometry0-vertex">
                    <input semantic="POSITION" source="#geometry0-position"/>
                </vertices>
                <triangles count="41" material="default_ai_0.2_sh_0.2_tr_0.0_dc_r_0.8_g_0.8_b_0.8_sc_r_1.0_g_1.0_b_1.0_ec_r_0.0_g_0.0_b_0_tri">
                    <input offset="0" semantic="VERTEX" source="#geometry0-vertex"/>
                    <input offset="1" semantic="NORMAL" source="#geometry0-normal"/>
                    <p>0 0 4 1 18 2 0 0 18 2 11 3 13 4 5 5 8 6 13 4 8 6 14 7 21 8 4 9 3 10 21 8 3 10 19 11 16 16 7 17 6 18 15 19 16 16 6 18 15 19 6 18 12 20 22 21 21 22 19 23 22 21 19 23 20 24 18 25 15 26 12 27 18 25 12 27 11 28 5 29 6 30 7 31 5 29 7 31 8 32 16 33 20 34 19 35 16 33 19 35 3 36 16 33 3 36 17 37 9 44 13 45 14 46 9 44 14 46 10 47 17 48 18 49 4 50 17 48 4 50 3 51 1 52 9 53 10 54 1 52 10 54 2 55 15 56 22 57 20 58 15 56 20 58 16 59 16 60 17 61 18 62 16 60 18 62 15 63 17 64 3 65 4 66 17 64 4 66 18 67 2 68 3 69 4 70 2 68 4 70 0 71 2 68 0 71 1 72 14 73 8 74 7 75 14 73 7 75 16 76 14 73 16 76 17 77 14 73 17 77 3 78 10 79 14 73 3 78 10 79 3 78 2 80 17 81 16 82 15 83 17 81 15 83 18 84</p>
                </triangles>
                <triangles count="9" material="default_ai_0.2_sh_0.2_tr_0.0_dc_r_1.0_g_0.2_b_0.2_sc_r_1.0_g_1.0_b_1.0_ec_r_0.0_g_0.0_b_0_tri">
                    <input offset="0" semantic="VERTEX" source="#geometry0-vertex"/>
                    <input offset="1" semantic="NORMAL" source="#geometry0-normal"/>
                    <p>9 12 1 13 0 14 9 12 0 14 11 15 13 38 9 39 11 40 13 38 11 40 12 41 13 38 12 41 6 42 13 38 6 42 5 43 4 85 21 86 22 87 18 88 4 85 22 87 18 88 22 87 15 89</p>
                </triangles>
            </mesh>
        </geometry>
    </library_geometries>
    <library_visual_scenes>
        <visual_scene id="Building_DEBW_5221000Qg7k">
            <node>
                <instance_geometry url="#geometry0">
                    <bind_material>
                        <technique_common>
                            <instance_material symbol="default_ai_0.2_sh_0.2_tr_0.0_dc_r_0.8_g_0.8_b_0.8_sc_r_1.0_g_1.0_b_1.0_ec_r_0.0_g_0.0_b_0_tri" target="#default_ai_0.2_sh_0.2_tr_0.0_dc_r_0.8_g_0.8_b_0.8_sc_r_1.0_g_1.0_b_1.0_ec_r_0.0_g_0.0_b_0_mat"/>
                            <instance_material symbol="default_ai_0.2_sh_0.2_tr_0.0_dc_r_1.0_g_0.2_b_0.2_sc_r_1.0_g_1.0_b_1.0_ec_r_0.0_g_0.0_b_0_tri" target="#default_ai_0.2_sh_0.2_tr_0.0_dc_r_1.0_g_0.2_b_0.2_sc_r_1.0_g_1.0_b_1.0_ec_r_0.0_g_0.0_b_0_mat"/>
                        </technique_common>
                    </bind_material>
                </instance_geometry>
            </node>
        </visual_scene>
    </library_visual_scenes>
    <scene>
        <instance_visual_scene url="#Building_DEBW_5221000Qg7k"/>
    </scene>
</COLLADA>
