<?xml version="1.0" encoding="UTF-8" standalone="yes"?>
<COLLADA xmlns="http://www.collada.org/2005/11/COLLADASchema" version="1.4.1">
    <asset>
        <contributor>
            <authoring_tool>3D City Database Importer/Exporter, version 5.5.3; Chair of Geoinformatics, Technical University of Munich</authoring_tool>
        </contributor>
        <created>2026-05-06T15:12:14.636</created>
        <modified>2026-05-06T15:12:14.636</modified>
        <unit meter="1.0" name="meters"/>
        <up_axis>Z_UP</up_axis>
    </asset>
    <library_materials>
        <material id="default_ai_0.2_sh_0.2_tr_0.0_dc_r_0.8_g_0.8_b_0.8_sc_r_1.0_g_1.0_b_1.0_ec_r_0.0_g_0.0_b_0_mat">
            <instance_effect url="#default_ai_0.2_sh_0.2_tr_0.0_dc_r_0.8_g_0.8_b_0.8_sc_r_1.0_g_1.0_b_1.0_ec_r_0.0_g_0.0_b_0_eff"/>
        </material>
        <material id="default_ai_0.2_sh_0.2_tr_0.0_dc_r_1.0_g_0.2_b_0.2_sc_r_1.0_g_1.0_b_1.0_ec_r_0.0_g_0.0_b_0_mat">
            <instance_effect url="#default_ai_0.2_sh_0.2_tr_0.0_dc_r_1.0_g_0.2_b_0.2_sc_r_1.0_g_1.0_b_1.0_ec_r_0.0_g_0.0_b_0_eff"/>
        </material>
    </library_materials>
    <library_effects>
        <effect id="default_ai_0.2_sh_0.2_tr_0.0_dc_r_0.8_g_0.8_b_0.8_sc_r_1.0_g_1.0_b_1.0_ec_r_0.0_g_0.0_b_0_eff">
            <profile_COMMON>
                <technique sid="COMMON">
                    <lambert>
                        <emission>
                            <color>0.0 0.0 0.0 1.0</color>
                        </emission>
                        <diffuse>
                            <color>0.8 0.8 0.8 1.0</color>
                        </diffuse>
                        <reflective>
                            <color>1.0 1.0 1.0 1.0</color>
                        </reflective>
                        <reflectivity>
                            <float>0.2</float>
                        </reflectivity>
                        <transparent opaque="A_ONE">
                            <color>1.0 1.0 1.0 1.0</color>
                        </transparent>
                        <transparency>
                            <float>1.0</float>
                        </transparency>
                    </lambert>
                </technique>
                <extra>
                    <technique profile="GOOGLEEARTH">
                        <double_sided>0</double_sided>
                    </technique>
                </extra>
            </profile_COMMON>
        </effect>
        <effect id="default_ai_0.2_sh_0.2_tr_0.0_dc_r_1.0_g_0.2_b_0.2_sc_r_1.0_g_1.0_b_1.0_ec_r_0.0_g_0.0_b_0_eff">
            <profile_COMMON>
                <technique sid="COMMON">
                    <lambert>
                        <emission>
                            <color>0.0 0.0 0.0 1.0</color>
                        </emission>
                        <diffuse>
                            <color>1.0 0.2 0.2 1.0</color>
                        </diffuse>
                        <reflective>
                            <color>1.0 1.0 1.0 1.0</color>
                        </reflective>
                        <reflectivity>
                            <float>0.2</float>
                        </reflectivity>
                        <transparent opaque="A_ONE">
                            <color>1.0 1.0 1.0 1.0</color>
                        </transparent>
                        <transparency>
                            <float>1.0</float>
                        </transparency>
                    </lambert>
                </technique>
                <extra>
                    <technique profile="GOOGLEEARTH">
                        <double_sided>0</double_sided>
                    </technique>
                </extra>
            </profile_COMMON>
        </effect>
    </library_effects>
    <library_geometries>
        <geometry id="geometry0">
            <mesh>
                <source id="geometry0-position">
                    <float_array id="geometry0-position-array" count="120">0.67 -1.78 13.104 0.0 0.0 14.359 0.0 0.0 14.207 0.0 0.0 0.0 0.67 -1.78 0.0 15.014 3.708 13.139 14.361 5.437 14.359 5.95 0.24 13.117 15.014 3.708 0.0 14.361 5.437 0.0 14.361 5.437 14.207 5.95 0.24 0.0 8.659 16.651 0.0 11.87 8.33 0.0 13.02 5.35 0.0 14.22 5.81 0.0 -3.46 -1.31 0.0 -8.0 10.44 0.0 11.87 8.33 12.557 13.02 5.35 14.027 -8.0 10.44 8.412 -3.46 -1.31 14.207 14.22 5.81 14.024 8.659 16.651 8.453 8.659 16.651 8.462 9.89 17.11 8.462 9.89 17.11 0.0 13.05 8.77 12.587 11.87 8.33 12.587 13.05 8.77 0.0 14.8 -6.69 6.923 9.39 -8.74 6.935 9.39 -8.74 0.0 14.8 -6.69 0.0 18.78 -6.27 6.258 15.21 -7.69 6.226 15.21 -7.69 0.0 18.78 -6.27 0.0 15.014 3.708 13.143 5.95 0.24 13.143</float_array>
                    <technique_common>
                        <accessor count="40" source="#geometry0-position-array" stride="3">
                            <param name="X" type="float"/>
                            <param name="Y" type="float"/>
                            <param name="Z" type="float"/>
                        </accessor>
                    </technique_common>
                </source>
                <source id="geometry0-normal">
                    <float_array id="geometry0-normal-array" count="474">-0.3540691 0.9352193 0.0 -0.3540691 0.9352193 0.0 -0.3540691 0.9352193 0.0 -0.3540691 0.9352193 0.0 0.3540838 -0.9352137 0.0 0.3540838 -0.9352137 0.0 0.3540838 -0.9352137 0.0 0.3540838 -0.9352137 0.0 -0.357349 0.9339709 0.0 -0.357349 0.9339709 0.0 -0.357349 0.9339709 0.0 -0.3573489 0.9339709 0.0 -0.1480121 0.3908907 0.9084585 -0.1479916 0.3909428 0.9084395 -0.1479991 0.3909029 0.9084554 -0.1479833 0.3908291 0.9084897 -0.1477842 0.3902781 0.908759 -0.1475677 0.3900851 0.908877 -0.1473065 0.3896465 0.9091076 -0.1473106 0.3902162 0.9088624 -0.9358963 -0.3522756 0.0 -0.9358963 -0.3522756 0.0 -0.9358963 -0.3522757 0.0 -0.9358962 -0.3522757 0.0 -0.9358963 -0.3522758 0.0 -0.9338272 -0.3577245 0.0 -0.9338272 -0.3577245 0.0 -0.9338273 -0.3577244 0.0 -0.9338273 -0.3577244 0.0 -0.9338272 -0.3577242 0.0 -0.2560793 0.664837 0.701723 -0.2560793 0.664837 0.701723 -0.2560793 0.664837 0.701723 0.195044 -0.5151435 0.8346167 0.1950804 -0.5152046 0.8345705 0.195044 -0.5151435 0.8346167 0.1950075 -0.5150824 0.8346629 0.3540691 -0.9352192 0.0 0.3540691 -0.9352192 0.0 0.3540691 -0.9352192 0.0 0.3540691 -0.9352192 0.0 0.193386 -0.5065759 0.8402278 0.1939392 -0.5065123 0.8401386 0.1935287 -0.5065689 0.8401991 0.1934864 -0.5065838 0.8401999 0.1938131 -0.5065559 0.8401414 0.1938121 -0.506557 0.840141 -0.1466667 0.3933403 0.907619 -0.1466648 0.3933414 0.9076189 -0.1466667 0.3933403 0.907619 -0.1466687 0.3933393 0.9076192 0.9329463 0.3600156 0.0 0.9329463 0.3600156 0.0 0.9329463 0.3600156 0.0 0.9329463 0.3600157 0.0 0.9355039 0.3533164 0.0 0.9355039 0.3533164 0.0 0.9355039 0.3533164 0.0 0.9355039 0.3533164 0.0 0.9355039 0.3533164 0.0 0.3543415 -0.9351161 0.0 0.3543415 -0.9351161 0.0 0.3543415 -0.9351161 0.0 0.3543415 -0.9351161 0.0 -0.3493414 0.9369955 0.0 -0.3493414 0.9369955 0.0 -0.3493414 0.9369955 0.0 -0.3493414 0.9369955 0.0 -0.925252 -0.3793532 0.0 -0.925252 -0.3793532 0.0 -0.925252 -0.3793532 0.0 -0.925252 -0.3793532 0.0 0.0 0.0 -1.0 0.0 0.0 -1.0 0.0 0.0 -1.0 0.0 0.0 -1.0 0.3573191 -0.9339824 0.0 0.357319 -0.9339824 0.0 0.3573191 -0.9339824 0.0 0.3573191 -0.9339824 0.0 0.3695949 -0.929193 0.0 0.3695949 -0.929193 0.0 0.3695949 -0.929193 0.0 0.3695949 -0.929193 0.0 -0.9327921 -0.360415 0.0 -0.9327921 -0.360415 0.0 -0.9327921 -0.360415 0.0 -0.9327921 -0.360415 0.0 0.9351257 0.3543162 0.0 0.9351256 0.3543162 0.0 0.9351257 0.3543162 0.0 0.9351257 0.3543162 0.0 -0.9329463 -0.3600157 0.0 -0.9329463 -0.3600156 0.0 -0.9329463 -0.3600157 0.0 -0.9329463 -0.3600157 0.0 0.0 0.0 -1.0 0.0 0.0 -1.0 0.0 0.0 -1.0 0.0 0.0 -1.0 0.0 0.0 -1.0 0.0 0.0 -1.0 0.0 0.0 -1.0 0.0 0.0 -1.0 -0.357349 0.9339709 0.0 -0.357349 0.9339709 0.0 -0.357349 0.9339709 0.0 -0.357349 0.9339709 0.0 0.9353986 0.3535951 0.0 0.9353986 0.353595 0.0 0.9353986 0.3535951 0.0 0.9353986 0.353595 0.0 -0.9329463 -0.3600157 0.0 -0.9329463 -0.3600157 0.0 -0.9329463 -0.3600157 0.0 -0.9329463 -0.3600157 0.0 0.0 0.0 -1.0 0.0 0.0 -1.0 0.0 0.0 -1.0 0.0 0.0 -1.0 0.0 0.0 -1.0 0.9355795 0.3531162 0.0 0.9355795 0.3531162 0.0 0.9355795 0.3531162 0.0 0.9355795 0.3531161 0.0 0.9355795 0.3531161 0.0 0.357349 -0.9339709 0.0 0.3573489 -0.9339709 0.0 0.357349 -0.9339709 0.0 0.357349 -0.9339709 0.0 0.0 0.0 -1.0 0.0 0.0 -1.0 0.0 0.0 -1.0 0.0 0.0 -1.0 0.0 0.0 -1.0 0.0 0.0 -1.0 -0.3493721 0.9369841 0.0 -0.3493722 0.9369841 0.0 -0.3493722 0.9369841 0.0 -0.3493721 0.9369841 0.0 -0.3493721 0.9369841 0.0 0.3493827 -0.9369801 0.0 0.3493827 -0.9369801 0.0 0.3493828 -0.9369801 0.0 0.3493827 -0.9369801 0.0 0.3493827 -0.9369801 0.0 -0.3540691 0.9352192 0.0 -0.3540691 0.9352192 0.0 -0.3540691 0.9352192 0.0 -0.3540691 0.9352192 0.0 -0.3579361 0.9337461 0.0 -0.3579361 0.9337462 0.0 -0.3579361 0.9337461 0.0 -0.3579361 0.9337461 0.0 0.9329416 0.360028 0.0 0.9329416 0.3600279 0.0 0.9329416 0.360028 0.0 0.9329416 0.360028 0.0</float_array>
                    <technique_common>
                        <accessor count="158" source="#geometry0-normal-array" stride="3">
                            <param name="X" type="float"/>
                            <param name="Y" type="float"/>
                            <param name="Z" type="float"/>
                        </accessor>
                    </technique_common>
                </source>
                <vertices id="geometry0-vertex">
                    <input semantic="POSITION" source="#geometry0-position"/>
                </vertices>
                <triangles count="73" material="default_ai_0.2_sh_0.2_tr_0.0_dc_r_0.8_g_0.8_b_0.8_sc_r_1.0_g_1.0_b_1.0_ec_r_0.0_g_0.0_b_0_tri">
                    <input offset="0" semantic="VERTEX" source="#geometry0-vertex"/>
                    <input offset="1" semantic="NORMAL" source="#geometry0-normal"/>
                    <p>10 0 2 1 1 2 10 0 1 2 6 3 2 4 21 5 16 6 2 4 16 6 3 7 5 8 8 9 11 10 5 8 11 10 7 11 3 20 4 21 0 22 2 23 3 20 0 22 2 23 0 22 1 24 11 25 32 26 31 27 7 28 11 25 31 27 7 28 31 27 39 29 3 37 9 38 10 39 3 37 10 39 2 40 13 51 12 52 23 53 13 51 23 53 18 54 8 55 9 56 10 57 8 55 10 57 6 58 8 55 6 58 5 59 30 60 31 61 32 62 30 60 32 62 33 63 20 64 23 65 12 66 20 64 12 66 17 67 35 68 30 69 33 70 35 68 33 70 36 71 13 72 12 73 26 74 13 72 26 74 29 75 7 76 0 77 4 78 7 76 4 78 11 79 34 80 35 81 36 82 34 80 36 82 37 83 21 84 20 85 17 86 21 84 17 86 16 87 25 88 27 89 29 90 25 88 29 90 26 91 23 92 12 93 13 94 23 92 13 94 18 95 16 96 17 97 12 98 16 96 12 98 13 99 16 96 13 99 14 100 16 96 14 100 15 101 3 102 16 96 15 101 3 102 15 101 9 103 5 104 7 105 39 106 5 104 39 106 38 107 22 108 10 109 9 110 22 108 9 110 15 111 24 112 23 113 18 114 24 112 18 114 28 115 9 116 8 117 11 118 9 116 11 118 4 119 9 116 4 119 3 120 37 121 8 122 5 123 37 121 5 123 38 124 37 121 38 124 34 125 7 126 11 127 8 128 7 126 8 128 5 129 11 130 8 131 37 132 33 133 32 134 11 130 33 133 11 130 37 132 33 133 37 132 36 135 26 136 12 137 23 138 26 136 23 138 24 139 26 136 24 139 25 140 13 141 29 142 27 143 18 144 13 141 27 143 18 144 27 143 28 145 10 146 9 147 3 148 10 146 3 148 2 149 19 150 22 151 15 152 19 150 15 152 14 153 18 154 19 155 14 156 18 154 14 156 13 157</p>
                </triangles>
                <triangles count="15" material="default_ai_0.2_sh_0.2_tr_0.0_dc_r_1.0_g_0.2_b_0.2_sc_r_1.0_g_1.0_b_1.0_ec_r_0.0_g_0.0_b_0_tri">
                    <input offset="0" semantic="VERTEX" source="#geometry0-vertex"/>
                    <input offset="1" semantic="NORMAL" source="#geometry0-normal"/>
                    <p>18 12 23 13 20 14 18 12 20 14 21 15 18 12 21 15 2 16 19 17 18 12 2 16 19 17 2 16 10 18 19 17 10 18 22 19 0 30 7 31 5 32 0 33 5 34 6 35 0 33 6 35 1 36 35 41 34 42 38 43 30 44 35 41 38 43 30 44 38 43 39 45 30 44 39 45 31 46 27 47 25 48 24 49 27 47 24 49 28 50</p>
                </triangles>
            </mesh>
        </geometry>
    </library_geometries>
    <library_visual_scenes>
        <visual_scene id="Building_DEBW_5221000Qg8z">
            <node>
                <instance_geometry url="#geometry0">
                    <bind_material>
                        <technique_common>
                            <instance_material symbol="default_ai_0.2_sh_0.2_tr_0.0_dc_r_0.8_g_0.8_b_0.8_sc_r_1.0_g_1.0_b_1.0_ec_r_0.0_g_0.0_b_0_tri" target="#default_ai_0.2_sh_0.2_tr_0.0_dc_r_0.8_g_0.8_b_0.8_sc_r_1.0_g_1.0_b_1.0_ec_r_0.0_g_0.0_b_0_mat"/>
                            <instance_material symbol="default_ai_0.2_sh_0.2_tr_0.0_dc_r_1.0_g_0.2_b_0.2_sc_r_1.0_g_1.0_b_1.0_ec_r_0.0_g_0.0_b_0_tri" target="#default_ai_0.2_sh_0.2_tr_0.0_dc_r_1.0_g_0.2_b_0.2_sc_r_1.0_g_1.0_b_1.0_ec_r_0.0_g_0.0_b_0_mat"/>
                        </technique_common>
                    </bind_material>
                </instance_geometry>
            </node>
        </visual_scene>
    </library_visual_scenes>
    <scene>
        <instance_visual_scene url="#Building_DEBW_5221000Qg8z"/>
    </scene>
</COLLADA>
