<?xml version="1.0" encoding="UTF-8" standalone="yes"?>
<COLLADA xmlns="http://www.collada.org/2005/11/COLLADASchema" version="1.4.1">
    <asset>
        <contributor>
            <authoring_tool>3D City Database Importer/Exporter, version 5.5.3; Chair of Geoinformatics, Technical University of Munich</authoring_tool>
        </contributor>
        <created>2026-05-06T15:12:05.127</created>
        <modified>2026-05-06T15:12:05.127</modified>
        <unit meter="1.0" name="meters"/>
        <up_axis>Z_UP</up_axis>
    </asset>
    <library_materials>
        <material id="default_ai_0.2_sh_0.2_tr_0.0_dc_r_0.8_g_0.8_b_0.8_sc_r_1.0_g_1.0_b_1.0_ec_r_0.0_g_0.0_b_0_mat">
            <instance_effect url="#default_ai_0.2_sh_0.2_tr_0.0_dc_r_0.8_g_0.8_b_0.8_sc_r_1.0_g_1.0_b_1.0_ec_r_0.0_g_0.0_b_0_eff"/>
        </material>
        <material id="default_ai_0.2_sh_0.2_tr_0.0_dc_r_1.0_g_0.2_b_0.2_sc_r_1.0_g_1.0_b_1.0_ec_r_0.0_g_0.0_b_0_mat">
            <instance_effect url="#default_ai_0.2_sh_0.2_tr_0.0_dc_r_1.0_g_0.2_b_0.2_sc_r_1.0_g_1.0_b_1.0_ec_r_0.0_g_0.0_b_0_eff"/>
        </material>
    </library_materials>
    <library_effects>
        <effect id="default_ai_0.2_sh_0.2_tr_0.0_dc_r_0.8_g_0.8_b_0.8_sc_r_1.0_g_1.0_b_1.0_ec_r_0.0_g_0.0_b_0_eff">
            <profile_COMMON>
                <technique sid="COMMON">
                    <lambert>
                        <emission>
                            <color>0.0 0.0 0.0 1.0</color>
                        </emission>
                        <diffuse>
                            <color>0.8 0.8 0.8 1.0</color>
                        </diffuse>
                        <reflective>
                            <color>1.0 1.0 1.0 1.0</color>
                        </reflective>
                        <reflectivity>
                            <float>0.2</float>
                        </reflectivity>
                        <transparent opaque="A_ONE">
                            <color>1.0 1.0 1.0 1.0</color>
                        </transparent>
                        <transparency>
                            <float>1.0</float>
                        </transparency>
                    </lambert>
                </technique>
                <extra>
                    <technique profile="GOOGLEEARTH">
                        <double_sided>0</double_sided>
                    </technique>
                </extra>
            </profile_COMMON>
        </effect>
        <effect id="default_ai_0.2_sh_0.2_tr_0.0_dc_r_1.0_g_0.2_b_0.2_sc_r_1.0_g_1.0_b_1.0_ec_r_0.0_g_0.0_b_0_eff">
            <profile_COMMON>
                <technique sid="COMMON">
                    <lambert>
                        <emission>
                            <color>0.0 0.0 0.0 1.0</color>
                        </emission>
                        <diffuse>
                            <color>1.0 0.2 0.2 1.0</color>
                        </diffuse>
                        <reflective>
                            <color>1.0 1.0 1.0 1.0</color>
                        </reflective>
                        <reflectivity>
                            <float>0.2</float>
                        </reflectivity>
                        <transparent opaque="A_ONE">
                            <color>1.0 1.0 1.0 1.0</color>
                        </transparent>
                        <transparency>
                            <float>1.0</float>
                        </transparency>
                    </lambert>
                </technique>
                <extra>
                    <technique profile="GOOGLEEARTH">
                        <double_sided>0</double_sided>
                    </technique>
                </extra>
            </profile_COMMON>
        </effect>
    </library_effects>
    <library_geometries>
        <geometry id="geometry0">
            <mesh>
                <source id="geometry0-position">
                    <float_array id="geometry0-position-array" count="132">5.57 0.69 7.1 0.0 0.0 7.1 0.0 0.0 0.0 5.57 0.69 0.0 5.57 0.69 6.653 -0.09 0.68 7.1 -0.09 0.68 7.652 -0.51 3.85 10.102 -0.51 3.85 7.1 -0.09 0.68 0.0 -1.13 8.51 7.1 5.63 9.38 7.1 5.63 9.38 0.0 -1.13 8.51 0.0 -0.51 3.85 0.0 -0.563 4.248 10.41 -1.13 8.51 7.381 5.63 9.38 7.371 8.55 9.76 7.1 8.55 9.76 0.0 12.12 10.221 7.1 12.12 10.221 7.357 12.674 5.923 10.41 13.225 1.638 7.1 8.55 9.76 7.363 5.57 0.69 7.116 0.0 0.0 7.127 13.225 1.638 6.653 13.225 1.638 0.0 12.12 10.221 0.0 11.93 11.7 6.615 8.35 11.24 6.615 8.36 11.19 6.635 8.55 9.76 7.209 12.12 10.221 7.208 8.36 11.19 0.0 11.93 11.7 0.0 8.35 11.24 0.0 5.969 0.38 7.073 5.66 -0.02 6.653 12.937 1.267 7.045 13.31 0.98 6.653 5.66 -0.02 0.0 13.31 0.98 0.0</float_array>
                    <technique_common>
                        <accessor count="44" source="#geometry0-position-array" stride="3">
                            <param name="X" type="float"/>
                            <param name="Y" type="float"/>
                            <param name="Z" type="float"/>
                        </accessor>
                    </technique_common>
                </source>
                <source id="geometry0-normal">
                    <float_array id="geometry0-normal-array" count="510">0.1229018 -0.9924189 0.0 0.1229018 -0.9924189 0.0 0.1229018 -0.9924189 0.0 0.1229018 -0.9924189 0.0 -0.047124 0.3666051 0.9291825 -0.0470691 0.3665206 0.9292186 -0.0469609 0.3653837 0.9296717 -0.0469068 0.3648151 0.9298977 -0.0466346 0.362939 0.9306452 -0.1290489 0.9916382 0.0 -0.1290489 0.9916382 0.0 -0.1290489 0.9916382 0.0 -0.1290488 0.9916382 0.0 0.1229018 -0.9924188 0.0 0.1229018 -0.9924188 0.0 0.1229018 -0.9924188 0.0 0.1229018 -0.9924188 0.0 0.1229382 -0.9924144 0.0 0.1229382 -0.9924144 0.0 0.1229382 -0.9924144 0.0 0.1229382 -0.9924143 0.0 0.1229382 -0.9924144 0.0 0.0 0.0 -1.0 0.0 0.0 -1.0 0.0 0.0 -1.0 0.0 0.0 -1.0 0.0 0.0 -1.0 0.0 0.0 -1.0 0.0 0.0 -1.0 0.0 0.0 -1.0 0.0 0.0 -1.0 0.7557011 0.097621 0.6476002 0.7557011 0.097621 0.6476002 0.7557011 0.097621 0.6476002 -0.991265 -0.131885 0.0 -0.991265 -0.131885 0.0 -0.991265 -0.131885 0.0 -0.991265 -0.131885 0.0 0.0763798 -0.6033607 0.7938023 0.0763065 -0.6033778 0.7937962 0.0763411 -0.6033267 0.7938318 0.076207 -0.6031527 0.7939769 0.0762205 -0.6031982 0.793941 0.0763694 -0.6036115 0.7936125 0.0764093 -0.6038392 0.7934355 0.1229382 -0.9924143 0.0 0.1229382 -0.9924143 0.0 0.1229382 -0.9924143 0.0 0.1229382 -0.9924143 0.0 0.0 0.0 -1.0 0.0 0.0 -1.0 0.0 0.0 -1.0 0.0 0.0 -1.0 0.0 0.0 -1.0 -0.9912883 -0.1317101 0.0 -0.9912883 -0.1317101 0.0 -0.9912883 -0.1317101 0.0 -0.9912883 -0.1317101 0.0 -0.9912883 -0.1317101 0.0 -0.1280682 0.9917654 0.0 -0.1280682 0.9917654 0.0 -0.1280682 0.9917654 0.0 -0.1280682 0.9917654 0.0 -0.9913368 -0.1313443 0.0 -0.9913369 -0.1313443 0.0 -0.9913368 -0.1313443 0.0 -0.9913368 -0.1313443 0.0 -0.0936921 0.7564982 0.6472498 -0.0937061 0.7565557 0.6471804 -0.0936921 0.7564982 0.6472498 -0.0936781 0.7564406 0.6473191 -0.9913548 -0.1312087 0.0 -0.9913548 -0.1312087 0.0 -0.9913548 -0.1312087 0.0 -0.9913548 -0.1312087 0.0 -0.1280682 0.9917654 0.0 -0.1280682 0.9917654 0.0 -0.1280682 0.9917654 0.0 -0.1280682 0.9917654 0.0 -0.9912617 -0.1319099 -4.33E-5 -0.991265 -0.131885 0.0 -0.991265 -0.131885 0.0 -0.9912617 -0.1319099 -4.33E-5 -0.9912584 -0.1319347 -8.66E-5 -0.9805835 -0.1961017 0.0 -0.9805835 -0.1961018 0.0 -0.9805835 -0.1961017 0.0 -0.9805836 -0.1961018 0.0 0.1280682 -0.9917654 0.0 0.1280682 -0.9917654 0.0 0.1280682 -0.9917654 0.0 0.1280682 -0.9917654 0.0 0.9917594 0.1281149 0.0 0.9917594 0.1281149 0.0 0.9917594 0.1281149 0.0 0.9917594 0.1281149 0.0 0.1229018 -0.9924188 0.0 0.1229018 -0.9924188 0.0 0.1229018 -0.9924188 0.0 0.1280682 -0.9917654 0.0 0.1280682 -0.9917654 0.0 0.1280682 -0.9917654 0.0 0.1280682 -0.9917653 0.0 -0.7560253 -0.0958339 0.6474888 -0.7560253 -0.0958339 0.6474888 -0.7560253 -0.0958339 0.6474888 -0.1290488 0.9916382 0.0 -0.1290488 0.9916382 0.0 -0.1290488 0.9916382 0.0 -0.1290488 0.9916382 0.0 0.9918143 0.1276891 0.0 0.9918143 0.1276891 0.0 0.9918143 0.1276891 0.0 0.9918143 0.1276891 0.0 0.9918143 0.127689 0.0 -0.1276454 0.9918199 0.0 -0.1276454 0.9918199 0.0 -0.1276454 0.9918199 0.0 -0.1276454 0.9918199 0.0 -0.0722921 0.5714043 0.8174784 -0.0724068 0.571361 0.8174986 -0.072274 0.5714587 0.8174419 -0.0722301 0.5714401 0.8174589 -0.0723102 0.5713499 0.8175149 -0.0723015 0.571376 0.8174974 -0.9913548 -0.1312087 0.0 -0.9913548 -0.1312087 0.0 -0.9913548 -0.1312087 0.0 -0.9913548 -0.1312087 0.0 0.0988084 -0.7558331 0.6472659 0.098823 -0.7558936 0.6471931 0.0988084 -0.7558331 0.6472659 0.0987938 -0.7557728 0.6473386 -0.1274439 0.9918458 0.0 -0.1274439 0.9918458 0.0 -0.1274439 0.9918458 0.0 -0.1274439 0.9918458 0.0 -0.9920615 -0.1257538 0.0 -0.9920615 -0.1257538 0.0 -0.9920615 -0.1257538 0.0 -0.9920615 -0.1257538 0.0 0.0 0.0 -1.0 0.0 0.0 -1.0 0.0 0.0 -1.0 0.0 0.0 -1.0 -0.1276454 0.9918199 0.0 -0.1276454 0.9918199 0.0 -0.1276454 0.9918199 0.0 -0.1276454 0.9918199 0.0 0.9918046 0.1277643 -9.93E-5 0.9917948 0.1278395 0.0 0.9918046 0.1277643 -9.93E-5 0.9918143 0.1276891 -1.986E-4 0.1296162 -0.9915642 0.0 0.1296162 -0.9915642 0.0 0.1296162 -0.9915642 0.0 0.1296162 -0.9915642 0.0 -0.1229018 0.9924188 0.0 -0.1229018 0.9924188 0.0 -0.1229018 0.9924188 0.0 -0.1229018 0.9924188 0.0 -0.9913368 -0.1313443 0.0 -0.9913368 -0.1313443 0.0 -0.9913368 -0.1313443 0.0 -0.9913368 -0.1313443 0.0 0.9918491 0.1274178 0.0 0.9918491 0.1274178 0.0 0.9918492 0.1274178 0.0 0.9918491 0.1274178 0.0 0.9918491 0.1274178 0.0</float_array>
                    <technique_common>
                        <accessor count="170" source="#geometry0-normal-array" stride="3">
                            <param name="X" type="float"/>
                            <param name="Y" type="float"/>
                            <param name="Z" type="float"/>
                        </accessor>
                    </technique_common>
                </source>
                <vertices id="geometry0-vertex">
                    <input semantic="POSITION" source="#geometry0-position"/>
                </vertices>
                <triangles count="74" material="default_ai_0.2_sh_0.2_tr_0.0_dc_r_0.8_g_0.8_b_0.8_sc_r_1.0_g_1.0_b_1.0_ec_r_0.0_g_0.0_b_0_tri">
                    <input offset="0" semantic="VERTEX" source="#geometry0-vertex"/>
                    <input offset="1" semantic="NORMAL" source="#geometry0-normal"/>
                    <p>4 0 27 1 23 2 4 0 23 2 0 3 11 9 17 10 24 11 11 9 24 11 18 12 4 13 3 14 28 15 4 13 28 15 27 16 2 17 3 18 4 19 2 17 4 19 0 20 2 17 0 20 1 21 2 22 9 23 3 24 3 24 9 23 28 25 28 25 9 23 29 26 29 26 9 23 19 27 19 27 9 23 12 28 9 23 14 29 12 28 12 28 14 29 13 30 8 34 10 35 13 36 8 34 13 36 14 37 0 45 25 46 26 47 0 45 26 47 1 48 37 49 36 50 29 51 35 52 37 49 29 51 35 52 29 51 19 53 35 54 19 55 18 56 35 54 18 56 33 57 35 54 33 57 32 58 29 59 19 60 18 61 29 59 18 61 20 62 5 63 6 64 7 65 5 63 7 65 8 66 1 71 26 72 6 73 1 71 6 73 5 74 18 75 24 76 21 77 18 75 21 77 20 78 16 79 10 80 8 81 16 79 8 81 7 82 16 79 7 82 15 83 32 84 31 85 37 86 32 84 37 86 35 87 18 88 19 89 29 90 18 88 29 90 20 91 27 92 41 93 43 94 27 92 43 94 28 95 23 96 25 97 0 98 18 99 20 100 34 101 18 99 34 101 33 102 11 106 18 107 19 108 11 106 19 108 12 109 28 110 29 111 20 112 27 113 28 110 20 112 27 113 20 112 23 114 10 115 16 116 17 117 10 115 17 117 11 118 1 125 5 126 9 127 1 125 9 127 2 128 31 133 30 134 36 135 31 133 36 135 37 136 39 137 4 138 3 139 39 137 3 139 42 140 28 141 43 142 42 143 28 141 42 143 3 144 10 145 11 146 12 147 10 145 12 147 13 148 20 149 21 150 22 151 20 149 22 151 23 152 41 153 39 154 42 155 41 153 42 155 43 156 28 157 3 158 4 159 28 157 4 159 27 160 5 161 8 162 14 163 5 161 14 163 9 164 29 165 36 166 30 167 20 168 29 165 30 167 20 168 30 167 34 169</p>
                </triangles>
                <triangles count="18" material="default_ai_0.2_sh_0.2_tr_0.0_dc_r_1.0_g_0.2_b_0.2_sc_r_1.0_g_1.0_b_1.0_ec_r_0.0_g_0.0_b_0_tri">
                    <input offset="0" semantic="VERTEX" source="#geometry0-vertex"/>
                    <input offset="1" semantic="NORMAL" source="#geometry0-normal"/>
                    <p>33 4 34 5 30 6 32 7 33 4 30 6 32 7 30 6 31 8 40 31 41 32 27 33 23 38 22 39 25 40 25 40 22 39 26 41 26 41 22 39 6 42 6 42 22 39 7 43 7 43 22 39 15 44 38 67 40 68 27 69 38 67 27 69 4 70 38 103 4 104 39 105 22 119 21 120 24 121 22 119 24 121 17 122 22 119 17 122 16 123 22 119 16 123 15 124 40 129 38 130 39 131 40 129 39 131 41 132</p>
                </triangles>
            </mesh>
        </geometry>
    </library_geometries>
    <library_visual_scenes>
        <visual_scene id="Building_DEBW_5221000QhQ4">
            <node>
                <instance_geometry url="#geometry0">
                    <bind_material>
                        <technique_common>
                            <instance_material symbol="default_ai_0.2_sh_0.2_tr_0.0_dc_r_0.8_g_0.8_b_0.8_sc_r_1.0_g_1.0_b_1.0_ec_r_0.0_g_0.0_b_0_tri" target="#default_ai_0.2_sh_0.2_tr_0.0_dc_r_0.8_g_0.8_b_0.8_sc_r_1.0_g_1.0_b_1.0_ec_r_0.0_g_0.0_b_0_mat"/>
                            <instance_material symbol="default_ai_0.2_sh_0.2_tr_0.0_dc_r_1.0_g_0.2_b_0.2_sc_r_1.0_g_1.0_b_1.0_ec_r_0.0_g_0.0_b_0_tri" target="#default_ai_0.2_sh_0.2_tr_0.0_dc_r_1.0_g_0.2_b_0.2_sc_r_1.0_g_1.0_b_1.0_ec_r_0.0_g_0.0_b_0_mat"/>
                        </technique_common>
                    </bind_material>
                </instance_geometry>
            </node>
        </visual_scene>
    </library_visual_scenes>
    <scene>
        <instance_visual_scene url="#Building_DEBW_5221000QhQ4"/>
    </scene>
</COLLADA>
