<?xml version="1.0" encoding="UTF-8" standalone="yes"?>
<COLLADA xmlns="http://www.collada.org/2005/11/COLLADASchema" version="1.4.1">
    <asset>
        <contributor>
            <authoring_tool>3D City Database Importer/Exporter, version 5.5.3; Chair of Geoinformatics, Technical University of Munich</authoring_tool>
        </contributor>
        <created>2026-05-06T15:12:10.545</created>
        <modified>2026-05-06T15:12:10.545</modified>
        <unit meter="1.0" name="meters"/>
        <up_axis>Z_UP</up_axis>
    </asset>
    <library_materials>
        <material id="default_ai_0.2_sh_0.2_tr_0.0_dc_r_0.8_g_0.8_b_0.8_sc_r_1.0_g_1.0_b_1.0_ec_r_0.0_g_0.0_b_0_mat">
            <instance_effect url="#default_ai_0.2_sh_0.2_tr_0.0_dc_r_0.8_g_0.8_b_0.8_sc_r_1.0_g_1.0_b_1.0_ec_r_0.0_g_0.0_b_0_eff"/>
        </material>
        <material id="default_ai_0.2_sh_0.2_tr_0.0_dc_r_1.0_g_0.2_b_0.2_sc_r_1.0_g_1.0_b_1.0_ec_r_0.0_g_0.0_b_0_mat">
            <instance_effect url="#default_ai_0.2_sh_0.2_tr_0.0_dc_r_1.0_g_0.2_b_0.2_sc_r_1.0_g_1.0_b_1.0_ec_r_0.0_g_0.0_b_0_eff"/>
        </material>
    </library_materials>
    <library_effects>
        <effect id="default_ai_0.2_sh_0.2_tr_0.0_dc_r_0.8_g_0.8_b_0.8_sc_r_1.0_g_1.0_b_1.0_ec_r_0.0_g_0.0_b_0_eff">
            <profile_COMMON>
                <technique sid="COMMON">
                    <lambert>
                        <emission>
                            <color>0.0 0.0 0.0 1.0</color>
                        </emission>
                        <diffuse>
                            <color>0.8 0.8 0.8 1.0</color>
                        </diffuse>
                        <reflective>
                            <color>1.0 1.0 1.0 1.0</color>
                        </reflective>
                        <reflectivity>
                            <float>0.2</float>
                        </reflectivity>
                        <transparent opaque="A_ONE">
                            <color>1.0 1.0 1.0 1.0</color>
                        </transparent>
                        <transparency>
                            <float>1.0</float>
                        </transparency>
                    </lambert>
                </technique>
                <extra>
                    <technique profile="GOOGLEEARTH">
                        <double_sided>0</double_sided>
                    </technique>
                </extra>
            </profile_COMMON>
        </effect>
        <effect id="default_ai_0.2_sh_0.2_tr_0.0_dc_r_1.0_g_0.2_b_0.2_sc_r_1.0_g_1.0_b_1.0_ec_r_0.0_g_0.0_b_0_eff">
            <profile_COMMON>
                <technique sid="COMMON">
                    <lambert>
                        <emission>
                            <color>0.0 0.0 0.0 1.0</color>
                        </emission>
                        <diffuse>
                            <color>1.0 0.2 0.2 1.0</color>
                        </diffuse>
                        <reflective>
                            <color>1.0 1.0 1.0 1.0</color>
                        </reflective>
                        <reflectivity>
                            <float>0.2</float>
                        </reflectivity>
                        <transparent opaque="A_ONE">
                            <color>1.0 1.0 1.0 1.0</color>
                        </transparent>
                        <transparency>
                            <float>1.0</float>
                        </transparency>
                    </lambert>
                </technique>
                <extra>
                    <technique profile="GOOGLEEARTH">
                        <double_sided>0</double_sided>
                    </technique>
                </extra>
            </profile_COMMON>
        </effect>
    </library_effects>
    <library_geometries>
        <geometry id="geometry0">
            <mesh>
                <source id="geometry0-position">
                    <float_array id="geometry0-position-array" count="48">0.866 0.41 6.775 0.0 0.0 5.892 0.0 0.0 0.0 0.866 0.41 0.0 8.89 4.21 6.821 8.89 4.21 0.0 -2.93 9.06 6.865 4.92 12.77 6.906 4.92 12.77 0.0 -2.93 9.06 0.0 -0.99 4.64 0.0 -1.92 4.16 0.0 -1.92 4.16 5.856 -0.99 4.64 6.819 3.828 4.408 10.778 1.92 8.635 10.778</float_array>
                    <technique_common>
                        <accessor count="16" source="#geometry0-position-array" stride="3">
                            <param name="X" type="float"/>
                            <param name="Y" type="float"/>
                            <param name="Z" type="float"/>
                        </accessor>
                    </technique_common>
                </source>
                <source id="geometry0-normal">
                    <float_array id="geometry0-normal-array" count="156">0.0 0.0 -1.0 0.0 0.0 -1.0 0.0 0.0 -1.0 0.0 0.0 -1.0 0.0 0.0 -1.0 0.0 0.0 -1.0 0.0 0.0 -1.0 -0.3636421 0.7635338 0.5336483 -0.3636421 0.7635338 0.5336483 -0.3636421 0.7635338 0.5336483 -0.617736 -0.2786648 0.7353557 -0.6176987 -0.2788193 0.7353285 -0.6176897 -0.2787905 0.735347 -0.6176931 -0.2786819 0.7353854 -0.6176929 -0.2786607 0.7353935 -0.6177978 -0.2785705 0.7353396 -0.6179152 -0.2784217 0.7352973 -0.427294 0.9041127 0.0 -0.427294 0.9041127 0.0 -0.427294 0.9041127 0.0 -0.427294 0.9041128 0.0 0.5994334 0.2705511 0.7533138 0.5994254 0.2705241 0.7533299 0.5994334 0.2705511 0.7533138 0.5994415 0.2705783 0.7532977 0.9071823 0.4207376 0.0 0.9071823 0.4207376 0.0 0.9071823 0.4207376 0.0 0.9071823 0.4207376 0.0 0.4280089 -0.9037745 0.0 0.4280089 -0.9037745 0.0 0.4280089 -0.9037745 0.0 0.4280089 -0.9037745 0.0 0.4279069 -0.9038228 0.0 0.4279068 -0.9038228 0.0 0.4279069 -0.9038228 0.0 0.4279069 -0.9038228 0.0 0.3663669 -0.7797585 0.5076931 0.3663669 -0.7797585 0.5076931 0.3663669 -0.7797585 0.5076931 -0.9079593 -0.4190582 0.0 -0.9079593 -0.4190582 0.0 -0.9079593 -0.4190582 0.0 -0.9079593 -0.4190582 0.0 -0.458643 0.8886206 0.0 -0.4586429 0.8886206 0.0 -0.458643 0.8886206 0.0 -0.458643 0.8886207 0.0 -0.9156812 -0.4019053 0.0 -0.9156813 -0.4019053 0.0 -0.9156812 -0.4019053 0.0 -0.9156812 -0.4019053 0.0</float_array>
                    <technique_common>
                        <accessor count="52" source="#geometry0-normal-array" stride="3">
                            <param name="X" type="float"/>
                            <param name="Y" type="float"/>
                            <param name="Z" type="float"/>
                        </accessor>
                    </technique_common>
                </source>
                <vertices id="geometry0-vertex">
                    <input semantic="POSITION" source="#geometry0-position"/>
                </vertices>
                <triangles count="19" material="default_ai_0.2_sh_0.2_tr_0.0_dc_r_0.8_g_0.8_b_0.8_sc_r_1.0_g_1.0_b_1.0_ec_r_0.0_g_0.0_b_0_tri">
                    <input offset="0" semantic="VERTEX" source="#geometry0-vertex"/>
                    <input offset="1" semantic="NORMAL" source="#geometry0-normal"/>
                    <p>9 0 8 1 10 2 8 1 5 3 10 2 10 2 5 3 11 4 11 4 5 3 2 5 2 5 5 3 3 6 6 17 7 18 8 19 6 17 8 19 9 20 7 25 4 26 5 27 7 25 5 27 8 28 4 29 0 30 3 31 4 29 3 31 5 32 0 33 1 34 2 35 0 33 2 35 3 36 1 40 12 41 11 42 1 40 11 42 2 43 12 44 13 45 10 46 12 44 10 46 11 47 13 48 6 49 9 50 13 48 9 50 10 51</p>
                </triangles>
                <triangles count="9" material="default_ai_0.2_sh_0.2_tr_0.0_dc_r_1.0_g_0.2_b_0.2_sc_r_1.0_g_1.0_b_1.0_ec_r_0.0_g_0.0_b_0_tri">
                    <input offset="0" semantic="VERTEX" source="#geometry0-vertex"/>
                    <input offset="1" semantic="NORMAL" source="#geometry0-normal"/>
                    <p>7 7 6 8 15 9 14 10 15 11 6 12 14 10 6 12 13 13 14 10 13 13 12 14 14 10 12 14 1 15 14 10 1 15 0 16 4 21 7 22 15 23 4 21 15 23 14 24 0 37 4 38 14 39</p>
                </triangles>
            </mesh>
        </geometry>
    </library_geometries>
    <library_visual_scenes>
        <visual_scene id="Building_DEBW_5221000QnX2">
            <node>
                <instance_geometry url="#geometry0">
                    <bind_material>
                        <technique_common>
                            <instance_material symbol="default_ai_0.2_sh_0.2_tr_0.0_dc_r_0.8_g_0.8_b_0.8_sc_r_1.0_g_1.0_b_1.0_ec_r_0.0_g_0.0_b_0_tri" target="#default_ai_0.2_sh_0.2_tr_0.0_dc_r_0.8_g_0.8_b_0.8_sc_r_1.0_g_1.0_b_1.0_ec_r_0.0_g_0.0_b_0_mat"/>
                            <instance_material symbol="default_ai_0.2_sh_0.2_tr_0.0_dc_r_1.0_g_0.2_b_0.2_sc_r_1.0_g_1.0_b_1.0_ec_r_0.0_g_0.0_b_0_tri" target="#default_ai_0.2_sh_0.2_tr_0.0_dc_r_1.0_g_0.2_b_0.2_sc_r_1.0_g_1.0_b_1.0_ec_r_0.0_g_0.0_b_0_mat"/>
                        </technique_common>
                    </bind_material>
                </instance_geometry>
            </node>
        </visual_scene>
    </library_visual_scenes>
    <scene>
        <instance_visual_scene url="#Building_DEBW_5221000QnX2"/>
    </scene>
</COLLADA>
