<?xml version="1.0" encoding="UTF-8" standalone="yes"?>
<COLLADA xmlns="http://www.collada.org/2005/11/COLLADASchema" version="1.4.1">
    <asset>
        <contributor>
            <authoring_tool>3D City Database Importer/Exporter, version 5.5.3; Chair of Geoinformatics, Technical University of Munich</authoring_tool>
        </contributor>
        <created>2026-05-06T15:12:08.953</created>
        <modified>2026-05-06T15:12:08.953</modified>
        <unit meter="1.0" name="meters"/>
        <up_axis>Z_UP</up_axis>
    </asset>
    <library_materials>
        <material id="default_ai_0.2_sh_0.2_tr_0.0_dc_r_0.8_g_0.8_b_0.8_sc_r_1.0_g_1.0_b_1.0_ec_r_0.0_g_0.0_b_0_mat">
            <instance_effect url="#default_ai_0.2_sh_0.2_tr_0.0_dc_r_0.8_g_0.8_b_0.8_sc_r_1.0_g_1.0_b_1.0_ec_r_0.0_g_0.0_b_0_eff"/>
        </material>
        <material id="default_ai_0.2_sh_0.2_tr_0.0_dc_r_1.0_g_0.2_b_0.2_sc_r_1.0_g_1.0_b_1.0_ec_r_0.0_g_0.0_b_0_mat">
            <instance_effect url="#default_ai_0.2_sh_0.2_tr_0.0_dc_r_1.0_g_0.2_b_0.2_sc_r_1.0_g_1.0_b_1.0_ec_r_0.0_g_0.0_b_0_eff"/>
        </material>
    </library_materials>
    <library_effects>
        <effect id="default_ai_0.2_sh_0.2_tr_0.0_dc_r_0.8_g_0.8_b_0.8_sc_r_1.0_g_1.0_b_1.0_ec_r_0.0_g_0.0_b_0_eff">
            <profile_COMMON>
                <technique sid="COMMON">
                    <lambert>
                        <emission>
                            <color>0.0 0.0 0.0 1.0</color>
                        </emission>
                        <diffuse>
                            <color>0.8 0.8 0.8 1.0</color>
                        </diffuse>
                        <reflective>
                            <color>1.0 1.0 1.0 1.0</color>
                        </reflective>
                        <reflectivity>
                            <float>0.2</float>
                        </reflectivity>
                        <transparent opaque="A_ONE">
                            <color>1.0 1.0 1.0 1.0</color>
                        </transparent>
                        <transparency>
                            <float>1.0</float>
                        </transparency>
                    </lambert>
                </technique>
                <extra>
                    <technique profile="GOOGLEEARTH">
                        <double_sided>0</double_sided>
                    </technique>
                </extra>
            </profile_COMMON>
        </effect>
        <effect id="default_ai_0.2_sh_0.2_tr_0.0_dc_r_1.0_g_0.2_b_0.2_sc_r_1.0_g_1.0_b_1.0_ec_r_0.0_g_0.0_b_0_eff">
            <profile_COMMON>
                <technique sid="COMMON">
                    <lambert>
                        <emission>
                            <color>0.0 0.0 0.0 1.0</color>
                        </emission>
                        <diffuse>
                            <color>1.0 0.2 0.2 1.0</color>
                        </diffuse>
                        <reflective>
                            <color>1.0 1.0 1.0 1.0</color>
                        </reflective>
                        <reflectivity>
                            <float>0.2</float>
                        </reflectivity>
                        <transparent opaque="A_ONE">
                            <color>1.0 1.0 1.0 1.0</color>
                        </transparent>
                        <transparency>
                            <float>1.0</float>
                        </transparency>
                    </lambert>
                </technique>
                <extra>
                    <technique profile="GOOGLEEARTH">
                        <double_sided>0</double_sided>
                    </technique>
                </extra>
            </profile_COMMON>
        </effect>
    </library_effects>
    <library_geometries>
        <geometry id="geometry0">
            <mesh>
                <source id="geometry0-position">
                    <float_array id="geometry0-position-array" count="126">3.13 -0.21 9.692 0.0 0.0 9.717 0.0 0.0 0.0 3.13 -0.21 0.0 -1.0 -14.28 7.525 -1.0 -14.28 0.0 -10.83 -10.48 8.361 -10.73 -8.85 8.837 -10.73 -8.85 0.0 -10.83 -10.48 0.0 -7.52 -10.79 8.361 -7.7 -13.84 7.47 -0.233 -3.33 10.727 -16.866 -1.772 10.727 -17.18 -6.85 9.243 -13.82 -7.11 9.259 -13.89 -8.6 8.824 -7.7 -13.84 0.0 -16.85 -1.52 10.651 -7.52 -10.79 0.0 0.24 7.08 7.578 0.13 5.48 8.063 0.13 5.48 0.0 0.24 7.08 0.0 -13.82 -7.11 0.0 -13.89 -8.6 0.0 3.48 5.26 8.034 3.48 5.26 0.0 -2.93 7.28 7.607 -2.93 7.28 0.0 -17.18 -6.85 0.0 -16.85 -1.52 0.0 -12.93 7.95 7.687 -6.6 7.53 7.635 -6.6 7.53 0.0 -12.93 7.95 0.0 -13.46 -1.72 10.615 -13.46 -1.72 0.0 -2.82 9.0 7.086 -6.48 9.25 7.113 -6.48 9.25 0.0 -2.82 9.0 0.0</float_array>
                    <technique_common>
                        <accessor count="42" source="#geometry0-position-array" stride="3">
                            <param name="X" type="float"/>
                            <param name="Y" type="float"/>
                            <param name="Z" type="float"/>
                        </accessor>
                    </technique_common>
                </source>
                <source id="geometry0-normal">
                    <float_array id="geometry0-normal-array" count="390">-0.9980395 0.0625257 -0.0027764 -0.9980395 0.0625257 -0.0027764 -0.9980395 0.0625257 -0.0027764 -0.9982631 0.0589138 0.0 -0.9982631 0.0589138 0.0 -0.9982631 0.0589138 0.0 -0.9982631 0.0589138 0.0 0.0 0.0 -1.0 0.0 0.0 -1.0 0.0 0.0 -1.0 0.0 0.0 -1.0 0.0 0.0 -1.0 0.0 0.0 -1.0 0.0 0.0 -1.0 0.0 0.0 -1.0 0.0 0.0 -1.0 0.0 0.0 -1.0 0.0 0.0 -1.0 0.0 0.0 -1.0 0.0 0.0 -1.0 0.0 0.0 -1.0 0.0 0.0 -1.0 0.0 0.0 -1.0 0.0 0.0 -1.0 0.0 0.0 -1.0 0.0 0.0 -1.0 0.0 0.0 -1.0 -0.9981234 0.0612348 0.0 -0.9981233 0.0612348 0.0 -0.9981234 0.0612348 0.0 -0.9981234 0.0612348 0.0 -0.9988983 0.0469285 0.0 -0.9988983 0.0469285 0.0 -0.9988983 0.0469285 0.0 -0.9988983 0.0469285 0.0 0.0629664 0.9980156 0.0 0.0629664 0.9980156 0.0 0.0629664 0.9980156 0.0 0.0629664 0.9980156 0.0 0.0588947 0.9982642 0.0 0.0588947 0.9982642 0.0 0.0588947 0.9982642 0.0 0.0588947 0.9982642 0.0 0.0662051 0.997806 0.0 0.0662051 0.997806 0.0 0.0662051 0.997806 0.0 0.0662051 0.997806 0.0 -0.0932477 -0.995643 0.0 -0.0932477 -0.995643 0.0 -0.0932477 -0.995643 0.0 -0.0932477 -0.995643 0.0 -0.0669422 -0.9977569 0.0 -0.0669422 -0.9977569 0.0 -0.0669422 -0.9977569 0.0 -0.0669422 -0.9977569 0.0 -0.0788675 -0.9968851 0.0 -0.0788675 -0.9968851 0.0 -0.0788675 -0.9968851 0.0 -0.0788675 -0.9968851 0.0 0.0271074 0.2890447 0.9569317 0.0268899 0.2870729 0.9575312 0.0270719 0.2888332 0.9569966 0.0271126 0.2892542 0.9568682 0.0270002 0.2883489 0.9571446 0.0269973 0.288315 0.957155 0.0269888 0.2882949 0.9571612 0.0271021 0.2884355 0.9571158 0.0268594 0.2882665 0.9571735 0.0268029 0.2881857 0.9571995 0.0267489 0.2882283 0.9571881 0.0270228 0.2882926 0.9571609 0.0269449 0.2882879 0.9571646 0.0272233 0.2883721 0.9571313 -0.0655304 -0.9978505 0.0 -0.0655304 -0.9978505 0.0 -0.0655304 -0.9978505 0.0 -0.0655304 -0.9978505 0.0 0.9975584 -0.0698376 -1.267E-4 0.9975584 -0.0698376 -1.267E-4 0.9975584 -0.0698376 -1.267E-4 -0.9985014 0.0547265 0.0 -0.9985014 0.0547265 0.0 -0.9985014 0.0547265 0.0 -0.9985014 0.0547265 0.0 -0.0261061 -0.278745 0.9600102 -0.0261535 -0.2788204 0.9599871 -0.0261224 -0.2789009 0.9599645 -0.0261955 -0.27889 0.9599657 -0.0261817 -0.2788652 0.9599733 -0.0261176 -0.2789622 0.9599468 -0.0260615 -0.2790875 0.9599119 -0.0261185 -0.2789275 0.9599569 -0.0261371 -0.2788783 0.9599707 -0.0261266 -0.2789236 0.9599578 0.9979592 -0.0638548 0.0 0.9979592 -0.0638548 0.0 0.9979592 -0.0638548 0.0 0.9979592 -0.0638548 0.0 0.0655304 0.9978505 0.0 0.0655304 0.9978505 0.0 0.0655304 0.9978505 0.0 0.0655304 0.9978505 0.0 0.997557 -0.0698569 0.0 0.997557 -0.0698569 0.0 0.997557 -0.0698569 0.0 0.997557 -0.0698569 0.0 -0.0771504 -0.9970195 0.0 -0.0771504 -0.9970195 0.0 -0.0771504 -0.9970195 0.0 -0.0771504 -0.9970195 0.0 0.0681472 0.9976752 0.0 0.0681472 0.9976752 0.0 0.0681472 0.9976752 0.0 0.0681472 0.9976752 0.0 0.997645 -0.0685881 0.0 0.997645 -0.0685881 0.0 0.997645 -0.0685881 0.0 0.9976451 -0.0685881 0.0 -0.9980888 0.0617954 0.0 -0.9980888 0.0617954 0.0 -0.9980888 0.0617954 0.0 -0.9980888 0.0617954 0.0 -0.9975751 0.0695982 0.0 -0.9975752 0.0695982 0.0 -0.9975751 0.0695982 0.0 -0.9975751 0.0695982 0.0 0.9979612 -0.0638232 0.0 0.9979612 -0.0638232 0.0 0.9979612 -0.0638232 0.0 0.9979612 -0.0638232 0.0</float_array>
                    <technique_common>
                        <accessor count="130" source="#geometry0-normal-array" stride="3">
                            <param name="X" type="float"/>
                            <param name="Y" type="float"/>
                            <param name="Z" type="float"/>
                        </accessor>
                    </technique_common>
                </source>
                <vertices id="geometry0-vertex">
                    <input semantic="POSITION" source="#geometry0-position"/>
                </vertices>
                <triangles count="60" material="default_ai_0.2_sh_0.2_tr_0.0_dc_r_0.8_g_0.8_b_0.8_sc_r_1.0_g_1.0_b_1.0_ec_r_0.0_g_0.0_b_0_tri">
                    <input offset="0" semantic="VERTEX" source="#geometry0-vertex"/>
                    <input offset="1" semantic="NORMAL" source="#geometry0-normal"/>
                    <p>18 0 14 1 13 2 11 3 10 4 19 5 11 3 19 5 17 6 30 7 31 8 37 9 24 10 30 7 37 9 25 11 24 10 37 9 8 12 25 11 37 9 8 12 37 9 35 13 8 12 35 13 34 14 9 15 8 12 34 14 19 16 9 15 34 14 19 16 34 14 40 17 19 16 40 17 41 18 19 16 41 18 29 19 19 16 29 19 23 20 19 16 23 20 22 21 19 16 22 21 27 22 5 23 17 24 19 16 2 25 5 23 19 16 2 25 19 16 27 22 2 25 27 22 3 26 6 27 7 28 8 29 6 27 8 29 9 30 16 31 15 32 24 33 16 31 24 33 25 34 28 35 20 36 23 37 28 35 23 37 29 38 18 39 36 40 37 41 18 39 37 41 31 42 32 43 33 44 34 45 32 43 34 45 35 46 10 47 6 48 9 49 10 47 9 49 19 50 0 51 1 52 2 53 0 51 2 53 3 54 7 55 16 56 25 57 7 55 25 57 8 58 4 73 11 74 17 75 4 73 17 75 5 76 4 77 1 78 12 79 36 80 32 81 35 82 36 80 35 82 37 83 26 94 0 95 3 96 26 94 3 96 27 97 21 98 26 99 27 100 21 98 27 100 22 101 1 102 4 103 5 104 1 102 5 104 2 105 15 106 14 107 30 108 15 106 30 108 24 109 39 110 38 111 41 112 39 110 41 112 40 113 20 114 21 115 22 116 20 114 22 116 23 117 14 118 18 119 31 120 14 118 31 120 30 121 33 122 39 123 40 124 33 122 40 124 34 125 38 126 28 127 29 128 38 126 29 128 41 129</p>
                </triangles>
                <triangles count="20" material="default_ai_0.2_sh_0.2_tr_0.0_dc_r_1.0_g_0.2_b_0.2_sc_r_1.0_g_1.0_b_1.0_ec_r_0.0_g_0.0_b_0_tri">
                    <input offset="0" semantic="VERTEX" source="#geometry0-vertex"/>
                    <input offset="1" semantic="NORMAL" source="#geometry0-normal"/>
                    <p>18 59 13 60 12 61 36 62 18 59 12 61 36 62 12 61 1 63 32 64 36 62 1 63 32 64 1 63 0 65 33 66 32 64 0 65 39 67 33 66 0 65 28 68 38 69 39 67 28 68 39 67 0 65 21 70 20 71 28 68 21 70 28 68 0 65 21 70 0 65 26 72 6 84 10 85 7 86 11 87 4 88 10 85 10 85 4 88 7 86 4 88 12 89 7 86 7 86 12 89 16 90 16 90 12 89 15 91 15 91 12 89 14 92 14 92 12 89 13 93</p>
                </triangles>
            </mesh>
        </geometry>
    </library_geometries>
    <library_visual_scenes>
        <visual_scene id="Building_DEBW_5221000QyYp">
            <node>
                <instance_geometry url="#geometry0">
                    <bind_material>
                        <technique_common>
                            <instance_material symbol="default_ai_0.2_sh_0.2_tr_0.0_dc_r_0.8_g_0.8_b_0.8_sc_r_1.0_g_1.0_b_1.0_ec_r_0.0_g_0.0_b_0_tri" target="#default_ai_0.2_sh_0.2_tr_0.0_dc_r_0.8_g_0.8_b_0.8_sc_r_1.0_g_1.0_b_1.0_ec_r_0.0_g_0.0_b_0_mat"/>
                            <instance_material symbol="default_ai_0.2_sh_0.2_tr_0.0_dc_r_1.0_g_0.2_b_0.2_sc_r_1.0_g_1.0_b_1.0_ec_r_0.0_g_0.0_b_0_tri" target="#default_ai_0.2_sh_0.2_tr_0.0_dc_r_1.0_g_0.2_b_0.2_sc_r_1.0_g_1.0_b_1.0_ec_r_0.0_g_0.0_b_0_mat"/>
                        </technique_common>
                    </bind_material>
                </instance_geometry>
            </node>
        </visual_scene>
    </library_visual_scenes>
    <scene>
        <instance_visual_scene url="#Building_DEBW_5221000QyYp"/>
    </scene>
</COLLADA>
