<?xml version="1.0" encoding="UTF-8" standalone="yes"?>
<COLLADA xmlns="http://www.collada.org/2005/11/COLLADASchema" version="1.4.1">
    <asset>
        <contributor>
            <authoring_tool>3D City Database Importer/Exporter, version 5.5.3; Chair of Geoinformatics, Technical University of Munich</authoring_tool>
        </contributor>
        <created>2026-05-06T15:12:04.648</created>
        <modified>2026-05-06T15:12:04.648</modified>
        <unit meter="1.0" name="meters"/>
        <up_axis>Z_UP</up_axis>
    </asset>
    <library_materials>
        <material id="default_ai_0.2_sh_0.2_tr_0.0_dc_r_0.8_g_0.8_b_0.8_sc_r_1.0_g_1.0_b_1.0_ec_r_0.0_g_0.0_b_0_mat">
            <instance_effect url="#default_ai_0.2_sh_0.2_tr_0.0_dc_r_0.8_g_0.8_b_0.8_sc_r_1.0_g_1.0_b_1.0_ec_r_0.0_g_0.0_b_0_eff"/>
        </material>
        <material id="default_ai_0.2_sh_0.2_tr_0.0_dc_r_1.0_g_0.2_b_0.2_sc_r_1.0_g_1.0_b_1.0_ec_r_0.0_g_0.0_b_0_mat">
            <instance_effect url="#default_ai_0.2_sh_0.2_tr_0.0_dc_r_1.0_g_0.2_b_0.2_sc_r_1.0_g_1.0_b_1.0_ec_r_0.0_g_0.0_b_0_eff"/>
        </material>
    </library_materials>
    <library_effects>
        <effect id="default_ai_0.2_sh_0.2_tr_0.0_dc_r_0.8_g_0.8_b_0.8_sc_r_1.0_g_1.0_b_1.0_ec_r_0.0_g_0.0_b_0_eff">
            <profile_COMMON>
                <technique sid="COMMON">
                    <lambert>
                        <emission>
                            <color>0.0 0.0 0.0 1.0</color>
                        </emission>
                        <diffuse>
                            <color>0.8 0.8 0.8 1.0</color>
                        </diffuse>
                        <reflective>
                            <color>1.0 1.0 1.0 1.0</color>
                        </reflective>
                        <reflectivity>
                            <float>0.2</float>
                        </reflectivity>
                        <transparent opaque="A_ONE">
                            <color>1.0 1.0 1.0 1.0</color>
                        </transparent>
                        <transparency>
                            <float>1.0</float>
                        </transparency>
                    </lambert>
                </technique>
                <extra>
                    <technique profile="GOOGLEEARTH">
                        <double_sided>0</double_sided>
                    </technique>
                </extra>
            </profile_COMMON>
        </effect>
        <effect id="default_ai_0.2_sh_0.2_tr_0.0_dc_r_1.0_g_0.2_b_0.2_sc_r_1.0_g_1.0_b_1.0_ec_r_0.0_g_0.0_b_0_eff">
            <profile_COMMON>
                <technique sid="COMMON">
                    <lambert>
                        <emission>
                            <color>0.0 0.0 0.0 1.0</color>
                        </emission>
                        <diffuse>
                            <color>1.0 0.2 0.2 1.0</color>
                        </diffuse>
                        <reflective>
                            <color>1.0 1.0 1.0 1.0</color>
                        </reflective>
                        <reflectivity>
                            <float>0.2</float>
                        </reflectivity>
                        <transparent opaque="A_ONE">
                            <color>1.0 1.0 1.0 1.0</color>
                        </transparent>
                        <transparency>
                            <float>1.0</float>
                        </transparency>
                    </lambert>
                </technique>
                <extra>
                    <technique profile="GOOGLEEARTH">
                        <double_sided>0</double_sided>
                    </technique>
                </extra>
            </profile_COMMON>
        </effect>
    </library_effects>
    <library_geometries>
        <geometry id="geometry0">
            <mesh>
                <source id="geometry0-position">
                    <float_array id="geometry0-position-array" count="48">0.03 0.73 3.934 0.0 0.0 3.423 0.0 0.0 0.0 0.03 0.73 0.0 0.07 1.797 4.681 -6.442 2.027 4.681 -6.52 0.23 3.423 0.14 3.69 3.44 0.14 3.69 0.0 -0.11 3.7 3.439 -6.11 3.91 3.44 -6.36 3.92 3.439 -0.11 3.7 0.0 -6.11 3.91 0.0 -6.36 3.92 0.0 -6.52 0.23 0.0</float_array>
                    <technique_common>
                        <accessor count="16" source="#geometry0-position-array" stride="3">
                            <param name="X" type="float"/>
                            <param name="Y" type="float"/>
                            <param name="Z" type="float"/>
                        </accessor>
                    </technique_common>
                </source>
                <source id="geometry0-normal">
                    <float_array id="geometry0-normal-array" count="156">0.9991567 -0.0410612 0.0 0.9991567 -0.0410612 0.0 0.9991567 -0.0410612 0.0 0.9991567 -0.0410612 0.0 0.9993102 -0.0371365 0.0 0.9993102 -0.0371365 0.0 0.9993102 -0.0371365 0.0 0.9993102 -0.0371365 0.0 0.0349786 0.9993881 0.0 0.0349786 0.9993881 0.0 0.0349786 0.9993881 0.0 0.0349786 0.9993881 0.0 -0.0352541 -0.9993784 0.0 -0.0352541 -0.9993784 0.0 -0.0352541 -0.9993784 0.0 -0.0352541 -0.9993784 0.0 -0.0202152 -0.5728208 0.8194313 -0.0202057 -0.5727872 0.819455 -0.0202058 -0.5727875 0.8194548 -0.02022 -0.5728376 0.8194194 -0.020234 -0.5728874 0.8193843 0.039968 0.9992009 0.0 0.039968 0.9992009 0.0 0.039968 0.9992009 0.0 0.039968 0.9992009 0.0 0.9993078 -0.0371992 -3.759E-4 0.9993078 -0.0371992 -3.759E-4 0.9993078 -0.0371992 -3.759E-4 0.039968 0.9992009 0.0 0.039968 0.9992009 0.0 0.039968 0.9992009 0.0 0.039968 0.9992009 0.0 0.0 0.0 -1.0 0.0 0.0 -1.0 0.0 0.0 -1.0 0.0 0.0 -1.0 0.0 0.0 -1.0 0.0 0.0 -1.0 0.0 0.0 -1.0 -0.9990613 0.0433194 6.51E-5 -0.9990613 0.0433194 6.51E-5 -0.9990613 0.0433194 6.51E-5 -0.9990612 0.0433197 0.0 -0.9990612 0.0433197 0.0 -0.9990612 0.0433197 0.0 -0.9990612 0.0433197 0.0 0.01892 0.5469413 0.8369571 0.0193508 0.5478808 0.8363326 0.0190392 0.547181 0.8367977 0.0201295 0.5787842 0.8152324 0.0209391 0.5948599 0.8035567 0.0225311 0.6400879 0.7679712</float_array>
                    <technique_common>
                        <accessor count="52" source="#geometry0-normal-array" stride="3">
                            <param name="X" type="float"/>
                            <param name="Y" type="float"/>
                            <param name="Z" type="float"/>
                        </accessor>
                    </technique_common>
                </source>
                <vertices id="geometry0-vertex">
                    <input semantic="POSITION" source="#geometry0-position"/>
                </vertices>
                <triangles count="21" material="default_ai_0.2_sh_0.2_tr_0.0_dc_r_0.8_g_0.8_b_0.8_sc_r_1.0_g_1.0_b_1.0_ec_r_0.0_g_0.0_b_0_tri">
                    <input offset="0" semantic="VERTEX" source="#geometry0-vertex"/>
                    <input offset="1" semantic="NORMAL" source="#geometry0-normal"/>
                    <p>0 0 1 1 2 2 0 0 2 2 3 3 7 4 0 5 3 6 7 4 3 6 8 7 10 8 9 9 12 10 10 8 12 10 13 11 1 12 6 13 15 14 1 12 15 14 2 15 9 21 7 22 8 23 9 21 8 23 12 24 0 25 7 26 4 27 11 28 10 29 13 30 11 28 13 30 14 31 12 32 8 33 3 34 12 32 3 34 2 35 12 32 2 35 15 36 13 37 12 32 15 36 13 37 15 36 14 38 11 39 6 40 5 41 6 42 11 43 14 44 6 42 14 44 15 45</p>
                </triangles>
                <triangles count="7" material="default_ai_0.2_sh_0.2_tr_0.0_dc_r_1.0_g_0.2_b_0.2_sc_r_1.0_g_1.0_b_1.0_ec_r_0.0_g_0.0_b_0_tri">
                    <input offset="0" semantic="VERTEX" source="#geometry0-vertex"/>
                    <input offset="1" semantic="NORMAL" source="#geometry0-normal"/>
                    <p>5 16 6 17 1 18 5 16 1 18 0 19 5 16 0 19 4 20 11 46 5 47 4 48 10 49 11 46 4 48 10 49 4 48 7 50 10 49 7 50 9 51</p>
                </triangles>
            </mesh>
        </geometry>
    </library_geometries>
    <library_visual_scenes>
        <visual_scene id="Building_DEBW_5221000Qjrc">
            <node>
                <instance_geometry url="#geometry0">
                    <bind_material>
                        <technique_common>
                            <instance_material symbol="default_ai_0.2_sh_0.2_tr_0.0_dc_r_0.8_g_0.8_b_0.8_sc_r_1.0_g_1.0_b_1.0_ec_r_0.0_g_0.0_b_0_tri" target="#default_ai_0.2_sh_0.2_tr_0.0_dc_r_0.8_g_0.8_b_0.8_sc_r_1.0_g_1.0_b_1.0_ec_r_0.0_g_0.0_b_0_mat"/>
                            <instance_material symbol="default_ai_0.2_sh_0.2_tr_0.0_dc_r_1.0_g_0.2_b_0.2_sc_r_1.0_g_1.0_b_1.0_ec_r_0.0_g_0.0_b_0_tri" target="#default_ai_0.2_sh_0.2_tr_0.0_dc_r_1.0_g_0.2_b_0.2_sc_r_1.0_g_1.0_b_1.0_ec_r_0.0_g_0.0_b_0_mat"/>
                        </technique_common>
                    </bind_material>
                </instance_geometry>
            </node>
        </visual_scene>
    </library_visual_scenes>
    <scene>
        <instance_visual_scene url="#Building_DEBW_5221000Qjrc"/>
    </scene>
</COLLADA>
