<?xml version="1.0" encoding="UTF-8" standalone="yes"?>
<COLLADA xmlns="http://www.collada.org/2005/11/COLLADASchema" version="1.4.1">
    <asset>
        <contributor>
            <authoring_tool>3D City Database Importer/Exporter, version 5.5.3; Chair of Geoinformatics, Technical University of Munich</authoring_tool>
        </contributor>
        <created>2026-05-06T15:12:05.174</created>
        <modified>2026-05-06T15:12:05.174</modified>
        <unit meter="1.0" name="meters"/>
        <up_axis>Z_UP</up_axis>
    </asset>
    <library_materials>
        <material id="default_ai_0.2_sh_0.2_tr_0.0_dc_r_1.0_g_0.2_b_0.2_sc_r_1.0_g_1.0_b_1.0_ec_r_0.0_g_0.0_b_0_mat">
            <instance_effect url="#default_ai_0.2_sh_0.2_tr_0.0_dc_r_1.0_g_0.2_b_0.2_sc_r_1.0_g_1.0_b_1.0_ec_r_0.0_g_0.0_b_0_eff"/>
        </material>
        <material id="default_ai_0.2_sh_0.2_tr_0.0_dc_r_0.8_g_0.8_b_0.8_sc_r_1.0_g_1.0_b_1.0_ec_r_0.0_g_0.0_b_0_mat">
            <instance_effect url="#default_ai_0.2_sh_0.2_tr_0.0_dc_r_0.8_g_0.8_b_0.8_sc_r_1.0_g_1.0_b_1.0_ec_r_0.0_g_0.0_b_0_eff"/>
        </material>
    </library_materials>
    <library_effects>
        <effect id="default_ai_0.2_sh_0.2_tr_0.0_dc_r_1.0_g_0.2_b_0.2_sc_r_1.0_g_1.0_b_1.0_ec_r_0.0_g_0.0_b_0_eff">
            <profile_COMMON>
                <technique sid="COMMON">
                    <lambert>
                        <emission>
                            <color>0.0 0.0 0.0 1.0</color>
                        </emission>
                        <diffuse>
                            <color>1.0 0.2 0.2 1.0</color>
                        </diffuse>
                        <reflective>
                            <color>1.0 1.0 1.0 1.0</color>
                        </reflective>
                        <reflectivity>
                            <float>0.2</float>
                        </reflectivity>
                        <transparent opaque="A_ONE">
                            <color>1.0 1.0 1.0 1.0</color>
                        </transparent>
                        <transparency>
                            <float>1.0</float>
                        </transparency>
                    </lambert>
                </technique>
                <extra>
                    <technique profile="GOOGLEEARTH">
                        <double_sided>0</double_sided>
                    </technique>
                </extra>
            </profile_COMMON>
        </effect>
        <effect id="default_ai_0.2_sh_0.2_tr_0.0_dc_r_0.8_g_0.8_b_0.8_sc_r_1.0_g_1.0_b_1.0_ec_r_0.0_g_0.0_b_0_eff">
            <profile_COMMON>
                <technique sid="COMMON">
                    <lambert>
                        <emission>
                            <color>0.0 0.0 0.0 1.0</color>
                        </emission>
                        <diffuse>
                            <color>0.8 0.8 0.8 1.0</color>
                        </diffuse>
                        <reflective>
                            <color>1.0 1.0 1.0 1.0</color>
                        </reflective>
                        <reflectivity>
                            <float>0.2</float>
                        </reflectivity>
                        <transparent opaque="A_ONE">
                            <color>1.0 1.0 1.0 1.0</color>
                        </transparent>
                        <transparency>
                            <float>1.0</float>
                        </transparency>
                    </lambert>
                </technique>
                <extra>
                    <technique profile="GOOGLEEARTH">
                        <double_sided>0</double_sided>
                    </technique>
                </extra>
            </profile_COMMON>
        </effect>
    </library_effects>
    <library_geometries>
        <geometry id="geometry0">
            <mesh>
                <source id="geometry0-position">
                    <float_array id="geometry0-position-array" count="147">2.665 -8.628 6.626 2.87 -8.74 6.443 2.83 -8.58 6.443 -0.06 0.19 6.443 0.0 0.0 6.443 0.0 0.0 0.0 -0.06 0.19 0.0 -0.087 -6.54 8.712 -2.77 -5.19 10.973 -3.588 -5.461 10.973 -4.534 -7.345 9.385 -4.564 -7.355 9.386 -6.072 -10.403 6.81 -5.63 -10.62 6.443 -1.43 -9.23 6.443 -5.99 -11.7 6.443 -6.39 -10.54 6.443 -6.39 -10.54 0.0 -5.99 -11.7 0.0 0.197 -7.394 8.709 -1.14 -10.09 6.443 -6.62 -10.62 6.443 -6.62 -10.62 0.0 -0.188 -0.061 6.653 -7.443 -8.126 9.238 -4.789 -7.242 9.198 -8.04 -5.56 6.443 -8.26 -5.63 6.443 -5.775 -11.256 6.814 -5.33 -11.47 6.443 -13.96 -7.55 6.443 -8.26 -5.63 0.0 -13.96 -7.55 0.0 -9.955 -8.986 9.252 -8.04 -5.56 0.0 2.87 -8.74 0.0 2.83 -8.58 0.0 -8.97 -2.76 6.443 -9.23 -15.79 6.443 -9.23 -15.79 0.0 -1.14 -10.09 0.0 -1.43 -9.23 0.0 -5.63 -10.62 0.0 -5.33 -11.47 0.0 -5.32 -14.48 0.0 -8.97 -2.76 0.0 -9.99 -9.055 9.31 -8.19 -13.053 8.853 -5.32 -14.48 6.443</float_array>
                    <technique_common>
                        <accessor count="49" source="#geometry0-position-array" stride="3">
                            <param name="X" type="float"/>
                            <param name="Y" type="float"/>
                            <param name="Z" type="float"/>
                        </accessor>
                    </technique_common>
                </source>
                <source id="geometry0-normal">
                    <float_array id="geometry0-normal-array" count="504">0.2394844 -0.6883044 0.6847513 0.2393998 -0.6882752 0.6848102 0.2394902 -0.6882879 0.6847658 0.2395267 -0.688319 0.6847218 0.2394729 -0.6883373 0.6847223 0.9429903 0.3328202 0.0 0.9429903 0.3328202 0.0 0.9429903 0.3328202 0.0 0.9429903 0.3328202 0.0 0.6874268 0.2425911 0.6845392 0.6873905 0.242548 0.6845909 0.6874268 0.2425911 0.6845392 0.6874631 0.2426341 0.6844876 -0.632037 -0.3628183 0.6847571 -0.632045 -0.3628335 0.6847416 -0.632037 -0.3628183 0.6847571 -0.6320289 -0.362803 0.6847726 0.9535826 0.3011314 0.0 0.9535826 0.3011314 0.0 0.9535826 0.3011314 0.0 0.9535826 0.3011314 0.0 -0.6909059 -0.2325729 0.6845135 -0.6911271 -0.2322406 0.6844032 -0.6909059 -0.2325729 0.6845135 -0.6906847 -0.2329051 0.6846239 -0.2207468 0.6902211 0.689105 -0.2290768 0.6918896 0.6846988 -0.2235839 0.6908153 0.6875933 -0.2208339 0.6902677 0.6890305 -0.2292504 0.6919813 0.6845481 0.2314999 -0.6909649 0.6848178 0.2314999 -0.6909649 0.6848178 0.2314999 -0.6909649 0.6848178 -0.2462522 0.6704668 0.6998815 -0.2209654 0.6944619 0.6847606 -0.2209778 0.6944584 0.6847601 -0.275751 0.6407024 0.7165626 -0.2712719 0.6454042 0.7140483 -0.2117364 0.7030491 0.6788885 0.329075 -0.9443039 0.0 0.329075 -0.9443039 0.0 0.329075 -0.9443039 0.0 0.329075 -0.9443039 0.0 -0.6916147 -0.229767 0.6847454 -0.6916448 -0.2298291 0.6846941 -0.6916147 -0.229767 0.6847454 -0.6915845 -0.2297049 0.6847967 0.2326972 -0.6919267 0.6834395 0.2289822 -0.6918884 0.6847318 0.2289635 -0.6918744 0.6847522 0.2290838 -0.691879 0.6847073 0.2280718 -0.6918352 0.6850895 0.2400824 -0.6919618 0.6808445 0.2410434 -0.6920294 0.6804361 0.228849 -0.6919259 0.6847383 -0.303204 0.9529257 0.0 -0.303204 0.9529257 0.0 -0.303204 0.9529257 0.0 -0.303204 0.9529257 0.0 0.2326301 -0.6910974 0.6843009 0.2324863 -0.6907706 0.6846795 0.2326301 -0.6910974 0.6843009 0.2327738 -0.691424 0.683922 0.3190626 -0.9477336 0.0 0.3190626 -0.9477336 0.0 0.3190626 -0.9477336 0.0 0.3190626 -0.9477336 0.0 0.3285203 -0.9444969 0.0 0.3285203 -0.9444969 0.0 0.3285203 -0.9444969 0.0 0.3285203 -0.9444969 0.0 -0.2326493 0.6906775 0.6847181 -0.2326493 0.6906775 0.6847181 -0.2326493 0.6906775 0.6847181 0.8542083 0.00375 0.5199175 0.8542083 0.00375 0.5199175 0.8542083 0.00375 0.5199175 -0.2326298 0.6906429 0.6847597 -0.2326298 0.6906429 0.6847597 -0.2326298 0.6906429 0.6847597 0.2398442 -0.6882496 0.6846803 0.2398442 -0.6882496 0.6846803 0.2398442 -0.6882496 0.6846803 -0.6891382 -0.2373699 0.6846488 -0.6895158 -0.2377642 0.6841316 -0.6891789 -0.237197 0.6846678 -0.6884299 -0.2377004 0.6852466 -0.6890975 -0.2375428 0.6846299 -0.6901755 -0.236314 0.6839689 0.9701425 0.2425356 0.0 0.9701425 0.2425356 0.0 0.9701425 0.2425356 0.0 0.9701425 0.2425356 0.0 0.3176826 -0.9481971 0.0 0.3176826 -0.9481971 0.0 0.3176826 -0.9481971 0.0 0.3176826 -0.9481971 0.0 -0.8672699 -0.4978383 0.0 -0.8672699 -0.4978383 0.0 -0.8672699 -0.4978383 0.0 -0.8672699 -0.4978383 0.0 -0.9490216 -0.3152109 0.0 -0.9490216 -0.3152109 0.0 -0.9490216 -0.3152109 0.0 -0.9490216 -0.3152109 0.0 0.6944064 0.2192862 0.6853563 0.6944064 0.2192862 0.6853563 0.6944064 0.2192862 0.6853563 0.9476967 0.3191724 0.0 0.9476967 0.3191724 0.0 0.9476967 0.3191724 0.0 0.9476967 0.3191724 0.0 0.6920221 0.2282789 0.6848314 0.6915544 0.2281001 0.6853634 0.6922574 0.2282792 0.6845935 0.6922901 0.2283905 0.6845233 0.6926137 0.2282128 0.6842552 0.6925759 0.2282574 0.6842786 0.692015 0.2284125 0.6847941 0.0 0.0 -1.0 0.0 0.0 -1.0 0.0 0.0 -1.0 0.0 0.0 -1.0 0.0 0.0 -1.0 0.0 0.0 -1.0 0.0 0.0 -1.0 0.0 0.0 -1.0 0.0 0.0 -1.0 0.0 0.0 -1.0 0.0 0.0 -1.0 0.0 0.0 -1.0 0.0 0.0 -1.0 0.0 0.0 -1.0 0.0 0.0 -1.0 0.0 0.0 -1.0 0.0 0.0 -1.0 0.9496748 0.3132377 0.0 0.9496748 0.3132377 0.0 0.9496748 0.3132377 0.0 0.9496748 0.3132377 0.0 -0.3143093 0.9493206 0.0 -0.3143093 0.9493206 0.0 -0.3143093 0.9493206 0.0 -0.3143093 0.9493206 0.0 0.6899713 0.2314696 0.6858291 0.6906921 0.2326165 0.6847145 0.6896229 0.2308606 0.6863845 0.6896099 0.2308959 0.6863856 0.6906661 0.2326871 0.6847168 -0.9453729 -0.3259908 0.0 -0.9453729 -0.3259908 0.0 -0.9453729 -0.3259908 0.0 -0.9453729 -0.3259908 0.0 -0.3192189 0.947681 0.0 -0.3192189 0.947681 0.0 -0.3192189 0.947681 0.0 -0.3192189 0.947681 0.0 -0.9475757 -0.3195311 0.0 -0.9475757 -0.3195311 0.0 -0.9475757 -0.3195311 0.0 -0.9475757 -0.3195311 0.0 0.3141928 -0.9493592 0.0 0.3141928 -0.9493592 0.0 0.3141928 -0.9493592 0.0 0.3141928 -0.9493592 0.0 0.7074605 0.1768651 0.6842649 0.7074605 0.1768651 0.6842649 0.7074605 0.1768651 0.6842649</float_array>
                    <technique_common>
                        <accessor count="168" source="#geometry0-normal-array" stride="3">
                            <param name="X" type="float"/>
                            <param name="Y" type="float"/>
                            <param name="Z" type="float"/>
                        </accessor>
                    </technique_common>
                </source>
                <vertices id="geometry0-vertex">
                    <input semantic="POSITION" source="#geometry0-position"/>
                </vertices>
                <triangles count="49" material="default_ai_0.2_sh_0.2_tr_0.0_dc_r_0.8_g_0.8_b_0.8_sc_r_1.0_g_1.0_b_1.0_ec_r_0.0_g_0.0_b_0_tri">
                    <input offset="0" semantic="VERTEX" source="#geometry0-vertex"/>
                    <input offset="1" semantic="NORMAL" source="#geometry0-normal"/>
                    <p>13 5 29 6 43 7 13 5 43 7 42 8 3 17 4 18 5 19 3 17 5 19 6 20 29 39 15 40 18 41 29 39 18 41 43 42 27 55 26 56 34 57 27 55 34 57 31 58 1 63 20 64 40 65 1 63 40 65 35 66 16 67 21 68 22 69 16 67 22 69 17 70 2 89 1 90 35 91 2 89 35 91 36 92 48 93 38 94 39 95 48 93 39 95 44 96 38 97 30 98 32 99 38 97 32 99 39 100 26 101 37 102 45 103 26 101 45 103 34 104 21 108 48 109 44 110 21 108 44 110 22 111 36 119 35 120 5 121 35 120 40 122 5 121 5 121 40 122 6 123 40 122 41 124 6 123 6 123 41 124 45 125 45 125 41 124 34 126 34 126 41 124 31 127 31 127 41 124 32 128 41 124 42 129 32 128 43 130 18 131 42 129 18 131 17 132 42 129 42 129 17 132 32 128 17 132 22 133 32 128 32 128 22 133 39 134 39 134 22 133 44 135 4 136 2 137 36 138 4 136 36 138 5 139 37 140 3 141 6 142 37 140 6 142 45 143 15 149 16 150 17 151 15 149 17 151 18 152 30 153 27 154 31 155 30 153 31 155 32 156 20 157 14 158 41 159 20 157 41 159 40 160 14 161 13 162 42 163 14 161 42 163 41 164</p>
                </triangles>
                <triangles count="45" material="default_ai_0.2_sh_0.2_tr_0.0_dc_r_1.0_g_0.2_b_0.2_sc_r_1.0_g_1.0_b_1.0_ec_r_0.0_g_0.0_b_0_tri">
                    <input offset="0" semantic="VERTEX" source="#geometry0-vertex"/>
                    <input offset="1" semantic="NORMAL" source="#geometry0-normal"/>
                    <p>21 0 16 1 25 2 21 0 25 2 24 3 21 0 24 3 33 4 12 9 28 10 29 11 12 9 29 11 13 12 47 13 46 14 30 15 47 13 30 15 38 16 19 21 7 22 14 23 19 21 14 23 20 24 3 25 37 26 9 27 23 28 3 25 9 27 23 28 9 27 8 29 47 30 38 31 48 32 26 33 27 34 24 35 26 33 24 35 25 36 26 33 25 36 11 37 26 33 11 37 10 38 10 43 9 44 37 45 10 43 37 45 26 46 13 47 14 48 7 49 13 47 7 49 8 50 13 47 8 50 9 51 13 47 9 51 10 52 13 47 10 52 11 53 13 47 11 53 12 54 0 59 19 60 20 61 0 59 20 61 1 62 27 71 30 72 46 73 27 74 46 75 33 76 27 77 33 78 24 79 28 80 15 81 29 82 16 83 15 84 28 85 16 83 28 85 12 86 16 83 12 86 11 87 16 83 11 87 25 88 23 105 4 106 3 107 2 112 4 113 23 114 0 115 2 112 23 114 19 116 0 115 23 114 7 117 19 116 23 114 7 117 23 114 8 118 48 144 21 145 33 146 48 144 33 146 46 147 48 144 46 147 47 148 0 165 1 166 2 167</p>
                </triangles>
            </mesh>
        </geometry>
    </library_geometries>
    <library_visual_scenes>
        <visual_scene id="Building_DEBW_5221000Qa54">
            <node>
                <instance_geometry url="#geometry0">
                    <bind_material>
                        <technique_common>
                            <instance_material symbol="default_ai_0.2_sh_0.2_tr_0.0_dc_r_0.8_g_0.8_b_0.8_sc_r_1.0_g_1.0_b_1.0_ec_r_0.0_g_0.0_b_0_tri" target="#default_ai_0.2_sh_0.2_tr_0.0_dc_r_0.8_g_0.8_b_0.8_sc_r_1.0_g_1.0_b_1.0_ec_r_0.0_g_0.0_b_0_mat"/>
                            <instance_material symbol="default_ai_0.2_sh_0.2_tr_0.0_dc_r_1.0_g_0.2_b_0.2_sc_r_1.0_g_1.0_b_1.0_ec_r_0.0_g_0.0_b_0_tri" target="#default_ai_0.2_sh_0.2_tr_0.0_dc_r_1.0_g_0.2_b_0.2_sc_r_1.0_g_1.0_b_1.0_ec_r_0.0_g_0.0_b_0_mat"/>
                        </technique_common>
                    </bind_material>
                </instance_geometry>
            </node>
        </visual_scene>
    </library_visual_scenes>
    <scene>
        <instance_visual_scene url="#Building_DEBW_5221000Qa54"/>
    </scene>
</COLLADA>
