<?xml version="1.0" encoding="UTF-8" standalone="yes"?>
<COLLADA xmlns="http://www.collada.org/2005/11/COLLADASchema" version="1.4.1">
    <asset>
        <contributor>
            <authoring_tool>3D City Database Importer/Exporter, version 5.5.3; Chair of Geoinformatics, Technical University of Munich</authoring_tool>
        </contributor>
        <created>2026-05-06T15:12:09.646</created>
        <modified>2026-05-06T15:12:09.646</modified>
        <unit meter="1.0" name="meters"/>
        <up_axis>Z_UP</up_axis>
    </asset>
    <library_materials>
        <material id="default_ai_0.2_sh_0.2_tr_0.0_dc_r_0.8_g_0.8_b_0.8_sc_r_1.0_g_1.0_b_1.0_ec_r_0.0_g_0.0_b_0_mat">
            <instance_effect url="#default_ai_0.2_sh_0.2_tr_0.0_dc_r_0.8_g_0.8_b_0.8_sc_r_1.0_g_1.0_b_1.0_ec_r_0.0_g_0.0_b_0_eff"/>
        </material>
        <material id="default_ai_0.2_sh_0.2_tr_0.0_dc_r_1.0_g_0.2_b_0.2_sc_r_1.0_g_1.0_b_1.0_ec_r_0.0_g_0.0_b_0_mat">
            <instance_effect url="#default_ai_0.2_sh_0.2_tr_0.0_dc_r_1.0_g_0.2_b_0.2_sc_r_1.0_g_1.0_b_1.0_ec_r_0.0_g_0.0_b_0_eff"/>
        </material>
    </library_materials>
    <library_effects>
        <effect id="default_ai_0.2_sh_0.2_tr_0.0_dc_r_0.8_g_0.8_b_0.8_sc_r_1.0_g_1.0_b_1.0_ec_r_0.0_g_0.0_b_0_eff">
            <profile_COMMON>
                <technique sid="COMMON">
                    <lambert>
                        <emission>
                            <color>0.0 0.0 0.0 1.0</color>
                        </emission>
                        <diffuse>
                            <color>0.8 0.8 0.8 1.0</color>
                        </diffuse>
                        <reflective>
                            <color>1.0 1.0 1.0 1.0</color>
                        </reflective>
                        <reflectivity>
                            <float>0.2</float>
                        </reflectivity>
                        <transparent opaque="A_ONE">
                            <color>1.0 1.0 1.0 1.0</color>
                        </transparent>
                        <transparency>
                            <float>1.0</float>
                        </transparency>
                    </lambert>
                </technique>
                <extra>
                    <technique profile="GOOGLEEARTH">
                        <double_sided>0</double_sided>
                    </technique>
                </extra>
            </profile_COMMON>
        </effect>
        <effect id="default_ai_0.2_sh_0.2_tr_0.0_dc_r_1.0_g_0.2_b_0.2_sc_r_1.0_g_1.0_b_1.0_ec_r_0.0_g_0.0_b_0_eff">
            <profile_COMMON>
                <technique sid="COMMON">
                    <lambert>
                        <emission>
                            <color>0.0 0.0 0.0 1.0</color>
                        </emission>
                        <diffuse>
                            <color>1.0 0.2 0.2 1.0</color>
                        </diffuse>
                        <reflective>
                            <color>1.0 1.0 1.0 1.0</color>
                        </reflective>
                        <reflectivity>
                            <float>0.2</float>
                        </reflectivity>
                        <transparent opaque="A_ONE">
                            <color>1.0 1.0 1.0 1.0</color>
                        </transparent>
                        <transparency>
                            <float>1.0</float>
                        </transparency>
                    </lambert>
                </technique>
                <extra>
                    <technique profile="GOOGLEEARTH">
                        <double_sided>0</double_sided>
                    </technique>
                </extra>
            </profile_COMMON>
        </effect>
    </library_effects>
    <library_geometries>
        <geometry id="geometry0">
            <mesh>
                <source id="geometry0-position">
                    <float_array id="geometry0-position-array" count="330">-21.16 21.34 19.211 0.0 0.0 19.209 0.0 0.0 0.0 -21.16 21.34 0.0 -15.77 -17.32 19.209 -15.77 -17.32 19.511 -14.98 -18.12 19.241 -14.98 -18.12 19.209 -21.01 -24.12 19.209 -21.8 -23.31 19.209 -21.8 -23.31 0.0 -21.01 -24.12 0.0 -49.48 -50.77 19.209 -49.48 -50.77 19.513 -50.34 -49.93 19.801 -50.34 -49.93 19.209 -14.98 -18.12 0.0 -15.77 -17.32 0.0 -45.48 0.52 19.209 -39.41 6.53 19.212 -39.41 6.53 0.0 -45.48 0.52 0.0 -0.12 -0.13 19.209 -0.12 -0.13 19.275 -2.018 -2.004 19.795 -16.65 -16.45 19.808 -16.65 -16.45 19.209 -38.61 5.75 19.209 -38.61 5.75 19.486 -37.76 4.86 19.789 -37.76 4.86 19.209 -73.02 -27.05 19.209 -73.13 -26.95 19.213 -73.13 -26.95 0.0 -73.02 -27.05 0.0 -42.64 -45.58 19.241 -43.4 -44.76 19.509 -44.3 -43.9 19.807 -22.69 -22.43 19.811 -21.8 -23.31 19.51 -21.01 -24.12 19.239 -26.038 -4.433 23.44 -62.494 -40.619 23.44 -60.166 -59.658 19.806 -48.7 -51.58 19.243 -44.66 -0.27 19.209 -44.66 -0.27 0.0 -61.34 -60.82 19.293 -61.34 -60.82 19.209 -61.47 -60.94 19.238 -61.47 -60.94 19.209 -82.59 -39.63 19.209 -82.59 -39.63 19.22 -82.48 -39.51 19.27 -82.48 -39.51 19.209 -79.76 -42.45 19.209 -79.76 -42.45 19.23 -82.07 -40.18 19.215 -72.18 -50.14 19.209 -72.18 -50.14 19.228 -79.35 -42.92 19.218 -44.3 -43.9 19.209 -43.4 -44.76 19.209 -43.4 -44.76 0.0 -44.3 -43.9 0.0 -21.29 21.21 19.209 -21.29 21.21 0.0 -37.76 4.86 0.0 -22.69 -22.43 19.209 -48.7 -51.58 19.209 -67.74 -54.63 19.209 -72.18 -50.14 0.0 -67.74 -54.63 0.0 -79.76 -42.45 0.0 -79.35 -42.92 0.0 -49.48 -50.77 0.0 -48.7 -51.58 0.0 -16.65 -16.45 0.0 -0.12 -0.13 0.0 0.0 0.0 19.24 -21.29 21.21 19.247 -23.261 19.254 19.789 -71.47 -28.61 19.209 -71.47 -28.61 19.79 -73.02 -27.05 19.25 -81.298 -38.34 19.786 -71.47 -28.61 0.0 -82.48 -39.51 0.0 -42.64 -45.58 19.209 -42.64 -45.58 0.0 -38.61 5.75 0.0 -66.3 -21.74 19.209 -66.3 -21.74 19.487 -65.44 -22.63 19.791 -65.44 -22.63 19.209 -67.74 -54.63 19.229 -67.1 -20.95 19.209 -44.66 -0.27 19.489 -43.81 -1.16 19.791 -61.47 -60.94 0.0 -61.34 -60.82 0.0 -66.3 -21.74 0.0 -67.1 -20.95 0.0 -82.59 -39.63 0.0 -43.81 -1.16 19.209 -50.34 -49.93 0.0 -43.81 -1.16 0.0 -65.44 -22.63 0.0 -82.07 -40.18 0.0 -22.69 -22.43 0.0</float_array>
                    <technique_common>
                        <accessor count="110" source="#geometry0-position-array" stride="3">
                            <param name="X" type="float"/>
                            <param name="Y" type="float"/>
                            <param name="Z" type="float"/>
                        </accessor>
                    </technique_common>
                </source>
                <source id="geometry0-normal">
                    <float_array id="geometry0-normal-array" count="1110">0.7026473 0.7115383 0.0 0.7026473 0.7115383 0.0 0.7026473 0.7115383 0.0 -0.7093781 -0.7048281 0.0 -0.7093781 -0.7048281 0.0 -0.7093781 -0.7048281 0.0 -0.7093781 -0.7048281 0.0 -0.7030997 -0.7110912 0.0 -0.7030997 -0.7110912 0.0 -0.7030997 -0.7110912 0.0 -0.7030997 -0.7110912 0.0 0.72317 0.69067 0.0 0.72317 0.69067 0.0 0.72317 0.69067 0.0 0.72317 0.69067 0.0 0.7334308 0.6797642 0.0 0.7334308 0.6797642 0.0 0.7334308 0.6797642 0.0 0.7334308 0.6797642 0.0 -0.6987393 -0.7153764 0.0 -0.6987393 -0.7153764 0.0 -0.6987393 -0.7153764 0.0 -0.6987393 -0.7153764 0.0 0.71154 0.7026455 0.0 0.71154 0.7026455 0.0 0.71154 0.7026455 0.0 0.71154 0.7026455 0.0 0.6981006 0.7159997 0.0 0.6981006 0.7159997 0.0 0.6981006 0.7159997 0.0 0.6981006 0.7159997 0.0 -0.7009049 -0.7132548 0.0 -0.7009049 -0.7132548 0.0 -0.7009049 -0.7132548 0.0 -0.7009049 -0.7132547 0.0 0.7348034 -0.6782801 0.0 0.7348034 -0.6782801 0.0 0.7348034 -0.6782801 0.0 0.7348034 -0.6782801 0.0 -0.7158907 -0.6982123 0.0 -0.7158907 -0.6982123 0.0 -0.7158907 -0.6982123 0.0 -0.7158907 -0.6982123 0.0 0.7191225 0.6948833 0.0 0.7191225 0.6948833 0.0 0.7191225 0.6948833 0.0 0.7191225 0.6948833 0.0 -0.2097121 -0.2069963 0.955601 -0.2092171 -0.2064921 0.9558186 -0.2091074 -0.2064281 0.9558564 -0.2101237 -0.2074907 0.9554034 -0.2108072 -0.2081137 0.9551173 -0.2107028 -0.2080726 0.9551493 -0.21048 -0.2078124 0.955255 -0.2104133 -0.2077882 0.955275 -0.2111095 -0.2083723 0.9549941 -0.2112429 -0.2084862 0.9549398 -0.2109529 -0.2082163 0.9550627 -0.2108188 -0.2080833 0.9551213 -0.703586 0.7106102 0.0 -0.703586 0.7106102 0.0 -0.703586 0.7106102 0.0 -0.703586 0.7106102 0.0 0.6782738 -0.7348092 0.0 0.6782738 -0.7348092 0.0 0.6782738 -0.7348092 0.0 0.6782739 -0.7348092 0.0 -0.7093516 -0.7048548 0.0 -0.7093516 -0.7048548 0.0 -0.7093516 -0.7048548 0.0 -0.7093516 -0.7048548 0.0 0.6908573 0.7229911 0.0 0.6908574 0.7229911 0.0 0.6908573 0.7229911 0.0 0.6908574 0.7229911 0.0 0.7025712 -0.7116134 -5.8E-5 0.7025722 -0.7116125 0.0 0.7025722 -0.7116125 0.0 0.7025707 -0.711614 -8.71E-5 0.7025693 -0.7116153 -1.741E-4 -0.7371833 0.6756928 0.0 -0.7371833 0.6756928 0.0 -0.7371833 0.6756928 0.0 -0.7371833 0.6756928 0.0 -0.7044769 0.7097269 0.0 -0.7044769 0.7097269 0.0 -0.7044769 0.7097269 0.0 -0.7044769 0.7097269 0.0 -0.7203214 -0.6936405 0.0 -0.7203214 -0.6936405 0.0 -0.7203214 -0.6936405 0.0 -0.7203214 -0.6936405 0.0 0.7030545 0.7111359 0.0 0.7030545 0.7111359 0.0 0.7030545 0.7111359 0.0 0.7030545 0.7111359 0.0 -0.1681984 0.1694732 0.9710758 -0.1681688 0.1694236 0.9710895 -0.168374 0.1698545 0.9709787 -0.1681425 0.1693557 0.9711059 -0.1688147 0.1708404 0.9707292 -0.1687185 0.1704454 0.9708154 -0.168541 0.1698838 0.9709446 -0.1689899 0.1704819 0.9707618 -0.1681645 0.1694141 0.9710919 -0.1635929 0.1648089 0.972664 -0.1545897 0.1557077 0.9756316 -0.1547413 0.1558367 0.9755871 -0.1681247 0.1693829 0.9711043 -0.167984 0.1692636 0.9711494 -0.1680972 0.1693397 0.9711167 -0.1682933 0.1694887 0.9710566 0.70358 -0.710616 0.0 0.7035801 -0.710616 0.0 0.70358 -0.710616 0.0 0.70358 -0.710616 0.0 0.72317 0.69067 0.0 0.7231701 0.69067 0.0 0.72317 0.69067 0.0 0.72317 0.69067 0.0 -0.7231717 -0.6906683 0.0 -0.7231717 -0.6906683 0.0 -0.7231717 -0.6906683 0.0 -0.7231717 -0.6906683 0.0 -0.7110548 -0.7031366 0.0 -0.7110548 -0.7031366 0.0 -0.7110548 -0.7031366 0.0 -0.7110548 -0.7031366 0.0 0.6782739 -0.7348093 0.0 0.6782739 -0.7348093 0.0 0.6782739 -0.7348093 0.0 0.6782739 -0.7348093 0.0 -0.7009049 -0.7132547 0.0 -0.7009049 -0.7132547 0.0 -0.7009049 -0.7132547 0.0 -0.7535644 -0.6573741 0.0 -0.7535644 -0.6573741 0.0 -0.7535644 -0.6573741 0.0 -0.6726651 -0.7399471 0.0 -0.6726651 -0.7399471 0.0 -0.6726651 -0.7399471 0.0 -0.7045219 0.7096822 -3.165E-4 -0.7045167 0.7096874 0.0 -0.7045167 0.7096874 0.0 -0.7045245 0.7096795 -4.747E-4 -0.7045321 0.7096714 -9.494E-4 -0.6726651 -0.739947 0.0 -0.6726651 -0.7399471 0.0 -0.6726651 -0.739947 0.0 -0.6726651 -0.739947 0.0 0.7053412 -0.708868 0.0 0.7053412 -0.708868 0.0 0.7053412 -0.708868 0.0 0.7053412 -0.708868 0.0 0.7100952 0.7041057 0.0 0.7100952 0.7041057 0.0 0.7100952 0.7041057 0.0 0.7100952 0.7041057 0.0 -0.7535644 -0.6573741 0.0 -0.7535644 -0.6573741 0.0 -0.7535644 -0.6573741 0.0 -0.7535644 -0.6573741 0.0 0.6981006 0.7159997 0.0 0.6981006 0.7159997 0.0 0.6981006 0.7159997 0.0 -0.7203214 -0.6936405 0.0 -0.7203214 -0.6936405 0.0 -0.7203214 -0.6936405 0.0 -0.7203214 -0.6936405 0.0 0.7035446 -0.7106512 0.0 0.7035446 -0.7106512 0.0 0.7035446 -0.7106512 0.0 0.7035446 -0.7106512 0.0 -0.7266484 -0.6870096 0.0 -0.7266484 -0.6870096 0.0 -0.7266484 -0.6870096 0.0 -0.7266484 -0.6870096 0.0 -0.7266484 -0.6870095 0.0 -0.7266484 -0.6870095 0.0 -0.7266484 -0.6870095 0.0 0.7053412 -0.708868 0.0 0.7053412 -0.708868 0.0 0.7053412 -0.708868 0.0 0.7053412 -0.708868 0.0 0.0 0.0 -1.0 0.0 0.0 -1.0 0.0 0.0 -1.0 0.0 0.0 -1.0 0.0 0.0 -1.0 0.0 0.0 -1.0 0.0 0.0 -1.0 0.0 0.0 -1.0 0.0 0.0 -1.0 0.0 0.0 -1.0 0.0 0.0 -1.0 0.0 0.0 -1.0 0.0 0.0 -1.0 0.0 0.0 -1.0 0.0 0.0 -1.0 0.0 0.0 -1.0 0.0 0.0 -1.0 0.0 0.0 -1.0 0.0 0.0 -1.0 0.0 0.0 -1.0 0.0 0.0 -1.0 0.0 0.0 -1.0 0.0 0.0 -1.0 0.0 0.0 -1.0 0.0 0.0 -1.0 0.0 0.0 -1.0 0.0 0.0 -1.0 0.0 0.0 -1.0 0.0 0.0 -1.0 0.0 0.0 -1.0 0.0 0.0 -1.0 0.0 0.0 -1.0 0.0 0.0 -1.0 0.0 0.0 -1.0 0.0 0.0 -1.0 0.0 0.0 -1.0 0.0 0.0 -1.0 -0.7071068 0.7071068 0.0 -0.7071068 0.7071068 0.0 -0.7071068 0.7071068 0.0 0.7025722 -0.7116125 0.0 0.7025722 -0.7116125 0.0 0.7025722 -0.7116125 0.0 0.7025722 -0.7116125 0.0 0.1357214 0.1359966 0.9813688 0.1352479 0.1354296 0.9815126 0.1352341 0.1354157 0.9815164 0.1361341 0.1365002 0.9812417 0.136067 0.1363756 0.9812682 0.1355767 0.1357641 0.981421 0.1357837 0.135972 0.9813635 0.7048052 -0.709401 0.0 0.7048052 -0.709401 0.0 0.7048052 -0.709401 0.0 0.7048052 -0.709401 0.0 0.7026473 0.7115384 0.0 0.7026473 0.7115384 0.0 0.7026473 0.7115384 0.0 0.7026473 0.7115384 0.0 -0.7053413 0.7088678 0.0 -0.7053413 0.7088678 0.0 -0.7053413 0.7088678 0.0 -0.7053413 0.7088678 0.0 0.7191225 0.6948834 0.0 0.7191225 0.6948834 0.0 0.7191225 0.6948834 0.0 0.7191225 0.6948834 0.0 0.71154 0.7026456 0.0 0.71154 0.7026456 0.0 0.71154 0.7026456 0.0 0.71154 0.7026456 0.0 -0.7095596 -0.7046455 0.0 -0.7095596 -0.7046455 0.0 -0.7095596 -0.7046455 0.0 0.7348034 -0.6782801 0.0 0.7348034 -0.6782801 0.0 0.7348034 -0.6782801 0.0 0.7348034 -0.6782801 0.0 0.1642279 -0.1655003 0.9724396 0.164445 -0.1657653 0.9723578 0.1643653 -0.1656585 0.9723895 0.1641652 -0.1654299 0.9724622 0.2083562 -0.2098776 0.9552691 0.1689442 -0.1701902 0.9708209 0.2230754 -0.224677 0.9485555 0.2063973 -0.2075624 0.9561998 0.1642943 -0.1655198 0.9724251 0.1643999 -0.1655207 0.9724071 0.1645463 -0.1654993 0.9723859 0.1641665 -0.1656323 0.9724275 0.1625915 -0.167401 0.9723892 0.1643037 -0.1655441 0.9724194 0.1608757 -0.1692588 0.972353 0.1572502 -0.1728697 0.9723108 -0.7093781 -0.7048281 0.0 -0.7093781 -0.7048281 0.0 -0.7093781 -0.7048281 0.0 -0.7093781 -0.7048281 0.0 -0.7093516 -0.7048548 0.0 -0.7093516 -0.7048548 0.0 -0.7093516 -0.7048548 0.0 -0.7093516 -0.7048548 0.0 -0.7371833 0.6756928 0.0 -0.7371833 0.6756928 0.0 -0.7371833 0.6756928 0.0 -0.7371833 0.6756928 0.0 0.6908574 0.722991 0.0 0.6908574 0.722991 0.0 0.6908574 0.722991 0.0 0.6908574 0.722991 0.0 -0.7045167 0.7096874 0.0 -0.7045167 0.7096874 0.0 -0.7045167 0.7096874 0.0 -0.7045167 0.7096874 0.0 -0.7095596 -0.7046455 0.0 -0.7095596 -0.7046455 0.0 -0.7095596 -0.7046455 0.0 -0.7095596 -0.7046455 0.0 -0.6987393 -0.7153763 0.0 -0.6987393 -0.7153763 0.0 -0.6987393 -0.7153763 0.0 -0.6987393 -0.7153763 0.0 -0.7035502 0.7106456 1.024E-4 -0.7035477 0.7106481 0.0 -0.7035477 0.7106481 0.0 -0.7035514 0.7106444 1.536E-4 -0.703555 0.7106407 3.071E-4 -0.7071068 0.7071068 0.0 -0.7071068 0.7071068 0.0 -0.7071068 0.7071068 0.0 -0.7071068 0.7071068 0.0 -0.6938106 -0.7201576 0.0 -0.6938106 -0.7201576 0.0 -0.6938106 -0.7201576 0.0 -0.6938106 -0.7201576 0.0 -0.7044769 0.7097269 0.0 -0.7044769 0.7097269 0.0 -0.7044769 0.7097269 0.0 -0.7044769 0.7097269 0.0 -0.7110547 -0.7031367 0.0 -0.7110547 -0.7031367 0.0 -0.7110547 -0.7031367 0.0 -0.7110547 -0.7031367 0.0 0.7035801 -0.710616 0.0 0.7035801 -0.710616 0.0 0.7035801 -0.710616 0.0 0.7035801 -0.710616 0.0 -0.6938106 -0.7201576 0.0 -0.6938106 -0.7201576 0.0 -0.6938106 -0.7201576 0.0 0.7030545 0.7111359 0.0 0.7030545 0.7111359 0.0 0.7030545 0.7111359 0.0 0.7030545 0.7111359 0.0 -0.7158907 -0.6982123 0.0 -0.7158907 -0.6982123 0.0 -0.7158907 -0.6982123 0.0 -0.7158907 -0.6982123 0.0 0.7035477 -0.7106481 -1.35E-4 0.7035446 -0.7106512 0.0 0.7035446 -0.7106512 0.0 0.7035493 -0.7106464 -2.025E-4 0.703554 -0.7106417 -4.05E-4 -0.7231716 -0.6906683 0.0 -0.7231716 -0.6906683 0.0 -0.7231716 -0.6906683 0.0 -0.7231717 -0.6906683 0.0 0.7100952 0.7041057 0.0 0.7100952 0.7041057 0.0 0.7100952 0.7041057 0.0 -0.7035477 0.710648 0.0 -0.7035477 0.710648 0.0 -0.7035477 0.710648 0.0 -0.7035477 0.710648 0.0 0.7334308 0.6797642 0.0 0.7334308 0.6797642 0.0 0.7334308 0.6797642 0.0 0.7334308 0.6797641 0.0 -0.7030998 -0.7110912 0.0 -0.7030998 -0.7110912 0.0 -0.7030998 -0.7110912 0.0 -0.7030998 -0.7110912 0.0 0.7048051 -0.709401 0.0 0.7048051 -0.709401 0.0 0.7048051 -0.709401 0.0 0.7048052 -0.709401 0.0</float_array>
                    <technique_common>
                        <accessor count="370" source="#geometry0-normal-array" stride="3">
                            <param name="X" type="float"/>
                            <param name="Y" type="float"/>
                            <param name="Z" type="float"/>
                        </accessor>
                    </technique_common>
                </source>
                <vertices id="geometry0-vertex">
                    <input semantic="POSITION" source="#geometry0-position"/>
                </vertices>
                <triangles count="173" material="default_ai_0.2_sh_0.2_tr_0.0_dc_r_0.8_g_0.8_b_0.8_sc_r_1.0_g_1.0_b_1.0_ec_r_0.0_g_0.0_b_0_tri">
                    <input offset="0" semantic="VERTEX" source="#geometry0-vertex"/>
                    <input offset="1" semantic="NORMAL" source="#geometry0-normal"/>
                    <p>96 0 92 1 91 2 82 3 31 4 34 5 82 3 34 5 86 6 9 7 39 8 38 9 9 7 38 9 68 10 27 11 30 12 67 13 27 11 67 13 90 14 62 15 88 16 89 17 62 15 89 17 63 18 12 19 13 20 14 21 12 19 14 21 15 22 4 23 7 24 16 25 4 23 16 25 17 26 19 27 27 28 90 29 19 27 90 29 20 30 55 31 57 32 108 33 55 31 108 33 73 34 1 35 22 36 78 37 1 35 78 37 2 38 8 39 40 40 39 41 8 39 39 41 9 42 91 43 94 44 107 45 91 43 107 45 101 46 18 59 19 60 20 61 18 59 20 61 21 62 48 63 47 64 49 65 48 63 49 65 50 66 50 67 49 68 95 69 50 67 95 69 70 70 61 71 37 72 36 73 61 71 36 73 62 74 25 75 26 76 22 77 25 75 22 77 23 78 25 75 23 78 24 79 51 80 52 81 53 82 51 80 53 82 54 83 94 84 93 85 98 86 94 84 98 86 104 87 69 88 44 89 13 90 69 88 13 90 12 91 26 92 4 93 17 94 26 92 17 94 77 95 88 112 35 113 44 114 88 112 44 114 69 115 27 116 28 117 29 118 27 116 29 118 30 119 104 120 45 121 46 122 104 120 46 122 106 123 70 124 58 125 71 126 70 124 71 126 72 127 48 128 50 129 99 130 48 128 99 130 100 131 55 132 56 133 57 134 60 135 56 136 55 137 31 138 84 139 32 140 80 141 65 142 30 143 80 141 30 143 29 144 80 141 29 144 81 145 31 146 32 147 33 148 31 146 33 148 34 149 7 150 8 151 11 152 7 150 11 152 16 153 0 154 1 155 2 156 0 154 2 156 3 157 60 158 55 159 73 160 60 158 73 160 74 161 19 162 28 163 27 164 69 165 12 166 75 167 69 165 75 167 76 168 15 169 48 170 100 171 15 169 100 171 105 172 57 173 51 174 103 175 57 173 103 175 108 176 57 177 52 178 51 179 7 180 6 181 40 182 7 180 40 182 8 183 100 184 99 185 105 186 99 185 72 187 105 186 72 187 71 188 105 186 71 188 74 189 105 186 74 189 73 190 105 186 73 190 108 191 105 186 108 191 103 192 105 186 103 192 87 193 105 186 87 193 86 194 105 186 105 186 86 194 75 195 33 196 102 197 34 198 34 198 102 197 86 194 86 194 102 197 75 195 75 195 102 197 76 199 102 197 101 200 76 199 101 200 107 201 76 199 76 199 107 201 89 202 21 203 20 204 46 205 46 205 20 204 106 206 20 204 90 207 106 206 90 207 67 208 106 206 67 208 66 209 106 206 3 210 2 211 66 209 66 209 2 211 106 206 106 206 2 211 107 201 2 211 78 212 107 201 78 212 77 213 107 201 77 213 17 214 107 201 17 214 16 215 107 201 11 216 10 217 16 215 10 217 109 218 16 215 16 215 109 218 107 201 109 218 64 219 107 201 107 201 64 219 89 202 89 202 64 219 63 220 65 221 80 222 0 223 22 224 26 225 77 226 22 224 77 226 78 227 68 235 61 236 64 237 68 235 64 237 109 238 96 239 91 240 101 241 96 239 101 241 102 242 32 243 96 244 102 245 32 243 102 245 33 246 91 247 92 248 93 249 91 247 93 249 94 250 4 251 5 252 6 253 4 251 6 253 7 254 58 255 59 256 60 257 1 258 79 259 23 260 1 258 23 260 22 261 82 278 83 279 84 280 82 278 84 280 31 281 50 282 70 283 72 284 50 282 72 284 99 285 51 286 54 287 87 288 51 286 87 288 103 289 61 290 62 291 63 292 61 290 63 292 64 293 30 294 65 295 66 296 30 294 66 296 67 297 58 298 60 299 74 300 58 298 74 300 71 301 12 302 15 303 105 304 12 302 105 304 75 305 83 306 82 307 54 308 83 306 54 308 53 309 83 306 53 309 85 310 65 311 0 312 3 313 65 311 3 313 66 314 45 315 18 316 21 317 45 315 21 317 46 318 94 319 104 320 106 321 94 319 106 321 107 322 70 323 95 324 59 325 70 323 59 325 58 326 88 327 69 328 76 329 88 327 76 329 89 330 45 331 97 332 18 333 26 334 25 335 5 336 26 334 5 336 4 337 8 338 9 339 10 340 8 338 10 340 11 341 47 342 48 343 15 344 47 342 15 344 14 345 47 342 14 345 43 346 104 347 98 348 97 349 104 347 97 349 45 350 0 351 79 352 1 353 54 354 82 355 86 356 54 354 86 356 87 357 62 358 36 359 35 360 62 358 35 360 88 361 9 362 68 363 109 364 9 362 109 364 10 365 68 366 38 367 37 368 68 366 37 368 61 369</p>
                </triangles>
                <triangles count="43" material="default_ai_0.2_sh_0.2_tr_0.0_dc_r_1.0_g_0.2_b_0.2_sc_r_1.0_g_1.0_b_1.0_ec_r_0.0_g_0.0_b_0_tri">
                    <input offset="0" semantic="VERTEX" source="#geometry0-vertex"/>
                    <input offset="1" semantic="NORMAL" source="#geometry0-normal"/>
                    <p>53 47 52 48 57 49 53 47 57 49 56 50 85 51 53 47 56 50 85 51 56 50 60 52 85 51 60 52 59 53 85 51 59 53 95 54 85 51 95 54 49 55 85 51 49 55 47 56 85 51 47 56 43 57 85 51 43 57 42 58 85 96 42 97 41 98 83 99 85 96 41 98 84 100 83 99 41 98 32 101 84 100 41 98 92 102 96 103 32 101 93 104 92 102 32 101 93 104 32 101 41 98 98 105 93 104 41 98 98 105 41 98 81 106 98 105 81 106 29 107 98 105 29 107 28 108 98 105 28 108 19 109 97 110 98 105 19 109 97 110 19 109 18 111 81 228 41 229 24 230 81 228 24 230 23 231 81 228 23 231 79 232 80 233 81 228 79 232 80 233 79 232 0 234 13 262 44 263 35 264 13 262 35 264 36 265 13 262 36 265 37 266 14 267 13 262 37 266 43 268 14 267 37 266 43 268 37 266 38 269 42 270 43 268 38 269 41 271 42 270 38 269 41 271 38 269 39 272 41 271 39 272 40 273 25 274 24 275 41 271 25 274 41 271 40 273 25 274 40 273 6 276 25 274 6 276 5 277</p>
                </triangles>
            </mesh>
        </geometry>
    </library_geometries>
    <library_visual_scenes>
        <visual_scene id="Building_DEBW_5221000QmWo">
            <node>
                <instance_geometry url="#geometry0">
                    <bind_material>
                        <technique_common>
                            <instance_material symbol="default_ai_0.2_sh_0.2_tr_0.0_dc_r_0.8_g_0.8_b_0.8_sc_r_1.0_g_1.0_b_1.0_ec_r_0.0_g_0.0_b_0_tri" target="#default_ai_0.2_sh_0.2_tr_0.0_dc_r_0.8_g_0.8_b_0.8_sc_r_1.0_g_1.0_b_1.0_ec_r_0.0_g_0.0_b_0_mat"/>
                            <instance_material symbol="default_ai_0.2_sh_0.2_tr_0.0_dc_r_1.0_g_0.2_b_0.2_sc_r_1.0_g_1.0_b_1.0_ec_r_0.0_g_0.0_b_0_tri" target="#default_ai_0.2_sh_0.2_tr_0.0_dc_r_1.0_g_0.2_b_0.2_sc_r_1.0_g_1.0_b_1.0_ec_r_0.0_g_0.0_b_0_mat"/>
                        </technique_common>
                    </bind_material>
                </instance_geometry>
            </node>
        </visual_scene>
    </library_visual_scenes>
    <scene>
        <instance_visual_scene url="#Building_DEBW_5221000QmWo"/>
    </scene>
</COLLADA>
