<?xml version="1.0" encoding="UTF-8" standalone="yes"?>
<COLLADA xmlns="http://www.collada.org/2005/11/COLLADASchema" version="1.4.1">
    <asset>
        <contributor>
            <authoring_tool>3D City Database Importer/Exporter, version 5.5.3; Chair of Geoinformatics, Technical University of Munich</authoring_tool>
        </contributor>
        <created>2026-05-06T15:12:09.671</created>
        <modified>2026-05-06T15:12:09.671</modified>
        <unit meter="1.0" name="meters"/>
        <up_axis>Z_UP</up_axis>
    </asset>
    <library_materials>
        <material id="default_ai_0.2_sh_0.2_tr_0.0_dc_r_0.8_g_0.8_b_0.8_sc_r_1.0_g_1.0_b_1.0_ec_r_0.0_g_0.0_b_0_mat">
            <instance_effect url="#default_ai_0.2_sh_0.2_tr_0.0_dc_r_0.8_g_0.8_b_0.8_sc_r_1.0_g_1.0_b_1.0_ec_r_0.0_g_0.0_b_0_eff"/>
        </material>
        <material id="default_ai_0.2_sh_0.2_tr_0.0_dc_r_1.0_g_0.2_b_0.2_sc_r_1.0_g_1.0_b_1.0_ec_r_0.0_g_0.0_b_0_mat">
            <instance_effect url="#default_ai_0.2_sh_0.2_tr_0.0_dc_r_1.0_g_0.2_b_0.2_sc_r_1.0_g_1.0_b_1.0_ec_r_0.0_g_0.0_b_0_eff"/>
        </material>
    </library_materials>
    <library_effects>
        <effect id="default_ai_0.2_sh_0.2_tr_0.0_dc_r_0.8_g_0.8_b_0.8_sc_r_1.0_g_1.0_b_1.0_ec_r_0.0_g_0.0_b_0_eff">
            <profile_COMMON>
                <technique sid="COMMON">
                    <lambert>
                        <emission>
                            <color>0.0 0.0 0.0 1.0</color>
                        </emission>
                        <diffuse>
                            <color>0.8 0.8 0.8 1.0</color>
                        </diffuse>
                        <reflective>
                            <color>1.0 1.0 1.0 1.0</color>
                        </reflective>
                        <reflectivity>
                            <float>0.2</float>
                        </reflectivity>
                        <transparent opaque="A_ONE">
                            <color>1.0 1.0 1.0 1.0</color>
                        </transparent>
                        <transparency>
                            <float>1.0</float>
                        </transparency>
                    </lambert>
                </technique>
                <extra>
                    <technique profile="GOOGLEEARTH">
                        <double_sided>0</double_sided>
                    </technique>
                </extra>
            </profile_COMMON>
        </effect>
        <effect id="default_ai_0.2_sh_0.2_tr_0.0_dc_r_1.0_g_0.2_b_0.2_sc_r_1.0_g_1.0_b_1.0_ec_r_0.0_g_0.0_b_0_eff">
            <profile_COMMON>
                <technique sid="COMMON">
                    <lambert>
                        <emission>
                            <color>0.0 0.0 0.0 1.0</color>
                        </emission>
                        <diffuse>
                            <color>1.0 0.2 0.2 1.0</color>
                        </diffuse>
                        <reflective>
                            <color>1.0 1.0 1.0 1.0</color>
                        </reflective>
                        <reflectivity>
                            <float>0.2</float>
                        </reflectivity>
                        <transparent opaque="A_ONE">
                            <color>1.0 1.0 1.0 1.0</color>
                        </transparent>
                        <transparency>
                            <float>1.0</float>
                        </transparency>
                    </lambert>
                </technique>
                <extra>
                    <technique profile="GOOGLEEARTH">
                        <double_sided>0</double_sided>
                    </technique>
                </extra>
            </profile_COMMON>
        </effect>
    </library_effects>
    <library_geometries>
        <geometry id="geometry0">
            <mesh>
                <source id="geometry0-position">
                    <float_array id="geometry0-position-array" count="78">0.0 0.0 0.0 12.49 7.26 0.0 18.1 -2.34 0.0 13.06 -5.29 0.0 13.21 -5.59 0.0 13.06 -5.69 0.0 12.98 -5.54 0.0 11.12 -6.62 0.0 11.2 -6.75 0.0 11.02 -6.87 0.0 10.85 -6.58 0.0 5.66 -9.61 0.0 11.2 -6.75 8.689 11.02 -6.87 8.678 18.1 -2.34 8.966 13.06 -5.29 8.962 2.774 -4.71 13.783 15.231 2.569 13.783 12.49 7.26 9.825 0.0 0.0 9.801 5.66 -9.61 8.965 13.06 -5.69 8.67 12.98 -5.54 8.813 11.12 -6.62 8.819 13.21 -5.59 8.679 10.85 -6.58 8.963</float_array>
                    <technique_common>
                        <accessor count="26" source="#geometry0-position-array" stride="3">
                            <param name="X" type="float"/>
                            <param name="Y" type="float"/>
                            <param name="Z" type="float"/>
                        </accessor>
                    </technique_common>
                </source>
                <source id="geometry0-normal">
                    <float_array id="geometry0-normal-array" count="246">-0.8616575 -0.5074903 0.0 -0.8616575 -0.5074902 0.0 -0.8616575 -0.5074903 0.0 -0.8616576 -0.5074903 0.0 0.5051481 -0.8630327 0.0 0.5051481 -0.8630327 0.0 0.5051481 -0.8630327 0.0 0.5051481 -0.8630326 0.0 0.8633896 0.5045379 5.98E-5 0.8633896 0.5045379 5.98E-5 0.8633896 0.5045379 5.98E-5 -0.2970631 0.5083866 0.8082677 -0.2970669 0.5083888 0.8082649 -0.2970631 0.5083866 0.8082677 -0.2970593 0.5083845 0.8082704 0.3248213 -0.5560821 0.7650254 0.3241526 -0.557382 0.7643628 0.3250843 -0.5578687 0.7636117 0.3257282 -0.5584454 0.7629154 0.3238849 -0.562445 0.760759 0.3260767 -0.5581282 0.7629988 0.326196 -0.5581148 0.7629575 0.3232008 -0.5635764 0.7602124 0.3261345 -0.5581229 0.7629777 0.3229742 -0.563475 0.7603838 0.3242019 -0.5606309 0.7619621 0.3258017 -0.5586186 0.7627572 -0.8823509 -0.470592 0.0 -0.882351 -0.4705921 0.0 -0.8823509 -0.470592 0.0 -0.8823509 -0.470592 0.0 0.5547012 -0.8320496 0.0 0.5547012 -0.8320496 0.0 0.5547012 -0.8320496 0.0 0.5547012 -0.8320496 0.0 0.5041813 -0.8635979 0.0 0.5041813 -0.8635979 0.0 0.5041813 -0.8635979 0.0 0.5041813 -0.8635978 0.0 0.5547009 -0.8320498 0.0 0.5547008 -0.8320498 0.0 0.5547009 -0.8320498 0.0 0.5547009 -0.83205 0.0 -0.5025362 0.8645561 0.0 -0.5025362 0.8645561 0.0 -0.5025362 0.8645561 0.0 -0.5025362 0.8645561 0.0 0.5021356 -0.864789 0.0 0.5021355 -0.8647889 0.0 0.5021356 -0.864789 0.0 0.5021356 -0.864789 0.0 0.8516588 0.5240967 0.0 0.8516588 0.5240967 0.0 0.8516588 0.5240967 0.0 0.8516588 0.5240967 0.0 0.8633872 0.5045419 0.0 0.8633872 0.5045419 0.0 0.8633872 0.5045419 0.0 0.8633872 0.5045419 0.0 0.8944278 0.4472125 0.0 0.8944277 0.4472124 0.0 0.8944278 0.4472125 0.0 0.8944278 0.4472125 0.0 -0.8626978 -0.5057198 0.0 -0.8626978 -0.5057197 0.0 -0.8626978 -0.5057198 0.0 -0.8626978 -0.5057197 0.0 0.0 0.0 -1.0 0.0 0.0 -1.0 0.0 0.0 -1.0 0.0 0.0 -1.0 0.0 0.0 -1.0 0.0 0.0 -1.0 0.0 0.0 -1.0 0.0 0.0 -1.0 0.0 0.0 -1.0 0.0 0.0 -1.0 0.0 0.0 -1.0 0.0 0.0 -1.0 -0.8616579 -0.5074897 -9.4E-6 -0.8616579 -0.5074897 -9.4E-6 -0.8616579 -0.5074897 -9.4E-6</float_array>
                    <technique_common>
                        <accessor count="82" source="#geometry0-normal-array" stride="3">
                            <param name="X" type="float"/>
                            <param name="Y" type="float"/>
                            <param name="Z" type="float"/>
                        </accessor>
                    </technique_common>
                </source>
                <vertices id="geometry0-vertex">
                    <input semantic="POSITION" source="#geometry0-position"/>
                </vertices>
                <triangles count="36" material="default_ai_0.2_sh_0.2_tr_0.0_dc_r_0.8_g_0.8_b_0.8_sc_r_1.0_g_1.0_b_1.0_ec_r_0.0_g_0.0_b_0_tri">
                    <input offset="0" semantic="VERTEX" source="#geometry0-vertex"/>
                    <input offset="1" semantic="NORMAL" source="#geometry0-normal"/>
                    <p>20 0 19 1 0 2 20 0 0 2 11 3 14 4 15 5 3 6 14 4 3 6 2 7 14 8 18 9 17 10 21 27 22 28 6 29 21 27 6 29 5 30 12 31 13 32 9 33 12 31 9 33 8 34 25 35 20 36 11 37 25 35 11 37 10 38 24 39 21 40 5 41 24 39 5 41 4 42 19 43 18 44 1 45 19 43 1 45 0 46 22 47 23 48 7 49 22 47 7 49 6 50 23 51 12 52 8 53 23 51 8 53 7 54 18 55 14 56 2 57 18 55 2 57 1 58 15 59 24 60 4 61 15 59 4 61 3 62 13 63 25 64 10 65 13 63 10 65 9 66 10 67 11 68 0 69 10 67 0 69 1 70 10 67 1 70 2 71 10 67 2 71 3 72 8 73 9 74 10 67 7 75 8 73 10 67 7 75 10 67 3 72 6 76 7 75 3 72 6 76 3 72 4 77 6 76 4 77 5 78 19 79 20 80 16 81</p>
                </triangles>
                <triangles count="12" material="default_ai_0.2_sh_0.2_tr_0.0_dc_r_1.0_g_0.2_b_0.2_sc_r_1.0_g_1.0_b_1.0_ec_r_0.0_g_0.0_b_0_tri">
                    <input offset="0" semantic="VERTEX" source="#geometry0-vertex"/>
                    <input offset="1" semantic="NORMAL" source="#geometry0-normal"/>
                    <p>16 11 17 12 18 13 16 11 18 13 19 14 21 15 24 16 22 17 24 16 15 18 22 17 22 17 15 18 23 19 14 20 17 21 15 18 15 18 17 21 23 19 17 21 16 22 23 19 20 23 25 24 16 22 16 22 25 24 23 19 23 19 25 24 12 25 12 25 25 24 13 26</p>
                </triangles>
            </mesh>
        </geometry>
    </library_geometries>
    <library_visual_scenes>
        <visual_scene id="Building_DEBW_52210006Jyg">
            <node>
                <instance_geometry url="#geometry0">
                    <bind_material>
                        <technique_common>
                            <instance_material symbol="default_ai_0.2_sh_0.2_tr_0.0_dc_r_0.8_g_0.8_b_0.8_sc_r_1.0_g_1.0_b_1.0_ec_r_0.0_g_0.0_b_0_tri" target="#default_ai_0.2_sh_0.2_tr_0.0_dc_r_0.8_g_0.8_b_0.8_sc_r_1.0_g_1.0_b_1.0_ec_r_0.0_g_0.0_b_0_mat"/>
                            <instance_material symbol="default_ai_0.2_sh_0.2_tr_0.0_dc_r_1.0_g_0.2_b_0.2_sc_r_1.0_g_1.0_b_1.0_ec_r_0.0_g_0.0_b_0_tri" target="#default_ai_0.2_sh_0.2_tr_0.0_dc_r_1.0_g_0.2_b_0.2_sc_r_1.0_g_1.0_b_1.0_ec_r_0.0_g_0.0_b_0_mat"/>
                        </technique_common>
                    </bind_material>
                </instance_geometry>
            </node>
        </visual_scene>
    </library_visual_scenes>
    <scene>
        <instance_visual_scene url="#Building_DEBW_52210006Jyg"/>
    </scene>
</COLLADA>
