<?xml version="1.0" encoding="UTF-8" standalone="yes"?>
<COLLADA xmlns="http://www.collada.org/2005/11/COLLADASchema" version="1.4.1">
    <asset>
        <contributor>
            <authoring_tool>3D City Database Importer/Exporter, version 5.5.3; Chair of Geoinformatics, Technical University of Munich</authoring_tool>
        </contributor>
        <created>2026-05-06T15:12:02.614</created>
        <modified>2026-05-06T15:12:02.614</modified>
        <unit meter="1.0" name="meters"/>
        <up_axis>Z_UP</up_axis>
    </asset>
    <library_materials>
        <material id="default_ai_0.2_sh_0.2_tr_0.0_dc_r_0.8_g_0.8_b_0.8_sc_r_1.0_g_1.0_b_1.0_ec_r_0.0_g_0.0_b_0_mat">
            <instance_effect url="#default_ai_0.2_sh_0.2_tr_0.0_dc_r_0.8_g_0.8_b_0.8_sc_r_1.0_g_1.0_b_1.0_ec_r_0.0_g_0.0_b_0_eff"/>
        </material>
        <material id="default_ai_0.2_sh_0.2_tr_0.0_dc_r_1.0_g_0.2_b_0.2_sc_r_1.0_g_1.0_b_1.0_ec_r_0.0_g_0.0_b_0_mat">
            <instance_effect url="#default_ai_0.2_sh_0.2_tr_0.0_dc_r_1.0_g_0.2_b_0.2_sc_r_1.0_g_1.0_b_1.0_ec_r_0.0_g_0.0_b_0_eff"/>
        </material>
    </library_materials>
    <library_effects>
        <effect id="default_ai_0.2_sh_0.2_tr_0.0_dc_r_0.8_g_0.8_b_0.8_sc_r_1.0_g_1.0_b_1.0_ec_r_0.0_g_0.0_b_0_eff">
            <profile_COMMON>
                <technique sid="COMMON">
                    <lambert>
                        <emission>
                            <color>0.0 0.0 0.0 1.0</color>
                        </emission>
                        <diffuse>
                            <color>0.8 0.8 0.8 1.0</color>
                        </diffuse>
                        <reflective>
                            <color>1.0 1.0 1.0 1.0</color>
                        </reflective>
                        <reflectivity>
                            <float>0.2</float>
                        </reflectivity>
                        <transparent opaque="A_ONE">
                            <color>1.0 1.0 1.0 1.0</color>
                        </transparent>
                        <transparency>
                            <float>1.0</float>
                        </transparency>
                    </lambert>
                </technique>
                <extra>
                    <technique profile="GOOGLEEARTH">
                        <double_sided>0</double_sided>
                    </technique>
                </extra>
            </profile_COMMON>
        </effect>
        <effect id="default_ai_0.2_sh_0.2_tr_0.0_dc_r_1.0_g_0.2_b_0.2_sc_r_1.0_g_1.0_b_1.0_ec_r_0.0_g_0.0_b_0_eff">
            <profile_COMMON>
                <technique sid="COMMON">
                    <lambert>
                        <emission>
                            <color>0.0 0.0 0.0 1.0</color>
                        </emission>
                        <diffuse>
                            <color>1.0 0.2 0.2 1.0</color>
                        </diffuse>
                        <reflective>
                            <color>1.0 1.0 1.0 1.0</color>
                        </reflective>
                        <reflectivity>
                            <float>0.2</float>
                        </reflectivity>
                        <transparent opaque="A_ONE">
                            <color>1.0 1.0 1.0 1.0</color>
                        </transparent>
                        <transparency>
                            <float>1.0</float>
                        </transparency>
                    </lambert>
                </technique>
                <extra>
                    <technique profile="GOOGLEEARTH">
                        <double_sided>0</double_sided>
                    </technique>
                </extra>
            </profile_COMMON>
        </effect>
    </library_effects>
    <library_geometries>
        <geometry id="geometry0">
            <mesh>
                <source id="geometry0-position">
                    <float_array id="geometry0-position-array" count="78">10.79 -4.06 5.26 12.98 -3.56 2.385 11.51 2.9 2.346 5.754 1.563 9.908 7.465 -5.801 9.908 11.01 -4.99 5.255 0.69 -2.99 1.597 0.0 0.0 1.604 0.0 0.0 0.0 0.69 -2.99 0.0 1.86 -3.02 3.176 0.76 -3.27 1.604 0.76 -3.27 0.0 1.86 -3.02 0.0 3.11 -2.74 4.962 3.11 -2.74 0.0 4.02 -6.59 4.983 10.79 -4.06 0.0 12.98 -3.56 0.0 2.34 0.54 4.951 2.3 0.76 4.966 2.3 0.76 0.0 2.34 0.54 0.0 4.02 -6.59 0.0 11.01 -4.99 0.0 11.51 2.9 0.0</float_array>
                    <technique_common>
                        <accessor count="26" source="#geometry0-position-array" stride="3">
                            <param name="X" type="float"/>
                            <param name="Y" type="float"/>
                            <param name="Z" type="float"/>
                        </accessor>
                    </technique_common>
                </source>
                <source id="geometry0-normal">
                    <float_array id="geometry0-normal-array" count="246">0.0 0.0 -1.0 0.0 0.0 -1.0 0.0 0.0 -1.0 0.0 0.0 -1.0 0.0 0.0 -1.0 0.0 0.0 -1.0 0.0 0.0 -1.0 0.0 0.0 -1.0 0.0 0.0 -1.0 0.0 0.0 -1.0 0.0 0.0 -1.0 0.0 0.0 -1.0 -0.2263268 0.9740514 0.0 -0.2263268 0.9740514 0.0 -0.2263268 0.9740514 0.0 -0.2263268 0.9740514 0.0 0.2185833 -0.9758183 0.0 0.2185833 -0.9758183 0.0 0.2185833 -0.9758183 0.0 0.2185833 -0.9758183 0.0 -0.9838699 -0.1788853 0.0 -0.9838699 -0.1788853 0.0 -0.9838699 -0.1788853 0.0 -0.9838699 -0.1788853 0.0 -0.7913778 -0.1838729 0.5830197 -0.7913778 -0.1838734 0.5830194 -0.7914588 -0.1837445 0.5829502 -0.7914687 -0.1837326 0.5829405 -0.7914878 -0.1837447 0.5829109 -0.7915059 -0.1836728 0.5829087 -0.7914649 -0.183792 0.5829269 -0.7914509 -0.1836491 0.582991 -0.7913961 -0.1838941 0.582988 -0.7913866 -0.1839925 0.58297 -0.9743912 -0.2248595 0.0 -0.9743912 -0.2248595 0.0 -0.9743912 -0.2248595 0.0 -0.9743912 -0.2248595 0.0 -0.9701425 -0.2425356 0.0 -0.9701425 -0.2425356 0.0 -0.9701425 -0.2425356 0.0 -0.9701425 -0.2425356 0.0 0.2216211 -0.9751328 0.0 0.2216211 -0.9751328 0.0 0.2216211 -0.9751328 0.0 0.2216211 -0.9751328 0.0 -0.9731846 -0.2300255 0.0 -0.9731846 -0.2300255 0.0 -0.9731846 -0.2300255 0.0 -0.9731846 -0.2300255 0.0 -0.2248595 0.9743912 0.0 -0.2248595 0.9743912 0.0 -0.2248595 0.9743912 0.0 -0.2248595 0.9743912 0.0 0.9731419 0.2302059 0.0 0.9731419 0.2302059 0.0 0.9731419 0.2302059 0.0 0.9731419 0.2302059 0.0 0.7675382 0.1783734 0.6156852 0.7675145 0.1783866 0.6157107 0.7674844 0.1783345 0.6157634 0.76746 0.178316 0.6157991 0.7674446 0.1782742 0.6158304 0.7674652 0.1783179 0.615792 0.2231278 -0.9747892 0.0 0.2231278 -0.9747892 0.0 0.2231278 -0.9747892 0.0 0.2231278 -0.9747892 0.0 0.2231244 -0.97479 9.05E-5 0.2231244 -0.97479 9.05E-5 0.2231244 -0.97479 9.05E-5 0.2225831 -0.9749137 0.0 0.2225831 -0.9749137 0.0 0.2225831 -0.9749137 0.0 0.2225831 -0.9749137 0.0 -0.2263464 0.9740468 -7.26E-5 -0.2263464 0.9740468 -7.26E-5 -0.2263464 0.9740468 -7.26E-5 0.9750735 0.2218819 0.0 0.9750735 0.2218819 0.0 0.9750735 0.2218819 0.0 0.9750735 0.2218819 0.0</float_array>
                    <technique_common>
                        <accessor count="82" source="#geometry0-normal-array" stride="3">
                            <param name="X" type="float"/>
                            <param name="Y" type="float"/>
                            <param name="Z" type="float"/>
                        </accessor>
                    </technique_common>
                </source>
                <vertices id="geometry0-vertex">
                    <input semantic="POSITION" source="#geometry0-position"/>
                </vertices>
                <triangles count="36" material="default_ai_0.2_sh_0.2_tr_0.0_dc_r_0.8_g_0.8_b_0.8_sc_r_1.0_g_1.0_b_1.0_ec_r_0.0_g_0.0_b_0_tri">
                    <input offset="0" semantic="VERTEX" source="#geometry0-vertex"/>
                    <input offset="1" semantic="NORMAL" source="#geometry0-normal"/>
                    <p>9 0 8 1 22 2 12 3 9 0 22 2 13 4 12 3 22 2 15 5 13 4 22 2 15 5 22 2 21 6 15 5 21 6 25 7 15 5 25 7 18 8 15 5 18 8 17 9 15 5 17 9 24 10 15 5 24 10 23 11 20 12 2 13 25 14 20 12 25 14 21 15 14 16 10 17 13 18 14 16 13 18 15 19 19 20 20 21 21 22 19 20 21 22 22 23 6 34 7 35 8 36 6 34 8 36 9 37 11 38 6 39 9 40 11 38 9 40 12 41 10 42 11 43 12 44 10 42 12 44 13 45 16 46 14 47 15 48 16 46 15 48 23 49 7 50 19 51 22 52 7 50 22 52 8 53 0 54 5 55 24 56 0 54 24 56 17 57 5 64 16 65 23 66 5 64 23 66 24 67 16 68 5 69 4 70 1 71 0 72 17 73 1 71 17 73 18 74 2 75 20 76 3 77 2 78 1 79 18 80 2 78 18 80 25 81</p>
                </triangles>
                <triangles count="12" material="default_ai_0.2_sh_0.2_tr_0.0_dc_r_1.0_g_0.2_b_0.2_sc_r_1.0_g_1.0_b_1.0_ec_r_0.0_g_0.0_b_0_tri">
                    <input offset="0" semantic="VERTEX" source="#geometry0-vertex"/>
                    <input offset="1" semantic="NORMAL" source="#geometry0-normal"/>
                    <p>16 24 4 25 14 26 4 25 3 27 14 26 14 26 3 27 10 28 10 28 3 27 11 29 11 29 3 27 6 30 20 31 19 32 3 27 3 27 19 32 6 30 6 30 19 32 7 33 1 58 2 59 0 60 2 59 3 61 0 60 0 60 3 61 5 62 5 62 3 61 4 63</p>
                </triangles>
            </mesh>
        </geometry>
    </library_geometries>
    <library_visual_scenes>
        <visual_scene id="Building_DEBW_5221000QhCu">
            <node>
                <instance_geometry url="#geometry0">
                    <bind_material>
                        <technique_common>
                            <instance_material symbol="default_ai_0.2_sh_0.2_tr_0.0_dc_r_0.8_g_0.8_b_0.8_sc_r_1.0_g_1.0_b_1.0_ec_r_0.0_g_0.0_b_0_tri" target="#default_ai_0.2_sh_0.2_tr_0.0_dc_r_0.8_g_0.8_b_0.8_sc_r_1.0_g_1.0_b_1.0_ec_r_0.0_g_0.0_b_0_mat"/>
                            <instance_material symbol="default_ai_0.2_sh_0.2_tr_0.0_dc_r_1.0_g_0.2_b_0.2_sc_r_1.0_g_1.0_b_1.0_ec_r_0.0_g_0.0_b_0_tri" target="#default_ai_0.2_sh_0.2_tr_0.0_dc_r_1.0_g_0.2_b_0.2_sc_r_1.0_g_1.0_b_1.0_ec_r_0.0_g_0.0_b_0_mat"/>
                        </technique_common>
                    </bind_material>
                </instance_geometry>
            </node>
        </visual_scene>
    </library_visual_scenes>
    <scene>
        <instance_visual_scene url="#Building_DEBW_5221000QhCu"/>
    </scene>
</COLLADA>
