<?xml version="1.0" encoding="UTF-8" standalone="yes"?>
<COLLADA xmlns="http://www.collada.org/2005/11/COLLADASchema" version="1.4.1">
    <asset>
        <contributor>
            <authoring_tool>3D City Database Importer/Exporter, version 5.5.3; Chair of Geoinformatics, Technical University of Munich</authoring_tool>
        </contributor>
        <created>2026-05-06T15:12:04.671</created>
        <modified>2026-05-06T15:12:04.671</modified>
        <unit meter="1.0" name="meters"/>
        <up_axis>Z_UP</up_axis>
    </asset>
    <library_materials>
        <material id="default_ai_0.2_sh_0.2_tr_0.0_dc_r_0.8_g_0.8_b_0.8_sc_r_1.0_g_1.0_b_1.0_ec_r_0.0_g_0.0_b_0_mat">
            <instance_effect url="#default_ai_0.2_sh_0.2_tr_0.0_dc_r_0.8_g_0.8_b_0.8_sc_r_1.0_g_1.0_b_1.0_ec_r_0.0_g_0.0_b_0_eff"/>
        </material>
        <material id="default_ai_0.2_sh_0.2_tr_0.0_dc_r_1.0_g_0.2_b_0.2_sc_r_1.0_g_1.0_b_1.0_ec_r_0.0_g_0.0_b_0_mat">
            <instance_effect url="#default_ai_0.2_sh_0.2_tr_0.0_dc_r_1.0_g_0.2_b_0.2_sc_r_1.0_g_1.0_b_1.0_ec_r_0.0_g_0.0_b_0_eff"/>
        </material>
    </library_materials>
    <library_effects>
        <effect id="default_ai_0.2_sh_0.2_tr_0.0_dc_r_0.8_g_0.8_b_0.8_sc_r_1.0_g_1.0_b_1.0_ec_r_0.0_g_0.0_b_0_eff">
            <profile_COMMON>
                <technique sid="COMMON">
                    <lambert>
                        <emission>
                            <color>0.0 0.0 0.0 1.0</color>
                        </emission>
                        <diffuse>
                            <color>0.8 0.8 0.8 1.0</color>
                        </diffuse>
                        <reflective>
                            <color>1.0 1.0 1.0 1.0</color>
                        </reflective>
                        <reflectivity>
                            <float>0.2</float>
                        </reflectivity>
                        <transparent opaque="A_ONE">
                            <color>1.0 1.0 1.0 1.0</color>
                        </transparent>
                        <transparency>
                            <float>1.0</float>
                        </transparency>
                    </lambert>
                </technique>
                <extra>
                    <technique profile="GOOGLEEARTH">
                        <double_sided>0</double_sided>
                    </technique>
                </extra>
            </profile_COMMON>
        </effect>
        <effect id="default_ai_0.2_sh_0.2_tr_0.0_dc_r_1.0_g_0.2_b_0.2_sc_r_1.0_g_1.0_b_1.0_ec_r_0.0_g_0.0_b_0_eff">
            <profile_COMMON>
                <technique sid="COMMON">
                    <lambert>
                        <emission>
                            <color>0.0 0.0 0.0 1.0</color>
                        </emission>
                        <diffuse>
                            <color>1.0 0.2 0.2 1.0</color>
                        </diffuse>
                        <reflective>
                            <color>1.0 1.0 1.0 1.0</color>
                        </reflective>
                        <reflectivity>
                            <float>0.2</float>
                        </reflectivity>
                        <transparent opaque="A_ONE">
                            <color>1.0 1.0 1.0 1.0</color>
                        </transparent>
                        <transparency>
                            <float>1.0</float>
                        </transparency>
                    </lambert>
                </technique>
                <extra>
                    <technique profile="GOOGLEEARTH">
                        <double_sided>0</double_sided>
                    </technique>
                </extra>
            </profile_COMMON>
        </effect>
    </library_effects>
    <library_geometries>
        <geometry id="geometry0">
            <mesh>
                <source id="geometry0-position">
                    <float_array id="geometry0-position-array" count="402">0.94 0.96 12.366 0.0 0.0 12.366 0.0 0.0 0.0 0.94 0.96 0.0 8.636 -7.153 12.366 8.65 -7.14 12.366 8.65 -7.14 0.0 8.636 -7.153 0.0 12.83 6.04 12.366 12.808 6.019 12.366 12.808 6.019 12.231 12.808 6.019 0.0 12.83 6.04 0.0 23.75 -5.43 12.366 23.0 -6.15 12.366 23.0 -6.15 0.0 23.75 -5.43 0.0 20.461 -1.989 12.366 20.47 -1.98 12.366 20.47 -1.98 0.0 20.461 -1.989 0.0 20.461 -1.989 12.222 -5.79 13.49 12.366 -5.796 13.496 12.366 -5.796 13.496 8.737 -5.796 13.496 0.0 -5.79 13.49 0.0 -0.55 18.47 12.366 0.21 19.2 12.366 0.21 19.2 0.0 -0.55 18.47 0.0 -8.55 10.88 12.366 -8.55 10.88 0.0 5.5 -3.84 12.366 5.5 -3.84 0.0 -8.43 10.76 12.366 -8.43 10.76 0.0 5.42 -5.68 12.366 4.55 -4.75 12.366 4.55 -4.75 0.0 5.42 -5.68 0.0 12.02 -10.7 12.366 12.018 -10.702 12.366 12.018 -10.702 0.0 12.02 -10.7 0.0 22.998 -6.148 0.0 17.746 -11.167 0.0 17.74 -11.16 0.0 14.98 -13.81 0.0 6.39 -4.76 0.0 -0.91 0.97 0.0 0.06 1.89 0.0 -2.19 4.28 0.0 -2.227 4.245 0.0 -5.603 7.787 0.0 -5.6 7.79 0.0 -0.554 18.474 0.0 3.52 15.78 0.0 3.499 15.759 0.0 9.221 9.772 0.0 9.25 9.8 0.0 9.25 9.8 12.366 -0.91 0.97 12.366 0.06 1.89 12.366 -2.19 4.28 12.366 -2.227 4.245 12.366 6.39 -4.76 12.366 -5.603 7.787 12.366 -5.6 7.79 12.366 -0.554 18.474 12.366 -0.554 18.474 8.735 3.52 15.78 12.366 3.499 15.759 12.366 17.746 -11.167 12.366 17.74 -11.16 12.366 17.746 -11.167 8.891 14.98 -13.81 12.366 9.221 9.772 12.366 22.998 -6.148 12.366 22.998 -6.148 8.891 8.93 13.45 11.355 10.89 11.38 11.36 10.89 11.38 0.0 8.93 13.45 0.0 3.52 15.78 12.357 5.16 17.38 11.359 5.16 17.38 0.0 3.499 15.759 12.37 9.221 9.772 12.37 9.25 9.8 12.352 9.51 14.0 11.006 7.77 15.83 11.004 7.16 15.32 11.349 7.77 15.83 0.0 7.16 15.32 0.0 9.51 14.0 0.0 -6.56 6.88 12.676 -5.603 7.787 12.676 -6.56 6.88 0.0 -3.18 3.34 12.676 -2.227 4.245 12.676 -3.18 3.34 0.0 11.07 -11.61 12.737 7.69 -8.05 12.737 7.69 -8.05 0.0 11.07 -11.61 0.0 12.018 -10.702 12.658 8.636 -7.153 12.659 -1.34 19.37 0.0 -6.62 14.35 0.0 -6.62 14.35 9.582 -1.34 19.37 9.582 23.79 -7.01 8.891 18.57 -12.02 8.891 18.57 -12.02 0.0 23.79 -7.01 0.0 18.586 -11.184 10.441 22.971 -6.984 10.423 12.83 6.04 12.222 14.72 4.06 12.22 14.72 4.06 0.0 20.14 1.68 11.559 22.13 -0.39 11.554 22.13 -0.39 0.0 20.14 1.68 0.0 18.96 4.1 11.324 20.73 2.28 11.316 20.73 2.28 0.0 18.96 4.1 0.0 20.47 -1.98 12.218 16.39 5.65 0.0 18.37 3.56 0.0 18.37 3.56 11.555 16.39 5.65 11.554</float_array>
                    <technique_common>
                        <accessor count="134" source="#geometry0-position-array" stride="3">
                            <param name="X" type="float"/>
                            <param name="Y" type="float"/>
                            <param name="Z" type="float"/>
                        </accessor>
                    </technique_common>
                </source>
                <source id="geometry0-normal">
                    <float_array id="geometry0-normal-array" count="1470">-0.6908882 0.7229616 0.0 -0.6908882 0.7229616 0.0 -0.6908882 0.7229616 0.0 -0.6908882 0.7229616 0.0 0.7238657 0.6899409 0.0 0.7238657 0.6899409 0.0 0.7238657 0.6899409 0.0 0.7238657 0.6899409 0.0 -0.722925 -0.6909265 0.0 -0.722925 -0.6909265 0.0 -0.722925 -0.6909265 0.0 -0.722925 -0.6909265 0.0 0.7209 0.6930391 0.0 0.7209 0.6930391 0.0 0.7209 0.6930391 0.0 0.7209 0.6930391 0.0 0.7259524 0.6877449 0.0 0.7259524 0.6877449 0.0 0.7259524 0.6877449 0.0 0.7259524 0.6877449 0.0 0.7071068 -0.7071068 0.0 0.7071068 -0.7071068 0.0 0.7071068 -0.7071068 0.0 0.7071068 -0.7071068 0.0 -0.6414207 0.7671893 0.0 -0.6414207 0.7671893 0.0 -0.6414207 0.7671893 0.0 -0.6414207 0.7671893 0.0 0.7069382 -0.7072753 0.0 0.7069382 -0.7072753 0.0 0.7069382 -0.7072753 0.0 0.7069382 -0.7072753 0.0 0.7239342 0.689869 0.0 0.7239342 0.689869 0.0 0.7239342 0.689869 0.0 0.7239341 0.689869 0.0 0.7145104 -0.6996248 0.0 0.7145104 -0.6996248 0.0 0.7145104 -0.6996248 0.0 0.7145104 -0.6996248 0.0 -0.6886113 0.7251306 0.0 -0.6886113 0.7251306 0.0 -0.6886113 0.7251306 0.0 -0.6886113 0.7251306 0.0 0.0 0.0 -1.0 0.0 0.0 -1.0 0.0 0.0 -1.0 0.0 0.0 -1.0 0.0 0.0 -1.0 0.0 0.0 -1.0 0.0 0.0 -1.0 0.0 0.0 -1.0 0.0 0.0 -1.0 0.0 0.0 -1.0 0.0 0.0 -1.0 0.0 0.0 -1.0 0.0 0.0 -1.0 0.0 0.0 -1.0 0.0 0.0 -1.0 0.0 0.0 -1.0 0.0 0.0 -1.0 0.0 0.0 -1.0 0.0 0.0 -1.0 0.0 0.0 -1.0 0.0 0.0 -1.0 0.0 0.0 -1.0 0.0 0.0 -1.0 0.0 0.0 -1.0 0.0 0.0 -1.0 0.0 0.0 -1.0 0.0 0.0 -1.0 0.0 0.0 -1.0 0.0 0.0 -1.0 0.0 0.0 -1.0 0.0 0.0 -1.0 0.0 0.0 -1.0 0.0 0.0 -1.0 0.0 0.0 -1.0 0.0 0.0 -1.0 0.0 0.0 -1.0 0.0 0.0 -1.0 -0.6895471 0.7242408 0.0 -0.6895471 0.7242408 0.0 -0.6895471 0.7242408 0.0 -0.6895471 0.7242408 0.0 0.7185684 0.6954563 0.0 0.7185684 0.6954563 0.0 0.7185684 0.6954563 0.0 0.7185684 0.6954563 0.0 0.7247027 0.6890617 0.0 0.7247027 0.6890617 0.0 0.7247027 0.6890617 0.0 0.7247027 0.6890617 0.0 -0.6804531 0.7327917 0.0 -0.6804531 0.7327917 0.0 -0.6804531 0.7327917 0.0 -0.6804531 0.7327917 0.0 -0.7243596 -0.6894223 0.0 -0.7243596 -0.6894223 0.0 -0.7243596 -0.6894223 0.0 -0.7243596 -0.6894223 0.0 0.7168855 0.697191 0.0 0.7168854 0.697191 0.0 0.7168855 0.697191 0.0 0.7168855 0.697191 0.0 0.7130236 -0.70114 0.0 0.7130236 -0.70114 0.0 0.7130236 -0.70114 0.0 0.7130236 -0.70114 0.0 0.690469 -0.723362 0.0 0.690469 -0.723362 0.0 0.690469 -0.723362 0.0 0.690469 -0.723362 0.0 0.690469 -0.723362 0.0 -0.7592274 -0.6508254 0.0 -0.7592274 -0.6508254 0.0 -0.7592274 -0.6508254 0.0 -0.7592275 -0.6508255 0.0 -0.7592275 -0.6508255 0.0 0.7239342 0.6898691 0.0 0.7239342 0.6898691 0.0 0.7239342 0.6898691 0.0 0.7239342 0.6898691 0.0 0.7242296 0.6895589 0.0 0.7242296 0.6895589 0.0 0.7242296 0.6895589 0.0 0.7242296 0.6895589 0.0 0.6925319 -0.7213871 0.0 0.6925319 -0.7213871 0.0 0.6925319 -0.7213871 0.0 0.6925319 -0.7213871 0.0 -0.7251515 -0.6885893 0.0 -0.7251515 -0.6885893 0.0 -0.7251515 -0.6885893 0.0 -0.7251515 -0.6885893 0.0 0.6886113 -0.7251306 0.0 0.6886113 -0.7251306 0.0 0.6886113 -0.7251306 0.0 0.6886113 -0.7251306 0.0 -0.690469 0.7233619 0.0 -0.690469 0.7233619 0.0 -0.690469 0.7233619 0.0 -0.690469 0.7233619 0.0 0.7261369 0.6875501 0.0 0.7261369 0.6875501 0.0 0.7261369 0.6875501 0.0 0.7261369 0.6875501 0.0 -0.6881594 0.7255595 0.0 -0.6881594 0.7255595 0.0 -0.6881594 0.7255595 0.0 -0.6881594 0.7255595 0.0 0.7238657 0.6899409 0.0 0.7238657 0.6899409 0.0 0.7238657 0.6899409 0.0 0.7238657 0.6899409 0.0 -0.6917404 0.7221463 0.0 -0.6917404 0.7221463 0.0 -0.6917404 0.7221463 0.0 -0.6917404 0.7221463 0.0 -0.7252028 -0.6885353 0.0 -0.7252028 -0.6885353 0.0 -0.7252028 -0.6885353 0.0 -0.7252028 -0.6885353 0.0 -0.6983237 0.715782 0.0 -0.6983238 0.715782 0.0 -0.6983237 0.715782 0.0 -0.6983237 0.715782 0.0 0.6872038 -0.7264647 0.0 0.6872038 -0.7264647 0.0 0.6872038 -0.7264647 0.0 0.6872038 -0.7264647 0.0 0.6908882 -0.7229616 0.0 0.6908882 -0.7229616 0.0 0.6908882 -0.7229616 0.0 0.6908882 -0.7229616 0.0 0.0 0.0 -1.0 0.0 0.0 -1.0 0.0 0.0 -1.0 0.0 0.0 -1.0 0.6917164 -0.7221692 0.0 0.6917164 -0.7221693 0.0 0.6917164 -0.7221692 0.0 0.6917164 -0.7221692 0.0 0.6924455 -0.7214702 0.0 0.6924455 -0.7214702 0.0 0.6924455 -0.7214702 0.0 0.6924455 -0.7214702 0.0 0.0 0.0 -1.0 0.0 0.0 -1.0 0.0 0.0 -1.0 0.0 0.0 -1.0 0.0 0.0 -1.0 0.0 0.0 -1.0 0.0 0.0 -1.0 0.0 0.0 -1.0 0.0 0.0 -1.0 0.0 0.0 -1.0 0.724737 0.6890256 0.0 0.724737 0.6890256 0.0 0.724737 0.6890256 0.0 0.724737 0.6890256 0.0 -0.7071489 0.7070646 0.0 -0.7071489 0.7070646 0.0 -0.7071489 0.7070646 0.0 -0.7071489 0.7070646 0.0 -0.7071489 0.7070646 0.0 0.0 0.0 1.0 0.0 0.0 1.0 0.0 0.0 1.0 0.0 0.0 1.0 0.0 0.0 1.0 0.0 0.0 1.0 0.0 0.0 1.0 0.0 0.0 1.0 0.0 0.0 1.0 0.0 0.0 1.0 0.0 0.0 1.0 0.0 0.0 1.0 0.0 0.0 1.0 0.0 0.0 1.0 0.0 0.0 1.0 0.0 0.0 1.0 0.0 0.0 1.0 0.0 0.0 1.0 0.0 0.0 1.0 0.0 0.0 1.0 0.0 0.0 1.0 0.0 0.0 1.0 0.0 0.0 1.0 0.0 0.0 1.0 0.0 0.0 1.0 0.0 0.0 1.0 0.0 0.0 1.0 0.0 0.0 1.0 0.0 0.0 1.0 0.0 0.0 1.0 0.0 0.0 1.0 0.0 0.0 1.0 0.0 0.0 1.0 0.0 0.0 1.0 0.0 0.0 1.0 0.0 0.0 1.0 0.0 0.0 1.0 -0.689038 0.7247252 0.0 -0.689038 0.7247252 0.0 -0.689038 0.7247252 0.0 -0.689038 0.7247252 0.0 0.0 0.0 -1.0 0.0 0.0 -1.0 0.0 0.0 -1.0 0.0 0.0 -1.0 0.6925863 -0.7213351 0.0 0.6925863 -0.7213351 0.0 0.6925863 -0.7213351 0.0 0.6925863 -0.7213351 0.0 -0.7070225 -0.7071911 0.0 -0.7070225 -0.7071911 0.0 -0.7070225 -0.7071911 0.0 -0.7070225 -0.7071911 0.0 -0.7070225 -0.707191 0.0 -0.7071349 -0.7070787 0.0 -0.7071349 -0.7070786 0.0 -0.7071349 -0.7070787 0.0 -0.7071349 -0.7070787 0.0 -0.7071349 -0.7070787 0.0 0.6880918 -0.7256237 0.0 0.6880918 -0.7256237 0.0 0.6880918 -0.7256237 0.0 0.6880918 -0.7256237 0.0 -0.7196338 -0.6943538 0.0 -0.7196338 -0.6943538 0.0 -0.7196338 -0.6943538 0.0 -0.7196338 -0.6943538 0.0 -0.687892 0.7258131 0.0 -0.687892 0.7258131 0.0 -0.687892 0.7258131 0.0 -0.687892 0.725813 0.0 -0.687892 0.7258131 0.0 0.7071489 -0.7070646 0.0 0.7071489 -0.7070646 0.0 0.7071489 -0.7070646 0.0 0.7071489 -0.7070646 0.0 0.0434714 0.0412092 0.9982045 0.0436301 0.0412957 0.9981939 0.0434714 0.0412092 0.9982045 0.0433127 0.0411227 0.998215 0.6881594 -0.7255595 0.0 0.6881594 -0.7255595 0.0 0.6881594 -0.7255595 0.0 0.6881594 -0.7255595 0.0 -0.69273 0.7211969 0.0 -0.69273 0.7211969 0.0 -0.69273 0.7211969 0.0 -0.69273 0.7211969 0.0 0.6945894 -0.7194064 0.0 0.6945894 -0.7194063 0.0 0.6945895 -0.7194063 0.0 0.6945895 -0.7194063 0.0 0.6945896 -0.7194062 0.0 0.6908882 -0.7229616 0.0 0.6908882 -0.7229616 0.0 0.6908882 -0.7229616 0.0 0.6908882 -0.7229616 0.0 0.7363729 0.6765758 0.0 0.7363729 0.6765758 0.0 0.7363729 0.6765758 0.0 0.7363729 0.6765758 0.0 0.0 0.0 1.0 0.0 0.0 1.0 0.0 0.0 1.0 0.0 0.0 1.0 -0.6886113 0.7251307 0.0 -0.6886113 0.7251306 0.0 -0.6886113 0.7251307 0.0 -0.6886113 0.7251307 0.0 -0.7281106 -0.6854597 0.0 -0.7281106 -0.6854597 0.0 -0.7281106 -0.6854597 0.0 -0.7281106 -0.6854597 0.0 0.0 0.0 -1.0 0.0 0.0 -1.0 0.0 0.0 -1.0 0.0 0.0 -1.0 0.0 0.0 -1.0 0.0 0.0 -1.0 0.0 0.0 -1.0 0.0 0.0 -1.0 0.0 0.0 -1.0 0.0 0.0 -1.0 0.0 0.0 -1.0 0.3994679 -0.4202416 0.8147529 0.3995871 -0.420451 0.8145865 0.3994679 -0.4202416 0.8147529 0.3993487 -0.4200321 0.8149194 -0.7238657 -0.6899409 0.0 -0.7238657 -0.6899409 0.0 -0.7238657 -0.6899409 0.0 -0.7238657 -0.6899409 0.0 -0.7229496 -0.6909008 0.0 -0.7229496 -0.6909008 0.0 -0.7229496 -0.6909008 0.0 -0.7229495 -0.6909008 0.0 -0.7070506 0.707163 0.0 -0.7070506 0.707163 0.0 -0.7070506 0.707163 0.0 -0.7070506 0.707163 0.0 -0.6453283 0.6752854 0.3571286 -0.6453299 0.6752857 0.3571253 -0.6453283 0.6752854 0.3571286 -0.6453269 0.6752851 0.357132 -0.7239342 -0.6898691 0.0 -0.7239342 -0.6898691 0.0 -0.7239342 -0.6898691 0.0 -0.7239342 -0.6898691 0.0 -0.7293027 -0.6841912 0.0 -0.7293027 -0.6841912 0.0 -0.7293027 -0.6841912 0.0 -0.7293027 -0.6841912 0.0 0.0 0.0 -1.0 0.0 0.0 -1.0 0.0 0.0 -1.0 0.0 0.0 -1.0 0.722925 0.6909265 0.0 0.722925 0.6909265 0.0 0.722925 0.6909265 0.0 0.722925 0.6909265 0.0 -0.6945894 0.7194064 0.0 -0.6945894 0.7194064 0.0 -0.6945894 0.7194064 0.0 -0.6945894 0.7194064 0.0 -0.6870871 0.726575 0.0 -0.6870871 0.726575 0.0 -0.6870871 0.726575 0.0 -0.6870871 0.726575 0.0 0.6886094 -0.7251325 0.0 0.6886095 -0.7251325 0.0 0.6886095 -0.7251325 0.0 0.6886094 -0.7251325 0.0 0.6886094 -0.7251325 0.0 0.7229496 0.6909008 0.0 0.7229496 0.6909008 0.0 0.7229496 0.6909008 0.0 0.7229496 0.6909008 0.0 -0.7071068 0.7071068 0.0 -0.7071068 0.7071068 0.0 -0.7071068 0.7071068 0.0 -0.7071068 0.7071068 0.0 -0.7071068 0.7071068 0.0 0.2115245 0.2010585 0.9564689 0.2173461 0.2066389 0.9539712 0.2184139 0.2076147 0.9535153 0.2275247 0.2162707 0.9494522 0.2092299 0.1989134 0.9574217 0.2010879 0.1910549 0.960761 0.2010847 0.1911015 0.9607524 0.2011621 0.1914436 0.960668 0.2011807 0.1913778 0.9606773 0.2012126 0.1910825 0.9607294 0.2010525 0.191306 0.9607184 0.6878504 0.6319935 0.3569959 0.6878504 0.6319935 0.3569959 0.6878504 0.6319935 0.3569959 -0.688064 0.72565 0.0 -0.688064 0.72565 0.0 -0.688064 0.72565 0.0 -0.6880639 0.72565 0.0 -0.6880639 0.72565 0.0 0.7229496 0.6909008 0.0 0.7229496 0.6909008 0.0 0.7229496 0.6909008 0.0 0.7229496 0.6909008 0.0 0.0 0.0 -1.0 0.0 0.0 -1.0 0.0 0.0 -1.0 0.0 0.0 -1.0 -0.7249994 -0.6887495 0.0 -0.7249994 -0.6887495 0.0 -0.7249994 -0.6887495 0.0 -0.7249994 -0.6887495 0.0 0.6938103 -0.7201577 0.0 0.6938103 -0.7201577 0.0 0.6938103 -0.7201577 0.0 0.6938103 -0.7201577 0.0 0.7517444 0.6594545 0.0 0.7517445 0.6594545 0.0 0.7517444 0.6594545 0.0 0.7517444 0.6594545 0.0 -0.7192276 -0.6947745 0.0 -0.7192276 -0.6947745 0.0 -0.7192276 -0.6947745 0.0 -0.7192276 -0.6947745 0.0 0.6917068 -0.7221785 0.0 0.6917068 -0.7221785 0.0 0.6917068 -0.7221785 0.0 0.6917068 -0.7221785 0.0 0.6917068 -0.7221785 0.0 -0.723964 -0.6898378 0.0 -0.723964 -0.6898378 0.0 -0.723964 -0.6898378 0.0 -0.723964 -0.6898378 0.0 0.707249 0.7069646 0.0 0.707249 0.7069646 0.0 0.707249 0.7069646 0.0 0.707249 0.7069646 0.0 0.707249 0.7069646 0.0 -0.6718403 -0.6489983 0.3569759 -0.6718403 -0.6489983 0.3569759 -0.6718403 -0.6489983 0.3569759 -0.7071068 -0.7071068 0.0 -0.7071068 -0.7071068 0.0 -0.7071068 -0.7071068 0.0 -0.7071068 -0.7071068 0.0 0.7174782 0.6965809 0.0 0.7174782 0.6965809 0.0 0.7174782 0.6965809 0.0 0.7174782 0.6965809 0.0 -0.7232628 -0.6905729 0.0 -0.7232628 -0.6905729 0.0 -0.7232628 -0.6905729 0.0 -0.7232628 -0.6905729 0.0 0.7233555 0.6904758 0.0 0.7233555 0.6904758 0.0 0.7233555 0.6904758 0.0 0.7233555 0.6904758 0.0 0.267928 0.2931681 0.917751 0.1709588 0.3893226 0.9050972 0.230616 0.333755 0.9140152 0.2927051 0.2778249 0.914952 0.2927146 0.2778039 0.9149553 0.2734798 0.2613274 0.925698 0.2828554 0.2704639 0.9202403 0.2928999 0.2799365 0.9142457 0.2888144 0.2759607 0.9167508 0.2884888 0.2753031 0.917051 0.6468548 -0.6738934 0.3569967 0.6469445 -0.6739118 0.3567993 0.6468548 -0.6738934 0.3569967 0.6467649 -0.673875 0.3571941 -0.6751593 0.7376719 0.0 -0.6751593 0.7376719 0.0 -0.6751593 0.7376719 0.0 -0.6751593 0.7376719 0.0 -0.7302714 -0.6831572 0.0 -0.7302714 -0.6831572 0.0 -0.7302714 -0.6831572 0.0 -0.7302714 -0.6831572 0.0 -0.722925 -0.6909265 0.0 -0.722925 -0.6909265 0.0 -0.722925 -0.6909265 0.0 -0.722925 -0.6909265 0.0</float_array>
                    <technique_common>
                        <accessor count="490" source="#geometry0-normal-array" stride="3">
                            <param name="X" type="float"/>
                            <param name="Y" type="float"/>
                            <param name="Z" type="float"/>
                        </accessor>
                    </technique_common>
                </source>
                <vertices id="geometry0-vertex">
                    <input semantic="POSITION" source="#geometry0-position"/>
                </vertices>
                <triangles count="232" material="default_ai_0.2_sh_0.2_tr_0.0_dc_r_0.8_g_0.8_b_0.8_sc_r_1.0_g_1.0_b_1.0_ec_r_0.0_g_0.0_b_0_tri">
                    <input offset="0" semantic="VERTEX" source="#geometry0-vertex"/>
                    <input offset="1" semantic="NORMAL" source="#geometry0-normal"/>
                    <p>45 0 46 1 75 2 45 0 75 2 79 3 65 4 67 5 97 6 65 4 97 6 100 7 72 8 58 9 59 10 72 8 59 10 77 11 121 12 122 13 123 14 121 12 123 14 124 15 133 16 132 17 131 18 133 16 131 18 130 19 71 20 72 21 58 22 71 20 58 22 57 23 92 24 91 25 93 26 92 24 93 26 94 27 41 28 42 29 43 30 41 28 43 30 44 31 106 32 42 33 4 34 106 32 4 34 107 35 0 36 1 37 2 38 0 36 2 38 3 39 70 40 24 41 23 42 70 40 23 42 69 43 46 44 47 45 45 46 48 47 44 48 47 45 47 45 44 48 45 46 43 49 7 50 44 48 44 48 7 50 45 46 7 50 6 51 45 46 6 51 49 52 45 46 40 53 39 54 49 52 39 54 34 55 49 52 49 52 34 55 45 46 34 55 3 56 45 46 2 57 50 58 3 56 50 58 51 59 3 56 3 56 51 59 45 46 51 59 52 60 45 46 53 61 54 62 52 60 52 60 54 62 45 46 54 62 55 63 45 46 55 63 36 64 45 46 36 64 32 65 45 46 32 65 26 66 45 46 26 66 25 67 45 46 25 67 56 68 45 46 45 46 56 68 15 69 56 68 30 70 15 69 15 69 30 70 16 71 29 72 57 73 30 70 57 73 58 74 30 70 58 74 59 75 30 70 60 76 12 77 59 75 59 75 12 77 30 70 12 77 11 78 30 70 11 78 20 79 30 70 30 70 20 79 16 71 16 71 20 79 19 80 119 81 133 82 130 83 119 81 130 83 120 84 28 85 71 86 57 87 28 85 57 87 29 88 91 89 90 90 95 91 91 89 95 91 93 92 4 93 5 94 6 95 4 93 6 95 7 96 76 97 41 98 44 99 76 97 44 99 48 100 125 101 126 102 127 103 125 101 127 103 128 104 126 105 121 106 124 107 126 105 124 107 127 108 11 109 12 110 8 111 10 112 11 109 8 111 10 112 8 111 9 113 47 114 46 115 75 116 47 114 75 116 73 117 47 114 73 117 74 118 42 119 43 120 7 121 42 119 7 121 4 122 61 123 8 124 12 125 61 123 12 125 60 126 13 127 14 128 15 129 13 127 15 129 16 130 5 131 66 132 49 133 5 131 49 133 6 134 25 135 56 136 70 137 25 135 70 137 24 138 10 139 118 140 12 141 10 139 12 141 11 142 80 143 81 144 82 145 80 143 82 145 83 146 62 147 63 148 51 149 62 147 51 149 50 150 65 151 53 152 54 153 65 151 54 153 67 154 38 155 33 156 34 157 38 155 34 157 39 158 102 159 103 160 104 161 102 159 104 161 105 162 84 163 85 164 86 165 84 163 86 165 57 166 64 167 65 168 53 169 64 167 53 169 52 170 75 171 79 172 78 173 75 171 78 173 73 174 108 175 56 176 25 177 108 175 25 177 109 178 122 179 129 180 19 181 122 179 19 181 123 182 112 183 113 184 114 185 112 183 114 185 115 186 59 187 58 188 57 189 59 187 57 189 86 190 59 187 86 190 94 191 59 187 94 191 93 192 60 193 59 187 93 192 83 194 82 195 60 193 83 194 60 193 93 192 83 194 93 192 95 196 18 197 13 198 16 199 18 197 16 199 19 200 19 201 20 202 21 203 19 201 21 203 17 204 19 201 17 204 18 205 110 243 111 244 108 245 110 243 108 245 109 246 45 247 115 248 114 249 45 247 114 249 46 250 74 251 76 252 48 253 74 251 48 253 47 254 45 255 15 256 14 257 79 258 45 255 14 257 79 258 14 257 78 259 25 260 26 261 22 262 24 263 25 260 22 262 24 263 22 262 23 264 90 265 80 266 83 267 90 265 83 267 95 268 24 269 110 270 109 271 24 269 109 271 25 272 54 273 98 274 96 275 67 276 54 273 96 275 67 276 96 275 97 277 129 278 21 279 20 280 129 278 20 280 19 281 66 286 37 287 40 288 66 286 40 288 49 289 27 290 28 291 29 292 27 290 29 292 30 293 59 294 60 295 89 296 77 297 59 294 89 296 77 297 89 296 88 298 75 299 46 300 45 301 75 299 45 301 79 302 79 303 112 304 115 305 79 303 115 305 45 306 70 311 56 312 25 313 70 311 25 313 24 314 63 315 64 316 52 317 63 315 52 317 51 318 20 319 11 320 19 321 11 320 12 322 19 321 12 322 120 323 19 321 19 321 120 323 123 324 123 324 120 323 124 325 124 325 120 323 127 326 130 327 131 328 120 323 120 323 131 328 127 326 127 326 131 328 128 329 54 334 53 335 65 336 54 334 65 336 67 337 11 338 20 339 21 340 11 338 21 340 10 341 67 342 68 343 55 344 67 342 55 344 54 345 7 350 43 351 42 352 7 350 42 352 4 353 1 354 62 355 50 356 1 354 50 356 2 357 104 358 7 359 43 360 104 358 43 360 105 361 59 362 58 363 72 364 59 362 72 364 77 365 77 366 61 367 60 368 77 366 60 368 59 369 31 370 22 371 26 372 31 370 26 372 32 373 101 374 53 375 65 376 101 374 65 376 100 377 101 374 100 377 99 378 21 379 20 380 11 381 21 379 11 381 10 382 57 383 58 384 72 385 57 383 72 385 87 386 57 383 87 386 84 387 7 402 104 403 103 404 4 405 7 402 103 404 4 405 103 404 107 406 21 407 10 408 9 409 21 407 9 409 17 410 53 411 101 412 98 413 53 411 98 413 54 414 33 415 0 416 3 417 33 415 3 417 34 418 81 419 89 420 60 421 81 419 60 421 82 422 111 423 70 424 56 425 111 423 56 425 108 426 113 427 75 428 46 429 113 427 46 429 114 430 105 431 43 432 42 433 105 431 42 433 106 434 105 431 106 434 102 435 68 436 35 437 36 438 68 436 36 438 55 439 30 440 56 441 70 442 30 440 70 442 69 443 30 440 69 443 27 444 35 448 31 449 32 450 35 448 32 450 36 451 85 452 92 453 94 454 85 452 94 454 86 455 99 456 96 457 98 458 99 456 98 458 101 459 118 460 119 461 120 462 118 460 120 462 12 463 132 478 125 479 128 480 132 478 128 480 131 481 37 482 38 483 39 484 37 482 39 484 40 485 72 486 77 487 88 488 72 486 88 488 87 489</p>
                </triangles>
                <triangles count="64" material="default_ai_0.2_sh_0.2_tr_0.0_dc_r_1.0_g_0.2_b_0.2_sc_r_1.0_g_1.0_b_1.0_ec_r_0.0_g_0.0_b_0_tri">
                    <input offset="0" semantic="VERTEX" source="#geometry0-vertex"/>
                    <input offset="1" semantic="NORMAL" source="#geometry0-normal"/>
                    <p>74 206 73 207 78 208 41 209 76 210 74 206 41 209 74 206 78 208 4 211 42 212 41 209 4 211 41 209 78 208 5 213 4 211 78 208 66 214 5 213 78 208 38 215 37 216 66 214 33 217 38 215 66 214 33 217 66 214 78 208 0 218 33 217 78 208 62 219 1 220 0 218 63 221 62 219 0 218 63 221 0 218 78 208 64 222 63 221 78 208 67 223 65 224 64 222 67 223 64 222 78 208 68 225 67 223 78 208 35 226 68 225 78 208 31 227 35 226 78 208 22 228 31 227 78 208 23 229 22 228 78 208 69 230 23 229 78 208 69 230 78 208 14 231 27 232 69 230 14 231 27 232 14 231 13 233 71 234 28 235 27 232 72 236 71 234 27 232 77 237 72 236 27 232 8 238 61 239 77 237 8 238 77 237 27 232 9 240 8 238 27 232 17 241 9 240 27 232 17 241 27 232 13 233 17 241 13 233 18 242 102 282 106 283 107 284 102 282 107 284 103 285 97 307 96 308 99 309 97 307 99 309 100 310 110 330 24 331 70 332 110 330 70 332 111 333 116 346 117 347 79 348 116 346 79 348 75 349 10 388 21 389 129 390 118 391 10 388 129 390 119 392 118 391 129 390 119 392 129 390 122 393 119 392 122 393 121 394 119 392 121 394 126 395 132 396 133 397 119 392 132 396 119 392 126 395 132 396 126 395 125 398 117 399 112 400 79 401 116 445 75 446 113 447 85 464 84 465 87 466 85 464 87 466 88 467 85 464 88 467 89 468 85 464 89 468 81 469 85 464 81 469 80 470 92 471 85 464 80 470 92 471 80 470 90 472 92 471 90 472 91 473 117 474 116 475 113 476 117 474 113 476 112 477</p>
                </triangles>
            </mesh>
        </geometry>
    </library_geometries>
    <library_visual_scenes>
        <visual_scene id="Building_DEBW_5221000Qj5Y">
            <node>
                <instance_geometry url="#geometry0">
                    <bind_material>
                        <technique_common>
                            <instance_material symbol="default_ai_0.2_sh_0.2_tr_0.0_dc_r_0.8_g_0.8_b_0.8_sc_r_1.0_g_1.0_b_1.0_ec_r_0.0_g_0.0_b_0_tri" target="#default_ai_0.2_sh_0.2_tr_0.0_dc_r_0.8_g_0.8_b_0.8_sc_r_1.0_g_1.0_b_1.0_ec_r_0.0_g_0.0_b_0_mat"/>
                            <instance_material symbol="default_ai_0.2_sh_0.2_tr_0.0_dc_r_1.0_g_0.2_b_0.2_sc_r_1.0_g_1.0_b_1.0_ec_r_0.0_g_0.0_b_0_tri" target="#default_ai_0.2_sh_0.2_tr_0.0_dc_r_1.0_g_0.2_b_0.2_sc_r_1.0_g_1.0_b_1.0_ec_r_0.0_g_0.0_b_0_mat"/>
                        </technique_common>
                    </bind_material>
                </instance_geometry>
            </node>
        </visual_scene>
    </library_visual_scenes>
    <scene>
        <instance_visual_scene url="#Building_DEBW_5221000Qj5Y"/>
    </scene>
</COLLADA>
