<?xml version="1.0" encoding="UTF-8" standalone="yes"?>
<COLLADA xmlns="http://www.collada.org/2005/11/COLLADASchema" version="1.4.1">
    <asset>
        <contributor>
            <authoring_tool>3D City Database Importer/Exporter, version 5.5.3; Chair of Geoinformatics, Technical University of Munich</authoring_tool>
        </contributor>
        <created>2026-05-06T15:12:14.579</created>
        <modified>2026-05-06T15:12:14.579</modified>
        <unit meter="1.0" name="meters"/>
        <up_axis>Z_UP</up_axis>
    </asset>
    <library_materials>
        <material id="default_ai_0.2_sh_0.2_tr_0.0_dc_r_0.8_g_0.8_b_0.8_sc_r_1.0_g_1.0_b_1.0_ec_r_0.0_g_0.0_b_0_mat">
            <instance_effect url="#default_ai_0.2_sh_0.2_tr_0.0_dc_r_0.8_g_0.8_b_0.8_sc_r_1.0_g_1.0_b_1.0_ec_r_0.0_g_0.0_b_0_eff"/>
        </material>
        <material id="default_ai_0.2_sh_0.2_tr_0.0_dc_r_1.0_g_0.2_b_0.2_sc_r_1.0_g_1.0_b_1.0_ec_r_0.0_g_0.0_b_0_mat">
            <instance_effect url="#default_ai_0.2_sh_0.2_tr_0.0_dc_r_1.0_g_0.2_b_0.2_sc_r_1.0_g_1.0_b_1.0_ec_r_0.0_g_0.0_b_0_eff"/>
        </material>
    </library_materials>
    <library_effects>
        <effect id="default_ai_0.2_sh_0.2_tr_0.0_dc_r_0.8_g_0.8_b_0.8_sc_r_1.0_g_1.0_b_1.0_ec_r_0.0_g_0.0_b_0_eff">
            <profile_COMMON>
                <technique sid="COMMON">
                    <lambert>
                        <emission>
                            <color>0.0 0.0 0.0 1.0</color>
                        </emission>
                        <diffuse>
                            <color>0.8 0.8 0.8 1.0</color>
                        </diffuse>
                        <reflective>
                            <color>1.0 1.0 1.0 1.0</color>
                        </reflective>
                        <reflectivity>
                            <float>0.2</float>
                        </reflectivity>
                        <transparent opaque="A_ONE">
                            <color>1.0 1.0 1.0 1.0</color>
                        </transparent>
                        <transparency>
                            <float>1.0</float>
                        </transparency>
                    </lambert>
                </technique>
                <extra>
                    <technique profile="GOOGLEEARTH">
                        <double_sided>0</double_sided>
                    </technique>
                </extra>
            </profile_COMMON>
        </effect>
        <effect id="default_ai_0.2_sh_0.2_tr_0.0_dc_r_1.0_g_0.2_b_0.2_sc_r_1.0_g_1.0_b_1.0_ec_r_0.0_g_0.0_b_0_eff">
            <profile_COMMON>
                <technique sid="COMMON">
                    <lambert>
                        <emission>
                            <color>0.0 0.0 0.0 1.0</color>
                        </emission>
                        <diffuse>
                            <color>1.0 0.2 0.2 1.0</color>
                        </diffuse>
                        <reflective>
                            <color>1.0 1.0 1.0 1.0</color>
                        </reflective>
                        <reflectivity>
                            <float>0.2</float>
                        </reflectivity>
                        <transparent opaque="A_ONE">
                            <color>1.0 1.0 1.0 1.0</color>
                        </transparent>
                        <transparency>
                            <float>1.0</float>
                        </transparency>
                    </lambert>
                </technique>
                <extra>
                    <technique profile="GOOGLEEARTH">
                        <double_sided>0</double_sided>
                    </technique>
                </extra>
            </profile_COMMON>
        </effect>
    </library_effects>
    <library_geometries>
        <geometry id="geometry0">
            <mesh>
                <source id="geometry0-position">
                    <float_array id="geometry0-position-array" count="84">-1.08 -3.37 5.442 0.0 0.0 5.44 0.0 0.0 5.26 0.0 0.0 0.0 -1.08 -3.37 0.0 9.47 -0.17 4.293 8.58 -2.86 4.309 8.58 -2.86 0.0 9.47 -0.17 0.0 1.53 4.776 5.435 5.136 3.605 8.093 5.136 3.605 0.0 1.53 4.776 0.0 1.53 4.776 5.247 8.22 -2.76 0.0 7.17 -6.05 0.0 2.516 -4.538 0.0 9.8 2.09 0.0 9.12 -0.03 0.0 9.8 2.09 4.565 9.12 -0.03 4.563 2.516 -4.538 8.093 8.22 -2.76 4.578 7.17 -6.05 4.572 -1.08 0.35 4.499 0.47 5.12 4.499 0.47 5.12 0.0 -1.08 0.35 0.0</float_array>
                    <technique_common>
                        <accessor count="28" source="#geometry0-position-array" stride="3">
                            <param name="X" type="float"/>
                            <param name="Y" type="float"/>
                            <param name="Z" type="float"/>
                        </accessor>
                    </technique_common>
                </source>
                <source id="geometry0-normal">
                    <float_array id="geometry0-normal-array" count="294">-0.3089187 -0.9510884 0.0 -0.3089186 -0.9510884 0.0 -0.3089187 -0.9510884 0.0 -0.3089187 -0.9510885 0.0 -0.9522928 0.3051859 0.0 -0.9522929 0.3051859 0.0 -0.9522928 0.3051859 0.0 -0.9522928 0.3051859 0.0 -0.9522928 0.3051859 0.0 -0.2676439 -0.9635179 0.0 -0.2676439 -0.9635179 0.0 -0.2676439 -0.9635179 0.0 -0.2676439 -0.9635179 0.0 0.3086801 0.9511659 0.0 0.3086801 0.9511659 0.0 0.3086801 0.9511659 0.0 0.3086801 0.9511659 0.0 0.9493868 -0.3141095 0.0 0.9493868 -0.3141095 0.0 0.9493868 -0.3141095 0.0 0.9493868 -0.3141095 0.0 0.3089385 0.951082 0.0 0.3089385 0.951082 0.0 0.3089385 0.951082 0.0 0.3089385 0.951082 0.0 -0.5298055 0.1720726 0.8304801 -0.5295882 0.1719155 0.8306513 -0.5298055 0.1720726 0.8304801 -0.5300228 0.1722297 0.8303088 0.5560135 -0.1790031 0.8116692 0.5559338 -0.178871 0.8117529 0.5559023 -0.1787383 0.8118037 0.5558062 -0.1784415 0.8119348 0.5559819 -0.1786801 0.811762 0.5561343 -0.1790707 0.8115715 0.5564376 -0.1792746 0.8113186 0.5559765 -0.1789197 0.8117129 0.9526592 -0.3040402 0.0 0.9526592 -0.3040402 0.0 0.9526592 -0.3040402 0.0 0.9526592 -0.3040402 0.0 -0.3082893 -0.9512927 0.0 -0.3082893 -0.9512927 0.0 -0.3082893 -0.9512927 0.0 -0.3082893 -0.9512927 0.0 0.3713903 0.9284768 0.0 0.3713903 0.9284768 0.0 0.3713903 0.9284768 0.0 0.3713903 0.9284768 0.0 0.0 0.0 -1.0 0.0 0.0 -1.0 0.0 0.0 -1.0 0.0 0.0 -1.0 0.0 0.0 -1.0 0.0 0.0 -1.0 0.0 0.0 -1.0 0.0 0.0 -1.0 0.0 0.0 -1.0 0.0 0.0 -1.0 0.0 0.0 -1.0 -0.546391 0.1756957 0.8188943 -0.5465044 0.1758371 0.8187882 -0.546405 0.1757665 0.8188698 -0.5463552 0.1757311 0.8189106 -0.546433 0.175908 0.8188207 -0.9523268 0.3050796 0.0 -0.9523268 0.3050796 0.0 -0.9523268 0.3050796 0.0 -0.9523268 0.3050796 0.0 -0.9523268 0.3050796 0.0 -0.9523268 0.3050796 0.0 -0.9523268 0.3050796 0.0 -0.9523268 0.3050796 0.0 0.3088594 0.9511077 0.0 0.3088594 0.9511077 0.0 0.3088594 0.9511077 0.0 0.3088594 0.9511077 0.0 0.3088594 0.9511077 0.0 0.9523268 -0.3050796 0.0 0.9523268 -0.3050796 0.0 0.9523268 -0.3050796 0.0 0.9523268 -0.3050796 0.0 -0.9510488 0.309041 0.0 -0.9510488 0.309041 0.0 -0.9510488 0.309041 0.0 -0.9510488 0.309041 0.0 0.0 0.0 -1.0 0.0 0.0 -1.0 0.0 0.0 -1.0 0.0 0.0 -1.0 0.9522153 -0.3054277 0.0 0.9522153 -0.3054277 0.0 0.9522153 -0.3054277 0.0 0.9522153 -0.3054277 0.0 -0.3089844 -0.9510671 0.0 -0.3089844 -0.9510671 0.0 -0.3089844 -0.9510671 0.0 -0.3089844 -0.9510671 0.0</float_array>
                    <technique_common>
                        <accessor count="98" source="#geometry0-normal-array" stride="3">
                            <param name="X" type="float"/>
                            <param name="Y" type="float"/>
                            <param name="Z" type="float"/>
                        </accessor>
                    </technique_common>
                </source>
                <vertices id="geometry0-vertex">
                    <input semantic="POSITION" source="#geometry0-position"/>
                </vertices>
                <triangles count="45" material="default_ai_0.2_sh_0.2_tr_0.0_dc_r_0.8_g_0.8_b_0.8_sc_r_1.0_g_1.0_b_1.0_ec_r_0.0_g_0.0_b_0_tri">
                    <input offset="0" semantic="VERTEX" source="#geometry0-vertex"/>
                    <input offset="1" semantic="NORMAL" source="#geometry0-normal"/>
                    <p>21 0 0 1 4 2 21 0 4 2 16 3 3 4 4 5 0 6 2 7 3 4 0 6 2 7 0 6 1 8 6 9 22 10 14 11 6 9 14 11 7 12 25 13 13 14 12 15 25 13 12 15 26 16 5 17 6 18 7 19 5 17 7 19 8 20 10 21 19 22 17 23 10 21 17 23 11 24 22 37 23 38 15 39 22 37 15 39 14 40 2 41 24 42 27 43 2 41 27 43 3 44 20 45 5 46 8 47 20 45 8 47 18 48 11 49 17 50 18 51 12 52 11 49 18 51 3 53 12 52 18 51 3 53 18 51 8 54 3 53 8 54 7 55 3 53 7 55 14 56 3 53 14 56 15 57 3 53 15 57 16 58 3 53 16 58 4 59 9 65 13 66 2 67 9 65 2 67 1 68 13 69 12 70 3 71 13 69 3 71 2 72 11 73 12 74 13 75 11 73 13 75 9 76 11 73 9 76 10 77 3 78 12 79 13 80 3 78 13 80 2 81 24 82 25 83 26 84 24 82 26 84 27 85 26 86 12 87 3 88 26 86 3 88 27 89 19 90 20 91 18 92 19 90 18 92 17 93 23 94 21 95 16 96 23 94 16 96 15 97</p>
                </triangles>
                <triangles count="11" material="default_ai_0.2_sh_0.2_tr_0.0_dc_r_1.0_g_0.2_b_0.2_sc_r_1.0_g_1.0_b_1.0_ec_r_0.0_g_0.0_b_0_tri">
                    <input offset="0" semantic="VERTEX" source="#geometry0-vertex"/>
                    <input offset="1" semantic="NORMAL" source="#geometry0-normal"/>
                    <p>24 25 2 26 13 27 24 25 13 27 25 28 19 29 10 30 21 31 20 32 19 29 21 31 5 33 20 32 21 31 22 34 6 35 5 33 22 34 5 33 21 31 22 34 21 31 23 36 0 60 21 61 10 62 1 63 0 60 10 62 1 63 10 62 9 64</p>
                </triangles>
            </mesh>
        </geometry>
    </library_geometries>
    <library_visual_scenes>
        <visual_scene id="Building_DEBW_5221000Qg47">
            <node>
                <instance_geometry url="#geometry0">
                    <bind_material>
                        <technique_common>
                            <instance_material symbol="default_ai_0.2_sh_0.2_tr_0.0_dc_r_0.8_g_0.8_b_0.8_sc_r_1.0_g_1.0_b_1.0_ec_r_0.0_g_0.0_b_0_tri" target="#default_ai_0.2_sh_0.2_tr_0.0_dc_r_0.8_g_0.8_b_0.8_sc_r_1.0_g_1.0_b_1.0_ec_r_0.0_g_0.0_b_0_mat"/>
                            <instance_material symbol="default_ai_0.2_sh_0.2_tr_0.0_dc_r_1.0_g_0.2_b_0.2_sc_r_1.0_g_1.0_b_1.0_ec_r_0.0_g_0.0_b_0_tri" target="#default_ai_0.2_sh_0.2_tr_0.0_dc_r_1.0_g_0.2_b_0.2_sc_r_1.0_g_1.0_b_1.0_ec_r_0.0_g_0.0_b_0_mat"/>
                        </technique_common>
                    </bind_material>
                </instance_geometry>
            </node>
        </visual_scene>
    </library_visual_scenes>
    <scene>
        <instance_visual_scene url="#Building_DEBW_5221000Qg47"/>
    </scene>
</COLLADA>
