<?xml version="1.0" encoding="UTF-8" standalone="yes"?>
<COLLADA xmlns="http://www.collada.org/2005/11/COLLADASchema" version="1.4.1">
    <asset>
        <contributor>
            <authoring_tool>3D City Database Importer/Exporter, version 5.5.3; Chair of Geoinformatics, Technical University of Munich</authoring_tool>
        </contributor>
        <created>2026-05-06T15:12:05.496</created>
        <modified>2026-05-06T15:12:05.496</modified>
        <unit meter="1.0" name="meters"/>
        <up_axis>Z_UP</up_axis>
    </asset>
    <library_materials>
        <material id="default_ai_0.2_sh_0.2_tr_0.0_dc_r_0.8_g_0.8_b_0.8_sc_r_1.0_g_1.0_b_1.0_ec_r_0.0_g_0.0_b_0_mat">
            <instance_effect url="#default_ai_0.2_sh_0.2_tr_0.0_dc_r_0.8_g_0.8_b_0.8_sc_r_1.0_g_1.0_b_1.0_ec_r_0.0_g_0.0_b_0_eff"/>
        </material>
        <material id="default_ai_0.2_sh_0.2_tr_0.0_dc_r_1.0_g_0.2_b_0.2_sc_r_1.0_g_1.0_b_1.0_ec_r_0.0_g_0.0_b_0_mat">
            <instance_effect url="#default_ai_0.2_sh_0.2_tr_0.0_dc_r_1.0_g_0.2_b_0.2_sc_r_1.0_g_1.0_b_1.0_ec_r_0.0_g_0.0_b_0_eff"/>
        </material>
    </library_materials>
    <library_effects>
        <effect id="default_ai_0.2_sh_0.2_tr_0.0_dc_r_0.8_g_0.8_b_0.8_sc_r_1.0_g_1.0_b_1.0_ec_r_0.0_g_0.0_b_0_eff">
            <profile_COMMON>
                <technique sid="COMMON">
                    <lambert>
                        <emission>
                            <color>0.0 0.0 0.0 1.0</color>
                        </emission>
                        <diffuse>
                            <color>0.8 0.8 0.8 1.0</color>
                        </diffuse>
                        <reflective>
                            <color>1.0 1.0 1.0 1.0</color>
                        </reflective>
                        <reflectivity>
                            <float>0.2</float>
                        </reflectivity>
                        <transparent opaque="A_ONE">
                            <color>1.0 1.0 1.0 1.0</color>
                        </transparent>
                        <transparency>
                            <float>1.0</float>
                        </transparency>
                    </lambert>
                </technique>
                <extra>
                    <technique profile="GOOGLEEARTH">
                        <double_sided>0</double_sided>
                    </technique>
                </extra>
            </profile_COMMON>
        </effect>
        <effect id="default_ai_0.2_sh_0.2_tr_0.0_dc_r_1.0_g_0.2_b_0.2_sc_r_1.0_g_1.0_b_1.0_ec_r_0.0_g_0.0_b_0_eff">
            <profile_COMMON>
                <technique sid="COMMON">
                    <lambert>
                        <emission>
                            <color>0.0 0.0 0.0 1.0</color>
                        </emission>
                        <diffuse>
                            <color>1.0 0.2 0.2 1.0</color>
                        </diffuse>
                        <reflective>
                            <color>1.0 1.0 1.0 1.0</color>
                        </reflective>
                        <reflectivity>
                            <float>0.2</float>
                        </reflectivity>
                        <transparent opaque="A_ONE">
                            <color>1.0 1.0 1.0 1.0</color>
                        </transparent>
                        <transparency>
                            <float>1.0</float>
                        </transparency>
                    </lambert>
                </technique>
                <extra>
                    <technique profile="GOOGLEEARTH">
                        <double_sided>0</double_sided>
                    </technique>
                </extra>
            </profile_COMMON>
        </effect>
    </library_effects>
    <library_geometries>
        <geometry id="geometry0">
            <mesh>
                <source id="geometry0-position">
                    <float_array id="geometry0-position-array" count="66">0.18 -1.25 5.301 0.0 0.0 6.289 0.0 0.0 0.0 0.18 -1.25 0.0 4.37 0.76 6.409 4.11 0.72 6.406 4.11 0.72 0.0 4.37 0.76 0.0 -7.14 -0.97 6.302 -7.73 3.71 9.86 -7.73 3.71 0.0 -7.14 -0.97 0.0 -7.72 3.628 9.925 3.13 9.73 6.332 3.13 9.73 0.0 4.33 -0.71 5.275 3.754 5.214 9.925 -8.22 7.54 6.817 -8.29 8.15 6.333 -8.29 8.15 0.0 -8.22 7.54 0.0 4.33 -0.71 0.0</float_array>
                    <technique_common>
                        <accessor count="22" source="#geometry0-position-array" stride="3">
                            <param name="X" type="float"/>
                            <param name="Y" type="float"/>
                            <param name="Z" type="float"/>
                        </accessor>
                    </technique_common>
                </source>
                <source id="geometry0-normal">
                    <float_array id="geometry0-normal-array" count="210">0.1290327 -0.9916403 0.0 0.1290327 -0.9916403 0.0 0.1290327 -0.9916403 0.0 0.1290327 -0.9916404 0.0 0.9905798 0.1369363 0.0 0.9905798 0.1369363 0.0 0.9905798 0.1369363 0.0 0.9905798 0.1369363 0.0 -0.9919151 -0.126903 0.0 -0.9919151 -0.126903 0.0 -0.9919151 -0.126903 0.0 -0.9919151 -0.126903 0.0 0.9883717 0.152057 0.0 0.9883717 0.152057 0.0 0.9883717 0.152057 0.0 0.9883717 0.152057 0.0 0.1520572 -0.9883717 0.0 0.1520572 -0.9883717 0.0 0.1520572 -0.9883717 0.0 0.1520572 -0.9883717 0.0 0.084327 -0.6101127 0.7878144 0.0843218 -0.6101193 0.7878098 0.0844918 -0.6101788 0.7877455 0.0845741 -0.6101794 0.7877362 0.0845037 -0.6101992 0.7877284 0.084489 -0.6101387 0.7877768 0.0847773 -0.6101295 0.7877531 0.0843242 -0.6101153 0.7878127 0.1346177 -0.9908976 0.0 0.1346177 -0.9908976 0.0 0.1346177 -0.9908976 0.0 0.1346178 -0.9908976 0.0 0.0 0.0 -1.0 0.0 0.0 -1.0 0.0 0.0 -1.0 0.0 0.0 -1.0 0.0 0.0 -1.0 0.0 0.0 -1.0 0.0 0.0 -1.0 0.0 0.0 -1.0 0.0 0.0 -1.0 0.0 0.0 -1.0 -0.9897906 -0.1425298 0.0 -0.9897905 -0.1425298 0.0 -0.9897906 -0.1425298 0.0 -0.9897906 -0.1425298 0.0 -0.0743857 0.6145108 0.7853938 -0.0639953 0.6157669 0.7853252 -0.0776971 0.613897 0.7855532 -0.0846132 0.6129996 0.7855394 -0.0845358 0.6129057 0.785621 -0.0847548 0.6131629 0.7853966 -0.9934801 -0.1140055 0.0 -0.9934801 -0.1140055 0.0 -0.9934801 -0.1140055 0.0 -0.9934801 -0.1140055 0.0 -0.9921468 -0.1250784 0.0 -0.9921468 -0.1250784 0.0 -0.9921468 -0.1250784 0.0 -0.9921468 -0.1250784 0.0 -0.1370483 0.9905643 0.0 -0.1370483 0.9905643 0.0 -0.1370483 0.9905643 0.0 -0.1370483 0.9905643 0.0 0.9905797 0.136937 7.95E-5 0.9905797 0.136937 7.95E-5 0.9905797 0.136937 7.95E-5 -0.9923896 -0.1231098 -0.0026294 -0.9923896 -0.1231098 -0.0026294 -0.9923896 -0.1231098 -0.0026294</float_array>
                    <technique_common>
                        <accessor count="70" source="#geometry0-normal-array" stride="3">
                            <param name="X" type="float"/>
                            <param name="Y" type="float"/>
                            <param name="Z" type="float"/>
                        </accessor>
                    </technique_common>
                </source>
                <vertices id="geometry0-vertex">
                    <input semantic="POSITION" source="#geometry0-position"/>
                </vertices>
                <triangles count="30" material="default_ai_0.2_sh_0.2_tr_0.0_dc_r_0.8_g_0.8_b_0.8_sc_r_1.0_g_1.0_b_1.0_ec_r_0.0_g_0.0_b_0_tri">
                    <input offset="0" semantic="VERTEX" source="#geometry0-vertex"/>
                    <input offset="1" semantic="NORMAL" source="#geometry0-normal"/>
                    <p>15 0 0 1 3 2 15 0 3 2 21 3 13 4 4 5 7 6 13 4 7 6 14 7 9 8 17 9 20 10 9 8 20 10 10 11 5 12 15 13 21 14 5 12 21 14 6 15 4 16 5 17 6 18 4 16 6 18 7 19 1 28 8 29 11 30 1 28 11 30 2 31 21 32 3 33 2 34 6 35 21 32 2 34 6 35 2 34 11 36 6 35 11 36 10 37 6 35 10 37 20 38 6 35 20 38 19 39 6 35 19 39 14 40 6 35 14 40 7 41 0 42 1 43 2 44 0 42 2 44 3 45 17 52 18 53 19 54 17 52 19 54 20 55 8 56 9 57 10 58 8 56 10 58 11 59 18 60 13 61 14 62 18 60 14 62 19 63 4 64 13 65 16 66 9 67 8 68 12 69</p>
                </triangles>
                <triangles count="10" material="default_ai_0.2_sh_0.2_tr_0.0_dc_r_1.0_g_0.2_b_0.2_sc_r_1.0_g_1.0_b_1.0_ec_r_0.0_g_0.0_b_0_tri">
                    <input offset="0" semantic="VERTEX" source="#geometry0-vertex"/>
                    <input offset="1" semantic="NORMAL" source="#geometry0-normal"/>
                    <p>12 20 8 21 1 22 16 23 12 20 1 22 16 23 1 22 0 24 5 25 4 26 16 23 5 25 16 23 0 24 5 25 0 24 15 27 18 46 17 47 9 48 13 49 18 46 9 48 13 49 9 48 12 50 13 49 12 50 16 51</p>
                </triangles>
            </mesh>
        </geometry>
    </library_geometries>
    <library_visual_scenes>
        <visual_scene id="Building_DEBW_5221000Qh77">
            <node>
                <instance_geometry url="#geometry0">
                    <bind_material>
                        <technique_common>
                            <instance_material symbol="default_ai_0.2_sh_0.2_tr_0.0_dc_r_0.8_g_0.8_b_0.8_sc_r_1.0_g_1.0_b_1.0_ec_r_0.0_g_0.0_b_0_tri" target="#default_ai_0.2_sh_0.2_tr_0.0_dc_r_0.8_g_0.8_b_0.8_sc_r_1.0_g_1.0_b_1.0_ec_r_0.0_g_0.0_b_0_mat"/>
                            <instance_material symbol="default_ai_0.2_sh_0.2_tr_0.0_dc_r_1.0_g_0.2_b_0.2_sc_r_1.0_g_1.0_b_1.0_ec_r_0.0_g_0.0_b_0_tri" target="#default_ai_0.2_sh_0.2_tr_0.0_dc_r_1.0_g_0.2_b_0.2_sc_r_1.0_g_1.0_b_1.0_ec_r_0.0_g_0.0_b_0_mat"/>
                        </technique_common>
                    </bind_material>
                </instance_geometry>
            </node>
        </visual_scene>
    </library_visual_scenes>
    <scene>
        <instance_visual_scene url="#Building_DEBW_5221000Qh77"/>
    </scene>
</COLLADA>
