<?xml version="1.0" encoding="UTF-8" standalone="yes"?>
<COLLADA xmlns="http://www.collada.org/2005/11/COLLADASchema" version="1.4.1">
    <asset>
        <contributor>
            <authoring_tool>3D City Database Importer/Exporter, version 5.5.3; Chair of Geoinformatics, Technical University of Munich</authoring_tool>
        </contributor>
        <created>2026-05-06T15:12:11.523</created>
        <modified>2026-05-06T15:12:11.523</modified>
        <unit meter="1.0" name="meters"/>
        <up_axis>Z_UP</up_axis>
    </asset>
    <library_materials>
        <material id="default_ai_0.2_sh_0.2_tr_0.0_dc_r_1.0_g_0.2_b_0.2_sc_r_1.0_g_1.0_b_1.0_ec_r_0.0_g_0.0_b_0_mat">
            <instance_effect url="#default_ai_0.2_sh_0.2_tr_0.0_dc_r_1.0_g_0.2_b_0.2_sc_r_1.0_g_1.0_b_1.0_ec_r_0.0_g_0.0_b_0_eff"/>
        </material>
        <material id="default_ai_0.2_sh_0.2_tr_0.0_dc_r_0.8_g_0.8_b_0.8_sc_r_1.0_g_1.0_b_1.0_ec_r_0.0_g_0.0_b_0_mat">
            <instance_effect url="#default_ai_0.2_sh_0.2_tr_0.0_dc_r_0.8_g_0.8_b_0.8_sc_r_1.0_g_1.0_b_1.0_ec_r_0.0_g_0.0_b_0_eff"/>
        </material>
    </library_materials>
    <library_effects>
        <effect id="default_ai_0.2_sh_0.2_tr_0.0_dc_r_1.0_g_0.2_b_0.2_sc_r_1.0_g_1.0_b_1.0_ec_r_0.0_g_0.0_b_0_eff">
            <profile_COMMON>
                <technique sid="COMMON">
                    <lambert>
                        <emission>
                            <color>0.0 0.0 0.0 1.0</color>
                        </emission>
                        <diffuse>
                            <color>1.0 0.2 0.2 1.0</color>
                        </diffuse>
                        <reflective>
                            <color>1.0 1.0 1.0 1.0</color>
                        </reflective>
                        <reflectivity>
                            <float>0.2</float>
                        </reflectivity>
                        <transparent opaque="A_ONE">
                            <color>1.0 1.0 1.0 1.0</color>
                        </transparent>
                        <transparency>
                            <float>1.0</float>
                        </transparency>
                    </lambert>
                </technique>
                <extra>
                    <technique profile="GOOGLEEARTH">
                        <double_sided>0</double_sided>
                    </technique>
                </extra>
            </profile_COMMON>
        </effect>
        <effect id="default_ai_0.2_sh_0.2_tr_0.0_dc_r_0.8_g_0.8_b_0.8_sc_r_1.0_g_1.0_b_1.0_ec_r_0.0_g_0.0_b_0_eff">
            <profile_COMMON>
                <technique sid="COMMON">
                    <lambert>
                        <emission>
                            <color>0.0 0.0 0.0 1.0</color>
                        </emission>
                        <diffuse>
                            <color>0.8 0.8 0.8 1.0</color>
                        </diffuse>
                        <reflective>
                            <color>1.0 1.0 1.0 1.0</color>
                        </reflective>
                        <reflectivity>
                            <float>0.2</float>
                        </reflectivity>
                        <transparent opaque="A_ONE">
                            <color>1.0 1.0 1.0 1.0</color>
                        </transparent>
                        <transparency>
                            <float>1.0</float>
                        </transparency>
                    </lambert>
                </technique>
                <extra>
                    <technique profile="GOOGLEEARTH">
                        <double_sided>0</double_sided>
                    </technique>
                </extra>
            </profile_COMMON>
        </effect>
    </library_effects>
    <library_geometries>
        <geometry id="geometry0">
            <mesh>
                <source id="geometry0-position">
                    <float_array id="geometry0-position-array" count="42">-4.505 0.585 3.941 -1.357 2.393 3.941 -2.7 4.76 2.426 -6.13 2.79 2.426 -5.1 1.0 3.576 -4.83 1.15 3.579 0.0 0.0 2.43 0.0 0.0 0.0 -2.7 4.76 0.0 -6.13 2.79 0.0 -4.83 1.15 0.0 -5.1 1.0 0.0 -3.13 -1.81 0.0 -3.13 -1.81 2.425</float_array>
                    <technique_common>
                        <accessor count="14" source="#geometry0-position-array" stride="3">
                            <param name="X" type="float"/>
                            <param name="Y" type="float"/>
                            <param name="Z" type="float"/>
                        </accessor>
                    </technique_common>
                </source>
                <source id="geometry0-normal">
                    <float_array id="geometry0-normal-array" count="138">-0.2430207 0.4215641 0.8736273 -0.2436512 0.4210986 0.8736761 -0.2423695 0.4215276 0.8738258 -0.2419011 0.421757 0.8738449 -0.2416566 0.4216208 0.8739782 -0.2422463 0.4217874 0.8737345 0.2398064 -0.4173257 0.8765455 0.239952 -0.4173658 0.8764866 0.2398064 -0.4173257 0.8765455 0.2396608 -0.4172856 0.8766046 -0.8667493 -0.4987441 0.0 -0.8667493 -0.4987441 0.0 -0.8667493 -0.4987441 0.0 -0.8667493 -0.4987441 0.0 0.8698131 0.4933813 -2.149E-4 0.8698131 0.4933813 -2.149E-4 0.8698131 0.4933813 -2.149E-4 0.4856429 -0.8741573 0.0 0.4856429 -0.8741573 0.0 0.4856429 -0.8741573 0.0 0.4856429 -0.8741573 0.0 0.0 0.0 -1.0 0.0 0.0 -1.0 0.0 0.0 -1.0 0.0 0.0 -1.0 0.0 0.0 -1.0 0.0 0.0 -1.0 -0.8670321 -0.4982517 7.542E-4 -0.8670321 -0.4982517 7.542E-4 -0.8670321 -0.4982517 7.542E-4 0.8698131 0.4933814 0.0 0.8698131 0.4933814 0.0 0.8698131 0.4933814 0.0 0.8698131 0.4933814 0.0 0.5006001 -0.8656787 0.0 0.5006001 -0.8656787 0.0 0.5006001 -0.8656787 0.0 0.5006001 -0.8656787 0.0 -0.8671595 -0.4980307 0.0 -0.8671594 -0.4980307 0.0 -0.8671595 -0.4980307 0.0 -0.8671595 -0.4980307 0.0 -0.4980437 0.867152 0.0 -0.4980437 0.867152 0.0 -0.4980437 0.867152 0.0 -0.4980437 0.867152 0.0</float_array>
                    <technique_common>
                        <accessor count="46" source="#geometry0-normal-array" stride="3">
                            <param name="X" type="float"/>
                            <param name="Y" type="float"/>
                            <param name="Z" type="float"/>
                        </accessor>
                    </technique_common>
                </source>
                <vertices id="geometry0-vertex">
                    <input semantic="POSITION" source="#geometry0-position"/>
                </vertices>
                <triangles count="18" material="default_ai_0.2_sh_0.2_tr_0.0_dc_r_0.8_g_0.8_b_0.8_sc_r_1.0_g_1.0_b_1.0_ec_r_0.0_g_0.0_b_0_tri">
                    <input offset="0" semantic="VERTEX" source="#geometry0-vertex"/>
                    <input offset="1" semantic="NORMAL" source="#geometry0-normal"/>
                    <p>4 10 3 11 9 12 4 10 9 12 11 13 6 14 2 15 1 16 5 17 4 18 11 19 5 17 11 19 10 20 11 21 9 22 10 23 9 22 8 24 10 23 10 23 8 24 12 25 12 25 8 24 7 26 5 27 13 28 0 29 2 30 6 31 7 32 2 30 7 32 8 33 6 34 13 35 12 36 6 34 12 36 7 37 13 38 5 39 10 40 13 38 10 40 12 41 3 42 2 43 8 44 3 42 8 44 9 45</p>
                </triangles>
                <triangles count="6" material="default_ai_0.2_sh_0.2_tr_0.0_dc_r_1.0_g_0.2_b_0.2_sc_r_1.0_g_1.0_b_1.0_ec_r_0.0_g_0.0_b_0_tri">
                    <input offset="0" semantic="VERTEX" source="#geometry0-vertex"/>
                    <input offset="1" semantic="NORMAL" source="#geometry0-normal"/>
                    <p>3 0 4 1 5 2 2 3 3 0 5 2 2 3 5 2 0 4 2 3 0 4 1 5 13 6 6 7 1 8 13 6 1 8 0 9</p>
                </triangles>
            </mesh>
        </geometry>
    </library_geometries>
    <library_visual_scenes>
        <visual_scene id="Building_DEBW_5221000Qq8v">
            <node>
                <instance_geometry url="#geometry0">
                    <bind_material>
                        <technique_common>
                            <instance_material symbol="default_ai_0.2_sh_0.2_tr_0.0_dc_r_0.8_g_0.8_b_0.8_sc_r_1.0_g_1.0_b_1.0_ec_r_0.0_g_0.0_b_0_tri" target="#default_ai_0.2_sh_0.2_tr_0.0_dc_r_0.8_g_0.8_b_0.8_sc_r_1.0_g_1.0_b_1.0_ec_r_0.0_g_0.0_b_0_mat"/>
                            <instance_material symbol="default_ai_0.2_sh_0.2_tr_0.0_dc_r_1.0_g_0.2_b_0.2_sc_r_1.0_g_1.0_b_1.0_ec_r_0.0_g_0.0_b_0_tri" target="#default_ai_0.2_sh_0.2_tr_0.0_dc_r_1.0_g_0.2_b_0.2_sc_r_1.0_g_1.0_b_1.0_ec_r_0.0_g_0.0_b_0_mat"/>
                        </technique_common>
                    </bind_material>
                </instance_geometry>
            </node>
        </visual_scene>
    </library_visual_scenes>
    <scene>
        <instance_visual_scene url="#Building_DEBW_5221000Qq8v"/>
    </scene>
</COLLADA>
