<?xml version="1.0" encoding="UTF-8" standalone="yes"?>
<COLLADA xmlns="http://www.collada.org/2005/11/COLLADASchema" version="1.4.1">
    <asset>
        <contributor>
            <authoring_tool>3D City Database Importer/Exporter, version 5.5.3; Chair of Geoinformatics, Technical University of Munich</authoring_tool>
        </contributor>
        <created>2026-05-06T15:12:06.508</created>
        <modified>2026-05-06T15:12:06.508</modified>
        <unit meter="1.0" name="meters"/>
        <up_axis>Z_UP</up_axis>
    </asset>
    <library_materials>
        <material id="default_ai_0.2_sh_0.2_tr_0.0_dc_r_0.8_g_0.8_b_0.8_sc_r_1.0_g_1.0_b_1.0_ec_r_0.0_g_0.0_b_0_mat">
            <instance_effect url="#default_ai_0.2_sh_0.2_tr_0.0_dc_r_0.8_g_0.8_b_0.8_sc_r_1.0_g_1.0_b_1.0_ec_r_0.0_g_0.0_b_0_eff"/>
        </material>
        <material id="default_ai_0.2_sh_0.2_tr_0.0_dc_r_1.0_g_0.2_b_0.2_sc_r_1.0_g_1.0_b_1.0_ec_r_0.0_g_0.0_b_0_mat">
            <instance_effect url="#default_ai_0.2_sh_0.2_tr_0.0_dc_r_1.0_g_0.2_b_0.2_sc_r_1.0_g_1.0_b_1.0_ec_r_0.0_g_0.0_b_0_eff"/>
        </material>
    </library_materials>
    <library_effects>
        <effect id="default_ai_0.2_sh_0.2_tr_0.0_dc_r_0.8_g_0.8_b_0.8_sc_r_1.0_g_1.0_b_1.0_ec_r_0.0_g_0.0_b_0_eff">
            <profile_COMMON>
                <technique sid="COMMON">
                    <lambert>
                        <emission>
                            <color>0.0 0.0 0.0 1.0</color>
                        </emission>
                        <diffuse>
                            <color>0.8 0.8 0.8 1.0</color>
                        </diffuse>
                        <reflective>
                            <color>1.0 1.0 1.0 1.0</color>
                        </reflective>
                        <reflectivity>
                            <float>0.2</float>
                        </reflectivity>
                        <transparent opaque="A_ONE">
                            <color>1.0 1.0 1.0 1.0</color>
                        </transparent>
                        <transparency>
                            <float>1.0</float>
                        </transparency>
                    </lambert>
                </technique>
                <extra>
                    <technique profile="GOOGLEEARTH">
                        <double_sided>0</double_sided>
                    </technique>
                </extra>
            </profile_COMMON>
        </effect>
        <effect id="default_ai_0.2_sh_0.2_tr_0.0_dc_r_1.0_g_0.2_b_0.2_sc_r_1.0_g_1.0_b_1.0_ec_r_0.0_g_0.0_b_0_eff">
            <profile_COMMON>
                <technique sid="COMMON">
                    <lambert>
                        <emission>
                            <color>0.0 0.0 0.0 1.0</color>
                        </emission>
                        <diffuse>
                            <color>1.0 0.2 0.2 1.0</color>
                        </diffuse>
                        <reflective>
                            <color>1.0 1.0 1.0 1.0</color>
                        </reflective>
                        <reflectivity>
                            <float>0.2</float>
                        </reflectivity>
                        <transparent opaque="A_ONE">
                            <color>1.0 1.0 1.0 1.0</color>
                        </transparent>
                        <transparency>
                            <float>1.0</float>
                        </transparency>
                    </lambert>
                </technique>
                <extra>
                    <technique profile="GOOGLEEARTH">
                        <double_sided>0</double_sided>
                    </technique>
                </extra>
            </profile_COMMON>
        </effect>
    </library_effects>
    <library_geometries>
        <geometry id="geometry0">
            <mesh>
                <source id="geometry0-position">
                    <float_array id="geometry0-position-array" count="54">0.272 -1.077 3.608 0.0 0.0 4.758 0.0 0.0 4.75 0.0 0.0 0.0 0.272 -1.077 0.0 4.712 0.053 3.608 4.712 0.053 0.0 4.442 1.133 4.76 4.442 1.133 0.0 4.442 1.133 4.754 8.192 11.783 4.901 -2.308 9.123 4.894 -1.055 4.167 9.023 9.436 6.834 9.023 -2.308 9.123 0.0 8.192 11.783 0.0 10.482 2.673 4.759 10.482 2.673 0.0</float_array>
                    <technique_common>
                        <accessor count="18" source="#geometry0-position-array" stride="3">
                            <param name="X" type="float"/>
                            <param name="Y" type="float"/>
                            <param name="Z" type="float"/>
                        </accessor>
                    </technique_common>
                </source>
                <source id="geometry0-normal">
                    <float_array id="geometry0-normal-array" count="210">-0.9694573 -0.24526 0.0 -0.9694573 -0.2452601 0.0 -0.9694573 -0.24526 0.0 -0.9694573 -0.2452601 0.0 0.2470628 -0.9689995 0.0 0.2470628 -0.9689995 0.0 0.2470628 -0.9689995 0.0 0.2470628 -0.9689995 0.0 0.0 0.0 -1.0 0.0 0.0 -1.0 0.0 0.0 -1.0 0.0 0.0 -1.0 0.0 0.0 -1.0 0.2471523 -0.9689766 0.0 0.2471523 -0.9689766 0.0 0.2471523 -0.9689766 0.0 0.2471523 -0.9689766 0.0 0.0 0.0 -1.0 0.0 0.0 -1.0 0.0 0.0 -1.0 0.0 0.0 -1.0 -0.2455756 0.9693774 0.0 -0.2455756 0.9693774 0.0 -0.2455756 0.9693774 0.0 -0.2455756 0.9693774 0.0 0.9701425 0.2425356 0.0 0.9701425 0.2425356 0.0 0.9701425 0.2425356 0.0 0.9701425 0.2425356 0.0 0.9701425 0.2425356 0.0 -0.9695572 -0.244865 0.0 -0.9695572 -0.244865 0.0 -0.969557 -0.2448658 0.0 -0.9695569 -0.2448662 0.0 -0.9695566 -0.2448675 0.0 -0.969458 -0.2452573 -1.851E-4 -0.969458 -0.2452573 -1.851E-4 -0.969458 -0.2452573 -1.851E-4 0.1736439 -0.6832287 0.7092577 0.1736992 -0.6832689 0.7092053 0.1736621 -0.6832405 0.7092419 0.1736162 -0.6832085 0.7092838 0.1736075 -0.683205 0.7092894 -0.2471523 0.9689767 0.0 -0.2471523 0.9689766 0.0 -0.2471523 0.9689767 0.0 -0.2471523 0.9689767 0.0 0.1774164 -0.6969523 0.6948243 0.1774345 -0.6968703 0.694902 0.1774164 -0.6969523 0.6948243 0.1773984 -0.6970344 0.6947466 -0.2471523 0.9689766 0.0 -0.2471523 0.9689766 0.0 -0.2471523 0.9689766 0.0 -0.2471523 0.9689766 0.0 0.246642 -0.9691067 0.0 0.246642 -0.9691067 0.0 0.246642 -0.9691067 0.0 0.246642 -0.9691067 0.0 0.9698285 0.2437879 0.0 0.9698285 0.2437879 0.0 0.9698285 0.2437879 0.0 0.9698285 0.2437878 0.0 -0.154807 0.6089932 0.7779217 -0.1547944 0.6089835 0.7779318 -0.154807 0.6089932 0.7779217 -0.1548195 0.6090029 0.7779115 0.9698286 0.2437878 9.5E-6 0.9698286 0.2437878 9.5E-6 0.9698286 0.2437878 9.5E-6</float_array>
                    <technique_common>
                        <accessor count="70" source="#geometry0-normal-array" stride="3">
                            <param name="X" type="float"/>
                            <param name="Y" type="float"/>
                            <param name="Z" type="float"/>
                        </accessor>
                    </technique_common>
                </source>
                <vertices id="geometry0-vertex">
                    <input semantic="POSITION" source="#geometry0-position"/>
                </vertices>
                <triangles count="29" material="default_ai_0.2_sh_0.2_tr_0.0_dc_r_0.8_g_0.8_b_0.8_sc_r_1.0_g_1.0_b_1.0_ec_r_0.0_g_0.0_b_0_tri">
                    <input offset="0" semantic="VERTEX" source="#geometry0-vertex"/>
                    <input offset="1" semantic="NORMAL" source="#geometry0-normal"/>
                    <p>2 0 11 1 14 2 2 0 14 2 3 3 9 4 8 5 17 6 9 4 17 6 16 7 8 8 3 9 14 10 8 8 14 10 15 11 8 8 15 11 17 12 2 13 3 14 8 15 2 13 8 15 9 16 4 17 3 18 8 19 4 17 8 19 6 20 11 21 10 22 15 23 11 21 15 23 14 24 6 25 8 26 9 27 6 25 9 27 7 28 6 25 7 28 5 29 3 30 4 31 0 32 2 33 3 30 0 32 2 33 0 32 1 34 11 35 2 36 12 37 9 43 2 44 1 45 9 43 1 45 7 46 8 51 3 52 2 53 8 51 2 53 9 54 5 55 0 56 4 57 5 55 4 57 6 58 10 59 16 60 17 61 10 59 17 61 15 62 16 67 10 68 13 69</p>
                </triangles>
                <triangles count="7" material="default_ai_0.2_sh_0.2_tr_0.0_dc_r_1.0_g_0.2_b_0.2_sc_r_1.0_g_1.0_b_1.0_ec_r_0.0_g_0.0_b_0_tri">
                    <input offset="0" semantic="VERTEX" source="#geometry0-vertex"/>
                    <input offset="1" semantic="NORMAL" source="#geometry0-normal"/>
                    <p>13 38 12 39 2 40 13 38 2 40 9 41 13 38 9 41 16 42 5 47 7 48 1 49 5 47 1 49 0 50 10 63 11 64 12 65 10 63 12 65 13 66</p>
                </triangles>
            </mesh>
        </geometry>
    </library_geometries>
    <library_visual_scenes>
        <visual_scene id="Building_DEBW_5221000Qjck">
            <node>
                <instance_geometry url="#geometry0">
                    <bind_material>
                        <technique_common>
                            <instance_material symbol="default_ai_0.2_sh_0.2_tr_0.0_dc_r_0.8_g_0.8_b_0.8_sc_r_1.0_g_1.0_b_1.0_ec_r_0.0_g_0.0_b_0_tri" target="#default_ai_0.2_sh_0.2_tr_0.0_dc_r_0.8_g_0.8_b_0.8_sc_r_1.0_g_1.0_b_1.0_ec_r_0.0_g_0.0_b_0_mat"/>
                            <instance_material symbol="default_ai_0.2_sh_0.2_tr_0.0_dc_r_1.0_g_0.2_b_0.2_sc_r_1.0_g_1.0_b_1.0_ec_r_0.0_g_0.0_b_0_tri" target="#default_ai_0.2_sh_0.2_tr_0.0_dc_r_1.0_g_0.2_b_0.2_sc_r_1.0_g_1.0_b_1.0_ec_r_0.0_g_0.0_b_0_mat"/>
                        </technique_common>
                    </bind_material>
                </instance_geometry>
            </node>
        </visual_scene>
    </library_visual_scenes>
    <scene>
        <instance_visual_scene url="#Building_DEBW_5221000Qjck"/>
    </scene>
</COLLADA>
