<?xml version="1.0" encoding="UTF-8" standalone="yes"?>
<COLLADA xmlns="http://www.collada.org/2005/11/COLLADASchema" version="1.4.1">
    <asset>
        <contributor>
            <authoring_tool>3D City Database Importer/Exporter, version 5.5.3; Chair of Geoinformatics, Technical University of Munich</authoring_tool>
        </contributor>
        <created>2026-05-06T15:12:07.202</created>
        <modified>2026-05-06T15:12:07.202</modified>
        <unit meter="1.0" name="meters"/>
        <up_axis>Z_UP</up_axis>
    </asset>
    <library_materials>
        <material id="default_ai_0.2_sh_0.2_tr_0.0_dc_r_0.8_g_0.8_b_0.8_sc_r_1.0_g_1.0_b_1.0_ec_r_0.0_g_0.0_b_0_mat">
            <instance_effect url="#default_ai_0.2_sh_0.2_tr_0.0_dc_r_0.8_g_0.8_b_0.8_sc_r_1.0_g_1.0_b_1.0_ec_r_0.0_g_0.0_b_0_eff"/>
        </material>
        <material id="default_ai_0.2_sh_0.2_tr_0.0_dc_r_1.0_g_0.2_b_0.2_sc_r_1.0_g_1.0_b_1.0_ec_r_0.0_g_0.0_b_0_mat">
            <instance_effect url="#default_ai_0.2_sh_0.2_tr_0.0_dc_r_1.0_g_0.2_b_0.2_sc_r_1.0_g_1.0_b_1.0_ec_r_0.0_g_0.0_b_0_eff"/>
        </material>
    </library_materials>
    <library_effects>
        <effect id="default_ai_0.2_sh_0.2_tr_0.0_dc_r_0.8_g_0.8_b_0.8_sc_r_1.0_g_1.0_b_1.0_ec_r_0.0_g_0.0_b_0_eff">
            <profile_COMMON>
                <technique sid="COMMON">
                    <lambert>
                        <emission>
                            <color>0.0 0.0 0.0 1.0</color>
                        </emission>
                        <diffuse>
                            <color>0.8 0.8 0.8 1.0</color>
                        </diffuse>
                        <reflective>
                            <color>1.0 1.0 1.0 1.0</color>
                        </reflective>
                        <reflectivity>
                            <float>0.2</float>
                        </reflectivity>
                        <transparent opaque="A_ONE">
                            <color>1.0 1.0 1.0 1.0</color>
                        </transparent>
                        <transparency>
                            <float>1.0</float>
                        </transparency>
                    </lambert>
                </technique>
                <extra>
                    <technique profile="GOOGLEEARTH">
                        <double_sided>0</double_sided>
                    </technique>
                </extra>
            </profile_COMMON>
        </effect>
        <effect id="default_ai_0.2_sh_0.2_tr_0.0_dc_r_1.0_g_0.2_b_0.2_sc_r_1.0_g_1.0_b_1.0_ec_r_0.0_g_0.0_b_0_eff">
            <profile_COMMON>
                <technique sid="COMMON">
                    <lambert>
                        <emission>
                            <color>0.0 0.0 0.0 1.0</color>
                        </emission>
                        <diffuse>
                            <color>1.0 0.2 0.2 1.0</color>
                        </diffuse>
                        <reflective>
                            <color>1.0 1.0 1.0 1.0</color>
                        </reflective>
                        <reflectivity>
                            <float>0.2</float>
                        </reflectivity>
                        <transparent opaque="A_ONE">
                            <color>1.0 1.0 1.0 1.0</color>
                        </transparent>
                        <transparency>
                            <float>1.0</float>
                        </transparency>
                    </lambert>
                </technique>
                <extra>
                    <technique profile="GOOGLEEARTH">
                        <double_sided>0</double_sided>
                    </technique>
                </extra>
            </profile_COMMON>
        </effect>
    </library_effects>
    <library_geometries>
        <geometry id="geometry0">
            <mesh>
                <source id="geometry0-position">
                    <float_array id="geometry0-position-array" count="54">6.13 -9.1 5.87 0.0 0.0 5.851 0.0 0.0 0.0 6.13 -9.1 0.0 -0.16 0.24 5.852 -0.16 0.24 0.0 9.04 1.3 5.747 13.09 -4.59 5.674 13.09 -4.59 0.0 9.04 1.3 0.0 2.49 2.01 0.0 7.22 5.18 0.0 9.57 1.68 0.0 7.22 5.18 5.193 2.49 2.01 8.136 3.506 2.691 9.012 9.57 1.68 5.19 9.81 -6.715 9.012</float_array>
                    <technique_common>
                        <accessor count="18" source="#geometry0-position-array" stride="3">
                            <param name="X" type="float"/>
                            <param name="Y" type="float"/>
                            <param name="Z" type="float"/>
                        </accessor>
                    </technique_common>
                </source>
                <source id="geometry0-normal">
                    <float_array id="geometry0-normal-array" count="174">0.582688 -0.812696 0.0 0.5826879 -0.812696 0.0 0.582688 -0.812696 0.0 0.582688 -0.8126959 0.0 0.5395274 0.3616274 0.7603525 0.5395297 0.3615986 0.7603645 0.5394953 0.3615913 0.7603924 0.5395349 0.3616197 0.7603507 0.5396487 0.3616839 0.7602395 0.5395523 0.3615756 0.7603594 0.0 0.0 -1.0 0.0 0.0 -1.0 0.0 0.0 -1.0 0.0 0.0 -1.0 0.0 0.0 -1.0 0.0 0.0 -1.0 0.0 0.0 -1.0 0.0 0.0 -1.0 0.5438011 -0.8392141 0.0 0.5438011 -0.8392141 0.0 0.5438011 -0.8392141 0.0 0.5438011 -0.8392141 0.0 -0.5567455 0.8306831 -4.77E-5 -0.5567455 0.8306831 -4.77E-5 -0.5567455 0.8306831 -4.77E-5 -0.528309 -0.3543197 0.7715873 -0.6099185 -0.4094405 0.6784968 -0.5497229 -0.368765 0.7495446 -0.4838086 -0.3242716 0.8128819 -0.4837874 -0.3242666 0.8128966 -0.4836851 -0.3241709 0.8129957 -0.5554241 0.8315672 0.0 -0.5554242 0.8315672 0.0 -0.5554241 0.8315672 0.0 -0.5554241 0.8315672 0.0 -0.8320503 -0.5547002 0.0 -0.8320503 -0.5547002 0.0 -0.8320503 -0.5547002 0.0 -0.8320503 -0.5547002 0.0 -0.556725 0.8306968 0.0 -0.556725 0.8306968 0.0 -0.556725 0.8306968 0.0 -0.556725 0.8306969 0.0 -0.8293766 -0.55869 0.0 -0.8293766 -0.5586899 0.0 -0.8293766 -0.55869 0.0 -0.8293766 -0.55869 0.0 0.8240011 0.5665882 0.0 0.8240011 0.5665882 0.0 0.8240011 0.5665882 0.0 0.8240011 0.5665882 0.0 0.5438032 -0.8392128 1.04E-4 0.5438032 -0.8392128 1.04E-4 0.5438032 -0.8392128 1.04E-4 0.8302211 0.5574341 0.0 0.8302211 0.5574341 0.0 0.8302211 0.5574341 0.0 0.8302211 0.5574342 0.0</float_array>
                    <technique_common>
                        <accessor count="58" source="#geometry0-normal-array" stride="3">
                            <param name="X" type="float"/>
                            <param name="Y" type="float"/>
                            <param name="Z" type="float"/>
                        </accessor>
                    </technique_common>
                </source>
                <vertices id="geometry0-vertex">
                    <input semantic="POSITION" source="#geometry0-position"/>
                </vertices>
                <triangles count="24" material="default_ai_0.2_sh_0.2_tr_0.0_dc_r_0.8_g_0.8_b_0.8_sc_r_1.0_g_1.0_b_1.0_ec_r_0.0_g_0.0_b_0_tri">
                    <input offset="0" semantic="VERTEX" source="#geometry0-vertex"/>
                    <input offset="1" semantic="NORMAL" source="#geometry0-normal"/>
                    <p>16 0 6 1 9 2 16 0 9 2 12 3 3 10 2 11 5 12 3 10 5 12 10 13 3 10 10 13 11 14 9 15 8 16 3 10 9 15 3 10 11 14 9 15 11 14 12 17 7 18 0 19 3 20 7 18 3 20 8 21 13 22 14 23 15 24 4 31 14 32 10 33 4 31 10 33 5 34 1 35 4 36 5 37 1 35 5 37 2 38 14 39 13 40 11 41 14 39 11 41 10 42 0 43 1 44 2 45 0 43 2 45 3 46 6 47 7 48 8 49 6 47 8 49 9 50 0 51 7 52 17 53 13 54 16 55 12 56 13 54 12 56 11 57</p>
                </triangles>
                <triangles count="8" material="default_ai_0.2_sh_0.2_tr_0.0_dc_r_1.0_g_0.2_b_0.2_sc_r_1.0_g_1.0_b_1.0_ec_r_0.0_g_0.0_b_0_tri">
                    <input offset="0" semantic="VERTEX" source="#geometry0-vertex"/>
                    <input offset="1" semantic="NORMAL" source="#geometry0-normal"/>
                    <p>13 4 15 5 17 6 6 7 16 8 13 4 6 7 13 4 17 6 6 7 17 6 7 9 4 25 1 26 0 27 4 25 0 27 17 28 14 29 4 25 17 28 14 29 17 28 15 30</p>
                </triangles>
            </mesh>
        </geometry>
    </library_geometries>
    <library_visual_scenes>
        <visual_scene id="Building_DEBW_5221000QwxU">
            <node>
                <instance_geometry url="#geometry0">
                    <bind_material>
                        <technique_common>
                            <instance_material symbol="default_ai_0.2_sh_0.2_tr_0.0_dc_r_0.8_g_0.8_b_0.8_sc_r_1.0_g_1.0_b_1.0_ec_r_0.0_g_0.0_b_0_tri" target="#default_ai_0.2_sh_0.2_tr_0.0_dc_r_0.8_g_0.8_b_0.8_sc_r_1.0_g_1.0_b_1.0_ec_r_0.0_g_0.0_b_0_mat"/>
                            <instance_material symbol="default_ai_0.2_sh_0.2_tr_0.0_dc_r_1.0_g_0.2_b_0.2_sc_r_1.0_g_1.0_b_1.0_ec_r_0.0_g_0.0_b_0_tri" target="#default_ai_0.2_sh_0.2_tr_0.0_dc_r_1.0_g_0.2_b_0.2_sc_r_1.0_g_1.0_b_1.0_ec_r_0.0_g_0.0_b_0_mat"/>
                        </technique_common>
                    </bind_material>
                </instance_geometry>
            </node>
        </visual_scene>
    </library_visual_scenes>
    <scene>
        <instance_visual_scene url="#Building_DEBW_5221000QwxU"/>
    </scene>
</COLLADA>
