<?xml version="1.0" encoding="UTF-8" standalone="yes"?>
<COLLADA xmlns="http://www.collada.org/2005/11/COLLADASchema" version="1.4.1">
    <asset>
        <contributor>
            <authoring_tool>3D City Database Importer/Exporter, version 5.5.3; Chair of Geoinformatics, Technical University of Munich</authoring_tool>
        </contributor>
        <created>2026-05-06T15:12:14.039</created>
        <modified>2026-05-06T15:12:14.039</modified>
        <unit meter="1.0" name="meters"/>
        <up_axis>Z_UP</up_axis>
    </asset>
    <library_materials>
        <material id="default_ai_0.2_sh_0.2_tr_0.0_dc_r_0.8_g_0.8_b_0.8_sc_r_1.0_g_1.0_b_1.0_ec_r_0.0_g_0.0_b_0_mat">
            <instance_effect url="#default_ai_0.2_sh_0.2_tr_0.0_dc_r_0.8_g_0.8_b_0.8_sc_r_1.0_g_1.0_b_1.0_ec_r_0.0_g_0.0_b_0_eff"/>
        </material>
        <material id="default_ai_0.2_sh_0.2_tr_0.0_dc_r_1.0_g_0.2_b_0.2_sc_r_1.0_g_1.0_b_1.0_ec_r_0.0_g_0.0_b_0_mat">
            <instance_effect url="#default_ai_0.2_sh_0.2_tr_0.0_dc_r_1.0_g_0.2_b_0.2_sc_r_1.0_g_1.0_b_1.0_ec_r_0.0_g_0.0_b_0_eff"/>
        </material>
    </library_materials>
    <library_effects>
        <effect id="default_ai_0.2_sh_0.2_tr_0.0_dc_r_0.8_g_0.8_b_0.8_sc_r_1.0_g_1.0_b_1.0_ec_r_0.0_g_0.0_b_0_eff">
            <profile_COMMON>
                <technique sid="COMMON">
                    <lambert>
                        <emission>
                            <color>0.0 0.0 0.0 1.0</color>
                        </emission>
                        <diffuse>
                            <color>0.8 0.8 0.8 1.0</color>
                        </diffuse>
                        <reflective>
                            <color>1.0 1.0 1.0 1.0</color>
                        </reflective>
                        <reflectivity>
                            <float>0.2</float>
                        </reflectivity>
                        <transparent opaque="A_ONE">
                            <color>1.0 1.0 1.0 1.0</color>
                        </transparent>
                        <transparency>
                            <float>1.0</float>
                        </transparency>
                    </lambert>
                </technique>
                <extra>
                    <technique profile="GOOGLEEARTH">
                        <double_sided>0</double_sided>
                    </technique>
                </extra>
            </profile_COMMON>
        </effect>
        <effect id="default_ai_0.2_sh_0.2_tr_0.0_dc_r_1.0_g_0.2_b_0.2_sc_r_1.0_g_1.0_b_1.0_ec_r_0.0_g_0.0_b_0_eff">
            <profile_COMMON>
                <technique sid="COMMON">
                    <lambert>
                        <emission>
                            <color>0.0 0.0 0.0 1.0</color>
                        </emission>
                        <diffuse>
                            <color>1.0 0.2 0.2 1.0</color>
                        </diffuse>
                        <reflective>
                            <color>1.0 1.0 1.0 1.0</color>
                        </reflective>
                        <reflectivity>
                            <float>0.2</float>
                        </reflectivity>
                        <transparent opaque="A_ONE">
                            <color>1.0 1.0 1.0 1.0</color>
                        </transparent>
                        <transparency>
                            <float>1.0</float>
                        </transparency>
                    </lambert>
                </technique>
                <extra>
                    <technique profile="GOOGLEEARTH">
                        <double_sided>0</double_sided>
                    </technique>
                </extra>
            </profile_COMMON>
        </effect>
    </library_effects>
    <library_geometries>
        <geometry id="geometry0">
            <mesh>
                <source id="geometry0-position">
                    <float_array id="geometry0-position-array" count="150">0.0 0.0 0.0 -2.08 2.85 0.0 -0.01 4.353 0.0 2.068 1.498 0.0 0.0 0.0 7.006 2.068 1.498 7.006 2.066 1.501 7.011 0.282 1.786 9.582 -0.286 2.567 9.586 -2.08 2.85 7.006 -0.003 4.342 7.031 -0.01 4.353 7.006 -2.5 3.84 0.0 -4.5 6.59 0.0 -2.635 7.957 0.0 -0.63 5.203 0.0 -4.5 6.59 7.226 -2.635 7.957 7.226 -4.5 6.59 7.348 -3.503 5.22 9.729 -1.635 6.585 9.729 -2.635 7.957 7.344 -0.63 5.203 7.226 -2.5 3.84 7.23 -2.42 7.662 7.856 -0.883 5.551 7.856 4.24 13.63 7.856 9.65 6.18 7.856 9.65 6.18 0.0 4.24 13.63 0.0 -2.63 7.96 7.862 -2.95 8.39 7.856 -2.95 8.39 0.0 -2.63 7.96 0.0 6.055 3.57 13.012 2.46 0.96 7.856 -2.635 7.957 7.856 0.0 4.36 7.856 -0.62 5.21 7.856 -0.62 5.21 0.0 0.0 4.36 0.0 0.645 11.01 13.019 0.0 4.36 7.871 -0.62 5.21 7.87 2.07 1.5 7.859 2.07 1.5 0.0 2.46 0.96 0.0 -0.63 5.203 7.856 -0.01 4.353 7.856 2.068 1.498 7.856</float_array>
                    <technique_common>
                        <accessor count="50" source="#geometry0-position-array" stride="3">
                            <param name="X" type="float"/>
                            <param name="Y" type="float"/>
                            <param name="Z" type="float"/>
                        </accessor>
                    </technique_common>
                </source>
                <source id="geometry0-normal">
                    <float_array id="geometry0-normal-array" count="576">-0.8084175 -0.5886095 2.642E-4 -0.8084213 -0.5886042 3.369E-4 -0.8084043 -0.5886276 1.685E-4 -0.8084155 -0.5886121 2.279E-4 -0.8084438 -0.588573 4.557E-4 0.8084213 0.5886042 -3.652E-4 0.8084213 0.5886042 -3.652E-4 0.8084213 0.5886042 -3.652E-4 -0.5145379 0.8574677 0.0 -0.5145378 0.8574677 0.0 -0.5145379 0.8574677 0.0 -0.5145379 0.8574677 0.0 -0.5145379 0.8574677 0.0 -0.5145378 0.8574677 0.0 -0.591176 0.8065425 0.0 -0.591176 0.8065425 0.0 -0.591176 0.8065425 0.0 -0.591176 0.8065425 0.0 0.8084441 0.5885732 0.0 0.8084441 0.5885732 0.0 0.8084441 0.5885732 0.0 0.8084441 0.5885732 0.0 0.7253219 0.5251598 0.4451016 0.7253385 0.5251046 0.4451395 0.7253219 0.5251598 0.4451016 0.7253052 0.5252149 0.4450635 -0.8088366 -0.5880335 0.0 -0.8088366 -0.5880335 0.0 -0.8088366 -0.5880335 0.0 0.6130078 0.4451427 0.6527398 0.6129995 0.4451446 0.6527464 0.6130078 0.4451427 0.6527398 0.6130162 0.4451409 0.6527333 -0.8081431 -0.5889862 0.0 -0.8081431 -0.5889862 0.0 -0.8081431 -0.5889862 0.0 0.5866338 -0.8098523 0.0 0.5866338 -0.8098523 0.0 0.5866338 -0.8098523 0.0 0.5866338 -0.8098523 0.0 -0.8087361 -0.5881717 0.0 -0.8087361 -0.5881717 0.0 -0.8087361 -0.5881717 0.0 -0.8087361 -0.5881717 0.0 -0.587544 0.8091922 0.0 -0.587544 0.8091922 0.0 -0.587544 0.8091922 0.0 -0.587544 0.8091922 0.0 -0.5889734 0.8081524 0.0 -0.5889734 0.8081524 0.0 -0.5889734 0.8081524 0.0 -0.5889734 0.8081524 0.0 0.8084175 0.5886095 -2.642E-4 0.8084438 0.588573 -4.558E-4 0.8084155 0.5886121 -2.279E-4 0.8084043 0.5886276 -1.685E-4 0.8084213 0.5886042 -3.369E-4 -0.6108272 -0.4446636 0.6551064 -0.6124316 -0.4459441 0.6527339 -0.6124677 -0.4463304 0.6524358 -0.6100329 -0.4149987 0.6750081 -0.6099979 -0.4148157 0.6751522 -0.6124351 -0.44613 0.6526035 -0.6115301 -0.4449081 0.6542841 -0.6056351 -0.4408884 0.6624376 -0.6124257 -0.4459342 0.652746 -0.601549 -0.4570615 0.6551593 -0.5916982 -0.4306651 0.6814843 -0.6061043 -0.4700511 0.6416302 -0.6115249 -0.4449181 0.6542822 -0.6096897 -0.4432514 0.6571199 -0.8106791 -0.5854906 0.0 -0.8106792 -0.5854906 0.0 -0.8106791 -0.5854906 0.0 -0.8106791 -0.5854907 0.0 -0.8079132 -0.5893015 0.0 -0.8079132 -0.5893015 0.0 -0.8079132 -0.5893015 0.0 -0.8079132 -0.5893015 0.0 0.0 0.0 -1.0 0.0 0.0 -1.0 0.0 0.0 -1.0 0.0 0.0 -1.0 -0.5235718 0.7212607 0.4534927 -0.5211594 0.7177643 0.4617437 -0.5235718 0.7212607 0.4534927 -0.525939 0.724695 0.4452027 0.7071279 -0.7070857 0.0 0.7071279 -0.7070857 0.0 0.7071279 -0.7070857 0.0 0.7071279 -0.7070857 0.0 0.7071279 -0.7070857 0.0 0.4872651 -0.6668407 0.5638229 0.4872714 -0.6668299 0.56383 0.4872651 -0.6668407 0.5638229 0.4872588 -0.6668514 0.5638157 -0.5734606 0.8192331 0.0 -0.5734607 0.8192332 0.0 -0.5734607 0.8192331 0.0 -0.5734607 0.8192331 0.0 -0.5734607 0.8192331 0.0 -0.8079132 -0.5893015 0.0 -0.8079132 -0.5893015 0.0 -0.8079132 -0.5893015 0.0 -0.8079133 -0.5893015 0.0 0.8091586 0.5875903 0.0 0.8091586 0.5875903 0.0 0.8091586 0.5875903 0.0 0.8091586 0.5875903 0.0 -0.4807543 0.6577509 0.5798613 -0.4807034 0.6578417 0.5798004 -0.4807543 0.6577509 0.5798613 -0.480805 0.6576601 0.5799221 -0.7232451 -0.528059 0.4450507 -0.7231911 -0.5282364 0.4449278 -0.7232451 -0.528059 0.4450507 -0.7232991 -0.5278816 0.4451736 0.8084888 0.5885097 0.0014629 0.8080345 0.5882337 0.0325767 0.8084888 0.5885097 0.0014629 0.8081601 0.5882159 -0.0296522 0.0 0.0 -1.0 0.0 0.0 -1.0 0.0 0.0 -1.0 0.0 0.0 -1.0 -0.591176 0.8065426 0.0 -0.591176 0.8065425 0.0 -0.591176 0.8065426 0.0 -0.591176 0.8065426 0.0 -0.8087339 -0.5881746 1.054E-4 -0.8087318 -0.5881776 2.109E-4 -0.8087339 -0.5881746 1.054E-4 -0.8087361 -0.5881717 0.0 -0.8085157 -0.5884748 0.0 -0.8085157 -0.5884748 0.0 -0.8085157 -0.5884748 0.0 -0.8085157 -0.5884748 0.0 -0.8022335 -0.5970104 0.0 -0.8022335 -0.5970104 0.0 -0.8022335 -0.5970104 0.0 -0.8022335 -0.5970104 0.0 0.5734611 -0.8192329 0.0 0.5734611 -0.8192329 0.0 0.5734611 -0.8192328 0.0 0.5734611 -0.8192328 0.0 0.573461 -0.8192328 0.0 0.5875023 -0.8092225 0.0 0.5875023 -0.8092225 0.0 0.5875023 -0.8092225 0.0 0.5875023 -0.8092225 0.0 -0.8077545 -0.589519 0.0 -0.8077545 -0.589519 0.0 -0.8077545 -0.589519 0.0 -0.8077545 -0.589519 0.0 0.0 0.0 -1.0 0.0 0.0 -1.0 0.0 0.0 -1.0 0.0 0.0 -1.0 0.0 0.0 -1.0 0.0 0.0 -1.0 0.0 0.0 -1.0 0.0 0.0 -1.0 0.0 0.0 -1.0 0.0 0.0 -1.0 0.0 0.0 -1.0 0.0 0.0 -1.0 -0.5889734 0.8081524 0.0 -0.5889734 0.8081524 0.0 -0.5889734 0.8081524 0.0 0.5890194 -0.8081189 0.0 0.5890194 -0.8081189 0.0 0.5890194 -0.8081189 0.0 0.5890194 -0.8081189 0.0 0.8085156 0.5884748 0.0 0.8085156 0.5884748 0.0 0.8085156 0.5884748 0.0 0.8085156 0.5884748 0.0 -0.8085156 -0.5884748 0.0 -0.8085156 -0.5884748 0.0 -0.8085156 -0.5884748 0.0 -0.8085156 -0.5884748 0.0 0.5024615 -0.6933166 0.51657 0.4759465 -0.6570476 0.5846054 0.5024615 -0.6933166 0.51657 0.5256365 -0.724977 0.4451008 0.5875023 -0.8092225 0.0 0.5875023 -0.8092225 0.0 0.5875023 -0.8092225 0.0 -0.8084441 -0.5885732 0.0 -0.8084441 -0.5885732 0.0 -0.8084441 -0.5885732 0.0 -0.8084441 -0.5885732 0.0</float_array>
                    <technique_common>
                        <accessor count="192" source="#geometry0-normal-array" stride="3">
                            <param name="X" type="float"/>
                            <param name="Y" type="float"/>
                            <param name="Z" type="float"/>
                        </accessor>
                    </technique_common>
                </source>
                <vertices id="geometry0-vertex">
                    <input semantic="POSITION" source="#geometry0-position"/>
                </vertices>
                <triangles count="80" material="default_ai_0.2_sh_0.2_tr_0.0_dc_r_0.8_g_0.8_b_0.8_sc_r_1.0_g_1.0_b_1.0_ec_r_0.0_g_0.0_b_0_tri">
                    <input offset="0" semantic="VERTEX" source="#geometry0-vertex"/>
                    <input offset="1" semantic="NORMAL" source="#geometry0-normal"/>
                    <p>25 0 24 1 21 2 25 0 21 2 17 3 25 0 17 3 22 4 24 5 20 6 25 7 33 8 14 9 17 10 33 8 17 10 21 11 33 8 21 11 36 12 33 8 36 12 30 13 16 14 17 15 14 16 16 14 14 16 13 17 15 18 14 19 17 20 15 18 17 20 22 21 25 26 22 27 47 28 21 33 24 34 36 35 5 36 4 37 0 38 5 36 0 38 3 39 23 40 16 41 13 42 23 40 13 42 12 43 9 44 11 45 2 46 9 44 2 46 1 47 31 48 26 49 29 50 31 48 29 50 32 51 25 52 22 53 17 54 25 52 17 54 21 55 25 52 21 55 24 56 35 71 44 72 45 73 35 71 45 73 46 74 37 75 38 76 39 77 37 75 39 77 40 78 0 79 1 80 2 81 0 79 2 81 3 82 3 87 45 88 44 89 5 90 3 87 44 89 5 90 44 89 49 91 40 96 2 97 11 98 40 96 11 98 48 99 40 96 48 99 37 100 37 101 42 102 43 103 37 101 43 103 38 104 26 105 27 106 28 107 26 105 28 107 29 108 11 117 10 118 6 119 11 117 6 119 5 120 12 121 13 122 14 123 12 121 14 123 15 124 16 125 18 126 21 127 16 125 21 127 17 128 23 129 19 130 18 131 23 129 18 131 16 132 11 133 5 134 49 135 11 133 49 135 48 136 30 137 31 138 32 139 30 137 32 139 33 140 15 141 39 142 38 143 22 144 15 141 38 143 22 144 38 143 47 145 27 146 35 147 46 148 27 146 46 148 28 149 4 150 9 151 1 152 4 150 1 152 0 153 32 154 29 155 28 156 33 157 32 154 28 156 14 158 33 157 28 156 39 159 15 160 14 158 39 159 14 158 28 156 40 161 39 159 28 156 2 162 40 161 28 156 45 163 3 164 2 162 45 163 2 162 28 156 45 163 28 156 46 165 31 166 41 167 26 168 22 169 23 170 12 171 22 169 12 171 15 172 3 173 2 174 11 175 3 173 11 175 5 176 11 177 2 178 3 179 11 177 3 179 5 180 27 185 34 186 35 187 17 188 14 189 15 190 17 188 15 190 22 191</p>
                </triangles>
                <triangles count="26" material="default_ai_0.2_sh_0.2_tr_0.0_dc_r_1.0_g_0.2_b_0.2_sc_r_1.0_g_1.0_b_1.0_ec_r_0.0_g_0.0_b_0_tri">
                    <input offset="0" semantic="VERTEX" source="#geometry0-vertex"/>
                    <input offset="1" semantic="NORMAL" source="#geometry0-normal"/>
                    <p>6 22 10 23 8 24 6 22 8 24 7 25 34 29 27 30 26 31 34 29 26 31 41 32 34 57 41 58 31 59 34 57 31 59 30 60 34 57 30 60 36 61 34 57 36 61 24 62 34 57 24 62 25 63 44 64 35 65 34 57 48 66 49 67 44 64 48 66 44 64 34 57 42 68 48 66 34 57 43 69 42 68 34 57 43 69 34 57 25 63 43 69 25 63 47 70 10 83 11 84 9 85 10 83 9 85 8 86 22 92 20 93 19 94 22 92 19 94 23 95 18 109 19 110 20 111 18 109 20 111 21 112 7 113 8 114 9 115 7 113 9 115 4 116 4 181 5 182 6 183 4 181 6 183 7 184</p>
                </triangles>
            </mesh>
        </geometry>
    </library_geometries>
    <library_visual_scenes>
        <visual_scene id="Building_DEBW_5221000QbKw">
            <node>
                <instance_geometry url="#geometry0">
                    <bind_material>
                        <technique_common>
                            <instance_material symbol="default_ai_0.2_sh_0.2_tr_0.0_dc_r_0.8_g_0.8_b_0.8_sc_r_1.0_g_1.0_b_1.0_ec_r_0.0_g_0.0_b_0_tri" target="#default_ai_0.2_sh_0.2_tr_0.0_dc_r_0.8_g_0.8_b_0.8_sc_r_1.0_g_1.0_b_1.0_ec_r_0.0_g_0.0_b_0_mat"/>
                            <instance_material symbol="default_ai_0.2_sh_0.2_tr_0.0_dc_r_1.0_g_0.2_b_0.2_sc_r_1.0_g_1.0_b_1.0_ec_r_0.0_g_0.0_b_0_tri" target="#default_ai_0.2_sh_0.2_tr_0.0_dc_r_1.0_g_0.2_b_0.2_sc_r_1.0_g_1.0_b_1.0_ec_r_0.0_g_0.0_b_0_mat"/>
                        </technique_common>
                    </bind_material>
                </instance_geometry>
            </node>
        </visual_scene>
    </library_visual_scenes>
    <scene>
        <instance_visual_scene url="#Building_DEBW_5221000QbKw"/>
    </scene>
</COLLADA>
