<?xml version="1.0" encoding="UTF-8" standalone="yes"?>
<COLLADA xmlns="http://www.collada.org/2005/11/COLLADASchema" version="1.4.1">
    <asset>
        <contributor>
            <authoring_tool>3D City Database Importer/Exporter, version 5.5.3; Chair of Geoinformatics, Technical University of Munich</authoring_tool>
        </contributor>
        <created>2026-05-06T15:12:10.985</created>
        <modified>2026-05-06T15:12:10.985</modified>
        <unit meter="1.0" name="meters"/>
        <up_axis>Z_UP</up_axis>
    </asset>
    <library_materials>
        <material id="default_ai_0.2_sh_0.2_tr_0.0_dc_r_0.8_g_0.8_b_0.8_sc_r_1.0_g_1.0_b_1.0_ec_r_0.0_g_0.0_b_0_mat">
            <instance_effect url="#default_ai_0.2_sh_0.2_tr_0.0_dc_r_0.8_g_0.8_b_0.8_sc_r_1.0_g_1.0_b_1.0_ec_r_0.0_g_0.0_b_0_eff"/>
        </material>
        <material id="default_ai_0.2_sh_0.2_tr_0.0_dc_r_1.0_g_0.2_b_0.2_sc_r_1.0_g_1.0_b_1.0_ec_r_0.0_g_0.0_b_0_mat">
            <instance_effect url="#default_ai_0.2_sh_0.2_tr_0.0_dc_r_1.0_g_0.2_b_0.2_sc_r_1.0_g_1.0_b_1.0_ec_r_0.0_g_0.0_b_0_eff"/>
        </material>
    </library_materials>
    <library_effects>
        <effect id="default_ai_0.2_sh_0.2_tr_0.0_dc_r_0.8_g_0.8_b_0.8_sc_r_1.0_g_1.0_b_1.0_ec_r_0.0_g_0.0_b_0_eff">
            <profile_COMMON>
                <technique sid="COMMON">
                    <lambert>
                        <emission>
                            <color>0.0 0.0 0.0 1.0</color>
                        </emission>
                        <diffuse>
                            <color>0.8 0.8 0.8 1.0</color>
                        </diffuse>
                        <reflective>
                            <color>1.0 1.0 1.0 1.0</color>
                        </reflective>
                        <reflectivity>
                            <float>0.2</float>
                        </reflectivity>
                        <transparent opaque="A_ONE">
                            <color>1.0 1.0 1.0 1.0</color>
                        </transparent>
                        <transparency>
                            <float>1.0</float>
                        </transparency>
                    </lambert>
                </technique>
                <extra>
                    <technique profile="GOOGLEEARTH">
                        <double_sided>0</double_sided>
                    </technique>
                </extra>
            </profile_COMMON>
        </effect>
        <effect id="default_ai_0.2_sh_0.2_tr_0.0_dc_r_1.0_g_0.2_b_0.2_sc_r_1.0_g_1.0_b_1.0_ec_r_0.0_g_0.0_b_0_eff">
            <profile_COMMON>
                <technique sid="COMMON">
                    <lambert>
                        <emission>
                            <color>0.0 0.0 0.0 1.0</color>
                        </emission>
                        <diffuse>
                            <color>1.0 0.2 0.2 1.0</color>
                        </diffuse>
                        <reflective>
                            <color>1.0 1.0 1.0 1.0</color>
                        </reflective>
                        <reflectivity>
                            <float>0.2</float>
                        </reflectivity>
                        <transparent opaque="A_ONE">
                            <color>1.0 1.0 1.0 1.0</color>
                        </transparent>
                        <transparency>
                            <float>1.0</float>
                        </transparency>
                    </lambert>
                </technique>
                <extra>
                    <technique profile="GOOGLEEARTH">
                        <double_sided>0</double_sided>
                    </technique>
                </extra>
            </profile_COMMON>
        </effect>
    </library_effects>
    <library_geometries>
        <geometry id="geometry0">
            <mesh>
                <source id="geometry0-position">
                    <float_array id="geometry0-position-array" count="264">0.139 0.001 6.782 0.0 0.0 6.647 0.0 0.0 0.0 0.139 0.001 0.0 0.806 0.178 7.513 0.68 0.12 7.363 0.68 0.12 0.0 0.806 0.178 0.0 -1.206 0.605 5.751 -1.289 0.716 5.722 -1.289 0.716 0.0 -1.206 0.605 0.0 -0.783 3.025 7.275 -0.661 3.092 7.424 -0.661 3.092 0.0 -0.783 3.025 0.0 6.506 7.528 7.551 10.326 -0.642 7.513 10.326 -0.642 0.0 6.506 7.528 0.0 -0.905 0.317 5.912 -1.013 0.404 5.846 -1.013 0.404 0.0 -0.905 0.317 0.0 0.549 0.073 7.214 0.549 0.073 0.0 -0.276 0.034 6.394 -0.41 0.069 6.279 -0.41 0.069 0.0 -0.276 0.034 0.0 5.695 2.157 11.112 -0.954 3.988 7.551 3.96 1.334 11.112 -0.79 0.239 5.988 -0.79 0.239 0.0 -1.514 2.046 6.114 -1.473 2.179 6.215 -1.473 2.179 0.0 -1.514 2.046 0.0 -1.358 2.432 6.443 -1.284 2.55 6.569 -1.284 2.55 0.0 -1.358 2.432 0.0 -0.668 0.172 6.075 -0.668 0.172 0.0 -0.138 0.011 6.517 -0.138 0.011 0.0 -1.421 2.308 6.325 -1.421 2.308 0.0 -1.201 2.661 6.701 -1.108 2.765 6.839 -1.108 2.765 0.0 -1.201 2.661 0.0 -1.114 0.5 5.793 -1.114 0.5 0.0 -0.541 0.115 6.173 -0.541 0.115 0.0 -0.534 3.148 7.574 -0.899 2.948 7.127 -1.007 2.861 6.981 -1.544 1.911 6.022 -1.562 1.773 5.942 -1.568 1.634 5.872 -1.563 1.495 5.813 -1.545 1.357 5.767 -1.516 1.221 5.733 -1.476 1.088 5.711 -1.424 0.959 5.702 -1.362 0.835 5.706 0.278 0.013 6.923 0.415 0.037 7.067 2.866 -4.182 7.513 -0.534 3.148 0.0 -1.568 1.634 0.0 -1.563 1.495 0.0 -1.476 1.088 0.0 -1.424 0.959 0.0 -1.007 2.861 0.0 -1.516 1.221 0.0 2.866 -4.182 0.0 0.278 0.013 0.0 0.415 0.037 0.0 -1.544 1.911 0.0 -1.362 0.835 0.0 -0.899 2.948 0.0 -0.954 3.988 0.0 -1.562 1.773 0.0 -1.545 1.357 0.0</float_array>
                    <technique_common>
                        <accessor count="88" source="#geometry0-position-array" stride="3">
                            <param name="X" type="float"/>
                            <param name="Y" type="float"/>
                            <param name="Z" type="float"/>
                        </accessor>
                    </technique_common>
                </source>
                <source id="geometry0-normal">
                    <float_array id="geometry0-normal-array" count="804">0.2594564 -0.9657548 0.0 0.2594564 -0.9657548 0.0 0.2594564 -0.9657548 0.0 0.2594564 -0.9657548 0.0 -0.8471907 0.5312889 0.0 -0.8471907 0.5312889 0.0 -0.8471907 0.5312889 0.0 -0.8471907 0.5312889 0.0 -0.4034627 0.9149961 0.0 -0.4034627 0.9149961 0.0 -0.4034627 0.9149961 0.0 -0.4034627 0.9149961 0.0 -0.9556235 0.294591 0.0 -0.9556235 0.294591 0.0 -0.9556235 0.294591 0.0 -0.9556234 0.294591 0.0 0.086011 -0.9962943 0.0 0.086011 -0.9962943 0.0 0.086011 -0.9962943 0.0 0.086011 -0.9962943 0.0 -0.9780125 -0.2085462 0.0 -0.9780125 -0.2085462 0.0 -0.9780125 -0.2085462 0.0 -0.9780125 -0.2085462 0.0 -0.4813669 -0.8765192 0.0 -0.4813669 -0.8765192 0.0 -0.4813669 -0.8765192 0.0 -0.4813669 -0.8765192 0.0 -0.9761871 0.2169303 0.0 -0.9761871 0.2169303 0.0 -0.9761871 0.2169303 0.0 -0.9761871 0.2169303 0.0 -0.6889381 -0.7248201 0.0 -0.6889382 -0.7248201 0.0 -0.6889381 -0.7248201 0.0 -0.6889381 -0.7248201 0.0 -0.8523954 -0.5228978 0.0 -0.8523954 -0.5228978 0.0 -0.8523954 -0.5228978 0.0 -0.8523954 -0.5228978 0.0 -0.0794581 -0.9968382 0.0 -0.0794581 -0.9968382 0.0 -0.0794581 -0.9968382 0.0 -0.0794581 -0.9968383 0.0 -0.9993536 -0.035948 0.0 -0.9993536 -0.035948 0.0 -0.9993536 -0.035948 0.0 -0.9993536 -0.035948 0.0 -0.7454293 0.6665848 0.0 -0.7454293 0.6665848 0.0 -0.7454293 0.6665848 0.0 -0.7454293 0.6665848 0.0 -0.927482 -0.373868 0.0 -0.9274819 -0.373868 0.0 -0.927482 -0.373868 0.0 -0.927482 -0.373868 0.0 -0.8915327 0.4529564 0.0 -0.8915326 0.4529565 0.0 -0.8915327 0.4529564 0.0 -0.8915327 0.4529564 0.0 -0.7521328 -0.6590115 0.0 -0.7521328 -0.6590115 0.0 -0.7521328 -0.6590115 0.0 -0.7521328 -0.6590115 0.0 -0.9916004 -0.1293392 0.0 -0.9916004 -0.1293392 0.0 -0.9916004 -0.1293392 0.0 -0.9916004 -0.1293392 0.0 -0.9990697 0.0431247 0.0 -0.9990697 0.0431247 0.0 -0.9990697 0.0431247 0.0 -0.9990697 0.0431247 0.0 -0.6273291 0.7787542 0.0 -0.6273291 0.7787542 0.0 -0.6273291 0.7787542 0.0 -0.6273291 0.7787542 0.0 -0.4094685 -0.9123242 0.0 -0.4094685 -0.9123242 0.0 -0.4094685 -0.9123242 0.0 -0.4094685 -0.9123242 0.0 -0.6889376 0.7248206 0.0 -0.6889376 0.7248206 0.0 -0.6889376 0.7248206 0.0 -0.6889376 0.7248206 0.0 -0.6828663 -0.2616731 0.6820709 -0.6622294 -0.3128881 0.6808474 -0.6650173 -0.3064101 0.6810763 -0.6515327 -0.3385333 0.6788963 -0.6440015 -0.3543877 0.6779907 -0.6934481 -0.2326621 0.6819077 -0.6615685 -0.3145925 0.6807046 -0.6612757 -0.3153708 0.6806289 -0.6622177 -0.3129651 0.6808234 -0.6628621 -0.3115195 0.6808594 -0.6621935 -0.3130604 0.6808033 -0.6630779 -0.3109022 0.6809314 -0.6627085 -0.3117809 0.6808891 -0.6620822 -0.3135945 0.6806657 -0.661179 -0.3159738 0.6804432 -0.6631797 -0.3102446 0.6811322 -0.6621802 -0.3133615 0.6806776 -0.6618895 -0.3140484 0.6806437 -0.6623527 -0.3127538 0.6807893 -0.6614691 -0.3155718 0.6803478 -0.6624824 -0.3120385 0.6809912 -0.6625388 -0.3119482 0.6809777 -0.6622141 -0.3130978 0.680766 -0.6625593 -0.3117339 0.681056 -0.6624065 -0.3124182 0.680891 -0.6622629 -0.3130357 0.6807471 -0.6621842 -0.3134492 0.6806334 -0.6625369 -0.3114712 0.6811979 -0.6624012 -0.3125151 0.6808517 -0.6620384 -0.3145115 0.6802852 -0.6622553 -0.3131325 0.6807099 -0.6623208 -0.3125581 0.6809101 -0.6624153 -0.3117956 0.6811677 -0.6623132 -0.3129138 0.6807542 -0.6623061 -0.3127877 0.680819 -0.6624054 -0.3113743 0.68137 -0.6622937 -0.3141914 0.6801845 -0.6622342 -0.314517 0.6800919 -0.6623086 -0.3110923 0.681593 -0.662339 -0.3135257 0.6804475 -0.6623128 -0.314551 0.6799995 -0.6622649 -0.3124864 0.6809974 -0.9274818 0.3738684 0.0 -0.9274818 0.3738684 0.0 -0.9274818 0.3738684 0.0 -0.9274818 0.3738684 0.0 0.0071941 -0.9999741 0.0 0.0071941 -0.9999741 0.0 0.0071941 -0.9999741 0.0 0.0071941 -0.9999741 0.0 0.0 0.0 -1.0 0.0 0.0 -1.0 0.0 0.0 -1.0 0.0 0.0 -1.0 0.0 0.0 -1.0 0.0 0.0 -1.0 0.0 0.0 -1.0 0.0 0.0 -1.0 0.0 0.0 -1.0 0.0 0.0 -1.0 0.0 0.0 -1.0 0.0 0.0 -1.0 0.0 0.0 -1.0 0.0 0.0 -1.0 0.0 0.0 -1.0 0.0 0.0 -1.0 0.0 0.0 -1.0 0.0 0.0 -1.0 0.0 0.0 -1.0 0.0 0.0 -1.0 0.0 0.0 -1.0 0.0 0.0 -1.0 0.0 0.0 -1.0 0.0 0.0 -1.0 0.0 0.0 -1.0 0.0 0.0 -1.0 0.0 0.0 -1.0 0.0 0.0 -1.0 0.0 0.0 -1.0 0.0 0.0 -1.0 0.0 0.0 -1.0 0.0 0.0 -1.0 0.0 0.0 -1.0 0.0 0.0 -1.0 0.0 0.0 -1.0 0.0 0.0 -1.0 0.0 0.0 -1.0 0.0 0.0 -1.0 0.0 0.0 -1.0 0.0 0.0 -1.0 0.0 0.0 -1.0 0.0 0.0 -1.0 0.0 0.0 -1.0 0.4181437 -0.9083809 0.0 0.4181437 -0.9083809 0.0 0.4181437 -0.9083809 0.0 0.4181437 -0.9083809 0.0 -0.3313127 -0.943521 0.0 -0.3313127 -0.943521 0.0 -0.3313127 -0.943521 0.0 -0.3313127 -0.9435211 0.0 -0.164399 -0.986394 0.0 -0.164399 -0.986394 0.0 -0.164399 -0.986394 0.0 -0.164399 -0.986394 0.0 -0.4287109 0.9034417 0.0 -0.4287109 0.9034417 0.0 -0.4287109 0.9034417 0.0 -0.4287109 0.9034417 0.0 -0.8008648 -0.5988452 0.0 -0.8008648 -0.5988452 0.0 -0.8008648 -0.5988452 0.0 -0.8008648 -0.5988453 0.0 0.9058713 0.423553 0.0 0.9058713 0.423553 0.0 0.9058713 0.423553 0.0 0.9058713 0.423553 0.0 -0.4813666 0.8765193 0.0 -0.4813666 0.8765193 0.0 -0.4813666 0.8765193 0.0 -0.4813667 0.8765194 0.0 -0.9576277 -0.2880091 0.0 -0.9576277 -0.2880091 0.0 -0.9576277 -0.2880091 0.0 -0.9576277 -0.2880091 0.0 -0.6273295 -0.7787541 0.0 -0.6273295 -0.7787541 0.0 -0.6273295 -0.7787541 0.0 -0.6273295 -0.7787541 0.0 -0.9041597 -0.4271947 0.0 -0.9041597 -0.4271947 0.0 -0.9041597 -0.4271947 0.0 -0.9041597 -0.4271947 0.0 -0.8944272 -0.4472136 0.0 -0.8944272 -0.4472137 0.0 -0.8944272 -0.4472136 0.0 -0.8944272 -0.4472137 0.0 -0.8008649 0.5988451 0.0 -0.8008649 0.5988451 0.0 -0.8008649 0.5988451 0.0 -0.8008649 0.5988451 0.0 0.428711 -0.9034417 0.0 0.428711 -0.9034417 0.0 0.428711 -0.9034417 0.0 0.428711 -0.9034417 0.0 0.3377016 -0.9412533 0.0 0.3377016 -0.9412533 0.0 0.3377016 -0.9412533 0.0 0.3377016 -0.9412532 0.0 0.6945544 0.3217559 0.6434806 0.6945544 0.3217559 0.6434806 0.6945544 0.3217559 0.6434806 -0.2527158 -0.9675406 0.0 -0.2527158 -0.9675406 0.0 -0.2527158 -0.9675406 0.0 -0.2527158 -0.9675406 0.0 0.2672023 -0.5631937 0.7819308 0.2672574 -0.5632035 0.7819049 0.2672023 -0.5631937 0.7819308 0.2671471 -0.5631838 0.7819568 -0.8944271 -0.4472137 0.0 -0.8944271 -0.4472137 0.0 -0.8944271 -0.4472137 0.0 -0.8944271 -0.4472138 0.0 -0.2658185 0.560277 0.7844936 -0.2658726 0.5602853 0.7844692 -0.2658185 0.560277 0.7844936 -0.2657644 0.5602688 0.7845179 0.1725547 -0.985 0.0 0.1725547 -0.985 0.0 0.1725547 -0.985 0.0 0.1725547 -0.985 0.0 -0.9916004 0.1293392 0.0 -0.9916004 0.1293392 0.0 -0.9916004 0.1293392 0.0 -0.9916005 0.1293392 0.0 -0.5613257 -0.827595 0.0 -0.5613257 -0.8275951 0.0 -0.5613257 -0.827595 0.0 -0.5613257 -0.827595 0.0 -0.5530423 0.8331531 0.0 -0.5530423 0.8331531 0.0 -0.5530423 0.8331531 0.0 -0.5530423 0.8331531 0.0</float_array>
                    <technique_common>
                        <accessor count="268" source="#geometry0-normal-array" stride="3">
                            <param name="X" type="float"/>
                            <param name="Y" type="float"/>
                            <param name="Z" type="float"/>
                        </accessor>
                    </technique_common>
                </source>
                <vertices id="geometry0-vertex">
                    <input semantic="POSITION" source="#geometry0-position"/>
                </vertices>
                <triangles count="127" material="default_ai_0.2_sh_0.2_tr_0.0_dc_r_0.8_g_0.8_b_0.8_sc_r_1.0_g_1.0_b_1.0_ec_r_0.0_g_0.0_b_0_tri">
                    <input offset="0" semantic="VERTEX" source="#geometry0-vertex"/>
                    <input offset="1" semantic="NORMAL" source="#geometry0-normal"/>
                    <p>24 0 70 1 81 2 24 0 81 2 25 3 39 4 40 5 41 6 39 4 41 6 42 7 13 8 57 9 72 10 13 8 72 10 14 11 35 12 36 13 37 14 35 12 37 14 38 15 69 16 0 17 3 18 69 16 3 18 80 19 65 20 64 21 87 22 65 20 87 22 78 23 43 24 33 25 34 26 43 24 34 26 44 27 60 28 35 29 38 30 60 28 38 30 82 31 21 32 53 33 54 34 21 32 54 34 22 35 9 36 68 37 83 38 9 36 83 38 10 39 1 40 45 41 46 42 1 40 46 42 2 43 63 44 62 45 73 46 63 44 73 46 74 47 49 48 50 49 51 50 49 48 51 50 52 51 67 52 66 53 75 54 67 52 75 54 76 55 47 56 39 57 42 58 47 56 42 58 48 59 53 60 8 61 11 62 53 60 11 62 54 63 64 64 63 65 74 66 64 64 74 66 87 67 62 68 61 69 86 70 62 68 86 70 73 71 59 72 58 73 84 74 59 72 84 74 77 75 55 76 43 77 44 78 55 76 44 78 56 79 50 80 59 81 77 82 50 80 77 82 51 83 36 126 47 127 48 128 36 126 48 128 37 129 0 130 1 131 2 132 0 130 2 132 3 133 85 134 19 135 18 136 72 137 85 134 18 136 72 137 18 136 79 138 72 137 79 138 7 139 72 137 7 139 6 140 72 137 6 140 25 141 72 137 25 141 81 142 72 137 81 142 80 143 72 137 80 143 3 144 72 137 3 144 2 145 72 137 2 145 46 146 72 137 46 146 29 147 72 137 29 147 28 148 72 137 28 148 56 149 72 137 56 149 44 150 72 137 44 150 34 151 72 137 34 151 23 152 72 137 23 152 22 153 72 137 22 153 54 154 72 137 54 154 11 155 72 137 11 155 10 156 72 137 10 156 83 157 72 137 83 157 76 158 72 137 76 158 75 159 72 137 75 159 78 160 72 137 78 160 87 161 72 137 87 161 74 162 72 137 74 162 73 163 72 137 73 163 86 164 72 137 86 164 82 165 72 137 82 165 38 166 72 137 38 166 37 167 72 137 37 167 48 168 72 137 48 168 42 169 72 137 42 169 41 170 72 137 41 170 52 171 72 137 52 171 51 172 72 137 51 172 77 173 72 137 77 173 84 174 72 137 84 174 15 175 72 137 15 175 14 176 4 177 5 178 6 179 4 177 6 179 7 180 27 181 55 182 56 183 27 181 56 183 28 184 45 185 26 186 29 187 45 185 29 187 46 188 31 189 16 190 19 191 31 189 19 191 85 192 8 193 9 194 10 195 8 193 10 195 11 196 16 197 17 198 18 199 16 197 18 199 19 200 12 201 13 202 14 203 12 201 14 203 15 204 66 205 65 206 78 207 66 205 78 207 75 208 20 209 21 210 22 211 20 209 22 211 23 212 71 213 4 214 7 215 71 213 7 215 79 216 57 217 31 218 85 219 57 217 85 219 72 220 40 221 49 222 52 223 40 221 52 223 41 224 17 225 71 226 79 227 17 225 79 227 18 228 5 229 24 230 25 231 5 229 25 231 6 232 26 236 27 237 28 238 26 236 28 238 29 239 68 244 67 245 76 246 68 244 76 246 83 247 70 252 69 253 80 254 70 252 80 254 81 255 61 256 60 257 82 258 61 256 82 258 86 259 33 260 20 261 23 262 33 260 23 262 34 263 58 264 12 265 15 266 58 264 15 266 84 267</p>
                </triangles>
                <triangles count="45" material="default_ai_0.2_sh_0.2_tr_0.0_dc_r_1.0_g_0.2_b_0.2_sc_r_1.0_g_1.0_b_1.0_ec_r_0.0_g_0.0_b_0_tri">
                    <input offset="0" semantic="VERTEX" source="#geometry0-vertex"/>
                    <input offset="1" semantic="NORMAL" source="#geometry0-normal"/>
                    <p>4 84 71 85 32 86 24 87 5 88 4 84 70 89 24 87 4 84 70 89 4 84 32 86 69 90 70 89 32 86 0 91 69 90 32 86 1 92 0 91 32 86 45 93 1 92 32 86 26 94 45 93 32 86 27 95 26 94 32 86 55 96 27 95 32 86 43 97 55 96 32 86 33 98 43 97 32 86 20 99 33 98 32 86 21 100 20 99 32 86 53 101 21 100 32 86 8 102 53 101 32 86 9 103 8 102 32 86 68 104 9 103 32 86 67 105 68 104 32 86 66 106 67 105 32 86 65 107 66 106 32 86 64 108 65 107 32 86 63 109 64 108 32 86 62 110 63 109 32 86 61 111 62 110 32 86 60 112 61 111 32 86 35 113 60 112 32 86 36 114 35 113 32 86 47 115 36 114 32 86 39 116 47 115 32 86 40 117 39 116 32 86 49 118 40 117 32 86 50 119 49 118 32 86 59 120 50 119 32 86 58 121 59 120 32 86 12 122 58 121 32 86 13 123 12 122 32 86 57 124 13 123 32 86 57 124 32 86 31 125 17 233 16 234 30 235 71 240 17 241 30 242 71 240 30 242 32 243 16 248 31 249 32 250 16 248 32 250 30 251</p>
                </triangles>
            </mesh>
        </geometry>
    </library_geometries>
    <library_visual_scenes>
        <visual_scene id="Building_DEBW_5221000QoOi">
            <node>
                <instance_geometry url="#geometry0">
                    <bind_material>
                        <technique_common>
                            <instance_material symbol="default_ai_0.2_sh_0.2_tr_0.0_dc_r_0.8_g_0.8_b_0.8_sc_r_1.0_g_1.0_b_1.0_ec_r_0.0_g_0.0_b_0_tri" target="#default_ai_0.2_sh_0.2_tr_0.0_dc_r_0.8_g_0.8_b_0.8_sc_r_1.0_g_1.0_b_1.0_ec_r_0.0_g_0.0_b_0_mat"/>
                            <instance_material symbol="default_ai_0.2_sh_0.2_tr_0.0_dc_r_1.0_g_0.2_b_0.2_sc_r_1.0_g_1.0_b_1.0_ec_r_0.0_g_0.0_b_0_tri" target="#default_ai_0.2_sh_0.2_tr_0.0_dc_r_1.0_g_0.2_b_0.2_sc_r_1.0_g_1.0_b_1.0_ec_r_0.0_g_0.0_b_0_mat"/>
                        </technique_common>
                    </bind_material>
                </instance_geometry>
            </node>
        </visual_scene>
    </library_visual_scenes>
    <scene>
        <instance_visual_scene url="#Building_DEBW_5221000QoOi"/>
    </scene>
</COLLADA>
