<?xml version="1.0" encoding="UTF-8" standalone="yes"?>
<COLLADA xmlns="http://www.collada.org/2005/11/COLLADASchema" version="1.4.1">
    <asset>
        <contributor>
            <authoring_tool>3D City Database Importer/Exporter, version 5.5.3; Chair of Geoinformatics, Technical University of Munich</authoring_tool>
        </contributor>
        <created>2026-05-06T15:12:05.361</created>
        <modified>2026-05-06T15:12:05.361</modified>
        <unit meter="1.0" name="meters"/>
        <up_axis>Z_UP</up_axis>
    </asset>
    <library_materials>
        <material id="default_ai_0.2_sh_0.2_tr_0.0_dc_r_0.8_g_0.8_b_0.8_sc_r_1.0_g_1.0_b_1.0_ec_r_0.0_g_0.0_b_0_mat">
            <instance_effect url="#default_ai_0.2_sh_0.2_tr_0.0_dc_r_0.8_g_0.8_b_0.8_sc_r_1.0_g_1.0_b_1.0_ec_r_0.0_g_0.0_b_0_eff"/>
        </material>
        <material id="default_ai_0.2_sh_0.2_tr_0.0_dc_r_1.0_g_0.2_b_0.2_sc_r_1.0_g_1.0_b_1.0_ec_r_0.0_g_0.0_b_0_mat">
            <instance_effect url="#default_ai_0.2_sh_0.2_tr_0.0_dc_r_1.0_g_0.2_b_0.2_sc_r_1.0_g_1.0_b_1.0_ec_r_0.0_g_0.0_b_0_eff"/>
        </material>
    </library_materials>
    <library_effects>
        <effect id="default_ai_0.2_sh_0.2_tr_0.0_dc_r_0.8_g_0.8_b_0.8_sc_r_1.0_g_1.0_b_1.0_ec_r_0.0_g_0.0_b_0_eff">
            <profile_COMMON>
                <technique sid="COMMON">
                    <lambert>
                        <emission>
                            <color>0.0 0.0 0.0 1.0</color>
                        </emission>
                        <diffuse>
                            <color>0.8 0.8 0.8 1.0</color>
                        </diffuse>
                        <reflective>
                            <color>1.0 1.0 1.0 1.0</color>
                        </reflective>
                        <reflectivity>
                            <float>0.2</float>
                        </reflectivity>
                        <transparent opaque="A_ONE">
                            <color>1.0 1.0 1.0 1.0</color>
                        </transparent>
                        <transparency>
                            <float>1.0</float>
                        </transparency>
                    </lambert>
                </technique>
                <extra>
                    <technique profile="GOOGLEEARTH">
                        <double_sided>0</double_sided>
                    </technique>
                </extra>
            </profile_COMMON>
        </effect>
        <effect id="default_ai_0.2_sh_0.2_tr_0.0_dc_r_1.0_g_0.2_b_0.2_sc_r_1.0_g_1.0_b_1.0_ec_r_0.0_g_0.0_b_0_eff">
            <profile_COMMON>
                <technique sid="COMMON">
                    <lambert>
                        <emission>
                            <color>0.0 0.0 0.0 1.0</color>
                        </emission>
                        <diffuse>
                            <color>1.0 0.2 0.2 1.0</color>
                        </diffuse>
                        <reflective>
                            <color>1.0 1.0 1.0 1.0</color>
                        </reflective>
                        <reflectivity>
                            <float>0.2</float>
                        </reflectivity>
                        <transparent opaque="A_ONE">
                            <color>1.0 1.0 1.0 1.0</color>
                        </transparent>
                        <transparency>
                            <float>1.0</float>
                        </transparency>
                    </lambert>
                </technique>
                <extra>
                    <technique profile="GOOGLEEARTH">
                        <double_sided>0</double_sided>
                    </technique>
                </extra>
            </profile_COMMON>
        </effect>
    </library_effects>
    <library_geometries>
        <geometry id="geometry0">
            <mesh>
                <source id="geometry0-position">
                    <float_array id="geometry0-position-array" count="132">0.0 0.0 0.0 4.04 -0.29 0.0 3.549 -6.915 0.0 -0.47 -6.64 0.0 0.0 0.0 7.688 4.04 -0.29 8.698 4.04 -0.29 8.691 -0.47 -6.64 7.688 3.549 -6.915 8.692 3.549 -6.915 8.675 4.12 0.79 0.0 5.04 1.59 0.0 6.12 1.52 0.0 5.561 -7.053 0.0 4.12 0.79 8.694 5.04 1.59 8.923 6.12 1.52 9.21 5.561 -7.053 9.21 5.561 -7.053 8.171 5.918 -1.578 9.21 16.58 -1.52 8.521 13.09 -1.3 9.401 13.09 -1.3 0.0 16.58 -1.52 0.0 13.087 -1.3 9.401 17.02 5.23 8.524 13.54 5.47 9.401 13.384 3.134 9.401 13.103 -1.068 9.401 17.02 5.23 0.0 13.54 5.47 0.0 13.087 -1.3 9.357 13.087 -1.3 0.0 13.384 3.134 0.0 6.257 3.628 10.199 6.12 1.52 9.798 12.67 -7.54 8.172 13.09 -1.3 9.357 13.384 3.134 10.199 12.67 -7.54 0.0 6.41 5.97 9.784 6.41 5.97 0.0 6.257 3.628 0.0 13.54 5.47 9.785</float_array>
                    <technique_common>
                        <accessor count="44" source="#geometry0-position-array" stride="3">
                            <param name="X" type="float"/>
                            <param name="Y" type="float"/>
                            <param name="Z" type="float"/>
                        </accessor>
                    </technique_common>
                </source>
                <source id="geometry0-normal">
                    <float_array id="geometry0-normal-array" count="558">-0.9978729 0.0651898 0.0 -0.9978729 0.0651898 0.0 -0.9978729 0.0651898 0.0 -0.9978729 0.0651898 0.0 -0.2412905 0.0170416 0.9703033 -0.2412352 0.017 0.9703178 -0.2412905 0.0170416 0.9703033 -0.2413459 0.0170832 0.9702888 -0.0629124 -0.998019 0.0 -0.0629124 -0.998019 0.0 -0.0629124 -0.998019 0.0 -0.0629124 -0.998019 0.0 0.0120421 0.17371 0.9847232 0.0120439 0.1737144 0.9847224 0.0120421 0.17371 0.9847232 0.0120402 0.1737055 0.984724 -0.0683445 -0.9976618 0.0 -0.0683445 -0.9976618 0.0 -0.0683445 -0.9976618 0.0 -0.0683445 -0.9976618 0.0 0.0 0.0 -1.0 0.0 0.0 -1.0 0.0 0.0 -1.0 0.0 0.0 -1.0 0.0 0.0 -1.0 0.0 0.0 -1.0 0.0646791 0.9979061 0.0 0.0646791 0.9979061 0.0 0.0646791 0.9979061 0.0 0.0646791 0.9979061 0.0 0.9977776 -0.0666325 0.0 0.9977776 -0.0666325 0.0 0.9977776 -0.0666325 0.0 0.9977776 -0.0666325 0.0 0.9977599 -0.0667959 -0.0036679 0.9977111 -0.0667199 -0.0110037 0.9977527 -0.0667773 -0.0055019 0.9977642 -0.0668326 0.0 0.9977642 -0.0668326 0.0 0.9972649 -0.0739105 0.0 0.9972649 -0.0739105 0.0 0.9972649 -0.0739105 0.0 0.9972649 -0.0739105 0.0 -0.0684277 -0.9976561 0.0 -0.0684277 -0.997656 0.0 -0.0684277 -0.9976561 0.0 -0.0684277 -0.9976561 0.0 -0.0684277 -0.997656 0.0 0.1961412 0.0135794 0.9804817 0.2432849 -0.0162468 0.9698188 0.2432912 -0.0162584 0.969817 0.2437291 -0.0165542 0.9697021 0.1233601 0.0587442 0.9906217 0.1230173 0.0590108 0.9906485 0.2434975 -0.0163035 0.9697645 0.0 0.0 -1.0 0.0 0.0 -1.0 0.0 0.0 -1.0 0.0 0.0 -1.0 0.0 0.0 -1.0 0.0 0.0 -1.0 0.0 0.0 -1.0 0.0 0.0 -1.0 0.0 0.0 -1.0 0.0 0.0 -1.0 0.0 0.0 -1.0 0.0 0.0 -1.0 0.0 0.0 -1.0 -0.6561787 0.7546055 0.0 -0.6561787 0.7546055 0.0 -0.6561787 0.7546055 0.0 -0.6561787 0.7546055 0.0 -0.2555566 0.0165854 0.9666518 -0.255874 0.0166293 0.9665672 -0.2557852 0.0166511 0.9665903 -0.2556965 0.0166725 0.9666133 -0.2557361 0.0167207 0.9666021 -0.2552579 0.0164764 0.9667326 -0.2547404 0.0161836 0.9668741 0.0699544 0.9975502 0.0 0.0699544 0.9975502 0.0 0.0699544 0.9975502 0.0 0.0699544 0.9975502 0.0 0.0699544 0.9975502 0.0 0.9978822 -0.0650472 0.0 0.9978822 -0.0650472 0.0 0.9978822 -0.0650472 0.0 0.9978822 -0.0650472 0.0 0.0715979 0.9974335 0.0 0.071598 0.9974336 0.0 0.071598 0.9974335 0.0 0.071598 0.9974335 0.0 0.071598 0.9974335 0.0 0.0 0.0 -1.0 0.0 0.0 -1.0 0.0 0.0 -1.0 0.0 0.0 -1.0 0.0 0.0 -1.0 0.0 0.0 -1.0 0.9977715 -0.0667239 0.0 0.9977715 -0.0667239 0.0 0.9977715 -0.0667239 0.0 0.9978809 -0.0650674 0.0 0.9978809 -0.0650674 0.0 0.9978809 -0.0650674 0.0 -0.9976304 0.0688012 0.0 -0.9976304 0.0688012 0.0 -0.9976304 0.0688012 0.0 -0.9975043 0.0706065 0.0 -0.9975043 0.0706065 0.0 -0.9975043 0.0706065 0.0 -0.9975043 0.0706065 0.0 0.9977776 -0.0666325 0.0 0.9977776 -0.0666325 0.0 0.9977776 -0.0666325 0.0 0.9977776 -0.0666325 0.0 0.9978809 -0.0650663 -2.0E-7 0.9978809 -0.0650674 0.0 0.9978809 -0.065067 -2.0E-7 0.9978811 -0.0650658 -2.0E-7 0.997881 -0.0650651 0.0 0.068802 0.9976304 0.0 0.068802 0.9976304 0.0 0.068802 0.9976304 0.0 0.068802 0.9976304 0.0 -0.0129871 -0.1856936 0.9825219 -0.0128736 -0.1857285 0.9825168 -0.0129837 -0.1858839 0.982486 -0.0130178 -0.18584 0.9824938 -0.0129428 -0.1856273 0.982535 -0.0129625 -0.1855946 0.9825408 -0.0086481 -0.1859163 0.9825274 -0.0064308 -0.1861504 0.9825002 0.0 -0.1865686 0.982442 -0.9972649 0.0739105 0.0 -0.9972649 0.0739105 0.0 -0.9972649 0.0739105 0.0 -0.9972649 0.0739105 0.0 -0.9977224 0.0674526 1.63E-5 -0.9977715 0.0667239 0.0 -0.9977678 0.0667783 2.44E-5 -0.9976978 0.067817 2.44E-5 -0.9976304 0.0688012 0.0 -0.9977776 0.0666325 0.0 -0.9977776 0.0666325 0.0 -0.9977776 0.0666325 0.0 -0.9977776 0.0666325 0.0 -0.997881 0.0650651 0.0 -0.997881 0.0650651 0.0 -0.997881 0.0650651 0.0 0.0 -1.0 0.0 0.0 -1.0 0.0 0.0 -1.0 0.0 0.0 -1.0 0.0 0.0 -1.0 0.0 -0.9978948 0.0648537 0.0 -0.9978948 0.0648537 0.0 -0.9978948 0.0648537 0.0 -0.9978948 0.0648537 0.0 -0.9978948 0.0648537 0.0 0.9977425 -0.0671558 0.0 0.9977425 -0.0671558 0.0 0.9977425 -0.0671558 0.0 0.9977425 -0.0671558 0.0 -0.0682654 -0.9976672 0.0 -0.0682654 -0.9976672 0.0 -0.0682654 -0.9976672 0.0 -0.0682654 -0.9976672 0.0 -0.0682654 -0.9976672 0.0 0.9972649 -0.0739105 0.0 0.9972649 -0.0739105 0.0 0.9972649 -0.0739105 0.0 0.9972649 -0.0739105 0.0 -0.9978809 0.0650663 2.0E-7 -0.997881 0.0650651 0.0 -0.9978811 0.0650658 2.0E-7 -0.9978809 0.065067 2.0E-7 -0.9978809 0.0650674 0.0 -0.9972677 0.0738716 0.0 -0.9972678 0.0738716 0.0 -0.9972677 0.0738716 0.0 -0.9972677 0.0738716 0.0 0.0 1.0 0.0 0.0 1.0 0.0 0.0 1.0 0.0 0.0 1.0 0.0</float_array>
                    <technique_common>
                        <accessor count="186" source="#geometry0-normal-array" stride="3">
                            <param name="X" type="float"/>
                            <param name="Y" type="float"/>
                            <param name="Z" type="float"/>
                        </accessor>
                    </technique_common>
                </source>
                <vertices id="geometry0-vertex">
                    <input semantic="POSITION" source="#geometry0-position"/>
                </vertices>
                <triangles count="85" material="default_ai_0.2_sh_0.2_tr_0.0_dc_r_0.8_g_0.8_b_0.8_sc_r_1.0_g_1.0_b_1.0_ec_r_0.0_g_0.0_b_0_tri">
                    <input offset="0" semantic="VERTEX" source="#geometry0-vertex"/>
                    <input offset="1" semantic="NORMAL" source="#geometry0-normal"/>
                    <p>34 0 40 1 41 2 34 0 41 2 42 3 20 8 21 9 22 10 20 8 22 10 23 11 36 16 18 17 13 18 36 16 13 18 39 19 12 20 13 21 2 22 12 20 2 22 1 23 12 20 1 23 10 24 12 20 10 24 11 25 15 26 16 27 12 28 15 26 12 28 11 29 30 30 26 31 27 32 30 30 27 32 33 33 27 34 28 35 31 36 27 34 31 36 32 37 27 34 32 37 33 38 8 39 9 40 6 41 8 39 6 41 5 42 2 43 13 44 18 45 2 43 18 45 17 46 2 43 17 46 9 47 0 55 1 56 2 57 0 55 2 57 3 58 41 59 30 60 33 61 41 59 33 61 32 62 42 63 41 59 32 62 12 64 42 63 32 62 13 65 12 64 32 62 13 65 32 62 22 66 13 65 22 66 39 67 14 68 15 69 11 70 14 68 11 70 10 71 30 79 41 80 40 81 26 82 30 79 40 81 26 82 40 81 43 83 25 84 20 85 23 86 25 84 23 86 29 87 1 88 0 89 4 90 6 91 1 88 4 90 6 91 4 90 5 92 22 93 32 94 33 95 22 93 33 95 30 96 22 93 30 96 29 97 22 93 29 97 23 98 28 99 27 100 38 101 18 102 19 103 17 104 28 105 31 106 24 107 7 108 4 109 0 110 7 108 0 110 3 111 27 112 26 113 43 114 27 112 43 114 38 115 19 116 18 117 13 118 19 116 13 118 12 119 19 116 12 119 16 120 26 121 25 122 29 123 26 121 29 123 30 124 1 134 2 135 9 136 1 134 9 136 6 137 28 138 27 139 33 140 28 138 33 140 32 141 28 138 32 141 31 142 30 143 33 144 27 145 30 143 27 145 26 146 16 147 19 148 35 149 32 150 22 151 21 152 31 153 32 150 21 152 31 153 21 152 24 154 42 155 12 156 16 157 42 155 16 157 35 158 42 155 35 158 34 159 37 160 36 161 39 162 37 160 39 162 22 163 3 164 2 165 9 166 3 164 9 166 8 167 3 164 8 167 7 168 9 169 2 170 1 171 9 169 1 171 6 172 19 173 16 174 12 175 19 173 12 175 13 176 19 173 13 176 18 177 6 178 14 179 10 180 6 178 10 180 1 181 31 182 37 183 22 184 31 182 22 184 32 185</p>
                </triangles>
                <triangles count="21" material="default_ai_0.2_sh_0.2_tr_0.0_dc_r_1.0_g_0.2_b_0.2_sc_r_1.0_g_1.0_b_1.0_ec_r_0.0_g_0.0_b_0_tri">
                    <input offset="0" semantic="VERTEX" source="#geometry0-vertex"/>
                    <input offset="1" semantic="NORMAL" source="#geometry0-normal"/>
                    <p>7 4 8 5 5 6 7 4 5 6 4 7 38 12 43 13 40 14 38 12 40 14 34 15 25 48 26 49 27 50 25 48 27 50 28 51 25 48 28 51 24 52 25 48 24 52 21 53 25 48 21 53 20 54 6 72 9 73 17 74 6 72 17 74 19 75 6 72 19 75 16 76 6 72 16 76 15 77 6 72 15 77 14 78 28 125 38 126 34 127 28 125 34 127 35 128 28 125 35 128 19 129 28 125 19 129 18 130 31 131 28 125 18 130 31 131 18 130 36 132 31 131 36 132 37 133</p>
                </triangles>
            </mesh>
        </geometry>
    </library_geometries>
    <library_visual_scenes>
        <visual_scene id="Building_DEBW_5221000QhCR">
            <node>
                <instance_geometry url="#geometry0">
                    <bind_material>
                        <technique_common>
                            <instance_material symbol="default_ai_0.2_sh_0.2_tr_0.0_dc_r_0.8_g_0.8_b_0.8_sc_r_1.0_g_1.0_b_1.0_ec_r_0.0_g_0.0_b_0_tri" target="#default_ai_0.2_sh_0.2_tr_0.0_dc_r_0.8_g_0.8_b_0.8_sc_r_1.0_g_1.0_b_1.0_ec_r_0.0_g_0.0_b_0_mat"/>
                            <instance_material symbol="default_ai_0.2_sh_0.2_tr_0.0_dc_r_1.0_g_0.2_b_0.2_sc_r_1.0_g_1.0_b_1.0_ec_r_0.0_g_0.0_b_0_tri" target="#default_ai_0.2_sh_0.2_tr_0.0_dc_r_1.0_g_0.2_b_0.2_sc_r_1.0_g_1.0_b_1.0_ec_r_0.0_g_0.0_b_0_mat"/>
                        </technique_common>
                    </bind_material>
                </instance_geometry>
            </node>
        </visual_scene>
    </library_visual_scenes>
    <scene>
        <instance_visual_scene url="#Building_DEBW_5221000QhCR"/>
    </scene>
</COLLADA>
