<?xml version="1.0" encoding="UTF-8" standalone="yes"?>
<COLLADA xmlns="http://www.collada.org/2005/11/COLLADASchema" version="1.4.1">
    <asset>
        <contributor>
            <authoring_tool>3D City Database Importer/Exporter, version 5.5.3; Chair of Geoinformatics, Technical University of Munich</authoring_tool>
        </contributor>
        <created>2026-05-06T15:12:08.132</created>
        <modified>2026-05-06T15:12:08.132</modified>
        <unit meter="1.0" name="meters"/>
        <up_axis>Z_UP</up_axis>
    </asset>
    <library_materials>
        <material id="default_ai_0.2_sh_0.2_tr_0.0_dc_r_0.8_g_0.8_b_0.8_sc_r_1.0_g_1.0_b_1.0_ec_r_0.0_g_0.0_b_0_mat">
            <instance_effect url="#default_ai_0.2_sh_0.2_tr_0.0_dc_r_0.8_g_0.8_b_0.8_sc_r_1.0_g_1.0_b_1.0_ec_r_0.0_g_0.0_b_0_eff"/>
        </material>
        <material id="default_ai_0.2_sh_0.2_tr_0.0_dc_r_1.0_g_0.2_b_0.2_sc_r_1.0_g_1.0_b_1.0_ec_r_0.0_g_0.0_b_0_mat">
            <instance_effect url="#default_ai_0.2_sh_0.2_tr_0.0_dc_r_1.0_g_0.2_b_0.2_sc_r_1.0_g_1.0_b_1.0_ec_r_0.0_g_0.0_b_0_eff"/>
        </material>
    </library_materials>
    <library_effects>
        <effect id="default_ai_0.2_sh_0.2_tr_0.0_dc_r_0.8_g_0.8_b_0.8_sc_r_1.0_g_1.0_b_1.0_ec_r_0.0_g_0.0_b_0_eff">
            <profile_COMMON>
                <technique sid="COMMON">
                    <lambert>
                        <emission>
                            <color>0.0 0.0 0.0 1.0</color>
                        </emission>
                        <diffuse>
                            <color>0.8 0.8 0.8 1.0</color>
                        </diffuse>
                        <reflective>
                            <color>1.0 1.0 1.0 1.0</color>
                        </reflective>
                        <reflectivity>
                            <float>0.2</float>
                        </reflectivity>
                        <transparent opaque="A_ONE">
                            <color>1.0 1.0 1.0 1.0</color>
                        </transparent>
                        <transparency>
                            <float>1.0</float>
                        </transparency>
                    </lambert>
                </technique>
                <extra>
                    <technique profile="GOOGLEEARTH">
                        <double_sided>0</double_sided>
                    </technique>
                </extra>
            </profile_COMMON>
        </effect>
        <effect id="default_ai_0.2_sh_0.2_tr_0.0_dc_r_1.0_g_0.2_b_0.2_sc_r_1.0_g_1.0_b_1.0_ec_r_0.0_g_0.0_b_0_eff">
            <profile_COMMON>
                <technique sid="COMMON">
                    <lambert>
                        <emission>
                            <color>0.0 0.0 0.0 1.0</color>
                        </emission>
                        <diffuse>
                            <color>1.0 0.2 0.2 1.0</color>
                        </diffuse>
                        <reflective>
                            <color>1.0 1.0 1.0 1.0</color>
                        </reflective>
                        <reflectivity>
                            <float>0.2</float>
                        </reflectivity>
                        <transparent opaque="A_ONE">
                            <color>1.0 1.0 1.0 1.0</color>
                        </transparent>
                        <transparency>
                            <float>1.0</float>
                        </transparency>
                    </lambert>
                </technique>
                <extra>
                    <technique profile="GOOGLEEARTH">
                        <double_sided>0</double_sided>
                    </technique>
                </extra>
            </profile_COMMON>
        </effect>
    </library_effects>
    <library_geometries>
        <geometry id="geometry0">
            <mesh>
                <source id="geometry0-position">
                    <float_array id="geometry0-position-array" count="141">-0.004 -0.002 11.611 0.0 0.0 11.611 0.0 0.0 11.336 0.0 0.0 0.0 -0.004 -0.002 0.0 4.946 -12.392 11.611 5.976 -14.982 11.611 5.976 -14.982 0.0 4.946 -12.392 0.0 -10.907 3.159 11.611 -0.444 -23.032 11.611 7.396 -19.902 11.611 8.566 -19.432 11.611 6.676 -14.702 11.611 4.943 -12.393 11.611 -1.024 2.568 11.611 -2.589 6.491 11.611 -4.794 5.608 11.611 4.943 -12.393 0.0 4.943 -12.393 11.336 -1.024 2.568 0.0 -1.024 2.568 11.412 8.566 -19.432 0.0 6.676 -14.702 0.0 -4.794 5.608 0.0 -2.589 6.491 0.0 7.396 -19.902 0.0 -0.444 -23.032 0.0 -10.907 3.159 0.0 -10.907 3.159 8.621 -2.589 6.491 11.413 -4.794 5.608 8.624 -11.234 3.978 8.964 -5.124 6.418 8.964 -5.124 6.418 0.0 -11.234 3.978 0.0 -1.424 6.958 11.177 -1.424 6.958 0.0 -1.364 6.788 0.0 0.136 3.028 0.0 -1.364 6.788 11.178 0.136 3.028 11.177 5.646 -12.122 11.336 4.946 -12.392 11.336 5.646 -12.122 0.0 0.696 0.268 11.336 0.696 0.268 0.0</float_array>
                    <technique_common>
                        <accessor count="47" source="#geometry0-position-array" stride="3">
                            <param name="X" type="float"/>
                            <param name="Y" type="float"/>
                            <param name="Z" type="float"/>
                        </accessor>
                    </technique_common>
                </source>
                <source id="geometry0-normal">
                    <float_array id="geometry0-normal-array" count="540">0.0 0.0 -1.0 0.0 0.0 -1.0 0.0 0.0 -1.0 0.0 0.0 -1.0 0.3727585 -0.9279284 0.0 0.3727585 -0.9279284 0.0 0.3727585 -0.9279284 0.0 0.3727585 -0.9279284 0.0 -0.9288192 -0.3705333 0.0 -0.9288192 -0.3705333 0.0 -0.9288192 -0.3705333 0.0 -0.9288192 -0.3705333 0.0 0.3598726 -0.9330014 0.0 0.3598726 -0.9330014 0.0 0.3598726 -0.9330014 0.0 0.3598726 -0.9330014 0.0 -0.9286404 -0.370981 0.0 -0.9286404 -0.370981 0.0 -0.9286404 -0.370981 0.0 -0.9286404 -0.370981 0.0 -0.9286404 -0.370981 0.0 0.928817 0.3705387 0.0 0.928817 0.3705387 0.0 0.928817 0.3705387 0.0 0.9288171 0.3705387 0.0 0.0 0.0 1.0 0.0 0.0 1.0 0.0 0.0 1.0 0.0 0.0 1.0 0.0 0.0 1.0 0.0 0.0 1.0 0.0 0.0 1.0 0.0 0.0 1.0 0.0 0.0 1.0 0.0 0.0 1.0 0.0 0.0 1.0 0.0 0.0 1.0 0.0 0.0 1.0 0.9260924 0.3772966 0.0 0.9260924 0.3772966 0.0 0.9260924 0.3772966 0.0 0.9260924 0.3772966 0.0 0.3718881 -0.9282776 0.0 0.3718881 -0.9282776 0.0 0.3718881 -0.9282776 0.0 0.3718881 -0.9282776 0.0 -0.3717537 0.9283314 0.0 -0.3717537 0.9283314 0.0 -0.3717537 0.9283314 0.0 -0.3717537 0.9283314 0.0 -0.3717537 0.9283314 0.0 -0.3717537 0.9283314 0.0 0.1721047 0.0677727 0.9827445 0.1719793 0.068357 0.982726 0.1719673 0.0683474 0.9827288 0.1721674 0.0674805 0.9827538 0.1723793 0.0666232 0.982775 0.0 0.0 -1.0 0.0 0.0 -1.0 0.0 0.0 -1.0 0.0 0.0 -1.0 0.0 0.0 -1.0 0.3707778 -0.9287216 0.0 0.3707778 -0.9287216 0.0 0.3707778 -0.9287216 0.0 0.3707778 -0.9287216 0.0 0.0 0.0 -1.0 0.0 0.0 -1.0 0.0 0.0 -1.0 0.0 0.0 -1.0 0.0 0.0 -1.0 -0.9287109 -0.3708047 0.0 -0.9287109 -0.3708046 0.0 -0.9287109 -0.3708047 0.0 -0.9287109 -0.3708047 0.0 0.3160468 -0.9487436 0.0 0.3160468 -0.9487436 0.0 0.3160468 -0.9487436 0.0 0.3160468 -0.9487436 0.0 -0.9288432 -0.370473 0.0 -0.9288432 -0.370473 0.0 -0.9288432 -0.370473 0.0 -0.9288432 -0.370473 0.0 -0.4472135 0.8944272 0.0 -0.4472135 0.8944272 0.0 -0.4472135 0.8944272 0.0 -0.4472135 0.8944272 0.0 -0.4472135 0.8944272 0.0 0.929471 0.3688951 0.0 0.929471 0.3688951 0.0 0.929471 0.3688951 0.0 0.929471 0.3688951 0.0 0.9294711 0.3688951 0.0 0.9288432 0.370473 0.0 0.9288432 0.370473 0.0 0.9288432 0.370473 0.0 0.9288432 0.370473 0.0 -0.3718881 0.9282776 0.0 -0.3718881 0.9282776 0.0 -0.3718881 0.9282776 0.0 -0.371888 0.9282776 0.0 -0.3718881 0.9282776 0.0 -0.3718881 0.9282776 0.0 -0.3718881 0.9282776 0.0 -0.3718881 0.9282776 0.0 0.9288192 0.3705332 0.0 0.9288192 0.3705333 0.0 0.9288192 0.3705332 0.0 0.9288192 0.3705333 0.0 0.9288192 0.3705333 0.0 0.9288192 0.3705333 0.0 0.9288192 0.3705333 0.0 0.9288192 0.3705333 0.0 0.9286317 0.371003 0.0 0.9286317 0.371003 0.0 0.9286317 0.371003 0.0 0.9286317 0.371003 0.0 0.1343935 -0.3365691 0.9320191 0.1344127 -0.3366518 0.9319865 0.1343935 -0.3365691 0.9320191 0.1343744 -0.3364865 0.9320518 0.9429902 0.3328203 0.0 0.9429902 0.3328203 0.0 0.9429902 0.3328203 0.0 0.9429902 0.3328203 0.0 0.3686257 -0.9295779 0.0 0.3686257 -0.9295779 0.0 0.3686257 -0.9295779 0.0 0.3686257 -0.9295779 0.0 -0.3160468 0.9487436 0.0 -0.3160468 0.9487436 0.0 -0.3160468 0.9487436 0.0 -0.3160468 0.9487436 0.0 -0.3160468 0.9487436 0.0 -0.3708665 0.9286861 0.0 -0.3708665 0.9286861 0.0 -0.3708665 0.9286861 0.0 -0.3708665 0.9286861 0.0 -0.3713913 0.9284765 0.0 -0.3713913 0.9284765 0.0 -0.3713913 0.9284765 0.0 -0.3713913 0.9284765 0.0 -0.3720774 0.9282017 0.0 -0.3720774 0.9282017 0.0 -0.3720774 0.9282017 0.0 -0.3720774 0.9282017 0.0 0.0 0.0 1.0 0.0 0.0 1.0 0.0 0.0 1.0 0.0 0.0 1.0 0.0 0.0 1.0 0.9292172 0.3695341 0.0 0.9292172 0.3695341 0.0 0.9292172 0.3695341 0.0 0.9292172 0.3695341 0.0 -0.3593385 0.9332073 0.0 -0.3593385 0.9332073 0.0 -0.3593385 0.9332073 0.0 -0.3593385 0.9332073 0.0 0.0 0.0 -1.0 0.0 0.0 -1.0 0.0 0.0 -1.0 0.0 0.0 -1.0 0.0 0.0 -1.0 0.0 0.0 -1.0 0.0 0.0 -1.0 0.0 0.0 -1.0 0.0 0.0 -1.0 0.0 0.0 -1.0 0.0 0.0 -1.0 0.0 0.0 -1.0 0.0 0.0 -1.0 0.9288432 0.370473 0.0 0.9288432 0.370473 0.0 0.9288432 0.370473 0.0 0.9288432 0.370473 0.0 0.928612 0.3710521 0.0 0.928612 0.3710521 0.0 0.928612 0.3710521 0.0 0.928612 0.3710521 0.0</float_array>
                    <technique_common>
                        <accessor count="180" source="#geometry0-normal-array" stride="3">
                            <param name="X" type="float"/>
                            <param name="Y" type="float"/>
                            <param name="Z" type="float"/>
                        </accessor>
                    </technique_common>
                </source>
                <vertices id="geometry0-vertex">
                    <input semantic="POSITION" source="#geometry0-position"/>
                </vertices>
                <triangles count="85" material="default_ai_0.2_sh_0.2_tr_0.0_dc_r_0.8_g_0.8_b_0.8_sc_r_1.0_g_1.0_b_1.0_ec_r_0.0_g_0.0_b_0_tri">
                    <input offset="0" semantic="VERTEX" source="#geometry0-vertex"/>
                    <input offset="1" semantic="NORMAL" source="#geometry0-normal"/>
                    <p>34 0 24 1 28 2 34 0 28 2 35 3 12 4 11 5 26 6 12 4 26 6 22 7 25 8 20 9 21 10 25 8 21 10 30 11 42 12 43 13 8 14 42 12 8 14 44 15 28 16 27 17 10 18 29 19 28 16 10 18 29 19 10 18 9 20 40 21 41 22 39 23 40 21 39 23 38 24 33 38 31 39 24 40 33 38 24 40 34 41 29 42 28 43 24 44 29 42 24 44 31 45 25 46 24 47 31 48 25 46 31 48 17 49 30 50 25 46 17 49 30 50 17 49 16 51 8 57 18 58 3 59 8 57 3 59 46 60 8 57 46 60 44 61 11 62 10 63 27 64 11 62 27 64 26 65 38 66 39 67 20 68 38 66 20 68 25 69 38 66 25 69 37 70 29 71 32 72 35 73 29 71 35 73 28 74 43 75 19 76 18 77 43 75 18 77 8 78 3 79 18 80 19 81 3 79 19 81 2 82 3 83 4 84 0 85 2 86 3 83 0 85 2 86 0 85 1 87 4 88 20 89 21 90 4 88 21 90 15 91 4 88 15 91 0 92 19 93 18 94 3 95 19 93 3 95 2 96 31 97 29 98 9 99 31 97 9 99 17 100 31 101 24 102 28 103 31 101 28 103 29 104 21 105 30 106 16 107 21 105 16 107 15 108 21 109 20 110 25 111 21 109 25 111 30 112 45 113 42 114 44 115 45 113 44 115 46 116 36 121 40 122 38 123 36 121 38 123 37 124 41 125 21 126 20 127 41 125 20 127 39 128 8 129 18 130 19 131 8 129 19 131 14 132 8 129 14 132 5 133 32 134 33 135 34 136 32 134 34 136 35 137 6 138 13 139 23 140 6 138 23 140 7 141 30 142 36 143 37 144 30 142 37 144 25 145 5 151 6 152 7 153 5 151 7 153 8 154 2 155 45 156 46 157 2 155 46 157 3 158 27 159 28 160 24 161 27 159 24 161 25 162 27 159 25 162 20 163 27 159 20 163 4 164 27 159 4 164 3 165 27 159 3 165 18 166 27 159 18 166 8 167 27 159 8 167 7 168 27 159 7 168 23 169 27 159 23 169 22 170 27 159 22 170 26 171 19 172 2 173 1 174 19 172 1 174 14 175 13 176 12 177 22 178 13 176 22 178 23 179</p>
                </triangles>
                <triangles count="19" material="default_ai_0.2_sh_0.2_tr_0.0_dc_r_1.0_g_0.2_b_0.2_sc_r_1.0_g_1.0_b_1.0_ec_r_0.0_g_0.0_b_0_tri">
                    <input offset="0" semantic="VERTEX" source="#geometry0-vertex"/>
                    <input offset="1" semantic="NORMAL" source="#geometry0-normal"/>
                    <p>16 25 17 26 9 27 16 25 9 27 10 28 16 25 10 28 11 29 15 30 16 25 11 29 0 31 15 30 11 29 1 32 0 31 11 29 14 33 1 32 11 29 5 34 14 33 11 29 6 35 5 34 11 29 6 35 11 29 12 36 6 35 12 36 13 37 30 52 21 53 41 54 30 52 41 54 40 55 30 52 40 55 36 56 32 117 29 118 31 119 32 117 31 119 33 120 45 146 2 147 19 148 45 146 19 148 43 149 45 146 43 149 42 150</p>
                </triangles>
            </mesh>
        </geometry>
    </library_geometries>
    <library_visual_scenes>
        <visual_scene id="Building_DEBW_5221000Qwv9">
            <node>
                <instance_geometry url="#geometry0">
                    <bind_material>
                        <technique_common>
                            <instance_material symbol="default_ai_0.2_sh_0.2_tr_0.0_dc_r_0.8_g_0.8_b_0.8_sc_r_1.0_g_1.0_b_1.0_ec_r_0.0_g_0.0_b_0_tri" target="#default_ai_0.2_sh_0.2_tr_0.0_dc_r_0.8_g_0.8_b_0.8_sc_r_1.0_g_1.0_b_1.0_ec_r_0.0_g_0.0_b_0_mat"/>
                            <instance_material symbol="default_ai_0.2_sh_0.2_tr_0.0_dc_r_1.0_g_0.2_b_0.2_sc_r_1.0_g_1.0_b_1.0_ec_r_0.0_g_0.0_b_0_tri" target="#default_ai_0.2_sh_0.2_tr_0.0_dc_r_1.0_g_0.2_b_0.2_sc_r_1.0_g_1.0_b_1.0_ec_r_0.0_g_0.0_b_0_mat"/>
                        </technique_common>
                    </bind_material>
                </instance_geometry>
            </node>
        </visual_scene>
    </library_visual_scenes>
    <scene>
        <instance_visual_scene url="#Building_DEBW_5221000Qwv9"/>
    </scene>
</COLLADA>
