<?xml version="1.0" encoding="UTF-8" standalone="yes"?>
<COLLADA xmlns="http://www.collada.org/2005/11/COLLADASchema" version="1.4.1">
    <asset>
        <contributor>
            <authoring_tool>3D City Database Importer/Exporter, version 5.5.3; Chair of Geoinformatics, Technical University of Munich</authoring_tool>
        </contributor>
        <created>2026-05-06T15:12:05.780</created>
        <modified>2026-05-06T15:12:05.780</modified>
        <unit meter="1.0" name="meters"/>
        <up_axis>Z_UP</up_axis>
    </asset>
    <library_materials>
        <material id="default_ai_0.2_sh_0.2_tr_0.0_dc_r_0.8_g_0.8_b_0.8_sc_r_1.0_g_1.0_b_1.0_ec_r_0.0_g_0.0_b_0_mat">
            <instance_effect url="#default_ai_0.2_sh_0.2_tr_0.0_dc_r_0.8_g_0.8_b_0.8_sc_r_1.0_g_1.0_b_1.0_ec_r_0.0_g_0.0_b_0_eff"/>
        </material>
        <material id="default_ai_0.2_sh_0.2_tr_0.0_dc_r_1.0_g_0.2_b_0.2_sc_r_1.0_g_1.0_b_1.0_ec_r_0.0_g_0.0_b_0_mat">
            <instance_effect url="#default_ai_0.2_sh_0.2_tr_0.0_dc_r_1.0_g_0.2_b_0.2_sc_r_1.0_g_1.0_b_1.0_ec_r_0.0_g_0.0_b_0_eff"/>
        </material>
    </library_materials>
    <library_effects>
        <effect id="default_ai_0.2_sh_0.2_tr_0.0_dc_r_0.8_g_0.8_b_0.8_sc_r_1.0_g_1.0_b_1.0_ec_r_0.0_g_0.0_b_0_eff">
            <profile_COMMON>
                <technique sid="COMMON">
                    <lambert>
                        <emission>
                            <color>0.0 0.0 0.0 1.0</color>
                        </emission>
                        <diffuse>
                            <color>0.8 0.8 0.8 1.0</color>
                        </diffuse>
                        <reflective>
                            <color>1.0 1.0 1.0 1.0</color>
                        </reflective>
                        <reflectivity>
                            <float>0.2</float>
                        </reflectivity>
                        <transparent opaque="A_ONE">
                            <color>1.0 1.0 1.0 1.0</color>
                        </transparent>
                        <transparency>
                            <float>1.0</float>
                        </transparency>
                    </lambert>
                </technique>
                <extra>
                    <technique profile="GOOGLEEARTH">
                        <double_sided>0</double_sided>
                    </technique>
                </extra>
            </profile_COMMON>
        </effect>
        <effect id="default_ai_0.2_sh_0.2_tr_0.0_dc_r_1.0_g_0.2_b_0.2_sc_r_1.0_g_1.0_b_1.0_ec_r_0.0_g_0.0_b_0_eff">
            <profile_COMMON>
                <technique sid="COMMON">
                    <lambert>
                        <emission>
                            <color>0.0 0.0 0.0 1.0</color>
                        </emission>
                        <diffuse>
                            <color>1.0 0.2 0.2 1.0</color>
                        </diffuse>
                        <reflective>
                            <color>1.0 1.0 1.0 1.0</color>
                        </reflective>
                        <reflectivity>
                            <float>0.2</float>
                        </reflectivity>
                        <transparent opaque="A_ONE">
                            <color>1.0 1.0 1.0 1.0</color>
                        </transparent>
                        <transparency>
                            <float>1.0</float>
                        </transparency>
                    </lambert>
                </technique>
                <extra>
                    <technique profile="GOOGLEEARTH">
                        <double_sided>0</double_sided>
                    </technique>
                </extra>
            </profile_COMMON>
        </effect>
    </library_effects>
    <library_geometries>
        <geometry id="geometry0">
            <mesh>
                <source id="geometry0-position">
                    <float_array id="geometry0-position-array" count="207">-0.008 0.0 3.586 0.0 0.0 3.587 0.0 0.0 0.0 -0.008 0.0 0.0 16.046 -5.343 6.587 19.028 -5.549 4.353 19.318 -1.103 4.386 18.238 -1.003 5.197 18.228 -1.203 5.193 16.367 -1.08 6.587 18.238 -1.003 0.0 18.228 -1.203 0.0 -0.312 -3.593 0.0 -0.162 -1.453 0.0 -0.132 -1.455 0.0 6.708 -0.443 0.0 16.367 -1.08 0.0 19.318 -1.103 0.0 19.028 -5.549 0.0 16.046 -5.343 0.0 -0.397 -4.21 0.0 -0.344 -3.591 0.0 6.708 -0.443 4.817 4.314 -0.285 4.378 -0.132 -1.455 3.583 -0.162 -1.453 3.578 -0.312 -3.593 3.58 -0.344 -3.591 3.574 -0.397 -4.21 3.572 6.708 -0.443 4.378 0.428 4.727 4.378 3.088 4.547 4.378 3.088 4.547 0.0 0.428 4.727 0.0 0.428 4.727 4.322 6.948 3.417 4.378 6.948 3.417 0.0 3.028 3.687 4.378 3.028 3.687 0.0 0.0 0.0 4.378 0.0 0.0 4.351 -5.802 -19.923 11.803 -4.702 -3.913 11.803 -4.702 -3.913 0.0 -5.802 -19.923 0.0 25.908 -6.023 11.803 23.808 -36.443 11.803 23.808 -36.443 0.0 25.908 -6.023 0.0 -6.792 -34.333 11.803 -6.792 -34.333 0.0 -4.202 -3.943 11.803 -4.202 -3.943 0.0 -1.162 -3.533 11.803 -0.344 -3.591 11.803 -1.162 -3.533 0.0 -1.202 -4.143 0.0 19.028 -5.553 0.0 -1.202 -4.143 11.803 19.028 -5.549 11.803 19.028 -5.553 11.803 -0.397 -4.21 11.803 -1.012 -1.393 0.0 -0.652 3.707 0.0 -0.652 3.707 4.631 -1.012 -1.393 4.631 -0.162 -1.453 4.369 -0.132 -1.455 4.36 -0.008 0.0 4.354</float_array>
                    <technique_common>
                        <accessor count="69" source="#geometry0-position-array" stride="3">
                            <param name="X" type="float"/>
                            <param name="Y" type="float"/>
                            <param name="Z" type="float"/>
                        </accessor>
                    </technique_common>
                </source>
                <source id="geometry0-normal">
                    <float_array id="geometry0-normal-array" count="828">0.0689168 0.9976224 0.0 0.0689168 0.9976224 0.0 0.0689168 0.9976224 0.0 0.0689168 0.9976224 0.0 0.0687417 0.9976345 0.0 0.0687417 0.9976345 0.0 0.0687417 0.9976345 0.0 0.0687417 0.9976345 0.0 0.9963545 -0.0853098 0.0 0.9963545 -0.0853098 0.0 0.9963545 -0.0853098 0.0 0.9963545 -0.0853098 0.0 0.065855 0.9978292 0.0 0.065855 0.9978292 0.0 0.065855 0.9978292 0.0 0.0623738 0.9980528 0.0 0.0623738 0.9980528 0.0 0.0623738 0.9980528 0.0 0.0623738 0.9980528 0.0 -0.6866236 0.7270131 0.0 -0.6866236 0.7270131 0.0 -0.6866236 0.7270131 0.0 -0.6866236 0.7270131 0.0 0.0681551 0.9976747 0.0 0.0681551 0.9976747 0.0 0.0681551 0.9976747 0.0 0.0681551 0.9976747 0.0 0.9978794 -0.0650891 0.0 0.9978794 -0.0650891 0.0 0.9978794 -0.0650891 0.0 0.9978794 -0.0650891 0.0 -0.0665221 -0.997785 0.0 -0.0665221 -0.997785 0.0 -0.0665221 -0.997785 0.0 -0.0665221 -0.997785 0.0 -0.0665221 -0.997785 0.0 0.0658059 0.9978324 0.0 0.0658059 0.9978324 0.0 0.0658059 0.9978324 0.0 0.0658059 0.9978324 0.0 0.0658059 0.9978324 0.0 -0.9976483 0.0685407 0.0 -0.9976483 0.0685407 0.0 -0.9976483 0.0685407 0.0 -0.9976483 0.0685407 0.0 0.9975752 -0.0695982 0.0 0.9975752 -0.0695982 0.0 0.9975752 -0.0695982 0.0 0.9975752 -0.0695982 0.0 0.0 -1.0 0.0 0.0 -1.0 0.0 0.0 -1.0 0.0 0.0 -1.0 0.0 0.0 -1.0 0.0 0.995926 -0.0901748 0.0 0.995926 -0.0901748 0.0 0.995926 -0.0901748 0.0 0.995926 -0.0901748 0.0 -0.0659203 -0.9978249 0.0 -0.0659203 -0.9978249 0.0 -0.0659203 -0.9978249 0.0 -0.0659203 -0.997825 0.0 0.9963881 -0.0849155 0.0 0.9963881 -0.0849155 0.0 0.9963881 -0.0849155 0.0 0.9963881 -0.0849155 0.0 0.0 0.0 1.0 0.0 0.0 1.0 0.0 0.0 1.0 0.0 0.0 1.0 0.0 0.0 1.0 0.0 0.0 1.0 0.0 0.0 1.0 0.0 0.0 1.0 0.0 0.0 1.0 0.0 0.0 1.0 0.0 0.0 1.0 0.0 0.0 1.0 0.0659496 0.9978229 0.0 0.0659496 0.9978229 0.0 0.0659496 0.9978229 0.0 0.0659496 0.9978229 0.0 0.0707272 0.9974957 0.0 0.0707272 0.9974957 0.0 0.0707272 0.9974957 0.0 0.0707272 0.9974957 0.0 0.0707272 0.9974957 0.0 0.0687147 0.9976363 0.0 0.0687147 0.9976363 0.0 0.0687147 0.9976363 0.0 0.0687147 0.9976363 0.0 0.9963881 -0.0849156 0.0 0.9963881 -0.0849155 0.0 0.9963881 -0.0849156 0.0 0.9963881 -0.0849156 0.0 0.0 1.0 0.0 0.0 1.0 0.0 0.0 1.0 0.0 0.0 1.0 0.0 0.0 0.0 -1.0 0.0 0.0 -1.0 0.0 0.0 -1.0 0.0 0.0 -1.0 0.0 0.0 -1.0 0.0 0.0 -1.0 0.0 0.0 -1.0 0.0 0.0 -1.0 0.0 0.0 -1.0 0.0 0.0 -1.0 0.0 0.0 -1.0 0.0 0.0 -1.0 0.0 0.0 -1.0 0.0687449 0.9976343 5.62E-5 0.0687686 0.9976326 0.0 0.0688022 0.9976304 3.75E-5 0.068819 0.9976292 5.62E-5 0.0689168 0.9976224 0.0 0.0 0.0 1.0 0.0 0.0 1.0 0.0 0.0 1.0 0.0 0.0 1.0 0.0 0.0 1.0 0.0 0.0 1.0 0.0 0.0 1.0 -0.9975525 0.0699219 0.0 -0.9975525 0.0699219 0.0 -0.9975525 0.0699219 0.0 -0.9975525 0.0699219 0.0 0.5970488 -0.0451622 0.8009327 0.5970072 -0.0449542 0.8009754 0.5969911 -0.0449415 0.800988 0.5970328 -0.0449101 0.8009588 0.5971063 -0.0453828 0.8008773 0.5971221 -0.0458742 0.8008376 -0.0658908 -0.9978268 -7.7E-6 -0.0659203 -0.9978249 0.0 -0.0659086 -0.9978257 -1.15E-5 -0.065876 -0.9978278 -1.15E-5 -0.0658551 -0.9978292 0.0 -0.995926 0.0901748 0.0 -0.995926 0.0901748 0.0 -0.995926 0.0901748 0.0 -0.995926 0.0901748 0.0 -0.995926 0.0901748 0.0 0.0 0.0 -1.0 0.0 0.0 -1.0 0.0 0.0 -1.0 0.0 0.0 -1.0 0.0 0.0 -1.0 0.0 0.0 -1.0 0.0 0.0 -1.0 -0.9978569 0.0654334 0.0 -0.9978569 0.0654334 0.0 -0.9978569 0.0654334 0.0 -0.9978569 0.0654334 0.0 0.0658908 0.9978268 7.7E-6 0.0658551 0.9978292 0.0 0.065876 0.9978278 1.15E-5 0.0659086 0.9978257 1.15E-5 0.0659203 0.9978249 0.0 -0.9987524 0.0499388 0.0 -0.9987524 0.0499388 0.0 -0.9987524 0.0499388 0.0 -0.9987523 0.0499388 0.0 -0.997648 0.0685454 0.0 -0.997648 0.0685454 0.0 -0.997648 0.0685454 0.0 -0.997648 0.0685454 0.0 -0.995926 0.0901748 0.0 -0.995926 0.0901748 0.0 -0.995926 0.0901748 0.0 -0.995926 0.0901748 0.0 0.0921982 0.9957407 0.0 0.0921982 0.9957407 0.0 0.0921982 0.9957407 0.0 0.0921982 0.9957407 0.0 -0.9963881 0.0849155 0.0 -0.9963881 0.0849155 0.0 -0.9963881 0.0849155 0.0 -0.9963881 0.0849155 0.0 -0.9963545 0.0853098 0.0 -0.9963545 0.0853098 0.0 -0.9963545 0.0853098 0.0 -0.9963545 0.0853098 0.0 0.3222288 -0.0148206 0.9465458 0.2930074 -0.0206657 0.9558868 0.3123226 -0.0167632 0.9498282 0.3058001 -0.0178143 0.9519291 0.2927706 -0.0209207 0.9559538 0.289582 -0.0208134 0.9569269 0.2860332 -0.0204262 0.958002 0.0 0.0 -1.0 0.0 0.0 -1.0 0.0 0.0 -1.0 0.0 0.0 -1.0 0.0 0.0 -1.0 0.0 0.0 -1.0 0.066519 0.9977852 0.0 0.066519 0.9977852 0.0 0.066519 0.9977852 0.0 0.066519 0.9977852 0.0 0.9963545 -0.0853098 0.0 0.9963545 -0.0853098 0.0 0.9963545 -0.0853098 0.0 0.9963545 -0.0853098 0.0 -0.0689168 -0.9976224 0.0 -0.0689168 -0.9976224 0.0 -0.0689168 -0.9976224 0.0 -0.0689168 -0.9976224 0.0 0.9976256 -0.0688696 0.0 0.9976256 -0.0688696 0.0 0.9976256 -0.0688696 0.0 0.9976256 -0.0688696 0.0 -0.0687417 -0.9976345 0.0 -0.0687417 -0.9976345 0.0 -0.0687417 -0.9976345 0.0 -0.0687417 -0.9976345 0.0 0.0 0.0 -1.0 0.0 0.0 -1.0 0.0 0.0 -1.0 0.0 0.0 -1.0 0.0 0.0 -1.0 0.0 0.0 -1.0 0.0 0.0 -1.0 0.0 0.0 -1.0 0.0 0.0 -1.0 0.0 0.0 -1.0 0.0 0.0 -1.0 0.0 0.0 -1.0 0.0 0.0 -1.0 0.0 0.0 -1.0 0.0665221 0.997785 0.0 0.0665221 0.997785 0.0 0.0665221 0.997785 0.0 0.0665221 0.997785 0.0 -0.070413 -0.9975179 0.0 -0.070413 -0.9975179 0.0 -0.070413 -0.9975179 0.0 -0.070413 -0.9975179 0.0 1.0 0.0 0.0 1.0 0.0 0.0 1.0 0.0 0.0 1.0 0.0 0.0 1.0 0.0 0.0 0.0675149 0.9977183 0.0 0.0675149 0.9977183 0.0 0.0675149 0.9977183 0.0 0.0675149 0.9977183 0.0 0.0675149 0.9977183 0.0 -0.0687909 -0.9976311 0.0 -0.0687909 -0.9976311 0.0 -0.0687909 -0.9976311 0.0 -0.0687909 -0.9976311 0.0 -0.9975179 0.070413 0.0 -0.9975179 0.070413 0.0 -0.9975179 0.070413 0.0 -0.9975179 0.070413 0.0 0.0598922 0.9982048 0.0 0.0598922 0.9982048 0.0 0.0598922 0.9982048 0.0 0.0598922 0.9982048 0.0 0.9980726 -0.0620563 0.0 0.9980726 -0.0620563 0.0 0.9980726 -0.0620563 0.0 0.9980726 -0.0620563 0.0 -0.1799993 0.0129021 0.9835821 -0.1794367 0.0135115 0.9836767 -0.1794119 0.0133727 0.9836831 -0.1794401 0.0133375 0.9836785 -0.1790375 0.0129649 0.9837568 -0.2302887 0.0174092 0.9729667 -0.1835183 0.0125375 0.9829363 -0.1518004 0.0112561 0.9883471 -0.339005 0.0271125 0.9403939 -0.357732 0.028808 0.9333798 -0.1635788 0.0123877 0.9864525</float_array>
                    <technique_common>
                        <accessor count="276" source="#geometry0-normal-array" stride="3">
                            <param name="X" type="float"/>
                            <param name="Y" type="float"/>
                            <param name="Z" type="float"/>
                        </accessor>
                    </technique_common>
                </source>
                <vertices id="geometry0-vertex">
                    <input semantic="POSITION" source="#geometry0-position"/>
                </vertices>
                <triangles count="133" material="default_ai_0.2_sh_0.2_tr_0.0_dc_r_0.8_g_0.8_b_0.8_sc_r_1.0_g_1.0_b_1.0_ec_r_0.0_g_0.0_b_0_tri">
                    <input offset="0" semantic="VERTEX" source="#geometry0-vertex"/>
                    <input offset="1" semantic="NORMAL" source="#geometry0-normal"/>
                    <p>5 0 18 1 19 2 5 0 19 2 4 3 19 4 20 5 28 6 19 4 28 6 4 7 28 8 20 9 21 10 28 8 21 10 27 11 29 12 23 13 22 14 27 15 26 16 12 17 27 15 12 17 21 18 64 19 34 20 33 21 64 19 33 21 63 22 60 23 45 24 48 25 60 23 48 25 57 26 6 27 5 28 18 29 6 27 18 29 17 30 13 31 14 32 24 33 13 31 24 33 67 34 13 31 67 34 66 35 16 36 15 37 29 38 16 36 29 38 22 39 16 36 22 39 9 40 49 41 41 42 44 43 49 41 44 43 50 44 31 45 37 46 38 47 31 45 38 47 32 48 3 49 2 50 40 51 0 52 3 49 40 51 0 52 40 51 68 53 2 54 33 55 34 56 2 54 34 56 40 57 23 58 39 59 40 60 23 58 40 60 1 61 24 62 14 63 3 64 24 62 3 64 0 65 9 78 8 79 11 80 9 78 11 80 16 81 21 82 55 83 53 84 27 85 21 82 53 84 27 85 53 84 54 86 37 87 35 88 36 89 37 87 36 89 38 90 24 91 0 92 68 93 24 91 68 93 67 94 0 95 1 96 2 97 0 95 2 97 3 98 48 99 47 100 50 101 48 99 50 101 44 102 57 103 48 99 44 102 57 103 44 102 43 104 19 105 18 106 57 103 20 107 19 105 57 103 20 107 57 103 43 104 20 107 43 104 52 108 20 107 52 108 56 109 20 107 56 109 55 110 20 107 55 110 21 111 28 112 61 113 59 114 4 115 28 112 59 114 4 115 59 114 5 116 26 124 25 125 13 126 26 124 13 126 12 127 23 134 1 135 2 136 23 134 2 136 15 137 23 134 15 137 29 138 1 139 40 140 34 141 1 139 34 141 33 142 1 139 33 142 2 143 62 144 63 145 33 146 13 147 62 144 33 146 3 148 14 149 13 147 3 148 13 147 33 146 3 148 33 146 2 150 58 151 53 152 55 153 58 151 55 153 56 154 23 155 29 156 15 157 23 155 15 157 2 158 23 155 2 158 1 159 8 160 7 161 10 162 8 160 10 162 11 163 41 164 42 165 43 166 41 164 43 166 44 167 34 168 40 169 39 170 34 168 39 170 30 171 7 172 6 173 17 174 7 172 17 174 10 175 3 176 14 177 24 178 3 176 24 178 0 179 21 180 20 181 28 182 21 180 28 182 27 183 36 191 15 192 2 193 38 194 36 191 2 193 38 194 2 193 33 195 38 194 33 195 32 196 51 197 58 198 56 199 51 197 56 199 52 200 28 201 27 202 54 203 28 201 54 203 61 204 18 205 5 206 4 207 18 205 4 207 19 208 45 209 46 210 47 211 45 209 47 211 48 212 28 213 20 214 19 215 28 213 19 215 4 216 13 217 14 218 12 219 14 218 3 220 12 219 3 220 2 221 12 219 2 221 15 222 12 219 15 222 16 223 12 219 16 223 11 224 12 219 10 225 17 226 11 224 11 224 17 226 12 219 17 226 18 227 12 219 12 219 18 227 21 228 18 227 19 229 21 228 21 228 19 229 20 230 25 231 24 232 14 233 25 231 14 233 13 234 66 235 65 236 62 237 66 235 62 237 13 238 57 239 18 240 5 241 57 239 5 241 59 242 57 239 59 242 60 243 32 244 33 245 34 246 32 244 34 246 30 247 32 244 30 247 31 248 46 249 49 250 50 251 46 249 50 251 47 252 65 253 64 254 63 255 65 253 63 255 62 256 42 257 51 258 52 259 42 257 52 259 43 260 35 261 29 262 15 263 35 261 15 263 36 264</p>
                </triangles>
                <triangles count="33" material="default_ai_0.2_sh_0.2_tr_0.0_dc_r_1.0_g_0.2_b_0.2_sc_r_1.0_g_1.0_b_1.0_ec_r_0.0_g_0.0_b_0_tri">
                    <input offset="0" semantic="VERTEX" source="#geometry0-vertex"/>
                    <input offset="1" semantic="NORMAL" source="#geometry0-normal"/>
                    <p>41 66 49 67 46 68 41 66 46 68 45 69 41 66 45 69 60 70 41 66 60 70 59 71 41 66 59 71 61 72 41 66 61 72 54 73 51 74 42 75 41 66 58 76 51 74 41 66 58 76 41 66 54 73 58 76 54 73 53 77 39 117 23 118 29 119 39 117 29 119 35 120 39 117 35 120 37 121 39 117 37 121 31 122 39 117 31 122 30 123 8 128 9 129 4 130 8 128 4 130 5 131 8 128 5 131 6 132 8 128 6 132 7 133 40 184 34 185 64 186 68 187 40 184 64 186 68 187 64 186 65 188 68 187 65 188 66 189 68 187 66 189 67 190 28 265 4 266 9 267 28 265 9 267 22 268 28 265 22 268 23 269 26 270 27 271 28 265 26 270 28 265 23 269 26 270 23 269 1 272 26 270 1 272 0 273 26 270 0 273 24 274 26 270 24 274 25 275</p>
                </triangles>
            </mesh>
        </geometry>
    </library_geometries>
    <library_visual_scenes>
        <visual_scene id="Building_DEBW_5221000Qw4J">
            <node>
                <instance_geometry url="#geometry0">
                    <bind_material>
                        <technique_common>
                            <instance_material symbol="default_ai_0.2_sh_0.2_tr_0.0_dc_r_0.8_g_0.8_b_0.8_sc_r_1.0_g_1.0_b_1.0_ec_r_0.0_g_0.0_b_0_tri" target="#default_ai_0.2_sh_0.2_tr_0.0_dc_r_0.8_g_0.8_b_0.8_sc_r_1.0_g_1.0_b_1.0_ec_r_0.0_g_0.0_b_0_mat"/>
                            <instance_material symbol="default_ai_0.2_sh_0.2_tr_0.0_dc_r_1.0_g_0.2_b_0.2_sc_r_1.0_g_1.0_b_1.0_ec_r_0.0_g_0.0_b_0_tri" target="#default_ai_0.2_sh_0.2_tr_0.0_dc_r_1.0_g_0.2_b_0.2_sc_r_1.0_g_1.0_b_1.0_ec_r_0.0_g_0.0_b_0_mat"/>
                        </technique_common>
                    </bind_material>
                </instance_geometry>
            </node>
        </visual_scene>
    </library_visual_scenes>
    <scene>
        <instance_visual_scene url="#Building_DEBW_5221000Qw4J"/>
    </scene>
</COLLADA>
