<?xml version="1.0" encoding="UTF-8" standalone="yes"?>
<COLLADA xmlns="http://www.collada.org/2005/11/COLLADASchema" version="1.4.1">
    <asset>
        <contributor>
            <authoring_tool>3D City Database Importer/Exporter, version 5.5.3; Chair of Geoinformatics, Technical University of Munich</authoring_tool>
        </contributor>
        <created>2026-05-06T15:12:14.810</created>
        <modified>2026-05-06T15:12:14.810</modified>
        <unit meter="1.0" name="meters"/>
        <up_axis>Z_UP</up_axis>
    </asset>
    <library_materials>
        <material id="default_ai_0.2_sh_0.2_tr_0.0_dc_r_1.0_g_0.2_b_0.2_sc_r_1.0_g_1.0_b_1.0_ec_r_0.0_g_0.0_b_0_mat">
            <instance_effect url="#default_ai_0.2_sh_0.2_tr_0.0_dc_r_1.0_g_0.2_b_0.2_sc_r_1.0_g_1.0_b_1.0_ec_r_0.0_g_0.0_b_0_eff"/>
        </material>
        <material id="default_ai_0.2_sh_0.2_tr_0.0_dc_r_0.8_g_0.8_b_0.8_sc_r_1.0_g_1.0_b_1.0_ec_r_0.0_g_0.0_b_0_mat">
            <instance_effect url="#default_ai_0.2_sh_0.2_tr_0.0_dc_r_0.8_g_0.8_b_0.8_sc_r_1.0_g_1.0_b_1.0_ec_r_0.0_g_0.0_b_0_eff"/>
        </material>
    </library_materials>
    <library_effects>
        <effect id="default_ai_0.2_sh_0.2_tr_0.0_dc_r_1.0_g_0.2_b_0.2_sc_r_1.0_g_1.0_b_1.0_ec_r_0.0_g_0.0_b_0_eff">
            <profile_COMMON>
                <technique sid="COMMON">
                    <lambert>
                        <emission>
                            <color>0.0 0.0 0.0 1.0</color>
                        </emission>
                        <diffuse>
                            <color>1.0 0.2 0.2 1.0</color>
                        </diffuse>
                        <reflective>
                            <color>1.0 1.0 1.0 1.0</color>
                        </reflective>
                        <reflectivity>
                            <float>0.2</float>
                        </reflectivity>
                        <transparent opaque="A_ONE">
                            <color>1.0 1.0 1.0 1.0</color>
                        </transparent>
                        <transparency>
                            <float>1.0</float>
                        </transparency>
                    </lambert>
                </technique>
                <extra>
                    <technique profile="GOOGLEEARTH">
                        <double_sided>0</double_sided>
                    </technique>
                </extra>
            </profile_COMMON>
        </effect>
        <effect id="default_ai_0.2_sh_0.2_tr_0.0_dc_r_0.8_g_0.8_b_0.8_sc_r_1.0_g_1.0_b_1.0_ec_r_0.0_g_0.0_b_0_eff">
            <profile_COMMON>
                <technique sid="COMMON">
                    <lambert>
                        <emission>
                            <color>0.0 0.0 0.0 1.0</color>
                        </emission>
                        <diffuse>
                            <color>0.8 0.8 0.8 1.0</color>
                        </diffuse>
                        <reflective>
                            <color>1.0 1.0 1.0 1.0</color>
                        </reflective>
                        <reflectivity>
                            <float>0.2</float>
                        </reflectivity>
                        <transparent opaque="A_ONE">
                            <color>1.0 1.0 1.0 1.0</color>
                        </transparent>
                        <transparency>
                            <float>1.0</float>
                        </transparency>
                    </lambert>
                </technique>
                <extra>
                    <technique profile="GOOGLEEARTH">
                        <double_sided>0</double_sided>
                    </technique>
                </extra>
            </profile_COMMON>
        </effect>
    </library_effects>
    <library_geometries>
        <geometry id="geometry0">
            <mesh>
                <source id="geometry0-position">
                    <float_array id="geometry0-position-array" count="60">-1.0 5.95 8.01 0.0 0.0 8.008 0.0 0.0 0.0 -1.0 5.95 0.0 -0.06 -5.77 8.69 0.94 -5.61 8.008 -0.06 -5.77 0.0 0.94 -5.61 0.0 -10.38 4.37 8.902 -10.38 4.37 0.0 -7.68 -19.24 8.068 -9.55 -8.13 8.063 -9.55 -8.13 0.0 -7.68 -19.24 0.0 1.93 -17.63 0.0 -8.32 -7.93 0.0 -2.422 -18.359 11.659 -6.344 5.05 11.659 -8.32 -7.93 8.902 1.93 -17.63 8.688</float_array>
                    <technique_common>
                        <accessor count="20" source="#geometry0-position-array" stride="3">
                            <param name="X" type="float"/>
                            <param name="Y" type="float"/>
                            <param name="Z" type="float"/>
                        </accessor>
                    </technique_common>
                </source>
                <source id="geometry0-normal">
                    <float_array id="geometry0-normal-array" count="216">0.5508487 0.0922905 0.8294867 0.5508487 0.0922905 0.8294867 0.5508487 0.0922905 0.8294867 0.0 0.0 -1.0 0.0 0.0 -1.0 0.0 0.0 -1.0 0.0 0.0 -1.0 0.0 0.0 -1.0 0.0 0.0 -1.0 0.0 0.0 -1.0 0.0 0.0 -1.0 0.0 0.0 -1.0 0.5508235 0.0922833 0.8295043 0.5508235 0.0922833 0.8295043 0.5508235 0.0922833 0.8295043 0.1652311 -0.9862549 0.0 0.1652311 -0.9862549 0.0 0.1652311 -0.9862549 0.0 0.1652311 -0.9862549 0.0 -0.5509287 -0.0923152 0.8294308 -0.5508062 -0.0923367 0.8295098 -0.55089 -0.0923373 0.8294541 -0.5509516 -0.092321 0.829415 -0.5509674 -0.0922931 0.8294075 -0.5510055 -0.0922822 0.8293835 0.9862135 0.1654776 0.0 0.9862136 0.1654776 0.0 0.9862135 0.1654776 0.0 0.9862135 0.1654776 0.0 0.5509034 0.09231 0.8294482 0.5509034 0.09231 0.8294482 0.5509034 0.09231 0.8294482 0.986251 0.1652542 0.0 0.986251 0.1652542 0.0 0.986251 0.1652542 0.0 0.986251 0.1652542 0.0 0.986169 0.1657427 0.0 0.986169 0.1657427 0.0 0.986169 0.1657427 0.0 0.986169 0.1657427 0.0 -0.9862636 -0.1651791 0.0 -0.9862636 -0.1651791 0.0 -0.9862636 -0.1651791 0.0 -0.9862636 -0.1651791 0.0 0.1652291 -0.9862552 3.26E-5 0.1652291 -0.9862552 3.26E-5 0.1652291 -0.9862552 3.26E-5 0.5509104 0.0923094 0.8294436 0.5509104 0.0923094 0.8294436 0.5509104 0.0923094 0.8294436 -0.1661035 0.9861083 0.0 -0.1661035 0.9861083 0.0 -0.1661035 0.9861083 0.0 -0.1661035 0.9861083 0.0 -0.160494 0.9870368 0.0 -0.160494 0.9870368 0.0 -0.160494 0.9870368 0.0 -0.160494 0.9870368 0.0 0.1579904 -0.9874406 0.0 0.1579904 -0.9874406 0.0 0.1579904 -0.9874406 0.0 0.1579904 -0.9874406 0.0 0.5507613 0.0923041 0.8295432 0.5507613 0.0923041 0.8295432 0.5507613 0.0923041 0.8295432 -0.9861287 -0.1659821 0.0 -0.9861287 -0.1659821 0.0 -0.9861287 -0.1659821 0.0 -0.9861287 -0.1659821 0.0 -0.1661082 0.9861075 -5.1E-5 -0.1661082 0.9861075 -5.1E-5 -0.1661082 0.9861075 -5.1E-5</float_array>
                    <technique_common>
                        <accessor count="72" source="#geometry0-normal-array" stride="3">
                            <param name="X" type="float"/>
                            <param name="Y" type="float"/>
                            <param name="Z" type="float"/>
                        </accessor>
                    </technique_common>
                </source>
                <vertices id="geometry0-vertex">
                    <input semantic="POSITION" source="#geometry0-position"/>
                </vertices>
                <triangles count="27" material="default_ai_0.2_sh_0.2_tr_0.0_dc_r_0.8_g_0.8_b_0.8_sc_r_1.0_g_1.0_b_1.0_ec_r_0.0_g_0.0_b_0_tri">
                    <input offset="0" semantic="VERTEX" source="#geometry0-vertex"/>
                    <input offset="1" semantic="NORMAL" source="#geometry0-normal"/>
                    <p>13 3 12 4 15 5 14 6 13 3 15 5 14 6 15 5 9 7 6 8 14 6 9 7 6 8 9 7 3 9 6 8 3 9 2 10 6 8 2 10 7 11 19 15 10 16 13 17 19 15 13 17 14 18 4 25 19 26 14 27 4 25 14 27 6 28 1 32 5 33 7 34 1 32 7 34 2 35 0 36 1 37 2 38 0 36 2 38 3 39 18 40 8 41 9 42 18 40 9 42 15 43 10 44 19 45 16 46 8 50 0 51 3 52 8 50 3 52 9 53 11 54 18 55 15 56 11 54 15 56 12 57 5 58 4 59 6 60 5 58 6 60 7 61 10 65 11 66 12 67 10 65 12 67 13 68 0 69 8 70 17 71</p>
                </triangles>
                <triangles count="9" material="default_ai_0.2_sh_0.2_tr_0.0_dc_r_1.0_g_0.2_b_0.2_sc_r_1.0_g_1.0_b_1.0_ec_r_0.0_g_0.0_b_0_tri">
                    <input offset="0" semantic="VERTEX" source="#geometry0-vertex"/>
                    <input offset="1" semantic="NORMAL" source="#geometry0-normal"/>
                    <p>16 0 0 1 17 2 4 12 16 13 19 14 18 19 11 20 10 21 18 19 10 21 16 22 18 19 16 22 17 23 18 19 17 23 8 24 4 29 1 30 0 31 1 47 4 48 5 49 0 62 16 63 4 64</p>
                </triangles>
            </mesh>
        </geometry>
    </library_geometries>
    <library_visual_scenes>
        <visual_scene id="Building_DEBW_5221000QYb0">
            <node>
                <instance_geometry url="#geometry0">
                    <bind_material>
                        <technique_common>
                            <instance_material symbol="default_ai_0.2_sh_0.2_tr_0.0_dc_r_0.8_g_0.8_b_0.8_sc_r_1.0_g_1.0_b_1.0_ec_r_0.0_g_0.0_b_0_tri" target="#default_ai_0.2_sh_0.2_tr_0.0_dc_r_0.8_g_0.8_b_0.8_sc_r_1.0_g_1.0_b_1.0_ec_r_0.0_g_0.0_b_0_mat"/>
                            <instance_material symbol="default_ai_0.2_sh_0.2_tr_0.0_dc_r_1.0_g_0.2_b_0.2_sc_r_1.0_g_1.0_b_1.0_ec_r_0.0_g_0.0_b_0_tri" target="#default_ai_0.2_sh_0.2_tr_0.0_dc_r_1.0_g_0.2_b_0.2_sc_r_1.0_g_1.0_b_1.0_ec_r_0.0_g_0.0_b_0_mat"/>
                        </technique_common>
                    </bind_material>
                </instance_geometry>
            </node>
        </visual_scene>
    </library_visual_scenes>
    <scene>
        <instance_visual_scene url="#Building_DEBW_5221000QYb0"/>
    </scene>
</COLLADA>
