<?xml version="1.0" encoding="UTF-8" standalone="yes"?>
<COLLADA xmlns="http://www.collada.org/2005/11/COLLADASchema" version="1.4.1">
    <asset>
        <contributor>
            <authoring_tool>3D City Database Importer/Exporter, version 5.5.3; Chair of Geoinformatics, Technical University of Munich</authoring_tool>
        </contributor>
        <created>2026-05-06T15:12:08.873</created>
        <modified>2026-05-06T15:12:08.873</modified>
        <unit meter="1.0" name="meters"/>
        <up_axis>Z_UP</up_axis>
    </asset>
    <library_materials>
        <material id="default_ai_0.2_sh_0.2_tr_0.0_dc_r_0.8_g_0.8_b_0.8_sc_r_1.0_g_1.0_b_1.0_ec_r_0.0_g_0.0_b_0_mat">
            <instance_effect url="#default_ai_0.2_sh_0.2_tr_0.0_dc_r_0.8_g_0.8_b_0.8_sc_r_1.0_g_1.0_b_1.0_ec_r_0.0_g_0.0_b_0_eff"/>
        </material>
        <material id="default_ai_0.2_sh_0.2_tr_0.0_dc_r_1.0_g_0.2_b_0.2_sc_r_1.0_g_1.0_b_1.0_ec_r_0.0_g_0.0_b_0_mat">
            <instance_effect url="#default_ai_0.2_sh_0.2_tr_0.0_dc_r_1.0_g_0.2_b_0.2_sc_r_1.0_g_1.0_b_1.0_ec_r_0.0_g_0.0_b_0_eff"/>
        </material>
    </library_materials>
    <library_effects>
        <effect id="default_ai_0.2_sh_0.2_tr_0.0_dc_r_0.8_g_0.8_b_0.8_sc_r_1.0_g_1.0_b_1.0_ec_r_0.0_g_0.0_b_0_eff">
            <profile_COMMON>
                <technique sid="COMMON">
                    <lambert>
                        <emission>
                            <color>0.0 0.0 0.0 1.0</color>
                        </emission>
                        <diffuse>
                            <color>0.8 0.8 0.8 1.0</color>
                        </diffuse>
                        <reflective>
                            <color>1.0 1.0 1.0 1.0</color>
                        </reflective>
                        <reflectivity>
                            <float>0.2</float>
                        </reflectivity>
                        <transparent opaque="A_ONE">
                            <color>1.0 1.0 1.0 1.0</color>
                        </transparent>
                        <transparency>
                            <float>1.0</float>
                        </transparency>
                    </lambert>
                </technique>
                <extra>
                    <technique profile="GOOGLEEARTH">
                        <double_sided>0</double_sided>
                    </technique>
                </extra>
            </profile_COMMON>
        </effect>
        <effect id="default_ai_0.2_sh_0.2_tr_0.0_dc_r_1.0_g_0.2_b_0.2_sc_r_1.0_g_1.0_b_1.0_ec_r_0.0_g_0.0_b_0_eff">
            <profile_COMMON>
                <technique sid="COMMON">
                    <lambert>
                        <emission>
                            <color>0.0 0.0 0.0 1.0</color>
                        </emission>
                        <diffuse>
                            <color>1.0 0.2 0.2 1.0</color>
                        </diffuse>
                        <reflective>
                            <color>1.0 1.0 1.0 1.0</color>
                        </reflective>
                        <reflectivity>
                            <float>0.2</float>
                        </reflectivity>
                        <transparent opaque="A_ONE">
                            <color>1.0 1.0 1.0 1.0</color>
                        </transparent>
                        <transparency>
                            <float>1.0</float>
                        </transparency>
                    </lambert>
                </technique>
                <extra>
                    <technique profile="GOOGLEEARTH">
                        <double_sided>0</double_sided>
                    </technique>
                </extra>
            </profile_COMMON>
        </effect>
    </library_effects>
    <library_geometries>
        <geometry id="geometry0">
            <mesh>
                <source id="geometry0-position">
                    <float_array id="geometry0-position-array" count="108">-0.26 0.02 8.088 0.0 0.0 8.088 0.0 0.0 0.0 -0.26 0.02 0.0 -1.66 0.12 8.088 -1.63 0.56 8.088 -1.63 0.56 0.0 -1.66 0.12 0.0 -0.23 0.47 8.088 -0.23 0.47 0.0 -7.22 -6.51 8.088 -6.94 -1.36 8.088 -6.94 -1.36 0.0 -7.22 -6.51 0.0 -6.9 -0.83 8.088 -6.9 -0.83 0.0 -0.04 -0.53 8.088 -0.37 -5.85 8.088 -0.37 -5.85 0.0 -0.04 -0.53 0.0 -5.17 -0.5 8.088 -5.18 -0.77 8.088 -5.18 -0.77 0.0 -5.17 -0.5 0.0 -3.65 0.26 8.088 -3.65 0.26 0.0 -3.58 -5.65 8.088 -3.58 -5.65 0.0 -6.66 -0.39 8.088 -6.66 -0.39 0.0 -6.69 -0.85 8.088 -6.69 -0.85 0.0 -3.73 -0.87 8.088 -3.73 -0.87 0.0 -3.66 -6.76 8.088 -3.66 -6.76 0.0</float_array>
                    <technique_common>
                        <accessor count="36" source="#geometry0-position-array" stride="3">
                            <param name="X" type="float"/>
                            <param name="Y" type="float"/>
                            <param name="Z" type="float"/>
                        </accessor>
                    </technique_common>
                </source>
                <source id="geometry0-normal">
                    <float_array id="geometry0-normal-array" count="324">-0.0621847 -0.9980647 0.0 -0.0621847 -0.9980647 0.0 -0.0621847 -0.9980647 0.0 -0.0621847 -0.9980647 0.0 0.0948093 0.9954955 0.0 0.0948093 0.9954955 0.0 0.0948093 0.9954955 0.0 0.0948093 0.9954955 0.0 0.0736252 0.997286 0.0 0.0736252 0.997286 0.0 0.0736252 0.997286 0.0 0.0736252 0.997286 0.0 0.9977852 -0.066519 0.0 0.9977852 -0.066519 0.0 0.9977852 -0.066519 0.0 0.9977852 -0.066519 0.0 0.9980816 -0.0619111 0.0 0.9980816 -0.0619111 0.0 0.9980816 -0.0619111 0.0 0.9980816 -0.0619111 0.0 0.0766965 0.9970545 0.0 0.0766965 0.9970545 0.0 0.0766965 0.9970545 0.0 0.0766965 0.9970545 0.0 0.0 0.0 -1.0 0.0 0.0 -1.0 0.0 0.0 -1.0 0.0 0.0 -1.0 0.0 0.0 -1.0 0.0 0.0 -1.0 0.0 0.0 -1.0 0.0 0.0 -1.0 0.0 0.0 -1.0 0.0 0.0 -1.0 0.0 0.0 -1.0 0.0 0.0 -1.0 0.0 0.0 -1.0 0.0 0.0 -1.0 0.0 0.0 -1.0 0.0 0.0 -1.0 0.0 0.0 -1.0 0.0 0.0 -1.0 0.9974129 -0.0718857 0.0 0.9974129 -0.0718857 0.0 0.9974129 -0.0718857 0.0 0.9974129 -0.0718857 0.0 -0.9978801 0.0650796 0.0 -0.9978801 0.0650796 0.0 -0.9978801 0.0650796 0.0 -0.9978801 0.0650796 0.0 -0.9985253 0.0542887 0.0 -0.9985253 0.0542887 0.0 -0.9985253 0.0542887 0.0 -0.9985253 0.0542887 0.0 0.9993148 -0.0370107 0.0 0.9993148 -0.0370107 0.0 0.9993148 -0.0370107 0.0 0.9993148 -0.0370107 0.0 -0.9975033 0.0706196 0.0 -0.9975033 0.0706196 0.0 -0.9975033 0.0706196 0.0 -0.9975033 0.0706196 0.0 0.0641533 0.9979401 0.0 0.0641533 0.9979401 0.0 0.0641533 0.9979401 0.0 0.0641533 0.9979401 0.0 0.0701783 0.9975345 0.0 0.0701783 0.9975345 0.0 0.0701783 0.9975345 0.0 0.0701783 0.9975345 0.0 0.0 0.0 1.0 0.0 0.0 1.0 0.0 0.0 1.0 0.0 0.0 1.0 0.0 0.0 1.0 0.0 0.0 1.0 0.0 0.0 1.0 0.0 0.0 1.0 0.0 0.0 1.0 0.0 0.0 1.0 0.0 0.0 1.0 0.0 0.0 1.0 0.0 0.0 1.0 0.0 0.0 1.0 0.0 0.0 1.0 0.0 0.0 1.0 0.0 0.0 1.0 0.0 0.0 1.0 0.0688021 0.9976303 0.0 0.0688021 0.9976303 0.0 0.0688021 0.9976303 0.0 0.0688021 0.9976303 0.0 0.9971642 -0.0752577 0.0 0.9971642 -0.0752577 0.0 0.9971642 -0.0752577 0.0 0.9971642 -0.0752577 0.0 -0.9971642 0.0752576 0.0 -0.9971642 0.0752576 0.0 -0.9971642 0.0752576 0.0 -0.9971642 0.0752576 0.0 -0.0700522 -0.9975434 0.0 -0.0700522 -0.9975434 0.0 -0.0700522 -0.9975434 0.0 -0.0700522 -0.9975434 0.0 -0.9976837 0.0680238 0.0 -0.9976837 0.0680238 0.0 -0.9976837 0.0680238 0.0 -0.9976837 0.0680238 0.0</float_array>
                    <technique_common>
                        <accessor count="108" source="#geometry0-normal-array" stride="3">
                            <param name="X" type="float"/>
                            <param name="Y" type="float"/>
                            <param name="Z" type="float"/>
                        </accessor>
                    </technique_common>
                </source>
                <vertices id="geometry0-vertex">
                    <input semantic="POSITION" source="#geometry0-position"/>
                </vertices>
                <triangles count="52" material="default_ai_0.2_sh_0.2_tr_0.0_dc_r_0.8_g_0.8_b_0.8_sc_r_1.0_g_1.0_b_1.0_ec_r_0.0_g_0.0_b_0_tri">
                    <input offset="0" semantic="VERTEX" source="#geometry0-vertex"/>
                    <input offset="1" semantic="NORMAL" source="#geometry0-normal"/>
                    <p>17 0 26 1 27 2 17 0 27 2 18 3 14 4 30 5 31 6 14 4 31 6 15 7 28 8 20 9 23 10 28 8 23 10 29 11 8 12 0 13 3 14 8 12 3 14 9 15 16 16 17 17 18 18 16 16 18 18 19 19 0 20 1 21 2 22 0 20 2 22 3 23 27 24 35 25 13 26 27 24 13 26 12 27 27 24 12 27 15 28 27 24 15 28 31 29 27 24 31 29 29 30 18 31 27 24 29 30 3 32 2 33 19 34 3 32 19 34 18 31 6 35 9 36 3 32 6 35 3 32 18 31 7 37 6 35 18 31 25 38 7 37 18 31 33 39 25 38 18 31 22 40 33 39 18 31 22 40 18 31 29 30 22 40 29 30 23 41 26 42 34 43 35 44 26 42 35 44 27 45 30 46 28 47 29 48 30 46 29 48 31 49 10 50 11 51 12 52 10 50 12 52 13 53 20 54 21 55 22 56 20 54 22 56 23 57 32 58 24 59 25 60 32 58 25 60 33 61 5 62 8 63 9 64 5 62 9 64 6 65 24 66 4 67 7 68 24 66 7 68 25 69 21 88 32 89 33 90 21 88 33 90 22 91 1 92 16 93 19 94 1 92 19 94 2 95 11 96 14 97 15 98 11 96 15 98 12 99 34 100 10 101 13 102 34 100 13 102 35 103 4 104 5 105 6 106 4 104 6 106 7 107</p>
                </triangles>
                <triangles count="16" material="default_ai_0.2_sh_0.2_tr_0.0_dc_r_1.0_g_0.2_b_0.2_sc_r_1.0_g_1.0_b_1.0_ec_r_0.0_g_0.0_b_0_tri">
                    <input offset="0" semantic="VERTEX" source="#geometry0-vertex"/>
                    <input offset="1" semantic="NORMAL" source="#geometry0-normal"/>
                    <p>11 70 10 71 34 72 11 70 34 72 26 73 11 70 26 73 17 74 11 70 17 74 16 75 30 76 14 77 11 70 20 78 28 79 30 76 20 78 30 76 11 70 21 80 20 78 11 70 32 81 21 80 11 70 32 81 11 70 16 75 32 81 16 75 1 82 32 81 1 82 0 83 32 81 0 83 8 84 4 85 24 86 32 81 4 85 32 81 8 84 4 85 8 84 5 87</p>
                </triangles>
            </mesh>
        </geometry>
    </library_geometries>
    <library_visual_scenes>
        <visual_scene id="Building_DEBW_5221000QyUd">
            <node>
                <instance_geometry url="#geometry0">
                    <bind_material>
                        <technique_common>
                            <instance_material symbol="default_ai_0.2_sh_0.2_tr_0.0_dc_r_0.8_g_0.8_b_0.8_sc_r_1.0_g_1.0_b_1.0_ec_r_0.0_g_0.0_b_0_tri" target="#default_ai_0.2_sh_0.2_tr_0.0_dc_r_0.8_g_0.8_b_0.8_sc_r_1.0_g_1.0_b_1.0_ec_r_0.0_g_0.0_b_0_mat"/>
                            <instance_material symbol="default_ai_0.2_sh_0.2_tr_0.0_dc_r_1.0_g_0.2_b_0.2_sc_r_1.0_g_1.0_b_1.0_ec_r_0.0_g_0.0_b_0_tri" target="#default_ai_0.2_sh_0.2_tr_0.0_dc_r_1.0_g_0.2_b_0.2_sc_r_1.0_g_1.0_b_1.0_ec_r_0.0_g_0.0_b_0_mat"/>
                        </technique_common>
                    </bind_material>
                </instance_geometry>
            </node>
        </visual_scene>
    </library_visual_scenes>
    <scene>
        <instance_visual_scene url="#Building_DEBW_5221000QyUd"/>
    </scene>
</COLLADA>
