<?xml version="1.0" encoding="UTF-8" standalone="yes"?>
<COLLADA xmlns="http://www.collada.org/2005/11/COLLADASchema" version="1.4.1">
    <asset>
        <contributor>
            <authoring_tool>3D City Database Importer/Exporter, version 5.5.3; Chair of Geoinformatics, Technical University of Munich</authoring_tool>
        </contributor>
        <created>2026-05-06T15:12:09.188</created>
        <modified>2026-05-06T15:12:09.188</modified>
        <unit meter="1.0" name="meters"/>
        <up_axis>Z_UP</up_axis>
    </asset>
    <library_materials>
        <material id="default_ai_0.2_sh_0.2_tr_0.0_dc_r_0.8_g_0.8_b_0.8_sc_r_1.0_g_1.0_b_1.0_ec_r_0.0_g_0.0_b_0_mat">
            <instance_effect url="#default_ai_0.2_sh_0.2_tr_0.0_dc_r_0.8_g_0.8_b_0.8_sc_r_1.0_g_1.0_b_1.0_ec_r_0.0_g_0.0_b_0_eff"/>
        </material>
        <material id="default_ai_0.2_sh_0.2_tr_0.0_dc_r_1.0_g_0.2_b_0.2_sc_r_1.0_g_1.0_b_1.0_ec_r_0.0_g_0.0_b_0_mat">
            <instance_effect url="#default_ai_0.2_sh_0.2_tr_0.0_dc_r_1.0_g_0.2_b_0.2_sc_r_1.0_g_1.0_b_1.0_ec_r_0.0_g_0.0_b_0_eff"/>
        </material>
    </library_materials>
    <library_effects>
        <effect id="default_ai_0.2_sh_0.2_tr_0.0_dc_r_0.8_g_0.8_b_0.8_sc_r_1.0_g_1.0_b_1.0_ec_r_0.0_g_0.0_b_0_eff">
            <profile_COMMON>
                <technique sid="COMMON">
                    <lambert>
                        <emission>
                            <color>0.0 0.0 0.0 1.0</color>
                        </emission>
                        <diffuse>
                            <color>0.8 0.8 0.8 1.0</color>
                        </diffuse>
                        <reflective>
                            <color>1.0 1.0 1.0 1.0</color>
                        </reflective>
                        <reflectivity>
                            <float>0.2</float>
                        </reflectivity>
                        <transparent opaque="A_ONE">
                            <color>1.0 1.0 1.0 1.0</color>
                        </transparent>
                        <transparency>
                            <float>1.0</float>
                        </transparency>
                    </lambert>
                </technique>
                <extra>
                    <technique profile="GOOGLEEARTH">
                        <double_sided>0</double_sided>
                    </technique>
                </extra>
            </profile_COMMON>
        </effect>
        <effect id="default_ai_0.2_sh_0.2_tr_0.0_dc_r_1.0_g_0.2_b_0.2_sc_r_1.0_g_1.0_b_1.0_ec_r_0.0_g_0.0_b_0_eff">
            <profile_COMMON>
                <technique sid="COMMON">
                    <lambert>
                        <emission>
                            <color>0.0 0.0 0.0 1.0</color>
                        </emission>
                        <diffuse>
                            <color>1.0 0.2 0.2 1.0</color>
                        </diffuse>
                        <reflective>
                            <color>1.0 1.0 1.0 1.0</color>
                        </reflective>
                        <reflectivity>
                            <float>0.2</float>
                        </reflectivity>
                        <transparent opaque="A_ONE">
                            <color>1.0 1.0 1.0 1.0</color>
                        </transparent>
                        <transparency>
                            <float>1.0</float>
                        </transparency>
                    </lambert>
                </technique>
                <extra>
                    <technique profile="GOOGLEEARTH">
                        <double_sided>0</double_sided>
                    </technique>
                </extra>
            </profile_COMMON>
        </effect>
    </library_effects>
    <library_geometries>
        <geometry id="geometry0">
            <mesh>
                <source id="geometry0-position">
                    <float_array id="geometry0-position-array" count="138">-0.21 1.2 9.322 0.0 0.0 8.709 0.0 0.0 0.0 -0.21 1.2 0.0 -1.91 4.72 11.335 -1.19 4.47 11.086 -1.19 4.47 0.0 -1.91 4.72 0.0 -3.08 -1.55 8.694 -7.76 -3.91 8.669 -7.76 -3.91 0.0 -3.08 -1.55 0.0 -0.38 -1.24 8.214 -1.31 -2.06 8.044 -1.31 -2.06 0.0 -0.38 -1.24 0.0 -12.81 7.51 7.552 -10.64 6.5 8.516 -10.64 6.5 0.0 -12.81 7.51 0.0 -9.17 7.29 8.485 -9.17 7.29 0.0 -4.54 9.16 8.677 -3.68 8.23 9.304 -3.68 8.23 0.0 -4.54 9.16 0.0 -5.77 9.55 8.215 -5.77 9.55 0.0 -1.865 4.704 11.353 -7.0 9.32 8.04 -7.0 9.32 0.0 -2.52 -2.67 8.038 -2.52 -2.67 0.0 -1.42 3.69 10.773 -13.263 -0.915 11.353 -10.47 -6.58 8.042 -7.2 -5.03 8.013 -9.55 8.07 8.037 -13.49 6.17 8.018 -16.09 4.82 8.049 -1.42 3.69 0.0 -16.09 4.82 0.0 -10.47 -6.58 0.0 -9.55 8.07 0.0 -13.49 6.17 0.0 -7.2 -5.03 0.0</float_array>
                    <technique_common>
                        <accessor count="46" source="#geometry0-position-array" stride="3">
                            <param name="X" type="float"/>
                            <param name="Y" type="float"/>
                            <param name="Z" type="float"/>
                        </accessor>
                    </technique_common>
                </source>
                <source id="geometry0-normal">
                    <float_array id="geometry0-normal-array" count="438">-0.4733849 0.8808557 0.0 -0.4733849 0.8808557 0.0 -0.4733849 0.8808557 0.0 -0.4733849 0.8808557 0.0 0.4502636 -0.8928957 0.0 0.4502636 -0.8928957 0.0 0.4502636 -0.8928957 0.0 0.4502636 -0.8928956 0.0 0.8944271 0.4472138 0.0 0.8944271 0.4472138 0.0 0.8944271 0.4472138 0.0 0.8944271 0.4472138 0.0 0.2053932 -0.4161314 0.8858038 0.205331 -0.4162779 0.8857493 0.205305 -0.4164055 0.8856954 0.2052693 -0.4164432 0.885686 0.2052788 -0.4164795 0.8856667 0.2052731 -0.4164717 0.8856717 0.2052827 -0.4163328 0.8857347 0.2048418 -0.4161429 0.8859261 0.205118 -0.4162981 0.8857892 0.2055438 -0.41659 0.8855533 0.2053951 -0.4163126 0.8857181 0.2054381 -0.4162365 0.885744 0.2052568 -0.4164547 0.8856835 0.4283238 -0.9036253 0.0 0.4283238 -0.9036253 0.0 0.4283238 -0.9036253 0.0 0.4283238 -0.9036253 0.0 0.3312434 0.9434865 0.0105364 0.3312434 0.9434865 0.0105364 0.3312434 0.9434865 0.0105364 0.7341979 0.6789355 0.0 0.7341979 0.6789355 0.0 0.7341979 0.6789355 0.0 0.7341979 0.6789355 0.0 -0.8969308 -0.4421711 -6.88E-5 -0.8969308 -0.4421711 -6.88E-5 -0.8969308 -0.4421711 -6.88E-5 0.6613548 -0.7500732 0.0 0.6613548 -0.7500732 0.0 0.6613548 -0.7500732 0.0 0.6613548 -0.7500732 0.0 0.9591694 -0.2828319 0.0 0.9591694 -0.282832 0.0 0.9591694 -0.2828319 0.0 0.9591694 -0.282832 0.0 -0.2019173 0.4122449 0.8884163 -0.2025807 0.4118666 0.8884407 -0.2029224 0.4116644 0.8884565 -0.2032925 0.4114528 0.8884699 -0.2031296 0.4116191 0.8884301 -0.2030548 0.4115857 0.8884628 -0.2031914 0.4113505 0.8885404 0.257078 0.9457795 0.1985245 0.257078 0.9457795 0.1985245 0.257078 0.9457795 0.1985245 -0.2030068 0.4117943 0.888377 -0.202733 0.4116955 0.8884853 -0.2028365 0.4117067 0.8884565 -0.20283 0.4116007 0.8885072 -0.20297 0.4114498 0.8885451 -0.2029087 0.4115384 0.888518 -0.202921 0.4119062 0.8883447 0.3280117 0.9446737 0.0 0.3280117 0.9446737 0.0 0.3280117 0.9446737 0.0 0.3280117 0.9446737 0.0 0.8928956 0.4502637 0.0 0.8928956 0.4502637 0.0 0.8928956 0.4502637 0.0 0.8928956 0.4502637 0.0 0.9561118 -0.293002 0.0 0.9561118 -0.293002 0.0 0.9561118 -0.293002 0.0 0.9561118 -0.293002 0.0 -0.4608152 0.8874961 0.0 -0.4608153 0.8874962 0.0 -0.4608152 0.8874961 0.0 -0.4608152 0.8874961 0.0 -0.1838064 0.9829625 0.0 -0.1838064 0.9829624 0.0 -0.1838064 0.9829625 0.0 -0.1838064 0.9829625 0.0 0.4219705 0.9066097 0.0 0.4219704 0.9066096 0.0 0.4219705 0.9066097 0.0 0.4219705 0.9066097 0.0 0.3022441 0.9532306 0.0 0.3022441 0.9532306 0.0 0.3022441 0.9532306 0.0 0.3022441 0.9532306 0.0 0.8994271 0.4370709 0.0 0.8994271 0.4370709 0.0 0.8994271 0.4370709 0.0 0.8994271 0.4370709 0.0 -0.4401572 0.8979207 0.0 -0.4401572 0.8979207 0.0 -0.4401572 0.8979207 0.0 -0.4401572 0.8979208 0.0 -0.8944273 -0.4472135 0.0 -0.8944273 -0.4472135 0.0 -0.8944273 -0.4472135 0.0 -0.8944272 -0.4472135 0.0 -0.8989898 -0.4379697 0.0 -0.8989897 -0.4379696 0.0 -0.8989898 -0.4379697 0.0 -0.8989898 -0.4379697 0.0 -0.8969307 -0.4421711 0.0 -0.8969307 -0.4421711 0.0 -0.8969307 -0.4421711 0.0 -0.8969307 -0.4421711 0.0 -0.8917496 0.4525292 0.0 -0.8917496 0.4525292 0.0 -0.8917496 0.4525292 0.0 -0.8917496 0.4525292 0.0 0.9850304 0.1723803 0.0 0.9850305 0.1723803 0.0 0.9850304 0.1723803 0.0 0.9850305 0.1723803 0.0 0.4501631 -0.8929464 0.0 0.4501631 -0.8929464 0.0 0.4501631 -0.8929464 0.0 0.4501631 -0.8929464 0.0 0.0 0.0 -1.0 0.0 0.0 -1.0 0.0 0.0 -1.0 0.0 0.0 -1.0 0.0 0.0 -1.0 0.0 0.0 -1.0 0.0 0.0 -1.0 0.0 0.0 -1.0 0.0 0.0 -1.0 0.0 0.0 -1.0 0.0 0.0 -1.0 0.0 0.0 -1.0 0.0 0.0 -1.0 0.0 0.0 -1.0 0.0 0.0 -1.0 0.0 0.0 -1.0 0.0 0.0 -1.0 0.0 0.0 -1.0 0.0 0.0 -1.0 0.0 0.0 -1.0 0.0 0.0 -1.0 0.0 0.0 -1.0</float_array>
                    <technique_common>
                        <accessor count="146" source="#geometry0-normal-array" stride="3">
                            <param name="X" type="float"/>
                            <param name="Y" type="float"/>
                            <param name="Z" type="float"/>
                        </accessor>
                    </technique_common>
                </source>
                <vertices id="geometry0-vertex">
                    <input semantic="POSITION" source="#geometry0-position"/>
                </vertices>
                <triangles count="66" material="default_ai_0.2_sh_0.2_tr_0.0_dc_r_0.8_g_0.8_b_0.8_sc_r_1.0_g_1.0_b_1.0_ec_r_0.0_g_0.0_b_0_tri">
                    <input offset="0" semantic="VERTEX" source="#geometry0-vertex"/>
                    <input offset="1" semantic="NORMAL" source="#geometry0-normal"/>
                    <p>17 0 20 1 21 2 17 0 21 2 18 3 8 4 9 5 10 6 8 4 10 6 11 7 9 8 36 9 45 10 9 8 45 10 10 11 36 25 35 26 42 27 36 25 42 27 45 28 5 29 4 30 28 31 22 32 23 33 24 34 22 32 24 34 25 35 39 36 35 37 34 38 12 39 13 40 14 41 12 39 14 41 15 42 5 43 33 44 40 45 5 43 40 45 6 46 4 64 5 65 6 66 4 64 6 66 7 67 23 68 4 69 7 70 23 68 7 70 24 71 1 72 12 73 15 74 1 72 15 74 2 75 39 76 38 77 44 78 39 76 44 78 41 79 29 80 26 81 27 82 29 80 27 82 30 83 16 84 17 85 18 86 16 84 18 86 19 87 26 88 22 89 25 90 26 88 25 90 27 91 33 92 0 93 3 94 33 92 3 94 40 95 37 96 29 97 30 98 37 96 30 98 43 99 31 100 8 101 11 102 31 100 11 102 32 103 20 104 37 105 43 106 20 104 43 106 21 107 35 108 39 109 41 110 35 108 41 110 42 111 38 112 16 113 19 114 38 112 19 114 44 115 0 116 1 117 2 118 0 116 2 118 3 119 13 120 31 121 32 122 13 120 32 122 14 123 27 124 25 125 24 126 27 124 24 126 7 127 30 128 27 124 7 127 43 129 30 128 7 127 21 130 43 129 7 127 18 131 21 130 7 127 18 131 7 127 6 132 18 131 6 132 40 133 18 131 40 133 3 134 18 131 3 134 2 135 18 131 2 135 15 136 18 131 15 136 14 137 19 138 18 131 14 137 44 139 19 138 14 137 41 140 44 139 14 137 45 141 42 142 41 140 10 143 45 141 41 140 11 144 10 143 41 140 11 144 41 140 14 137 11 144 14 137 32 145</p>
                </triangles>
                <triangles count="22" material="default_ai_0.2_sh_0.2_tr_0.0_dc_r_1.0_g_0.2_b_0.2_sc_r_1.0_g_1.0_b_1.0_ec_r_0.0_g_0.0_b_0_tri">
                    <input offset="0" semantic="VERTEX" source="#geometry0-vertex"/>
                    <input offset="1" semantic="NORMAL" source="#geometry0-normal"/>
                    <p>31 12 13 13 8 14 13 13 12 15 8 14 12 15 1 16 8 14 1 16 0 17 8 14 8 14 0 17 9 18 0 17 33 19 9 18 33 19 5 20 9 18 5 20 28 21 9 18 28 21 34 22 9 18 9 18 34 22 36 23 36 23 34 22 35 24 23 47 22 48 4 49 22 48 26 50 4 49 26 50 29 51 4 49 29 51 37 52 4 49 37 52 20 53 4 49 4 54 20 55 28 56 28 57 20 58 34 59 20 58 17 60 34 59 34 59 17 60 39 61 39 61 17 60 38 62 38 62 17 60 16 63</p>
                </triangles>
            </mesh>
        </geometry>
    </library_geometries>
    <library_visual_scenes>
        <visual_scene id="Building_DEBW_52210003sHB">
            <node>
                <instance_geometry url="#geometry0">
                    <bind_material>
                        <technique_common>
                            <instance_material symbol="default_ai_0.2_sh_0.2_tr_0.0_dc_r_0.8_g_0.8_b_0.8_sc_r_1.0_g_1.0_b_1.0_ec_r_0.0_g_0.0_b_0_tri" target="#default_ai_0.2_sh_0.2_tr_0.0_dc_r_0.8_g_0.8_b_0.8_sc_r_1.0_g_1.0_b_1.0_ec_r_0.0_g_0.0_b_0_mat"/>
                            <instance_material symbol="default_ai_0.2_sh_0.2_tr_0.0_dc_r_1.0_g_0.2_b_0.2_sc_r_1.0_g_1.0_b_1.0_ec_r_0.0_g_0.0_b_0_tri" target="#default_ai_0.2_sh_0.2_tr_0.0_dc_r_1.0_g_0.2_b_0.2_sc_r_1.0_g_1.0_b_1.0_ec_r_0.0_g_0.0_b_0_mat"/>
                        </technique_common>
                    </bind_material>
                </instance_geometry>
            </node>
        </visual_scene>
    </library_visual_scenes>
    <scene>
        <instance_visual_scene url="#Building_DEBW_52210003sHB"/>
    </scene>
</COLLADA>
