<?xml version="1.0" encoding="UTF-8" standalone="yes"?>
<COLLADA xmlns="http://www.collada.org/2005/11/COLLADASchema" version="1.4.1">
    <asset>
        <contributor>
            <authoring_tool>3D City Database Importer/Exporter, version 5.5.3; Chair of Geoinformatics, Technical University of Munich</authoring_tool>
        </contributor>
        <created>2026-05-06T15:12:07.484</created>
        <modified>2026-05-06T15:12:07.484</modified>
        <unit meter="1.0" name="meters"/>
        <up_axis>Z_UP</up_axis>
    </asset>
    <library_materials>
        <material id="default_ai_0.2_sh_0.2_tr_0.0_dc_r_1.0_g_0.2_b_0.2_sc_r_1.0_g_1.0_b_1.0_ec_r_0.0_g_0.0_b_0_mat">
            <instance_effect url="#default_ai_0.2_sh_0.2_tr_0.0_dc_r_1.0_g_0.2_b_0.2_sc_r_1.0_g_1.0_b_1.0_ec_r_0.0_g_0.0_b_0_eff"/>
        </material>
        <material id="default_ai_0.2_sh_0.2_tr_0.0_dc_r_0.8_g_0.8_b_0.8_sc_r_1.0_g_1.0_b_1.0_ec_r_0.0_g_0.0_b_0_mat">
            <instance_effect url="#default_ai_0.2_sh_0.2_tr_0.0_dc_r_0.8_g_0.8_b_0.8_sc_r_1.0_g_1.0_b_1.0_ec_r_0.0_g_0.0_b_0_eff"/>
        </material>
    </library_materials>
    <library_effects>
        <effect id="default_ai_0.2_sh_0.2_tr_0.0_dc_r_1.0_g_0.2_b_0.2_sc_r_1.0_g_1.0_b_1.0_ec_r_0.0_g_0.0_b_0_eff">
            <profile_COMMON>
                <technique sid="COMMON">
                    <lambert>
                        <emission>
                            <color>0.0 0.0 0.0 1.0</color>
                        </emission>
                        <diffuse>
                            <color>1.0 0.2 0.2 1.0</color>
                        </diffuse>
                        <reflective>
                            <color>1.0 1.0 1.0 1.0</color>
                        </reflective>
                        <reflectivity>
                            <float>0.2</float>
                        </reflectivity>
                        <transparent opaque="A_ONE">
                            <color>1.0 1.0 1.0 1.0</color>
                        </transparent>
                        <transparency>
                            <float>1.0</float>
                        </transparency>
                    </lambert>
                </technique>
                <extra>
                    <technique profile="GOOGLEEARTH">
                        <double_sided>0</double_sided>
                    </technique>
                </extra>
            </profile_COMMON>
        </effect>
        <effect id="default_ai_0.2_sh_0.2_tr_0.0_dc_r_0.8_g_0.8_b_0.8_sc_r_1.0_g_1.0_b_1.0_ec_r_0.0_g_0.0_b_0_eff">
            <profile_COMMON>
                <technique sid="COMMON">
                    <lambert>
                        <emission>
                            <color>0.0 0.0 0.0 1.0</color>
                        </emission>
                        <diffuse>
                            <color>0.8 0.8 0.8 1.0</color>
                        </diffuse>
                        <reflective>
                            <color>1.0 1.0 1.0 1.0</color>
                        </reflective>
                        <reflectivity>
                            <float>0.2</float>
                        </reflectivity>
                        <transparent opaque="A_ONE">
                            <color>1.0 1.0 1.0 1.0</color>
                        </transparent>
                        <transparency>
                            <float>1.0</float>
                        </transparency>
                    </lambert>
                </technique>
                <extra>
                    <technique profile="GOOGLEEARTH">
                        <double_sided>0</double_sided>
                    </technique>
                </extra>
            </profile_COMMON>
        </effect>
    </library_effects>
    <library_geometries>
        <geometry id="geometry0">
            <mesh>
                <source id="geometry0-position">
                    <float_array id="geometry0-position-array" count="54">5.17 -0.21 8.746 0.0 0.0 14.354 0.0 0.0 0.0 5.17 -0.21 0.0 5.67 13.16 8.746 5.651 12.65 8.746 5.651 12.65 0.0 5.67 13.16 0.0 -4.68 13.48 8.746 0.495 13.32 14.357 0.495 13.32 0.0 -4.68 13.48 0.0 -4.97 5.74 8.741 -4.97 5.74 0.0 5.189 0.3 8.746 5.189 0.3 0.0 -5.17 0.21 8.746 -5.17 0.21 0.0</float_array>
                    <technique_common>
                        <accessor count="18" source="#geometry0-position-array" stride="3">
                            <param name="X" type="float"/>
                            <param name="Y" type="float"/>
                            <param name="Z" type="float"/>
                        </accessor>
                    </technique_common>
                </source>
                <source id="geometry0-normal">
                    <float_array id="geometry0-normal-array" count="168">-0.7450197 0.0275172 0.6664746 -0.734458 0.0271413 0.6781112 -0.7344459 0.0271303 0.6781248 -0.7502331 0.0277027 0.6605929 -0.7656139 0.0282706 0.642679 -0.9992988 0.0374414 0.0 -0.9992989 0.0374414 0.0 -0.9992988 0.0374414 0.0 -0.9992988 0.0374414 0.0 0.9993067 -0.0372292 0.0 0.9993067 -0.0372292 0.0 0.9993067 -0.0372292 0.0 0.9993067 -0.0372292 0.0 -0.0405855 -0.9991761 0.0 -0.0405855 -0.9991761 0.0 -0.0405855 -0.9991761 0.0 -0.0405855 -0.9991761 0.0 0.0 0.0 -1.0 0.0 0.0 -1.0 0.0 0.0 -1.0 0.0 0.0 -1.0 0.0 0.0 -1.0 0.0 0.0 -1.0 0.0 0.0 -1.0 0.0 0.0 -1.0 0.0 0.0 -1.0 -0.0405855 -0.9991761 0.0 -0.0405855 -0.9991761 0.0 -0.0405855 -0.9991761 0.0 -0.0405855 -0.9991761 0.0 0.9993011 -0.0373828 0.0 0.9993011 -0.0373828 0.0 0.9993011 -0.0373828 0.0 0.9993011 -0.0373828 0.0 0.0309031 0.9995224 0.0 0.0309031 0.9995224 0.0 0.0309031 0.9995224 0.0 0.0309031 0.9995224 0.0 0.734374 -0.0274014 0.6781917 0.7344226 -0.0274455 0.6781373 0.7344119 -0.02741 0.6781503 0.7343879 -0.0274161 0.6781761 0.7344498 -0.0274187 0.6781089 0.7344494 -0.0273624 0.6781116 0.9993067 -0.0372292 0.0 0.9993067 -0.0372292 0.0 0.9993067 -0.0372292 0.0 0.9993067 -0.0372292 0.0 0.0309031 0.9995224 0.0 0.0309031 0.9995224 0.0 0.0309031 0.9995224 0.0 0.0309031 0.9995224 0.0 -0.9993466 0.0361428 0.0 -0.9993466 0.0361428 0.0 -0.9993466 0.0361428 0.0 -0.9993467 0.0361428 0.0</float_array>
                    <technique_common>
                        <accessor count="56" source="#geometry0-normal-array" stride="3">
                            <param name="X" type="float"/>
                            <param name="Y" type="float"/>
                            <param name="Z" type="float"/>
                        </accessor>
                    </technique_common>
                </source>
                <vertices id="geometry0-vertex">
                    <input semantic="POSITION" source="#geometry0-position"/>
                </vertices>
                <triangles count="25" material="default_ai_0.2_sh_0.2_tr_0.0_dc_r_0.8_g_0.8_b_0.8_sc_r_1.0_g_1.0_b_1.0_ec_r_0.0_g_0.0_b_0_tri">
                    <input offset="0" semantic="VERTEX" source="#geometry0-vertex"/>
                    <input offset="1" semantic="NORMAL" source="#geometry0-normal"/>
                    <p>12 5 8 6 11 7 12 5 11 7 13 8 14 9 0 10 3 11 14 9 3 11 15 12 1 13 16 14 17 15 1 13 17 15 2 16 3 17 2 18 15 19 15 19 2 18 6 20 6 20 2 18 7 21 7 21 2 18 10 22 10 22 2 18 11 23 11 23 2 18 13 24 13 24 2 18 17 25 0 26 1 27 2 28 0 26 2 28 3 29 5 30 14 31 15 32 5 30 15 32 6 33 9 34 4 35 7 36 9 34 7 36 10 37 4 44 5 45 6 46 4 44 6 46 7 47 8 48 9 49 10 50 8 48 10 50 11 51 16 52 12 53 13 54 16 52 13 54 17 55</p>
                </triangles>
                <triangles count="7" material="default_ai_0.2_sh_0.2_tr_0.0_dc_r_1.0_g_0.2_b_0.2_sc_r_1.0_g_1.0_b_1.0_ec_r_0.0_g_0.0_b_0_tri">
                    <input offset="0" semantic="VERTEX" source="#geometry0-vertex"/>
                    <input offset="1" semantic="NORMAL" source="#geometry0-normal"/>
                    <p>16 0 1 1 9 2 16 0 9 2 8 3 16 0 8 3 12 4 4 38 9 39 1 40 5 41 4 38 1 40 14 42 5 41 1 40 14 42 1 40 0 43</p>
                </triangles>
            </mesh>
        </geometry>
    </library_geometries>
    <library_visual_scenes>
        <visual_scene id="Building_DEBW_5221000QjuW">
            <node>
                <instance_geometry url="#geometry0">
                    <bind_material>
                        <technique_common>
                            <instance_material symbol="default_ai_0.2_sh_0.2_tr_0.0_dc_r_0.8_g_0.8_b_0.8_sc_r_1.0_g_1.0_b_1.0_ec_r_0.0_g_0.0_b_0_tri" target="#default_ai_0.2_sh_0.2_tr_0.0_dc_r_0.8_g_0.8_b_0.8_sc_r_1.0_g_1.0_b_1.0_ec_r_0.0_g_0.0_b_0_mat"/>
                            <instance_material symbol="default_ai_0.2_sh_0.2_tr_0.0_dc_r_1.0_g_0.2_b_0.2_sc_r_1.0_g_1.0_b_1.0_ec_r_0.0_g_0.0_b_0_tri" target="#default_ai_0.2_sh_0.2_tr_0.0_dc_r_1.0_g_0.2_b_0.2_sc_r_1.0_g_1.0_b_1.0_ec_r_0.0_g_0.0_b_0_mat"/>
                        </technique_common>
                    </bind_material>
                </instance_geometry>
            </node>
        </visual_scene>
    </library_visual_scenes>
    <scene>
        <instance_visual_scene url="#Building_DEBW_5221000QjuW"/>
    </scene>
</COLLADA>
