<?xml version="1.0" encoding="UTF-8" standalone="yes"?>
<COLLADA xmlns="http://www.collada.org/2005/11/COLLADASchema" version="1.4.1">
    <asset>
        <contributor>
            <authoring_tool>3D City Database Importer/Exporter, version 5.5.3; Chair of Geoinformatics, Technical University of Munich</authoring_tool>
        </contributor>
        <created>2026-05-06T15:12:07.863</created>
        <modified>2026-05-06T15:12:07.863</modified>
        <unit meter="1.0" name="meters"/>
        <up_axis>Z_UP</up_axis>
    </asset>
    <library_materials>
        <material id="default_ai_0.2_sh_0.2_tr_0.0_dc_r_0.8_g_0.8_b_0.8_sc_r_1.0_g_1.0_b_1.0_ec_r_0.0_g_0.0_b_0_mat">
            <instance_effect url="#default_ai_0.2_sh_0.2_tr_0.0_dc_r_0.8_g_0.8_b_0.8_sc_r_1.0_g_1.0_b_1.0_ec_r_0.0_g_0.0_b_0_eff"/>
        </material>
        <material id="default_ai_0.2_sh_0.2_tr_0.0_dc_r_1.0_g_0.2_b_0.2_sc_r_1.0_g_1.0_b_1.0_ec_r_0.0_g_0.0_b_0_mat">
            <instance_effect url="#default_ai_0.2_sh_0.2_tr_0.0_dc_r_1.0_g_0.2_b_0.2_sc_r_1.0_g_1.0_b_1.0_ec_r_0.0_g_0.0_b_0_eff"/>
        </material>
    </library_materials>
    <library_effects>
        <effect id="default_ai_0.2_sh_0.2_tr_0.0_dc_r_0.8_g_0.8_b_0.8_sc_r_1.0_g_1.0_b_1.0_ec_r_0.0_g_0.0_b_0_eff">
            <profile_COMMON>
                <technique sid="COMMON">
                    <lambert>
                        <emission>
                            <color>0.0 0.0 0.0 1.0</color>
                        </emission>
                        <diffuse>
                            <color>0.8 0.8 0.8 1.0</color>
                        </diffuse>
                        <reflective>
                            <color>1.0 1.0 1.0 1.0</color>
                        </reflective>
                        <reflectivity>
                            <float>0.2</float>
                        </reflectivity>
                        <transparent opaque="A_ONE">
                            <color>1.0 1.0 1.0 1.0</color>
                        </transparent>
                        <transparency>
                            <float>1.0</float>
                        </transparency>
                    </lambert>
                </technique>
                <extra>
                    <technique profile="GOOGLEEARTH">
                        <double_sided>0</double_sided>
                    </technique>
                </extra>
            </profile_COMMON>
        </effect>
        <effect id="default_ai_0.2_sh_0.2_tr_0.0_dc_r_1.0_g_0.2_b_0.2_sc_r_1.0_g_1.0_b_1.0_ec_r_0.0_g_0.0_b_0_eff">
            <profile_COMMON>
                <technique sid="COMMON">
                    <lambert>
                        <emission>
                            <color>0.0 0.0 0.0 1.0</color>
                        </emission>
                        <diffuse>
                            <color>1.0 0.2 0.2 1.0</color>
                        </diffuse>
                        <reflective>
                            <color>1.0 1.0 1.0 1.0</color>
                        </reflective>
                        <reflectivity>
                            <float>0.2</float>
                        </reflectivity>
                        <transparent opaque="A_ONE">
                            <color>1.0 1.0 1.0 1.0</color>
                        </transparent>
                        <transparency>
                            <float>1.0</float>
                        </transparency>
                    </lambert>
                </technique>
                <extra>
                    <technique profile="GOOGLEEARTH">
                        <double_sided>0</double_sided>
                    </technique>
                </extra>
            </profile_COMMON>
        </effect>
    </library_effects>
    <library_geometries>
        <geometry id="geometry0">
            <mesh>
                <source id="geometry0-position">
                    <float_array id="geometry0-position-array" count="306">-0.179 0.092 11.447 0.0 0.0 11.454 0.0 0.0 0.0 -0.179 0.092 0.0 -1.943 0.169 11.524 -1.751 0.229 11.504 -1.751 0.229 0.0 -1.943 0.169 0.0 -2.308 0.001 11.572 -2.129 0.093 11.547 -2.129 0.093 0.0 -2.308 0.001 0.0 -32.148 0.744 12.969 -26.658 8.864 11.288 -26.658 8.864 0.0 -32.148 0.744 0.0 -36.648 -5.896 14.343 -36.648 -5.896 0.0 0.33 -0.229 11.476 0.479 -0.364 11.492 0.479 -0.364 0.0 0.33 -0.229 0.0 -1.618 -14.906 0.0 -7.638 -23.896 0.0 -2.628 -29.626 0.0 -20.358 -55.976 0.0 -36.188 -37.706 0.0 -35.388 -25.776 0.0 -37.878 -24.086 0.0 -24.184 8.314 0.0 -21.73 7.677 0.0 -19.301 6.954 0.0 -16.899 6.145 0.0 -14.527 5.251 0.0 -12.188 4.274 0.0 -3.078 -0.636 0.0 -2.478 -0.106 0.0 -1.554 0.272 0.0 -1.355 0.298 0.0 -1.154 0.306 0.0 -0.953 0.298 0.0 -0.754 0.272 0.0 -0.557 0.228 0.0 -0.365 0.168 0.0 0.17 -0.108 0.0 0.616 -0.511 0.0 0.74 -0.67 0.0 0.849 -0.839 0.0 0.944 -1.016 0.0 1.023 -1.201 0.0 1.086 -1.392 0.0 1.132 -1.588 0.0 1.161 -1.787 0.0 1.172 -1.988 0.0 1.166 -2.189 0.0 1.143 -2.389 0.0 1.103 -2.586 0.0 1.046 -2.779 0.0 0.972 -2.966 0.0 -0.008 -4.506 0.0 3.482 -7.276 0.0 0.944 -1.016 11.581 1.023 -1.201 11.608 -16.899 6.145 11.258 -14.527 5.251 11.291 1.172 -1.988 11.737 1.166 -2.189 11.771 -2.628 -29.626 13.57 -20.358 -55.976 5.813 1.046 -2.779 11.879 0.972 -2.966 11.915 -21.73 7.677 11.241 -19.301 6.954 11.242 1.086 -1.392 11.638 1.132 -1.588 11.67 -12.188 4.274 11.34 -3.078 -0.636 11.721 -1.618 -14.906 14.106 3.482 -7.276 12.53 -0.008 -4.506 12.231 1.103 -2.586 11.843 1.143 -2.389 11.807 1.161 -1.787 11.702 0.849 -0.839 11.555 0.74 -0.67 11.531 0.616 -0.511 11.51 0.17 -0.108 11.464 -0.365 0.168 11.443 -0.557 0.228 11.443 -0.754 0.272 11.445 -0.953 0.298 11.451 -1.154 0.306 11.46 -1.355 0.298 11.472 -1.554 0.272 11.486 -2.478 -0.106 11.599 -24.184 8.314 11.257 -37.057 -11.938 15.406 -5.831 -21.197 15.406 -36.188 -37.706 9.145 -35.388 -25.776 12.131 -7.638 -23.896 14.612 -37.878 -24.086 12.365</float_array>
                    <technique_common>
                        <accessor count="102" source="#geometry0-position-array" stride="3">
                            <param name="X" type="float"/>
                            <param name="Y" type="float"/>
                            <param name="Z" type="float"/>
                        </accessor>
                    </technique_common>
                </source>
                <source id="geometry0-normal">
                    <float_array id="geometry0-normal-array" count="930">0.4744456 0.8802848 0.0 0.4744456 0.8802848 0.0 0.4744456 0.8802848 0.0 0.4744456 0.8802849 0.0 0.1295522 0.9915726 0.0 0.1295522 0.9915726 0.0 0.1295522 0.9915726 0.0 0.1295522 0.9915726 0.0 -0.6620346 0.7494733 0.0 -0.6620346 0.7494733 0.0 -0.6620346 0.7494733 0.0 -0.6620346 0.7494733 0.0 0.8811097 0.472912 0.0 0.8811097 0.472912 0.0 0.8811097 0.472912 0.0 0.8811097 0.472912 0.0 0.8436615 -0.5368755 0.0 0.8436614 -0.5368755 0.0 0.8436615 -0.5368755 0.0 0.8436615 -0.5368755 0.0 0.9800025 -0.1989851 0.0 0.9800025 -0.1989851 0.0 0.9800025 -0.1989851 0.0 0.9800025 -0.1989851 0.0 -0.3782452 0.9257054 0.0 -0.3782452 0.9257054 0.0 -0.3782452 0.9257054 0.0 -0.3782452 0.9257054 0.0 0.6216797 0.7832716 0.0 0.6216797 0.7832716 0.0 0.6216797 0.7832716 0.0 0.6216797 0.7832716 0.0 0.0397694 0.9992089 0.0 0.0397694 0.9992089 0.0 0.0397694 0.9992089 0.0 0.0397694 0.9992089 0.0 0.9298421 -0.3679588 0.0 0.9298421 -0.3679588 0.0 0.9298421 -0.3679588 0.0 0.9298421 -0.3679588 0.0 0.4571235 0.8894032 0.0 0.4571235 0.8894032 0.0 0.4571235 0.8894032 0.0 0.4571235 0.8894032 0.0 0.9590484 -0.2832423 0.0 0.9590483 -0.2832423 0.0 0.9590484 -0.2832423 0.0 0.9590484 -0.2832423 0.0 -0.9977197 0.0674933 -2.57E-4 -0.9977197 0.0674933 -2.57E-4 -0.9977197 0.0674933 -2.57E-4 -0.2982751 0.9544799 0.0 -0.2982751 0.95448 0.0 -0.2982751 0.9544799 0.0 -0.2982751 0.9544799 0.0 0.2179795 0.9759533 0.0 0.2179795 0.9759533 0.0 0.2179795 0.9759533 0.0 0.2179795 0.9759533 0.0 -0.4571232 0.8894033 0.0 -0.4571232 0.8894033 0.0 -0.4571232 0.8894033 0.0 -0.4571232 0.8894034 0.0 0.2852839 0.958443 0.0 0.2852839 0.958443 0.0 0.2852839 0.958443 0.0 0.2852839 0.958443 0.0 -0.9977216 0.0674655 0.0 -0.9977216 0.0674655 0.0 -0.9977216 0.0674655 0.0 -0.9977216 0.0674655 0.0 0.8313791 -0.5557056 0.0 0.8313791 -0.5557056 0.0 0.8313791 -0.5557056 0.0 0.8313791 -0.5557056 0.0 0.8309109 -0.5564054 0.0 0.830911 -0.5564054 0.0 0.8309109 -0.5564054 0.0 0.8309109 -0.5564054 0.0 0.3854274 0.9227382 0.0 0.3854274 0.9227381 0.0 0.3854274 0.9227382 0.0 0.3854274 0.9227381 0.0 0.2982751 0.9544799 0.0 0.2982751 0.9544799 0.0 0.2982751 0.9544799 0.0 0.2982751 0.9544799 0.0 0.7885505 0.6149701 0.0 0.7885505 0.6149701 0.0 0.7885505 0.6149701 0.0 0.7885504 0.61497 0.0 -0.8284228 0.5601034 0.0 -0.8284227 0.5601034 0.0 -0.8284228 0.5601034 0.0 -0.8284228 0.5601034 0.0 -0.755771 -0.654836 0.0 -0.755771 -0.654836 0.0 -0.755771 -0.654836 0.0 -0.755771 -0.654836 0.0 -0.0704691 -0.237773 0.9687611 -0.0704832 -0.2377492 0.968766 -0.0704889 -0.2377518 0.9687649 -0.0704976 -0.2377817 0.9687569 -0.0705014 -0.2377992 0.9687524 -0.0705034 -0.237783 0.9687561 -0.0704169 -0.2377681 0.9687661 -0.0703293 -0.2377596 0.9687746 0.9895477 0.1442057 0.0 0.9895477 0.1442058 0.0 0.9895477 0.1442057 0.0 0.9895478 0.1442058 0.0 0.9496731 0.3132428 0.0 0.9496731 0.3132428 0.0 0.9496731 0.3132428 0.0 0.9496731 0.3132428 0.0 0.2512496 0.9679223 0.0 0.2512496 0.9679223 0.0 0.2512496 0.9679223 0.0 0.2512496 0.9679223 0.0 -0.8278066 0.5610136 0.0 -0.8278067 0.5610136 0.0 -0.8278066 0.5610136 0.0 -0.8278066 0.5610135 0.0 0.8403698 0.5420135 0.0 0.8403698 0.5420136 0.0 0.8403698 0.5420135 0.0 0.8403698 0.5420135 0.0 0.9985058 0.0546448 0.0 0.9985059 0.0546448 0.0 0.9985058 0.0546448 0.0 0.9985058 0.0546448 0.0 0.3782452 0.9257054 0.0 0.3782452 0.9257055 0.0 0.3782452 0.9257054 0.0 0.3782452 0.9257054 0.0 0.8309187 -0.5563938 2.974E-4 0.8309187 -0.5563938 2.974E-4 0.8309187 -0.5563938 2.974E-4 0.9934524 -0.114247 0.0 0.9934524 -0.114247 0.0 0.9934524 -0.114247 0.0 0.9934524 -0.114247 0.0 0.671434 0.7410643 0.0 0.671434 0.7410643 0.0 0.671434 0.7410643 0.0 0.6714341 0.7410643 0.0 0.0 0.0 -1.0 0.0 0.0 -1.0 0.0 0.0 -1.0 0.0 0.0 -1.0 0.0 0.0 -1.0 0.0 0.0 -1.0 0.0 0.0 -1.0 0.0 0.0 -1.0 0.0 0.0 -1.0 0.0 0.0 -1.0 0.0 0.0 -1.0 0.0 0.0 -1.0 0.0 0.0 -1.0 0.0 0.0 -1.0 0.0 0.0 -1.0 0.0 0.0 -1.0 0.0 0.0 -1.0 0.0 0.0 -1.0 0.0 0.0 -1.0 0.0 0.0 -1.0 0.0 0.0 -1.0 0.0 0.0 -1.0 0.0 0.0 -1.0 0.0 0.0 -1.0 0.0 0.0 -1.0 0.0 0.0 -1.0 0.0 0.0 -1.0 0.0 0.0 -1.0 0.0 0.0 -1.0 0.0 0.0 -1.0 0.0 0.0 -1.0 0.0 0.0 -1.0 0.0 0.0 -1.0 0.0 0.0 -1.0 0.0 0.0 -1.0 0.0 0.0 -1.0 0.0 0.0 -1.0 0.0 0.0 -1.0 0.0 0.0 -1.0 0.0 0.0 -1.0 0.0 0.0 -1.0 0.0 0.0 -1.0 0.0 0.0 -1.0 0.0 0.0 -1.0 0.0 0.0 -1.0 0.0 0.0 -1.0 0.0 0.0 -1.0 0.0 0.0 -1.0 0.0 0.0 -1.0 0.0 0.0 -1.0 0.9196585 0.3927191 0.0 0.9196585 0.3927191 0.0 0.9196585 0.3927191 0.0 0.9196585 0.3927191 0.0 -0.5326816 0.8463157 0.0 -0.5326816 0.8463157 0.0 -0.5326816 0.8463157 0.0 -0.5326816 0.8463157 0.0 0.7528208 0.6582256 0.0 0.7528207 0.6582256 0.0 0.7528208 0.6582256 0.0 0.7528208 0.6582256 0.0 -0.2132532 0.976997 0.0 -0.2132532 0.976997 0.0 -0.2132532 0.976997 0.0 -0.2132532 0.976997 0.0 0.217014 0.9761686 0.0 0.217014 0.9761686 0.0 0.217014 0.9761686 0.0 0.217014 0.9761686 0.0 -0.9977592 0.0669075 0.0 -0.9977592 0.0669075 0.0 -0.9977592 0.0669075 0.0 -0.9977592 0.0669075 0.0 -0.5615827 -0.8274206 0.0 -0.5615827 -0.8274206 0.0 -0.5615827 -0.8274206 0.0 -0.5615827 -0.8274206 0.0 0.3526794 0.9357442 0.0 0.3526794 0.9357442 0.0 0.3526794 0.9357442 0.0 0.3526794 0.9357442 0.0 0.9735473 0.2284855 0.0 0.9735473 0.2284855 0.0 0.9735473 0.2284855 0.0 0.9735473 0.2284855 0.0 0.9995548 -0.0298377 0.0 0.9995548 -0.0298377 0.0 0.9995548 -0.0298377 0.0 0.9995548 -0.0298377 0.0 0.6031856 0.7976008 0.0 0.6031857 0.7976009 0.0 0.6031856 0.7976008 0.0 0.6031856 0.7976008 0.0 0.3191853 0.9476924 0.0 0.3191853 0.9476924 0.0 0.3191853 0.9476924 0.0 0.3191853 0.9476923 0.0 -0.1295522 0.9915726 0.0 -0.1295522 0.9915726 0.0 -0.1295522 0.9915726 0.0 -0.1295522 0.9915726 0.0 0.5362328 0.8440702 0.0 0.5362328 0.8440702 0.0 0.5362328 0.8440702 0.0 0.5362328 0.8440701 0.0 0.0503647 0.1694976 0.9842429 0.0503148 0.1696869 0.9842128 0.0503139 0.169675 0.9842149 0.0503148 0.1696488 0.9842193 0.0502804 0.1698034 0.9841945 0.0502964 0.1697639 0.9842004 0.0504611 0.1691146 0.9843038 0.0504478 0.1691575 0.9842972 0.0500922 0.170509 0.9840821 0.0507146 0.1682212 0.9844439 0.0503428 0.1695103 0.9842418 0.0502568 0.1699027 0.9841785 0.0504777 0.1690533 0.9843135 0.0497407 0.1716377 0.9839036 0.0507097 0.1683706 0.9844186 0.0506565 0.1684975 0.9843996 0.04974 0.1715155 0.983925 0.0500474 0.1705416 0.9840786 0.0506477 0.1686422 0.9843752 0.0502932 0.1697239 0.9842075 0.050647 0.1686766 0.9843694 0.050869 0.1679724 0.9844783 0.0499198 0.1708029 0.9840398 0.0495053 0.17202 0.9838487 0.0513164 0.1669078 0.9846362 0.0502995 0.1696594 0.9842184 0.0500042 0.1697728 0.9842138 0.0503379 0.1696726 0.9842141 0.0502582 0.1696887 0.9842153 0.0502868 0.1696917 0.9842134 0.0503278 0.1696316 0.9842216 0.050396 0.1695893 0.9842254 0.0502745 0.1697211 0.9842089 0.0502849 0.1697056 0.9842111 0.0508028 0.168679 0.984361 0.0503172 0.1698535 0.9841838 0.0501945 0.1706461 0.9840531 0.0511738 0.1681497 0.9844323 0.0514843 0.167622 0.9845061 0.0490906 0.1717472 0.9839172 0.0501136 0.1705758 0.9840695 0.0514628 0.1680143 0.9844404 0.0518463 0.1678155 0.9844542 0.0527551 0.1663447 0.9846554 0.0491244 0.1708041 0.9840797 0.0477214 0.1724491 0.9838617 0.8296692 -0.5582555 0.0 0.8296691 -0.5582555 0.0 0.8296692 -0.5582555 0.0 0.8296692 -0.5582555 0.0 -0.0397694 0.9992089 0.0 -0.0397694 0.9992089 0.0 -0.0397694 0.9992089 0.0 -0.0397694 0.9992089 0.0 0.7315515 0.6817862 0.0 0.7315515 0.6817862 0.0 0.7315515 0.6817862 0.0 0.7315515 0.6817861 0.0</float_array>
                    <technique_common>
                        <accessor count="310" source="#geometry0-normal-array" stride="3">
                            <param name="X" type="float"/>
                            <param name="Y" type="float"/>
                            <param name="Z" type="float"/>
                        </accessor>
                    </technique_common>
                </source>
                <vertices id="geometry0-vertex">
                    <input semantic="POSITION" source="#geometry0-position"/>
                </vertices>
                <triangles count="150" material="default_ai_0.2_sh_0.2_tr_0.0_dc_r_0.8_g_0.8_b_0.8_sc_r_1.0_g_1.0_b_1.0_ec_r_0.0_g_0.0_b_0_tri">
                    <input offset="0" semantic="VERTEX" source="#geometry0-vertex"/>
                    <input offset="1" semantic="NORMAL" source="#geometry0-normal"/>
                    <p>75 0 76 1 35 2 75 0 35 2 34 3 90 4 89 5 41 6 90 4 41 6 40 7 76 8 94 9 36 10 76 8 36 10 35 11 83 12 61 13 48 14 83 12 48 14 47 15 70 16 79 17 59 18 70 16 59 18 58 19 81 20 80 21 56 22 81 20 56 22 55 23 9 24 4 25 7 26 9 24 7 26 10 27 79 28 78 29 60 30 79 28 60 30 59 31 91 32 90 33 40 34 91 32 40 34 39 35 69 36 70 37 58 38 69 36 58 38 57 39 0 40 1 41 2 42 0 40 2 42 3 43 80 44 69 45 57 46 80 44 57 46 56 47 16 48 101 49 96 50 4 51 5 52 6 53 4 51 6 53 7 54 89 55 88 56 42 57 89 55 42 57 41 58 8 59 9 60 10 61 8 59 10 61 11 62 71 63 72 64 31 65 71 63 31 65 30 66 101 67 16 68 17 69 101 67 17 69 28 70 78 71 77 72 22 73 78 71 22 73 60 74 77 75 100 76 23 77 77 75 23 77 22 78 64 79 75 80 34 81 64 79 34 81 33 82 88 83 87 84 43 85 88 83 43 85 42 86 85 87 84 88 46 89 85 87 46 89 45 90 12 91 13 92 14 93 12 91 14 93 15 94 68 95 98 96 26 97 68 95 26 97 25 98 74 107 82 108 52 109 74 107 52 109 51 110 62 111 73 112 50 113 62 111 50 113 49 114 95 115 71 116 30 117 95 115 30 117 29 118 16 119 12 120 15 121 16 119 15 121 17 122 84 123 83 124 47 125 84 123 47 125 46 126 82 127 65 128 53 129 82 127 53 129 52 130 87 131 0 132 3 133 87 131 3 133 43 134 100 135 77 136 97 137 66 138 81 139 55 140 66 138 55 140 54 141 18 142 19 143 20 144 18 142 20 144 21 145 59 146 60 147 22 148 59 146 22 148 23 149 57 150 58 151 59 146 56 152 57 150 59 146 55 153 56 152 59 146 54 154 55 153 59 146 53 155 54 154 59 146 52 156 53 155 59 146 51 157 52 156 59 146 51 157 59 146 23 149 50 158 51 157 23 149 49 159 50 158 23 149 48 160 49 159 23 149 47 161 48 160 23 149 46 162 47 161 23 149 45 163 46 162 23 149 20 164 45 163 23 149 21 165 20 164 23 149 44 166 21 165 23 149 2 167 44 166 23 149 3 168 2 167 23 149 43 169 3 168 23 149 42 170 43 169 23 149 41 171 42 170 23 149 40 172 41 171 23 149 39 173 40 172 23 149 38 174 39 173 23 149 37 175 38 174 23 149 6 176 37 175 23 149 7 177 6 176 23 149 10 178 7 177 23 149 11 179 10 178 23 149 36 180 11 179 23 149 35 181 36 180 23 149 34 182 35 181 23 149 33 183 34 182 23 149 32 184 33 183 23 149 31 185 32 184 23 149 30 186 31 185 23 149 29 187 30 186 23 149 14 188 29 187 23 149 15 189 14 188 23 149 15 189 23 149 24 190 15 189 24 190 25 191 15 189 25 191 26 192 15 189 26 192 27 193 15 189 27 193 28 194 15 189 28 194 17 195 61 196 62 197 49 198 61 196 49 198 48 199 94 200 8 201 11 202 94 200 11 202 36 203 100 204 67 205 24 206 100 204 24 206 23 207 5 208 93 209 37 210 5 208 37 210 6 211 13 212 95 213 29 214 13 212 29 214 14 215 98 216 99 217 27 218 98 216 27 218 26 219 99 220 101 221 28 222 99 220 28 222 27 223 63 224 64 225 33 226 63 224 33 226 32 227 73 228 74 229 51 230 73 228 51 230 50 231 65 232 66 233 54 234 65 232 54 234 53 235 86 236 18 237 21 238 86 236 21 238 44 239 72 240 63 241 32 242 72 240 32 242 31 243 93 244 92 245 38 246 93 244 38 246 37 247 1 248 86 249 44 250 1 248 44 250 2 251 67 298 68 299 25 300 67 298 25 300 24 301 92 302 91 303 39 304 92 302 39 304 38 305 19 306 85 307 45 308 19 306 45 308 20 309</p>
                </triangles>
                <triangles count="50" material="default_ai_0.2_sh_0.2_tr_0.0_dc_r_1.0_g_0.2_b_0.2_sc_r_1.0_g_1.0_b_1.0_ec_r_0.0_g_0.0_b_0_tri">
                    <input offset="0" semantic="VERTEX" source="#geometry0-vertex"/>
                    <input offset="1" semantic="NORMAL" source="#geometry0-normal"/>
                    <p>99 99 98 100 68 101 99 99 68 101 67 102 99 99 67 102 100 103 99 99 100 103 97 104 99 99 97 104 96 105 99 99 96 105 101 106 96 252 97 253 77 254 96 252 77 254 78 255 96 252 78 255 79 256 96 252 79 256 70 257 96 252 70 257 69 258 96 252 69 258 80 259 96 252 80 259 81 260 96 252 81 260 66 261 96 252 66 261 65 262 96 252 65 262 82 263 96 252 82 263 74 264 96 252 74 264 73 265 96 252 73 265 62 266 96 252 62 266 61 267 96 252 61 267 83 268 96 252 83 268 84 269 96 252 84 269 85 270 96 252 85 270 19 271 96 252 19 271 18 272 96 252 18 272 86 273 96 252 86 273 1 274 96 252 1 274 0 275 96 252 0 275 87 276 12 277 16 278 96 252 13 279 12 277 96 252 95 280 13 279 96 252 71 281 95 280 96 252 72 282 71 281 96 252 63 283 72 282 96 252 64 284 63 283 96 252 75 285 64 284 96 252 76 286 75 285 96 252 76 286 96 252 87 276 76 286 87 276 88 287 76 286 88 287 89 288 76 286 89 288 90 289 76 286 90 289 91 290 76 286 91 290 92 291 76 286 92 291 93 292 76 286 93 292 5 293 76 286 5 293 4 294 76 286 4 294 9 295 76 286 9 295 8 296 76 286 8 296 94 297</p>
                </triangles>
            </mesh>
        </geometry>
    </library_geometries>
    <library_visual_scenes>
        <visual_scene id="Building_DEBW_5221000Qxpc">
            <node>
                <instance_geometry url="#geometry0">
                    <bind_material>
                        <technique_common>
                            <instance_material symbol="default_ai_0.2_sh_0.2_tr_0.0_dc_r_0.8_g_0.8_b_0.8_sc_r_1.0_g_1.0_b_1.0_ec_r_0.0_g_0.0_b_0_tri" target="#default_ai_0.2_sh_0.2_tr_0.0_dc_r_0.8_g_0.8_b_0.8_sc_r_1.0_g_1.0_b_1.0_ec_r_0.0_g_0.0_b_0_mat"/>
                            <instance_material symbol="default_ai_0.2_sh_0.2_tr_0.0_dc_r_1.0_g_0.2_b_0.2_sc_r_1.0_g_1.0_b_1.0_ec_r_0.0_g_0.0_b_0_tri" target="#default_ai_0.2_sh_0.2_tr_0.0_dc_r_1.0_g_0.2_b_0.2_sc_r_1.0_g_1.0_b_1.0_ec_r_0.0_g_0.0_b_0_mat"/>
                        </technique_common>
                    </bind_material>
                </instance_geometry>
            </node>
        </visual_scene>
    </library_visual_scenes>
    <scene>
        <instance_visual_scene url="#Building_DEBW_5221000Qxpc"/>
    </scene>
</COLLADA>
