<?xml version="1.0" encoding="UTF-8" standalone="yes"?>
<COLLADA xmlns="http://www.collada.org/2005/11/COLLADASchema" version="1.4.1">
    <asset>
        <contributor>
            <authoring_tool>3D City Database Importer/Exporter, version 5.5.3; Chair of Geoinformatics, Technical University of Munich</authoring_tool>
        </contributor>
        <created>2026-05-06T15:12:09.034</created>
        <modified>2026-05-06T15:12:09.034</modified>
        <unit meter="1.0" name="meters"/>
        <up_axis>Z_UP</up_axis>
    </asset>
    <library_materials>
        <material id="default_ai_0.2_sh_0.2_tr_0.0_dc_r_0.8_g_0.8_b_0.8_sc_r_1.0_g_1.0_b_1.0_ec_r_0.0_g_0.0_b_0_mat">
            <instance_effect url="#default_ai_0.2_sh_0.2_tr_0.0_dc_r_0.8_g_0.8_b_0.8_sc_r_1.0_g_1.0_b_1.0_ec_r_0.0_g_0.0_b_0_eff"/>
        </material>
        <material id="default_ai_0.2_sh_0.2_tr_0.0_dc_r_1.0_g_0.2_b_0.2_sc_r_1.0_g_1.0_b_1.0_ec_r_0.0_g_0.0_b_0_mat">
            <instance_effect url="#default_ai_0.2_sh_0.2_tr_0.0_dc_r_1.0_g_0.2_b_0.2_sc_r_1.0_g_1.0_b_1.0_ec_r_0.0_g_0.0_b_0_eff"/>
        </material>
    </library_materials>
    <library_effects>
        <effect id="default_ai_0.2_sh_0.2_tr_0.0_dc_r_0.8_g_0.8_b_0.8_sc_r_1.0_g_1.0_b_1.0_ec_r_0.0_g_0.0_b_0_eff">
            <profile_COMMON>
                <technique sid="COMMON">
                    <lambert>
                        <emission>
                            <color>0.0 0.0 0.0 1.0</color>
                        </emission>
                        <diffuse>
                            <color>0.8 0.8 0.8 1.0</color>
                        </diffuse>
                        <reflective>
                            <color>1.0 1.0 1.0 1.0</color>
                        </reflective>
                        <reflectivity>
                            <float>0.2</float>
                        </reflectivity>
                        <transparent opaque="A_ONE">
                            <color>1.0 1.0 1.0 1.0</color>
                        </transparent>
                        <transparency>
                            <float>1.0</float>
                        </transparency>
                    </lambert>
                </technique>
                <extra>
                    <technique profile="GOOGLEEARTH">
                        <double_sided>0</double_sided>
                    </technique>
                </extra>
            </profile_COMMON>
        </effect>
        <effect id="default_ai_0.2_sh_0.2_tr_0.0_dc_r_1.0_g_0.2_b_0.2_sc_r_1.0_g_1.0_b_1.0_ec_r_0.0_g_0.0_b_0_eff">
            <profile_COMMON>
                <technique sid="COMMON">
                    <lambert>
                        <emission>
                            <color>0.0 0.0 0.0 1.0</color>
                        </emission>
                        <diffuse>
                            <color>1.0 0.2 0.2 1.0</color>
                        </diffuse>
                        <reflective>
                            <color>1.0 1.0 1.0 1.0</color>
                        </reflective>
                        <reflectivity>
                            <float>0.2</float>
                        </reflectivity>
                        <transparent opaque="A_ONE">
                            <color>1.0 1.0 1.0 1.0</color>
                        </transparent>
                        <transparency>
                            <float>1.0</float>
                        </transparency>
                    </lambert>
                </technique>
                <extra>
                    <technique profile="GOOGLEEARTH">
                        <double_sided>0</double_sided>
                    </technique>
                </extra>
            </profile_COMMON>
        </effect>
    </library_effects>
    <library_geometries>
        <geometry id="geometry0">
            <mesh>
                <source id="geometry0-position">
                    <float_array id="geometry0-position-array" count="54">19.42 36.86 22.498 19.3 35.244 26.246 17.89 16.278 26.351 16.703 0.305 26.439 16.59 -1.22 22.318 4.94 -0.36 22.327 0.0 0.0 22.318 0.0 0.0 0.0 4.94 -0.36 0.0 0.03 0.38 22.32 2.83 38.08 22.498 2.83 38.08 0.0 0.03 0.38 0.0 0.115 1.525 26.439 0.03 0.38 23.345 19.42 36.86 0.0 16.59 -1.22 0.0 2.71 36.464 26.246</float_array>
                    <technique_common>
                        <accessor count="18" source="#geometry0-position-array" stride="3">
                            <param name="X" type="float"/>
                            <param name="Y" type="float"/>
                            <param name="Z" type="float"/>
                        </accessor>
                    </technique_common>
                </source>
                <source id="geometry0-normal">
                    <float_array id="geometry0-normal-array" count="180">0.9972494 -0.0741192 2.51E-5 0.9972499 -0.0741132 8.12E-5 0.9972494 -0.0741192 2.51E-5 0.9972489 -0.0741252 -3.09E-5 0.6597159 -0.0448937 0.7501729 0.6597159 -0.0448937 0.7501729 0.6597159 -0.0448937 0.7501729 -0.9968982 0.0787025 0.0 -0.9968982 0.0787025 0.0 -0.9968982 0.0787025 0.0 -0.9968982 0.0787025 0.0 -0.9968982 0.0787025 0.0 -0.9968982 0.0787025 0.0 -0.9968982 0.0787025 0.0 0.0 0.0 -1.0 0.0 0.0 -1.0 0.0 0.0 -1.0 0.0 0.0 -1.0 0.0 0.0 -1.0 0.0 0.0 -1.0 0.0733403 0.9973069 0.0 0.0733403 0.9973069 0.0 0.0733403 0.9973069 0.0 0.0733403 0.9973069 0.0 -0.0726818 -0.9973552 0.0 -0.0726818 -0.9973552 0.0 -0.0726818 -0.9973552 0.0 -0.0726817 -0.9973552 0.0 -0.9972533 0.0740666 0.0 -0.9972533 0.0740666 0.0 -0.9972533 0.0740666 0.0 -0.9972533 0.0740666 0.0 0.9972498 -0.0741128 0.0 0.9972498 -0.0741128 0.0 0.9972498 -0.0741128 0.0 0.9972498 -0.0741128 0.0 -0.0736194 -0.9972864 0.0 -0.0736194 -0.9972864 0.0 -0.0736194 -0.9972864 0.0 -0.0736194 -0.9972864 0.0 3.916E-4 0.0055009 0.9999848 4.04E-4 0.0054938 0.9999848 3.954E-4 0.0054936 0.9999849 3.911E-4 0.0054936 0.9999849 4.03E-4 0.0054792 0.9999849 -0.0687597 -0.9349893 0.3479471 -0.0687673 -0.9350095 0.3478915 -0.0687649 -0.9350067 0.3478993 -0.0687607 -0.9349804 0.3479706 -0.0687598 -0.9349687 0.3480024 -0.0687703 -0.9349829 0.3479621 -0.9972533 0.0740673 -2.6E-6 -0.9972533 0.0740665 5.7E-6 -0.9972532 0.0740668 2.8E-6 -0.9972532 0.0740677 -6.7E-6 -0.9972532 0.0740682 -1.34E-5 0.0673179 0.9154126 0.3968478 0.0673179 0.9154126 0.3968478 0.0673179 0.9154126 0.3968478 0.0673179 0.9154126 0.3968478</float_array>
                    <technique_common>
                        <accessor count="60" source="#geometry0-normal-array" stride="3">
                            <param name="X" type="float"/>
                            <param name="Y" type="float"/>
                            <param name="Z" type="float"/>
                        </accessor>
                    </technique_common>
                </source>
                <vertices id="geometry0-vertex">
                    <input semantic="POSITION" source="#geometry0-position"/>
                </vertices>
                <triangles count="23" material="default_ai_0.2_sh_0.2_tr_0.0_dc_r_0.8_g_0.8_b_0.8_sc_r_1.0_g_1.0_b_1.0_ec_r_0.0_g_0.0_b_0_tri">
                    <input offset="0" semantic="VERTEX" source="#geometry0-vertex"/>
                    <input offset="1" semantic="NORMAL" source="#geometry0-normal"/>
                    <p>3 0 4 1 0 2 3 0 0 2 1 3 3 4 1 5 2 6 6 7 14 8 9 9 6 10 9 11 12 12 6 10 12 12 7 13 12 14 11 15 15 16 12 14 15 16 16 17 12 14 16 17 8 18 12 14 8 18 7 19 10 20 0 21 15 22 10 20 15 22 11 23 5 24 6 25 7 26 5 24 7 26 8 27 9 28 10 29 11 30 9 28 11 30 12 31 0 32 4 33 16 34 0 32 16 34 15 35 4 36 5 37 8 38 4 36 8 38 16 39 17 51 10 52 9 53 17 51 9 53 14 54 17 51 14 54 13 55</p>
                </triangles>
                <triangles count="9" material="default_ai_0.2_sh_0.2_tr_0.0_dc_r_1.0_g_0.2_b_0.2_sc_r_1.0_g_1.0_b_1.0_ec_r_0.0_g_0.0_b_0_tri">
                    <input offset="0" semantic="VERTEX" source="#geometry0-vertex"/>
                    <input offset="1" semantic="NORMAL" source="#geometry0-normal"/>
                    <p>1 40 17 41 13 42 2 43 1 40 13 42 2 43 13 42 3 44 4 45 3 46 13 47 4 45 13 47 14 48 5 49 4 45 14 48 5 49 14 48 6 50 10 56 17 57 1 58 10 56 1 58 0 59</p>
                </triangles>
            </mesh>
        </geometry>
    </library_geometries>
    <library_visual_scenes>
        <visual_scene id="Building_DEBW_5221000QyZ9">
            <node>
                <instance_geometry url="#geometry0">
                    <bind_material>
                        <technique_common>
                            <instance_material symbol="default_ai_0.2_sh_0.2_tr_0.0_dc_r_0.8_g_0.8_b_0.8_sc_r_1.0_g_1.0_b_1.0_ec_r_0.0_g_0.0_b_0_tri" target="#default_ai_0.2_sh_0.2_tr_0.0_dc_r_0.8_g_0.8_b_0.8_sc_r_1.0_g_1.0_b_1.0_ec_r_0.0_g_0.0_b_0_mat"/>
                            <instance_material symbol="default_ai_0.2_sh_0.2_tr_0.0_dc_r_1.0_g_0.2_b_0.2_sc_r_1.0_g_1.0_b_1.0_ec_r_0.0_g_0.0_b_0_tri" target="#default_ai_0.2_sh_0.2_tr_0.0_dc_r_1.0_g_0.2_b_0.2_sc_r_1.0_g_1.0_b_1.0_ec_r_0.0_g_0.0_b_0_mat"/>
                        </technique_common>
                    </bind_material>
                </instance_geometry>
            </node>
        </visual_scene>
    </library_visual_scenes>
    <scene>
        <instance_visual_scene url="#Building_DEBW_5221000QyZ9"/>
    </scene>
</COLLADA>
