<?xml version="1.0" encoding="UTF-8" standalone="yes"?>
<COLLADA xmlns="http://www.collada.org/2005/11/COLLADASchema" version="1.4.1">
    <asset>
        <contributor>
            <authoring_tool>3D City Database Importer/Exporter, version 5.5.3; Chair of Geoinformatics, Technical University of Munich</authoring_tool>
        </contributor>
        <created>2026-05-06T15:12:05.121</created>
        <modified>2026-05-06T15:12:05.121</modified>
        <unit meter="1.0" name="meters"/>
        <up_axis>Z_UP</up_axis>
    </asset>
    <library_materials>
        <material id="default_ai_0.2_sh_0.2_tr_0.0_dc_r_0.8_g_0.8_b_0.8_sc_r_1.0_g_1.0_b_1.0_ec_r_0.0_g_0.0_b_0_mat">
            <instance_effect url="#default_ai_0.2_sh_0.2_tr_0.0_dc_r_0.8_g_0.8_b_0.8_sc_r_1.0_g_1.0_b_1.0_ec_r_0.0_g_0.0_b_0_eff"/>
        </material>
        <material id="default_ai_0.2_sh_0.2_tr_0.0_dc_r_1.0_g_0.2_b_0.2_sc_r_1.0_g_1.0_b_1.0_ec_r_0.0_g_0.0_b_0_mat">
            <instance_effect url="#default_ai_0.2_sh_0.2_tr_0.0_dc_r_1.0_g_0.2_b_0.2_sc_r_1.0_g_1.0_b_1.0_ec_r_0.0_g_0.0_b_0_eff"/>
        </material>
    </library_materials>
    <library_effects>
        <effect id="default_ai_0.2_sh_0.2_tr_0.0_dc_r_0.8_g_0.8_b_0.8_sc_r_1.0_g_1.0_b_1.0_ec_r_0.0_g_0.0_b_0_eff">
            <profile_COMMON>
                <technique sid="COMMON">
                    <lambert>
                        <emission>
                            <color>0.0 0.0 0.0 1.0</color>
                        </emission>
                        <diffuse>
                            <color>0.8 0.8 0.8 1.0</color>
                        </diffuse>
                        <reflective>
                            <color>1.0 1.0 1.0 1.0</color>
                        </reflective>
                        <reflectivity>
                            <float>0.2</float>
                        </reflectivity>
                        <transparent opaque="A_ONE">
                            <color>1.0 1.0 1.0 1.0</color>
                        </transparent>
                        <transparency>
                            <float>1.0</float>
                        </transparency>
                    </lambert>
                </technique>
                <extra>
                    <technique profile="GOOGLEEARTH">
                        <double_sided>0</double_sided>
                    </technique>
                </extra>
            </profile_COMMON>
        </effect>
        <effect id="default_ai_0.2_sh_0.2_tr_0.0_dc_r_1.0_g_0.2_b_0.2_sc_r_1.0_g_1.0_b_1.0_ec_r_0.0_g_0.0_b_0_eff">
            <profile_COMMON>
                <technique sid="COMMON">
                    <lambert>
                        <emission>
                            <color>0.0 0.0 0.0 1.0</color>
                        </emission>
                        <diffuse>
                            <color>1.0 0.2 0.2 1.0</color>
                        </diffuse>
                        <reflective>
                            <color>1.0 1.0 1.0 1.0</color>
                        </reflective>
                        <reflectivity>
                            <float>0.2</float>
                        </reflectivity>
                        <transparent opaque="A_ONE">
                            <color>1.0 1.0 1.0 1.0</color>
                        </transparent>
                        <transparency>
                            <float>1.0</float>
                        </transparency>
                    </lambert>
                </technique>
                <extra>
                    <technique profile="GOOGLEEARTH">
                        <double_sided>0</double_sided>
                    </technique>
                </extra>
            </profile_COMMON>
        </effect>
    </library_effects>
    <library_geometries>
        <geometry id="geometry0">
            <mesh>
                <source id="geometry0-position">
                    <float_array id="geometry0-position-array" count="66">-3.68 -13.63 9.291 6.81 -12.29 8.6 0.979 -13.035 12.306 -6.47 -0.81 8.565 0.0 0.0 11.87 0.0 0.0 0.0 -6.47 -0.81 0.0 -5.76 -6.1 8.584 -5.76 -6.1 0.0 4.75 0.24 8.88 5.64 -7.24 8.925 5.64 -7.24 0.0 4.75 0.24 0.0 6.15 -7.16 0.0 6.81 -12.29 0.0 -3.68 -13.63 0.0 -4.64 -5.96 0.0 0.05 -0.33 0.0 6.15 -7.16 8.6 -4.64 -5.96 9.309 0.05 -0.33 11.865 -0.687 -0.086 12.306</float_array>
                    <technique_common>
                        <accessor count="22" source="#geometry0-position-array" stride="3">
                            <param name="X" type="float"/>
                            <param name="Y" type="float"/>
                            <param name="Z" type="float"/>
                        </accessor>
                    </technique_common>
                </source>
                <source id="geometry0-normal">
                    <float_array id="geometry0-normal-array" count="210">-0.1242186 0.9922549 -9.8E-6 -0.1242186 0.9922549 -9.8E-6 -0.1242186 0.9922549 -9.8E-6 0.9929957 0.1181505 0.0 0.9929957 0.1181505 0.0 0.9929957 0.1181505 0.0 0.9929957 0.1181505 0.0 -0.1549676 0.9879196 0.0 -0.1549676 0.9879196 0.0 -0.1549676 0.9879196 0.0 -0.1549675 0.9879196 0.0 0.9918253 0.1276032 0.0 0.9918253 0.1276032 0.0 0.9918253 0.1276032 0.0 0.9918253 0.1276032 0.0 0.9887155 0.1498054 0.0 0.9887155 0.1498054 0.0 0.9887155 0.1498054 0.0 0.9887156 0.1498054 0.0 0.1267083 -0.99194 -4.29E-5 0.1267083 -0.99194 -4.29E-5 0.1267083 -0.99194 -4.29E-5 0.5319792 0.0681852 0.8440077 0.5285189 0.0679985 0.8461938 0.5309696 0.0681368 0.844647 0.5306168 0.0681473 0.8448679 0.5288659 0.0680629 0.8459718 0.5288783 0.0680596 0.8459643 0.5289857 0.0680298 0.8458996 0.528558 0.0680016 0.8461691 0.1267111 -0.9919397 0.0 0.1267111 -0.9919397 0.0 0.1267111 -0.9919397 0.0 0.1267111 -0.9919397 0.0 -0.5359047 -0.0688651 0.8414652 -0.5360292 -0.0689214 0.8413814 -0.5357937 -0.068913 0.8415321 -0.5357119 -0.0689169 0.8415837 -0.5356776 -0.068971 0.8416011 -0.5357839 -0.0689332 0.8415366 -0.1242235 0.9922543 0.0 -0.1242235 0.9922543 0.0 -0.1242235 0.9922543 0.0 -0.1242235 0.9922543 0.0 -0.1203945 0.9927261 0.0 -0.1203945 0.9927261 0.0 -0.1203945 0.9927261 0.0 -0.1203944 0.9927261 0.0 -0.992258 -0.1241939 0.0 -0.992258 -0.1241939 0.0 -0.992258 -0.1241939 0.0 -0.992258 -0.1241939 0.0 -0.991113 -0.1330226 0.0 -0.991113 -0.1330226 0.0 -0.991113 -0.1330226 0.0 -0.991113 -0.1330226 0.0 0.0 0.0 -1.0 0.0 0.0 -1.0 0.0 0.0 -1.0 0.0 0.0 -1.0 0.0 0.0 -1.0 0.0 0.0 -1.0 0.0 0.0 -1.0 0.0 0.0 -1.0 0.0 0.0 -1.0 0.0 0.0 -1.0 0.1240346 -0.992278 0.0 0.1240346 -0.9922779 0.0 0.1240346 -0.992278 0.0 0.1240346 -0.992278 0.0</float_array>
                    <technique_common>
                        <accessor count="70" source="#geometry0-normal-array" stride="3">
                            <param name="X" type="float"/>
                            <param name="Y" type="float"/>
                            <param name="Z" type="float"/>
                        </accessor>
                    </technique_common>
                </source>
                <vertices id="geometry0-vertex">
                    <input semantic="POSITION" source="#geometry0-position"/>
                </vertices>
                <triangles count="30" material="default_ai_0.2_sh_0.2_tr_0.0_dc_r_0.8_g_0.8_b_0.8_sc_r_1.0_g_1.0_b_1.0_ec_r_0.0_g_0.0_b_0_tri">
                    <input offset="0" semantic="VERTEX" source="#geometry0-vertex"/>
                    <input offset="1" semantic="NORMAL" source="#geometry0-normal"/>
                    <p>4 0 3 1 21 2 9 3 10 4 11 5 9 3 11 5 12 6 10 7 18 8 13 9 10 7 13 9 11 10 18 11 1 12 14 13 18 11 14 13 13 14 4 15 20 16 17 17 4 15 17 17 5 18 0 19 1 20 2 21 1 30 0 31 15 32 1 30 15 32 14 33 3 40 4 41 5 42 3 40 5 42 6 43 20 44 9 45 12 46 20 44 12 46 17 47 0 48 19 49 16 50 0 48 16 50 15 51 7 52 3 53 6 54 7 52 6 54 8 55 6 56 5 57 17 58 8 59 6 56 17 58 8 59 17 58 12 60 16 61 8 59 12 60 16 61 12 60 11 62 15 63 16 61 11 62 15 63 11 62 13 64 15 63 13 64 14 65 19 66 7 67 8 68 19 66 8 68 16 69</p>
                </triangles>
                <triangles count="10" material="default_ai_0.2_sh_0.2_tr_0.0_dc_r_1.0_g_0.2_b_0.2_sc_r_1.0_g_1.0_b_1.0_ec_r_0.0_g_0.0_b_0_tri">
                    <input offset="0" semantic="VERTEX" source="#geometry0-vertex"/>
                    <input offset="1" semantic="NORMAL" source="#geometry0-normal"/>
                    <p>4 22 21 23 2 24 20 25 4 22 2 24 20 25 2 24 1 26 10 27 9 28 20 25 10 27 20 25 1 26 10 27 1 26 18 29 3 34 7 35 19 36 21 37 3 34 19 36 21 37 19 36 0 38 21 37 0 38 2 39</p>
                </triangles>
            </mesh>
        </geometry>
    </library_geometries>
    <library_visual_scenes>
        <visual_scene id="Building_DEBW_5221000QcYK">
            <node>
                <instance_geometry url="#geometry0">
                    <bind_material>
                        <technique_common>
                            <instance_material symbol="default_ai_0.2_sh_0.2_tr_0.0_dc_r_0.8_g_0.8_b_0.8_sc_r_1.0_g_1.0_b_1.0_ec_r_0.0_g_0.0_b_0_tri" target="#default_ai_0.2_sh_0.2_tr_0.0_dc_r_0.8_g_0.8_b_0.8_sc_r_1.0_g_1.0_b_1.0_ec_r_0.0_g_0.0_b_0_mat"/>
                            <instance_material symbol="default_ai_0.2_sh_0.2_tr_0.0_dc_r_1.0_g_0.2_b_0.2_sc_r_1.0_g_1.0_b_1.0_ec_r_0.0_g_0.0_b_0_tri" target="#default_ai_0.2_sh_0.2_tr_0.0_dc_r_1.0_g_0.2_b_0.2_sc_r_1.0_g_1.0_b_1.0_ec_r_0.0_g_0.0_b_0_mat"/>
                        </technique_common>
                    </bind_material>
                </instance_geometry>
            </node>
        </visual_scene>
    </library_visual_scenes>
    <scene>
        <instance_visual_scene url="#Building_DEBW_5221000QcYK"/>
    </scene>
</COLLADA>
