<?xml version="1.0" encoding="UTF-8" standalone="yes"?>
<COLLADA xmlns="http://www.collada.org/2005/11/COLLADASchema" version="1.4.1">
    <asset>
        <contributor>
            <authoring_tool>3D City Database Importer/Exporter, version 5.5.3; Chair of Geoinformatics, Technical University of Munich</authoring_tool>
        </contributor>
        <created>2026-05-06T15:12:08.044</created>
        <modified>2026-05-06T15:12:08.044</modified>
        <unit meter="1.0" name="meters"/>
        <up_axis>Z_UP</up_axis>
    </asset>
    <library_materials>
        <material id="default_ai_0.2_sh_0.2_tr_0.0_dc_r_1.0_g_0.2_b_0.2_sc_r_1.0_g_1.0_b_1.0_ec_r_0.0_g_0.0_b_0_mat">
            <instance_effect url="#default_ai_0.2_sh_0.2_tr_0.0_dc_r_1.0_g_0.2_b_0.2_sc_r_1.0_g_1.0_b_1.0_ec_r_0.0_g_0.0_b_0_eff"/>
        </material>
        <material id="default_ai_0.2_sh_0.2_tr_0.0_dc_r_0.8_g_0.8_b_0.8_sc_r_1.0_g_1.0_b_1.0_ec_r_0.0_g_0.0_b_0_mat">
            <instance_effect url="#default_ai_0.2_sh_0.2_tr_0.0_dc_r_0.8_g_0.8_b_0.8_sc_r_1.0_g_1.0_b_1.0_ec_r_0.0_g_0.0_b_0_eff"/>
        </material>
    </library_materials>
    <library_effects>
        <effect id="default_ai_0.2_sh_0.2_tr_0.0_dc_r_1.0_g_0.2_b_0.2_sc_r_1.0_g_1.0_b_1.0_ec_r_0.0_g_0.0_b_0_eff">
            <profile_COMMON>
                <technique sid="COMMON">
                    <lambert>
                        <emission>
                            <color>0.0 0.0 0.0 1.0</color>
                        </emission>
                        <diffuse>
                            <color>1.0 0.2 0.2 1.0</color>
                        </diffuse>
                        <reflective>
                            <color>1.0 1.0 1.0 1.0</color>
                        </reflective>
                        <reflectivity>
                            <float>0.2</float>
                        </reflectivity>
                        <transparent opaque="A_ONE">
                            <color>1.0 1.0 1.0 1.0</color>
                        </transparent>
                        <transparency>
                            <float>1.0</float>
                        </transparency>
                    </lambert>
                </technique>
                <extra>
                    <technique profile="GOOGLEEARTH">
                        <double_sided>0</double_sided>
                    </technique>
                </extra>
            </profile_COMMON>
        </effect>
        <effect id="default_ai_0.2_sh_0.2_tr_0.0_dc_r_0.8_g_0.8_b_0.8_sc_r_1.0_g_1.0_b_1.0_ec_r_0.0_g_0.0_b_0_eff">
            <profile_COMMON>
                <technique sid="COMMON">
                    <lambert>
                        <emission>
                            <color>0.0 0.0 0.0 1.0</color>
                        </emission>
                        <diffuse>
                            <color>0.8 0.8 0.8 1.0</color>
                        </diffuse>
                        <reflective>
                            <color>1.0 1.0 1.0 1.0</color>
                        </reflective>
                        <reflectivity>
                            <float>0.2</float>
                        </reflectivity>
                        <transparent opaque="A_ONE">
                            <color>1.0 1.0 1.0 1.0</color>
                        </transparent>
                        <transparency>
                            <float>1.0</float>
                        </transparency>
                    </lambert>
                </technique>
                <extra>
                    <technique profile="GOOGLEEARTH">
                        <double_sided>0</double_sided>
                    </technique>
                </extra>
            </profile_COMMON>
        </effect>
    </library_effects>
    <library_geometries>
        <geometry id="geometry0">
            <mesh>
                <source id="geometry0-position">
                    <float_array id="geometry0-position-array" count="195">0.99 14.26 9.266 0.0 0.0 9.266 0.0 0.0 0.0 0.99 14.26 0.0 0.99 14.26 3.738 -7.44 0.46 0.0 -7.37 2.63 0.0 -6.49 2.54 0.0 -6.11 8.64 0.0 -6.9 8.72 0.0 -6.76 10.91 0.0 -5.99 10.84 0.0 -5.718 14.729 0.0 -6.11 8.64 9.266 -6.9 8.72 9.266 -5.718 14.729 9.266 -5.99 10.84 9.266 -6.76 10.91 9.266 -6.49 2.54 9.266 -7.37 2.63 9.266 -7.44 0.46 9.266 -5.718 14.729 3.705 26.92 51.81 7.304 26.13 40.7 7.304 26.13 40.7 4.105 26.13 40.7 0.0 26.92 51.81 0.0 -2.94 53.85 7.304 -3.84 53.92 7.304 -4.02 51.76 7.304 -3.09 51.69 7.304 -3.53 45.79 7.304 -4.52 45.78 7.304 -4.56 43.73 7.304 -3.7 43.64 7.304 -3.741 43.046 7.304 -4.56 43.73 0.0 -3.7 43.64 0.0 -3.09 51.69 0.0 -3.53 45.79 0.0 -4.52 45.78 0.0 -3.741 43.046 0.0 -4.02 51.76 0.0 -3.84 53.92 0.0 -2.94 53.85 0.0 -3.741 43.046 4.076 -5.371 19.702 9.383 -5.371 19.702 0.0 38.7 11.29 3.545 38.72 11.62 3.922 38.72 11.62 0.0 38.7 11.29 0.0 39.45 40.54 3.918 42.58 40.28 3.924 42.58 40.28 0.0 39.45 40.54 0.0 40.66 11.484 3.931 42.522 39.412 4.121 11.687 18.436 9.383 40.64 11.19 3.595 40.64 11.19 0.0 42.522 39.412 0.0 40.66 11.484 0.0 39.37 39.66 0.0 39.37 39.66 4.118</float_array>
                    <technique_common>
                        <accessor count="65" source="#geometry0-position-array" stride="3">
                            <param name="X" type="float"/>
                            <param name="Y" type="float"/>
                            <param name="Z" type="float"/>
                        </accessor>
                    </technique_common>
                </source>
                <source id="geometry0-normal">
                    <float_array id="geometry0-normal-array" count="666">-0.0556145 -0.7495179 0.6596438 -0.0556098 -0.7492831 0.6599109 -0.0556224 -0.7493277 0.6598592 -0.0556326 -0.749795 0.6593273 -0.0556417 -0.7497663 0.6593592 -0.0556204 -0.74948 0.6596863 -0.0556484 -0.7494147 0.6597582 -0.0556419 -0.7494115 0.6597624 -0.0101027 0.999949 0.0 -0.0101027 0.999949 0.0 -0.0101027 0.999949 0.0 -0.0101027 0.999949 0.0 -0.0750562 -0.9971793 0.0 -0.0750562 -0.9971793 0.0 -0.0750562 -0.9971793 0.0 -0.0750562 -0.9971793 0.0 -0.9979629 0.0637967 0.0 -0.9979629 0.0637967 0.0 -0.9979629 0.0637967 0.0 -0.9979629 0.0637967 0.0 -0.0698002 -0.997561 0.0 -0.0698002 -0.997561 0.0 -0.0698002 -0.997561 0.0 -0.0698002 -0.997561 0.0 0.9977748 -0.0666744 0.0 0.9977748 -0.0666744 0.0 0.9977748 -0.0666744 0.0 0.9977748 -0.0666744 0.0 -0.9965457 0.0830455 0.0 -0.9965457 0.0830455 0.0 -0.9965457 0.0830455 0.0 -0.9965457 0.0830455 0.0 -0.9975631 0.0697704 0.0 -0.9975631 0.0697704 0.0 -0.9975631 0.0697704 0.0 -0.9975631 0.0697704 0.0 -0.9975631 0.0697704 0.0 0.9977849 -0.0665237 0.0 0.9977849 -0.0665237 0.0 0.9977849 -0.0665237 0.0 0.9977849 -0.0665237 0.0 0.0 0.0 -1.0 0.0 0.0 -1.0 0.0 0.0 -1.0 0.0 0.0 -1.0 0.0 0.0 -1.0 0.0 0.0 -1.0 0.0 0.0 -1.0 0.0 0.0 -1.0 0.0 0.0 -1.0 0.0 0.0 -1.0 -0.0782966 -0.9969301 0.0 -0.0782966 -0.9969301 0.0 -0.0782966 -0.9969301 0.0 -0.0782966 -0.9969301 0.0 0.0 0.0 1.0 0.0 0.0 1.0 0.0 0.0 1.0 0.0 0.0 1.0 0.0 0.0 1.0 0.0 0.0 1.0 0.0 0.0 1.0 0.0 0.0 1.0 0.0 0.0 1.0 0.0 0.0 1.0 0.0 0.0 1.0 0.0 0.0 -1.0 0.0 0.0 -1.0 0.0 0.0 -1.0 0.0 0.0 -1.0 0.0 0.0 -1.0 0.0 0.0 -1.0 0.0 0.0 -1.0 0.0 0.0 -1.0 0.0 0.0 -1.0 0.0 0.0 -1.0 0.0 0.0 -1.0 -0.0782966 -0.9969301 0.0 -0.0782966 -0.9969302 0.0 -0.0782966 -0.9969301 0.0 -0.0782966 -0.9969301 0.0 -0.9975711 0.0696556 0.0 -0.9975711 0.0696556 0.0 -0.9975711 0.0696556 0.0 -0.9975711 0.0696556 0.0 0.0 0.0 1.0 0.0 0.0 1.0 0.0 0.0 1.0 0.0 0.0 1.0 0.0 0.0 1.0 0.0 0.0 1.0 0.0 0.0 1.0 0.0 0.0 1.0 0.0 0.0 1.0 0.0 0.0 1.0 0.0697462 0.9975648 0.0 0.0697462 0.9975648 0.0 0.0697462 0.9975648 0.0 0.0697462 0.9975649 0.0 -0.9994801 0.0322414 0.0 -0.9994801 0.0322414 0.0 -0.9994801 0.0322414 0.0 -0.9994801 0.0322414 0.0 -0.995893 0.0905377 0.0 -0.995893 0.0905377 0.0 -0.995893 0.0905377 0.0 -0.995893 0.0905377 0.0 0.0 0.0 -1.0 0.0 0.0 -1.0 0.0 0.0 -1.0 0.0 0.0 -1.0 0.0 0.0 -1.0 0.0 0.0 -1.0 0.0 0.0 -1.0 0.0 0.0 -1.0 0.0 0.0 -1.0 0.0 0.0 -1.0 0.0 0.0 -1.0 0.0 0.0 -1.0 0.0 0.0 -1.0 0.0827826 0.9965676 0.0 0.0827826 0.9965676 0.0 0.0827826 0.9965676 0.0 0.0827826 0.9965676 0.0 0.0775433 0.996989 0.0 0.0775433 0.996989 0.0 0.0775433 0.996989 0.0 0.0775433 0.996989 0.0 -0.9998097 0.0195085 0.0 -0.9998097 0.0195085 0.0 -0.9998097 0.0195085 0.0 -0.9998097 0.0195085 0.0 0.0905353 0.9958932 0.0 0.0905353 0.9958932 0.0 0.0905353 0.9958932 0.0 0.0905353 0.9958932 0.0 -0.9980653 0.0621745 0.0 -0.9980653 0.0621745 0.0 -0.9980653 0.0621745 0.0 -0.9980653 0.0621745 0.0 0.0783087 0.9969292 0.0 0.0783087 0.9969292 0.0 0.0783087 0.9969292 0.0 0.0783087 0.9969292 0.0 -0.9975744 0.0696076 0.0 -0.9975744 0.0696076 0.0 -0.9975744 0.0696076 0.0 -0.9975744 0.0696076 0.0 0.9974815 -0.0709281 0.0 0.9974815 -0.0709281 0.0 0.9974815 -0.0709281 0.0 0.9974814 -0.0709281 0.0 0.9974814 -0.0709281 0.0 -0.9976263 0.0688598 0.0 -0.9976263 0.0688598 0.0 -0.9976263 0.0688598 0.0 -0.9976263 0.0688598 0.0 -0.9976263 0.0688598 0.0 0.0163881 0.2205338 0.9752417 0.0163708 0.2205795 0.9752316 0.0164426 0.2204146 0.9752676 0.0164149 0.2203733 0.9752774 0.0163723 0.2205705 0.9752336 0.0163759 0.2205653 0.9752347 0.0163663 0.2204819 0.9752537 0.0164195 0.2201714 0.975323 -0.1040829 -0.9945686 0.0 -0.1040829 -0.9945686 0.0 -0.1040829 -0.9945686 0.0 -0.1040829 -0.9945686 0.0 0.1805552 -0.0187281 0.9833866 0.1805552 -0.0187281 0.9833866 0.1805552 -0.0187281 0.9833866 0.0782966 0.9969301 0.0 0.0782966 0.9969301 0.0 0.0782966 0.9969301 0.0 0.0782966 0.9969302 0.0 -0.1007505 -0.9949117 0.0 -0.1007505 -0.9949117 0.0 -0.1007505 -0.9949117 0.0 -0.1007505 -0.9949117 0.0 0.0697462 0.9975648 0.0 0.0697462 0.9975648 0.0 0.0697462 0.9975648 0.0 0.0697462 0.9975648 0.0 -0.0617101 -0.9980941 0.0 -0.0617101 -0.9980941 0.0 -0.0617101 -0.9980941 0.0 -0.0617101 -0.9980941 0.0 -0.9972307 0.0743698 0.0 -0.9972307 0.0743698 0.0 -0.9972307 0.0743698 0.0 -0.9972307 0.0743698 0.0 -0.0697462 -0.9975648 0.0 -0.0697462 -0.9975649 0.0 -0.0697462 -0.9975648 0.0 -0.0697462 -0.9975648 0.0 -0.0514783 -0.9986742 0.0 -0.0514783 -0.9986741 0.0 -0.0514783 -0.9986742 0.0 -0.0514783 -0.9986742 0.0 0.9975988 -0.0692583 0.0 0.9975988 -0.0692583 0.0 0.9975988 -0.0692583 0.0 0.9975988 -0.0692583 0.0 0.9975988 -0.0692583 0.0 0.0681598 0.9976745 0.0 0.0681598 0.9976745 0.0 0.0681598 0.9976745 0.0 0.0681598 0.9976745 0.0 0.1017422 0.9948108 0.0 0.1017422 0.9948108 0.0 0.1017422 0.9948108 0.0 0.1017422 0.9948108 0.0 -0.9981684 0.0604964 0.0 -0.9981684 0.0604964 0.0 -0.9981684 0.0604964 0.0 -0.9981684 0.0604965 0.0 0.9976941 -0.0678718 0.0 0.9976941 -0.0678718 0.0 0.9976941 -0.0678718 0.0 0.9976941 -0.0678718 0.0</float_array>
                    <technique_common>
                        <accessor count="222" source="#geometry0-normal-array" stride="3">
                            <param name="X" type="float"/>
                            <param name="Y" type="float"/>
                            <param name="Z" type="float"/>
                        </accessor>
                    </technique_common>
                </source>
                <vertices id="geometry0-vertex">
                    <input semantic="POSITION" source="#geometry0-position"/>
                </vertices>
                <triangles count="104" material="default_ai_0.2_sh_0.2_tr_0.0_dc_r_0.8_g_0.8_b_0.8_sc_r_1.0_g_1.0_b_1.0_ec_r_0.0_g_0.0_b_0_tri">
                    <input offset="0" semantic="VERTEX" source="#geometry0-vertex"/>
                    <input offset="1" semantic="NORMAL" source="#geometry0-normal"/>
                    <p>32 8 31 9 39 10 32 8 39 10 40 11 30 12 29 13 42 14 30 12 42 14 38 15 14 16 17 17 10 18 14 16 10 18 9 19 49 20 4 21 3 22 49 20 3 22 50 23 53 24 57 25 61 26 53 24 61 26 54 27 29 28 28 29 43 30 29 28 43 30 42 31 12 32 11 33 16 34 21 35 12 32 16 34 21 35 16 34 15 36 57 37 56 38 62 39 57 37 62 39 61 40 12 41 3 42 2 43 11 44 12 41 2 43 10 45 11 44 2 43 8 46 9 47 10 45 8 46 10 45 2 43 7 48 8 46 2 43 7 48 2 43 5 49 7 48 5 49 6 50 45 51 41 52 25 53 45 51 25 53 24 54 44 66 26 67 25 68 43 69 44 66 25 68 38 70 42 71 43 69 38 70 43 69 25 68 39 72 38 70 25 68 39 72 25 68 41 73 39 72 41 73 37 74 39 72 37 74 36 75 39 72 36 75 40 76 45 77 24 78 23 79 45 77 23 79 35 80 46 81 45 82 41 83 46 81 41 83 47 84 4 95 3 96 12 97 4 95 12 97 21 98 20 99 19 100 6 101 20 99 6 101 5 102 64 103 52 104 55 105 64 103 55 105 63 106 12 107 47 108 3 109 3 109 47 108 50 110 47 108 41 111 50 110 41 111 25 112 50 110 25 112 63 113 50 110 63 113 55 114 50 110 55 114 54 115 50 110 50 110 54 115 51 116 54 115 61 117 51 116 51 116 61 117 60 118 60 118 61 117 62 119 52 120 53 121 54 122 52 120 54 122 55 123 28 124 27 125 44 126 28 124 44 126 43 127 33 128 32 129 40 130 33 128 40 130 36 131 17 132 16 133 11 134 17 132 11 134 10 135 18 136 13 137 8 138 18 136 8 138 7 139 24 140 64 141 63 142 24 140 63 142 25 143 21 144 46 145 47 146 21 144 47 146 12 147 25 148 26 149 22 150 24 151 25 148 22 150 24 151 22 150 23 152 37 153 41 154 45 155 37 153 45 155 35 156 37 153 35 156 34 157 34 166 33 167 36 168 34 166 36 168 37 169 25 173 41 174 45 175 25 173 45 175 24 176 13 177 14 178 9 179 13 177 9 179 8 180 4 181 21 182 15 183 4 181 15 183 0 184 1 185 20 186 5 187 1 185 5 187 2 188 31 189 30 190 38 191 31 189 38 191 39 192 21 193 12 194 3 195 21 193 3 195 4 196 59 197 48 198 51 199 59 197 51 199 60 200 2 201 3 202 4 203 2 201 4 203 0 204 2 201 0 204 1 205 27 206 22 207 26 208 27 206 26 208 44 209 19 210 18 211 7 212 19 210 7 212 6 213 48 214 49 215 50 216 48 214 50 216 51 217 56 218 59 219 60 220 56 218 60 220 62 221</p>
                </triangles>
                <triangles count="30" material="default_ai_0.2_sh_0.2_tr_0.0_dc_r_1.0_g_0.2_b_0.2_sc_r_1.0_g_1.0_b_1.0_ec_r_0.0_g_0.0_b_0_tri">
                    <input offset="0" semantic="VERTEX" source="#geometry0-vertex"/>
                    <input offset="1" semantic="NORMAL" source="#geometry0-normal"/>
                    <p>56 0 58 1 46 2 48 3 59 4 56 0 49 5 48 3 56 0 49 5 56 0 46 2 4 6 49 5 46 2 4 6 46 2 21 7 35 55 23 56 22 57 34 58 35 55 22 57 33 59 34 58 22 57 31 60 32 61 33 59 31 60 33 59 22 57 30 62 31 60 22 57 30 62 22 57 27 63 30 62 27 63 28 64 30 62 28 64 29 65 20 85 1 86 0 87 18 88 19 89 20 85 18 88 20 85 0 87 18 88 0 87 15 90 13 91 18 88 15 90 13 91 15 90 16 92 13 91 16 92 17 93 13 91 17 93 14 94 46 158 58 159 57 160 46 158 57 160 53 161 24 162 45 163 46 158 64 164 24 162 46 158 64 164 46 158 53 161 64 164 53 161 52 165 56 170 57 171 58 172</p>
                </triangles>
            </mesh>
        </geometry>
    </library_geometries>
    <library_visual_scenes>
        <visual_scene id="Building_DEBW_5221000QftX">
            <node>
                <instance_geometry url="#geometry0">
                    <bind_material>
                        <technique_common>
                            <instance_material symbol="default_ai_0.2_sh_0.2_tr_0.0_dc_r_0.8_g_0.8_b_0.8_sc_r_1.0_g_1.0_b_1.0_ec_r_0.0_g_0.0_b_0_tri" target="#default_ai_0.2_sh_0.2_tr_0.0_dc_r_0.8_g_0.8_b_0.8_sc_r_1.0_g_1.0_b_1.0_ec_r_0.0_g_0.0_b_0_mat"/>
                            <instance_material symbol="default_ai_0.2_sh_0.2_tr_0.0_dc_r_1.0_g_0.2_b_0.2_sc_r_1.0_g_1.0_b_1.0_ec_r_0.0_g_0.0_b_0_tri" target="#default_ai_0.2_sh_0.2_tr_0.0_dc_r_1.0_g_0.2_b_0.2_sc_r_1.0_g_1.0_b_1.0_ec_r_0.0_g_0.0_b_0_mat"/>
                        </technique_common>
                    </bind_material>
                </instance_geometry>
            </node>
        </visual_scene>
    </library_visual_scenes>
    <scene>
        <instance_visual_scene url="#Building_DEBW_5221000QftX"/>
    </scene>
</COLLADA>
