<?xml version="1.0" encoding="UTF-8" standalone="yes"?>
<COLLADA xmlns="http://www.collada.org/2005/11/COLLADASchema" version="1.4.1">
    <asset>
        <contributor>
            <authoring_tool>3D City Database Importer/Exporter, version 5.5.3; Chair of Geoinformatics, Technical University of Munich</authoring_tool>
        </contributor>
        <created>2026-05-06T15:12:07.674</created>
        <modified>2026-05-06T15:12:07.674</modified>
        <unit meter="1.0" name="meters"/>
        <up_axis>Z_UP</up_axis>
    </asset>
    <library_materials>
        <material id="default_ai_0.2_sh_0.2_tr_0.0_dc_r_0.8_g_0.8_b_0.8_sc_r_1.0_g_1.0_b_1.0_ec_r_0.0_g_0.0_b_0_mat">
            <instance_effect url="#default_ai_0.2_sh_0.2_tr_0.0_dc_r_0.8_g_0.8_b_0.8_sc_r_1.0_g_1.0_b_1.0_ec_r_0.0_g_0.0_b_0_eff"/>
        </material>
        <material id="default_ai_0.2_sh_0.2_tr_0.0_dc_r_1.0_g_0.2_b_0.2_sc_r_1.0_g_1.0_b_1.0_ec_r_0.0_g_0.0_b_0_mat">
            <instance_effect url="#default_ai_0.2_sh_0.2_tr_0.0_dc_r_1.0_g_0.2_b_0.2_sc_r_1.0_g_1.0_b_1.0_ec_r_0.0_g_0.0_b_0_eff"/>
        </material>
    </library_materials>
    <library_effects>
        <effect id="default_ai_0.2_sh_0.2_tr_0.0_dc_r_0.8_g_0.8_b_0.8_sc_r_1.0_g_1.0_b_1.0_ec_r_0.0_g_0.0_b_0_eff">
            <profile_COMMON>
                <technique sid="COMMON">
                    <lambert>
                        <emission>
                            <color>0.0 0.0 0.0 1.0</color>
                        </emission>
                        <diffuse>
                            <color>0.8 0.8 0.8 1.0</color>
                        </diffuse>
                        <reflective>
                            <color>1.0 1.0 1.0 1.0</color>
                        </reflective>
                        <reflectivity>
                            <float>0.2</float>
                        </reflectivity>
                        <transparent opaque="A_ONE">
                            <color>1.0 1.0 1.0 1.0</color>
                        </transparent>
                        <transparency>
                            <float>1.0</float>
                        </transparency>
                    </lambert>
                </technique>
                <extra>
                    <technique profile="GOOGLEEARTH">
                        <double_sided>0</double_sided>
                    </technique>
                </extra>
            </profile_COMMON>
        </effect>
        <effect id="default_ai_0.2_sh_0.2_tr_0.0_dc_r_1.0_g_0.2_b_0.2_sc_r_1.0_g_1.0_b_1.0_ec_r_0.0_g_0.0_b_0_eff">
            <profile_COMMON>
                <technique sid="COMMON">
                    <lambert>
                        <emission>
                            <color>0.0 0.0 0.0 1.0</color>
                        </emission>
                        <diffuse>
                            <color>1.0 0.2 0.2 1.0</color>
                        </diffuse>
                        <reflective>
                            <color>1.0 1.0 1.0 1.0</color>
                        </reflective>
                        <reflectivity>
                            <float>0.2</float>
                        </reflectivity>
                        <transparent opaque="A_ONE">
                            <color>1.0 1.0 1.0 1.0</color>
                        </transparent>
                        <transparency>
                            <float>1.0</float>
                        </transparency>
                    </lambert>
                </technique>
                <extra>
                    <technique profile="GOOGLEEARTH">
                        <double_sided>0</double_sided>
                    </technique>
                </extra>
            </profile_COMMON>
        </effect>
    </library_effects>
    <library_geometries>
        <geometry id="geometry0">
            <mesh>
                <source id="geometry0-position">
                    <float_array id="geometry0-position-array" count="582">37.445 -2.335 10.333 0.0 0.0 10.333 0.0 0.0 0.0 37.445 -2.335 0.0 1.501 23.084 10.333 39.081 20.814 10.333 39.081 20.814 0.0 1.501 23.084 0.0 38.061 6.384 10.333 38.061 6.384 0.0 0.571 8.784 10.333 0.571 8.784 0.0 -17.905 20.812 53.863 -17.232 20.749 53.621 -6.319 19.734 49.7 -5.459 19.654 49.391 -5.359 21.124 49.393 -4.979 26.954 49.404 -4.809 29.474 49.406 -4.763 29.471 49.39 -4.589 31.92 49.389 -4.639 31.924 49.407 -3.139 52.364 49.385 -15.57 53.149 53.842 -15.629 53.153 53.863 -4.589 31.92 8.349 -4.589 31.92 0.0 -4.639 31.924 0.0 -28.645 21.811 49.58 -26.709 48.954 49.591 -26.709 48.954 0.0 -28.645 21.811 0.0 -5.459 19.654 0.0 -5.359 21.124 0.0 -6.319 19.734 0.0 -26.409 53.834 49.571 -25.539 53.774 49.976 -25.539 53.774 0.0 -26.409 53.834 0.0 -4.809 29.474 0.0 -4.763 29.471 0.0 -4.763 29.471 8.348 -17.174 53.251 53.863 -17.219 53.254 53.842 -25.539 53.779 49.976 -26.579 51.444 49.57 -28.579 51.554 48.642 -28.679 49.094 48.675 -20.177 21.023 53.523 -19.447 20.955 53.863 -4.979 26.954 0.0 -26.579 51.444 0.0 -28.579 51.554 0.0 -28.679 49.094 0.0 -25.539 53.779 0.0 -17.174 53.251 0.0 -15.629 53.153 0.0 -3.139 52.364 0.0 -17.905 20.812 0.0 -19.447 20.955 0.0 -19.447 20.955 53.548 -17.174 53.251 53.842 -17.905 20.812 53.599 -15.629 53.153 53.842 42.321 -11.796 10.313 42.921 -2.676 10.313 42.921 -2.676 0.0 42.321 -11.796 0.0 43.492 6.0 0.0 52.361 5.374 0.0 51.161 -12.338 0.0 51.161 -12.338 10.313 52.361 5.374 10.313 43.492 6.0 10.313 -25.729 64.214 0.0 -25.653 65.352 0.0 -3.289 62.804 0.0 -3.327 62.245 0.0 -24.819 64.134 0.0 -3.289 62.804 53.839 -3.327 62.245 53.839 -3.289 62.804 49.565 -3.289 62.804 49.788 -24.819 64.134 53.839 -25.653 65.352 53.839 -25.729 64.214 53.839 -25.653 65.352 50.102 -25.653 65.352 49.565 -3.327 62.245 53.841 -24.819 64.134 53.841 -29.979 2.104 53.861 -29.399 10.754 53.861 -29.399 10.754 0.0 -29.979 2.104 0.0 -6.737 9.187 53.861 -7.039 9.204 53.861 -7.031 9.322 53.861 -15.722 9.878 53.861 -28.459 10.694 53.861 -30.616 -7.326 53.861 -7.449 -8.746 53.861 -6.799 0.424 53.861 -7.084 0.442 53.861 -6.737 9.187 10.343 -6.737 9.187 0.0 -7.039 9.204 0.0 -28.459 10.694 53.458 -28.459 10.694 0.0 -7.084 0.442 0.0 -6.799 0.424 0.0 -7.449 -8.746 0.0 -15.952 -8.225 0.0 -30.616 -7.326 0.0 -7.031 9.322 0.0 -7.449 -8.746 14.606 -7.449 -8.746 9.898 -6.799 0.424 10.343 -30.616 -7.326 49.941 -15.952 -8.225 14.613 -15.952 -8.225 49.941 -7.084 0.442 10.343 -15.952 -8.225 9.898 -0.189 95.484 0.0 -2.499 62.714 0.0 -23.539 97.084 0.0 -23.539 97.084 49.565 -0.189 95.484 49.565 -2.499 62.714 49.565 -2.499 62.714 49.777 -2.038 69.255 53.83 -25.252 71.37 53.83 -24.751 78.898 53.845 -24.279 85.975 53.859 -23.539 97.084 49.758 -1.009 83.854 53.859 36.932 -11.466 17.664 42.321 -11.796 17.664 36.932 -11.466 0.0 36.932 -11.466 9.898 36.932 -11.466 14.571 50.061 -28.576 17.664 35.771 -27.386 17.664 35.771 -27.386 16.35 35.771 -27.386 9.898 35.771 -27.386 0.0 50.061 -28.576 0.0 51.161 -12.338 17.664 35.96 -24.789 17.503 0.0 0.0 10.343 0.571 8.784 10.343 -17.829 -31.466 49.941 -32.189 -30.516 49.941 -32.189 -30.516 0.0 -17.829 -31.466 0.0 -17.829 -31.466 9.898 -17.829 -31.466 13.009 -31.089 -14.326 49.941 -31.089 -14.326 0.0 -17.012 -21.35 17.503 -25.539 53.779 53.842 -24.819 64.134 53.842 -3.999 52.474 53.842 -3.139 52.364 53.842 -3.999 52.474 0.0 -3.327 62.245 53.842 -17.219 53.253 53.842 -18.379 -38.276 9.984 34.711 -41.916 9.898 34.711 -41.916 0.0 -18.379 -38.276 9.898 -18.379 -38.276 0.0 42.921 -2.676 10.358 37.445 -2.335 10.358 43.492 6.0 10.358 38.061 6.384 10.358 -6.959 10.37 56.453 -7.031 9.322 54.136 -6.959 10.37 0.0 -28.377 12.051 56.453 -27.878 20.347 56.453 -27.878 20.347 0.0 -28.377 12.051 0.0 -6.319 19.734 53.985 -6.392 18.661 56.453 -6.392 18.661 0.0 -27.829 21.154 54.597 -27.829 21.154 0.0 -28.689 21.194 54.66 -28.689 21.194 0.0 -28.645 21.811 53.241 -2.589 29.344 0.0 -2.399 31.744 0.0 -2.399 31.744 8.246 -2.589 29.344 8.246</float_array>
                    <technique_common>
                        <accessor count="194" source="#geometry0-position-array" stride="3">
                            <param name="X" type="float"/>
                            <param name="Y" type="float"/>
                            <param name="Z" type="float"/>
                        </accessor>
                    </technique_common>
                </source>
                <source id="geometry0-normal">
                    <float_array id="geometry0-normal-array" count="2544">0.0 0.0 -1.0 0.0 0.0 -1.0 0.0 0.0 -1.0 0.0 0.0 -1.0 0.0 0.0 -1.0 0.0 0.0 -1.0 0.0 0.0 -1.0 0.0 0.0 -1.0 0.0 0.0 -1.0 0.0 0.0 -1.0 0.0 0.0 -1.0 0.0 0.0 -1.0 0.0 0.0 -1.0 0.0 0.0 -1.0 0.0 0.0 -1.0 0.0 0.0 -1.0 0.0 0.0 -1.0 0.0 0.0 -1.0 0.0 0.0 -1.0 0.0 0.0 -1.0 0.0 0.0 -1.0 0.0 0.0 1.0 0.0 0.0 1.0 0.0 0.0 1.0 0.0 0.0 1.0 0.0 0.0 1.0 0.0 0.0 -1.0 0.0 0.0 -1.0 0.0 0.0 -1.0 0.0 0.0 -1.0 0.0 0.0 -1.0 0.0 0.0 -1.0 0.0 0.0 -1.0 -0.9977596 0.0669018 0.0 -0.9977596 0.0669018 0.0 -0.9977596 0.0669018 0.0 -0.9977596 0.0669018 0.0 0.0313636 0.3442762 0.9383445 0.0313825 0.3443049 0.9383333 0.0313636 0.3442762 0.9383445 0.0313447 0.3442474 0.9383556 0.0611727 0.9981272 0.0 0.0611727 0.9981272 0.0 0.0611727 0.9981272 0.0 0.0611727 0.9981272 0.0 -0.110043 -0.396625 0.9113612 -0.0262332 -0.4040777 0.9143484 -0.0262361 -0.4040595 0.9143565 -0.0262317 -0.404065 0.9143541 -0.1942737 -0.3862091 0.9017208 -0.3567435 -0.3572376 0.8632006 0.0928183 0.9956831 2.4E-6 0.0926088 0.9957026 0.0 0.092626 0.995701 3.5E-6 0.092923 0.9956734 3.5E-6 0.0932028 0.9956471 0.0 -1.0 0.0 0.0 -1.0 0.0 0.0 -1.0 0.0 0.0 -1.0 0.0 0.0 0.0 0.0 -1.0 0.0 0.0 -1.0 0.0 0.0 -1.0 0.0 0.0 -1.0 0.0 0.0 -1.0 -0.0923403 -0.9957275 0.0 -0.0923403 -0.9957275 0.0 -0.0923403 -0.9957275 0.0 -0.0923403 -0.9957275 0.0 0.0 0.0 -1.0 0.0 0.0 -1.0 0.0 0.0 -1.0 0.0 0.0 -1.0 0.0 0.0 -1.0 0.0923403 0.9957275 0.0 0.0923403 0.9957275 0.0 0.0923403 0.9957275 0.0 0.0923403 0.9957275 0.0 -0.0638796 -0.9979572 -9.569E-4 -0.0638435 -0.9979558 -0.0028707 -0.0638706 -0.9979571 -0.0014353 -0.0638976 -0.9979565 0.0 -0.0638976 -0.9979565 0.0 0.0633029 0.9979944 0.0 0.0633029 0.9979944 0.0 0.0633029 0.9979944 0.0 0.0633029 0.9979944 0.0 0.0653555 0.9978409 0.0065048 0.0676628 0.9976234 0.0130093 0.0653555 0.9978409 0.0065048 0.063045 0.9980107 0.0 0.063045 0.9980107 0.0 0.9973495 -0.0727592 0.0 0.9973495 -0.0727592 0.0 0.9973495 -0.0727592 0.0 0.9973495 -0.0727592 0.0 0.0926899 0.9956951 -4.0E-7 0.0927503 0.9956894 0.0 0.0927068 0.9956934 -6.0E-7 0.0926596 0.9956978 -6.0E-7 0.0926559 0.9956982 0.0 0.9976941 -0.0678702 0.0 0.9976941 -0.0678702 0.0 0.9976941 -0.0678702 0.0 0.9976941 -0.0678702 0.0 -0.0477521 -0.5236931 0.8505677 -0.0477154 -0.5237175 0.8505546 -0.0477191 -0.5237031 0.8505633 -0.0477704 -0.5236808 0.8505741 -0.047818 -0.523673 0.8505763 0.0 0.0 1.0 0.0 0.0 1.0 0.0 0.0 1.0 0.0 0.0 1.0 0.9976937 -0.0678771 0.0 0.9976937 -0.067877 0.0 0.9976937 -0.0678771 0.0 0.9976937 -0.0678771 0.0 0.9976937 -0.067877 0.0 0.0 0.0 -1.0 0.0 0.0 -1.0 0.0 0.0 -1.0 0.0 0.0 -1.0 0.0 0.0 -1.0 0.0 0.0 -1.0 0.0 0.0 -1.0 0.9977323 -0.0673074 0.0 0.9977323 -0.0673074 0.0 0.9977323 -0.0673074 0.0 0.9977323 -0.0673074 0.0 -0.9978428 0.0656478 0.0 -0.9978428 0.0656478 0.0 -0.9978428 0.0656478 0.0 -0.9978428 0.0656478 0.0 0.0 0.0 1.0 0.0 0.0 1.0 0.0 0.0 1.0 0.0 0.0 1.0 0.0 0.0 1.0 0.0 0.0 1.0 0.0 0.0 1.0 0.0 0.0 1.0 0.0 0.0 1.0 0.0 0.0 1.0 0.0 0.0 1.0 0.0641791 0.9979384 -1.0E-6 0.0665667 0.9977819 0.0 0.0647809 0.9978996 -1.5E-6 0.0629851 0.9980145 -1.5E-6 0.0629754 0.9980151 0.0 -0.0928982 -0.9956753 -7.642E-4 -0.0926433 -0.9956993 0.0 -0.0926433 -0.9956993 0.0 -0.0928982 -0.9956753 -7.642E-4 -0.0931531 -0.9956506 -0.0015284 0.0 0.0 1.0 0.0 0.0 1.0 0.0 0.0 1.0 0.0 0.0 1.0 0.0 0.0 1.0 -0.0926233 -0.9957012 0.0 -0.0926233 -0.9957012 0.0 -0.0926233 -0.9957012 0.0 -0.0926233 -0.9957012 0.0 0.9974855 -0.0708707 0.0 0.9974855 -0.0708707 0.0 0.9974855 -0.0708707 0.0 0.9974855 -0.0708707 0.0 0.0630323 0.9980115 0.0 0.0630323 0.9980115 0.0 0.0630323 0.9980115 0.0 0.0630323 0.9980115 0.0 -0.0923403 -0.9957275 0.0 -0.0923403 -0.9957275 0.0 -0.0923403 -0.9957275 0.0 -0.0923403 -0.9957275 0.0 -0.0927106 -0.9956931 1.103E-4 -0.0927578 -0.9956887 2.207E-4 -0.0927106 -0.9956931 1.103E-4 -0.0926634 -0.9956974 0.0 -0.0926634 -0.9956974 0.0 0.0550614 0.9984829 0.0 0.0550614 0.9984829 0.0 0.0550614 0.9984829 0.0 0.0550614 0.9984829 0.0 0.0550614 0.998483 0.0 -0.9981793 0.0603166 0.0 -0.9981793 0.0603166 0.0 -0.9981793 0.0603166 0.0 -0.9981793 0.0603166 0.0 0.9977133 -0.0675873 0.0 0.9977133 -0.0675873 0.0 0.9977133 -0.0675873 0.0 0.9977133 -0.0675873 0.0 0.9977133 -0.0675873 0.0 0.0 0.0 -1.0 0.0 0.0 -1.0 0.0 0.0 -1.0 0.0 0.0 -1.0 0.0 0.0 -1.0 0.9975249 -0.0703144 1.77E-5 0.9975247 -0.0703168 0.0 0.9975247 -0.0703167 2.2E-5 0.997525 -0.0703132 2.66E-5 0.9975252 -0.0703099 9.3E-6 -0.9977881 0.0664747 -4.19E-5 -0.9977882 0.0664731 0.0 -0.9977882 0.0664731 0.0 -0.9977882 0.0664732 1.01E-5 -0.9977905 0.0664395 -1.944E-4 -0.9977881 0.0664762 -9.38E-5 -0.9977834 0.0665467 2.214E-4 0.0 0.0 1.0 0.0 0.0 1.0 0.0 0.0 1.0 0.0 0.0 1.0 0.0 0.0 1.0 0.0138954 0.2139516 0.9767455 0.0138892 0.2139402 0.976748 0.0138865 0.213954 0.976745 0.0138985 0.2139572 0.9767441 0.0139131 0.2139466 0.9767463 0.9977128 -0.0675958 0.0 0.9977128 -0.0675958 0.0 0.9977128 -0.0675958 0.0 0.9977128 -0.0675958 0.0 0.0705291 0.9975097 0.0 0.0705291 0.9975097 0.0 0.0705291 0.9975097 0.0 0.0705291 0.9975097 0.0 0.0705291 0.9975097 0.0 0.0705291 0.9975097 0.0 -0.0568243 -0.9983842 -5.2E-6 -0.0630953 -0.9980075 0.0 -0.063045 -0.9980108 -7.8E-6 -0.0536878 -0.9985577 -7.8E-6 -0.0443762 -0.9990149 0.0 0.0704078 0.9975183 0.0 0.0704078 0.9975183 0.0 0.0704078 0.9975183 0.0 0.0704078 0.9975183 0.0 0.0611974 0.9981257 0.0 0.0611974 0.9981257 0.0 0.0611974 0.9981257 0.0 0.0611974 0.9981257 0.0 -0.9978939 0.0648676 0.0 -0.9978939 0.0648676 0.0 -0.9978939 0.0648676 0.0 -0.9978939 0.0648676 0.0 -0.0633029 -0.9979944 0.0 -0.0633029 -0.9979944 0.0 -0.0633029 -0.9979944 0.0 -0.0633029 -0.9979944 0.0 -0.0684022 -0.9976579 0.0 -0.0684022 -0.9976579 0.0 -0.0684022 -0.9976579 0.0 0.0688036 0.9976302 0.0 0.0688036 0.9976302 0.0 0.0688036 0.9976302 0.0 0.0688036 0.9976302 0.0 0.0875558 0.9961596 0.0 0.0875558 0.9961596 0.0 0.0875558 0.9961596 0.0 0.0875558 0.9961596 0.0 -0.9981617 0.0606069 0.0 -0.9981617 0.0606069 0.0 -0.9981617 0.0606069 0.0 -0.9981617 0.0606069 0.0 -0.064579 -0.9979126 -1.7E-6 -0.0676685 -0.9977078 0.0 -0.0653569 -0.997862 -2.5E-6 -0.063034 -0.9980114 -2.5E-6 -0.063023 -0.9980121 0.0 0.9975135 -0.0704748 0.0 0.9975135 -0.0704748 0.0 0.9975135 -0.0704748 0.0 0.9975135 -0.0704748 0.0 0.9973181 -0.0731887 0.0 0.9973181 -0.0731887 0.0 0.9973181 -0.0731887 0.0 0.9973181 -0.0731887 0.0 0.1132006 0.9935721 0.0 0.1132006 0.9935721 0.0 0.1132006 0.9935721 0.0 0.1132006 0.9935722 0.0 0.1132006 0.9935722 0.0 0.1132006 0.9935722 0.0 0.1132006 0.9935722 0.0 0.1132006 0.9935722 0.0 -0.0875558 -0.9961596 0.0 -0.0875558 -0.9961596 0.0 -0.0875558 -0.9961596 0.0 -0.0875558 -0.9961596 0.0 -0.0875558 -0.9961596 0.0 -0.0875558 -0.9961596 0.0 0.0562031 0.9984193 0.0 0.0562031 0.9984193 0.0 0.0562031 0.9984193 0.0 0.0562031 0.9984194 0.0 0.0562031 0.9984194 0.0 0.9978939 -0.0648676 0.0 0.9978939 -0.0648676 0.0 0.9978939 -0.0648676 0.0 0.9978939 -0.0648676 0.0 0.9973495 -0.0727592 0.0 0.9973495 -0.0727592 0.0 0.9973495 -0.0727592 0.0 0.9976483 -0.0685407 0.0 0.9976483 -0.0685407 0.0 0.9976483 -0.0685407 0.0 0.9976483 -0.0685407 0.0 0.9976483 -0.0685407 0.0 -0.0650847 -0.9978797 0.0 -0.0650847 -0.9978797 0.0 -0.0650847 -0.9978797 0.0 -0.0650847 -0.9978797 0.0 -0.0650847 -0.9978797 0.0 0.0 0.0 -1.0 0.0 0.0 -1.0 0.0 0.0 -1.0 0.0 0.0 -1.0 0.0 0.0 -1.0 -0.9991748 0.040617 0.0 -0.9991748 0.040617 0.0 -0.9991748 0.040617 0.0 -0.9991748 0.040617 0.0 0.071737 0.9137717 0.3998438 0.0717219 0.9140067 0.399309 0.0717109 0.9139726 0.3993892 0.0717001 0.9139986 0.3993315 0.0719053 0.9128451 0.4019247 0.0718562 0.9129599 0.4016727 0.0715751 0.9143908 0.398455 0.0716409 0.9141833 0.3989192 0.0717565 0.9138747 0.3996048 0.0717794 0.9138782 0.3995927 0.0 0.0 -1.0 0.0 0.0 -1.0 0.0 0.0 -1.0 0.0 0.0 -1.0 0.0 0.0 -1.0 0.9992137 -0.0396486 0.0 0.9992137 -0.0396486 0.0 0.9992137 -0.0396486 0.0 0.9992137 -0.0396486 0.0 -0.0622372 -0.9980614 0.0 -0.0622372 -0.9980614 0.0 -0.0622372 -0.9980614 0.0 -0.0622372 -0.9980614 0.0 0.0611727 0.9981272 0.0 0.0611727 0.9981272 0.0 0.0611727 0.9981272 0.0 0.0611727 0.9981272 0.0 -0.9974855 0.0708707 0.0 -0.9974855 0.0708707 0.0 -0.9974855 0.0708707 0.0 -0.9974855 0.0708707 0.0 -0.0927503 -0.9956894 0.0 -0.0927503 -0.9956894 0.0 -0.0927503 -0.9956894 0.0 -0.0932028 -0.9956471 0.0 -0.0932028 -0.9956471 0.0 -0.0932028 -0.9956471 0.0 -0.9977882 0.0664731 0.0 -0.9977882 0.0664731 0.0 -0.9977882 0.0664731 0.0 -0.9977882 0.0664731 0.0 0.9967546 -0.0805004 -4.0E-7 0.9967545 -0.0805012 0.0 0.9967545 -0.0805008 -5.0E-7 0.9967546 -0.0805001 -5.0E-7 0.9967546 -0.0804998 0.0 -0.063023 -0.9980121 0.0 -0.063023 -0.9980121 0.0 -0.063023 -0.9980121 0.0 0.9967545 -0.0805004 0.0 0.9967545 -0.0805004 0.0 0.9967545 -0.0805004 0.0 0.9967545 -0.0805004 0.0 0.0683621 0.9976606 0.0 0.0683621 0.9976606 0.0 0.0683621 0.9976606 0.0 0.0683621 0.9976606 0.0 0.0611917 0.998126 0.0 0.0611917 0.998126 0.0 0.0611917 0.998126 0.0 0.0611917 0.998126 0.0 0.0611917 0.998126 0.0 0.0611917 0.998126 0.0 -0.0630953 -0.9980075 0.0 -0.0630953 -0.9980075 0.0 -0.0630953 -0.9980075 0.0 0.0602946 0.9981807 0.0 0.0602946 0.9981807 0.0 0.0602946 0.9981807 0.0 0.0602946 0.9981807 0.0 -0.437026 0.0258839 0.8990763 -0.4197589 0.0295427 0.9071547 -0.420415 0.0296071 0.9068487 -0.4203734 0.0296042 0.9068682 -0.4871392 0.0148123 0.8731987 -0.4873813 0.0147604 0.8730645 -0.4200625 0.0294627 0.9070168 -0.4196687 0.0295335 0.9071967 -0.4196168 0.0294768 0.9072227 -0.4196704 0.0295658 0.907195 -0.4195566 0.0293897 0.9072533 -0.419736 0.0292323 0.9071755 0.0 0.0 -1.0 0.0 0.0 -1.0 0.0 0.0 -1.0 0.0 0.0 -1.0 -0.997354 0.0726937 8.105E-4 -0.9973623 0.072584 0.0 -0.9973562 0.0726589 0.0012157 -0.9973496 0.0727485 0.0012157 -0.9973493 0.0727632 0.0 -0.997467 0.07113 0.0 -0.997467 0.07113 0.0 -0.997467 0.07113 0.0 -0.997467 0.07113 0.0 -0.997467 0.07113 0.0 -0.9975914 0.0693641 0.0 -0.9975915 0.0693641 0.0 -0.9975915 0.0693641 0.0 -0.9975914 0.0693641 0.0 -0.9975914 0.0693641 0.0 -0.9975914 0.0693641 0.0 0.0636996 0.9979692 0.0 0.0636996 0.9979691 0.0 0.0636996 0.9979692 0.0 0.0636996 0.9979692 0.0 0.0636996 0.9979691 0.0 0.0611974 0.9981257 0.0 0.0611974 0.9981257 0.0 0.0611974 0.9981257 0.0 0.0611974 0.9981257 0.0 -0.9973543 0.0726937 -1.72E-5 -0.9973493 0.0727632 0.0 -0.9973503 0.0727485 -2.57E-5 -0.9973568 0.072659 -2.57E-5 -0.9973623 0.072584 0.0 0.997511 -0.0705102 0.0 0.997511 -0.0705102 0.0 0.997511 -0.0705102 0.0 0.997511 -0.0705102 0.0 0.9978825 -0.0650421 0.0 0.9978825 -0.0650421 0.0 0.9978825 -0.0650421 0.0 0.9978825 -0.0650421 0.0 0.0639343 0.9979542 0.0 0.0639343 0.9979542 0.0 0.0639343 0.9979542 0.0 -0.9973513 0.0727339 0.0 -0.9973513 0.0727339 0.0 -0.9973513 0.0727339 0.0 -0.9973513 0.0727339 0.0 -0.0660116 -0.9978188 0.0 -0.0660116 -0.9978188 0.0 -0.0660116 -0.9978188 0.0 -0.0660116 -0.9978188 0.0 -0.0660116 -0.9978188 0.0 -0.0660116 -0.9978188 0.0 -0.9981959 0.060041 0.0 -0.9981959 0.060041 0.0 -0.9981959 0.060041 0.0 -0.9981959 0.060041 0.0 0.0 0.0 -1.0 0.0 0.0 -1.0 0.0 0.0 -1.0 0.0 0.0 -1.0 0.0683621 0.9976606 0.0 0.0683621 0.9976606 0.0 0.0683621 0.9976606 0.0 -0.9967545 0.0805013 0.0 -0.9967545 0.0805013 0.0 -0.9967545 0.0805013 0.0 -0.9967545 0.0805013 0.0 0.9975247 -0.0703168 0.0 0.9975247 -0.0703168 0.0 0.9975247 -0.0703168 0.0 0.9975247 -0.0703168 0.0 0.0665667 0.9977819 0.0 0.0665667 0.9977819 0.0 0.0665667 0.9977819 0.0 -0.9976998 0.0677868 0.0 -0.9976998 0.0677868 0.0 -0.9976998 0.0677868 0.0 -0.9976998 0.0677868 0.0 0.9978414 -0.0656716 0.0 0.9978414 -0.0656716 0.0 0.9978414 -0.0656716 0.0 0.9978414 -0.0656716 0.0 0.0 0.0 -1.0 0.0 0.0 -1.0 0.0 0.0 -1.0 0.0 0.0 -1.0 0.0 0.0 -1.0 0.0 0.0 -1.0 0.0 0.0 -1.0 0.0 0.0 -1.0 0.0 0.0 -1.0 0.0 0.0 -1.0 0.0 0.0 -1.0 0.0 0.0 -1.0 0.0 0.0 1.0 0.0 0.0 1.0 0.0 0.0 1.0 0.0 0.0 1.0 0.0 0.0 1.0 0.0 0.0 1.0 0.126874 0.9919188 0.0 0.126874 0.9919188 0.0 0.126874 0.9919188 0.0 0.126874 0.9919188 0.0 0.126874 0.9919188 0.0 0.0549173 0.9984909 0.0 0.0549173 0.9984909 0.0 0.0549173 0.9984909 0.0 0.0549173 0.9984909 0.0 -0.0464625 -0.99892 0.0 -0.0464625 -0.99892 0.0 -0.0464625 -0.99892 0.0 -0.0464625 -0.99892 0.0 0.9976975 -0.0678215 0.0 0.9976975 -0.0678215 0.0 0.9976975 -0.0678215 0.0 0.9976975 -0.0678215 0.0 0.9976975 -0.0678215 0.0 0.9976975 -0.0678215 0.0 0.0 0.0 1.0 0.0 0.0 1.0 0.0 0.0 1.0 0.0 0.0 1.0 0.0 0.0 1.0 0.0 0.0 -1.0 0.0 0.0 -1.0 0.0 0.0 -1.0 0.0 0.0 -1.0 0.0 0.0 -1.0 0.9976698 -0.068228 0.0 0.9976698 -0.068228 0.0 0.9976698 -0.068228 0.0 0.9976698 -0.068228 0.0 -0.9977773 0.0666355 0.0 -0.9977773 0.0666355 0.0 -0.9977773 0.0666355 0.0 -0.9977773 0.0666355 0.0 -0.9977773 0.0666355 0.0 -0.9977773 0.0666355 0.0 0.0 0.0 1.0 0.0 0.0 1.0 0.0 0.0 1.0 0.0 0.0 1.0 0.9974855 -0.0708707 0.0 0.9974855 -0.0708707 0.0 0.9974855 -0.0708707 0.0 0.9974855 -0.0708707 0.0 -1.783E-4 -0.0019736 0.999998 -1.799E-4 -0.0019737 0.999998 -1.772E-4 -0.0019701 0.999998 -1.775E-4 -0.0019735 0.999998 -1.804E-4 -0.0019805 0.999998 -0.087568 -0.9961585 0.0 -0.087568 -0.9961585 0.0 -0.087568 -0.9961585 0.0 -0.087568 -0.9961585 0.0 -0.9977248 0.0674179 0.0 -0.9977248 0.0674179 0.0 -0.9977248 0.0674179 0.0 -0.9977248 0.0674179 0.0 0.0676685 0.9977079 0.0 0.0676685 0.9977079 0.0 0.0676685 0.9977079 0.0 0.0 0.0 -1.0 0.0 0.0 -1.0 0.0 0.0 -1.0 0.0 0.0 -1.0 0.0 0.0 -1.0 0.0 0.0 -1.0 0.0 0.0 -1.0 0.0 0.0 -1.0 0.0 0.0 -1.0 0.0 0.0 -1.0 0.0 0.0 -1.0 -0.0712329 -0.907901 0.4130878 -0.0712633 -0.9079824 0.4129037 -0.0712329 -0.907901 0.4130878 -0.0712025 -0.9078196 0.413272 -0.0330284 -0.0220386 0.9992114 -0.0330284 -0.0220386 0.9992114 -0.0330284 -0.0220386 0.9992114 0.1132006 0.9935722 0.0 0.1132006 0.9935722 0.0 0.1132006 0.9935722 0.0 0.1132006 0.9935722 0.0 0.0 0.0 -1.0 0.0 0.0 -1.0 0.0 0.0 -1.0 0.0 0.0 -1.0 0.0 0.0 -1.0 0.0 0.0 -1.0 0.9977098 -0.067641 0.0 0.9977098 -0.067641 0.0 0.9977098 -0.067641 0.0 0.9977098 -0.067641 0.0 -0.0684022 -0.9976578 0.0 -0.0684022 -0.9976578 0.0 -0.0684022 -0.9976578 0.0 -0.0684022 -0.9976578 0.0 0.0611213 0.9981303 0.0 0.0611213 0.9981303 0.0 0.0611213 0.9981303 0.0 0.0611213 0.9981303 0.0 0.0611213 0.9981303 0.0 0.0611213 0.9981303 0.0 0.0611213 0.9981303 0.0 0.0 0.0 1.0 0.0 0.0 1.0 0.0 0.0 1.0 0.0 0.0 1.0 0.0 0.0 1.0 0.0 0.0 1.0 0.0 0.0 1.0 0.0 0.0 1.0 0.0 0.0 1.0 -0.9978919 0.0648979 0.0 -0.9978919 0.0648979 0.0 -0.9978919 0.0648979 0.0 -0.9978919 0.0648979 0.0 0.0633029 0.9979944 0.0 0.0633029 0.9979944 0.0 0.0633029 0.9979944 0.0 0.0633029 0.9979944 0.0 -0.1132006 -0.9935722 0.0 -0.1132006 -0.9935722 0.0 -0.1132006 -0.9935722 0.0 -0.1132006 -0.9935722 0.0 -0.0638438 -0.9979599 0.0 -0.0638438 -0.9979599 0.0 -0.0638438 -0.9979599 0.0 0.3348825 -0.0241365 0.9419507 0.3338162 -0.0234923 0.9423454 0.3350662 -0.0235829 0.9418995 0.3362019 -0.0236678 0.9414924 0.3360919 -0.0236612 0.941532 0.3355105 -0.0238637 0.9417342 0.3354582 -0.0238717 0.9417527 0.3362393 -0.0235612 0.9414818 0.3316025 -0.0259788 0.9430615 0.3333341 -0.0251984 0.9424719 0.3364549 -0.023578 0.9414044 0.3360838 -0.0236501 0.9415352 0.3369842 -0.0235584 0.9412155 0.0466658 -0.0037089 0.9989038 0.0466809 -0.0037247 0.998903 0.0466658 -0.0037089 0.9989038 0.0466506 -0.0036932 0.9989045 -0.0611917 -0.998126 0.0 -0.0611917 -0.998126 0.0 -0.0611917 -0.998126 0.0 -0.0611917 -0.998126 0.0 -0.0611917 -0.998126 0.0 -0.0611917 -0.998126 0.0 -0.1132006 -0.9935721 0.0 -0.1132006 -0.9935722 0.0 -0.1132006 -0.9935721 0.0 -0.1132006 -0.9935721 0.0 0.9974972 -0.0707059 0.0 0.9974972 -0.0707059 0.0 0.9974972 -0.0707059 0.0 0.9974972 -0.0707059 0.0 0.9974972 -0.0707059 0.0 0.9974972 -0.0707059 0.0 0.9974973 -0.0707059 0.0 0.0611578 0.9981281 0.0 0.0611578 0.9981281 0.0 0.0611578 0.9981281 0.0 0.0611578 0.9981281 0.0 -0.0708888 -0.9974842 0.0 -0.0708888 -0.9974842 0.0 -0.0708888 -0.9974842 0.0 -0.0708888 -0.9974842 0.0 0.0638919 0.9979569 2.9E-6 0.0638438 0.9979599 0.0 0.0638707 0.9979582 4.4E-6 0.0639159 0.9979553 4.4E-6 0.0639343 0.9979541 0.0 0.0611578 0.9981281 0.0 0.0611578 0.9981281 0.0 0.0611578 0.9981281 0.0 0.0611578 0.9981282 0.0 0.9967546 -0.0805005 2.0E-7 0.9967546 -0.0805004 0.0 0.9967545 -0.0805009 3.0E-7 0.9967545 -0.0805006 3.0E-7 0.9967546 -0.0804998 0.0 0.9992137 -0.0396486 0.0 0.9992137 -0.0396486 0.0 0.9992137 -0.0396486 0.0 0.9992137 -0.0396486 0.0 -0.0829878 -0.9965506 0.0 -0.0829878 -0.9965506 0.0 -0.0829878 -0.9965506 0.0 -0.0829878 -0.9965506 0.0 -0.0829878 -0.9965506 0.0 -0.0829878 -0.9965506 0.0 0.9973513 -0.0727339 0.0 0.9973513 -0.0727339 0.0 0.9973513 -0.0727339 0.0 0.9973513 -0.0727339 0.0 -0.9967545 0.0805004 0.0 -0.9967545 0.0805004 0.0 -0.9967545 0.0805004 0.0 -0.9967545 0.0805004 0.0 0.9978413 -0.0656716 0.0 0.9978413 -0.0656716 0.0 0.9978413 -0.0656716 0.0 0.9978413 -0.0656716 0.0 0.0801073 0.9967862 0.0 0.0801073 0.9967862 0.0 0.0801073 0.9967862 0.0 0.0801073 0.9967862 0.0 0.0797399 0.9968157 0.0 0.0797399 0.9968157 0.0 0.0797399 0.9968157 0.0 0.0797399 0.9968157 0.0 0.0797399 0.9968157 0.0 -0.0611578 -0.9981281 0.0 -0.0611578 -0.9981282 0.0 -0.0611578 -0.9981281 0.0 -0.0611578 -0.9981281 0.0 -0.9975135 0.0704748 0.0 -0.9975135 0.0704748 0.0 -0.9975135 0.0704748 0.0 -0.9975135 0.0704748 0.0 -0.0611855 -0.9981264 2.34E-5 -0.0611917 -0.9981261 0.0 -0.0611763 -0.998127 1.56E-5 -0.0611649 -0.9981276 1.56E-5 -0.0611578 -0.9981281 0.0 -0.0611578 -0.9981281 0.0 0.9973521 -0.0727239 9.04E-5 0.9973513 -0.0727339 0.0 0.9973513 -0.0727339 0.0 0.9973525 -0.0727189 1.356E-4 0.9973535 -0.0727038 2.712E-4 -0.9975135 0.0704748 0.0 -0.9975135 0.0704748 0.0 -0.9975135 0.0704748 0.0 -0.9975135 0.0704748 0.0 -0.0611578 -0.9981281 0.0 -0.0611578 -0.9981281 0.0 -0.0611578 -0.9981281 0.0 -0.0611578 -0.9981281 0.0 -0.9974798 0.0709505 0.0 -0.9974798 0.0709505 0.0 -0.9974798 0.0709505 0.0 -0.9974798 0.0709505 0.0 -0.1131921 -0.9935731 0.0 -0.1131921 -0.9935731 0.0 -0.1131921 -0.9935731 0.0 -0.1131921 -0.9935731 0.0 0.9976434 -0.0686129 0.0 0.9976434 -0.0686129 0.0 0.9976434 -0.0686129 0.0 0.9976434 -0.0686129 0.0 0.9976434 -0.0686129 0.0 0.0630323 0.9980115 0.0 0.0630323 0.9980115 0.0 0.0630323 0.9980115 0.0 0.0630323 0.9980115 0.0 0.9978939 -0.0648676 0.0 0.9978939 -0.0648676 0.0 0.9978939 -0.0648676 0.0 0.9978939 -0.0648676 0.0 -0.9967546 0.0805003 7.0E-7 -0.9967546 0.0805004 0.0 -0.9967546 0.0805004 0.0 -0.9967546 0.0805003 1.1E-6 -0.9967546 0.0805002 2.1E-6 -0.9992137 0.0396486 0.0 -0.9992137 0.0396486 0.0 -0.9992137 0.0396486 0.0 -0.9992137 0.0396486 0.0 -0.0630323 -0.9980115 0.0 -0.0630323 -0.9980115 0.0 -0.0630323 -0.9980115 0.0 -0.0630323 -0.9980115 0.0 -0.9977263 0.0673967 0.0 -0.9977263 0.0673967 0.0 -0.9977263 0.0673967 0.0 -0.9977263 0.0673967 0.0 -0.9977263 0.0673967 0.0 -0.0583186 -0.998298 0.0 -0.0583186 -0.998298 0.0 -0.0583186 -0.998298 0.0 -0.0583186 -0.998298 0.0 -0.997466 0.0711452 0.0 -0.997466 0.0711452 0.0 -0.997466 0.0711452 0.0 -0.997466 0.0711452 0.0 -0.9967545 0.0805013 0.0 -0.9967545 0.0805013 0.0 -0.9967545 0.0805013 0.0 -0.9967545 0.0805013 0.0 0.0 0.0 1.0 0.0 0.0 1.0 0.0 0.0 1.0 0.0 0.0 1.0 0.0 0.0 1.0 0.0 0.0 1.0 0.0 0.0 1.0 0.0 0.0 1.0 0.0 0.0 1.0 0.0926559 0.9956982 0.0 0.0926559 0.9956982 0.0 0.0926559 0.9956982 0.0 0.0926088 0.9957026 0.0 0.0926088 0.9957026 0.0 0.0926088 0.9957026 0.0 0.9968809 -0.0789198 0.0 0.9968809 -0.0789198 0.0 0.9968809 -0.0789198 0.0 0.9968809 -0.0789198 0.0 -0.1131921 -0.9935731 0.0 -0.1131921 -0.9935731 0.0 -0.1131921 -0.9935731 0.0 -0.1131921 -0.9935731 0.0 -0.9978413 0.0656716 0.0 -0.9978413 0.0656716 0.0 -0.9978413 0.0656716 0.0 -0.9978413 0.0656716 0.0 -0.0622412 -0.9980611 0.0 -0.0622412 -0.9980611 0.0 -0.0622412 -0.9980611 0.0 -0.0622412 -0.9980611 0.0 -0.0622412 -0.9980611 0.0 -0.0621513 -0.9980668 0.0 -0.0621513 -0.9980667 0.0 -0.0621513 -0.9980667 0.0 -0.0621513 -0.9980668 0.0 -0.0621513 -0.9980667 0.0 -0.0621513 -0.9980667 0.0 -0.0611974 -0.9981257 0.0 -0.0611974 -0.9981257 0.0 -0.0611974 -0.9981257 0.0 -0.0611974 -0.9981257 0.0</float_array>
                    <technique_common>
                        <accessor count="848" source="#geometry0-normal-array" stride="3">
                            <param name="X" type="float"/>
                            <param name="Y" type="float"/>
                            <param name="Z" type="float"/>
                        </accessor>
                    </technique_common>
                </source>
                <vertices id="geometry0-vertex">
                    <input semantic="POSITION" source="#geometry0-position"/>
                </vertices>
                <triangles count="404" material="default_ai_0.2_sh_0.2_tr_0.0_dc_r_0.8_g_0.8_b_0.8_sc_r_1.0_g_1.0_b_1.0_ec_r_0.0_g_0.0_b_0_tri">
                    <input offset="0" semantic="VERTEX" source="#geometry0-vertex"/>
                    <input offset="1" semantic="NORMAL" source="#geometry0-normal"/>
                    <p>58 0 59 1 31 2 58 0 31 2 30 3 34 4 58 0 30 3 32 5 34 4 30 3 33 6 32 5 30 3 50 7 33 6 30 3 39 8 50 7 30 3 40 9 39 8 30 3 27 10 26 11 40 9 27 10 40 9 30 3 57 12 27 10 30 3 57 12 30 3 53 13 56 14 57 12 53 13 55 15 56 14 53 13 37 16 54 17 55 15 51 18 38 19 37 16 51 18 37 16 55 15 51 18 55 15 53 13 51 18 53 13 52 20 55 26 54 27 78 28 55 26 78 28 77 29 55 26 77 29 163 30 55 26 163 30 57 31 55 26 57 31 56 32 90 33 91 34 92 35 90 33 92 35 93 36 115 41 138 42 137 43 115 41 137 43 110 44 13 51 14 52 34 53 13 51 34 53 58 54 13 51 58 54 62 55 36 56 44 57 54 58 36 56 54 58 37 59 109 60 108 61 104 62 109 60 104 62 11 63 109 60 11 63 2 64 60 65 62 66 12 67 60 65 12 67 49 68 145 69 144 70 137 71 145 69 137 71 67 72 145 69 67 72 70 73 58 74 59 75 60 76 58 74 60 76 62 77 96 78 97 79 106 80 96 78 106 80 107 81 96 78 107 81 113 82 55 83 61 84 63 85 55 83 63 85 56 86 63 87 23 88 22 89 63 87 22 89 57 90 63 87 57 90 56 91 143 92 167 93 168 94 143 92 168 94 144 95 48 96 60 97 59 98 48 96 59 98 31 99 48 96 31 99 28 100 16 101 15 102 32 103 16 101 32 103 33 104 184 114 34 115 14 116 184 114 14 116 182 117 184 114 182 117 183 118 144 119 168 120 170 121 144 119 170 121 153 122 144 119 153 122 111 123 144 119 111 123 110 124 144 119 110 124 137 125 18 126 17 127 50 128 18 126 50 128 39 129 64 130 65 131 66 132 64 130 66 132 67 133 43 145 61 146 55 147 43 145 55 147 54 148 43 145 54 148 44 149 62 150 58 151 34 152 62 150 34 152 14 153 62 150 14 153 13 154 15 160 14 161 34 162 15 160 34 162 32 163 41 164 40 165 26 166 41 164 26 166 25 167 116 168 120 169 102 170 116 168 102 170 101 171 59 172 58 173 62 174 59 172 62 174 60 175 60 176 48 177 28 178 60 176 28 178 31 179 60 176 31 179 59 180 11 181 104 182 103 183 10 184 11 181 103 183 10 184 103 183 149 185 106 186 178 187 181 188 106 186 181 188 107 189 145 190 70 191 71 192 145 190 71 192 146 193 145 190 146 193 140 194 69 195 70 196 67 197 69 195 67 197 66 198 69 195 66 198 68 199 128 200 127 201 126 202 128 200 126 202 134 203 128 200 134 203 129 204 133 205 125 206 87 207 133 205 87 207 86 208 133 205 86 208 130 209 133 205 130 209 131 210 133 205 131 210 132 211 72 222 71 223 70 224 72 222 70 224 69 225 68 226 9 227 8 228 68 226 8 228 174 229 73 230 68 226 174 229 73 230 174 229 173 231 165 232 44 233 54 234 165 232 54 234 55 235 165 232 55 235 61 236 73 237 72 238 69 239 73 237 69 239 68 240 71 241 64 242 136 243 71 241 136 243 146 244 11 245 2 246 1 247 11 245 1 247 10 248 55 249 56 250 63 251 55 249 63 251 61 252 167 253 166 254 169 255 35 256 36 257 37 258 35 256 37 258 38 259 89 260 88 261 77 262 89 260 77 262 78 263 179 264 185 265 186 266 179 264 186 266 180 267 23 268 63 269 56 270 23 268 56 270 57 271 23 268 57 271 22 272 3 273 9 274 8 275 3 273 8 275 0 276 22 277 21 278 27 279 22 277 27 279 57 280 81 281 87 282 86 283 81 281 86 283 82 284 81 285 76 286 75 287 81 285 75 287 87 288 78 289 77 290 80 291 78 289 80 291 88 292 83 293 78 289 88 292 83 293 88 292 89 294 104 295 105 296 95 297 103 298 104 295 95 297 103 298 95 297 94 299 1 300 10 301 149 302 1 300 149 302 148 303 143 304 142 305 167 306 113 307 177 308 175 309 96 310 113 307 175 309 96 310 175 309 176 311 39 312 40 313 41 314 39 312 41 314 19 315 39 312 19 315 18 316 75 317 124 318 122 319 75 317 122 319 123 320 75 317 123 320 76 321 47 322 46 323 52 324 47 322 52 324 53 325 77 336 78 337 74 338 77 336 74 338 75 339 77 336 75 339 76 340 120 341 103 342 94 343 120 341 94 343 102 344 0 345 1 346 2 347 0 345 2 347 3 348 115 349 114 350 139 351 115 349 139 351 138 352 26 353 40 354 41 355 26 353 41 355 25 356 48 357 60 358 49 359 62 360 13 361 12 362 87 363 125 364 124 365 87 363 124 365 75 366 158 367 155 368 154 369 158 367 154 369 121 370 158 367 121 370 118 371 23 372 22 373 162 374 154 375 153 376 111 377 154 375 111 377 121 378 125 379 126 380 122 381 125 379 122 381 124 382 117 383 119 384 118 385 117 383 118 385 121 386 117 383 121 386 111 387 117 383 111 387 112 388 44 389 165 390 159 391 4 392 5 393 6 394 4 392 6 394 7 395 66 408 3 409 9 410 66 408 9 410 68 411 147 412 142 413 141 414 147 412 141 414 135 415 147 412 135 415 139 416 31 417 188 418 187 419 28 420 31 417 187 419 28 420 187 419 189 421 78 422 54 423 44 424 78 422 44 424 159 425 89 426 78 422 159 425 89 426 159 425 160 427 107 428 92 429 91 430 106 431 107 428 91 430 106 431 91 430 98 432 71 433 70 434 67 435 71 433 67 435 64 436 147 437 139 438 138 439 147 437 138 439 143 440 147 437 143 440 142 441 5 442 8 443 9 444 5 442 9 444 6 445 17 446 16 447 33 448 17 446 33 448 50 449 97 450 106 451 98 452 137 453 144 454 143 455 137 453 143 455 138 456 152 457 153 458 154 459 152 457 154 459 155 460 152 457 155 460 150 461 152 457 150 461 151 462 178 463 179 464 180 465 178 463 180 465 181 466 190 467 40 468 26 469 190 467 26 469 191 470 125 471 133 472 126 473 169 474 166 475 155 476 169 474 155 476 154 477 126 478 127 479 123 480 126 478 123 480 122 481 61 482 43 483 42 484 151 485 156 486 157 487 151 485 157 487 152 488 65 489 73 490 173 491 65 489 173 491 171 492 188 493 31 494 186 495 31 494 59 496 186 495 186 495 59 496 180 497 180 497 59 496 181 498 181 498 59 496 107 499 107 499 59 496 113 500 113 500 59 496 177 501 177 501 59 496 184 502 184 502 59 496 34 503 34 503 59 496 58 504 57 511 163 512 161 513 22 514 57 511 161 513 22 514 161 513 162 515 46 516 45 517 51 518 46 516 51 518 52 519 185 520 187 521 188 522 185 520 188 522 186 523 77 524 76 525 81 526 77 524 81 526 82 527 77 524 82 527 79 528 77 524 79 528 80 529 111 535 153 536 152 537 111 535 152 537 157 538 111 535 157 538 112 539 183 540 175 541 177 542 183 540 177 542 184 543 75 544 74 545 85 546 87 547 75 544 85 546 86 548 87 547 85 546 86 548 85 546 84 549 41 554 25 555 20 556 41 554 20 556 19 557 83 563 85 564 74 565 83 563 74 565 78 566 156 567 117 568 112 569 156 567 112 569 157 570 23 571 63 572 24 573 109 574 110 575 108 576 108 576 110 575 104 577 104 577 110 575 105 578 110 575 111 579 105 578 105 578 111 579 113 580 113 580 111 579 107 581 107 581 111 579 92 582 92 582 111 579 93 583 93 583 111 579 112 584 82 592 86 593 84 594 82 592 84 594 79 595 7 596 6 597 9 598 7 596 9 598 3 599 7 596 3 599 2 600 7 596 2 600 11 601 96 602 95 603 105 604 96 602 105 604 113 605 167 606 169 607 170 608 167 606 170 608 168 609 67 610 137 611 138 612 67 610 138 612 139 613 67 610 139 613 135 614 64 615 67 610 135 614 64 615 135 614 136 616 10 626 4 627 7 628 10 626 7 628 11 629 63 630 61 631 42 632 63 630 42 632 24 633 75 634 76 635 81 636 75 634 81 636 87 637 97 638 96 639 176 640 118 658 119 659 117 660 118 658 117 660 112 661 121 662 118 658 112 661 121 662 112 661 111 663 81 664 82 665 86 666 81 664 86 666 87 667 110 668 109 669 116 670 110 668 116 670 101 671 115 672 110 668 101 671 114 673 115 672 101 671 114 673 101 671 100 674 121 675 115 676 110 677 121 675 110 677 111 678 29 679 47 680 53 681 29 679 53 681 30 682 97 683 96 684 113 685 97 683 113 685 107 686 97 683 107 686 106 687 121 688 118 689 114 690 121 688 114 690 115 691 119 692 150 693 155 694 119 692 155 694 158 695 119 692 158 695 118 696 120 697 108 698 104 699 120 697 104 699 103 700 144 701 145 702 140 703 143 704 144 701 140 703 142 705 143 704 140 703 142 705 140 703 141 706 138 707 143 708 144 709 138 707 144 709 137 710 111 711 153 712 154 713 111 711 154 713 121 714 65 715 66 716 68 717 65 715 68 717 73 718 25 719 192 720 191 721 25 719 191 721 26 722 26 723 27 724 21 725 25 726 26 723 21 725 25 726 21 725 20 727 121 728 115 729 114 730 121 728 114 730 118 731 8 732 9 733 3 734 8 732 3 734 0 735 99 736 117 737 119 738 100 739 99 736 119 738 100 739 119 738 118 740 100 739 118 740 114 741 142 742 143 743 138 744 142 742 138 744 139 745 142 742 139 745 147 746 8 747 0 748 172 749 8 747 172 749 174 750 111 751 110 752 115 753 111 751 115 753 121 754 45 755 35 756 38 757 45 755 38 757 51 758 127 759 128 760 82 761 127 759 82 761 81 762 163 763 77 764 88 765 163 763 88 765 164 766 163 763 164 766 161 767 116 768 109 769 108 770 116 768 108 770 120 771 1 772 2 773 11 774 1 772 11 774 10 775 118 776 121 777 154 778 118 776 154 778 155 779 118 776 155 779 158 780 104 781 108 782 120 783 104 781 120 783 103 784 108 785 109 786 116 787 108 785 116 787 120 788 93 789 112 790 117 791 93 789 117 791 99 792 93 789 99 792 90 793 193 794 41 795 40 796 193 794 40 796 190 797 28 798 29 799 30 800 28 798 30 800 31 801 169 802 154 803 153 804 169 802 153 804 170 805 48 815 28 816 189 817 14 818 13 819 182 820 192 821 193 822 190 823 192 821 190 823 191 824 127 825 81 826 76 827 127 825 76 827 123 828 68 829 66 830 65 831 68 829 65 831 73 832 109 833 2 834 1 835 109 833 1 835 148 836 109 833 148 836 116 837 3 838 66 839 65 840 3 838 65 840 171 841 0 842 3 838 171 841 0 842 171 841 172 843 67 844 70 845 71 846 67 844 71 846 64 847</p>
                </triangles>
                <triangles count="90" material="default_ai_0.2_sh_0.2_tr_0.0_dc_r_1.0_g_0.2_b_0.2_sc_r_1.0_g_1.0_b_1.0_ec_r_0.0_g_0.0_b_0_tri">
                    <input offset="0" semantic="VERTEX" source="#geometry0-vertex"/>
                    <input offset="1" semantic="NORMAL" source="#geometry0-normal"/>
                    <p>149 21 103 22 120 23 149 21 120 23 116 24 149 21 116 24 148 25 133 37 132 38 134 39 133 37 134 39 126 40 147 45 158 46 155 47 147 45 155 47 166 48 147 45 166 48 167 49 147 45 167 49 142 50 129 105 130 106 86 107 129 105 86 107 82 108 129 105 82 108 128 109 173 110 174 111 172 112 173 110 172 112 171 113 100 134 101 135 102 136 100 134 102 136 94 137 100 134 94 137 95 138 99 139 100 134 95 138 99 139 95 138 96 140 99 139 96 140 97 141 99 139 97 141 98 142 90 143 99 139 98 142 90 143 98 142 91 144 136 155 135 156 141 157 136 155 141 157 140 158 136 155 140 158 146 159 65 212 64 213 71 214 65 212 71 214 72 215 65 212 72 215 73 216 158 217 147 218 139 219 158 217 139 219 114 220 158 217 114 220 118 221 185 326 179 327 183 328 185 326 183 328 182 329 185 326 182 329 13 330 185 326 13 330 62 331 185 326 62 331 60 332 185 326 60 332 48 333 185 326 48 333 189 334 185 326 189 334 187 335 48 396 49 397 42 398 48 396 42 398 43 399 48 396 43 399 44 400 48 396 44 400 36 401 48 396 36 401 35 402 48 396 35 402 45 403 29 404 28 405 48 396 29 404 48 396 45 403 29 404 45 403 46 406 29 404 46 406 47 407 5 505 4 506 8 507 8 507 4 506 0 508 0 508 4 506 1 509 1 509 4 506 10 510 84 530 85 531 83 532 84 530 83 532 80 533 84 530 80 533 79 534 49 550 12 551 24 552 49 550 24 552 42 553 129 558 134 559 132 560 129 558 132 560 131 561 129 558 131 561 130 562 176 585 175 586 178 587 176 585 178 587 106 588 176 589 106 590 97 591 179 617 178 618 175 619 179 617 175 619 183 620 156 621 151 622 150 623 156 621 150 623 119 624 156 621 119 624 117 625 23 641 24 642 12 643 23 641 12 643 13 644 23 641 13 644 14 645 23 641 14 645 15 646 23 641 15 646 16 647 23 641 16 647 17 648 23 641 17 648 18 649 23 641 18 649 19 650 21 651 22 652 23 641 21 651 23 641 19 650 21 651 19 650 20 653 192 654 25 655 41 656 192 654 41 656 193 657 164 806 160 807 159 808 164 806 159 808 165 809 164 806 165 809 61 810 164 806 61 810 63 811 164 806 63 811 23 812 161 813 164 806 23 812 161 813 23 812 162 814</p>
                </triangles>
            </mesh>
        </geometry>
    </library_geometries>
    <library_visual_scenes>
        <visual_scene id="Building_DEBW_5221000QfQm">
            <node>
                <instance_geometry url="#geometry0">
                    <bind_material>
                        <technique_common>
                            <instance_material symbol="default_ai_0.2_sh_0.2_tr_0.0_dc_r_0.8_g_0.8_b_0.8_sc_r_1.0_g_1.0_b_1.0_ec_r_0.0_g_0.0_b_0_tri" target="#default_ai_0.2_sh_0.2_tr_0.0_dc_r_0.8_g_0.8_b_0.8_sc_r_1.0_g_1.0_b_1.0_ec_r_0.0_g_0.0_b_0_mat"/>
                            <instance_material symbol="default_ai_0.2_sh_0.2_tr_0.0_dc_r_1.0_g_0.2_b_0.2_sc_r_1.0_g_1.0_b_1.0_ec_r_0.0_g_0.0_b_0_tri" target="#default_ai_0.2_sh_0.2_tr_0.0_dc_r_1.0_g_0.2_b_0.2_sc_r_1.0_g_1.0_b_1.0_ec_r_0.0_g_0.0_b_0_mat"/>
                        </technique_common>
                    </bind_material>
                </instance_geometry>
            </node>
        </visual_scene>
    </library_visual_scenes>
    <scene>
        <instance_visual_scene url="#Building_DEBW_5221000QfQm"/>
    </scene>
</COLLADA>
