<?xml version="1.0" encoding="UTF-8" standalone="yes"?>
<COLLADA xmlns="http://www.collada.org/2005/11/COLLADASchema" version="1.4.1">
    <asset>
        <contributor>
            <authoring_tool>3D City Database Importer/Exporter, version 5.5.3; Chair of Geoinformatics, Technical University of Munich</authoring_tool>
        </contributor>
        <created>2026-05-06T15:12:15.070</created>
        <modified>2026-05-06T15:12:15.070</modified>
        <unit meter="1.0" name="meters"/>
        <up_axis>Z_UP</up_axis>
    </asset>
    <library_materials>
        <material id="default_ai_0.2_sh_0.2_tr_0.0_dc_r_0.8_g_0.8_b_0.8_sc_r_1.0_g_1.0_b_1.0_ec_r_0.0_g_0.0_b_0_mat">
            <instance_effect url="#default_ai_0.2_sh_0.2_tr_0.0_dc_r_0.8_g_0.8_b_0.8_sc_r_1.0_g_1.0_b_1.0_ec_r_0.0_g_0.0_b_0_eff"/>
        </material>
        <material id="default_ai_0.2_sh_0.2_tr_0.0_dc_r_1.0_g_0.2_b_0.2_sc_r_1.0_g_1.0_b_1.0_ec_r_0.0_g_0.0_b_0_mat">
            <instance_effect url="#default_ai_0.2_sh_0.2_tr_0.0_dc_r_1.0_g_0.2_b_0.2_sc_r_1.0_g_1.0_b_1.0_ec_r_0.0_g_0.0_b_0_eff"/>
        </material>
    </library_materials>
    <library_effects>
        <effect id="default_ai_0.2_sh_0.2_tr_0.0_dc_r_0.8_g_0.8_b_0.8_sc_r_1.0_g_1.0_b_1.0_ec_r_0.0_g_0.0_b_0_eff">
            <profile_COMMON>
                <technique sid="COMMON">
                    <lambert>
                        <emission>
                            <color>0.0 0.0 0.0 1.0</color>
                        </emission>
                        <diffuse>
                            <color>0.8 0.8 0.8 1.0</color>
                        </diffuse>
                        <reflective>
                            <color>1.0 1.0 1.0 1.0</color>
                        </reflective>
                        <reflectivity>
                            <float>0.2</float>
                        </reflectivity>
                        <transparent opaque="A_ONE">
                            <color>1.0 1.0 1.0 1.0</color>
                        </transparent>
                        <transparency>
                            <float>1.0</float>
                        </transparency>
                    </lambert>
                </technique>
                <extra>
                    <technique profile="GOOGLEEARTH">
                        <double_sided>0</double_sided>
                    </technique>
                </extra>
            </profile_COMMON>
        </effect>
        <effect id="default_ai_0.2_sh_0.2_tr_0.0_dc_r_1.0_g_0.2_b_0.2_sc_r_1.0_g_1.0_b_1.0_ec_r_0.0_g_0.0_b_0_eff">
            <profile_COMMON>
                <technique sid="COMMON">
                    <lambert>
                        <emission>
                            <color>0.0 0.0 0.0 1.0</color>
                        </emission>
                        <diffuse>
                            <color>1.0 0.2 0.2 1.0</color>
                        </diffuse>
                        <reflective>
                            <color>1.0 1.0 1.0 1.0</color>
                        </reflective>
                        <reflectivity>
                            <float>0.2</float>
                        </reflectivity>
                        <transparent opaque="A_ONE">
                            <color>1.0 1.0 1.0 1.0</color>
                        </transparent>
                        <transparency>
                            <float>1.0</float>
                        </transparency>
                    </lambert>
                </technique>
                <extra>
                    <technique profile="GOOGLEEARTH">
                        <double_sided>0</double_sided>
                    </technique>
                </extra>
            </profile_COMMON>
        </effect>
    </library_effects>
    <library_geometries>
        <geometry id="geometry0">
            <mesh>
                <source id="geometry0-position">
                    <float_array id="geometry0-position-array" count="114">0.928 -2.069 3.735 0.0 0.0 3.209 0.0 0.0 0.0 0.928 -2.069 0.0 4.228 1.881 0.0 5.128 -0.199 0.0 5.128 -0.199 3.735 4.228 1.881 3.209 -9.552 21.201 9.672 5.528 27.971 9.667 5.528 27.971 0.0 -9.552 21.201 0.0 -6.702 14.851 11.002 -6.702 14.851 0.0 14.578 7.921 3.941 15.107 6.721 3.267 15.107 6.721 0.0 14.578 7.921 0.0 0.0 0.0 3.281 -5.942 13.251 10.75 -5.942 13.251 0.0 8.787 20.75 11.18 8.787 20.75 0.0 -8.522 14.041 11.001 -8.522 14.041 0.0 -8.141 13.184 11.18 -8.141 13.184 0.0 -7.802 12.421 10.751 -7.802 12.421 0.0 11.128 4.951 0.0 4.228 1.881 3.277 11.128 4.951 3.271 11.128 4.951 3.484 12.058 2.911 3.484 15.988 4.721 3.276 15.107 6.721 3.275 12.058 2.911 0.0 15.988 4.721 0.0</float_array>
                    <technique_common>
                        <accessor count="38" source="#geometry0-position-array" stride="3">
                            <param name="X" type="float"/>
                            <param name="Y" type="float"/>
                            <param name="Z" type="float"/>
                        </accessor>
                    </technique_common>
                </source>
                <source id="geometry0-normal">
                    <float_array id="geometry0-normal-array" count="420">0.9114437 0.4114249 0.0 0.9114437 0.4114249 0.0 0.9114437 0.4114249 0.0 0.9114437 0.4114249 0.0 -0.4064793 0.91366 0.0 -0.4064793 0.91366 0.0 -0.4064793 0.91366 0.0 -0.4064793 0.91366 0.0 -0.4064367 0.9136789 0.0 -0.4064367 0.9136789 0.0 -0.4064367 0.9136789 0.0 -0.4064367 0.9136789 0.0 -0.4066039 0.9136046 0.0 -0.4066039 0.9136046 0.0 -0.4066039 0.9136046 0.0 -0.4066039 0.9136046 0.0 -0.9137675 -0.4062377 0.0 -0.9137675 -0.4062377 0.0 -0.9137675 -0.4062377 0.0 -0.9137675 -0.4062377 0.0 0.4064793 -0.9136599 0.0 0.4064793 -0.91366 0.0 0.4064793 -0.9136599 0.0 0.4064793 -0.9136599 0.0 0.4064793 -0.91366 0.0 0.4064793 -0.91366 0.0 0.4064793 -0.91366 0.0 0.4064793 -0.91366 0.0 0.4064367 -0.9136789 0.0 0.4064367 -0.9136789 0.0 0.4064367 -0.9136789 0.0 0.4064367 -0.9136789 0.0 -0.9124242 -0.4092458 0.0 -0.9124242 -0.4092458 0.0 -0.9124242 -0.4092458 0.0 -0.9124242 -0.4092458 0.0 -0.0758021 0.1693496 0.9826366 -0.0764982 0.1711555 0.9822697 -0.0760407 0.1699911 0.9825074 -0.0760743 0.1700551 0.9824938 -0.0765584 0.1713107 0.9822381 -0.0765989 0.1713475 0.9822284 0.0 0.0 -1.0 0.0 0.0 -1.0 0.0 0.0 -1.0 0.0 0.0 -1.0 0.9114699 0.4113669 0.0 0.9114699 0.4113669 0.0 0.9114699 0.4113669 0.0 0.9114699 0.4113669 0.0 -0.9099079 -0.4148106 0.0 -0.9099078 -0.4148106 0.0 -0.9099079 -0.4148106 0.0 -0.9099079 -0.4148106 0.0 -0.9099079 -0.4148106 0.0 0.0436875 0.0198301 0.9988484 0.0436916 0.0199182 0.9988465 0.0436875 0.0198301 0.9988484 0.0436834 0.0197419 0.9988503 0.407505 -0.913203 0.0 0.4075049 -0.913203 0.0 0.407505 -0.913203 0.0 0.407505 -0.913203 0.0 0.4067438 -0.9135422 0.0 0.4067438 -0.9135422 0.0 0.4067438 -0.9135422 0.0 0.4067438 -0.9135422 0.0 0.0 0.0 -1.0 0.0 0.0 -1.0 0.0 0.0 -1.0 0.0 0.0 -1.0 0.0 0.0 -1.0 0.0 0.0 -1.0 0.0 0.0 -1.0 0.0 0.0 -1.0 0.0 0.0 -1.0 0.0 0.0 -1.0 0.0 0.0 -1.0 0.0 0.0 -1.0 0.0 0.0 -1.0 0.4183252 -0.9082973 0.0 0.4183253 -0.9082973 0.0 0.4183252 -0.9082973 0.0 0.4183252 -0.9082973 0.0 0.2027716 -0.4101872 0.8891737 0.2188542 -0.4027174 0.8887753 0.1919972 -0.415108 0.889282 0.1865876 -0.4175358 0.8892969 0.1865779 -0.4175471 0.8892936 0.1866181 -0.4175542 0.8892818 0.1866284 -0.4174224 0.8893415 0.1866275 -0.4173546 0.8893735 0.186638 -0.4171765 0.8894549 -0.4064367 0.913679 0.0 -0.4064367 0.9136789 0.0 -0.4064367 0.913679 0.0 -0.4064367 0.913679 0.0 -0.4095596 0.9122833 0.0 -0.4095596 0.9122834 0.0 -0.4095596 0.9122833 0.0 -0.4095596 0.9122833 0.0 0.9177701 0.397112 0.0 0.9177701 0.397112 0.0 0.9177701 0.397112 0.0 0.9177701 0.397112 0.0 -0.9138612 -0.4060269 0.0 -0.9138612 -0.4060269 0.0 -0.9138612 -0.4060269 0.0 -0.9138612 -0.4060269 0.0 -0.9123243 -0.4094684 0.0 -0.9123243 -0.4094684 0.0 -0.9123243 -0.4094684 0.0 -0.9123243 -0.4094684 0.0 0.9151464 0.4031218 0.0 0.9151464 0.4031218 0.0 0.9151464 0.4031218 0.0 0.9151464 0.4031218 0.0 0.9151464 0.4031218 0.0 0.9150336 0.4033776 0.0 0.9150336 0.4033776 0.0 0.9150336 0.4033776 0.0 0.9150336 0.4033776 0.0 0.0 0.0 -1.0 0.0 0.0 -1.0 0.0 0.0 -1.0 0.0 0.0 -1.0 -0.0919059 0.2065003 0.9741206 -0.0919102 0.2064293 0.9741352 -0.0919059 0.2065003 0.9741206 -0.0919017 0.2065712 0.974106 0.406507 -0.9136477 0.0 0.406507 -0.9136477 0.0 0.406507 -0.9136477 0.0 0.406507 -0.9136477 0.0 0.406507 -0.9136477 0.0 -0.9124606 -0.4091646 0.0 -0.9124606 -0.4091646 0.0 -0.9124606 -0.4091646 0.0 -0.9124606 -0.4091646 0.0 -0.9124606 -0.4091646 0.0</float_array>
                    <technique_common>
                        <accessor count="140" source="#geometry0-normal-array" stride="3">
                            <param name="X" type="float"/>
                            <param name="Y" type="float"/>
                            <param name="Z" type="float"/>
                        </accessor>
                    </technique_common>
                </source>
                <vertices id="geometry0-vertex">
                    <input semantic="POSITION" source="#geometry0-position"/>
                </vertices>
                <triangles count="65" material="default_ai_0.2_sh_0.2_tr_0.0_dc_r_0.8_g_0.8_b_0.8_sc_r_1.0_g_1.0_b_1.0_ec_r_0.0_g_0.0_b_0_tri">
                    <input offset="0" semantic="VERTEX" source="#geometry0-vertex"/>
                    <input offset="1" semantic="NORMAL" source="#geometry0-normal"/>
                    <p>21 0 14 1 17 2 21 0 17 2 22 3 4 4 2 5 1 6 4 4 1 6 7 7 15 8 16 9 29 10 15 8 29 10 31 11 23 12 12 13 13 14 23 12 13 14 24 15 25 16 23 17 24 18 25 16 24 18 26 19 1 20 7 21 30 22 1 20 30 22 18 23 1 24 2 25 4 26 1 24 4 26 7 27 29 28 16 29 15 30 29 28 15 30 31 31 0 32 1 33 2 34 0 32 2 34 3 35 4 42 5 43 3 44 4 42 3 44 2 45 9 46 21 47 22 48 9 46 22 48 10 49 29 50 36 51 33 52 31 53 29 50 33 52 31 53 33 52 32 54 19 59 27 60 28 61 19 59 28 61 20 62 6 63 0 64 3 65 6 63 3 65 5 66 26 67 24 68 13 69 28 70 26 67 13 69 20 71 28 70 13 69 20 71 13 69 11 72 20 71 11 72 10 73 20 71 10 73 22 74 20 71 22 74 17 75 20 71 17 75 16 76 20 71 16 76 29 77 20 71 29 77 4 78 20 71 4 78 2 79 34 80 33 81 36 82 34 80 36 82 37 83 35 93 15 94 31 95 35 93 31 95 32 96 8 97 9 98 10 99 8 97 10 99 11 100 7 101 6 102 5 103 7 101 5 103 4 104 27 105 25 106 26 107 27 105 26 107 28 108 12 109 8 110 11 111 12 109 11 111 13 112 37 113 16 114 15 115 37 113 15 115 35 116 37 113 35 116 34 117 14 118 15 119 16 120 14 118 16 120 17 121 16 122 37 123 36 124 16 122 36 124 29 125 4 130 29 131 31 132 7 133 4 130 31 132 7 133 31 132 30 134 20 135 2 136 1 137 20 135 1 137 18 138 20 135 18 138 19 139</p>
                </triangles>
                <triangles count="15" material="default_ai_0.2_sh_0.2_tr_0.0_dc_r_1.0_g_0.2_b_0.2_sc_r_1.0_g_1.0_b_1.0_ec_r_0.0_g_0.0_b_0_tri">
                    <input offset="0" semantic="VERTEX" source="#geometry0-vertex"/>
                    <input offset="1" semantic="NORMAL" source="#geometry0-normal"/>
                    <p>23 36 25 37 21 38 12 39 23 36 21 38 12 39 21 38 9 40 12 39 9 40 8 41 32 55 33 56 34 57 32 55 34 57 35 58 15 84 14 85 21 86 31 87 15 84 21 86 30 88 31 87 21 86 18 89 30 88 21 86 19 90 18 89 21 86 19 90 21 86 25 91 19 90 25 91 27 92 1 126 0 127 6 128 1 126 6 128 7 129</p>
                </triangles>
            </mesh>
        </geometry>
    </library_geometries>
    <library_visual_scenes>
        <visual_scene id="Building_DEBW_5221000QyFr">
            <node>
                <instance_geometry url="#geometry0">
                    <bind_material>
                        <technique_common>
                            <instance_material symbol="default_ai_0.2_sh_0.2_tr_0.0_dc_r_0.8_g_0.8_b_0.8_sc_r_1.0_g_1.0_b_1.0_ec_r_0.0_g_0.0_b_0_tri" target="#default_ai_0.2_sh_0.2_tr_0.0_dc_r_0.8_g_0.8_b_0.8_sc_r_1.0_g_1.0_b_1.0_ec_r_0.0_g_0.0_b_0_mat"/>
                            <instance_material symbol="default_ai_0.2_sh_0.2_tr_0.0_dc_r_1.0_g_0.2_b_0.2_sc_r_1.0_g_1.0_b_1.0_ec_r_0.0_g_0.0_b_0_tri" target="#default_ai_0.2_sh_0.2_tr_0.0_dc_r_1.0_g_0.2_b_0.2_sc_r_1.0_g_1.0_b_1.0_ec_r_0.0_g_0.0_b_0_mat"/>
                        </technique_common>
                    </bind_material>
                </instance_geometry>
            </node>
        </visual_scene>
    </library_visual_scenes>
    <scene>
        <instance_visual_scene url="#Building_DEBW_5221000QyFr"/>
    </scene>
</COLLADA>
