<?xml version="1.0" encoding="UTF-8" standalone="yes"?>
<COLLADA xmlns="http://www.collada.org/2005/11/COLLADASchema" version="1.4.1">
    <asset>
        <contributor>
            <authoring_tool>3D City Database Importer/Exporter, version 5.5.3; Chair of Geoinformatics, Technical University of Munich</authoring_tool>
        </contributor>
        <created>2026-05-06T15:12:07.043</created>
        <modified>2026-05-06T15:12:07.043</modified>
        <unit meter="1.0" name="meters"/>
        <up_axis>Z_UP</up_axis>
    </asset>
    <library_materials>
        <material id="default_ai_0.2_sh_0.2_tr_0.0_dc_r_0.8_g_0.8_b_0.8_sc_r_1.0_g_1.0_b_1.0_ec_r_0.0_g_0.0_b_0_mat">
            <instance_effect url="#default_ai_0.2_sh_0.2_tr_0.0_dc_r_0.8_g_0.8_b_0.8_sc_r_1.0_g_1.0_b_1.0_ec_r_0.0_g_0.0_b_0_eff"/>
        </material>
        <material id="default_ai_0.2_sh_0.2_tr_0.0_dc_r_1.0_g_0.2_b_0.2_sc_r_1.0_g_1.0_b_1.0_ec_r_0.0_g_0.0_b_0_mat">
            <instance_effect url="#default_ai_0.2_sh_0.2_tr_0.0_dc_r_1.0_g_0.2_b_0.2_sc_r_1.0_g_1.0_b_1.0_ec_r_0.0_g_0.0_b_0_eff"/>
        </material>
    </library_materials>
    <library_effects>
        <effect id="default_ai_0.2_sh_0.2_tr_0.0_dc_r_0.8_g_0.8_b_0.8_sc_r_1.0_g_1.0_b_1.0_ec_r_0.0_g_0.0_b_0_eff">
            <profile_COMMON>
                <technique sid="COMMON">
                    <lambert>
                        <emission>
                            <color>0.0 0.0 0.0 1.0</color>
                        </emission>
                        <diffuse>
                            <color>0.8 0.8 0.8 1.0</color>
                        </diffuse>
                        <reflective>
                            <color>1.0 1.0 1.0 1.0</color>
                        </reflective>
                        <reflectivity>
                            <float>0.2</float>
                        </reflectivity>
                        <transparent opaque="A_ONE">
                            <color>1.0 1.0 1.0 1.0</color>
                        </transparent>
                        <transparency>
                            <float>1.0</float>
                        </transparency>
                    </lambert>
                </technique>
                <extra>
                    <technique profile="GOOGLEEARTH">
                        <double_sided>0</double_sided>
                    </technique>
                </extra>
            </profile_COMMON>
        </effect>
        <effect id="default_ai_0.2_sh_0.2_tr_0.0_dc_r_1.0_g_0.2_b_0.2_sc_r_1.0_g_1.0_b_1.0_ec_r_0.0_g_0.0_b_0_eff">
            <profile_COMMON>
                <technique sid="COMMON">
                    <lambert>
                        <emission>
                            <color>0.0 0.0 0.0 1.0</color>
                        </emission>
                        <diffuse>
                            <color>1.0 0.2 0.2 1.0</color>
                        </diffuse>
                        <reflective>
                            <color>1.0 1.0 1.0 1.0</color>
                        </reflective>
                        <reflectivity>
                            <float>0.2</float>
                        </reflectivity>
                        <transparent opaque="A_ONE">
                            <color>1.0 1.0 1.0 1.0</color>
                        </transparent>
                        <transparency>
                            <float>1.0</float>
                        </transparency>
                    </lambert>
                </technique>
                <extra>
                    <technique profile="GOOGLEEARTH">
                        <double_sided>0</double_sided>
                    </technique>
                </extra>
            </profile_COMMON>
        </effect>
    </library_effects>
    <library_geometries>
        <geometry id="geometry0">
            <mesh>
                <source id="geometry0-position">
                    <float_array id="geometry0-position-array" count="156">-1.0 2.03 8.186 0.0 0.0 6.672 0.0 0.0 0.0 -1.0 2.03 0.0 -20.26 -0.84 9.141 -21.93 2.54 6.698 -21.93 2.54 0.0 -20.26 -0.84 0.0 -3.5 -1.74 6.672 -3.65 -2.19 6.447 -3.65 -2.19 0.0 -3.5 -1.74 0.0 -11.82 -5.85 6.686 -15.29 -7.57 6.689 -15.29 -7.57 0.0 -11.82 -5.85 0.0 -21.5 -1.45 9.138 -19.48 -5.53 9.157 -20.468 -3.535 10.646 -3.99 11.44 6.706 -2.31 8.09 9.135 -2.31 8.09 0.0 -3.99 11.44 0.0 -18.24 -4.91 9.159 -19.48 -5.53 0.0 -18.24 -4.91 0.0 -4.15 -3.77 5.65 -6.19 -3.07 6.676 -6.19 -3.07 0.0 -4.15 -3.77 0.0 -13.96 6.5 6.698 -13.96 6.5 0.0 -9.74 -6.55 5.648 -9.09 -4.5 6.682 -0.33 4.02 9.178 0.94 4.65 9.178 -0.038 6.616 10.646 -16.29 -5.54 8.202 -13.51 5.6 7.35 -11.54 6.58 7.35 -11.54 6.58 0.0 -13.51 5.6 0.0 -16.29 -5.54 0.0 -1.07 8.69 9.144 -11.99 7.48 6.698 -11.99 7.48 0.0 -1.07 8.69 0.0 0.94 4.65 0.0 -0.33 4.02 0.0 -9.09 -4.5 0.0 -9.74 -6.55 0.0 -21.5 -1.45 0.0</float_array>
                    <technique_common>
                        <accessor count="52" source="#geometry0-position-array" stride="3">
                            <param name="X" type="float"/>
                            <param name="Y" type="float"/>
                            <param name="Z" type="float"/>
                        </accessor>
                    </technique_common>
                </source>
                <source id="geometry0-normal">
                    <float_array id="geometry0-normal-array" count="480">0.8938928 0.4482807 0.0 0.8938928 0.4482807 0.0 0.8938928 0.4482807 0.0 0.8938928 0.4482807 0.0 -0.4449649 0.895548 0.0 -0.4449649 0.895548 0.0 -0.4449649 0.895548 0.0 -0.4449649 0.895548 0.0 0.9532307 -0.3022436 0.0 0.9532307 -0.3022437 0.0 0.9532307 -0.3022436 0.0 0.9532307 -0.3022436 0.0 -0.4355606 0.9001594 0.0 -0.4355606 0.9001594 0.0 -0.4355606 0.9001594 0.0 -0.4355606 0.9001594 0.0 0.8944273 0.4472134 0.0 0.8944273 0.4472134 0.0 0.8944273 0.4472134 0.0 0.8944273 0.4472134 0.0 -0.4414153 0.8973029 0.0 -0.4414153 0.8973029 0.0 -0.4414153 0.8973029 0.0 -0.4414153 0.8973029 0.0 -0.2424082 0.4882625 0.8383544 -0.2420312 0.4871144 0.8391309 -0.2422991 0.4879082 0.8385921 -0.2412587 0.4856187 0.8402195 -0.2386098 0.4802087 0.8440763 -0.2385864 0.4801445 0.8441196 -0.2418504 0.4868901 0.839313 -0.2419651 0.4870006 0.8392159 -0.2419762 0.4870077 0.8392085 -0.2422159 0.4872118 0.839021 -0.2419983 0.4870096 0.8392011 -0.2419115 0.4870147 0.8392231 0.8970629 0.4419029 0.0 0.8970629 0.4419029 0.0 0.8970629 0.4419029 0.0 0.897063 0.4419029 0.0 -0.8965391 -0.4429646 0.0 -0.8965392 -0.4429647 0.0 -0.8965391 -0.4429646 0.0 -0.8965391 -0.4429646 0.0 -0.3074307 -0.9515705 0.0 -0.3074307 -0.9515705 0.0 -0.3074307 -0.9515705 0.0 -0.3074307 -0.9515705 0.0 -0.3189605 -0.947768 0.0 -0.3189605 -0.947768 0.0 -0.3189605 -0.947768 0.0 -0.3189605 -0.947768 0.0 0.4441125 -0.8959711 0.0 0.4441125 -0.8959711 0.0 0.4441125 -0.8959711 0.0 0.4441125 -0.8959711 0.0 0.8953118 0.4454398 0.0 0.8953119 0.4454399 0.0 0.8953118 0.4454398 0.0 0.8953119 0.4454398 0.0 0.4472139 -0.8944271 0.0 0.4472139 -0.8944271 0.0 0.4472139 -0.8944271 0.0 0.4472139 -0.8944271 0.0 0.24735 -0.4977337 0.8313117 0.2346075 -0.4719517 0.8498358 0.2523652 -0.5078679 0.8236395 0.2473655 -0.4976439 0.8313609 0.2474216 -0.497841 0.8312261 0.231008 -0.4646001 0.8548579 0.223541 -0.449557 0.8648282 0.246745 -0.4965706 0.8321866 0.2473954 -0.4978701 0.8312165 0.2475092 -0.4980257 0.8310894 0.2472791 -0.4977011 0.8313524 0.2475153 -0.4980628 0.8310655 0.2472016 -0.4978121 0.8313088 0.2469827 -0.4978855 0.8313301 0.2474778 -0.4981737 0.8310101 0.247785 -0.4984694 0.8307411 0.2473799 -0.4978792 0.8312156 0.4443899 -0.8958334 0.0 0.4443899 -0.8958334 0.0 0.4443899 -0.8958334 0.0 0.4443899 -0.8958334 0.0 -0.8970627 -0.4419032 0.0 -0.8970627 -0.4419032 0.0 -0.8970627 -0.4419032 0.0 -0.8970628 -0.4419032 0.0 0.4422584 -0.8968877 0.0 0.4422584 -0.8968877 0.0 0.4422584 -0.8968877 0.0 0.4422584 -0.8968877 0.0 -0.8961775 -0.4436958 0.0 -0.8961775 -0.4436958 0.0 -0.8961775 -0.4436958 0.0 -0.8961775 -0.4436958 0.0 -0.8961771 -0.4436964 -1.675E-4 -0.8961771 -0.4436964 -1.675E-4 -0.8961771 -0.4436964 -1.675E-4 -0.3245614 -0.9458646 0.0 -0.3245614 -0.9458646 0.0 -0.3245614 -0.9458646 0.0 -0.3245614 -0.9458646 0.0 0.8953122 0.4454394 -8.07E-5 0.8953122 0.4454394 -8.07E-5 0.8953122 0.4454394 -8.07E-5 0.4451657 -0.8954482 0.0 0.4451657 -0.8954482 0.0 0.4451657 -0.8954482 0.0 0.4451657 -0.8954482 0.0 -0.4436251 0.8962125 0.0 -0.4436251 0.8962125 0.0 -0.4436251 0.8962125 0.0 -0.4436251 0.8962125 0.0 0.9486833 -0.3162279 0.0 0.9486833 -0.3162279 0.0 0.9486833 -0.3162279 0.0 0.9486833 -0.3162279 0.0 0.0 0.0 -1.0 0.0 0.0 -1.0 0.0 0.0 -1.0 0.0 0.0 -1.0 0.0 0.0 -1.0 0.0 0.0 -1.0 0.0 0.0 -1.0 0.0 0.0 -1.0 0.0 0.0 -1.0 0.0 0.0 -1.0 0.0 0.0 -1.0 0.0 0.0 -1.0 0.0 0.0 -1.0 0.0 0.0 -1.0 0.0 0.0 -1.0 0.0 0.0 -1.0 0.0 0.0 -1.0 0.0 0.0 -1.0 0.0 0.0 -1.0 0.0 0.0 -1.0 0.0 0.0 -1.0 0.0 0.0 -1.0 0.0 0.0 -1.0 0.0 0.0 -1.0 0.0 0.0 -1.0 0.9477265 -0.3190838 0.0 0.9477265 -0.3190838 0.0 0.9477265 -0.3190838 0.0 0.9477265 -0.3190838 0.0 0.9534001 -0.3017089 0.0 0.9534001 -0.3017089 0.0 0.9534001 -0.3017089 0.0 0.9534001 -0.3017089 0.0 -0.4453947 0.8953343 0.0 -0.4453947 0.8953343 0.0 -0.4453947 0.8953343 0.0 -0.4453947 0.8953343 0.0 -0.8944273 -0.4472134 0.0 -0.8944273 -0.4472134 0.0 -0.8944273 -0.4472134 0.0 -0.8944273 -0.4472134 0.0</float_array>
                    <technique_common>
                        <accessor count="160" source="#geometry0-normal-array" stride="3">
                            <param name="X" type="float"/>
                            <param name="Y" type="float"/>
                            <param name="Z" type="float"/>
                        </accessor>
                    </technique_common>
                </source>
                <vertices id="geometry0-vertex">
                    <input semantic="POSITION" source="#geometry0-position"/>
                </vertices>
                <triangles count="75" material="default_ai_0.2_sh_0.2_tr_0.0_dc_r_0.8_g_0.8_b_0.8_sc_r_1.0_g_1.0_b_1.0_ec_r_0.0_g_0.0_b_0_tri">
                    <input offset="0" semantic="VERTEX" source="#geometry0-vertex"/>
                    <input offset="1" semantic="NORMAL" source="#geometry0-normal"/>
                    <p>19 0 20 1 21 2 19 0 21 2 22 3 5 4 30 5 31 6 5 4 31 6 6 7 33 8 32 9 50 10 33 8 50 10 49 11 20 12 43 13 46 14 20 12 46 14 21 15 30 16 38 17 41 18 30 16 41 18 31 19 16 20 4 21 7 22 16 20 7 22 51 23 0 36 1 37 2 38 0 36 2 38 3 39 4 40 5 41 6 42 4 40 6 42 7 43 37 44 23 45 25 46 37 44 25 46 42 47 32 48 12 49 15 50 32 48 15 50 50 51 12 52 13 53 14 54 12 52 14 54 15 55 43 56 35 57 47 58 43 56 47 58 46 59 23 60 17 61 24 62 23 60 24 62 25 63 35 81 34 82 48 83 35 81 48 83 47 84 13 85 37 86 42 87 13 85 42 87 14 88 27 89 33 90 49 91 27 89 49 91 28 92 17 93 16 94 51 95 17 93 51 95 24 96 16 97 17 98 18 99 26 100 27 101 28 102 26 100 28 102 29 103 35 104 43 105 36 106 1 107 8 108 11 109 1 107 11 109 2 110 44 111 19 112 22 113 44 111 22 113 45 114 8 115 9 116 10 117 8 115 10 117 11 118 6 119 31 120 41 121 7 122 6 119 41 121 7 122 41 121 40 123 24 124 51 125 7 122 24 124 7 122 40 123 25 126 24 124 40 123 42 127 25 126 40 123 14 128 42 127 40 123 15 129 14 128 40 123 50 130 15 129 40 123 49 131 50 130 40 123 28 132 49 131 40 123 28 132 40 123 45 133 28 132 45 133 22 134 28 132 22 134 21 135 28 132 21 135 46 136 29 137 28 132 46 136 10 138 29 137 46 136 11 139 10 138 46 136 3 140 2 141 11 139 3 140 11 139 46 136 48 142 3 140 46 136 48 142 46 136 47 143 34 144 0 145 3 146 34 144 3 146 48 147 9 148 26 149 29 150 9 148 29 150 10 151 38 152 39 153 40 154 38 152 40 154 41 155 39 156 44 157 45 158 39 156 45 158 40 159</p>
                </triangles>
                <triangles count="25" material="default_ai_0.2_sh_0.2_tr_0.0_dc_r_1.0_g_0.2_b_0.2_sc_r_1.0_g_1.0_b_1.0_ec_r_0.0_g_0.0_b_0_tri">
                    <input offset="0" semantic="VERTEX" source="#geometry0-vertex"/>
                    <input offset="1" semantic="NORMAL" source="#geometry0-normal"/>
                    <p>16 24 18 25 36 26 4 27 16 24 36 26 4 27 36 26 43 28 4 27 43 28 20 29 4 27 20 29 19 30 30 31 5 32 4 27 38 33 30 31 4 27 39 34 38 33 4 27 39 34 4 27 19 30 39 34 19 30 44 35 32 64 33 65 12 66 26 67 9 68 27 69 9 68 8 70 27 69 27 69 8 70 33 65 8 70 1 71 33 65 33 65 1 71 12 66 1 71 0 72 12 66 12 66 0 72 13 73 13 73 0 72 37 74 37 74 0 72 23 75 0 72 34 76 23 75 35 77 36 78 34 76 34 76 36 78 23 75 23 75 36 78 17 79 17 79 36 78 18 80</p>
                </triangles>
            </mesh>
        </geometry>
    </library_geometries>
    <library_visual_scenes>
        <visual_scene id="Building_DEBW_5221000Qxzw">
            <node>
                <instance_geometry url="#geometry0">
                    <bind_material>
                        <technique_common>
                            <instance_material symbol="default_ai_0.2_sh_0.2_tr_0.0_dc_r_0.8_g_0.8_b_0.8_sc_r_1.0_g_1.0_b_1.0_ec_r_0.0_g_0.0_b_0_tri" target="#default_ai_0.2_sh_0.2_tr_0.0_dc_r_0.8_g_0.8_b_0.8_sc_r_1.0_g_1.0_b_1.0_ec_r_0.0_g_0.0_b_0_mat"/>
                            <instance_material symbol="default_ai_0.2_sh_0.2_tr_0.0_dc_r_1.0_g_0.2_b_0.2_sc_r_1.0_g_1.0_b_1.0_ec_r_0.0_g_0.0_b_0_tri" target="#default_ai_0.2_sh_0.2_tr_0.0_dc_r_1.0_g_0.2_b_0.2_sc_r_1.0_g_1.0_b_1.0_ec_r_0.0_g_0.0_b_0_mat"/>
                        </technique_common>
                    </bind_material>
                </instance_geometry>
            </node>
        </visual_scene>
    </library_visual_scenes>
    <scene>
        <instance_visual_scene url="#Building_DEBW_5221000Qxzw"/>
    </scene>
</COLLADA>
