<?xml version="1.0" encoding="UTF-8" standalone="yes"?>
<COLLADA xmlns="http://www.collada.org/2005/11/COLLADASchema" version="1.4.1">
    <asset>
        <contributor>
            <authoring_tool>3D City Database Importer/Exporter, version 5.5.3; Chair of Geoinformatics, Technical University of Munich</authoring_tool>
        </contributor>
        <created>2026-05-06T15:12:07.036</created>
        <modified>2026-05-06T15:12:07.036</modified>
        <unit meter="1.0" name="meters"/>
        <up_axis>Z_UP</up_axis>
    </asset>
    <library_materials>
        <material id="default_ai_0.2_sh_0.2_tr_0.0_dc_r_0.8_g_0.8_b_0.8_sc_r_1.0_g_1.0_b_1.0_ec_r_0.0_g_0.0_b_0_mat">
            <instance_effect url="#default_ai_0.2_sh_0.2_tr_0.0_dc_r_0.8_g_0.8_b_0.8_sc_r_1.0_g_1.0_b_1.0_ec_r_0.0_g_0.0_b_0_eff"/>
        </material>
        <material id="default_ai_0.2_sh_0.2_tr_0.0_dc_r_1.0_g_0.2_b_0.2_sc_r_1.0_g_1.0_b_1.0_ec_r_0.0_g_0.0_b_0_mat">
            <instance_effect url="#default_ai_0.2_sh_0.2_tr_0.0_dc_r_1.0_g_0.2_b_0.2_sc_r_1.0_g_1.0_b_1.0_ec_r_0.0_g_0.0_b_0_eff"/>
        </material>
    </library_materials>
    <library_effects>
        <effect id="default_ai_0.2_sh_0.2_tr_0.0_dc_r_0.8_g_0.8_b_0.8_sc_r_1.0_g_1.0_b_1.0_ec_r_0.0_g_0.0_b_0_eff">
            <profile_COMMON>
                <technique sid="COMMON">
                    <lambert>
                        <emission>
                            <color>0.0 0.0 0.0 1.0</color>
                        </emission>
                        <diffuse>
                            <color>0.8 0.8 0.8 1.0</color>
                        </diffuse>
                        <reflective>
                            <color>1.0 1.0 1.0 1.0</color>
                        </reflective>
                        <reflectivity>
                            <float>0.2</float>
                        </reflectivity>
                        <transparent opaque="A_ONE">
                            <color>1.0 1.0 1.0 1.0</color>
                        </transparent>
                        <transparency>
                            <float>1.0</float>
                        </transparency>
                    </lambert>
                </technique>
                <extra>
                    <technique profile="GOOGLEEARTH">
                        <double_sided>0</double_sided>
                    </technique>
                </extra>
            </profile_COMMON>
        </effect>
        <effect id="default_ai_0.2_sh_0.2_tr_0.0_dc_r_1.0_g_0.2_b_0.2_sc_r_1.0_g_1.0_b_1.0_ec_r_0.0_g_0.0_b_0_eff">
            <profile_COMMON>
                <technique sid="COMMON">
                    <lambert>
                        <emission>
                            <color>0.0 0.0 0.0 1.0</color>
                        </emission>
                        <diffuse>
                            <color>1.0 0.2 0.2 1.0</color>
                        </diffuse>
                        <reflective>
                            <color>1.0 1.0 1.0 1.0</color>
                        </reflective>
                        <reflectivity>
                            <float>0.2</float>
                        </reflectivity>
                        <transparent opaque="A_ONE">
                            <color>1.0 1.0 1.0 1.0</color>
                        </transparent>
                        <transparency>
                            <float>1.0</float>
                        </transparency>
                    </lambert>
                </technique>
                <extra>
                    <technique profile="GOOGLEEARTH">
                        <double_sided>0</double_sided>
                    </technique>
                </extra>
            </profile_COMMON>
        </effect>
    </library_effects>
    <library_geometries>
        <geometry id="geometry0">
            <mesh>
                <source id="geometry0-position">
                    <float_array id="geometry0-position-array" count="183">0.0 0.0 0.0 13.62 8.64 0.0 18.89 0.27 0.0 5.23 -8.3 0.0 18.89 0.27 9.111 13.62 8.64 9.057 16.208 4.529 11.697 5.23 -8.3 9.132 5.23 -8.3 7.793 5.23 -8.3 6.543 2.568 -4.076 11.697 0.0 0.0 9.079 0.0 0.0 6.543 0.0 0.0 7.913 1.413 -2.243 9.093 4.359 -6.918 9.123 3.33 -5.285 10.694 3.29 -11.06 7.25 2.62 -10.0 7.25 1.441 -10.768 7.774 0.565 -11.338 8.164 1.217 -12.368 8.164 3.29 -11.06 0.0 2.62 -10.0 0.0 2.62 -10.0 6.543 -0.8 -13.64 7.287 -0.8 -13.64 0.0 -1.433 -12.64 0.0 -1.433 -12.64 7.287 -1.433 -12.64 6.543 -0.341 -11.929 7.766 -9.44 -6.86 2.109 -6.33 -4.91 2.073 -7.213 -3.516 6.543 -7.374 -3.262 7.356 -7.467 -3.115 7.827 -10.56 -5.07 7.827 -11.43 -3.68 5.507 -11.43 -3.68 0.0 -9.44 -6.86 0.0 -8.352 -1.719 5.488 -7.77 -2.637 7.027 -7.953 -2.349 6.543 -8.352 -1.719 0.0 -6.33 -4.91 0.0 -6.33 -4.91 6.543 -6.42 -0.49 6.548 -5.52 0.05 6.543 -5.52 0.05 0.0 -6.42 -0.49 0.0 -6.33 -4.91 8.224 -3.362 -9.595 10.694 -1.62 2.57 6.56 -5.52 0.05 6.563 -8.352 -1.719 6.543 -7.77 -2.638 7.027 2.62 -10.0 7.78 -1.62 2.57 6.543 -1.62 2.57 0.0 -1.433 -12.64 7.761 -7.214 -3.516 6.543</float_array>
                    <technique_common>
                        <accessor count="61" source="#geometry0-position-array" stride="3">
                            <param name="X" type="float"/>
                            <param name="Y" type="float"/>
                            <param name="Z" type="float"/>
                        </accessor>
                    </technique_common>
                </source>
                <source id="geometry0-normal">
                    <float_array id="geometry0-normal-array" count="852">-0.5457947 0.8379189 0.0 -0.5457947 0.8379189 0.0 -0.5457947 0.8379189 0.0 -0.5457947 0.8379189 0.0 0.5011783 -0.7929748 0.3464264 0.50121 -0.792963 0.3464077 0.5011878 -0.7929717 0.3464199 0.5011768 -0.792976 0.346426 0.5012069 -0.7929652 0.3464068 -0.7529933 -0.6556641 0.0557288 -0.7529933 -0.6556641 0.0557288 -0.7529933 -0.6556641 0.0557288 0.545778 -0.8379298 0.0 0.545778 -0.8379298 0.0 0.545778 -0.8379298 0.0 0.545778 -0.8379298 0.0 0.545778 -0.8379299 0.0 -0.5427154 0.8399167 0.0 -0.5427154 0.8399167 0.0 -0.5427154 0.8399167 0.0 -0.5427154 0.8399167 0.0 -0.5356715 0.8444265 0.0 -0.5356715 0.8444265 0.0 -0.5356715 0.8444265 0.0 -0.5356715 0.8444265 0.0 -0.5356715 0.8444265 0.0 -0.5356714 0.8444265 0.0 -0.5458388 0.8378902 4.301E-4 -0.5458829 0.8378611 8.029E-4 -0.5458388 0.8378902 4.301E-4 -0.5457944 0.8379191 5.73E-5 -0.8449464 -0.534851 0.0 -0.8449464 -0.534851 0.0 -0.8449464 -0.534851 0.0 -0.8449464 -0.534851 0.0 -0.8449464 -0.534851 0.0 -0.5457948 0.837919 0.0 -0.5457947 0.8379189 0.0 -0.5457948 0.837919 0.0 -0.5457948 0.8379189 0.0 -0.8460304 -0.5331346 2.78E-5 -0.8460304 -0.5331346 2.78E-5 -0.8460304 -0.5331346 2.78E-5 0.0 0.0 -1.0 0.0 0.0 -1.0 0.0 0.0 -1.0 0.0 0.0 -1.0 -0.8460513 -0.5331014 -4.86E-5 -0.8461069 -0.5330133 0.0 -0.8460762 -0.5330619 -5.98E-5 -0.8460342 -0.5331286 -5.98E-5 -0.8460265 -0.533141 -3.73E-5 -0.8460301 -0.5331351 -7.47E-5 -0.2547683 0.4038454 0.8786365 -0.2547614 0.4038403 0.8786408 -0.2547683 0.4038454 0.8786365 -0.2547752 0.4038505 0.8786321 -0.8447533 -0.5351561 0.0 -0.8447533 -0.5351561 0.0 -0.8447533 -0.535156 0.0 -0.8447532 -0.535156 0.0 -0.8447532 -0.535156 0.0 0.5456358 -0.8380224 0.0 0.5456358 -0.8380224 0.0 0.5456358 -0.8380224 0.0 -0.8460456 -0.5331106 0.0 -0.8460456 -0.5331106 0.0 -0.8460456 -0.5331106 0.0 -0.8460456 -0.5331106 0.0 0.5458123 -0.8379074 0.0 0.5458123 -0.8379074 0.0 0.5458123 -0.8379074 0.0 -0.2917126 -0.1845432 0.9385347 -0.2917841 -0.1847022 0.9384813 -0.2917421 -0.1845065 0.9385329 -0.2916768 -0.1844637 0.9385615 -0.2916536 -0.1846167 0.9385387 -0.8476986 -0.5304782 0.0 -0.8476986 -0.5304782 0.0 -0.8476986 -0.5304782 0.0 -0.8476986 -0.5304782 0.0 0.0 0.0 -1.0 0.0 0.0 -1.0 0.0 0.0 -1.0 0.0 0.0 -1.0 0.0 0.0 -1.0 0.0 0.0 -1.0 0.0 0.0 -1.0 0.0 0.0 -1.0 0.0 0.0 -1.0 -0.8461069 -0.5330133 0.0 -0.8461069 -0.5330133 0.0 -0.8461069 -0.5330133 0.0 -0.8459978 -0.5331866 0.0 -0.8459978 -0.5331866 0.0 -0.8459978 -0.5331866 0.0 -0.9454622 -0.2501514 0.2086273 -0.9454622 -0.2501514 0.2086273 -0.9454622 -0.2501514 0.2086273 -0.4362774 0.6903402 0.5771417 -0.4363685 0.6903774 0.5770283 -0.4362947 0.690349 0.5771179 -0.4362319 0.6903214 0.5771984 -0.4362428 0.6903222 0.5771893 0.533524 -0.8457848 -3.185E-4 0.533524 -0.8457848 -3.185E-4 0.533524 -0.8457848 -3.185E-4 0.8447683 0.5351321 -2.146E-4 0.8447683 0.5351321 -2.146E-4 0.8447683 0.5351321 -2.146E-4 -0.5144957 0.8574929 0.0 -0.5144957 0.8574929 0.0 -0.5144957 0.8574929 0.0 -0.5144957 0.8574929 0.0 -0.8446327 -0.5353459 5.575E-4 -0.8447572 -0.5351497 0.0 -0.8446327 -0.5353459 5.575E-4 -0.8445079 -0.5355418 0.001115 -0.8476818 -0.5305051 3.49E-5 -0.8476818 -0.5305051 3.49E-5 -0.8476818 -0.5305051 3.49E-5 -0.5144957 0.8574929 0.0 -0.5144957 0.8574929 0.0 -0.5144957 0.8574929 0.0 -0.844819 -0.5350522 -5.82E-5 -0.844819 -0.5350522 -5.82E-5 -0.844819 -0.5350522 -5.82E-5 0.2951641 0.1871743 0.9369332 0.2952104 0.1868711 0.9369792 0.2951177 0.1869422 0.9369943 0.2950713 0.1869777 0.9370018 0.2950247 0.1864778 0.937116 -0.5427153 0.8399167 0.0 -0.5427154 0.8399166 0.0 -0.5427153 0.8399167 0.0 -0.5427153 0.8399167 0.0 0.0 0.0 -1.0 0.0 0.0 -1.0 0.0 0.0 -1.0 0.0 0.0 -1.0 0.8452994 0.5342929 0.0 0.8452994 0.5342929 0.0 0.8452994 0.5342929 0.0 0.8452994 0.5342929 0.0 0.8452994 0.5342928 0.0 -0.5373187 0.8433794 0.0 -0.5373186 0.8433793 0.0 -0.5373187 0.8433794 0.0 -0.5373187 0.8433794 0.0 -0.545875 0.8378652 -0.0015457 -0.545875 0.8378652 -0.0015457 -0.545875 0.8378652 -0.0015457 0.8459579 0.5332497 0.0 0.8459579 0.5332497 0.0 0.8459579 0.5332497 0.0 0.8459579 0.5332498 0.0 0.5335261 -0.8457836 0.0 0.5335261 -0.8457836 0.0 0.5335261 -0.8457836 0.0 0.5335261 -0.8457836 0.0 -0.3095147 0.2822513 0.908039 -0.3955173 0.2192316 0.8919101 -0.2798608 0.3026256 0.9110959 -0.2202099 0.3419245 0.9135619 -0.2201763 0.3419287 0.9135684 -0.220402 0.3419454 0.9135076 -0.220272 0.3419853 0.9135242 -0.2203046 0.3418939 0.9135504 -0.2203234 0.3418994 0.9135439 -0.2203201 0.3419415 0.9135289 -0.2203103 0.3420441 0.9134929 0.545778 -0.8379298 0.0 0.545778 -0.8379298 0.0 0.545778 -0.8379298 0.0 0.545778 -0.8379298 0.0 0.8462325 0.5328138 1.319E-4 0.8462325 0.5328138 1.319E-4 0.8462325 0.5328138 1.319E-4 0.8460456 0.5331106 0.0 0.8460456 0.5331106 0.0 0.8460456 0.5331106 0.0 0.8460456 0.5331106 0.0 0.0 0.0 -1.0 0.0 0.0 -1.0 0.0 0.0 -1.0 0.0 0.0 -1.0 -0.5367342 0.8437514 0.0 -0.5367342 0.8437514 0.0 -0.5367342 0.8437514 0.0 -0.5367342 0.8437514 0.0 -0.5367342 0.8437514 0.0 0.8460409 0.5331179 1.086E-4 0.8460456 0.5331106 0.0 0.8460456 0.5331106 0.0 0.8460464 0.5331094 1.257E-4 0.8460387 0.5331216 1.629E-4 0.8460301 0.5331351 7.45E-5 -0.8447174 -0.5352124 5.244E-4 -0.8445826 -0.5354242 0.0010635 -0.8447174 -0.5352124 5.244E-4 -0.8448519 -0.5350004 -1.48E-5 -0.8460563 -0.5330936 1.77E-5 -0.845998 -0.5331861 1.024E-4 -0.8460388 -0.5331213 -7.17E-5 -0.8460597 -0.5330882 -1.929E-4 -0.8460739 -0.5330659 1.071E-4 -0.8461078 -0.5330117 3.542E-4 0.8459579 0.5332497 0.0 0.8459579 0.5332497 0.0 0.8459579 0.5332497 0.0 0.8459579 0.5332497 0.0 0.846233 0.5328133 0.0 0.846233 0.5328133 0.0 0.846233 0.5328133 0.0 0.846233 0.5328133 0.0 0.8460304 0.5331347 -2.78E-5 0.8460304 0.5331347 -2.78E-5 0.8460304 0.5331347 -2.78E-5 -0.8448205 -0.53505 -7.5E-5 -0.844789 -0.5350996 -1.935E-4 -0.8448205 -0.53505 -7.5E-5 -0.8448519 -0.5350003 4.34E-5 0.5457947 -0.8379189 0.0 0.5457947 -0.8379189 0.0 0.5457947 -0.8379189 0.0 0.5457947 -0.8379189 0.0 0.844779 0.5351149 -6.975E-4 0.845033 0.5347126 -0.0013302 0.844779 0.5351149 -6.975E-4 0.8445245 0.535517 -6.47E-5 0.5457948 -0.837919 0.0 0.5457947 -0.8379189 0.0 0.5457948 -0.837919 0.0 0.5457948 -0.8379189 0.0 0.8445882 0.5354167 1.493E-4 0.8445244 0.5355169 3.889E-4 0.8445882 0.5354167 1.493E-4 0.8446517 0.5353162 -9.03E-5 -0.8445085 -0.5355422 0.0 -0.8445085 -0.5355422 0.0 -0.8445085 -0.5355422 0.0 0.5458357 -0.8378923 -1.444E-4 0.5457914 -0.8379209 -5.055E-4 0.5458357 -0.8378923 -1.444E-4 0.5458799 -0.8378634 2.167E-4 -0.844819 -0.5350522 0.0 -0.844819 -0.5350522 0.0 -0.844819 -0.5350522 0.0 0.8446953 0.5352474 0.0 0.8446954 0.5352474 0.0 0.8446953 0.5352474 0.0 0.8446953 0.5352474 0.0 -0.8446953 -0.5352474 0.0 -0.8446953 -0.5352474 0.0 -0.8446953 -0.5352474 0.0 -0.8446954 -0.5352474 0.0 0.5314475 -0.8470913 0.0 0.5314475 -0.8470913 0.0 0.5314475 -0.8470913 0.0 0.5314475 -0.8470913 0.0 0.5314475 -0.8470914 0.0 0.5314475 -0.8470913 0.0 0.3419278 -0.5307421 0.7754987 0.3417515 -0.5306267 0.7756553 0.3418759 -0.5306728 0.775569 0.3421773 -0.5307676 0.7753712 0.3420759 -0.530794 0.7753978 0.3418047 -0.5307891 0.7755208 0.3418084 -0.5307978 0.7755132 0.3418816 -0.5308189 0.7754666 -0.8447532 -0.5351561 1.9E-6 -0.8447533 -0.5351561 0.0 -0.8447533 -0.5351561 0.0 -0.8447532 -0.535156 0.0 -0.8447531 -0.5351562 3.8E-6 -0.844753 -0.5351564 7.7E-6 0.2438356 -0.386494 0.8894755 0.2438544 -0.3865078 0.8894643 0.2438356 -0.386494 0.8894755 0.2438168 -0.3864802 0.8894866 0.5312228 -0.8472321 0.0 0.5312228 -0.8472321 0.0 0.5312228 -0.8472321 0.0 0.5312228 -0.8472321 0.0</float_array>
                    <technique_common>
                        <accessor count="284" source="#geometry0-normal-array" stride="3">
                            <param name="X" type="float"/>
                            <param name="Y" type="float"/>
                            <param name="Z" type="float"/>
                        </accessor>
                    </technique_common>
                </source>
                <vertices id="geometry0-vertex">
                    <input semantic="POSITION" source="#geometry0-position"/>
                </vertices>
                <triangles count="119" material="default_ai_0.2_sh_0.2_tr_0.0_dc_r_0.8_g_0.8_b_0.8_sc_r_1.0_g_1.0_b_1.0_ec_r_0.0_g_0.0_b_0_tri">
                    <input offset="0" semantic="VERTEX" source="#geometry0-vertex"/>
                    <input offset="1" semantic="NORMAL" source="#geometry0-normal"/>
                    <p>24 0 23 1 27 2 24 0 27 2 29 3 18 12 24 13 9 14 18 12 9 14 8 15 18 12 8 15 56 16 47 17 57 18 58 19 47 17 58 19 48 20 1 21 0 22 12 23 1 21 12 23 13 24 1 21 13 24 11 25 1 21 11 25 5 26 28 27 30 28 19 29 28 27 19 29 18 30 27 31 26 32 25 33 29 34 27 31 25 33 29 34 25 33 28 35 18 36 24 37 29 38 18 36 29 38 28 39 16 40 14 41 15 42 44 43 39 44 38 45 44 43 38 45 43 46 14 47 13 48 12 49 14 47 12 49 9 50 14 47 9 50 8 51 14 47 8 51 15 52 44 57 27 58 29 59 32 60 44 57 29 59 32 60 29 59 45 61 59 62 28 63 30 64 12 65 0 66 3 67 12 65 3 67 9 68 19 69 18 70 56 71 31 77 37 78 38 79 31 77 38 79 39 80 27 81 44 82 23 83 23 83 44 82 3 84 3 84 44 82 0 85 0 85 44 82 58 86 58 86 44 82 48 87 48 87 44 82 49 88 49 88 44 82 43 89 11 90 13 91 14 92 15 93 8 94 7 95 25 104 17 105 21 106 41 107 35 108 34 109 46 110 47 111 48 112 46 110 48 112 49 113 45 114 50 115 34 116 45 114 34 116 60 117 37 118 31 119 36 120 46 121 53 122 47 123 42 124 55 125 54 126 47 132 53 133 52 134 47 132 52 134 57 135 0 136 1 137 2 138 0 136 2 138 3 139 22 140 23 141 24 142 22 140 24 142 18 143 22 140 18 143 17 144 37 145 40 146 43 147 37 145 43 147 38 148 30 149 20 150 19 151 57 152 52 153 13 154 57 152 13 154 12 155 17 156 25 157 26 158 17 156 26 158 22 159 9 171 24 172 23 173 9 171 23 173 3 174 4 175 5 176 6 177 3 178 0 179 12 180 3 178 12 180 9 181 23 182 22 183 26 184 23 182 26 184 27 185 49 186 43 187 40 188 49 186 40 188 54 189 49 186 54 189 46 190 8 191 9 192 12 193 8 191 12 193 13 194 8 191 13 194 14 195 8 191 14 195 15 196 60 197 34 198 55 199 60 197 55 199 42 200 16 201 15 202 7 203 16 201 7 203 10 204 16 201 10 204 11 205 16 201 11 205 14 206 57 207 12 208 0 209 57 207 0 209 58 210 5 211 4 212 2 213 5 211 2 213 1 214 16 215 15 216 14 217 40 218 32 219 60 220 40 218 60 220 42 221 24 222 29 223 27 224 24 222 27 224 23 225 42 226 41 227 34 228 42 226 34 228 33 229 24 230 18 231 28 232 24 230 28 232 29 233 40 234 42 235 33 236 40 234 33 236 32 237 32 238 45 239 60 240 30 241 28 242 18 243 30 241 18 243 19 244 40 245 42 246 54 247 32 248 44 249 43 250 32 248 43 250 40 251 40 252 43 253 44 254 40 252 44 254 32 255 3 256 2 257 4 258 9 259 3 256 4 258 8 260 9 259 4 258 8 260 4 258 7 261 50 270 45 271 29 272 50 270 29 272 28 273 50 270 28 273 59 274 50 270 59 274 51 275 32 280 31 281 39 282 32 280 39 282 44 283</p>
                </triangles>
                <triangles count="33" material="default_ai_0.2_sh_0.2_tr_0.0_dc_r_1.0_g_0.2_b_0.2_sc_r_1.0_g_1.0_b_1.0_ec_r_0.0_g_0.0_b_0_tri">
                    <input offset="0" semantic="VERTEX" source="#geometry0-vertex"/>
                    <input offset="1" semantic="NORMAL" source="#geometry0-normal"/>
                    <p>35 4 36 5 31 6 34 7 35 4 31 6 34 7 31 6 32 8 34 9 32 10 33 11 5 53 11 54 10 55 5 53 10 55 6 56 21 72 20 73 30 74 21 72 30 74 28 75 21 72 28 75 25 76 35 96 41 97 42 98 36 99 35 100 42 101 36 99 42 101 40 102 36 99 40 102 37 103 20 127 21 128 17 129 19 130 20 127 17 129 19 130 17 129 18 131 54 160 55 161 34 162 46 163 54 160 34 162 46 163 34 162 50 164 46 163 50 164 51 165 46 163 51 165 16 166 46 163 16 166 14 167 46 163 14 167 13 168 53 169 46 163 13 168 53 169 13 168 52 170 16 262 51 263 59 264 16 262 59 264 30 265 16 262 30 265 19 266 16 262 19 266 56 267 15 268 16 262 56 267 15 268 56 267 8 269 7 276 4 277 6 278 7 276 6 278 10 279</p>
                </triangles>
            </mesh>
        </geometry>
    </library_geometries>
    <library_visual_scenes>
        <visual_scene id="Building_DEBW_5221000Qf4o">
            <node>
                <instance_geometry url="#geometry0">
                    <bind_material>
                        <technique_common>
                            <instance_material symbol="default_ai_0.2_sh_0.2_tr_0.0_dc_r_0.8_g_0.8_b_0.8_sc_r_1.0_g_1.0_b_1.0_ec_r_0.0_g_0.0_b_0_tri" target="#default_ai_0.2_sh_0.2_tr_0.0_dc_r_0.8_g_0.8_b_0.8_sc_r_1.0_g_1.0_b_1.0_ec_r_0.0_g_0.0_b_0_mat"/>
                            <instance_material symbol="default_ai_0.2_sh_0.2_tr_0.0_dc_r_1.0_g_0.2_b_0.2_sc_r_1.0_g_1.0_b_1.0_ec_r_0.0_g_0.0_b_0_tri" target="#default_ai_0.2_sh_0.2_tr_0.0_dc_r_1.0_g_0.2_b_0.2_sc_r_1.0_g_1.0_b_1.0_ec_r_0.0_g_0.0_b_0_mat"/>
                        </technique_common>
                    </bind_material>
                </instance_geometry>
            </node>
        </visual_scene>
    </library_visual_scenes>
    <scene>
        <instance_visual_scene url="#Building_DEBW_5221000Qf4o"/>
    </scene>
</COLLADA>
