<?xml version="1.0" encoding="UTF-8" standalone="yes"?>
<COLLADA xmlns="http://www.collada.org/2005/11/COLLADASchema" version="1.4.1">
    <asset>
        <contributor>
            <authoring_tool>3D City Database Importer/Exporter, version 5.5.3; Chair of Geoinformatics, Technical University of Munich</authoring_tool>
        </contributor>
        <created>2026-05-06T15:12:09.952</created>
        <modified>2026-05-06T15:12:09.952</modified>
        <unit meter="1.0" name="meters"/>
        <up_axis>Z_UP</up_axis>
    </asset>
    <library_materials>
        <material id="default_ai_0.2_sh_0.2_tr_0.0_dc_r_0.8_g_0.8_b_0.8_sc_r_1.0_g_1.0_b_1.0_ec_r_0.0_g_0.0_b_0_mat">
            <instance_effect url="#default_ai_0.2_sh_0.2_tr_0.0_dc_r_0.8_g_0.8_b_0.8_sc_r_1.0_g_1.0_b_1.0_ec_r_0.0_g_0.0_b_0_eff"/>
        </material>
        <material id="default_ai_0.2_sh_0.2_tr_0.0_dc_r_1.0_g_0.2_b_0.2_sc_r_1.0_g_1.0_b_1.0_ec_r_0.0_g_0.0_b_0_mat">
            <instance_effect url="#default_ai_0.2_sh_0.2_tr_0.0_dc_r_1.0_g_0.2_b_0.2_sc_r_1.0_g_1.0_b_1.0_ec_r_0.0_g_0.0_b_0_eff"/>
        </material>
    </library_materials>
    <library_effects>
        <effect id="default_ai_0.2_sh_0.2_tr_0.0_dc_r_0.8_g_0.8_b_0.8_sc_r_1.0_g_1.0_b_1.0_ec_r_0.0_g_0.0_b_0_eff">
            <profile_COMMON>
                <technique sid="COMMON">
                    <lambert>
                        <emission>
                            <color>0.0 0.0 0.0 1.0</color>
                        </emission>
                        <diffuse>
                            <color>0.8 0.8 0.8 1.0</color>
                        </diffuse>
                        <reflective>
                            <color>1.0 1.0 1.0 1.0</color>
                        </reflective>
                        <reflectivity>
                            <float>0.2</float>
                        </reflectivity>
                        <transparent opaque="A_ONE">
                            <color>1.0 1.0 1.0 1.0</color>
                        </transparent>
                        <transparency>
                            <float>1.0</float>
                        </transparency>
                    </lambert>
                </technique>
                <extra>
                    <technique profile="GOOGLEEARTH">
                        <double_sided>0</double_sided>
                    </technique>
                </extra>
            </profile_COMMON>
        </effect>
        <effect id="default_ai_0.2_sh_0.2_tr_0.0_dc_r_1.0_g_0.2_b_0.2_sc_r_1.0_g_1.0_b_1.0_ec_r_0.0_g_0.0_b_0_eff">
            <profile_COMMON>
                <technique sid="COMMON">
                    <lambert>
                        <emission>
                            <color>0.0 0.0 0.0 1.0</color>
                        </emission>
                        <diffuse>
                            <color>1.0 0.2 0.2 1.0</color>
                        </diffuse>
                        <reflective>
                            <color>1.0 1.0 1.0 1.0</color>
                        </reflective>
                        <reflectivity>
                            <float>0.2</float>
                        </reflectivity>
                        <transparent opaque="A_ONE">
                            <color>1.0 1.0 1.0 1.0</color>
                        </transparent>
                        <transparency>
                            <float>1.0</float>
                        </transparency>
                    </lambert>
                </technique>
                <extra>
                    <technique profile="GOOGLEEARTH">
                        <double_sided>0</double_sided>
                    </technique>
                </extra>
            </profile_COMMON>
        </effect>
    </library_effects>
    <library_geometries>
        <geometry id="geometry0">
            <mesh>
                <source id="geometry0-position">
                    <float_array id="geometry0-position-array" count="132">-2.429 -0.413 11.535 0.0 0.0 9.83 0.0 0.0 0.0 -2.429 -0.413 0.0 7.39 -17.131 6.776 6.7 -17.251 7.261 6.7 -17.251 0.0 7.39 -17.131 0.0 0.16 -0.991 9.836 0.16 -0.991 0.0 3.84 -0.361 7.254 4.28 -2.991 7.258 4.28 -2.991 0.0 3.84 -0.361 0.0 4.98 -7.111 7.259 6.0 -13.111 7.258 6.0 -13.111 0.0 4.98 -7.111 0.0 4.97 -2.871 6.774 4.97 -2.871 0.0 1.215 -21.854 11.535 -1.17 -22.261 9.841 -1.17 -22.261 0.0 1.215 -21.854 0.0 5.67 -6.991 6.774 5.67 -6.991 0.0 3.64 -21.441 9.833 3.47 -20.451 9.834 7.14 -19.831 7.26 6.69 -12.991 6.774 -1.34 -21.271 9.84 -1.34 -21.271 0.0 -4.66 -1.801 9.833 -4.83 -0.821 9.83 -4.83 -0.821 0.0 -4.66 -1.801 0.0 7.14 -19.831 0.0 3.64 -21.441 0.0 3.47 -20.451 0.0 6.69 -12.991 0.0 -8.34 -2.431 7.22 -5.02 -21.911 7.226 -5.02 -21.911 0.0 -8.34 -2.431 0.0</float_array>
                    <technique_common>
                        <accessor count="44" source="#geometry0-position-array" stride="3">
                            <param name="X" type="float"/>
                            <param name="Y" type="float"/>
                            <param name="Z" type="float"/>
                        </accessor>
                    </technique_common>
                </source>
                <source id="geometry0-normal">
                    <float_array id="geometry0-normal-array" count="402">0.1665772 -0.9860284 0.0 0.1665772 -0.9860284 0.0 0.1665772 -0.9860284 0.0 0.1665772 -0.9860284 0.0 -0.9852854 -0.1709169 0.0 -0.9852854 -0.1709169 0.0 -0.9852854 -0.1709169 0.0 -0.9852854 -0.1709169 0.0 0.9855748 0.1692402 0.0 0.9855748 0.1692403 0.0 0.9855748 0.1692402 0.0 0.9855748 0.1692402 0.0 0.1682179 -0.9857498 0.0 0.168218 -0.9857499 0.0 0.1682179 -0.9857498 0.0 0.1682179 -0.9857498 0.0 -0.1676231 0.9858512 0.0 -0.1676231 0.9858512 0.0 -0.1676231 0.9858512 0.0 -0.1676231 0.9858512 0.0 0.1713397 -0.985212 0.0 0.1713397 -0.985212 0.0 0.1713397 -0.985212 0.0 0.1713397 -0.985212 0.0 0.5603197 0.0953424 0.8227708 0.5609964 0.095344 0.8223093 0.5607703 0.0952866 0.8224701 0.5601981 0.095338 0.822854 0.5610762 0.0952539 0.8222653 0.560927 0.0953184 0.8223596 0.5607763 0.0954136 0.8224514 0.5609599 0.0953369 0.822335 0.5612781 0.0953628 0.8221149 0.5607073 0.0954829 0.8224905 0.560845 0.0954559 0.8223996 0.5610873 0.0950608 0.8222802 0.5612892 0.0953011 0.8221145 0.561044 0.0950316 0.822313 0.5607533 0.0953136 0.8224785 0.5609096 0.0954876 0.8223518 -0.1713411 0.9852118 0.0 -0.1713411 0.9852118 0.0 -0.1713411 0.9852118 0.0 -0.1713411 0.9852118 0.0 0.9858558 0.1675955 0.0 0.9858559 0.1675955 0.0 0.9858558 0.1675955 0.0 0.9858558 0.1675955 0.0 -0.1675276 0.9858674 0.0 -0.1675276 0.9858674 0.0 -0.1675276 0.9858674 0.0 -0.1675276 0.9858674 0.0 0.171341 -0.9852118 0.0 0.171341 -0.9852118 0.0 0.171341 -0.9852118 0.0 0.171341 -0.9852118 0.0 0.1678918 -0.9858054 0.0 0.1678918 -0.9858054 0.0 0.1678918 -0.9858054 0.0 0.1678918 -0.9858055 0.0 -0.5649337 -0.0960967 0.8195215 -0.5654375 -0.0960988 0.8191737 -0.5651728 -0.095993 0.8193687 -0.5648437 -0.0960931 0.8195839 -0.5652643 -0.0960914 0.8192941 -0.5653409 -0.0959232 0.819261 -0.5652838 -0.0960897 0.8192808 -0.5654874 -0.0955868 0.8191991 -0.1687408 0.9856604 0.0 -0.1687408 0.9856604 0.0 -0.1687408 0.9856604 0.0 -0.1687408 0.9856604 0.0 -0.9855748 -0.1692402 0.0 -0.9855749 -0.1692402 0.0 -0.9855748 -0.1692402 0.0 -0.9855748 -0.1692402 0.0 -0.9857855 -0.1680086 0.0 -0.9857855 -0.1680086 0.0 -0.9857855 -0.1680086 0.0 -0.9857855 -0.1680086 0.0 0.9858716 0.1675025 0.0 0.9858716 0.1675025 0.0 0.9858716 0.1675025 0.0 0.9858716 0.1675025 0.0 -0.171341 0.9852118 0.0 -0.171341 0.9852118 0.0 -0.171341 0.9852118 0.0 -0.171341 0.9852118 0.0 0.9857673 0.1681154 0.0 0.9857673 0.1681154 0.0 0.9857673 0.1681154 0.0 0.9857673 0.1681154 0.0 -0.1687408 0.9856604 0.0 -0.1687408 0.9856604 0.0 -0.1687408 0.9856604 0.0 -0.1687408 0.9856604 0.0 0.0 0.0 -1.0 0.0 0.0 -1.0 0.0 0.0 -1.0 0.0 0.0 -1.0 0.0 0.0 -1.0 0.0 0.0 -1.0 0.0 0.0 -1.0 0.0 0.0 -1.0 0.0 0.0 -1.0 0.0 0.0 -1.0 0.0 0.0 -1.0 0.0 0.0 -1.0 0.0 0.0 -1.0 0.0 0.0 -1.0 0.0 0.0 -1.0 0.0 0.0 -1.0 0.0 0.0 -1.0 0.0 0.0 -1.0 0.0 0.0 -1.0 0.0 0.0 -1.0 0.0 0.0 -1.0 0.0 0.0 -1.0 0.986005 0.1667158 0.0 0.986005 0.1667158 0.0 0.986005 0.1667158 0.0 0.986005 0.1667158 0.0 0.9872158 0.159389 0.0 0.9872158 0.159389 0.0 0.9872158 0.159389 0.0 0.9872158 0.159389 0.0 0.171341 -0.9852118 0.0 0.171341 -0.9852118 0.0 0.171341 -0.9852118 0.0 0.171341 -0.9852118 0.0 0.9862924 0.1650072 0.0 0.9862924 0.1650072 0.0 0.9862924 0.1650072 0.0 0.9862924 0.1650072 0.0</float_array>
                    <technique_common>
                        <accessor count="134" source="#geometry0-normal-array" stride="3">
                            <param name="X" type="float"/>
                            <param name="Y" type="float"/>
                            <param name="Z" type="float"/>
                        </accessor>
                    </technique_common>
                </source>
                <vertices id="geometry0-vertex">
                    <input semantic="POSITION" source="#geometry0-position"/>
                </vertices>
                <triangles count="64" material="default_ai_0.2_sh_0.2_tr_0.0_dc_r_0.8_g_0.8_b_0.8_sc_r_1.0_g_1.0_b_1.0_ec_r_0.0_g_0.0_b_0_tri">
                    <input offset="0" semantic="VERTEX" source="#geometry0-vertex"/>
                    <input offset="1" semantic="NORMAL" source="#geometry0-normal"/>
                    <p>28 0 27 1 38 2 28 0 38 2 36 3 32 4 33 5 34 6 32 4 34 6 35 7 27 8 26 9 37 10 27 8 37 10 38 11 20 12 21 13 22 14 20 12 22 14 23 15 0 16 1 17 2 18 0 16 2 18 3 19 4 20 5 21 6 22 4 20 6 22 7 23 11 40 18 41 19 42 11 40 19 42 12 43 14 44 15 45 16 46 14 44 16 46 17 47 33 48 0 49 3 50 33 48 3 50 34 51 24 52 14 53 17 54 24 52 17 54 25 55 26 56 20 57 23 58 26 56 23 58 37 59 40 68 32 69 35 70 40 68 35 70 43 71 21 72 30 73 31 74 21 72 31 74 22 75 41 76 40 77 43 78 41 76 43 78 42 79 18 80 24 81 25 82 18 80 25 82 19 83 15 84 29 85 39 86 15 84 39 86 16 87 5 88 28 89 36 90 5 88 36 90 6 91 8 92 10 93 13 94 8 92 13 94 9 95 3 96 2 97 9 98 34 99 3 96 9 98 35 100 34 99 9 98 43 101 35 100 9 98 42 102 43 101 9 98 42 102 9 98 13 103 42 102 13 103 12 104 42 102 12 104 19 105 31 106 42 102 19 105 22 107 31 106 19 105 23 108 22 107 19 105 38 109 37 110 23 108 38 109 23 108 19 105 6 111 36 112 38 109 39 113 7 114 6 111 39 113 6 111 38 109 16 115 39 113 38 109 17 116 16 115 38 109 17 116 38 109 19 105 17 116 19 105 25 117 29 118 4 119 7 120 29 118 7 120 39 121 1 122 8 123 9 124 1 122 9 124 2 125 30 126 41 127 42 128 30 126 42 128 31 129 10 130 11 131 12 132 10 130 12 132 13 133</p>
                </triangles>
                <triangles count="20" material="default_ai_0.2_sh_0.2_tr_0.0_dc_r_1.0_g_0.2_b_0.2_sc_r_1.0_g_1.0_b_1.0_ec_r_0.0_g_0.0_b_0_tri">
                    <input offset="0" semantic="VERTEX" source="#geometry0-vertex"/>
                    <input offset="1" semantic="NORMAL" source="#geometry0-normal"/>
                    <p>1 24 0 25 20 26 8 27 1 24 20 26 10 28 8 27 20 26 11 29 10 28 20 26 18 30 11 29 20 26 14 31 24 32 18 30 14 31 18 30 20 26 15 33 14 31 20 26 29 34 15 33 20 26 5 35 4 36 29 34 5 35 29 34 20 26 27 37 28 38 5 35 27 37 5 35 20 26 27 37 20 26 26 39 21 60 20 61 0 62 30 63 21 60 0 62 41 64 30 63 0 62 32 65 40 66 41 64 32 65 41 64 0 62 32 65 0 62 33 67</p>
                </triangles>
            </mesh>
        </geometry>
    </library_geometries>
    <library_visual_scenes>
        <visual_scene id="Building_DEBW_5221000Qloc">
            <node>
                <instance_geometry url="#geometry0">
                    <bind_material>
                        <technique_common>
                            <instance_material symbol="default_ai_0.2_sh_0.2_tr_0.0_dc_r_0.8_g_0.8_b_0.8_sc_r_1.0_g_1.0_b_1.0_ec_r_0.0_g_0.0_b_0_tri" target="#default_ai_0.2_sh_0.2_tr_0.0_dc_r_0.8_g_0.8_b_0.8_sc_r_1.0_g_1.0_b_1.0_ec_r_0.0_g_0.0_b_0_mat"/>
                            <instance_material symbol="default_ai_0.2_sh_0.2_tr_0.0_dc_r_1.0_g_0.2_b_0.2_sc_r_1.0_g_1.0_b_1.0_ec_r_0.0_g_0.0_b_0_tri" target="#default_ai_0.2_sh_0.2_tr_0.0_dc_r_1.0_g_0.2_b_0.2_sc_r_1.0_g_1.0_b_1.0_ec_r_0.0_g_0.0_b_0_mat"/>
                        </technique_common>
                    </bind_material>
                </instance_geometry>
            </node>
        </visual_scene>
    </library_visual_scenes>
    <scene>
        <instance_visual_scene url="#Building_DEBW_5221000Qloc"/>
    </scene>
</COLLADA>
