<?xml version="1.0" encoding="UTF-8" standalone="yes"?>
<COLLADA xmlns="http://www.collada.org/2005/11/COLLADASchema" version="1.4.1">
    <asset>
        <contributor>
            <authoring_tool>3D City Database Importer/Exporter, version 5.5.3; Chair of Geoinformatics, Technical University of Munich</authoring_tool>
        </contributor>
        <created>2026-05-06T15:12:14.337</created>
        <modified>2026-05-06T15:12:14.337</modified>
        <unit meter="1.0" name="meters"/>
        <up_axis>Z_UP</up_axis>
    </asset>
    <library_materials>
        <material id="default_ai_0.2_sh_0.2_tr_0.0_dc_r_0.8_g_0.8_b_0.8_sc_r_1.0_g_1.0_b_1.0_ec_r_0.0_g_0.0_b_0_mat">
            <instance_effect url="#default_ai_0.2_sh_0.2_tr_0.0_dc_r_0.8_g_0.8_b_0.8_sc_r_1.0_g_1.0_b_1.0_ec_r_0.0_g_0.0_b_0_eff"/>
        </material>
        <material id="default_ai_0.2_sh_0.2_tr_0.0_dc_r_1.0_g_0.2_b_0.2_sc_r_1.0_g_1.0_b_1.0_ec_r_0.0_g_0.0_b_0_mat">
            <instance_effect url="#default_ai_0.2_sh_0.2_tr_0.0_dc_r_1.0_g_0.2_b_0.2_sc_r_1.0_g_1.0_b_1.0_ec_r_0.0_g_0.0_b_0_eff"/>
        </material>
    </library_materials>
    <library_effects>
        <effect id="default_ai_0.2_sh_0.2_tr_0.0_dc_r_0.8_g_0.8_b_0.8_sc_r_1.0_g_1.0_b_1.0_ec_r_0.0_g_0.0_b_0_eff">
            <profile_COMMON>
                <technique sid="COMMON">
                    <lambert>
                        <emission>
                            <color>0.0 0.0 0.0 1.0</color>
                        </emission>
                        <diffuse>
                            <color>0.8 0.8 0.8 1.0</color>
                        </diffuse>
                        <reflective>
                            <color>1.0 1.0 1.0 1.0</color>
                        </reflective>
                        <reflectivity>
                            <float>0.2</float>
                        </reflectivity>
                        <transparent opaque="A_ONE">
                            <color>1.0 1.0 1.0 1.0</color>
                        </transparent>
                        <transparency>
                            <float>1.0</float>
                        </transparency>
                    </lambert>
                </technique>
                <extra>
                    <technique profile="GOOGLEEARTH">
                        <double_sided>0</double_sided>
                    </technique>
                </extra>
            </profile_COMMON>
        </effect>
        <effect id="default_ai_0.2_sh_0.2_tr_0.0_dc_r_1.0_g_0.2_b_0.2_sc_r_1.0_g_1.0_b_1.0_ec_r_0.0_g_0.0_b_0_eff">
            <profile_COMMON>
                <technique sid="COMMON">
                    <lambert>
                        <emission>
                            <color>0.0 0.0 0.0 1.0</color>
                        </emission>
                        <diffuse>
                            <color>1.0 0.2 0.2 1.0</color>
                        </diffuse>
                        <reflective>
                            <color>1.0 1.0 1.0 1.0</color>
                        </reflective>
                        <reflectivity>
                            <float>0.2</float>
                        </reflectivity>
                        <transparent opaque="A_ONE">
                            <color>1.0 1.0 1.0 1.0</color>
                        </transparent>
                        <transparency>
                            <float>1.0</float>
                        </transparency>
                    </lambert>
                </technique>
                <extra>
                    <technique profile="GOOGLEEARTH">
                        <double_sided>0</double_sided>
                    </technique>
                </extra>
            </profile_COMMON>
        </effect>
    </library_effects>
    <library_geometries>
        <geometry id="geometry0">
            <mesh>
                <source id="geometry0-position">
                    <float_array id="geometry0-position-array" count="78">3.76 3.77 6.93 0.72 11.42 7.988 1.973 8.267 9.244 -10.33 8.98 7.335 -8.26 3.7 8.997 -8.449 4.182 9.244 -0.77 1.98 6.923 0.0 0.0 5.907 0.0 0.0 0.0 -0.77 1.98 0.0 3.76 3.77 0.0 -4.66 11.33 7.291 -5.34 13.07 6.599 -5.34 13.07 0.0 -4.66 11.33 0.0 1.1 11.56 7.991 0.72 11.42 0.0 1.1 11.56 0.0 -7.96 3.78 8.98 -5.65 -2.16 5.932 -5.65 -2.16 0.0 -0.26 15.08 6.593 -0.26 15.08 0.0 -10.33 8.98 0.0 -8.26 3.7 0.0 -7.96 3.78 0.0</float_array>
                    <technique_common>
                        <accessor count="26" source="#geometry0-position-array" stride="3">
                            <param name="X" type="float"/>
                            <param name="Y" type="float"/>
                            <param name="Z" type="float"/>
                        </accessor>
                    </technique_common>
                </source>
                <source id="geometry0-normal">
                    <float_array id="geometry0-normal-array" count="246">-0.3828794 0.9237983 0.0 -0.3828794 0.9237983 0.0 -0.3828794 0.9237983 0.0 -0.3828794 0.9237983 0.0 -0.3679166 0.9298589 0.0 -0.3679166 0.9298589 0.0 -0.3679166 0.9298589 0.0 -0.3679166 0.9298589 0.0 -0.9320047 -0.3624462 0.0 -0.9320047 -0.3624462 0.0 -0.9320047 -0.3624462 0.0 -0.9320047 -0.3624463 0.0 0.3674937 -0.930026 0.0 0.3674937 -0.930026 0.0 0.3674937 -0.930026 0.0 0.3674937 -0.930026 0.0 0.9327981 0.3603993 0.0 0.9327981 0.3603993 0.0 0.9327981 0.3603993 0.0 0.9327981 0.3603993 0.0 0.0 0.0 -1.0 0.0 0.0 -1.0 0.0 0.0 -1.0 0.0 0.0 -1.0 0.0 0.0 -1.0 0.0 0.0 -1.0 0.0 0.0 -1.0 0.0 0.0 -1.0 0.0 0.0 -1.0 0.0 0.0 -1.0 0.0 0.0 -1.0 0.0 0.0 -1.0 0.9320047 0.3624462 0.0 0.9320047 0.3624462 0.0 0.9320047 0.3624462 0.0 0.9320047 0.3624463 0.0 -0.9309999 -0.3650194 -7.98E-5 -0.9309999 -0.3650194 -7.98E-5 -0.9309999 -0.3650194 -7.98E-5 0.9293121 0.3692952 0.0 0.9293122 0.3692953 0.0 0.9293121 0.3692952 0.0 0.9293121 0.3692953 0.0 0.3457061 -0.9383429 0.0 0.3457061 -0.9383429 0.0 0.3457061 -0.9383429 0.0 0.3457061 -0.9383429 0.0 0.2576623 -0.9662351 0.0 0.2576623 -0.9662351 0.0 0.2576623 -0.9662351 0.0 0.2576623 -0.9662351 0.0 0.357095 -0.934068 0.0 0.3570951 -0.934068 0.0 0.357095 -0.934068 0.0 0.357095 -0.934068 0.0 -0.9314007 -0.3639958 0.0 -0.9314007 -0.3639958 0.0 -0.9314007 -0.3639958 0.0 -0.9314006 -0.3639958 0.0 0.929311 0.3692981 -2.38E-5 0.929311 0.3692981 -2.38E-5 0.929311 0.3692981 -2.38E-5 -0.1267926 0.3234339 0.9377176 -0.1265927 0.3235123 0.9377174 -0.1267293 0.3234738 0.9377123 -0.126881 0.3233907 0.9377205 -0.1268913 0.3235243 0.937673 -0.1268544 0.3235414 0.9376721 -0.1267571 0.3233037 0.9377672 -0.1266919 0.3232272 0.9378024 -0.9310085 -0.3649976 0.0 -0.9310085 -0.3649976 0.0 -0.9310085 -0.3649976 0.0 -0.9310085 -0.3649976 0.0 0.1573341 -0.4016974 0.9021558 0.1573998 -0.4017184 0.902135 0.1574311 -0.4017019 0.9021369 0.1578768 -0.400977 0.9023815 0.1578737 -0.4010829 0.902335 0.1579634 -0.4005698 0.9025472 0.1580303 -0.4007164 0.9024704 0.1575428 -0.4016498 0.9021406</float_array>
                    <technique_common>
                        <accessor count="82" source="#geometry0-normal-array" stride="3">
                            <param name="X" type="float"/>
                            <param name="Y" type="float"/>
                            <param name="Z" type="float"/>
                        </accessor>
                    </technique_common>
                </source>
                <vertices id="geometry0-vertex">
                    <input semantic="POSITION" source="#geometry0-position"/>
                </vertices>
                <triangles count="36" material="default_ai_0.2_sh_0.2_tr_0.0_dc_r_0.8_g_0.8_b_0.8_sc_r_1.0_g_1.0_b_1.0_ec_r_0.0_g_0.0_b_0_tri">
                    <input offset="0" semantic="VERTEX" source="#geometry0-vertex"/>
                    <input offset="1" semantic="NORMAL" source="#geometry0-normal"/>
                    <p>3 0 11 1 14 2 3 0 14 2 23 3 12 4 21 5 22 6 12 4 22 6 13 7 19 8 18 9 25 10 19 8 25 10 20 11 0 12 6 13 9 14 0 12 9 14 10 15 21 16 15 17 17 18 21 16 17 18 22 19 24 20 23 21 14 22 25 23 24 20 14 22 20 24 25 23 14 22 8 25 20 24 14 22 8 25 14 22 13 26 9 27 8 25 13 26 9 27 13 26 22 28 16 29 10 30 9 27 16 29 9 27 22 28 16 29 22 28 17 31 6 32 7 33 8 34 6 32 8 34 9 35 3 36 4 37 5 38 1 39 0 40 10 41 1 39 10 41 16 42 15 43 1 44 16 45 15 43 16 45 17 46 18 47 4 48 24 49 18 47 24 49 25 50 7 51 19 52 20 53 7 51 20 53 8 54 11 55 12 56 13 57 11 55 13 57 14 58 0 59 1 60 2 61 4 70 3 71 23 72 4 70 23 72 24 73</p>
                </triangles>
                <triangles count="12" material="default_ai_0.2_sh_0.2_tr_0.0_dc_r_1.0_g_0.2_b_0.2_sc_r_1.0_g_1.0_b_1.0_ec_r_0.0_g_0.0_b_0_tri">
                    <input offset="0" semantic="VERTEX" source="#geometry0-vertex"/>
                    <input offset="1" semantic="NORMAL" source="#geometry0-normal"/>
                    <p>1 62 15 63 21 64 1 62 21 64 12 65 1 62 12 65 11 66 1 62 11 66 3 67 1 62 3 67 5 68 1 62 5 68 2 69 0 74 2 75 6 76 2 75 5 77 6 76 6 76 5 77 7 78 4 79 18 80 5 77 5 77 18 80 7 78 7 78 18 80 19 81</p>
                </triangles>
            </mesh>
        </geometry>
    </library_geometries>
    <library_visual_scenes>
        <visual_scene id="Building_DEBW_5221000QbUI">
            <node>
                <instance_geometry url="#geometry0">
                    <bind_material>
                        <technique_common>
                            <instance_material symbol="default_ai_0.2_sh_0.2_tr_0.0_dc_r_0.8_g_0.8_b_0.8_sc_r_1.0_g_1.0_b_1.0_ec_r_0.0_g_0.0_b_0_tri" target="#default_ai_0.2_sh_0.2_tr_0.0_dc_r_0.8_g_0.8_b_0.8_sc_r_1.0_g_1.0_b_1.0_ec_r_0.0_g_0.0_b_0_mat"/>
                            <instance_material symbol="default_ai_0.2_sh_0.2_tr_0.0_dc_r_1.0_g_0.2_b_0.2_sc_r_1.0_g_1.0_b_1.0_ec_r_0.0_g_0.0_b_0_tri" target="#default_ai_0.2_sh_0.2_tr_0.0_dc_r_1.0_g_0.2_b_0.2_sc_r_1.0_g_1.0_b_1.0_ec_r_0.0_g_0.0_b_0_mat"/>
                        </technique_common>
                    </bind_material>
                </instance_geometry>
            </node>
        </visual_scene>
    </library_visual_scenes>
    <scene>
        <instance_visual_scene url="#Building_DEBW_5221000QbUI"/>
    </scene>
</COLLADA>
