<?xml version="1.0" encoding="UTF-8" standalone="yes"?>
<COLLADA xmlns="http://www.collada.org/2005/11/COLLADASchema" version="1.4.1">
    <asset>
        <contributor>
            <authoring_tool>3D City Database Importer/Exporter, version 5.5.3; Chair of Geoinformatics, Technical University of Munich</authoring_tool>
        </contributor>
        <created>2026-05-06T15:12:11.691</created>
        <modified>2026-05-06T15:12:11.691</modified>
        <unit meter="1.0" name="meters"/>
        <up_axis>Z_UP</up_axis>
    </asset>
    <library_materials>
        <material id="default_ai_0.2_sh_0.2_tr_0.0_dc_r_1.0_g_0.2_b_0.2_sc_r_1.0_g_1.0_b_1.0_ec_r_0.0_g_0.0_b_0_mat">
            <instance_effect url="#default_ai_0.2_sh_0.2_tr_0.0_dc_r_1.0_g_0.2_b_0.2_sc_r_1.0_g_1.0_b_1.0_ec_r_0.0_g_0.0_b_0_eff"/>
        </material>
        <material id="default_ai_0.2_sh_0.2_tr_0.0_dc_r_0.8_g_0.8_b_0.8_sc_r_1.0_g_1.0_b_1.0_ec_r_0.0_g_0.0_b_0_mat">
            <instance_effect url="#default_ai_0.2_sh_0.2_tr_0.0_dc_r_0.8_g_0.8_b_0.8_sc_r_1.0_g_1.0_b_1.0_ec_r_0.0_g_0.0_b_0_eff"/>
        </material>
    </library_materials>
    <library_effects>
        <effect id="default_ai_0.2_sh_0.2_tr_0.0_dc_r_1.0_g_0.2_b_0.2_sc_r_1.0_g_1.0_b_1.0_ec_r_0.0_g_0.0_b_0_eff">
            <profile_COMMON>
                <technique sid="COMMON">
                    <lambert>
                        <emission>
                            <color>0.0 0.0 0.0 1.0</color>
                        </emission>
                        <diffuse>
                            <color>1.0 0.2 0.2 1.0</color>
                        </diffuse>
                        <reflective>
                            <color>1.0 1.0 1.0 1.0</color>
                        </reflective>
                        <reflectivity>
                            <float>0.2</float>
                        </reflectivity>
                        <transparent opaque="A_ONE">
                            <color>1.0 1.0 1.0 1.0</color>
                        </transparent>
                        <transparency>
                            <float>1.0</float>
                        </transparency>
                    </lambert>
                </technique>
                <extra>
                    <technique profile="GOOGLEEARTH">
                        <double_sided>0</double_sided>
                    </technique>
                </extra>
            </profile_COMMON>
        </effect>
        <effect id="default_ai_0.2_sh_0.2_tr_0.0_dc_r_0.8_g_0.8_b_0.8_sc_r_1.0_g_1.0_b_1.0_ec_r_0.0_g_0.0_b_0_eff">
            <profile_COMMON>
                <technique sid="COMMON">
                    <lambert>
                        <emission>
                            <color>0.0 0.0 0.0 1.0</color>
                        </emission>
                        <diffuse>
                            <color>0.8 0.8 0.8 1.0</color>
                        </diffuse>
                        <reflective>
                            <color>1.0 1.0 1.0 1.0</color>
                        </reflective>
                        <reflectivity>
                            <float>0.2</float>
                        </reflectivity>
                        <transparent opaque="A_ONE">
                            <color>1.0 1.0 1.0 1.0</color>
                        </transparent>
                        <transparency>
                            <float>1.0</float>
                        </transparency>
                    </lambert>
                </technique>
                <extra>
                    <technique profile="GOOGLEEARTH">
                        <double_sided>0</double_sided>
                    </technique>
                </extra>
            </profile_COMMON>
        </effect>
    </library_effects>
    <library_geometries>
        <geometry id="geometry0">
            <mesh>
                <source id="geometry0-position">
                    <float_array id="geometry0-position-array" count="48">0.0 0.0 7.193 0.0 0.0 7.422 9.87 -9.0 7.388 9.87 -9.0 7.193 -0.18 -0.2 7.193 0.0 0.0 0.0 -0.18 -0.2 0.0 2.21 -17.37 7.193 -7.57 -8.29 7.227 -7.57 -8.29 7.193 2.21 -17.37 0.0 9.87 -9.0 0.0 6.164 -13.049 10.518 -7.57 -8.29 0.0 -3.66 -4.01 10.518 -0.18 -0.2 7.576</float_array>
                    <technique_common>
                        <accessor count="16" source="#geometry0-position-array" stride="3">
                            <param name="X" type="float"/>
                            <param name="Y" type="float"/>
                            <param name="Z" type="float"/>
                        </accessor>
                    </technique_common>
                </source>
                <source id="geometry0-normal">
                    <float_array id="geometry0-normal-array" count="162">0.3358893 0.3646958 0.8684327 0.3353976 0.3645377 0.8686891 0.3361514 0.3647986 0.868288 0.3361351 0.3647749 0.8683043 0.3353651 0.3644902 0.8687215 0.6737899 0.7389229 0.0 0.6737899 0.7389229 0.0 0.6737899 0.7389229 0.0 0.6737899 0.738923 0.0 -0.738328 0.6744418 2.64E-5 -0.7383274 0.6744425 0.0 -0.7383274 0.6744425 0.0 -0.7383283 0.6744415 3.97E-5 -0.7383291 0.6744406 7.93E-5 0.7377027 -0.6751257 0.0 0.7377027 -0.6751257 0.0 0.7377027 -0.6751257 0.0 0.7377027 -0.6751257 0.0 0.7376816 -0.6751487 5.15E-5 0.7376606 -0.6751717 0.0 0.7376816 -0.6751487 5.15E-5 0.7377027 -0.6751257 1.03E-4 -0.3342756 -0.3633041 0.8696378 -0.3342731 -0.3633033 0.8696391 -0.3342756 -0.3633041 0.8696378 -0.3342783 -0.363305 0.8696365 -0.7432941 0.6689647 0.0 -0.7432941 0.6689647 0.0 -0.7432941 0.6689647 0.0 -0.7432941 0.6689647 0.0 -0.6803936 -0.7328469 0.0 -0.6803936 -0.7328469 0.0 -0.6803936 -0.7328469 0.0 -0.6803936 -0.7328469 0.0 0.6737899 0.738923 0.0 0.6737899 0.738923 0.0 0.6737899 0.738923 0.0 0.6737899 0.738923 0.0 -0.7383274 0.6744425 0.0 -0.7383274 0.6744425 0.0 -0.7383274 0.6744425 0.0 -0.7383274 0.6744425 0.0 -0.7432941 0.6689647 0.0 -0.7432941 0.6689648 0.0 -0.7432941 0.6689647 0.0 -0.7432942 0.6689647 0.0 0.0 0.0 -1.0 0.0 0.0 -1.0 0.0 0.0 -1.0 0.0 0.0 -1.0 0.0 0.0 -1.0 -0.6803936 -0.7328469 0.0 -0.6803936 -0.7328469 0.0 -0.6803936 -0.7328469 0.0</float_array>
                    <technique_common>
                        <accessor count="54" source="#geometry0-normal-array" stride="3">
                            <param name="X" type="float"/>
                            <param name="Y" type="float"/>
                            <param name="Z" type="float"/>
                        </accessor>
                    </technique_common>
                </source>
                <vertices id="geometry0-vertex">
                    <input semantic="POSITION" source="#geometry0-position"/>
                </vertices>
                <triangles count="23" material="default_ai_0.2_sh_0.2_tr_0.0_dc_r_0.8_g_0.8_b_0.8_sc_r_1.0_g_1.0_b_1.0_ec_r_0.0_g_0.0_b_0_tri">
                    <input offset="0" semantic="VERTEX" source="#geometry0-vertex"/>
                    <input offset="1" semantic="NORMAL" source="#geometry0-normal"/>
                    <p>0 5 1 6 2 7 0 5 2 7 3 8 15 9 4 10 9 11 15 9 9 11 8 12 15 9 8 12 14 13 3 14 7 15 10 16 3 14 10 16 11 17 3 18 2 19 12 20 3 18 12 20 7 21 4 26 0 27 5 28 4 26 5 28 6 29 7 30 9 31 13 32 7 30 13 32 10 33 0 34 3 35 11 36 0 34 11 36 5 37 9 38 4 39 6 40 9 38 6 40 13 41 4 42 15 43 1 44 4 42 1 44 0 45 6 46 5 47 11 48 6 46 11 48 10 49 6 46 10 49 13 50 7 51 8 52 9 53</p>
                </triangles>
                <triangles count="5" material="default_ai_0.2_sh_0.2_tr_0.0_dc_r_1.0_g_0.2_b_0.2_sc_r_1.0_g_1.0_b_1.0_ec_r_0.0_g_0.0_b_0_tri">
                    <input offset="0" semantic="VERTEX" source="#geometry0-vertex"/>
                    <input offset="1" semantic="NORMAL" source="#geometry0-normal"/>
                    <p>12 0 2 1 1 2 12 0 1 2 15 3 12 0 15 3 14 4 7 22 12 23 14 24 7 22 14 24 8 25</p>
                </triangles>
            </mesh>
        </geometry>
    </library_geometries>
    <library_visual_scenes>
        <visual_scene id="Building_DEBW_5221000QsEs">
            <node>
                <instance_geometry url="#geometry0">
                    <bind_material>
                        <technique_common>
                            <instance_material symbol="default_ai_0.2_sh_0.2_tr_0.0_dc_r_0.8_g_0.8_b_0.8_sc_r_1.0_g_1.0_b_1.0_ec_r_0.0_g_0.0_b_0_tri" target="#default_ai_0.2_sh_0.2_tr_0.0_dc_r_0.8_g_0.8_b_0.8_sc_r_1.0_g_1.0_b_1.0_ec_r_0.0_g_0.0_b_0_mat"/>
                            <instance_material symbol="default_ai_0.2_sh_0.2_tr_0.0_dc_r_1.0_g_0.2_b_0.2_sc_r_1.0_g_1.0_b_1.0_ec_r_0.0_g_0.0_b_0_tri" target="#default_ai_0.2_sh_0.2_tr_0.0_dc_r_1.0_g_0.2_b_0.2_sc_r_1.0_g_1.0_b_1.0_ec_r_0.0_g_0.0_b_0_mat"/>
                        </technique_common>
                    </bind_material>
                </instance_geometry>
            </node>
        </visual_scene>
    </library_visual_scenes>
    <scene>
        <instance_visual_scene url="#Building_DEBW_5221000QsEs"/>
    </scene>
</COLLADA>
