<?xml version="1.0" encoding="UTF-8" standalone="yes"?>
<COLLADA xmlns="http://www.collada.org/2005/11/COLLADASchema" version="1.4.1">
    <asset>
        <contributor>
            <authoring_tool>3D City Database Importer/Exporter, version 5.5.3; Chair of Geoinformatics, Technical University of Munich</authoring_tool>
        </contributor>
        <created>2026-05-06T15:12:06.844</created>
        <modified>2026-05-06T15:12:06.844</modified>
        <unit meter="1.0" name="meters"/>
        <up_axis>Z_UP</up_axis>
    </asset>
    <library_materials>
        <material id="default_ai_0.2_sh_0.2_tr_0.0_dc_r_0.8_g_0.8_b_0.8_sc_r_1.0_g_1.0_b_1.0_ec_r_0.0_g_0.0_b_0_mat">
            <instance_effect url="#default_ai_0.2_sh_0.2_tr_0.0_dc_r_0.8_g_0.8_b_0.8_sc_r_1.0_g_1.0_b_1.0_ec_r_0.0_g_0.0_b_0_eff"/>
        </material>
        <material id="default_ai_0.2_sh_0.2_tr_0.0_dc_r_1.0_g_0.2_b_0.2_sc_r_1.0_g_1.0_b_1.0_ec_r_0.0_g_0.0_b_0_mat">
            <instance_effect url="#default_ai_0.2_sh_0.2_tr_0.0_dc_r_1.0_g_0.2_b_0.2_sc_r_1.0_g_1.0_b_1.0_ec_r_0.0_g_0.0_b_0_eff"/>
        </material>
    </library_materials>
    <library_effects>
        <effect id="default_ai_0.2_sh_0.2_tr_0.0_dc_r_0.8_g_0.8_b_0.8_sc_r_1.0_g_1.0_b_1.0_ec_r_0.0_g_0.0_b_0_eff">
            <profile_COMMON>
                <technique sid="COMMON">
                    <lambert>
                        <emission>
                            <color>0.0 0.0 0.0 1.0</color>
                        </emission>
                        <diffuse>
                            <color>0.8 0.8 0.8 1.0</color>
                        </diffuse>
                        <reflective>
                            <color>1.0 1.0 1.0 1.0</color>
                        </reflective>
                        <reflectivity>
                            <float>0.2</float>
                        </reflectivity>
                        <transparent opaque="A_ONE">
                            <color>1.0 1.0 1.0 1.0</color>
                        </transparent>
                        <transparency>
                            <float>1.0</float>
                        </transparency>
                    </lambert>
                </technique>
                <extra>
                    <technique profile="GOOGLEEARTH">
                        <double_sided>0</double_sided>
                    </technique>
                </extra>
            </profile_COMMON>
        </effect>
        <effect id="default_ai_0.2_sh_0.2_tr_0.0_dc_r_1.0_g_0.2_b_0.2_sc_r_1.0_g_1.0_b_1.0_ec_r_0.0_g_0.0_b_0_eff">
            <profile_COMMON>
                <technique sid="COMMON">
                    <lambert>
                        <emission>
                            <color>0.0 0.0 0.0 1.0</color>
                        </emission>
                        <diffuse>
                            <color>1.0 0.2 0.2 1.0</color>
                        </diffuse>
                        <reflective>
                            <color>1.0 1.0 1.0 1.0</color>
                        </reflective>
                        <reflectivity>
                            <float>0.2</float>
                        </reflectivity>
                        <transparent opaque="A_ONE">
                            <color>1.0 1.0 1.0 1.0</color>
                        </transparent>
                        <transparency>
                            <float>1.0</float>
                        </transparency>
                    </lambert>
                </technique>
                <extra>
                    <technique profile="GOOGLEEARTH">
                        <double_sided>0</double_sided>
                    </technique>
                </extra>
            </profile_COMMON>
        </effect>
    </library_effects>
    <library_geometries>
        <geometry id="geometry0">
            <mesh>
                <source id="geometry0-position">
                    <float_array id="geometry0-position-array" count="48">0.66 0.14 11.75 0.0 0.0 11.81 0.0 0.0 0.0 0.66 0.14 0.0 -1.47 7.32 0.0 -1.36 7.35 0.0 9.98 9.63 0.0 10.08 9.65 0.0 11.56 2.3 0.0 11.01 2.18 0.0 11.01 2.18 10.801 11.56 2.3 10.751 10.08 9.65 10.751 9.98 9.63 10.76 -1.36 7.35 11.8 -1.47 7.32 11.81</float_array>
                    <technique_common>
                        <accessor count="16" source="#geometry0-position-array" stride="3">
                            <param name="X" type="float"/>
                            <param name="Y" type="float"/>
                            <param name="Z" type="float"/>
                        </accessor>
                    </technique_common>
                </source>
                <source id="geometry0-normal">
                    <float_array id="geometry0-normal-array" count="150">0.0 0.0 -1.0 0.0 0.0 -1.0 0.0 0.0 -1.0 0.0 0.0 -1.0 0.0 0.0 -1.0 0.0 0.0 -1.0 0.0 0.0 -1.0 0.0 0.0 -1.0 0.0870813 0.0171867 0.9960529 0.0858595 0.0172423 0.9961581 0.0863576 0.0173344 0.9961134 0.0873445 0.0175637 0.9960233 0.0874586 0.0167953 0.9960266 0.0874291 0.016782 0.9960294 0.0877741 0.0176742 0.9959836 -0.1214929 0.8431698 0.5237405 -0.1214929 0.8431698 0.5237405 -0.1214929 0.8431698 0.5237405 0.1933809 -0.9811237 0.0 0.1933809 -0.9811237 0.0 0.1933809 -0.9811237 0.0 0.1933809 -0.9811237 0.0 0.9803233 0.1973985 0.0 0.9803233 0.1973985 0.0 0.9803233 0.1973985 0.0 0.9803233 0.1973985 0.0 -0.2631152 0.9647644 0.0 -0.2631152 0.9647644 0.0 -0.2631152 0.9647644 0.0 -0.2631152 0.9647644 0.0 0.2075042 -0.9782341 0.0 0.2075042 -0.9782341 0.0 0.2075042 -0.9782341 0.0 0.2075042 -0.9782341 0.0 -0.1961108 0.9805818 0.0 -0.1961108 0.9805818 0.0 -0.1961108 0.9805818 0.0 -0.1961107 0.9805818 0.0 -0.9804258 -0.1968888 0.0 -0.9804258 -0.1968888 0.0 -0.9804258 -0.1968888 0.0 -0.9804258 -0.1968888 0.0 0.2131668 -0.9770158 0.0 0.2131668 -0.9770158 0.0 0.2131668 -0.9770158 0.0 0.2131668 -0.9770158 0.0 -0.1971136 0.9803807 0.0 -0.1971136 0.9803807 0.0 -0.1971136 0.9803807 0.0 -0.1971136 0.9803807 0.0</float_array>
                    <technique_common>
                        <accessor count="50" source="#geometry0-normal-array" stride="3">
                            <param name="X" type="float"/>
                            <param name="Y" type="float"/>
                            <param name="Z" type="float"/>
                        </accessor>
                    </technique_common>
                </source>
                <vertices id="geometry0-vertex">
                    <input semantic="POSITION" source="#geometry0-position"/>
                </vertices>
                <triangles count="22" material="default_ai_0.2_sh_0.2_tr_0.0_dc_r_0.8_g_0.8_b_0.8_sc_r_1.0_g_1.0_b_1.0_ec_r_0.0_g_0.0_b_0_tri">
                    <input offset="0" semantic="VERTEX" source="#geometry0-vertex"/>
                    <input offset="1" semantic="NORMAL" source="#geometry0-normal"/>
                    <p>3 0 2 1 4 2 3 0 4 2 5 3 3 0 5 3 6 4 3 0 6 4 7 5 3 0 7 5 8 6 3 0 8 6 9 7 10 18 0 19 3 20 10 18 3 20 9 21 12 22 11 23 8 24 12 22 8 24 7 25 15 26 14 27 5 28 15 26 5 28 4 29 0 30 1 31 2 32 0 30 2 32 3 33 13 34 12 35 7 36 13 34 7 36 6 37 1 38 15 39 4 40 1 38 4 40 2 41 11 42 10 43 9 44 11 42 9 44 8 45 14 46 13 47 6 48 14 46 6 48 5 49</p>
                </triangles>
                <triangles count="6" material="default_ai_0.2_sh_0.2_tr_0.0_dc_r_1.0_g_0.2_b_0.2_sc_r_1.0_g_1.0_b_1.0_ec_r_0.0_g_0.0_b_0_tri">
                    <input offset="0" semantic="VERTEX" source="#geometry0-vertex"/>
                    <input offset="1" semantic="NORMAL" source="#geometry0-normal"/>
                    <p>14 8 15 9 1 10 14 8 1 10 0 11 14 8 0 11 10 12 14 8 10 12 11 13 14 8 11 13 12 14 14 15 12 16 13 17</p>
                </triangles>
            </mesh>
        </geometry>
    </library_geometries>
    <library_visual_scenes>
        <visual_scene id="Building_DEBW_5221000Qhre">
            <node>
                <instance_geometry url="#geometry0">
                    <bind_material>
                        <technique_common>
                            <instance_material symbol="default_ai_0.2_sh_0.2_tr_0.0_dc_r_0.8_g_0.8_b_0.8_sc_r_1.0_g_1.0_b_1.0_ec_r_0.0_g_0.0_b_0_tri" target="#default_ai_0.2_sh_0.2_tr_0.0_dc_r_0.8_g_0.8_b_0.8_sc_r_1.0_g_1.0_b_1.0_ec_r_0.0_g_0.0_b_0_mat"/>
                            <instance_material symbol="default_ai_0.2_sh_0.2_tr_0.0_dc_r_1.0_g_0.2_b_0.2_sc_r_1.0_g_1.0_b_1.0_ec_r_0.0_g_0.0_b_0_tri" target="#default_ai_0.2_sh_0.2_tr_0.0_dc_r_1.0_g_0.2_b_0.2_sc_r_1.0_g_1.0_b_1.0_ec_r_0.0_g_0.0_b_0_mat"/>
                        </technique_common>
                    </bind_material>
                </instance_geometry>
            </node>
        </visual_scene>
    </library_visual_scenes>
    <scene>
        <instance_visual_scene url="#Building_DEBW_5221000Qhre"/>
    </scene>
</COLLADA>
