<?xml version="1.0" encoding="UTF-8" standalone="yes"?>
<COLLADA xmlns="http://www.collada.org/2005/11/COLLADASchema" version="1.4.1">
    <asset>
        <contributor>
            <authoring_tool>3D City Database Importer/Exporter, version 5.5.3; Chair of Geoinformatics, Technical University of Munich</authoring_tool>
        </contributor>
        <created>2026-05-06T15:12:02.185</created>
        <modified>2026-05-06T15:12:02.185</modified>
        <unit meter="1.0" name="meters"/>
        <up_axis>Z_UP</up_axis>
    </asset>
    <library_materials>
        <material id="default_ai_0.2_sh_0.2_tr_0.0_dc_r_0.8_g_0.8_b_0.8_sc_r_1.0_g_1.0_b_1.0_ec_r_0.0_g_0.0_b_0_mat">
            <instance_effect url="#default_ai_0.2_sh_0.2_tr_0.0_dc_r_0.8_g_0.8_b_0.8_sc_r_1.0_g_1.0_b_1.0_ec_r_0.0_g_0.0_b_0_eff"/>
        </material>
        <material id="default_ai_0.2_sh_0.2_tr_0.0_dc_r_1.0_g_0.2_b_0.2_sc_r_1.0_g_1.0_b_1.0_ec_r_0.0_g_0.0_b_0_mat">
            <instance_effect url="#default_ai_0.2_sh_0.2_tr_0.0_dc_r_1.0_g_0.2_b_0.2_sc_r_1.0_g_1.0_b_1.0_ec_r_0.0_g_0.0_b_0_eff"/>
        </material>
    </library_materials>
    <library_effects>
        <effect id="default_ai_0.2_sh_0.2_tr_0.0_dc_r_0.8_g_0.8_b_0.8_sc_r_1.0_g_1.0_b_1.0_ec_r_0.0_g_0.0_b_0_eff">
            <profile_COMMON>
                <technique sid="COMMON">
                    <lambert>
                        <emission>
                            <color>0.0 0.0 0.0 1.0</color>
                        </emission>
                        <diffuse>
                            <color>0.8 0.8 0.8 1.0</color>
                        </diffuse>
                        <reflective>
                            <color>1.0 1.0 1.0 1.0</color>
                        </reflective>
                        <reflectivity>
                            <float>0.2</float>
                        </reflectivity>
                        <transparent opaque="A_ONE">
                            <color>1.0 1.0 1.0 1.0</color>
                        </transparent>
                        <transparency>
                            <float>1.0</float>
                        </transparency>
                    </lambert>
                </technique>
                <extra>
                    <technique profile="GOOGLEEARTH">
                        <double_sided>0</double_sided>
                    </technique>
                </extra>
            </profile_COMMON>
        </effect>
        <effect id="default_ai_0.2_sh_0.2_tr_0.0_dc_r_1.0_g_0.2_b_0.2_sc_r_1.0_g_1.0_b_1.0_ec_r_0.0_g_0.0_b_0_eff">
            <profile_COMMON>
                <technique sid="COMMON">
                    <lambert>
                        <emission>
                            <color>0.0 0.0 0.0 1.0</color>
                        </emission>
                        <diffuse>
                            <color>1.0 0.2 0.2 1.0</color>
                        </diffuse>
                        <reflective>
                            <color>1.0 1.0 1.0 1.0</color>
                        </reflective>
                        <reflectivity>
                            <float>0.2</float>
                        </reflectivity>
                        <transparent opaque="A_ONE">
                            <color>1.0 1.0 1.0 1.0</color>
                        </transparent>
                        <transparency>
                            <float>1.0</float>
                        </transparency>
                    </lambert>
                </technique>
                <extra>
                    <technique profile="GOOGLEEARTH">
                        <double_sided>0</double_sided>
                    </technique>
                </extra>
            </profile_COMMON>
        </effect>
    </library_effects>
    <library_geometries>
        <geometry id="geometry0">
            <mesh>
                <source id="geometry0-position">
                    <float_array id="geometry0-position-array" count="42">3.22 0.36 3.718 0.0 0.0 3.713 0.0 0.0 0.0 3.22 0.36 0.0 2.64 5.62 3.715 2.64 5.62 0.0 0.12 1.46 5.154 -0.31 5.28 3.73 -0.31 5.28 0.0 0.12 1.46 0.0 2.929 3.003 6.383 -0.017 2.679 6.383 -0.17 1.43 5.156 -0.17 1.43 0.0</float_array>
                    <technique_common>
                        <accessor count="14" source="#geometry0-position-array" stride="3">
                            <param name="X" type="float"/>
                            <param name="Y" type="float"/>
                            <param name="Z" type="float"/>
                        </accessor>
                    </technique_common>
                </source>
                <source id="geometry0-normal">
                    <float_array id="geometry0-normal-array" count="138">-0.9930077 -0.1180499 0.0 -0.9930077 -0.1180499 0.0 -0.9930077 -0.1180499 0.0 -0.9930077 -0.1180499 0.0 -0.1028995 0.9946917 0.0 -0.1028994 0.9946917 0.0 -0.1028995 0.9946917 0.0 -0.1028995 0.9946917 0.0 0.0 0.0 -1.0 0.0 0.0 -1.0 0.0 0.0 -1.0 0.0 0.0 -1.0 0.0 0.0 -1.0 0.0 0.0 -1.0 -0.9937294 -0.1118118 1.283E-4 -0.9937294 -0.1118118 1.283E-4 -0.9937294 -0.1118118 1.283E-4 0.111109 -0.9938083 0.0 0.111109 -0.9938082 0.0 0.111109 -0.9938083 0.0 0.111109 -0.9938083 0.0 0.0775452 -0.7035925 0.70636 0.0775716 -0.703644 0.7063057 0.0774517 -0.7035825 0.7063801 0.0774796 -0.7035562 0.7064033 0.0776552 -0.7035651 0.7063751 0.0773746 -0.7035351 0.7064357 -0.9937241 -0.111859 0.0 -0.993724 -0.111859 0.0 -0.9937241 -0.111859 0.0 -0.9937241 -0.111859 0.0 -0.0778957 0.7075416 0.7023654 -0.0778113 0.7075062 0.7024104 -0.0778957 0.7075416 0.7023654 -0.07798 0.7075769 0.7023205 0.9939756 0.1096019 0.0 0.9939756 0.1096019 0.0 0.9939756 0.1096019 0.0 0.9939756 0.1096019 0.0 -0.1144962 0.9934237 0.0 -0.1144962 0.9934237 0.0 -0.1144962 0.9934237 0.0 -0.1144962 0.9934236 0.0 0.9939756 0.1096018 -1.615E-4 0.9939756 0.1096018 -1.615E-4 0.9939756 0.1096018 -1.615E-4</float_array>
                    <technique_common>
                        <accessor count="46" source="#geometry0-normal-array" stride="3">
                            <param name="X" type="float"/>
                            <param name="Y" type="float"/>
                            <param name="Z" type="float"/>
                        </accessor>
                    </technique_common>
                </source>
                <vertices id="geometry0-vertex">
                    <input semantic="POSITION" source="#geometry0-position"/>
                </vertices>
                <triangles count="18" material="default_ai_0.2_sh_0.2_tr_0.0_dc_r_0.8_g_0.8_b_0.8_sc_r_1.0_g_1.0_b_1.0_ec_r_0.0_g_0.0_b_0_tri">
                    <input offset="0" semantic="VERTEX" source="#geometry0-vertex"/>
                    <input offset="1" semantic="NORMAL" source="#geometry0-normal"/>
                    <p>1 0 12 1 13 2 1 0 13 2 2 3 12 4 6 5 9 6 12 4 9 6 13 7 2 8 13 9 9 10 3 11 2 8 9 10 3 11 9 10 8 12 3 11 8 12 5 13 7 14 6 15 11 16 0 17 1 18 2 19 0 17 2 19 3 20 6 27 7 28 8 29 6 27 8 29 9 30 4 35 0 36 3 37 4 35 3 37 5 38 7 39 4 40 5 41 7 39 5 41 8 42 0 43 4 44 10 45</p>
                </triangles>
                <triangles count="6" material="default_ai_0.2_sh_0.2_tr_0.0_dc_r_1.0_g_0.2_b_0.2_sc_r_1.0_g_1.0_b_1.0_ec_r_0.0_g_0.0_b_0_tri">
                    <input offset="0" semantic="VERTEX" source="#geometry0-vertex"/>
                    <input offset="1" semantic="NORMAL" source="#geometry0-normal"/>
                    <p>1 21 0 22 10 23 6 24 12 25 1 21 6 24 1 21 10 23 6 24 10 23 11 26 11 31 10 32 4 33 11 31 4 33 7 34</p>
                </triangles>
            </mesh>
        </geometry>
    </library_geometries>
    <library_visual_scenes>
        <visual_scene id="Building_DEBW_5221000QdJh">
            <node>
                <instance_geometry url="#geometry0">
                    <bind_material>
                        <technique_common>
                            <instance_material symbol="default_ai_0.2_sh_0.2_tr_0.0_dc_r_0.8_g_0.8_b_0.8_sc_r_1.0_g_1.0_b_1.0_ec_r_0.0_g_0.0_b_0_tri" target="#default_ai_0.2_sh_0.2_tr_0.0_dc_r_0.8_g_0.8_b_0.8_sc_r_1.0_g_1.0_b_1.0_ec_r_0.0_g_0.0_b_0_mat"/>
                            <instance_material symbol="default_ai_0.2_sh_0.2_tr_0.0_dc_r_1.0_g_0.2_b_0.2_sc_r_1.0_g_1.0_b_1.0_ec_r_0.0_g_0.0_b_0_tri" target="#default_ai_0.2_sh_0.2_tr_0.0_dc_r_1.0_g_0.2_b_0.2_sc_r_1.0_g_1.0_b_1.0_ec_r_0.0_g_0.0_b_0_mat"/>
                        </technique_common>
                    </bind_material>
                </instance_geometry>
            </node>
        </visual_scene>
    </library_visual_scenes>
    <scene>
        <instance_visual_scene url="#Building_DEBW_5221000QdJh"/>
    </scene>
</COLLADA>
