<?xml version="1.0" encoding="UTF-8" standalone="yes"?>
<COLLADA xmlns="http://www.collada.org/2005/11/COLLADASchema" version="1.4.1">
    <asset>
        <contributor>
            <authoring_tool>3D City Database Importer/Exporter, version 5.5.3; Chair of Geoinformatics, Technical University of Munich</authoring_tool>
        </contributor>
        <created>2026-05-06T15:12:05.524</created>
        <modified>2026-05-06T15:12:05.524</modified>
        <unit meter="1.0" name="meters"/>
        <up_axis>Z_UP</up_axis>
    </asset>
    <library_materials>
        <material id="default_ai_0.2_sh_0.2_tr_0.0_dc_r_0.8_g_0.8_b_0.8_sc_r_1.0_g_1.0_b_1.0_ec_r_0.0_g_0.0_b_0_mat">
            <instance_effect url="#default_ai_0.2_sh_0.2_tr_0.0_dc_r_0.8_g_0.8_b_0.8_sc_r_1.0_g_1.0_b_1.0_ec_r_0.0_g_0.0_b_0_eff"/>
        </material>
        <material id="default_ai_0.2_sh_0.2_tr_0.0_dc_r_1.0_g_0.2_b_0.2_sc_r_1.0_g_1.0_b_1.0_ec_r_0.0_g_0.0_b_0_mat">
            <instance_effect url="#default_ai_0.2_sh_0.2_tr_0.0_dc_r_1.0_g_0.2_b_0.2_sc_r_1.0_g_1.0_b_1.0_ec_r_0.0_g_0.0_b_0_eff"/>
        </material>
    </library_materials>
    <library_effects>
        <effect id="default_ai_0.2_sh_0.2_tr_0.0_dc_r_0.8_g_0.8_b_0.8_sc_r_1.0_g_1.0_b_1.0_ec_r_0.0_g_0.0_b_0_eff">
            <profile_COMMON>
                <technique sid="COMMON">
                    <lambert>
                        <emission>
                            <color>0.0 0.0 0.0 1.0</color>
                        </emission>
                        <diffuse>
                            <color>0.8 0.8 0.8 1.0</color>
                        </diffuse>
                        <reflective>
                            <color>1.0 1.0 1.0 1.0</color>
                        </reflective>
                        <reflectivity>
                            <float>0.2</float>
                        </reflectivity>
                        <transparent opaque="A_ONE">
                            <color>1.0 1.0 1.0 1.0</color>
                        </transparent>
                        <transparency>
                            <float>1.0</float>
                        </transparency>
                    </lambert>
                </technique>
                <extra>
                    <technique profile="GOOGLEEARTH">
                        <double_sided>0</double_sided>
                    </technique>
                </extra>
            </profile_COMMON>
        </effect>
        <effect id="default_ai_0.2_sh_0.2_tr_0.0_dc_r_1.0_g_0.2_b_0.2_sc_r_1.0_g_1.0_b_1.0_ec_r_0.0_g_0.0_b_0_eff">
            <profile_COMMON>
                <technique sid="COMMON">
                    <lambert>
                        <emission>
                            <color>0.0 0.0 0.0 1.0</color>
                        </emission>
                        <diffuse>
                            <color>1.0 0.2 0.2 1.0</color>
                        </diffuse>
                        <reflective>
                            <color>1.0 1.0 1.0 1.0</color>
                        </reflective>
                        <reflectivity>
                            <float>0.2</float>
                        </reflectivity>
                        <transparent opaque="A_ONE">
                            <color>1.0 1.0 1.0 1.0</color>
                        </transparent>
                        <transparency>
                            <float>1.0</float>
                        </transparency>
                    </lambert>
                </technique>
                <extra>
                    <technique profile="GOOGLEEARTH">
                        <double_sided>0</double_sided>
                    </technique>
                </extra>
            </profile_COMMON>
        </effect>
    </library_effects>
    <library_geometries>
        <geometry id="geometry0">
            <mesh>
                <source id="geometry0-position">
                    <float_array id="geometry0-position-array" count="90">6.64 -8.7 6.876 6.64 -8.7 7.079 6.22 -9.03 7.38 6.22 -9.03 6.876 3.398 -11.205 9.387 2.73 -11.72 8.911 2.73 -11.72 6.876 -6.39 -4.86 6.876 -6.39 -4.86 7.17 -3.261 -2.48 9.387 0.0 0.0 7.079 0.0 0.0 6.876 0.0 0.0 0.0 6.64 -8.7 0.0 6.22 -9.03 0.0 2.73 -11.72 0.0 -0.12 -13.92 0.0 -2.91 -10.28 0.0 -2.52 -9.95 0.0 -4.539 -7.3 0.0 -5.88 -5.54 0.0 -6.39 -4.86 0.0 -0.12 -13.92 6.881 -5.88 -5.54 6.876 -2.91 -10.28 6.876 -4.539 -7.3 6.876 -4.539 -7.3 7.165 -5.88 -5.54 7.166 -2.52 -9.95 6.876 -2.52 -9.95 7.163</float_array>
                    <technique_common>
                        <accessor count="30" source="#geometry0-position-array" stride="3">
                            <param name="X" type="float"/>
                            <param name="Y" type="float"/>
                            <param name="Z" type="float"/>
                        </accessor>
                    </technique_common>
                </source>
                <source id="geometry0-normal">
                    <float_array id="geometry0-normal-array" count="300">-0.645942 0.7633864 0.0 -0.645942 0.7633864 0.0 -0.645942 0.7633864 0.0 -0.7936766 -0.60834 0.0 -0.7936766 -0.60834 0.0 -0.7936766 -0.60834 0.0 -0.7936766 -0.60834 0.0 0.6178215 -0.7863184 0.0 0.6178215 -0.7863184 0.0 0.6178215 -0.7863184 0.0 0.6178214 -0.7863185 0.0 0.6110522 -0.7915903 0.0 0.6110522 -0.7915903 0.0 0.6110522 -0.7915903 0.0 0.6110521 -0.7915903 0.0 -0.8000001 -0.5999999 0.0 -0.8000001 -0.5999999 0.0 -0.8000001 -0.5999999 0.0 -0.8000001 -0.6 0.0 0.7949281 0.6067038 0.0 0.7949281 0.6067038 0.0 0.7949281 0.6067038 0.0 0.7949281 0.6067038 0.0 0.3901898 0.29783 0.8712344 0.3901504 0.2977663 0.8712737 0.3901986 0.2978517 0.8712229 0.3902094 0.2978618 0.8712146 0.3901721 0.2977865 0.8712572 -0.7954214 -0.6060568 0.0 -0.7954214 -0.6060568 0.0 -0.7954214 -0.6060568 0.0 -0.7954214 -0.6060568 0.0 0.6104958 -0.7920195 6.35E-5 0.6104783 -0.792033 0.0 0.6104783 -0.792033 0.0 0.6104958 -0.7920195 6.35E-5 0.6105133 -0.792006 1.271E-4 -0.8000001 -0.5999999 0.0 -0.8000001 -0.5999999 0.0 -0.8000001 -0.5999999 0.0 -0.8000001 -0.5999999 0.0 -0.645942 0.7633864 0.0 -0.645942 0.7633864 0.0 -0.645942 0.7633864 0.0 -0.645942 0.7633864 0.0 0.6104783 -0.792033 0.0 0.6104783 -0.792033 0.0 0.6104783 -0.792033 0.0 0.6104783 -0.792033 0.0 0.6178214 -0.7863184 0.0 0.6178214 -0.7863184 0.0 0.6178214 -0.7863184 0.0 0.6178214 -0.7863184 0.0 -0.7954386 -0.6060343 0.0 -0.7954386 -0.6060342 0.0 -0.7954386 -0.6060343 0.0 -0.7954386 -0.6060343 0.0 -0.6053677 0.7959459 -2.31E-5 -0.6053675 0.7959461 0.0 -0.6053675 0.7959461 0.0 -0.6053678 0.7959459 -3.47E-5 -0.6053681 0.7959456 -6.94E-5 0.7949281 0.6067037 0.0 0.7949281 0.6067037 0.0 0.7949281 0.6067037 0.0 0.7949281 0.6067037 0.0 -0.3906912 -0.298179 0.8708903 -0.3905211 -0.298052 0.8710099 -0.3905506 -0.2980927 0.8709828 -0.390261 -0.297848 0.8711963 -0.3904967 -0.2979964 0.8710399 -0.3904878 -0.2980048 0.871041 -0.3904169 -0.2980384 0.8710613 -0.3902426 -0.297867 0.8711979 -0.3896777 -0.2974842 0.8715817 0.6110521 -0.7915903 0.0 0.6110521 -0.7915903 0.0 0.6110521 -0.7915903 0.0 -0.6053675 0.7959461 0.0 -0.6053675 0.7959461 0.0 -0.6053675 0.7959461 0.0 -0.6053675 0.7959461 0.0 -0.7954214 -0.6060568 0.0 -0.7954214 -0.6060568 0.0 -0.7954214 -0.6060568 0.0 -0.7954214 -0.6060568 0.0 0.0 0.0 -1.0 0.0 0.0 -1.0 0.0 0.0 -1.0 0.0 0.0 -1.0 0.0 0.0 -1.0 0.0 0.0 -1.0 0.0 0.0 -1.0 0.0 0.0 -1.0 0.0 0.0 -1.0 0.0 0.0 -1.0 -0.7954386 -0.6060343 0.0 -0.7954386 -0.6060343 0.0 -0.7954386 -0.6060343 0.0 -0.7954386 -0.6060343 0.0</float_array>
                    <technique_common>
                        <accessor count="100" source="#geometry0-normal-array" stride="3">
                            <param name="X" type="float"/>
                            <param name="Y" type="float"/>
                            <param name="Z" type="float"/>
                        </accessor>
                    </technique_common>
                </source>
                <vertices id="geometry0-vertex">
                    <input semantic="POSITION" source="#geometry0-position"/>
                </vertices>
                <triangles count="46" material="default_ai_0.2_sh_0.2_tr_0.0_dc_r_0.8_g_0.8_b_0.8_sc_r_1.0_g_1.0_b_1.0_ec_r_0.0_g_0.0_b_0_tri">
                    <input offset="0" semantic="VERTEX" source="#geometry0-vertex"/>
                    <input offset="1" semantic="NORMAL" source="#geometry0-normal"/>
                    <p>24 0 29 1 28 2 22 3 24 4 17 5 22 3 17 5 16 6 0 7 1 8 2 9 0 7 2 9 3 10 6 11 22 12 16 13 6 11 16 13 15 14 23 15 27 16 8 17 23 15 8 17 7 18 11 19 0 20 13 21 11 19 13 21 12 22 25 28 26 29 27 30 25 28 27 30 23 31 5 32 6 33 3 34 5 32 3 34 2 35 5 32 2 35 4 36 23 37 7 38 21 39 23 37 21 39 20 40 24 41 28 42 18 43 24 41 18 43 17 44 3 45 6 46 15 47 3 45 15 47 14 48 0 49 3 50 14 51 0 49 14 51 13 52 28 53 29 54 26 55 28 53 26 55 25 56 10 57 11 58 7 59 10 57 7 59 8 60 10 57 8 60 9 61 11 62 10 63 1 64 11 62 1 64 0 65 6 75 5 76 22 77 7 78 11 79 12 80 7 78 12 80 21 81 25 82 23 83 20 84 25 82 20 84 19 85 20 86 21 87 12 88 20 86 12 88 13 89 20 86 13 89 14 90 20 86 14 90 15 91 19 92 20 86 15 91 18 93 19 92 15 91 18 93 15 91 16 94 18 93 16 94 17 95 28 96 25 97 19 98 28 96 19 98 18 99</p>
                </triangles>
                <triangles count="10" material="default_ai_0.2_sh_0.2_tr_0.0_dc_r_1.0_g_0.2_b_0.2_sc_r_1.0_g_1.0_b_1.0_ec_r_0.0_g_0.0_b_0_tri">
                    <input offset="0" semantic="VERTEX" source="#geometry0-vertex"/>
                    <input offset="1" semantic="NORMAL" source="#geometry0-normal"/>
                    <p>9 23 4 24 2 25 9 23 2 25 1 26 9 23 1 26 10 27 4 66 9 67 5 68 5 68 9 67 22 69 8 70 27 71 9 67 27 71 26 72 9 67 26 72 29 73 9 67 9 67 29 73 22 69 22 69 29 73 24 74</p>
                </triangles>
            </mesh>
        </geometry>
    </library_geometries>
    <library_visual_scenes>
        <visual_scene id="Building_DEBW_5221000QemJ">
            <node>
                <instance_geometry url="#geometry0">
                    <bind_material>
                        <technique_common>
                            <instance_material symbol="default_ai_0.2_sh_0.2_tr_0.0_dc_r_0.8_g_0.8_b_0.8_sc_r_1.0_g_1.0_b_1.0_ec_r_0.0_g_0.0_b_0_tri" target="#default_ai_0.2_sh_0.2_tr_0.0_dc_r_0.8_g_0.8_b_0.8_sc_r_1.0_g_1.0_b_1.0_ec_r_0.0_g_0.0_b_0_mat"/>
                            <instance_material symbol="default_ai_0.2_sh_0.2_tr_0.0_dc_r_1.0_g_0.2_b_0.2_sc_r_1.0_g_1.0_b_1.0_ec_r_0.0_g_0.0_b_0_tri" target="#default_ai_0.2_sh_0.2_tr_0.0_dc_r_1.0_g_0.2_b_0.2_sc_r_1.0_g_1.0_b_1.0_ec_r_0.0_g_0.0_b_0_mat"/>
                        </technique_common>
                    </bind_material>
                </instance_geometry>
            </node>
        </visual_scene>
    </library_visual_scenes>
    <scene>
        <instance_visual_scene url="#Building_DEBW_5221000QemJ"/>
    </scene>
</COLLADA>
