<?xml version="1.0" encoding="UTF-8" standalone="yes"?>
<COLLADA xmlns="http://www.collada.org/2005/11/COLLADASchema" version="1.4.1">
    <asset>
        <contributor>
            <authoring_tool>3D City Database Importer/Exporter, version 5.5.3; Chair of Geoinformatics, Technical University of Munich</authoring_tool>
        </contributor>
        <created>2026-05-06T15:12:07.820</created>
        <modified>2026-05-06T15:12:07.820</modified>
        <unit meter="1.0" name="meters"/>
        <up_axis>Z_UP</up_axis>
    </asset>
    <library_materials>
        <material id="default_ai_0.2_sh_0.2_tr_0.0_dc_r_0.8_g_0.8_b_0.8_sc_r_1.0_g_1.0_b_1.0_ec_r_0.0_g_0.0_b_0_mat">
            <instance_effect url="#default_ai_0.2_sh_0.2_tr_0.0_dc_r_0.8_g_0.8_b_0.8_sc_r_1.0_g_1.0_b_1.0_ec_r_0.0_g_0.0_b_0_eff"/>
        </material>
        <material id="default_ai_0.2_sh_0.2_tr_0.0_dc_r_1.0_g_0.2_b_0.2_sc_r_1.0_g_1.0_b_1.0_ec_r_0.0_g_0.0_b_0_mat">
            <instance_effect url="#default_ai_0.2_sh_0.2_tr_0.0_dc_r_1.0_g_0.2_b_0.2_sc_r_1.0_g_1.0_b_1.0_ec_r_0.0_g_0.0_b_0_eff"/>
        </material>
    </library_materials>
    <library_effects>
        <effect id="default_ai_0.2_sh_0.2_tr_0.0_dc_r_0.8_g_0.8_b_0.8_sc_r_1.0_g_1.0_b_1.0_ec_r_0.0_g_0.0_b_0_eff">
            <profile_COMMON>
                <technique sid="COMMON">
                    <lambert>
                        <emission>
                            <color>0.0 0.0 0.0 1.0</color>
                        </emission>
                        <diffuse>
                            <color>0.8 0.8 0.8 1.0</color>
                        </diffuse>
                        <reflective>
                            <color>1.0 1.0 1.0 1.0</color>
                        </reflective>
                        <reflectivity>
                            <float>0.2</float>
                        </reflectivity>
                        <transparent opaque="A_ONE">
                            <color>1.0 1.0 1.0 1.0</color>
                        </transparent>
                        <transparency>
                            <float>1.0</float>
                        </transparency>
                    </lambert>
                </technique>
                <extra>
                    <technique profile="GOOGLEEARTH">
                        <double_sided>0</double_sided>
                    </technique>
                </extra>
            </profile_COMMON>
        </effect>
        <effect id="default_ai_0.2_sh_0.2_tr_0.0_dc_r_1.0_g_0.2_b_0.2_sc_r_1.0_g_1.0_b_1.0_ec_r_0.0_g_0.0_b_0_eff">
            <profile_COMMON>
                <technique sid="COMMON">
                    <lambert>
                        <emission>
                            <color>0.0 0.0 0.0 1.0</color>
                        </emission>
                        <diffuse>
                            <color>1.0 0.2 0.2 1.0</color>
                        </diffuse>
                        <reflective>
                            <color>1.0 1.0 1.0 1.0</color>
                        </reflective>
                        <reflectivity>
                            <float>0.2</float>
                        </reflectivity>
                        <transparent opaque="A_ONE">
                            <color>1.0 1.0 1.0 1.0</color>
                        </transparent>
                        <transparency>
                            <float>1.0</float>
                        </transparency>
                    </lambert>
                </technique>
                <extra>
                    <technique profile="GOOGLEEARTH">
                        <double_sided>0</double_sided>
                    </technique>
                </extra>
            </profile_COMMON>
        </effect>
    </library_effects>
    <library_geometries>
        <geometry id="geometry0">
            <mesh>
                <source id="geometry0-position">
                    <float_array id="geometry0-position-array" count="117">0.0 0.0 4.542 23.72 11.79 4.542 20.51 18.24 4.542 18.07 17.02 4.542 18.067 17.027 4.542 -1.259 7.429 4.542 -1.26 7.43 4.542 -3.21 6.46 4.542 0.0 0.0 0.0 23.72 11.79 0.0 -3.21 6.46 0.0 -1.26 7.43 0.0 -1.259 7.429 0.0 18.067 17.027 0.0 18.07 17.02 0.0 20.51 18.24 0.0 -1.259 7.429 3.488 18.067 17.027 3.488 19.29 20.69 3.521 16.85 19.47 3.521 16.85 19.47 3.488 16.85 19.47 0.0 19.29 20.69 0.0 16.95 25.4 3.521 14.503 24.184 3.521 14.503 24.184 0.0 16.95 25.4 0.0 14.503 24.184 3.488 -2.48 9.87 3.541 -4.42 8.91 3.541 -4.42 8.91 0.0 -2.48 9.87 0.0 -2.48 9.87 3.488 -6.75 13.62 3.541 -6.75 13.62 0.0 -4.832 14.573 0.0 -4.832 14.573 3.541 -4.832 14.573 3.488 -1.26 7.43 3.488</float_array>
                    <technique_common>
                        <accessor count="39" source="#geometry0-position-array" stride="3">
                            <param name="X" type="float"/>
                            <param name="Y" type="float"/>
                            <param name="Z" type="float"/>
                        </accessor>
                    </technique_common>
                </source>
                <source id="geometry0-normal">
                    <float_array id="geometry0-normal-array" count="468">0.8943892 0.4472896 0.0 0.8943892 0.4472896 0.0 0.8943892 0.4472896 0.0 0.8943892 0.4472896 0.0 -0.8963221 -0.4434035 0.0 -0.8963221 -0.4434035 0.0 -0.8963221 -0.4434035 0.0 -0.8963221 -0.4434035 0.0 0.4450983 -0.8954818 0.0 0.4450983 -0.8954818 0.0 0.4450983 -0.8954818 0.0 0.4450983 -0.8954818 0.0 0.0 0.0 -1.0 0.0 0.0 -1.0 0.0 0.0 -1.0 0.0 0.0 -1.0 -0.4453759 0.8953437 0.0 -0.4453759 0.8953437 0.0 -0.4453759 0.8953437 0.0 -0.4453759 0.8953437 0.0 -0.8951855 -0.4456937 0.0 -0.8951855 -0.4456937 0.0 -0.8951855 -0.4456937 0.0 -0.8951855 -0.4456937 0.0 0.0 0.0 1.0 0.0 0.0 1.0 0.0 0.0 1.0 0.0 0.0 1.0 0.0 0.0 1.0 0.0 0.0 1.0 0.0 0.0 1.0 -0.8944272 -0.4472136 0.0 -0.8944272 -0.4472136 0.0 -0.8944272 -0.4472136 0.0 -0.8944272 -0.4472136 0.0 0.9191321 0.3939496 0.0 0.9191321 0.3939495 0.0 0.9191321 0.3939495 0.0 0.9191321 0.3939496 0.0 0.9191321 0.3939496 0.0 0.0 0.0 -1.0 0.0 0.0 -1.0 0.0 0.0 -1.0 0.0 0.0 -1.0 0.0 0.0 1.0 0.0 0.0 1.0 0.0 0.0 1.0 0.0 0.0 1.0 0.0 0.0 1.0 0.0 0.0 1.0 0.0 0.0 1.0 0.0 0.0 1.0 -0.445119 0.8954714 0.0 -0.445119 0.8954714 0.0 -0.445119 0.8954714 0.0 -0.445119 0.8954714 0.0 -0.4448021 0.8956289 0.0 -0.4448021 0.8956289 0.0 -0.4448021 0.8956289 0.0 -0.4448021 0.8956289 0.0 0.8943892 0.4472896 0.0 0.8943892 0.4472896 0.0 0.8943892 0.4472896 0.0 0.8943892 0.4472896 0.0 -0.4472133 0.8944274 0.0 -0.4472133 0.8944274 0.0 -0.4472133 0.8944274 0.0 -0.4472133 0.8944274 0.0 0.4472139 -0.8944271 0.0 0.4472139 -0.8944271 0.0 0.4472139 -0.8944271 0.0 0.4472139 -0.8944271 0.0 0.4472139 -0.8944271 0.0 -0.7070646 -0.7071489 0.0 -0.7070646 -0.7071489 0.0 -0.7070646 -0.7071489 0.0 -0.7070646 -0.7071489 0.0 -0.444971 0.8955449 0.0 -0.444971 0.8955449 0.0 -0.444971 0.895545 0.0 -0.444971 0.895545 0.0 -0.444971 0.895545 0.0 -0.4448022 0.8956289 0.0 -0.4448022 0.8956289 0.0 -0.4448022 0.8956289 0.0 -0.4448022 0.8956289 0.0 -0.8943892 -0.4472896 0.0 -0.8943892 -0.4472896 0.0 -0.8943892 -0.4472896 0.0 -0.8943892 -0.4472896 0.0 -0.4450163 0.8955225 0.0 -0.4450163 0.8955225 0.0 -0.4450163 0.8955225 0.0 -0.4450163 0.8955225 0.0 -0.4450162 0.8955225 0.0 0.8951855 0.4456937 0.0 0.8951855 0.4456937 0.0 0.8951855 0.4456937 0.0 0.8951855 0.4456937 0.0 0.4448021 -0.8956289 0.0 0.4448021 -0.8956289 0.0 0.4448021 -0.8956289 0.0 0.4448021 -0.8956289 0.0 0.0 0.0 1.0 0.0 0.0 1.0 0.0 0.0 1.0 0.0 0.0 1.0 0.0 0.0 1.0 0.0 0.0 1.0 0.0 0.0 1.0 0.0 0.0 1.0 0.8952585 0.4455471 0.0 0.8952585 0.4455471 0.0 0.8952585 0.4455471 0.0 0.8952585 0.4455471 0.0 0.4435138 -0.8962675 0.0 0.4435138 -0.8962675 0.0 0.4435139 -0.8962675 0.0 0.4435138 -0.8962675 0.0 0.4435138 -0.8962675 0.0 0.0 0.0 -1.0 0.0 0.0 -1.0 0.0 0.0 -1.0 0.0 0.0 -1.0 0.0 0.0 -1.0 0.0 0.0 -1.0 0.0 0.0 -1.0 0.0 0.0 -1.0 0.0 0.0 -1.0 0.0 0.0 -1.0 0.0 0.0 -1.0 0.0 0.0 -1.0 0.0 0.0 -1.0 0.0 0.0 -1.0 0.0 0.0 -1.0 0.7070646 0.7071489 0.0 0.7070646 0.7071489 0.0 0.7070646 0.7071489 0.0 0.7070646 0.7071489 0.0 0.7070646 0.7071489 0.0 -0.8951855 -0.4456937 0.0 -0.8951855 -0.4456937 0.0 -0.8951855 -0.4456937 0.0 -0.8951855 -0.4456937 0.0 -0.8955334 -0.4449942 0.0 -0.8955334 -0.4449942 0.0 -0.8955334 -0.4449942 0.0 -0.8955334 -0.4449942 0.0 0.8950858 0.445894 0.0 0.8950858 0.445894 0.0 0.8950858 0.445894 0.0 0.8950858 0.445894 0.0 0.8955651 0.4449306 0.0 0.8955651 0.4449306 0.0 0.8955651 0.4449306 0.0 0.8955651 0.4449306 0.0</float_array>
                    <technique_common>
                        <accessor count="156" source="#geometry0-normal-array" stride="3">
                            <param name="X" type="float"/>
                            <param name="Y" type="float"/>
                            <param name="Z" type="float"/>
                        </accessor>
                    </technique_common>
                </source>
                <vertices id="geometry0-vertex">
                    <input semantic="POSITION" source="#geometry0-position"/>
                </vertices>
                <triangles count="73" material="default_ai_0.2_sh_0.2_tr_0.0_dc_r_0.8_g_0.8_b_0.8_sc_r_1.0_g_1.0_b_1.0_ec_r_0.0_g_0.0_b_0_tri">
                    <input offset="0" semantic="VERTEX" source="#geometry0-vertex"/>
                    <input offset="1" semantic="NORMAL" source="#geometry0-normal"/>
                    <p>32 0 37 1 36 2 32 0 36 2 28 3 29 4 33 5 34 6 29 4 34 6 30 7 1 8 0 9 8 10 1 8 8 10 9 11 25 12 26 13 22 14 25 12 22 14 21 15 7 16 6 17 11 18 7 16 11 18 10 19 27 20 20 21 19 22 27 20 19 22 24 23 38 31 32 32 31 33 38 31 31 33 11 34 14 35 13 36 17 37 14 35 17 37 4 38 14 35 4 38 3 39 31 40 30 41 34 42 31 40 34 42 35 43 37 52 27 53 25 54 37 52 25 54 35 55 17 56 13 57 12 58 17 56 12 58 16 59 32 60 31 61 35 62 32 60 35 62 37 63 3 64 2 65 15 66 3 64 15 66 14 67 21 68 22 69 18 70 20 71 21 68 18 70 20 71 18 70 19 72 16 73 38 74 11 75 16 73 11 75 12 76 35 77 34 78 33 79 37 80 35 77 33 79 37 80 33 79 36 81 17 82 16 83 5 84 17 82 5 84 4 85 35 86 31 87 32 88 35 86 32 88 37 89 26 90 25 91 27 92 26 90 27 92 24 93 26 90 24 93 23 94 21 95 25 96 27 97 21 95 27 97 20 98 12 99 13 100 17 101 12 99 17 101 16 102 2 111 1 112 9 113 2 111 9 113 15 114 30 115 31 116 32 117 30 115 32 117 28 118 30 115 28 118 29 119 12 120 11 121 31 122 12 120 31 122 35 123 12 120 35 123 25 124 12 120 25 124 21 125 12 120 21 125 13 126 9 127 8 128 10 129 14 130 15 131 9 127 14 130 9 127 10 129 13 132 14 130 10 129 12 133 13 132 10 129 12 133 10 129 11 134 12 135 11 136 6 137 16 138 12 135 6 137 16 138 6 137 5 139 27 140 25 141 21 142 27 140 21 142 20 143 0 144 7 145 10 146 0 144 10 146 8 147 20 148 17 149 13 150 20 148 13 150 21 151 23 152 18 153 22 154 23 152 22 154 26 155</p>
                </triangles>
                <triangles count="15" material="default_ai_0.2_sh_0.2_tr_0.0_dc_r_1.0_g_0.2_b_0.2_sc_r_1.0_g_1.0_b_1.0_ec_r_0.0_g_0.0_b_0_tri">
                    <input offset="0" semantic="VERTEX" source="#geometry0-vertex"/>
                    <input offset="1" semantic="NORMAL" source="#geometry0-normal"/>
                    <p>38 24 16 25 32 26 32 26 16 25 37 27 37 27 16 25 27 28 27 28 16 25 20 29 20 29 16 25 17 30 6 44 7 45 0 46 5 47 6 44 0 46 5 47 0 46 1 48 3 49 4 50 5 47 3 49 5 47 1 48 3 49 1 48 2 51 19 103 18 104 23 105 19 103 23 105 24 106 36 107 33 108 29 109 36 107 29 109 28 110</p>
                </triangles>
            </mesh>
        </geometry>
    </library_geometries>
    <library_visual_scenes>
        <visual_scene id="Building_DEBW_5221000QwCm">
            <node>
                <instance_geometry url="#geometry0">
                    <bind_material>
                        <technique_common>
                            <instance_material symbol="default_ai_0.2_sh_0.2_tr_0.0_dc_r_0.8_g_0.8_b_0.8_sc_r_1.0_g_1.0_b_1.0_ec_r_0.0_g_0.0_b_0_tri" target="#default_ai_0.2_sh_0.2_tr_0.0_dc_r_0.8_g_0.8_b_0.8_sc_r_1.0_g_1.0_b_1.0_ec_r_0.0_g_0.0_b_0_mat"/>
                            <instance_material symbol="default_ai_0.2_sh_0.2_tr_0.0_dc_r_1.0_g_0.2_b_0.2_sc_r_1.0_g_1.0_b_1.0_ec_r_0.0_g_0.0_b_0_tri" target="#default_ai_0.2_sh_0.2_tr_0.0_dc_r_1.0_g_0.2_b_0.2_sc_r_1.0_g_1.0_b_1.0_ec_r_0.0_g_0.0_b_0_mat"/>
                        </technique_common>
                    </bind_material>
                </instance_geometry>
            </node>
        </visual_scene>
    </library_visual_scenes>
    <scene>
        <instance_visual_scene url="#Building_DEBW_5221000QwCm"/>
    </scene>
</COLLADA>
