<?xml version="1.0" encoding="UTF-8" standalone="yes"?>
<COLLADA xmlns="http://www.collada.org/2005/11/COLLADASchema" version="1.4.1">
    <asset>
        <contributor>
            <authoring_tool>3D City Database Importer/Exporter, version 5.5.3; Chair of Geoinformatics, Technical University of Munich</authoring_tool>
        </contributor>
        <created>2026-05-06T15:12:13.065</created>
        <modified>2026-05-06T15:12:13.065</modified>
        <unit meter="1.0" name="meters"/>
        <up_axis>Z_UP</up_axis>
    </asset>
    <library_materials>
        <material id="default_ai_0.2_sh_0.2_tr_0.0_dc_r_1.0_g_0.2_b_0.2_sc_r_1.0_g_1.0_b_1.0_ec_r_0.0_g_0.0_b_0_mat">
            <instance_effect url="#default_ai_0.2_sh_0.2_tr_0.0_dc_r_1.0_g_0.2_b_0.2_sc_r_1.0_g_1.0_b_1.0_ec_r_0.0_g_0.0_b_0_eff"/>
        </material>
        <material id="default_ai_0.2_sh_0.2_tr_0.0_dc_r_0.8_g_0.8_b_0.8_sc_r_1.0_g_1.0_b_1.0_ec_r_0.0_g_0.0_b_0_mat">
            <instance_effect url="#default_ai_0.2_sh_0.2_tr_0.0_dc_r_0.8_g_0.8_b_0.8_sc_r_1.0_g_1.0_b_1.0_ec_r_0.0_g_0.0_b_0_eff"/>
        </material>
    </library_materials>
    <library_effects>
        <effect id="default_ai_0.2_sh_0.2_tr_0.0_dc_r_1.0_g_0.2_b_0.2_sc_r_1.0_g_1.0_b_1.0_ec_r_0.0_g_0.0_b_0_eff">
            <profile_COMMON>
                <technique sid="COMMON">
                    <lambert>
                        <emission>
                            <color>0.0 0.0 0.0 1.0</color>
                        </emission>
                        <diffuse>
                            <color>1.0 0.2 0.2 1.0</color>
                        </diffuse>
                        <reflective>
                            <color>1.0 1.0 1.0 1.0</color>
                        </reflective>
                        <reflectivity>
                            <float>0.2</float>
                        </reflectivity>
                        <transparent opaque="A_ONE">
                            <color>1.0 1.0 1.0 1.0</color>
                        </transparent>
                        <transparency>
                            <float>1.0</float>
                        </transparency>
                    </lambert>
                </technique>
                <extra>
                    <technique profile="GOOGLEEARTH">
                        <double_sided>0</double_sided>
                    </technique>
                </extra>
            </profile_COMMON>
        </effect>
        <effect id="default_ai_0.2_sh_0.2_tr_0.0_dc_r_0.8_g_0.8_b_0.8_sc_r_1.0_g_1.0_b_1.0_ec_r_0.0_g_0.0_b_0_eff">
            <profile_COMMON>
                <technique sid="COMMON">
                    <lambert>
                        <emission>
                            <color>0.0 0.0 0.0 1.0</color>
                        </emission>
                        <diffuse>
                            <color>0.8 0.8 0.8 1.0</color>
                        </diffuse>
                        <reflective>
                            <color>1.0 1.0 1.0 1.0</color>
                        </reflective>
                        <reflectivity>
                            <float>0.2</float>
                        </reflectivity>
                        <transparent opaque="A_ONE">
                            <color>1.0 1.0 1.0 1.0</color>
                        </transparent>
                        <transparency>
                            <float>1.0</float>
                        </transparency>
                    </lambert>
                </technique>
                <extra>
                    <technique profile="GOOGLEEARTH">
                        <double_sided>0</double_sided>
                    </technique>
                </extra>
            </profile_COMMON>
        </effect>
    </library_effects>
    <library_geometries>
        <geometry id="geometry0">
            <mesh>
                <source id="geometry0-position">
                    <float_array id="geometry0-position-array" count="66">-0.56 -5.67 7.21 0.86 -6.71 7.21 3.696 -2.969 7.21 0.0 0.0 7.21 0.0 0.0 0.0 3.696 -2.969 0.0 0.86 -6.71 0.0 -0.56 -5.67 0.0 -0.56 -5.67 7.182 0.86 -6.71 5.857 3.696 -2.969 5.857 0.0 0.0 7.182 -5.96 -7.41 7.182 -7.52 -2.4 7.182 -7.52 -2.4 0.0 -5.96 -7.41 0.0 8.33 -6.69 5.857 8.33 -6.69 0.0 0.39 -7.33 5.857 0.39 -7.33 0.0 4.78 -10.97 5.857 4.78 -10.97 0.0</float_array>
                    <technique_common>
                        <accessor count="22" source="#geometry0-position-array" stride="3">
                            <param name="X" type="float"/>
                            <param name="Y" type="float"/>
                            <param name="Z" type="float"/>
                        </accessor>
                    </technique_common>
                </source>
                <source id="geometry0-normal">
                    <float_array id="geometry0-normal-array" count="270">0.0 0.0 1.0 0.0 0.0 1.0 0.0 0.0 1.0 0.0 0.0 1.0 0.3066937 -0.9518083 0.0 0.3066937 -0.9518083 0.0 0.3066937 -0.9518083 0.0 0.3066937 -0.9518083 0.0 0.0 0.0 1.0 0.0 0.0 1.0 0.0 0.0 1.0 0.0 0.0 1.0 0.0 0.0 -1.0 0.0 0.0 -1.0 0.0 0.0 -1.0 0.0 0.0 -1.0 0.0 0.0 -1.0 0.0 0.0 -1.0 0.0 0.0 -1.0 0.0 0.0 -1.0 -0.3040402 0.9526592 0.0 -0.3040402 0.9526592 0.0 -0.3040402 0.9526592 0.0 -0.3040402 0.9526592 0.0 0.6261099 0.7797348 0.0 0.6261099 0.7797348 0.0 0.6261099 0.7797348 0.0 0.6261099 0.7797348 0.0 0.6262629 0.7796119 0.0 0.6262629 0.7796119 0.0 0.6262629 0.7796119 0.0 0.6262629 0.7796119 0.0 0.6262629 0.7796119 0.0 0.6262629 0.7796119 0.0 -0.5908709 -0.8067661 0.0 -0.5908709 -0.8067661 0.0 -0.5908709 -0.8067661 0.0 -0.5908709 -0.8067662 0.0 -0.5908709 -0.8067662 0.0 -0.5908709 -0.8067662 0.0 0.7968963 -0.604116 0.0 0.7968963 -0.604116 0.0 0.7968963 -0.604116 0.0 0.7968963 -0.604116 0.0 -0.7969046 0.6041052 0.0 -0.7969046 0.6041052 0.0 -0.7969046 0.6041052 0.0 -0.7969046 0.6041052 0.0 0.9951581 -0.0982872 0.0 0.9951581 -0.0982872 0.0 0.9951581 -0.0982872 0.0 0.9951581 -0.0982872 0.0 0.0 0.0 -1.0 0.0 0.0 -1.0 0.0 0.0 -1.0 0.0 0.0 -1.0 0.0 0.0 -1.0 0.7696934 -0.6384138 0.0 0.7696934 -0.6384138 0.0 0.7696934 -0.6384138 0.0 0.7696934 -0.6384138 0.0 0.7968963 -0.604116 0.0 0.7968963 -0.604116 0.0 0.7968963 -0.604116 0.0 0.7968963 -0.604116 0.0 -0.6382852 -0.7698001 0.0 -0.6382852 -0.7698001 0.0 -0.6382852 -0.7698001 0.0 -0.6382852 -0.7698001 0.0 -0.9951581 0.0982872 0.0 -0.9951581 0.0982872 0.0 -0.9951581 0.0982872 0.0 -0.9951581 0.0982872 0.0 -0.9951581 0.0982872 0.0 -0.9951581 0.0982872 0.0 -0.9951581 0.0982872 0.0 -0.9951581 0.0982872 0.0 0.0 0.0 1.0 0.0 0.0 1.0 0.0 0.0 1.0 0.0 0.0 1.0 0.0 0.0 1.0 -0.9547847 -0.2972982 0.0 -0.9547847 -0.2972982 0.0 -0.9547847 -0.2972982 0.0 -0.9547847 -0.2972982 0.0 -0.7968963 0.604116 0.0 -0.7968963 0.604116 0.0 -0.7968963 0.604116 0.0 -0.7968963 0.604116 0.0</float_array>
                    <technique_common>
                        <accessor count="90" source="#geometry0-normal-array" stride="3">
                            <param name="X" type="float"/>
                            <param name="Y" type="float"/>
                            <param name="Z" type="float"/>
                        </accessor>
                    </technique_common>
                </source>
                <vertices id="geometry0-vertex">
                    <input semantic="POSITION" source="#geometry0-position"/>
                </vertices>
                <triangles count="41" material="default_ai_0.2_sh_0.2_tr_0.0_dc_r_0.8_g_0.8_b_0.8_sc_r_1.0_g_1.0_b_1.0_ec_r_0.0_g_0.0_b_0_tri">
                    <input offset="0" semantic="VERTEX" source="#geometry0-vertex"/>
                    <input offset="1" semantic="NORMAL" source="#geometry0-normal"/>
                    <p>8 4 12 5 15 6 8 4 15 6 7 7 15 12 14 13 4 14 15 12 4 14 7 15 4 16 5 17 6 18 4 16 6 18 7 19 13 20 11 21 4 22 13 20 4 22 14 23 10 24 16 25 17 26 10 24 17 26 5 27 5 28 4 29 11 30 5 28 11 30 3 31 10 32 5 28 3 31 10 32 3 31 2 33 7 34 6 35 9 36 7 34 9 36 1 37 8 38 7 34 1 37 8 38 1 37 0 39 9 40 10 41 2 42 9 40 2 42 1 43 18 44 9 45 6 46 18 44 6 46 19 47 7 48 4 49 11 50 7 48 11 50 8 51 19 52 6 53 5 54 19 52 5 54 17 55 19 52 17 55 21 56 16 57 20 58 21 59 16 57 21 59 17 60 9 61 6 62 5 63 9 61 5 63 10 64 20 65 18 66 19 67 20 65 19 67 21 68 11 69 8 70 0 71 11 69 0 71 3 72 11 73 4 74 7 75 11 73 7 75 8 76 12 82 13 83 14 84 12 82 14 84 15 85 5 86 6 87 9 88 5 86 9 88 10 89</p>
                </triangles>
                <triangles count="7" material="default_ai_0.2_sh_0.2_tr_0.0_dc_r_1.0_g_0.2_b_0.2_sc_r_1.0_g_1.0_b_1.0_ec_r_0.0_g_0.0_b_0_tri">
                    <input offset="0" semantic="VERTEX" source="#geometry0-vertex"/>
                    <input offset="1" semantic="NORMAL" source="#geometry0-normal"/>
                    <p>0 0 1 1 2 2 0 0 2 2 3 3 8 8 11 9 13 10 8 8 13 10 12 11 16 77 10 78 9 79 16 77 9 79 18 80 16 77 18 80 20 81</p>
                </triangles>
            </mesh>
        </geometry>
    </library_geometries>
    <library_visual_scenes>
        <visual_scene id="Building_DEBW_5221000R0fh">
            <node>
                <instance_geometry url="#geometry0">
                    <bind_material>
                        <technique_common>
                            <instance_material symbol="default_ai_0.2_sh_0.2_tr_0.0_dc_r_0.8_g_0.8_b_0.8_sc_r_1.0_g_1.0_b_1.0_ec_r_0.0_g_0.0_b_0_tri" target="#default_ai_0.2_sh_0.2_tr_0.0_dc_r_0.8_g_0.8_b_0.8_sc_r_1.0_g_1.0_b_1.0_ec_r_0.0_g_0.0_b_0_mat"/>
                            <instance_material symbol="default_ai_0.2_sh_0.2_tr_0.0_dc_r_1.0_g_0.2_b_0.2_sc_r_1.0_g_1.0_b_1.0_ec_r_0.0_g_0.0_b_0_tri" target="#default_ai_0.2_sh_0.2_tr_0.0_dc_r_1.0_g_0.2_b_0.2_sc_r_1.0_g_1.0_b_1.0_ec_r_0.0_g_0.0_b_0_mat"/>
                        </technique_common>
                    </bind_material>
                </instance_geometry>
            </node>
        </visual_scene>
    </library_visual_scenes>
    <scene>
        <instance_visual_scene url="#Building_DEBW_5221000R0fh"/>
    </scene>
</COLLADA>
