<?xml version="1.0" encoding="UTF-8" standalone="yes"?>
<COLLADA xmlns="http://www.collada.org/2005/11/COLLADASchema" version="1.4.1">
    <asset>
        <contributor>
            <authoring_tool>3D City Database Importer/Exporter, version 5.5.3; Chair of Geoinformatics, Technical University of Munich</authoring_tool>
        </contributor>
        <created>2026-05-06T15:12:14.403</created>
        <modified>2026-05-06T15:12:14.403</modified>
        <unit meter="1.0" name="meters"/>
        <up_axis>Z_UP</up_axis>
    </asset>
    <library_materials>
        <material id="default_ai_0.2_sh_0.2_tr_0.0_dc_r_0.8_g_0.8_b_0.8_sc_r_1.0_g_1.0_b_1.0_ec_r_0.0_g_0.0_b_0_mat">
            <instance_effect url="#default_ai_0.2_sh_0.2_tr_0.0_dc_r_0.8_g_0.8_b_0.8_sc_r_1.0_g_1.0_b_1.0_ec_r_0.0_g_0.0_b_0_eff"/>
        </material>
        <material id="default_ai_0.2_sh_0.2_tr_0.0_dc_r_1.0_g_0.2_b_0.2_sc_r_1.0_g_1.0_b_1.0_ec_r_0.0_g_0.0_b_0_mat">
            <instance_effect url="#default_ai_0.2_sh_0.2_tr_0.0_dc_r_1.0_g_0.2_b_0.2_sc_r_1.0_g_1.0_b_1.0_ec_r_0.0_g_0.0_b_0_eff"/>
        </material>
    </library_materials>
    <library_effects>
        <effect id="default_ai_0.2_sh_0.2_tr_0.0_dc_r_0.8_g_0.8_b_0.8_sc_r_1.0_g_1.0_b_1.0_ec_r_0.0_g_0.0_b_0_eff">
            <profile_COMMON>
                <technique sid="COMMON">
                    <lambert>
                        <emission>
                            <color>0.0 0.0 0.0 1.0</color>
                        </emission>
                        <diffuse>
                            <color>0.8 0.8 0.8 1.0</color>
                        </diffuse>
                        <reflective>
                            <color>1.0 1.0 1.0 1.0</color>
                        </reflective>
                        <reflectivity>
                            <float>0.2</float>
                        </reflectivity>
                        <transparent opaque="A_ONE">
                            <color>1.0 1.0 1.0 1.0</color>
                        </transparent>
                        <transparency>
                            <float>1.0</float>
                        </transparency>
                    </lambert>
                </technique>
                <extra>
                    <technique profile="GOOGLEEARTH">
                        <double_sided>0</double_sided>
                    </technique>
                </extra>
            </profile_COMMON>
        </effect>
        <effect id="default_ai_0.2_sh_0.2_tr_0.0_dc_r_1.0_g_0.2_b_0.2_sc_r_1.0_g_1.0_b_1.0_ec_r_0.0_g_0.0_b_0_eff">
            <profile_COMMON>
                <technique sid="COMMON">
                    <lambert>
                        <emission>
                            <color>0.0 0.0 0.0 1.0</color>
                        </emission>
                        <diffuse>
                            <color>1.0 0.2 0.2 1.0</color>
                        </diffuse>
                        <reflective>
                            <color>1.0 1.0 1.0 1.0</color>
                        </reflective>
                        <reflectivity>
                            <float>0.2</float>
                        </reflectivity>
                        <transparent opaque="A_ONE">
                            <color>1.0 1.0 1.0 1.0</color>
                        </transparent>
                        <transparency>
                            <float>1.0</float>
                        </transparency>
                    </lambert>
                </technique>
                <extra>
                    <technique profile="GOOGLEEARTH">
                        <double_sided>0</double_sided>
                    </technique>
                </extra>
            </profile_COMMON>
        </effect>
    </library_effects>
    <library_geometries>
        <geometry id="geometry0">
            <mesh>
                <source id="geometry0-position">
                    <float_array id="geometry0-position-array" count="180">0.47 -1.26 8.209 0.0 0.0 7.31 0.0 0.0 0.0 0.47 -1.26 0.0 4.59 1.66 7.269 -1.7 -2.04 8.225 -2.12 -0.86 7.387 -5.65 -2.14 7.42 -5.98 -1.22 6.766 -10.44 -2.81 6.79 -9.87 -3.98 7.655 -10.28 -4.7 8.02 -9.59 -5.14 8.45 -8.43 -8.39 10.76 -8.97 -8.59 10.767 -8.408 -10.2 11.908 6.907 -4.873 11.908 -8.08 -11.14 11.239 -8.97 -8.59 0.0 -8.08 -11.14 0.0 -6.44 -14.45 8.777 -7.64 -10.99 11.237 -7.64 -10.99 0.0 -6.44 -14.45 0.0 2.01 -13.73 7.369 1.27 -13.99 7.368 1.27 -13.99 0.0 2.01 -13.73 0.0 1.02 -13.32 0.0 0.89 -12.9 0.0 -2.86 -14.24 0.0 -4.13 -13.63 0.0 -8.43 -8.39 0.0 -9.59 -5.14 0.0 -10.28 -4.7 0.0 -9.87 -3.98 0.0 -10.44 -2.81 0.0 -5.98 -1.22 0.0 -5.65 -2.14 0.0 -2.12 -0.86 0.0 -1.7 -2.04 0.0 4.59 1.66 0.0 6.98 -5.08 0.0 7.4 -4.92 0.0 8.16 -7.04 0.0 7.73 -7.19 0.0 8.78 -10.16 0.0 7.04 -10.79 0.0 6.38 -12.21 0.0 6.98 -5.08 11.761 -4.13 -13.63 8.788 -2.86 -14.24 8.12 8.78 -10.16 8.14 7.04 -10.79 8.125 8.16 -7.04 10.257 7.73 -7.19 10.256 6.38 -12.21 7.369 1.02 -13.32 7.848 0.89 -12.9 8.143 7.4 -4.92 11.77</float_array>
                    <technique_common>
                        <accessor count="60" source="#geometry0-position-array" stride="3">
                            <param name="X" type="float"/>
                            <param name="Y" type="float"/>
                            <param name="Z" type="float"/>
                        </accessor>
                    </technique_common>
                </source>
                <source id="geometry0-normal">
                    <float_array id="geometry0-normal-array" count="552">-0.3408876 0.9401041 0.0 -0.3408876 0.9401041 0.0 -0.3408876 0.9401041 0.0 -0.3408876 0.9401041 0.0 -0.3382587 0.9410532 0.0 -0.3382587 0.9410532 0.0 -0.3382587 0.9410532 0.0 -0.3382587 0.9410532 0.0 0.322675 -0.9465099 0.0 0.322675 -0.9465099 0.0 0.322675 -0.9465099 0.0 0.322675 -0.9465098 0.0 0.3345266 -0.9423863 0.0 0.3345266 -0.9423863 0.0 0.3345266 -0.9423863 0.0 0.3345266 -0.9423863 0.0 -0.4329615 -0.9014124 0.0 -0.4329616 -0.9014124 0.0 -0.4329615 -0.9014124 0.0 -0.4329615 -0.9014124 0.0 0.9424988 0.3342095 0.0 0.9424989 0.3342095 0.0 0.9424988 0.3342095 0.0 0.9424988 0.3342095 0.0 -0.9369389 -0.3494931 0.0 -0.9369389 -0.3494931 0.0 -0.9369389 -0.3494931 0.0 -0.9369389 -0.3494931 0.0 -0.9552859 -0.2956837 0.0 -0.955286 -0.2956837 0.0 -0.9552859 -0.2956837 0.0 -0.9552859 -0.2956837 0.0 -0.9447911 -0.3276732 0.0 -0.9447911 -0.3276732 0.0 -0.9447911 -0.3276732 0.0 -0.9447911 -0.3276732 0.0 0.3285205 -0.9444968 0.0 0.3285205 -0.9444968 0.0 0.3285205 -0.9444968 0.0 0.3285205 -0.9444968 0.0 -0.9441516 -0.3295112 8.81E-5 -0.9441516 -0.3295112 8.81E-5 -0.9441516 -0.3295112 8.81E-5 -0.868985 0.4948386 0.0 -0.868985 0.4948386 0.0 -0.868985 0.4948386 0.0 -0.868985 0.4948386 0.0 -0.89899 -0.4379692 0.0 -0.89899 -0.4379692 0.0 -0.89899 -0.4379692 0.0 -0.89899 -0.4379692 0.0 0.9428144 0.3333182 0.0 0.9428144 0.3333181 0.0 0.9428144 0.3333182 0.0 0.9428145 0.3333182 0.0 0.3314863 -0.94346 0.0 0.3314863 -0.94346 0.0 0.3314863 -0.94346 0.0 0.3314863 -0.94346 0.0 0.3404412 -0.9402658 0.0 0.3404412 -0.9402658 0.0 0.3404412 -0.9402658 0.0 0.3404412 -0.9402658 0.0 -0.9369026 -0.3495905 0.0 -0.9369026 -0.3495905 0.0 -0.9369026 -0.3495905 0.0 -0.9369026 -0.3495905 0.0 0.9421027 0.3353246 0.0 0.9421027 0.3353246 0.0 0.9421027 0.3353246 0.0 0.9421027 0.3353246 0.0 -0.3400975 0.9403902 0.0 -0.3400975 0.9403902 0.0 -0.3400975 0.9403902 0.0 -0.3400975 0.9403902 0.0 0.3364955 -0.9416851 0.0 0.3364955 -0.9416851 0.0 0.3364955 -0.9416851 0.0 0.3364955 -0.9416851 0.0 -0.5376662 -0.8431578 0.0 -0.5376663 -0.8431578 0.0 -0.5376662 -0.8431578 0.0 -0.5376663 -0.8431578 0.0 -0.3358012 0.9419329 0.0 -0.3358012 0.9419329 0.0 -0.3358012 0.9419329 0.0 -0.3358012 0.9419329 0.0 0.3293725 -0.9442001 0.0 0.3293725 -0.9442001 0.0 0.3293725 -0.9442001 0.0 0.3293725 -0.9442001 0.0 0.9412781 0.3376322 0.0 0.9412781 0.3376322 0.0 0.9412781 0.3376322 0.0 0.9412781 0.3376322 0.0 -0.1829122 0.5250888 0.8311588 -0.1827209 0.5253182 0.8310559 -0.1826676 0.5252951 0.8310822 -0.182819 0.5253165 0.8310354 -0.1836358 0.5249059 0.8311147 -0.1828381 0.525367 0.8309994 -0.1828368 0.5253817 0.8309903 -0.1828454 0.5253793 0.8309898 -0.1827308 0.525345 0.8310367 -0.1828099 0.5253314 0.8310279 -0.1826334 0.5253509 0.8310546 -0.1826413 0.5253214 0.8310714 -0.1826378 0.5253376 0.8310619 -0.1827663 0.5254095 0.8309882 -0.1824624 0.5250511 0.8312814 -0.9418075 -0.3361527 0.0 -0.9418075 -0.3361527 0.0 -0.9418075 -0.3361527 0.0 -0.9418074 -0.3361527 0.0 -0.355995 0.9344879 0.0 -0.355995 0.9344879 0.0 -0.355995 0.9344879 0.0 -0.355995 0.9344879 0.0 0.9413394 0.3374612 0.0 0.9413394 0.3374612 0.0 0.9413394 0.3374612 0.0 0.9413394 0.3374612 0.0 0.9068347 -0.4214864 0.0 0.9068347 -0.4214864 0.0 0.9068347 -0.4214864 0.0 0.9068347 -0.4214864 0.0 0.0 0.0 -1.0 0.0 0.0 -1.0 0.0 0.0 -1.0 0.0 0.0 -1.0 0.0 0.0 -1.0 0.0 0.0 -1.0 0.0 0.0 -1.0 0.0 0.0 -1.0 0.0 0.0 -1.0 0.0 0.0 -1.0 0.0 0.0 -1.0 0.0 0.0 -1.0 0.0 0.0 -1.0 0.0 0.0 -1.0 0.0 0.0 -1.0 0.0 0.0 -1.0 0.0 0.0 -1.0 0.0 0.0 -1.0 0.0 0.0 -1.0 0.0 0.0 -1.0 0.0 0.0 -1.0 0.0 0.0 -1.0 0.0 0.0 -1.0 0.0 0.0 -1.0 0.0 0.0 -1.0 0.0 0.0 -1.0 0.0 0.0 -1.0 0.0 0.0 -1.0 0.0 0.0 -1.0 -0.3473141 0.9377489 0.0 -0.3473141 0.9377489 0.0 -0.3473141 0.9377489 0.0 -0.3473141 0.9377488 0.0 -0.9441466 -0.3295258 0.0 -0.9441466 -0.3295258 0.0 -0.9441466 -0.3295258 0.0 -0.9441466 -0.3295258 0.0 0.9427769 0.3334217 -0.0013304 0.9427769 0.3334217 -0.0013304 0.9427769 0.3334217 -0.0013304 0.1834901 -0.5265468 0.8301083 0.1832257 -0.5274565 0.829589 0.1823053 -0.5264941 0.8304029 0.1821526 -0.5265488 0.8304015 0.1836524 -0.5269403 0.8298227 0.1835815 -0.526861 0.8298888 0.1830394 -0.5264949 0.8302408 0.1830397 -0.5264956 0.8302403 0.1832256 -0.5267182 0.8300581 0.1830566 -0.5263879 0.8303049 0.1829477 -0.5262474 0.8304179 0.1838691 -0.5295588 0.8281062 0.1841521 -0.5314743 0.826815 0.1820208 -0.5240368 0.832018 0.1820339 -0.524057 0.8320023 0.1816428 -0.5230373 0.8327292 0.1830087 -0.5261842 0.8304444 0.1828098 -0.525574 0.8308745</float_array>
                    <technique_common>
                        <accessor count="184" source="#geometry0-normal-array" stride="3">
                            <param name="X" type="float"/>
                            <param name="Y" type="float"/>
                            <param name="Z" type="float"/>
                        </accessor>
                    </technique_common>
                </source>
                <vertices id="geometry0-vertex">
                    <input semantic="POSITION" source="#geometry0-position"/>
                </vertices>
                <triangles count="87" material="default_ai_0.2_sh_0.2_tr_0.0_dc_r_0.8_g_0.8_b_0.8_sc_r_1.0_g_1.0_b_1.0_ec_r_0.0_g_0.0_b_0_tri">
                    <input offset="0" semantic="VERTEX" source="#geometry0-vertex"/>
                    <input offset="1" semantic="NORMAL" source="#geometry0-normal"/>
                    <p>7 0 6 1 39 2 7 0 39 2 38 3 5 4 0 5 3 6 5 4 3 6 40 7 21 8 17 9 19 10 21 8 19 10 22 11 50 12 20 13 23 14 50 12 23 14 31 15 51 16 50 17 31 18 51 16 31 18 30 19 4 20 49 21 42 22 4 20 42 22 41 23 0 24 1 25 2 26 0 24 2 26 3 27 57 28 58 29 29 30 57 28 29 30 28 31 20 32 21 33 22 34 20 32 22 34 23 35 56 36 24 37 27 38 56 36 27 38 48 39 14 40 17 41 15 42 11 43 10 44 35 45 11 43 35 45 34 46 10 47 9 48 36 49 10 47 36 49 35 50 55 51 52 52 46 53 55 51 46 53 45 54 24 55 25 56 26 57 24 55 26 57 27 58 52 59 53 60 47 61 52 59 47 61 46 62 25 63 57 64 28 65 25 63 28 65 26 66 6 67 5 68 40 69 6 67 40 69 39 70 1 71 4 72 41 73 1 71 41 73 2 74 58 75 51 76 30 77 58 75 30 77 29 78 12 79 11 80 34 81 12 79 34 81 33 82 9 83 8 84 37 85 9 83 37 85 36 86 54 87 55 88 45 89 54 87 45 89 44 90 8 91 7 92 38 93 8 91 38 93 37 94 13 110 12 111 33 112 13 110 33 112 32 113 49 114 59 115 43 116 49 114 43 116 42 117 59 118 54 119 44 120 59 118 44 120 43 121 53 122 56 123 48 124 53 122 48 124 47 125 26 126 28 127 27 128 27 128 28 127 48 129 48 129 28 127 47 130 28 127 29 131 47 130 47 130 29 131 46 132 46 132 29 131 45 133 29 131 30 134 45 133 30 134 31 135 45 133 31 135 23 136 45 133 23 136 22 137 45 133 45 133 22 137 44 138 44 138 22 137 43 139 43 139 22 137 42 140 42 140 22 137 41 141 22 137 19 142 41 141 18 143 32 144 19 142 19 142 32 144 41 141 34 145 35 146 33 147 33 147 35 146 32 144 36 148 37 149 35 146 35 146 37 149 32 144 37 149 38 150 32 144 38 150 39 151 32 144 39 151 40 152 32 144 40 152 3 153 32 144 32 144 3 153 41 141 41 141 3 153 2 154 14 155 13 156 32 157 14 155 32 157 18 158 17 159 14 160 18 161 17 159 18 161 19 162 49 163 4 164 16 165</p>
                </triangles>
                <triangles count="29" material="default_ai_0.2_sh_0.2_tr_0.0_dc_r_1.0_g_0.2_b_0.2_sc_r_1.0_g_1.0_b_1.0_ec_r_0.0_g_0.0_b_0_tri">
                    <input offset="0" semantic="VERTEX" source="#geometry0-vertex"/>
                    <input offset="1" semantic="NORMAL" source="#geometry0-normal"/>
                    <p>15 95 16 96 4 97 13 98 14 99 15 95 13 98 15 95 4 97 10 100 11 101 12 102 10 100 12 102 13 98 8 103 9 104 10 100 8 103 10 100 13 98 7 105 8 103 13 98 6 106 7 105 13 98 5 107 6 106 13 98 0 108 5 107 13 98 0 108 13 98 4 97 0 108 4 97 1 109 52 166 55 167 53 168 53 168 55 167 56 169 56 169 55 167 24 170 24 170 55 167 25 171 25 171 55 167 57 172 57 172 55 167 58 173 58 173 55 167 51 174 51 174 55 167 50 175 50 175 55 167 20 176 20 176 55 167 21 177 55 167 54 178 21 177 54 178 59 179 21 177 21 177 59 179 17 180 59 179 49 181 17 180 17 180 49 181 15 182 15 182 49 181 16 183</p>
                </triangles>
            </mesh>
        </geometry>
    </library_geometries>
    <library_visual_scenes>
        <visual_scene id="Building_DEBW_5221000Qazy">
            <node>
                <instance_geometry url="#geometry0">
                    <bind_material>
                        <technique_common>
                            <instance_material symbol="default_ai_0.2_sh_0.2_tr_0.0_dc_r_0.8_g_0.8_b_0.8_sc_r_1.0_g_1.0_b_1.0_ec_r_0.0_g_0.0_b_0_tri" target="#default_ai_0.2_sh_0.2_tr_0.0_dc_r_0.8_g_0.8_b_0.8_sc_r_1.0_g_1.0_b_1.0_ec_r_0.0_g_0.0_b_0_mat"/>
                            <instance_material symbol="default_ai_0.2_sh_0.2_tr_0.0_dc_r_1.0_g_0.2_b_0.2_sc_r_1.0_g_1.0_b_1.0_ec_r_0.0_g_0.0_b_0_tri" target="#default_ai_0.2_sh_0.2_tr_0.0_dc_r_1.0_g_0.2_b_0.2_sc_r_1.0_g_1.0_b_1.0_ec_r_0.0_g_0.0_b_0_mat"/>
                        </technique_common>
                    </bind_material>
                </instance_geometry>
            </node>
        </visual_scene>
    </library_visual_scenes>
    <scene>
        <instance_visual_scene url="#Building_DEBW_5221000Qazy"/>
    </scene>
</COLLADA>
