<?xml version="1.0" encoding="UTF-8" standalone="yes"?>
<COLLADA xmlns="http://www.collada.org/2005/11/COLLADASchema" version="1.4.1">
    <asset>
        <contributor>
            <authoring_tool>3D City Database Importer/Exporter, version 5.5.3; Chair of Geoinformatics, Technical University of Munich</authoring_tool>
        </contributor>
        <created>2026-05-06T15:12:15.539</created>
        <modified>2026-05-06T15:12:15.539</modified>
        <unit meter="1.0" name="meters"/>
        <up_axis>Z_UP</up_axis>
    </asset>
    <library_materials>
        <material id="default_ai_0.2_sh_0.2_tr_0.0_dc_r_0.8_g_0.8_b_0.8_sc_r_1.0_g_1.0_b_1.0_ec_r_0.0_g_0.0_b_0_mat">
            <instance_effect url="#default_ai_0.2_sh_0.2_tr_0.0_dc_r_0.8_g_0.8_b_0.8_sc_r_1.0_g_1.0_b_1.0_ec_r_0.0_g_0.0_b_0_eff"/>
        </material>
        <material id="default_ai_0.2_sh_0.2_tr_0.0_dc_r_1.0_g_0.2_b_0.2_sc_r_1.0_g_1.0_b_1.0_ec_r_0.0_g_0.0_b_0_mat">
            <instance_effect url="#default_ai_0.2_sh_0.2_tr_0.0_dc_r_1.0_g_0.2_b_0.2_sc_r_1.0_g_1.0_b_1.0_ec_r_0.0_g_0.0_b_0_eff"/>
        </material>
    </library_materials>
    <library_effects>
        <effect id="default_ai_0.2_sh_0.2_tr_0.0_dc_r_0.8_g_0.8_b_0.8_sc_r_1.0_g_1.0_b_1.0_ec_r_0.0_g_0.0_b_0_eff">
            <profile_COMMON>
                <technique sid="COMMON">
                    <lambert>
                        <emission>
                            <color>0.0 0.0 0.0 1.0</color>
                        </emission>
                        <diffuse>
                            <color>0.8 0.8 0.8 1.0</color>
                        </diffuse>
                        <reflective>
                            <color>1.0 1.0 1.0 1.0</color>
                        </reflective>
                        <reflectivity>
                            <float>0.2</float>
                        </reflectivity>
                        <transparent opaque="A_ONE">
                            <color>1.0 1.0 1.0 1.0</color>
                        </transparent>
                        <transparency>
                            <float>1.0</float>
                        </transparency>
                    </lambert>
                </technique>
                <extra>
                    <technique profile="GOOGLEEARTH">
                        <double_sided>0</double_sided>
                    </technique>
                </extra>
            </profile_COMMON>
        </effect>
        <effect id="default_ai_0.2_sh_0.2_tr_0.0_dc_r_1.0_g_0.2_b_0.2_sc_r_1.0_g_1.0_b_1.0_ec_r_0.0_g_0.0_b_0_eff">
            <profile_COMMON>
                <technique sid="COMMON">
                    <lambert>
                        <emission>
                            <color>0.0 0.0 0.0 1.0</color>
                        </emission>
                        <diffuse>
                            <color>1.0 0.2 0.2 1.0</color>
                        </diffuse>
                        <reflective>
                            <color>1.0 1.0 1.0 1.0</color>
                        </reflective>
                        <reflectivity>
                            <float>0.2</float>
                        </reflectivity>
                        <transparent opaque="A_ONE">
                            <color>1.0 1.0 1.0 1.0</color>
                        </transparent>
                        <transparency>
                            <float>1.0</float>
                        </transparency>
                    </lambert>
                </technique>
                <extra>
                    <technique profile="GOOGLEEARTH">
                        <double_sided>0</double_sided>
                    </technique>
                </extra>
            </profile_COMMON>
        </effect>
    </library_effects>
    <library_geometries>
        <geometry id="geometry0">
            <mesh>
                <source id="geometry0-position">
                    <float_array id="geometry0-position-array" count="66">1.64 3.19 6.937 0.0 0.0 6.937 0.0 0.0 0.0 1.64 3.19 0.0 -2.67 1.3 0.0 -1.17 4.38 0.0 1.38 9.67 0.0 1.51 9.61 0.0 2.17 10.94 0.0 4.72 9.68 0.0 4.06 8.34 0.0 9.58 5.6 0.0 7.15 0.62 0.0 1.38 9.67 6.937 1.51 9.61 6.937 7.15 0.62 6.937 9.58 5.6 6.937 4.06 8.34 6.937 4.72 9.68 6.937 2.17 10.94 6.937 -1.17 4.38 6.937 -2.67 1.3 6.937</float_array>
                    <technique_common>
                        <accessor count="22" source="#geometry0-position-array" stride="3">
                            <param name="X" type="float"/>
                            <param name="Y" type="float"/>
                            <param name="Z" type="float"/>
                        </accessor>
                    </technique_common>
                </source>
                <source id="geometry0-normal">
                    <float_array id="geometry0-normal-array" count="198">-0.8990489 0.4378485 0.0 -0.8990489 0.4378485 0.0 -0.8990489 0.4378485 0.0 -0.8990489 0.4378485 0.0 -0.4227054 -0.9062672 0.0 -0.4227054 -0.9062672 0.0 -0.4227054 -0.9062672 0.0 -0.4227054 -0.9062672 0.0 0.8970891 -0.4418497 0.0 0.8970891 -0.4418497 0.0 0.8970891 -0.4418497 0.0 0.8970891 -0.4418497 0.0 0.0 0.0 -1.0 0.0 0.0 -1.0 0.0 0.0 -1.0 0.0 0.0 -1.0 0.0 0.0 -1.0 0.0 0.0 -1.0 0.0 0.0 -1.0 0.0 0.0 -1.0 0.0 0.0 -1.0 0.0 0.0 -1.0 0.0 0.0 -1.0 -0.9008043 0.4342251 0.0 -0.9008043 0.4342251 0.0 -0.9008043 0.4342251 0.0 -0.9008043 0.4342251 0.0 0.4190606 0.9079583 0.0 0.4190606 0.9079583 0.0 0.4190606 0.9079583 0.0 0.4190606 0.9079583 0.0 -0.4377601 -0.8990918 0.0 -0.4377601 -0.8990918 0.0 -0.4377601 -0.8990918 0.0 -0.4377601 -0.8990918 0.0 -0.8957701 0.4445176 0.0 -0.8957701 0.4445176 0.0 -0.8957701 0.4445176 0.0 -0.8957701 0.4445176 0.0 0.8987164 -0.4385302 0.0 0.8987164 -0.4385302 0.0 0.8987164 -0.4385302 0.0 0.8987164 -0.4385302 0.0 0.0 0.0 1.0 0.0 0.0 1.0 0.0 0.0 1.0 0.0 0.0 1.0 0.0 0.0 1.0 0.0 0.0 1.0 0.0 0.0 1.0 0.0 0.0 1.0 0.0 0.0 1.0 0.0 0.0 1.0 0.0 0.0 1.0 0.8893526 -0.457222 0.0 0.8893526 -0.457222 0.0 0.8893526 -0.457222 0.0 0.8893526 -0.457222 0.0 0.4429895 0.8965268 0.0 0.4429895 0.8965268 0.0 0.4429895 0.8965268 0.0 0.4429895 0.8965268 0.0 0.4446155 0.8957216 0.0 0.4446155 0.8957216 0.0 0.4446155 0.8957216 0.0 0.4446155 0.8957216 0.0</float_array>
                    <technique_common>
                        <accessor count="66" source="#geometry0-normal-array" stride="3">
                            <param name="X" type="float"/>
                            <param name="Y" type="float"/>
                            <param name="Z" type="float"/>
                        </accessor>
                    </technique_common>
                </source>
                <vertices id="geometry0-vertex">
                    <input semantic="POSITION" source="#geometry0-position"/>
                </vertices>
                <triangles count="31" material="default_ai_0.2_sh_0.2_tr_0.0_dc_r_0.8_g_0.8_b_0.8_sc_r_1.0_g_1.0_b_1.0_ec_r_0.0_g_0.0_b_0_tri">
                    <input offset="0" semantic="VERTEX" source="#geometry0-vertex"/>
                    <input offset="1" semantic="NORMAL" source="#geometry0-normal"/>
                    <p>21 0 20 1 5 2 21 0 5 2 4 3 15 4 0 5 3 6 15 4 3 6 12 7 18 8 17 9 10 10 18 8 10 10 9 11 11 12 12 13 3 14 10 15 11 12 3 14 10 15 3 14 2 16 10 15 2 16 4 17 10 15 4 17 5 18 10 15 5 18 6 19 10 15 6 19 7 20 10 15 7 20 8 21 10 15 8 21 9 22 20 23 13 24 6 25 20 23 6 25 5 26 13 27 14 28 7 29 13 27 7 29 6 30 1 31 21 32 4 33 1 31 4 33 2 34 14 35 19 36 8 37 14 35 8 37 7 38 16 39 15 40 12 41 16 39 12 41 11 42 0 54 1 55 2 56 0 54 2 56 3 57 19 58 18 59 9 60 19 58 9 60 8 61 17 62 16 63 11 64 17 62 11 64 10 65</p>
                </triangles>
                <triangles count="9" material="default_ai_0.2_sh_0.2_tr_0.0_dc_r_1.0_g_0.2_b_0.2_sc_r_1.0_g_1.0_b_1.0_ec_r_0.0_g_0.0_b_0_tri">
                    <input offset="0" semantic="VERTEX" source="#geometry0-vertex"/>
                    <input offset="1" semantic="NORMAL" source="#geometry0-normal"/>
                    <p>15 43 16 44 0 45 16 44 17 46 0 45 0 45 17 46 1 47 1 47 17 46 21 48 21 48 17 46 20 49 20 49 17 46 13 50 13 50 17 46 14 51 14 51 17 46 19 52 19 52 17 46 18 53</p>
                </triangles>
            </mesh>
        </geometry>
    </library_geometries>
    <library_visual_scenes>
        <visual_scene id="Building_DEBW_5221000QYZh">
            <node>
                <instance_geometry url="#geometry0">
                    <bind_material>
                        <technique_common>
                            <instance_material symbol="default_ai_0.2_sh_0.2_tr_0.0_dc_r_0.8_g_0.8_b_0.8_sc_r_1.0_g_1.0_b_1.0_ec_r_0.0_g_0.0_b_0_tri" target="#default_ai_0.2_sh_0.2_tr_0.0_dc_r_0.8_g_0.8_b_0.8_sc_r_1.0_g_1.0_b_1.0_ec_r_0.0_g_0.0_b_0_mat"/>
                            <instance_material symbol="default_ai_0.2_sh_0.2_tr_0.0_dc_r_1.0_g_0.2_b_0.2_sc_r_1.0_g_1.0_b_1.0_ec_r_0.0_g_0.0_b_0_tri" target="#default_ai_0.2_sh_0.2_tr_0.0_dc_r_1.0_g_0.2_b_0.2_sc_r_1.0_g_1.0_b_1.0_ec_r_0.0_g_0.0_b_0_mat"/>
                        </technique_common>
                    </bind_material>
                </instance_geometry>
            </node>
        </visual_scene>
    </library_visual_scenes>
    <scene>
        <instance_visual_scene url="#Building_DEBW_5221000QYZh"/>
    </scene>
</COLLADA>
