<?xml version="1.0" encoding="UTF-8" standalone="yes"?>
<COLLADA xmlns="http://www.collada.org/2005/11/COLLADASchema" version="1.4.1">
    <asset>
        <contributor>
            <authoring_tool>3D City Database Importer/Exporter, version 5.5.3; Chair of Geoinformatics, Technical University of Munich</authoring_tool>
        </contributor>
        <created>2026-05-06T15:12:10.435</created>
        <modified>2026-05-06T15:12:10.435</modified>
        <unit meter="1.0" name="meters"/>
        <up_axis>Z_UP</up_axis>
    </asset>
    <library_materials>
        <material id="default_ai_0.2_sh_0.2_tr_0.0_dc_r_1.0_g_0.2_b_0.2_sc_r_1.0_g_1.0_b_1.0_ec_r_0.0_g_0.0_b_0_mat">
            <instance_effect url="#default_ai_0.2_sh_0.2_tr_0.0_dc_r_1.0_g_0.2_b_0.2_sc_r_1.0_g_1.0_b_1.0_ec_r_0.0_g_0.0_b_0_eff"/>
        </material>
        <material id="default_ai_0.2_sh_0.2_tr_0.0_dc_r_0.8_g_0.8_b_0.8_sc_r_1.0_g_1.0_b_1.0_ec_r_0.0_g_0.0_b_0_mat">
            <instance_effect url="#default_ai_0.2_sh_0.2_tr_0.0_dc_r_0.8_g_0.8_b_0.8_sc_r_1.0_g_1.0_b_1.0_ec_r_0.0_g_0.0_b_0_eff"/>
        </material>
    </library_materials>
    <library_effects>
        <effect id="default_ai_0.2_sh_0.2_tr_0.0_dc_r_1.0_g_0.2_b_0.2_sc_r_1.0_g_1.0_b_1.0_ec_r_0.0_g_0.0_b_0_eff">
            <profile_COMMON>
                <technique sid="COMMON">
                    <lambert>
                        <emission>
                            <color>0.0 0.0 0.0 1.0</color>
                        </emission>
                        <diffuse>
                            <color>1.0 0.2 0.2 1.0</color>
                        </diffuse>
                        <reflective>
                            <color>1.0 1.0 1.0 1.0</color>
                        </reflective>
                        <reflectivity>
                            <float>0.2</float>
                        </reflectivity>
                        <transparent opaque="A_ONE">
                            <color>1.0 1.0 1.0 1.0</color>
                        </transparent>
                        <transparency>
                            <float>1.0</float>
                        </transparency>
                    </lambert>
                </technique>
                <extra>
                    <technique profile="GOOGLEEARTH">
                        <double_sided>0</double_sided>
                    </technique>
                </extra>
            </profile_COMMON>
        </effect>
        <effect id="default_ai_0.2_sh_0.2_tr_0.0_dc_r_0.8_g_0.8_b_0.8_sc_r_1.0_g_1.0_b_1.0_ec_r_0.0_g_0.0_b_0_eff">
            <profile_COMMON>
                <technique sid="COMMON">
                    <lambert>
                        <emission>
                            <color>0.0 0.0 0.0 1.0</color>
                        </emission>
                        <diffuse>
                            <color>0.8 0.8 0.8 1.0</color>
                        </diffuse>
                        <reflective>
                            <color>1.0 1.0 1.0 1.0</color>
                        </reflective>
                        <reflectivity>
                            <float>0.2</float>
                        </reflectivity>
                        <transparent opaque="A_ONE">
                            <color>1.0 1.0 1.0 1.0</color>
                        </transparent>
                        <transparency>
                            <float>1.0</float>
                        </transparency>
                    </lambert>
                </technique>
                <extra>
                    <technique profile="GOOGLEEARTH">
                        <double_sided>0</double_sided>
                    </technique>
                </extra>
            </profile_COMMON>
        </effect>
    </library_effects>
    <library_geometries>
        <geometry id="geometry0">
            <mesh>
                <source id="geometry0-position">
                    <float_array id="geometry0-position-array" count="66">8.344 3.511 7.624 5.07 11.34 7.236 3.597 5.9 11.743 0.0 0.0 7.204 0.0 0.0 7.592 -3.29 7.89 7.204 5.07 11.34 7.204 0.847 4.754 11.743 8.344 3.511 7.204 4.23 1.78 7.608 4.23 1.78 7.204 0.0 0.0 0.0 4.23 1.78 0.0 4.23 1.78 4.829 8.344 3.511 4.829 8.344 3.511 0.0 5.07 11.34 0.0 -3.29 7.89 0.0 9.13 1.63 4.829 4.97 -0.13 4.829 4.97 -0.13 0.0 9.13 1.63 0.0</float_array>
                    <technique_common>
                        <accessor count="22" source="#geometry0-position-array" stride="3">
                            <param name="X" type="float"/>
                            <param name="Y" type="float"/>
                            <param name="Z" type="float"/>
                        </accessor>
                    </technique_common>
                </source>
                <source id="geometry0-normal">
                    <float_array id="geometry0-normal-array" count="264">0.2749165 -0.6597173 0.6994241 0.2749158 -0.6597021 0.6994387 0.2749397 -0.6597069 0.6994248 0.2749169 -0.6597249 0.6994168 0.2748701 -0.659738 0.6994228 -0.2735953 0.6564932 0.7029668 -0.2736137 0.6564974 0.7029556 -0.2735953 0.6564932 0.7029668 -0.2735768 0.656489 0.7029779 -0.3814727 0.9243802 0.0 -0.3814727 0.9243802 0.0 -0.3814727 0.9243802 0.0 -0.3814727 0.9243802 0.0 -0.7994159 -0.3079766 0.5158338 -0.7994159 -0.3079766 0.5158338 -0.7994159 -0.3079766 0.5158338 -0.922973 -0.3848646 0.0 -0.922973 -0.3848646 0.0 -0.922973 -0.3848646 0.0 -0.922973 -0.3848646 0.0 0.3878266 -0.9217324 0.0 0.3878266 -0.9217324 0.0 0.3878266 -0.9217324 0.0 0.3878267 -0.9217324 0.0 0.3878267 -0.9217324 0.0 0.3878267 -0.9217324 0.0 0.3878267 -0.9217324 0.0 0.3878267 -0.9217324 0.0 -0.932462 -0.3612679 0.0 -0.932462 -0.3612679 0.0 -0.932462 -0.3612679 0.0 -0.932462 -0.3612679 0.0 0.3878266 -0.9217324 0.0 0.3878266 -0.9217324 0.0 0.3878266 -0.9217324 0.0 0.3878266 -0.9217324 0.0 0.3896399 -0.9209673 0.0 0.3896399 -0.9209673 0.0 0.3896399 -0.9209673 0.0 0.3896399 -0.9209673 0.0 0.9226846 0.3855557 0.0 0.9226846 0.3855557 0.0 0.9226846 0.3855557 0.0 0.9226846 0.3855557 0.0 0.3878621 -0.9217173 0.0 0.3878621 -0.9217173 0.0 0.3878621 -0.9217173 0.0 0.3878621 -0.9217173 0.0 0.3878622 -0.9217174 0.0 0.3878621 -0.9217173 0.0 0.3878621 -0.9217174 0.0 0.3878621 -0.9217174 0.0 0.3878621 -0.9217173 0.0 0.0 0.0 -1.0 0.0 0.0 -1.0 0.0 0.0 -1.0 0.0 0.0 -1.0 0.0 0.0 -1.0 0.0 0.0 1.0 0.0 0.0 1.0 0.0 0.0 1.0 0.0 0.0 1.0 0.7078516 0.3270441 0.6260896 0.7078516 0.3270441 0.6260896 0.7078516 0.3270441 0.6260896 0.9225776 0.3858116 0.0 0.9225776 0.3858116 0.0 0.9225776 0.3858116 0.0 0.9225776 0.3858116 0.0 0.9225776 0.3858115 0.0 0.9225776 0.3858115 0.0 0.9225776 0.3858115 0.0 0.9225776 0.3858115 0.0 0.9225776 0.3858115 0.0 -0.922973 -0.3848645 0.0 -0.922973 -0.3848645 0.0 -0.922973 -0.3848645 0.0 -0.3814727 0.9243801 0.0 -0.3814727 0.9243801 0.0 -0.3814727 0.9243801 0.0 -0.3878267 0.9217324 0.0 -0.3878267 0.9217324 0.0 -0.3878267 0.9217324 0.0 -0.3878267 0.9217324 0.0 0.0 0.0 -1.0 0.0 0.0 -1.0 0.0 0.0 -1.0 0.0 0.0 -1.0</float_array>
                    <technique_common>
                        <accessor count="88" source="#geometry0-normal-array" stride="3">
                            <param name="X" type="float"/>
                            <param name="Y" type="float"/>
                            <param name="Z" type="float"/>
                        </accessor>
                    </technique_common>
                </source>
                <vertices id="geometry0-vertex">
                    <input semantic="POSITION" source="#geometry0-position"/>
                </vertices>
                <triangles count="35" material="default_ai_0.2_sh_0.2_tr_0.0_dc_r_0.8_g_0.8_b_0.8_sc_r_1.0_g_1.0_b_1.0_ec_r_0.0_g_0.0_b_0_tri">
                    <input offset="0" semantic="VERTEX" source="#geometry0-vertex"/>
                    <input offset="1" semantic="NORMAL" source="#geometry0-normal"/>
                    <p>5 9 6 10 16 11 5 9 16 11 17 12 3 16 5 17 17 18 3 16 17 18 11 19 8 20 0 21 9 22 8 20 9 22 10 23 13 24 12 25 15 26 13 24 15 26 14 27 19 28 13 29 12 30 19 28 12 30 20 31 13 32 14 33 8 34 13 32 8 34 10 35 18 36 19 37 20 38 18 36 20 38 21 39 14 40 18 41 21 42 14 40 21 42 15 43 10 44 9 45 4 46 10 44 4 46 3 47 11 48 12 49 13 50 11 48 13 50 10 51 11 48 10 51 3 52 11 53 17 54 16 55 12 56 11 53 16 55 12 56 16 55 15 57 6 65 1 66 0 67 6 65 0 67 8 68 15 69 16 70 6 71 14 72 15 69 6 71 14 72 6 71 8 73 3 74 4 75 5 76 5 77 1 78 6 79 15 80 12 81 13 82 15 80 13 82 14 83 15 84 21 85 20 86 15 84 20 86 12 87</p>
                </triangles>
                <triangles count="9" material="default_ai_0.2_sh_0.2_tr_0.0_dc_r_1.0_g_0.2_b_0.2_sc_r_1.0_g_1.0_b_1.0_ec_r_0.0_g_0.0_b_0_tri">
                    <input offset="0" semantic="VERTEX" source="#geometry0-vertex"/>
                    <input offset="1" semantic="NORMAL" source="#geometry0-normal"/>
                    <p>2 0 7 1 4 2 2 0 4 2 9 3 2 0 9 3 0 4 1 5 5 6 7 7 1 5 7 7 2 8 5 13 4 14 7 15 13 58 19 59 18 60 13 58 18 60 14 61 0 62 1 63 2 64</p>
                </triangles>
            </mesh>
        </geometry>
    </library_geometries>
    <library_visual_scenes>
        <visual_scene id="Building_DEBW_5221000Qnfx">
            <node>
                <instance_geometry url="#geometry0">
                    <bind_material>
                        <technique_common>
                            <instance_material symbol="default_ai_0.2_sh_0.2_tr_0.0_dc_r_0.8_g_0.8_b_0.8_sc_r_1.0_g_1.0_b_1.0_ec_r_0.0_g_0.0_b_0_tri" target="#default_ai_0.2_sh_0.2_tr_0.0_dc_r_0.8_g_0.8_b_0.8_sc_r_1.0_g_1.0_b_1.0_ec_r_0.0_g_0.0_b_0_mat"/>
                            <instance_material symbol="default_ai_0.2_sh_0.2_tr_0.0_dc_r_1.0_g_0.2_b_0.2_sc_r_1.0_g_1.0_b_1.0_ec_r_0.0_g_0.0_b_0_tri" target="#default_ai_0.2_sh_0.2_tr_0.0_dc_r_1.0_g_0.2_b_0.2_sc_r_1.0_g_1.0_b_1.0_ec_r_0.0_g_0.0_b_0_mat"/>
                        </technique_common>
                    </bind_material>
                </instance_geometry>
            </node>
        </visual_scene>
    </library_visual_scenes>
    <scene>
        <instance_visual_scene url="#Building_DEBW_5221000Qnfx"/>
    </scene>
</COLLADA>
