<?xml version="1.0" encoding="UTF-8" standalone="yes"?>
<COLLADA xmlns="http://www.collada.org/2005/11/COLLADASchema" version="1.4.1">
    <asset>
        <contributor>
            <authoring_tool>3D City Database Importer/Exporter, version 5.5.3; Chair of Geoinformatics, Technical University of Munich</authoring_tool>
        </contributor>
        <created>2026-05-06T15:12:11.889</created>
        <modified>2026-05-06T15:12:11.889</modified>
        <unit meter="1.0" name="meters"/>
        <up_axis>Z_UP</up_axis>
    </asset>
    <library_materials>
        <material id="default_ai_0.2_sh_0.2_tr_0.0_dc_r_0.8_g_0.8_b_0.8_sc_r_1.0_g_1.0_b_1.0_ec_r_0.0_g_0.0_b_0_mat">
            <instance_effect url="#default_ai_0.2_sh_0.2_tr_0.0_dc_r_0.8_g_0.8_b_0.8_sc_r_1.0_g_1.0_b_1.0_ec_r_0.0_g_0.0_b_0_eff"/>
        </material>
        <material id="default_ai_0.2_sh_0.2_tr_0.0_dc_r_1.0_g_0.2_b_0.2_sc_r_1.0_g_1.0_b_1.0_ec_r_0.0_g_0.0_b_0_mat">
            <instance_effect url="#default_ai_0.2_sh_0.2_tr_0.0_dc_r_1.0_g_0.2_b_0.2_sc_r_1.0_g_1.0_b_1.0_ec_r_0.0_g_0.0_b_0_eff"/>
        </material>
    </library_materials>
    <library_effects>
        <effect id="default_ai_0.2_sh_0.2_tr_0.0_dc_r_0.8_g_0.8_b_0.8_sc_r_1.0_g_1.0_b_1.0_ec_r_0.0_g_0.0_b_0_eff">
            <profile_COMMON>
                <technique sid="COMMON">
                    <lambert>
                        <emission>
                            <color>0.0 0.0 0.0 1.0</color>
                        </emission>
                        <diffuse>
                            <color>0.8 0.8 0.8 1.0</color>
                        </diffuse>
                        <reflective>
                            <color>1.0 1.0 1.0 1.0</color>
                        </reflective>
                        <reflectivity>
                            <float>0.2</float>
                        </reflectivity>
                        <transparent opaque="A_ONE">
                            <color>1.0 1.0 1.0 1.0</color>
                        </transparent>
                        <transparency>
                            <float>1.0</float>
                        </transparency>
                    </lambert>
                </technique>
                <extra>
                    <technique profile="GOOGLEEARTH">
                        <double_sided>0</double_sided>
                    </technique>
                </extra>
            </profile_COMMON>
        </effect>
        <effect id="default_ai_0.2_sh_0.2_tr_0.0_dc_r_1.0_g_0.2_b_0.2_sc_r_1.0_g_1.0_b_1.0_ec_r_0.0_g_0.0_b_0_eff">
            <profile_COMMON>
                <technique sid="COMMON">
                    <lambert>
                        <emission>
                            <color>0.0 0.0 0.0 1.0</color>
                        </emission>
                        <diffuse>
                            <color>1.0 0.2 0.2 1.0</color>
                        </diffuse>
                        <reflective>
                            <color>1.0 1.0 1.0 1.0</color>
                        </reflective>
                        <reflectivity>
                            <float>0.2</float>
                        </reflectivity>
                        <transparent opaque="A_ONE">
                            <color>1.0 1.0 1.0 1.0</color>
                        </transparent>
                        <transparency>
                            <float>1.0</float>
                        </transparency>
                    </lambert>
                </technique>
                <extra>
                    <technique profile="GOOGLEEARTH">
                        <double_sided>0</double_sided>
                    </technique>
                </extra>
            </profile_COMMON>
        </effect>
    </library_effects>
    <library_geometries>
        <geometry id="geometry0">
            <mesh>
                <source id="geometry0-position">
                    <float_array id="geometry0-position-array" count="84">0.19 0.12 5.577 0.0 0.0 5.649 0.0 0.0 0.0 0.19 0.12 0.0 -10.24 8.52 5.701 -6.75 10.8 5.574 -6.75 10.8 0.0 -10.24 8.52 0.0 -11.2 1.51 4.239 -12.15 0.89 3.88 -12.15 0.89 0.0 -11.2 1.51 0.0 -2.37 -3.06 5.789 -6.5 -5.73 4.236 -6.5 -5.73 0.0 -2.37 -3.06 0.0 -13.98 3.75 3.889 -13.98 3.75 0.0 -0.22 0.74 5.579 -0.22 0.74 0.0 -9.17 6.86 5.698 -3.47 -1.37 5.789 -2.113 -0.491 6.3 -8.653 9.557 6.3 -9.17 6.86 0.0 -0.4 0.62 5.648 -3.47 -1.37 0.0 -0.4 0.62 0.0</float_array>
                    <technique_common>
                        <accessor count="28" source="#geometry0-position-array" stride="3">
                            <param name="X" type="float"/>
                            <param name="Y" type="float"/>
                            <param name="Z" type="float"/>
                        </accessor>
                    </technique_common>
                </source>
                <source id="geometry0-normal">
                    <float_array id="geometry0-normal-array" count="264">0.542914 -0.8397883 0.0 0.542914 -0.8397883 0.0 0.542914 -0.8397883 0.0 0.542914 -0.8397884 0.0 0.0 0.0 -1.0 0.0 0.0 -1.0 0.0 0.0 -1.0 0.0 0.0 -1.0 0.0 0.0 -1.0 0.0 0.0 -1.0 0.0 0.0 -1.0 0.0 0.0 -1.0 0.0 0.0 -1.0 0.0 0.0 -1.0 0.0 0.0 -1.0 0.0 0.0 -1.0 0.0 0.0 -1.0 0.8341143 0.5515917 0.0 0.8341143 0.5515917 0.0 0.8341143 0.5515917 0.0 0.8341143 0.5515917 0.0 0.5439311 -0.8391299 0.0 0.5439311 -0.8391299 0.0 0.5439311 -0.8391299 0.0 0.5439311 -0.8391299 0.0 0.8381035 0.5455112 0.0 0.8381035 0.5455112 0.0 0.8381035 0.5455112 0.0 0.8381035 0.5455112 0.0 -0.8402966 -0.5421269 0.0 -0.8402966 -0.5421268 0.0 -0.8402966 -0.5421269 0.0 -0.8402966 -0.5421269 0.0 -0.5469332 0.8371761 -2.81E-4 -0.5469332 0.8371761 -2.81E-4 -0.5469332 0.8371761 -2.81E-4 -0.5469261 0.8371809 0.0 -0.5469261 0.8371809 0.0 -0.5469261 0.8371809 0.0 -0.5469261 0.8371809 0.0 0.254976 0.1659643 0.952598 0.2549545 0.1659437 0.9526074 0.254037 0.1653835 0.9529499 0.253988 0.165359 0.9529672 0.2542974 0.1654206 0.952874 0.2553666 0.1660199 0.9524838 0.2559256 0.1661693 0.9523076 0.5439016 -0.8391485 -9.059E-4 0.5439016 -0.8391485 -9.059E-4 0.5439016 -0.8391485 -9.059E-4 -0.8423249 -0.5389701 0.0 -0.8423249 -0.5389701 0.0 -0.8423249 -0.5389701 0.0 -0.8423249 -0.5389701 0.0 -0.5429618 0.8397575 0.0 -0.5429618 0.8397575 0.0 -0.5429618 0.8397575 0.0 -0.5429618 0.8397575 0.0 -0.8405199 -0.5417807 0.0 -0.8405199 -0.5417807 0.0 -0.8405199 -0.5417807 0.0 -0.8405199 -0.5417806 0.0 -0.8387611 -0.5444996 0.0 -0.8387611 -0.5444996 0.0 -0.8387611 -0.5444996 0.0 -0.8387611 -0.5444996 0.0 -0.2523072 -0.164442 0.9535722 -0.2528198 -0.1641596 0.9534851 -0.2532197 -0.1646693 0.9532911 -0.2528817 -0.1640716 0.9534838 -0.2524076 -0.1642619 0.9535766 -0.2534175 -0.164977 0.9531853 -0.2534573 -0.1650117 0.9531687 -0.2524339 -0.1643085 0.9535617 -0.2525384 -0.1643778 0.953522 -0.2525731 -0.1643937 0.9535101 0.8387864 0.5444607 0.0 0.8387864 0.5444607 0.0 0.8387864 0.5444607 0.0 0.8387864 0.5444608 0.0 0.5465367 -0.8374351 0.0 0.5465367 -0.8374351 0.0 0.5465367 -0.8374351 0.0 0.5465367 -0.8374351 0.0 0.533993 -0.8454889 0.0 0.5339929 -0.8454889 0.0 0.533993 -0.8454889 0.0 0.533993 -0.8454889 0.0</float_array>
                    <technique_common>
                        <accessor count="88" source="#geometry0-normal-array" stride="3">
                            <param name="X" type="float"/>
                            <param name="Y" type="float"/>
                            <param name="Z" type="float"/>
                        </accessor>
                    </technique_common>
                </source>
                <vertices id="geometry0-vertex">
                    <input semantic="POSITION" source="#geometry0-position"/>
                </vertices>
                <triangles count="39" material="default_ai_0.2_sh_0.2_tr_0.0_dc_r_0.8_g_0.8_b_0.8_sc_r_1.0_g_1.0_b_1.0_ec_r_0.0_g_0.0_b_0_tri">
                    <input offset="0" semantic="VERTEX" source="#geometry0-vertex"/>
                    <input offset="1" semantic="NORMAL" source="#geometry0-normal"/>
                    <p>12 0 13 1 14 2 12 0 14 2 15 3 10 4 17 5 11 6 17 5 24 7 11 6 11 6 24 7 14 8 14 8 24 7 15 9 15 9 24 7 26 10 26 10 24 7 27 11 24 7 7 12 27 11 7 12 6 13 27 11 27 11 6 13 2 14 6 13 19 15 2 14 2 14 19 15 3 16 18 17 0 18 3 19 18 17 3 19 19 20 25 21 21 22 26 23 25 21 26 23 27 24 21 25 12 26 15 27 21 25 15 27 26 28 1 29 25 30 27 31 1 29 27 31 2 32 5 33 4 34 23 35 4 36 5 37 6 38 4 36 6 38 7 39 21 47 25 48 22 49 9 50 16 51 17 52 9 50 17 52 10 53 16 54 20 55 24 56 16 54 24 56 17 57 20 58 4 59 7 60 20 58 7 60 24 61 13 62 8 63 11 64 13 62 11 64 14 65 5 76 18 77 19 78 5 76 19 78 6 79 8 80 9 81 10 82 8 80 10 82 11 83 0 84 1 85 2 86 0 84 2 86 3 87</p>
                </triangles>
                <triangles count="13" material="default_ai_0.2_sh_0.2_tr_0.0_dc_r_1.0_g_0.2_b_0.2_sc_r_1.0_g_1.0_b_1.0_ec_r_0.0_g_0.0_b_0_tri">
                    <input offset="0" semantic="VERTEX" source="#geometry0-vertex"/>
                    <input offset="1" semantic="NORMAL" source="#geometry0-normal"/>
                    <p>23 40 22 41 25 42 5 43 23 40 25 42 5 43 25 42 1 44 18 45 5 43 1 44 18 45 1 44 0 46 16 66 9 67 20 68 9 67 8 69 20 68 8 69 13 70 20 68 13 70 12 71 20 68 20 68 12 71 4 72 12 71 21 73 4 72 4 72 21 73 23 74 23 74 21 73 22 75</p>
                </triangles>
            </mesh>
        </geometry>
    </library_geometries>
    <library_visual_scenes>
        <visual_scene id="Building_DEBW_5221000QucE">
            <node>
                <instance_geometry url="#geometry0">
                    <bind_material>
                        <technique_common>
                            <instance_material symbol="default_ai_0.2_sh_0.2_tr_0.0_dc_r_0.8_g_0.8_b_0.8_sc_r_1.0_g_1.0_b_1.0_ec_r_0.0_g_0.0_b_0_tri" target="#default_ai_0.2_sh_0.2_tr_0.0_dc_r_0.8_g_0.8_b_0.8_sc_r_1.0_g_1.0_b_1.0_ec_r_0.0_g_0.0_b_0_mat"/>
                            <instance_material symbol="default_ai_0.2_sh_0.2_tr_0.0_dc_r_1.0_g_0.2_b_0.2_sc_r_1.0_g_1.0_b_1.0_ec_r_0.0_g_0.0_b_0_tri" target="#default_ai_0.2_sh_0.2_tr_0.0_dc_r_1.0_g_0.2_b_0.2_sc_r_1.0_g_1.0_b_1.0_ec_r_0.0_g_0.0_b_0_mat"/>
                        </technique_common>
                    </bind_material>
                </instance_geometry>
            </node>
        </visual_scene>
    </library_visual_scenes>
    <scene>
        <instance_visual_scene url="#Building_DEBW_5221000QucE"/>
    </scene>
</COLLADA>
