<?xml version="1.0" encoding="UTF-8" standalone="yes"?>
<COLLADA xmlns="http://www.collada.org/2005/11/COLLADASchema" version="1.4.1">
    <asset>
        <contributor>
            <authoring_tool>3D City Database Importer/Exporter, version 5.5.3; Chair of Geoinformatics, Technical University of Munich</authoring_tool>
        </contributor>
        <created>2026-05-06T15:12:16.252</created>
        <modified>2026-05-06T15:12:16.252</modified>
        <unit meter="1.0" name="meters"/>
        <up_axis>Z_UP</up_axis>
    </asset>
    <library_materials>
        <material id="default_ai_0.2_sh_0.2_tr_0.0_dc_r_0.8_g_0.8_b_0.8_sc_r_1.0_g_1.0_b_1.0_ec_r_0.0_g_0.0_b_0_mat">
            <instance_effect url="#default_ai_0.2_sh_0.2_tr_0.0_dc_r_0.8_g_0.8_b_0.8_sc_r_1.0_g_1.0_b_1.0_ec_r_0.0_g_0.0_b_0_eff"/>
        </material>
        <material id="default_ai_0.2_sh_0.2_tr_0.0_dc_r_1.0_g_0.2_b_0.2_sc_r_1.0_g_1.0_b_1.0_ec_r_0.0_g_0.0_b_0_mat">
            <instance_effect url="#default_ai_0.2_sh_0.2_tr_0.0_dc_r_1.0_g_0.2_b_0.2_sc_r_1.0_g_1.0_b_1.0_ec_r_0.0_g_0.0_b_0_eff"/>
        </material>
    </library_materials>
    <library_effects>
        <effect id="default_ai_0.2_sh_0.2_tr_0.0_dc_r_0.8_g_0.8_b_0.8_sc_r_1.0_g_1.0_b_1.0_ec_r_0.0_g_0.0_b_0_eff">
            <profile_COMMON>
                <technique sid="COMMON">
                    <lambert>
                        <emission>
                            <color>0.0 0.0 0.0 1.0</color>
                        </emission>
                        <diffuse>
                            <color>0.8 0.8 0.8 1.0</color>
                        </diffuse>
                        <reflective>
                            <color>1.0 1.0 1.0 1.0</color>
                        </reflective>
                        <reflectivity>
                            <float>0.2</float>
                        </reflectivity>
                        <transparent opaque="A_ONE">
                            <color>1.0 1.0 1.0 1.0</color>
                        </transparent>
                        <transparency>
                            <float>1.0</float>
                        </transparency>
                    </lambert>
                </technique>
                <extra>
                    <technique profile="GOOGLEEARTH">
                        <double_sided>0</double_sided>
                    </technique>
                </extra>
            </profile_COMMON>
        </effect>
        <effect id="default_ai_0.2_sh_0.2_tr_0.0_dc_r_1.0_g_0.2_b_0.2_sc_r_1.0_g_1.0_b_1.0_ec_r_0.0_g_0.0_b_0_eff">
            <profile_COMMON>
                <technique sid="COMMON">
                    <lambert>
                        <emission>
                            <color>0.0 0.0 0.0 1.0</color>
                        </emission>
                        <diffuse>
                            <color>1.0 0.2 0.2 1.0</color>
                        </diffuse>
                        <reflective>
                            <color>1.0 1.0 1.0 1.0</color>
                        </reflective>
                        <reflectivity>
                            <float>0.2</float>
                        </reflectivity>
                        <transparent opaque="A_ONE">
                            <color>1.0 1.0 1.0 1.0</color>
                        </transparent>
                        <transparency>
                            <float>1.0</float>
                        </transparency>
                    </lambert>
                </technique>
                <extra>
                    <technique profile="GOOGLEEARTH">
                        <double_sided>0</double_sided>
                    </technique>
                </extra>
            </profile_COMMON>
        </effect>
    </library_effects>
    <library_geometries>
        <geometry id="geometry0">
            <mesh>
                <source id="geometry0-position">
                    <float_array id="geometry0-position-array" count="156">0.306 0.408 3.805 0.0 0.0 3.721 0.0 0.0 0.0 0.306 0.408 0.0 0.989 1.772 4.212 1.132 2.262 4.395 1.23 2.762 4.599 -3.45 9.202 9.386 -4.71 8.222 9.373 -2.5 5.092 7.07 -2.47 5.072 7.05 -6.25 2.462 7.17 -6.52 2.862 7.46 -8.2 1.622 7.475 -5.49 -1.958 4.775 -4.986 -2.035 4.555 -4.477 -2.067 4.355 -3.967 -2.053 4.177 -3.461 -1.993 4.022 -2.962 -1.888 3.891 -2.474 -1.738 3.786 -2.002 -1.545 3.707 -1.549 -1.311 3.655 -1.119 -1.037 3.63 -0.715 -0.725 3.633 -0.341 -0.379 3.663 0.574 0.841 3.916 0.802 1.297 4.052 -6.25 2.462 0.0 -6.52 2.862 0.0 -4.477 -2.067 0.0 -3.967 -2.053 0.0 0.574 0.841 0.0 -8.2 1.622 0.0 -2.474 -1.738 0.0 -2.002 -1.545 0.0 1.132 2.262 0.0 1.23 2.762 0.0 -2.962 -1.888 0.0 -2.5 5.092 0.0 -2.47 5.072 0.0 -0.341 -0.379 0.0 -4.986 -2.035 0.0 0.802 1.297 0.0 -3.45 9.202 0.0 -4.71 8.222 0.0 -1.549 -1.311 0.0 -1.119 -1.037 0.0 -0.715 -0.725 0.0 -5.49 -1.958 0.0 -3.461 -1.993 0.0 0.989 1.772 0.0</float_array>
                    <technique_common>
                        <accessor count="52" source="#geometry0-position-array" stride="3">
                            <param name="X" type="float"/>
                            <param name="Y" type="float"/>
                            <param name="Z" type="float"/>
                        </accessor>
                    </technique_common>
                </source>
                <source id="geometry0-normal">
                    <float_array id="geometry0-normal-array" count="468">-0.6139404 0.7893524 0.0 -0.6139405 0.7893524 0.0 -0.6139404 0.7893524 0.0 -0.6139404 0.7893525 0.0 0.3127443 -0.4105068 0.8565484 0.3110728 -0.4110956 0.8568746 0.3102559 -0.4108614 0.8572831 0.3093541 -0.410607 0.8577307 0.3101811 -0.4107533 0.857362 0.3109765 -0.4109823 0.8569639 0.3104456 -0.4112863 0.8570106 0.3186511 -0.4150734 0.8521594 0.32626 -0.4191349 0.8472783 0.3116064 -0.4113366 0.8565651 0.3115326 -0.4112355 0.8566405 0.3115236 -0.4112897 0.8566177 0.3112441 -0.4109733 0.8568711 0.3109485 -0.4107841 0.8570691 0.3110996 -0.4108716 0.8569723 0.3110247 -0.4108495 0.8570101 0.3113284 -0.4112201 0.8567221 0.3108923 -0.4105141 0.8572189 0.3107633 -0.4103476 0.8573454 0.3110636 -0.4109623 0.8569419 0.3111096 -0.4110402 0.8568878 0.3110752 -0.4109819 0.8569283 0.3110583 -0.4110269 0.8569128 0.3111355 -0.4111738 0.8568143 0.3104912 -0.4112744 0.8569998 0.2851997 -0.4291891 0.8570051 0.850307 -0.526287 0.0 0.850307 -0.526287 0.0 0.850307 -0.526287 0.0 0.850307 -0.526287 0.0 -0.8168955 -0.5767857 0.0 -0.8168955 -0.5767857 0.0 -0.8168955 -0.5767857 0.0 -0.8168955 -0.5767857 0.0 0.8288488 0.5594727 0.0 0.8288488 0.5594727 0.0 0.8288488 0.5594727 0.0 0.8288487 0.5594727 0.0 0.0 0.0 -1.0 0.0 0.0 -1.0 0.0 0.0 -1.0 0.0 0.0 -1.0 0.0 0.0 -1.0 0.0 0.0 -1.0 0.0 0.0 -1.0 0.0 0.0 -1.0 0.0 0.0 -1.0 0.0 0.0 -1.0 0.0 0.0 -1.0 0.0 0.0 -1.0 0.0 0.0 -1.0 0.0 0.0 -1.0 0.0 0.0 -1.0 0.0 0.0 -1.0 0.0 0.0 -1.0 0.0 0.0 -1.0 0.0 0.0 -1.0 0.0 0.0 -1.0 0.0 0.0 -1.0 0.0 0.0 -1.0 0.0 0.0 -1.0 0.0 0.0 -1.0 0.0 0.0 -1.0 0.0 0.0 -1.0 0.2938105 -0.9558637 0.0 0.2938106 -0.9558637 0.0 0.2938105 -0.9558637 0.0 0.2938105 -0.9558637 0.0 -0.5938523 0.804574 0.0 -0.5938523 0.804574 0.0 -0.5938523 0.804574 0.0 -0.5938523 0.8045741 0.0 0.9304893 -0.3663191 0.0 0.9304893 -0.3663191 0.0 0.9304893 -0.3663191 0.0 0.9304893 -0.3663191 0.0 0.9599562 -0.2801503 0.0 0.9599562 -0.2801503 0.0 0.9599562 -0.2801503 0.0 0.9599562 -0.2801503 0.0 0.0274405 -0.9996234 0.0 0.0274405 -0.9996234 0.0 0.0274405 -0.9996234 0.0 0.0274405 -0.9996234 0.0 -0.5547002 -0.8320503 0.0 -0.5547002 -0.8320503 0.0 -0.5547002 -0.8320503 0.0 -0.5547002 -0.8320503 0.0 0.537383 -0.8433383 0.0 0.537383 -0.8433383 0.0 0.537383 -0.8433383 0.0 0.537383 -0.8433383 0.0 0.3784803 -0.9256094 0.0 0.3784803 -0.9256094 0.0 0.3784803 -0.9256094 0.0 0.3784803 -0.9256093 0.0 -0.5681908 0.822897 0.0 -0.5681908 0.822897 0.0 -0.5681908 0.822897 0.0 -0.5681908 0.8228969 0.0 0.7433917 -0.6688564 0.0 0.7433917 -0.6688564 0.0 0.7433917 -0.6688564 0.0 0.7433917 -0.6688563 0.0 0.2059117 -0.9785706 0.0 0.2059117 -0.9785706 0.0 0.2059117 -0.9785706 0.0 0.2059117 -0.9785706 0.0 0.8089533 0.587873 0.0 0.8089533 0.587873 0.0 0.8089533 0.587873 0.0 0.8089533 0.587873 0.0 0.9813282 -0.1923404 0.0 0.9813282 -0.1923404 0.0 0.9813282 -0.1923404 0.0 0.9813282 -0.1923404 0.0 -0.1510258 -0.9885299 0.0 -0.1510258 -0.9885299 0.0 -0.1510258 -0.9885299 0.0 -0.1510258 -0.9885299 0.0 -0.0627442 -0.9980297 0.0 -0.0627442 -0.9980297 0.0 -0.0627442 -0.9980297 0.0 -0.0627442 -0.9980296 0.0 0.8000001 -0.6 0.0 0.8000001 -0.6 0.0 0.8000001 -0.6 0.0 0.8 -0.6 0.0 0.6790949 -0.7340505 0.0 0.6790949 -0.7340505 0.0 0.6790949 -0.7340505 0.0 0.6790949 -0.7340505 0.0 0.117752 -0.993043 0.0 0.117752 -0.993043 0.0 0.117752 -0.993043 0.0 0.117752 -0.993043 0.0 0.6112244 -0.7914574 0.0 0.6112244 -0.7914574 0.0 0.6112244 -0.7914574 0.0 0.6112244 -0.7914574 0.0 0.4589425 -0.8884659 0.0 0.4589425 -0.8884659 0.0 0.4589425 -0.8884659 0.0 0.4589425 -0.8884659 0.0 0.8944273 -0.4472136 0.0 0.8944273 -0.4472136 0.0 0.8944273 -0.4472136 0.0 0.8944272 -0.4472136 0.0 -0.7973195 -0.6035575 0.0 -0.7973195 -0.6035575 0.0 -0.7973195 -0.6035575 0.0 -0.7973195 -0.6035575 0.0</float_array>
                    <technique_common>
                        <accessor count="156" source="#geometry0-normal-array" stride="3">
                            <param name="X" type="float"/>
                            <param name="Y" type="float"/>
                            <param name="Z" type="float"/>
                        </accessor>
                    </technique_common>
                </source>
                <vertices id="geometry0-vertex">
                    <input semantic="POSITION" source="#geometry0-position"/>
                </vertices>
                <triangles count="76" material="default_ai_0.2_sh_0.2_tr_0.0_dc_r_0.8_g_0.8_b_0.8_sc_r_1.0_g_1.0_b_1.0_ec_r_0.0_g_0.0_b_0_tri">
                    <input offset="0" semantic="VERTEX" source="#geometry0-vertex"/>
                    <input offset="1" semantic="NORMAL" source="#geometry0-normal"/>
                    <p>8 0 7 1 44 2 8 0 44 2 45 3 26 30 0 31 3 32 26 30 3 32 32 33 9 34 8 35 45 36 9 34 45 36 39 37 12 38 11 39 28 40 12 38 28 40 29 41 36 42 51 43 43 44 36 42 43 44 32 45 36 42 32 45 3 46 36 42 3 46 2 47 36 42 2 47 41 48 36 42 41 48 48 49 36 42 48 49 47 50 36 42 47 50 46 51 36 42 46 51 35 52 36 42 35 52 34 53 36 42 34 53 38 54 36 42 38 54 50 55 36 42 50 55 31 56 36 42 31 56 30 57 36 42 30 57 42 58 36 42 42 58 49 59 36 42 49 59 33 60 37 61 36 42 33 60 45 62 44 63 37 61 39 64 45 62 37 61 40 65 39 64 37 61 28 66 40 65 37 61 28 66 37 61 33 60 28 66 33 60 29 67 20 68 19 69 38 70 20 68 38 70 34 71 13 72 12 73 29 74 13 72 29 74 33 75 4 76 27 77 43 78 4 76 43 78 51 79 5 80 4 81 51 82 5 80 51 82 36 83 17 84 16 85 30 86 17 84 30 86 31 87 10 88 9 89 39 90 10 88 39 90 40 91 23 92 22 93 46 94 23 92 46 94 47 95 21 96 20 97 34 98 21 96 34 98 35 99 11 100 10 101 40 102 11 100 40 102 28 103 1 104 25 105 41 106 1 104 41 106 2 107 19 108 18 109 50 110 19 108 50 110 38 111 7 112 6 113 37 114 7 112 37 114 44 115 6 116 5 117 36 118 6 116 36 118 37 119 15 120 14 121 49 122 15 120 49 122 42 123 16 124 15 125 42 126 16 124 42 126 30 127 0 128 1 129 2 130 0 128 2 130 3 131 25 132 24 133 48 134 25 132 48 134 41 135 18 136 17 137 31 138 18 136 31 138 50 139 24 140 23 141 47 142 24 140 47 142 48 143 22 144 21 145 35 146 22 144 35 146 46 147 27 148 26 149 32 150 27 148 32 150 43 151 14 152 13 153 33 154 14 152 33 154 49 155</p>
                </triangles>
                <triangles count="24" material="default_ai_0.2_sh_0.2_tr_0.0_dc_r_1.0_g_0.2_b_0.2_sc_r_1.0_g_1.0_b_1.0_ec_r_0.0_g_0.0_b_0_tri">
                    <input offset="0" semantic="VERTEX" source="#geometry0-vertex"/>
                    <input offset="1" semantic="NORMAL" source="#geometry0-normal"/>
                    <p>26 4 27 5 4 6 26 4 4 6 5 7 26 4 5 7 6 8 26 4 6 8 7 9 26 4 7 9 8 10 1 11 0 12 26 4 25 13 1 11 26 4 24 14 25 13 26 4 23 15 24 14 26 4 22 16 23 15 26 4 21 17 22 16 26 4 20 18 21 17 26 4 19 19 20 18 26 4 18 20 19 19 26 4 17 21 18 20 26 4 16 22 17 21 26 4 15 23 16 22 26 4 14 24 15 23 26 4 13 25 14 24 26 4 11 26 12 27 13 25 11 26 13 25 26 4 10 28 11 26 26 4 10 28 26 4 8 10 10 28 8 10 9 29</p>
                </triangles>
            </mesh>
        </geometry>
    </library_geometries>
    <library_visual_scenes>
        <visual_scene id="Building_DEBW_5221000QZGN">
            <node>
                <instance_geometry url="#geometry0">
                    <bind_material>
                        <technique_common>
                            <instance_material symbol="default_ai_0.2_sh_0.2_tr_0.0_dc_r_0.8_g_0.8_b_0.8_sc_r_1.0_g_1.0_b_1.0_ec_r_0.0_g_0.0_b_0_tri" target="#default_ai_0.2_sh_0.2_tr_0.0_dc_r_0.8_g_0.8_b_0.8_sc_r_1.0_g_1.0_b_1.0_ec_r_0.0_g_0.0_b_0_mat"/>
                            <instance_material symbol="default_ai_0.2_sh_0.2_tr_0.0_dc_r_1.0_g_0.2_b_0.2_sc_r_1.0_g_1.0_b_1.0_ec_r_0.0_g_0.0_b_0_tri" target="#default_ai_0.2_sh_0.2_tr_0.0_dc_r_1.0_g_0.2_b_0.2_sc_r_1.0_g_1.0_b_1.0_ec_r_0.0_g_0.0_b_0_mat"/>
                        </technique_common>
                    </bind_material>
                </instance_geometry>
            </node>
        </visual_scene>
    </library_visual_scenes>
    <scene>
        <instance_visual_scene url="#Building_DEBW_5221000QZGN"/>
    </scene>
</COLLADA>
