<?xml version="1.0" encoding="UTF-8" standalone="yes"?>
<COLLADA xmlns="http://www.collada.org/2005/11/COLLADASchema" version="1.4.1">
    <asset>
        <contributor>
            <authoring_tool>3D City Database Importer/Exporter, version 5.5.3; Chair of Geoinformatics, Technical University of Munich</authoring_tool>
        </contributor>
        <created>2026-05-06T15:12:10.986</created>
        <modified>2026-05-06T15:12:10.986</modified>
        <unit meter="1.0" name="meters"/>
        <up_axis>Z_UP</up_axis>
    </asset>
    <library_materials>
        <material id="default_ai_0.2_sh_0.2_tr_0.0_dc_r_1.0_g_0.2_b_0.2_sc_r_1.0_g_1.0_b_1.0_ec_r_0.0_g_0.0_b_0_mat">
            <instance_effect url="#default_ai_0.2_sh_0.2_tr_0.0_dc_r_1.0_g_0.2_b_0.2_sc_r_1.0_g_1.0_b_1.0_ec_r_0.0_g_0.0_b_0_eff"/>
        </material>
        <material id="default_ai_0.2_sh_0.2_tr_0.0_dc_r_0.8_g_0.8_b_0.8_sc_r_1.0_g_1.0_b_1.0_ec_r_0.0_g_0.0_b_0_mat">
            <instance_effect url="#default_ai_0.2_sh_0.2_tr_0.0_dc_r_0.8_g_0.8_b_0.8_sc_r_1.0_g_1.0_b_1.0_ec_r_0.0_g_0.0_b_0_eff"/>
        </material>
    </library_materials>
    <library_effects>
        <effect id="default_ai_0.2_sh_0.2_tr_0.0_dc_r_1.0_g_0.2_b_0.2_sc_r_1.0_g_1.0_b_1.0_ec_r_0.0_g_0.0_b_0_eff">
            <profile_COMMON>
                <technique sid="COMMON">
                    <lambert>
                        <emission>
                            <color>0.0 0.0 0.0 1.0</color>
                        </emission>
                        <diffuse>
                            <color>1.0 0.2 0.2 1.0</color>
                        </diffuse>
                        <reflective>
                            <color>1.0 1.0 1.0 1.0</color>
                        </reflective>
                        <reflectivity>
                            <float>0.2</float>
                        </reflectivity>
                        <transparent opaque="A_ONE">
                            <color>1.0 1.0 1.0 1.0</color>
                        </transparent>
                        <transparency>
                            <float>1.0</float>
                        </transparency>
                    </lambert>
                </technique>
                <extra>
                    <technique profile="GOOGLEEARTH">
                        <double_sided>0</double_sided>
                    </technique>
                </extra>
            </profile_COMMON>
        </effect>
        <effect id="default_ai_0.2_sh_0.2_tr_0.0_dc_r_0.8_g_0.8_b_0.8_sc_r_1.0_g_1.0_b_1.0_ec_r_0.0_g_0.0_b_0_eff">
            <profile_COMMON>
                <technique sid="COMMON">
                    <lambert>
                        <emission>
                            <color>0.0 0.0 0.0 1.0</color>
                        </emission>
                        <diffuse>
                            <color>0.8 0.8 0.8 1.0</color>
                        </diffuse>
                        <reflective>
                            <color>1.0 1.0 1.0 1.0</color>
                        </reflective>
                        <reflectivity>
                            <float>0.2</float>
                        </reflectivity>
                        <transparent opaque="A_ONE">
                            <color>1.0 1.0 1.0 1.0</color>
                        </transparent>
                        <transparency>
                            <float>1.0</float>
                        </transparency>
                    </lambert>
                </technique>
                <extra>
                    <technique profile="GOOGLEEARTH">
                        <double_sided>0</double_sided>
                    </technique>
                </extra>
            </profile_COMMON>
        </effect>
    </library_effects>
    <library_geometries>
        <geometry id="geometry0">
            <mesh>
                <source id="geometry0-position">
                    <float_array id="geometry0-position-array" count="78">6.278 1.022 10.968 0.0 0.0 15.804 0.0 0.0 0.0 6.278 1.022 0.0 5.578 5.382 10.963 5.218 5.322 11.241 3.938 13.212 11.243 4.298 13.272 10.966 3.598 17.622 10.963 -2.687 16.602 15.804 -3.552 -0.578 12.937 -6.712 -1.088 10.387 -6.712 -1.088 0.0 -3.552 -0.578 0.0 3.938 13.212 0.0 4.298 13.272 0.0 -8.662 15.632 10.982 -2.687 16.602 0.0 -8.662 15.632 0.0 -9.392 15.512 10.392 -9.392 15.512 0.0 5.218 5.322 0.0 5.578 5.382 0.0 -6.792 -0.558 0.0 3.598 17.622 0.0 -6.792 -0.558 10.392</float_array>
                    <technique_common>
                        <accessor count="26" source="#geometry0-position-array" stride="3">
                            <param name="X" type="float"/>
                            <param name="Y" type="float"/>
                            <param name="Z" type="float"/>
                        </accessor>
                    </technique_common>
                </source>
                <source id="geometry0-normal">
                    <float_array id="geometry0-normal-array" count="240">-0.6151337 -0.0997119 0.7820922 -0.6151025 -0.0995531 0.7821368 -0.6150846 -0.0995563 0.7821506 -0.6152748 -0.0996462 0.7819895 -0.6152557 -0.0996199 0.7820079 -0.6150081 -0.099857 0.7821724 -0.6149877 -0.1002071 0.7821437 -0.1622063 0.9867569 0.0 -0.1622063 0.9867569 0.0 -0.1622063 0.9867569 0.0 -0.1622063 0.9867569 0.0 -0.1643988 0.9863939 0.0 -0.1643988 0.9863939 0.0 -0.1643988 0.9863939 0.0 -0.1643988 0.9863939 0.0 0.5973133 0.0966323 0.7961652 0.5974597 0.0966976 0.7960474 0.5975128 0.0966936 0.796008 0.5973145 0.0966414 0.7961632 0.5968053 0.0965869 0.7965516 0.5976879 0.0968032 0.7958633 0.5978 0.0968423 0.7957743 0.5981461 0.0969449 0.7955016 0.1644002 -0.9863937 0.0 0.1644002 -0.9863937 0.0 0.1644002 -0.9863937 0.0 0.1644002 -0.9863937 0.0 -0.1601953 0.9870853 0.0 -0.1601953 0.9870853 0.0 -0.1601953 0.9870853 0.0 -0.1601953 0.9870853 0.0 -0.1602451 0.9870772 0.0 -0.1602451 0.9870772 0.0 -0.1602451 0.9870772 0.0 -0.1602451 0.9870772 0.0 0.9873557 0.1585204 0.0 0.9873557 0.1585204 0.0 0.9873557 0.1585204 0.0 0.9873557 0.1585204 0.0 0.1606126 -0.9870175 0.0 0.1606127 -0.9870176 0.0 0.1606126 -0.9870175 0.0 0.1606126 -0.9870175 0.0 -0.9871631 -0.1597153 0.0 -0.9871631 -0.1597153 0.0 -0.9871631 -0.1597153 0.0 -0.9871631 -0.1597153 0.0 0.0 0.0 -1.0 0.0 0.0 -1.0 0.0 0.0 -1.0 0.0 0.0 -1.0 0.0 0.0 -1.0 0.0 0.0 -1.0 0.0 0.0 -1.0 0.0 0.0 -1.0 0.0 0.0 -1.0 0.0 0.0 -1.0 0.0 0.0 -1.0 0.0 0.0 -1.0 0.0 0.0 -1.0 0.1593307 -0.9872253 0.0 0.1593307 -0.9872253 0.0 0.1593307 -0.9872253 0.0 0.1593307 -0.9872253 0.0 0.9872986 0.1588756 0.0 0.9872986 0.1588756 0.0 0.9872986 0.1588756 0.0 0.9872987 0.1588756 0.0 0.9870948 0.1601371 0.0 0.9870948 0.1601371 0.0 0.9870948 0.1601371 0.0 0.9870948 0.1601371 0.0 -0.9887991 -0.1492525 0.0 -0.9887991 -0.1492525 0.0 -0.9887991 -0.1492525 0.0 -0.9887991 -0.1492525 0.0 0.1606756 -0.9870073 0.0 0.1606756 -0.9870073 0.0 0.1606756 -0.9870073 0.0 0.1606756 -0.9870073 0.0</float_array>
                    <technique_common>
                        <accessor count="80" source="#geometry0-normal-array" stride="3">
                            <param name="X" type="float"/>
                            <param name="Y" type="float"/>
                            <param name="Z" type="float"/>
                        </accessor>
                    </technique_common>
                </source>
                <vertices id="geometry0-vertex">
                    <input semantic="POSITION" source="#geometry0-position"/>
                </vertices>
                <triangles count="37" material="default_ai_0.2_sh_0.2_tr_0.0_dc_r_0.8_g_0.8_b_0.8_sc_r_1.0_g_1.0_b_1.0_ec_r_0.0_g_0.0_b_0_tri">
                    <input offset="0" semantic="VERTEX" source="#geometry0-vertex"/>
                    <input offset="1" semantic="NORMAL" source="#geometry0-normal"/>
                    <p>19 7 16 8 18 9 19 7 18 9 20 10 5 11 4 12 22 13 5 11 22 13 21 14 7 23 6 24 14 25 7 23 14 25 15 26 9 27 8 28 24 29 9 27 24 29 17 30 16 31 9 32 17 33 16 31 17 33 18 34 4 35 0 36 3 37 4 35 3 37 22 38 1 39 10 40 13 41 1 39 13 41 2 42 25 43 19 44 20 45 25 43 20 45 23 46 22 47 3 48 21 49 3 48 2 50 21 49 21 49 2 50 14 51 2 50 13 52 14 51 13 52 12 53 14 51 12 53 23 54 14 51 23 54 20 55 14 51 14 51 20 55 15 56 15 56 20 55 24 57 24 57 20 55 17 58 17 58 20 55 18 59 10 60 11 61 12 62 10 60 12 62 13 63 8 64 7 65 15 66 8 64 15 66 24 67 6 68 5 69 21 70 6 68 21 70 14 71 11 72 25 73 23 74 11 72 23 74 12 75 0 76 1 77 2 78 0 76 2 78 3 79</p>
                </triangles>
                <triangles count="11" material="default_ai_0.2_sh_0.2_tr_0.0_dc_r_1.0_g_0.2_b_0.2_sc_r_1.0_g_1.0_b_1.0_ec_r_0.0_g_0.0_b_0_tri">
                    <input offset="0" semantic="VERTEX" source="#geometry0-vertex"/>
                    <input offset="1" semantic="NORMAL" source="#geometry0-normal"/>
                    <p>10 0 1 1 9 2 10 0 9 2 16 3 10 0 16 3 19 4 10 0 19 4 25 5 10 0 25 5 11 6 8 15 9 16 1 17 6 18 7 19 8 15 6 18 8 15 1 17 5 20 6 18 1 17 5 20 1 17 0 21 5 20 0 21 4 22</p>
                </triangles>
            </mesh>
        </geometry>
    </library_geometries>
    <library_visual_scenes>
        <visual_scene id="Building_DEBW_5221000QoP4">
            <node>
                <instance_geometry url="#geometry0">
                    <bind_material>
                        <technique_common>
                            <instance_material symbol="default_ai_0.2_sh_0.2_tr_0.0_dc_r_0.8_g_0.8_b_0.8_sc_r_1.0_g_1.0_b_1.0_ec_r_0.0_g_0.0_b_0_tri" target="#default_ai_0.2_sh_0.2_tr_0.0_dc_r_0.8_g_0.8_b_0.8_sc_r_1.0_g_1.0_b_1.0_ec_r_0.0_g_0.0_b_0_mat"/>
                            <instance_material symbol="default_ai_0.2_sh_0.2_tr_0.0_dc_r_1.0_g_0.2_b_0.2_sc_r_1.0_g_1.0_b_1.0_ec_r_0.0_g_0.0_b_0_tri" target="#default_ai_0.2_sh_0.2_tr_0.0_dc_r_1.0_g_0.2_b_0.2_sc_r_1.0_g_1.0_b_1.0_ec_r_0.0_g_0.0_b_0_mat"/>
                        </technique_common>
                    </bind_material>
                </instance_geometry>
            </node>
        </visual_scene>
    </library_visual_scenes>
    <scene>
        <instance_visual_scene url="#Building_DEBW_5221000QoP4"/>
    </scene>
</COLLADA>
