<?xml version="1.0" encoding="UTF-8" standalone="yes"?>
<COLLADA xmlns="http://www.collada.org/2005/11/COLLADASchema" version="1.4.1">
    <asset>
        <contributor>
            <authoring_tool>3D City Database Importer/Exporter, version 5.5.3; Chair of Geoinformatics, Technical University of Munich</authoring_tool>
        </contributor>
        <created>2026-05-06T15:12:10.285</created>
        <modified>2026-05-06T15:12:10.285</modified>
        <unit meter="1.0" name="meters"/>
        <up_axis>Z_UP</up_axis>
    </asset>
    <library_materials>
        <material id="default_ai_0.2_sh_0.2_tr_0.0_dc_r_1.0_g_0.2_b_0.2_sc_r_1.0_g_1.0_b_1.0_ec_r_0.0_g_0.0_b_0_mat">
            <instance_effect url="#default_ai_0.2_sh_0.2_tr_0.0_dc_r_1.0_g_0.2_b_0.2_sc_r_1.0_g_1.0_b_1.0_ec_r_0.0_g_0.0_b_0_eff"/>
        </material>
        <material id="default_ai_0.2_sh_0.2_tr_0.0_dc_r_0.8_g_0.8_b_0.8_sc_r_1.0_g_1.0_b_1.0_ec_r_0.0_g_0.0_b_0_mat">
            <instance_effect url="#default_ai_0.2_sh_0.2_tr_0.0_dc_r_0.8_g_0.8_b_0.8_sc_r_1.0_g_1.0_b_1.0_ec_r_0.0_g_0.0_b_0_eff"/>
        </material>
    </library_materials>
    <library_effects>
        <effect id="default_ai_0.2_sh_0.2_tr_0.0_dc_r_1.0_g_0.2_b_0.2_sc_r_1.0_g_1.0_b_1.0_ec_r_0.0_g_0.0_b_0_eff">
            <profile_COMMON>
                <technique sid="COMMON">
                    <lambert>
                        <emission>
                            <color>0.0 0.0 0.0 1.0</color>
                        </emission>
                        <diffuse>
                            <color>1.0 0.2 0.2 1.0</color>
                        </diffuse>
                        <reflective>
                            <color>1.0 1.0 1.0 1.0</color>
                        </reflective>
                        <reflectivity>
                            <float>0.2</float>
                        </reflectivity>
                        <transparent opaque="A_ONE">
                            <color>1.0 1.0 1.0 1.0</color>
                        </transparent>
                        <transparency>
                            <float>1.0</float>
                        </transparency>
                    </lambert>
                </technique>
                <extra>
                    <technique profile="GOOGLEEARTH">
                        <double_sided>0</double_sided>
                    </technique>
                </extra>
            </profile_COMMON>
        </effect>
        <effect id="default_ai_0.2_sh_0.2_tr_0.0_dc_r_0.8_g_0.8_b_0.8_sc_r_1.0_g_1.0_b_1.0_ec_r_0.0_g_0.0_b_0_eff">
            <profile_COMMON>
                <technique sid="COMMON">
                    <lambert>
                        <emission>
                            <color>0.0 0.0 0.0 1.0</color>
                        </emission>
                        <diffuse>
                            <color>0.8 0.8 0.8 1.0</color>
                        </diffuse>
                        <reflective>
                            <color>1.0 1.0 1.0 1.0</color>
                        </reflective>
                        <reflectivity>
                            <float>0.2</float>
                        </reflectivity>
                        <transparent opaque="A_ONE">
                            <color>1.0 1.0 1.0 1.0</color>
                        </transparent>
                        <transparency>
                            <float>1.0</float>
                        </transparency>
                    </lambert>
                </technique>
                <extra>
                    <technique profile="GOOGLEEARTH">
                        <double_sided>0</double_sided>
                    </technique>
                </extra>
            </profile_COMMON>
        </effect>
    </library_effects>
    <library_geometries>
        <geometry id="geometry0">
            <mesh>
                <source id="geometry0-position">
                    <float_array id="geometry0-position-array" count="144">8.86 2.28 7.527 -0.158 1.787 7.527 0.36 1.338 9.207 8.482 1.859 8.935 -0.073 0.829 7.527 0.0 0.0 4.593 0.16 0.01 4.587 0.08 0.84 7.527 8.9 1.49 7.527 0.0 0.0 0.0 0.16 0.01 0.0 0.08 0.84 0.0 8.9 1.49 0.0 8.86 2.28 0.0 -0.073 0.829 0.0 -0.158 1.787 0.0 12.39 0.88 7.119 12.11 0.86 7.118 12.11 0.86 0.0 12.39 0.88 0.0 -0.97 11.0 8.684 2.99 11.37 8.625 2.99 11.37 0.0 -0.97 11.0 0.0 -0.493 5.594 12.093 -0.493 5.594 0.0 5.64 12.21 8.214 5.69 11.6 8.599 5.69 11.6 0.0 5.64 12.21 0.0 3.22 11.77 8.384 5.36 11.98 8.346 5.36 11.98 0.0 3.22 11.77 0.0 11.891 6.458 12.093 11.39 12.05 8.566 5.35 12.19 8.214 3.2 12.0 8.239 2.95 11.98 8.241 11.891 6.458 0.0 11.39 12.05 0.0 11.97 2.45 8.536 8.86 2.28 8.578 11.97 2.45 0.0 3.2 12.0 0.0 2.95 11.98 0.0 -0.158 1.787 8.699 5.35 12.19 0.0</float_array>
                    <technique_common>
                        <accessor count="48" source="#geometry0-position-array" stride="3">
                            <param name="X" type="float"/>
                            <param name="Y" type="float"/>
                            <param name="Z" type="float"/>
                        </accessor>
                    </technique_common>
                </source>
                <source id="geometry0-normal">
                    <float_array id="geometry0-normal-array" count="498">0.0706826 -0.9595605 0.272484 0.0706783 -0.9595547 0.2725058 0.0706826 -0.9595605 0.272484 0.0706869 -0.9595664 0.2724623 0.0 0.0 1.0 0.0 0.0 1.0 0.0 0.0 1.0 0.0695942 -0.959545 0.2728188 0.0689893 -0.959581 0.2728456 0.0695942 -0.959545 0.2728188 0.0701991 -0.9595085 0.2727918 0.0545809 -0.9985093 0.0 0.0545809 -0.9985094 0.0 0.0545809 -0.9985093 0.0 0.0545809 -0.9985093 0.0 0.0545809 -0.9985093 0.0 0.0712468 -0.9974587 0.0 0.0712468 -0.9974588 0.0 0.0712468 -0.9974587 0.0 0.0712468 -0.9974587 0.0 0.9960225 0.0891029 0.0 0.9960225 0.0891029 0.0 0.9960225 0.0891029 0.0 0.9960224 0.0891028 0.0 -0.9583184 -0.0850283 0.2727567 -0.9583184 -0.0850283 0.2727567 -0.9583184 -0.0850283 0.2727567 -0.9961454 -0.0877185 0.0 -0.9961453 -0.0877185 0.0 -0.9961454 -0.0877185 0.0 -0.9961454 -0.0877185 0.0 0.0461175 -0.6625738 0.7475755 0.0446622 -0.6626496 0.7475966 0.0461532 -0.662567 0.7475793 0.046701 -0.6624802 0.7476222 0.0462596 -0.6624732 0.7476559 0.046277 -0.6624331 0.7476903 0.0462483 -0.6624758 0.7476542 0.0623783 -0.9980526 0.0 0.0623783 -0.9980525 0.0 0.0623783 -0.9980526 0.0 0.0623783 -0.9980526 0.0 0.995387 0.0959409 0.0 0.995387 0.0959409 0.0 0.995387 0.0959409 0.0 0.995387 0.0959409 0.0 0.0 0.0 -1.0 0.0 0.0 -1.0 0.0 0.0 -1.0 0.0 0.0 -1.0 0.0 0.0 -1.0 0.0 0.0 -1.0 0.0 0.0 -1.0 0.0 0.0 -1.0 0.0 0.0 -1.0 0.0 0.0 -1.0 0.0 0.0 -1.0 0.0 0.0 -1.0 0.0 0.0 -1.0 0.0 0.0 -1.0 0.0 0.0 -1.0 0.0 0.0 -1.0 0.0 0.0 -1.0 -0.0930291 0.9956633 0.0 -0.0930291 0.9956633 0.0 -0.0930291 0.9956633 0.0 -0.0930291 0.9956633 0.0 0.9962406 0.0866297 0.0 0.9962406 0.0866297 0.0 0.9962406 0.0866297 0.0 0.9962406 0.0866297 0.0 0.0545869 -0.998509 0.0 0.0545869 -0.998509 0.0 0.0545869 -0.998509 0.0 0.0545869 -0.998509 0.0 -0.0545869 0.998509 0.0 -0.0545869 0.998509 0.0 -0.0545869 0.998509 0.0 -0.0545869 0.998509 0.0 -0.079747 0.9968151 0.0 -0.079747 0.9968151 0.0 -0.079747 0.9968151 0.0 -0.079747 0.9968151 0.0 -0.997857 -0.0654332 0.0 -0.997857 -0.0654332 0.0 -0.997857 -0.0654332 0.0 -0.997857 -0.0654332 0.0 0.9966575 0.0816936 0.0 0.9966576 0.0816936 0.0 0.9966575 0.0816936 0.0 0.9966575 0.0816936 0.0 -0.9961299 -0.0878938 0.0 -0.9961299 -0.0878938 0.0 -0.9961299 -0.0878938 0.0 -0.9961299 -0.0878938 0.0 0.0734968 -0.9972954 0.0 0.0734968 -0.9972954 0.0 0.0734968 -0.9972954 0.0 0.0734968 -0.9972954 0.0 0.0545869 -0.998509 0.0 0.0545869 -0.998509 0.0 0.0545869 -0.998509 0.0 0.0545869 -0.998509 0.0 0.9609188 0.0486541 0.2725213 0.9609188 0.0486541 0.2725213 0.9609188 0.0486541 0.2725213 -0.0976613 0.9952197 0.0 -0.0976613 0.9952197 0.0 -0.0976613 0.9952197 0.0 -0.0976613 0.9952198 0.0 -0.0371733 0.5323812 0.8456882 -0.0370251 0.5306931 0.846755 -0.0370141 0.5307145 0.846742 -0.0369756 0.5304335 0.8469199 -0.0372328 0.5323677 0.8456941 -0.0365608 0.5326759 0.8455293 -0.0357095 0.5307289 0.846789 -0.035685 0.5307235 0.8467935 -0.0366491 0.5311014 0.8465154 -0.0369946 0.5310091 0.8465581 -0.0369387 0.5308698 0.846648 -0.0365916 0.5305654 0.8468539 0.9987206 0.0505681 0.0 0.9987206 0.0505681 0.0 0.9987206 0.0505681 0.0 0.9987206 0.0505681 0.0 -0.9961507 -0.0876571 0.0 -0.9961507 -0.0876571 0.0 -0.9961507 -0.0876571 0.0 -0.9961507 -0.0876571 0.0 -0.9961507 -0.0876571 0.0 -0.996146 -0.0877106 0.0 -0.996146 -0.0877106 0.0 -0.996146 -0.0877106 0.0 -0.996146 -0.0877106 0.0 0.9960106 0.0892348 0.0 0.9960106 0.0892348 0.0 0.9960106 0.0892348 0.0 0.9960106 0.0892348 0.0 -0.052492 0.9605743 0.2730235 -0.0525146 0.9606012 0.2729241 -0.052492 0.9605743 0.2730235 -0.0524693 0.9605472 0.2731228 -0.0787024 0.9968982 0.0 -0.0787024 0.9968982 0.0 -0.0787024 0.9968982 0.0 -0.0787024 0.9968982 0.0 0.0 0.0 -1.0 0.0 0.0 -1.0 0.0 0.0 -1.0 0.0 0.0 -1.0 0.0 0.0 -1.0 0.0 0.0 -1.0 0.0 0.0 -1.0 -0.0688037 0.9976302 0.0 -0.0688037 0.9976302 0.0 -0.0688037 0.9976302 0.0 -0.0688037 0.9976302 0.0 -0.9960869 -0.0883793 0.0 -0.9960869 -0.0883793 0.0 -0.9960869 -0.0883793 0.0 -0.9960869 -0.0883793 0.0 -0.9988681 -0.0475662 0.0 -0.9988681 -0.0475662 0.0 -0.9988681 -0.0475662 0.0 -0.9988681 -0.0475662 0.0</float_array>
                    <technique_common>
                        <accessor count="166" source="#geometry0-normal-array" stride="3">
                            <param name="X" type="float"/>
                            <param name="Y" type="float"/>
                            <param name="Z" type="float"/>
                        </accessor>
                    </technique_common>
                </source>
                <vertices id="geometry0-vertex">
                    <input semantic="POSITION" source="#geometry0-position"/>
                </vertices>
                <triangles count="72" material="default_ai_0.2_sh_0.2_tr_0.0_dc_r_0.8_g_0.8_b_0.8_sc_r_1.0_g_1.0_b_1.0_ec_r_0.0_g_0.0_b_0_tri">
                    <input offset="0" semantic="VERTEX" source="#geometry0-vertex"/>
                    <input offset="1" semantic="NORMAL" source="#geometry0-normal"/>
                    <p>13 11 43 12 41 13 0 14 13 11 41 13 0 14 41 13 42 15 16 16 17 17 18 18 16 16 18 18 19 19 34 20 16 21 19 22 34 20 19 22 39 23 5 27 4 28 14 29 5 27 14 29 9 30 6 38 5 39 9 40 6 38 9 40 10 41 7 42 6 43 10 44 7 42 10 44 11 45 15 46 25 47 13 48 13 48 25 47 43 49 25 47 23 50 43 49 23 50 22 51 43 49 22 51 45 52 43 49 44 53 33 54 45 52 45 52 33 54 43 49 33 54 32 55 43 49 47 56 29 57 32 55 29 57 28 58 32 55 32 55 28 58 43 49 28 58 40 59 43 49 43 49 40 59 18 60 18 60 40 59 19 61 19 61 40 59 39 62 20 63 21 64 22 65 20 63 22 65 23 66 37 67 30 68 33 69 37 67 33 69 44 70 1 71 0 72 42 73 1 71 42 73 46 74 13 75 15 76 1 77 13 75 1 77 0 78 38 79 37 80 44 81 38 79 44 81 45 82 21 83 38 84 45 85 21 83 45 85 22 86 26 87 27 88 28 89 26 87 28 89 29 90 24 91 20 92 23 93 24 91 23 93 25 94 8 95 7 96 11 97 8 95 11 97 12 98 1 99 15 100 13 101 1 99 13 101 0 102 30 106 31 107 32 108 30 106 32 108 33 109 0 122 8 123 12 124 0 122 12 124 13 125 25 126 15 127 1 128 25 126 1 128 46 129 25 126 46 129 24 130 17 131 41 132 43 133 17 131 43 133 18 134 35 135 34 136 39 137 35 135 39 137 40 138 27 143 35 144 40 145 27 143 40 145 28 146 11 147 10 148 9 149 11 147 9 149 14 150 11 147 14 150 15 151 11 147 15 151 13 152 11 147 13 152 12 153 36 154 26 155 29 156 36 154 29 156 47 157 4 158 1 159 15 160 4 158 15 160 14 161 31 162 36 163 47 164 31 162 47 164 32 165</p>
                </triangles>
                <triangles count="24" material="default_ai_0.2_sh_0.2_tr_0.0_dc_r_1.0_g_0.2_b_0.2_sc_r_1.0_g_1.0_b_1.0_ec_r_0.0_g_0.0_b_0_tri">
                    <input offset="0" semantic="VERTEX" source="#geometry0-vertex"/>
                    <input offset="1" semantic="NORMAL" source="#geometry0-normal"/>
                    <p>3 0 2 1 4 2 8 3 3 0 4 2 7 4 8 5 4 6 7 7 4 8 5 9 7 7 5 9 6 10 1 24 4 25 2 26 17 31 16 32 34 33 41 34 17 31 34 33 41 34 34 33 24 35 42 36 41 34 24 35 42 36 24 35 46 37 8 103 0 104 3 105 20 110 24 111 34 112 20 110 34 112 35 113 20 110 35 113 27 114 21 115 20 110 27 114 37 116 38 117 21 115 30 118 37 116 21 115 30 118 21 115 27 114 31 119 30 118 27 114 31 119 27 114 26 120 31 119 26 120 36 121 0 139 1 140 2 141 0 139 2 141 3 142</p>
                </triangles>
            </mesh>
        </geometry>
    </library_geometries>
    <library_visual_scenes>
        <visual_scene id="Building_DEBW_5221000QmBD">
            <node>
                <instance_geometry url="#geometry0">
                    <bind_material>
                        <technique_common>
                            <instance_material symbol="default_ai_0.2_sh_0.2_tr_0.0_dc_r_0.8_g_0.8_b_0.8_sc_r_1.0_g_1.0_b_1.0_ec_r_0.0_g_0.0_b_0_tri" target="#default_ai_0.2_sh_0.2_tr_0.0_dc_r_0.8_g_0.8_b_0.8_sc_r_1.0_g_1.0_b_1.0_ec_r_0.0_g_0.0_b_0_mat"/>
                            <instance_material symbol="default_ai_0.2_sh_0.2_tr_0.0_dc_r_1.0_g_0.2_b_0.2_sc_r_1.0_g_1.0_b_1.0_ec_r_0.0_g_0.0_b_0_tri" target="#default_ai_0.2_sh_0.2_tr_0.0_dc_r_1.0_g_0.2_b_0.2_sc_r_1.0_g_1.0_b_1.0_ec_r_0.0_g_0.0_b_0_mat"/>
                        </technique_common>
                    </bind_material>
                </instance_geometry>
            </node>
        </visual_scene>
    </library_visual_scenes>
    <scene>
        <instance_visual_scene url="#Building_DEBW_5221000QmBD"/>
    </scene>
</COLLADA>
