<?xml version="1.0" encoding="UTF-8" standalone="yes"?>
<COLLADA xmlns="http://www.collada.org/2005/11/COLLADASchema" version="1.4.1">
    <asset>
        <contributor>
            <authoring_tool>3D City Database Importer/Exporter, version 5.5.3; Chair of Geoinformatics, Technical University of Munich</authoring_tool>
        </contributor>
        <created>2026-05-06T15:12:10.197</created>
        <modified>2026-05-06T15:12:10.197</modified>
        <unit meter="1.0" name="meters"/>
        <up_axis>Z_UP</up_axis>
    </asset>
    <library_materials>
        <material id="default_ai_0.2_sh_0.2_tr_0.0_dc_r_0.8_g_0.8_b_0.8_sc_r_1.0_g_1.0_b_1.0_ec_r_0.0_g_0.0_b_0_mat">
            <instance_effect url="#default_ai_0.2_sh_0.2_tr_0.0_dc_r_0.8_g_0.8_b_0.8_sc_r_1.0_g_1.0_b_1.0_ec_r_0.0_g_0.0_b_0_eff"/>
        </material>
        <material id="default_ai_0.2_sh_0.2_tr_0.0_dc_r_1.0_g_0.2_b_0.2_sc_r_1.0_g_1.0_b_1.0_ec_r_0.0_g_0.0_b_0_mat">
            <instance_effect url="#default_ai_0.2_sh_0.2_tr_0.0_dc_r_1.0_g_0.2_b_0.2_sc_r_1.0_g_1.0_b_1.0_ec_r_0.0_g_0.0_b_0_eff"/>
        </material>
    </library_materials>
    <library_effects>
        <effect id="default_ai_0.2_sh_0.2_tr_0.0_dc_r_0.8_g_0.8_b_0.8_sc_r_1.0_g_1.0_b_1.0_ec_r_0.0_g_0.0_b_0_eff">
            <profile_COMMON>
                <technique sid="COMMON">
                    <lambert>
                        <emission>
                            <color>0.0 0.0 0.0 1.0</color>
                        </emission>
                        <diffuse>
                            <color>0.8 0.8 0.8 1.0</color>
                        </diffuse>
                        <reflective>
                            <color>1.0 1.0 1.0 1.0</color>
                        </reflective>
                        <reflectivity>
                            <float>0.2</float>
                        </reflectivity>
                        <transparent opaque="A_ONE">
                            <color>1.0 1.0 1.0 1.0</color>
                        </transparent>
                        <transparency>
                            <float>1.0</float>
                        </transparency>
                    </lambert>
                </technique>
                <extra>
                    <technique profile="GOOGLEEARTH">
                        <double_sided>0</double_sided>
                    </technique>
                </extra>
            </profile_COMMON>
        </effect>
        <effect id="default_ai_0.2_sh_0.2_tr_0.0_dc_r_1.0_g_0.2_b_0.2_sc_r_1.0_g_1.0_b_1.0_ec_r_0.0_g_0.0_b_0_eff">
            <profile_COMMON>
                <technique sid="COMMON">
                    <lambert>
                        <emission>
                            <color>0.0 0.0 0.0 1.0</color>
                        </emission>
                        <diffuse>
                            <color>1.0 0.2 0.2 1.0</color>
                        </diffuse>
                        <reflective>
                            <color>1.0 1.0 1.0 1.0</color>
                        </reflective>
                        <reflectivity>
                            <float>0.2</float>
                        </reflectivity>
                        <transparent opaque="A_ONE">
                            <color>1.0 1.0 1.0 1.0</color>
                        </transparent>
                        <transparency>
                            <float>1.0</float>
                        </transparency>
                    </lambert>
                </technique>
                <extra>
                    <technique profile="GOOGLEEARTH">
                        <double_sided>0</double_sided>
                    </technique>
                </extra>
            </profile_COMMON>
        </effect>
    </library_effects>
    <library_geometries>
        <geometry id="geometry0">
            <mesh>
                <source id="geometry0-position">
                    <float_array id="geometry0-position-array" count="126">0.99 1.12 4.152 0.0 0.0 4.152 0.0 0.0 0.0 0.99 1.12 0.0 0.63 8.31 6.254 2.55 8.28 4.158 2.61 13.08 4.152 -0.704 13.118 7.77 -3.642 10.448 10.943 -3.73 2.705 10.943 -1.193 -0.025 8.14 0.0 0.0 6.838 0.99 1.12 5.771 0.99 2.49 5.788 0.59 2.92 6.23 -7.98 0.65 4.152 -7.87 13.2 4.152 -7.87 13.2 0.0 -7.98 0.65 0.0 -6.98 13.19 4.152 -6.23 13.181 4.152 -6.23 13.181 0.0 -6.98 13.19 0.0 -6.23 13.181 7.77 -6.98 13.19 7.77 -7.87 13.2 6.931 -7.98 0.65 6.963 -6.091 0.612 8.743 -1.44 -0.03 4.152 -1.44 -0.03 8.131 -1.95 0.53 8.707 -1.95 0.53 4.152 2.55 8.28 0.0 2.61 13.08 0.0 0.63 8.31 4.152 0.63 8.31 0.0 0.59 2.92 4.152 0.99 2.49 4.152 0.99 2.49 0.0 0.59 2.92 0.0 -1.95 0.53 0.0 -1.44 -0.03 0.0</float_array>
                    <technique_common>
                        <accessor count="42" source="#geometry0-position-array" stride="3">
                            <param name="X" type="float"/>
                            <param name="Y" type="float"/>
                            <param name="Z" type="float"/>
                        </accessor>
                    </technique_common>
                </source>
                <source id="geometry0-normal">
                    <float_array id="geometry0-normal-array" count="420">0.0119989 0.999928 0.0 0.0119989 0.999928 0.0 0.0119989 0.999928 0.0 0.0119989 0.999928 0.0 0.7373023 -0.0083719 0.6755111 0.7373201 -0.0083879 0.6754915 0.7372855 -0.0084184 0.6755289 0.737275 -0.0084489 0.67554 0.7372909 -0.0084366 0.6755227 0.7373043 -0.0084217 0.6755083 0.7373445 -0.0083533 0.6754653 0.7373394 -0.0084028 0.6754702 0.7373481 -0.008331 0.6754616 0.7373527 -0.0082904 0.6754571 0.7373492 -0.0083005 0.6754607 0.9999725 -0.0074209 0.0 0.9999725 -0.0074209 0.0 0.9999725 -0.0074209 0.0 0.9999725 -0.0074209 0.0 -0.0198647 -0.9998027 -1.102E-4 -0.0198966 -0.9998021 0.0 -0.0198966 -0.9998021 0.0 -0.0198488 -0.9998029 -1.653E-4 -0.019801 -0.9998038 -3.306E-4 0.7492519 -0.6622852 0.0 0.7492519 -0.6622852 0.0 0.7492519 -0.6622852 0.0 0.7492519 -0.6622851 0.0 -0.9999616 0.0087646 0.0 -0.9999616 0.0087646 0.0 -0.9999616 0.0087646 0.0 -0.9999616 0.0087646 0.0 0.0 0.0 -1.0 0.0 0.0 -1.0 0.0 0.0 -1.0 0.0 0.0 -1.0 0.0 0.0 -1.0 0.0 0.0 -1.0 0.0 0.0 -1.0 0.0 0.0 -1.0 0.0 0.0 -1.0 0.0 0.0 -1.0 0.0 0.0 -1.0 0.0 0.0 -1.0 0.0 0.0 -1.0 0.0208288 -0.999783 0.0 0.0208288 -0.999783 0.0 0.0208288 -0.999783 0.0 0.0208288 -0.999783 0.0 0.0119989 0.999928 0.0 0.0119989 0.999928 0.0 0.0119989 0.999928 0.0 0.0119989 0.999928 0.0 0.7321867 0.6811039 0.0 0.7321867 0.6811039 0.0 0.7321867 0.6811039 0.0 0.7321868 0.6811039 0.0 -0.0049637 -0.7188246 0.6951736 -0.0082264 -0.7200578 0.6938652 -0.0021228 -0.7176594 0.696391 -0.0033322 -0.7182043 0.6958243 -0.010645 -0.7211318 0.6927162 0.0089067 0.7612374 0.6484121 0.0091358 0.7613277 0.648303 0.0089067 0.7612374 0.6484121 0.0086776 0.7611471 0.6485212 -0.0156235 -0.9998779 0.0 -0.0156235 -0.9998779 0.0 -0.0156235 -0.9998779 0.0 -0.0156235 -0.9998779 0.0 -0.0156235 -0.9998779 0.0 -0.0156235 -0.9998779 0.0 -0.0156235 -0.9998779 0.0 0.0114122 0.9999349 -1.89E-5 0.0113999 0.9999351 0.0 0.0114122 0.9999349 -1.89E-5 0.0114246 0.9999348 -3.78E-5 -0.7393424 -0.6733297 0.0 -0.7393424 -0.6733297 0.0 -0.7393424 -0.6733297 0.0 -0.7393424 -0.6733297 0.0 0.0206398 -0.999787 -2.106E-4 0.0208288 -0.999783 0.0 0.0208288 -0.999783 0.0 0.0205453 -0.9997889 -3.159E-4 0.0202618 -0.9997945 -6.318E-4 -0.6856466 0.0076636 0.7278942 -0.6858918 0.0070706 0.7276692 -0.6857533 0.007468 0.7277958 -0.6856529 0.0078972 0.7278858 -0.6855398 0.0078593 0.7279927 -0.6853885 0.0077895 0.7281359 -0.0198966 -0.9998021 0.0 -0.0198966 -0.9998021 0.0 -0.0198966 -0.9998021 0.0 -0.0198966 -0.9998021 0.0 0.0114246 0.9999347 0.0 0.0114246 0.9999347 0.0 0.0114246 0.9999347 0.0 0.0114246 0.9999347 0.0 -0.7393424 -0.6733297 0.0 -0.7393424 -0.6733297 0.0 -0.7393424 -0.6733297 0.0 -0.7393424 -0.6733297 0.0 0.0112355 0.9999369 0.0 0.0112355 0.9999369 0.0 0.0112355 0.9999369 0.0 0.0112355 0.9999369 0.0 1.0 0.0 0.0 1.0 0.0 0.0 1.0 0.0 0.0 1.0 0.0 0.0 0.7321868 0.6811039 0.0 0.7321868 0.6811039 0.0 0.7321868 0.6811039 0.0 0.7321868 0.6811039 0.0 -0.9999616 0.0087646 0.0 -0.9999616 0.0087646 0.0 -0.9999616 0.0087646 0.0 -0.9999616 0.0087646 0.0 1.0 0.0 0.0 1.0 0.0 0.0 1.0 0.0 0.0 1.0 0.0 0.0 0.0112355 0.9999369 0.0 0.0112355 0.9999369 0.0 0.0112355 0.9999369 0.0 0.0112355 0.9999369 0.0 0.9999725 -0.0074209 0.0 0.9999725 -0.0074209 0.0 0.9999725 -0.0074209 0.0 0.9999725 -0.0074209 0.0 0.9999219 -0.012499 0.0 0.9999219 -0.012499 0.0 0.9999219 -0.012499 0.0 0.9999219 -0.012499 0.0 0.7492519 -0.6622851 0.0 0.7492519 -0.6622851 0.0 0.7492519 -0.6622851 0.0 0.7492519 -0.6622851 0.0</float_array>
                    <technique_common>
                        <accessor count="140" source="#geometry0-normal-array" stride="3">
                            <param name="X" type="float"/>
                            <param name="Y" type="float"/>
                            <param name="Z" type="float"/>
                        </accessor>
                    </technique_common>
                </source>
                <vertices id="geometry0-vertex">
                    <input semantic="POSITION" source="#geometry0-position"/>
                </vertices>
                <triangles count="62" material="default_ai_0.2_sh_0.2_tr_0.0_dc_r_0.8_g_0.8_b_0.8_sc_r_1.0_g_1.0_b_1.0_ec_r_0.0_g_0.0_b_0_tri">
                    <input offset="0" semantic="VERTEX" source="#geometry0-vertex"/>
                    <input offset="1" semantic="NORMAL" source="#geometry0-normal"/>
                    <p>19 0 24 1 23 2 19 0 23 2 20 3 34 15 4 16 14 17 34 15 14 17 36 18 26 19 15 20 31 21 26 19 31 21 30 22 26 19 30 22 27 23 0 24 12 25 11 26 0 24 11 26 1 27 15 28 16 29 17 30 15 28 17 30 18 31 40 32 18 33 17 34 40 32 17 34 22 35 40 32 22 35 21 36 41 37 40 32 21 36 2 38 41 37 21 36 3 39 2 38 21 36 39 40 38 41 3 39 39 40 3 39 21 36 35 42 39 40 21 36 35 42 21 36 33 43 35 42 33 43 32 44 1 45 28 46 41 47 1 45 41 47 2 48 19 49 20 50 21 51 19 49 21 51 22 52 36 53 14 54 13 55 36 53 13 55 37 56 5 66 4 67 34 68 5 69 34 70 35 71 5 69 35 71 32 72 20 73 23 74 7 75 20 73 7 75 6 76 28 77 31 78 40 79 28 77 40 79 41 80 29 81 28 82 1 83 29 81 1 83 11 84 29 81 11 84 10 85 31 92 15 93 18 94 31 92 18 94 40 95 20 96 6 97 33 98 20 96 33 98 21 99 28 100 29 101 30 102 28 100 30 102 31 103 16 104 25 105 24 106 16 104 24 106 19 107 37 108 13 109 12 110 37 108 12 110 0 111 36 112 37 113 38 114 36 112 38 114 39 115 15 116 26 117 25 118 15 116 25 118 16 119 37 120 0 121 3 122 37 120 3 122 38 123 16 124 19 125 22 126 16 124 22 126 17 127 34 128 36 129 39 130 34 128 39 130 35 131 6 132 5 133 32 134 6 132 32 134 33 135 0 136 1 137 2 138 0 136 2 138 3 139</p>
                </triangles>
                <triangles count="18" material="default_ai_0.2_sh_0.2_tr_0.0_dc_r_1.0_g_0.2_b_0.2_sc_r_1.0_g_1.0_b_1.0_ec_r_0.0_g_0.0_b_0_tri">
                    <input offset="0" semantic="VERTEX" source="#geometry0-vertex"/>
                    <input offset="1" semantic="NORMAL" source="#geometry0-normal"/>
                    <p>5 4 6 5 4 6 6 5 7 7 4 6 4 6 7 7 14 8 7 7 8 9 14 8 8 9 9 10 14 8 14 8 9 10 13 11 13 11 9 10 12 12 12 12 9 10 11 13 11 13 9 10 10 14 9 57 27 58 30 59 9 57 30 59 29 60 9 57 29 60 10 61 23 62 24 63 8 64 23 62 8 64 7 65 8 86 24 87 25 88 8 86 25 88 26 89 8 86 26 89 27 90 8 86 27 90 9 91</p>
                </triangles>
            </mesh>
        </geometry>
    </library_geometries>
    <library_visual_scenes>
        <visual_scene id="Building_DEBW_5221000QlQj">
            <node>
                <instance_geometry url="#geometry0">
                    <bind_material>
                        <technique_common>
                            <instance_material symbol="default_ai_0.2_sh_0.2_tr_0.0_dc_r_0.8_g_0.8_b_0.8_sc_r_1.0_g_1.0_b_1.0_ec_r_0.0_g_0.0_b_0_tri" target="#default_ai_0.2_sh_0.2_tr_0.0_dc_r_0.8_g_0.8_b_0.8_sc_r_1.0_g_1.0_b_1.0_ec_r_0.0_g_0.0_b_0_mat"/>
                            <instance_material symbol="default_ai_0.2_sh_0.2_tr_0.0_dc_r_1.0_g_0.2_b_0.2_sc_r_1.0_g_1.0_b_1.0_ec_r_0.0_g_0.0_b_0_tri" target="#default_ai_0.2_sh_0.2_tr_0.0_dc_r_1.0_g_0.2_b_0.2_sc_r_1.0_g_1.0_b_1.0_ec_r_0.0_g_0.0_b_0_mat"/>
                        </technique_common>
                    </bind_material>
                </instance_geometry>
            </node>
        </visual_scene>
    </library_visual_scenes>
    <scene>
        <instance_visual_scene url="#Building_DEBW_5221000QlQj"/>
    </scene>
</COLLADA>
