<?xml version="1.0" encoding="UTF-8" standalone="yes"?>
<COLLADA xmlns="http://www.collada.org/2005/11/COLLADASchema" version="1.4.1">
    <asset>
        <contributor>
            <authoring_tool>3D City Database Importer/Exporter, version 5.5.3; Chair of Geoinformatics, Technical University of Munich</authoring_tool>
        </contributor>
        <created>2026-05-06T15:12:06.934</created>
        <modified>2026-05-06T15:12:06.934</modified>
        <unit meter="1.0" name="meters"/>
        <up_axis>Z_UP</up_axis>
    </asset>
    <library_materials>
        <material id="default_ai_0.2_sh_0.2_tr_0.0_dc_r_0.8_g_0.8_b_0.8_sc_r_1.0_g_1.0_b_1.0_ec_r_0.0_g_0.0_b_0_mat">
            <instance_effect url="#default_ai_0.2_sh_0.2_tr_0.0_dc_r_0.8_g_0.8_b_0.8_sc_r_1.0_g_1.0_b_1.0_ec_r_0.0_g_0.0_b_0_eff"/>
        </material>
        <material id="default_ai_0.2_sh_0.2_tr_0.0_dc_r_1.0_g_0.2_b_0.2_sc_r_1.0_g_1.0_b_1.0_ec_r_0.0_g_0.0_b_0_mat">
            <instance_effect url="#default_ai_0.2_sh_0.2_tr_0.0_dc_r_1.0_g_0.2_b_0.2_sc_r_1.0_g_1.0_b_1.0_ec_r_0.0_g_0.0_b_0_eff"/>
        </material>
    </library_materials>
    <library_effects>
        <effect id="default_ai_0.2_sh_0.2_tr_0.0_dc_r_0.8_g_0.8_b_0.8_sc_r_1.0_g_1.0_b_1.0_ec_r_0.0_g_0.0_b_0_eff">
            <profile_COMMON>
                <technique sid="COMMON">
                    <lambert>
                        <emission>
                            <color>0.0 0.0 0.0 1.0</color>
                        </emission>
                        <diffuse>
                            <color>0.8 0.8 0.8 1.0</color>
                        </diffuse>
                        <reflective>
                            <color>1.0 1.0 1.0 1.0</color>
                        </reflective>
                        <reflectivity>
                            <float>0.2</float>
                        </reflectivity>
                        <transparent opaque="A_ONE">
                            <color>1.0 1.0 1.0 1.0</color>
                        </transparent>
                        <transparency>
                            <float>1.0</float>
                        </transparency>
                    </lambert>
                </technique>
                <extra>
                    <technique profile="GOOGLEEARTH">
                        <double_sided>0</double_sided>
                    </technique>
                </extra>
            </profile_COMMON>
        </effect>
        <effect id="default_ai_0.2_sh_0.2_tr_0.0_dc_r_1.0_g_0.2_b_0.2_sc_r_1.0_g_1.0_b_1.0_ec_r_0.0_g_0.0_b_0_eff">
            <profile_COMMON>
                <technique sid="COMMON">
                    <lambert>
                        <emission>
                            <color>0.0 0.0 0.0 1.0</color>
                        </emission>
                        <diffuse>
                            <color>1.0 0.2 0.2 1.0</color>
                        </diffuse>
                        <reflective>
                            <color>1.0 1.0 1.0 1.0</color>
                        </reflective>
                        <reflectivity>
                            <float>0.2</float>
                        </reflectivity>
                        <transparent opaque="A_ONE">
                            <color>1.0 1.0 1.0 1.0</color>
                        </transparent>
                        <transparency>
                            <float>1.0</float>
                        </transparency>
                    </lambert>
                </technique>
                <extra>
                    <technique profile="GOOGLEEARTH">
                        <double_sided>0</double_sided>
                    </technique>
                </extra>
            </profile_COMMON>
        </effect>
    </library_effects>
    <library_geometries>
        <geometry id="geometry0">
            <mesh>
                <source id="geometry0-position">
                    <float_array id="geometry0-position-array" count="54">-0.07 0.0 12.668 0.0 0.0 12.667 0.0 0.0 0.0 -0.07 0.0 0.0 0.06 -4.54 9.388 9.71 -4.27 9.388 9.59 0.26 12.661 9.53 0.26 12.662 9.491 1.74 13.731 -0.039 1.474 13.731 9.33 7.8 9.28 -0.2 7.54 9.276 -0.2 7.54 0.0 9.33 7.8 0.0 9.53 0.26 0.0 9.59 0.26 0.0 9.71 -4.27 0.0 0.06 -4.54 0.0</float_array>
                    <technique_common>
                        <accessor count="18" source="#geometry0-position-array" stride="3">
                            <param name="X" type="float"/>
                            <param name="Y" type="float"/>
                            <param name="Z" type="float"/>
                        </accessor>
                    </technique_common>
                </source>
                <source id="geometry0-normal">
                    <float_array id="geometry0-normal-array" count="174">-0.999649 -0.0264903 5.68E-5 -0.999649 -0.0264903 5.68E-5 -0.999649 -0.0264903 5.68E-5 0.0279683 -0.9996088 0.0 0.0279683 -0.9996088 0.0 0.0279683 -0.9996088 0.0 0.0279683 -0.9996088 0.0 0.0 0.0 -1.0 0.0 0.0 -1.0 0.0 0.0 -1.0 0.0 0.0 -1.0 0.0 0.0 -1.0 0.0 0.0 -1.0 0.0 0.0 -1.0 0.0 0.0 -1.0 0.0152405 -0.5728266 0.8195349 0.0115859 -0.5853637 0.810688 0.0139809 -0.585325 0.8106782 0.0163755 -0.5852834 0.8106635 0.0153719 -0.5476844 0.8365438 0.0153794 -0.5476247 0.8365827 0.0163583 -0.585048 0.8108337 0.0163264 -0.5849277 0.8109211 -0.9996484 -0.0265159 0.0 -0.9996484 -0.0265159 0.0 -0.9996484 -0.0265159 0.0 -0.9996484 -0.0265159 0.0 0.9996484 0.0265158 0.0 0.9996484 0.0265158 0.0 0.9996484 0.0265158 0.0 0.9996484 0.0265158 0.0 -0.0272721 0.9996281 0.0 -0.0272721 0.9996281 0.0 -0.0272721 0.9996281 0.0 -0.0272721 0.9996281 0.0 0.0 1.0 0.0 0.0 1.0 0.0 0.0 1.0 0.0 0.0 1.0 0.0 0.9996493 0.0264808 0.0 0.9996493 0.0264808 0.0 0.9996493 0.0264808 0.0 0.9996493 0.0264808 0.0 -0.0164952 0.5915862 0.806073 -0.0165127 0.5916032 0.8060603 -0.0164952 0.5915862 0.806073 -0.0164777 0.5915693 0.8060859 0.9996501 0.0264492 -1.487E-4 0.9996501 0.0264492 -1.487E-4 0.9996501 0.0264492 -1.487E-4 -0.9995903 -0.0286226 0.0 -0.9995903 -0.0286226 0.0 -0.9995903 -0.0286226 0.0 -0.9995903 -0.0286226 0.0 0.0 1.0 0.0 0.0 1.0 0.0 0.0 1.0 0.0 0.0 1.0 0.0</float_array>
                    <technique_common>
                        <accessor count="58" source="#geometry0-normal-array" stride="3">
                            <param name="X" type="float"/>
                            <param name="Y" type="float"/>
                            <param name="Z" type="float"/>
                        </accessor>
                    </technique_common>
                </source>
                <vertices id="geometry0-vertex">
                    <input semantic="POSITION" source="#geometry0-position"/>
                </vertices>
                <triangles count="24" material="default_ai_0.2_sh_0.2_tr_0.0_dc_r_0.8_g_0.8_b_0.8_sc_r_1.0_g_1.0_b_1.0_ec_r_0.0_g_0.0_b_0_tri">
                    <input offset="0" semantic="VERTEX" source="#geometry0-vertex"/>
                    <input offset="1" semantic="NORMAL" source="#geometry0-normal"/>
                    <p>11 0 1 1 9 2 5 3 4 4 17 5 5 3 17 5 16 6 2 7 12 8 13 9 2 7 13 9 14 10 2 7 14 10 15 11 2 7 15 11 16 12 2 7 16 12 17 13 2 7 17 13 3 14 1 23 11 24 12 25 1 23 12 25 2 26 10 27 7 28 14 29 10 27 14 29 13 30 11 31 10 32 13 33 11 31 13 33 12 34 7 35 6 36 15 37 7 35 15 37 14 38 6 39 5 40 16 41 6 39 16 41 15 42 7 47 10 48 8 49 4 50 0 51 3 52 4 50 3 52 17 53 0 54 1 55 2 56 0 54 2 56 3 57</p>
                </triangles>
                <triangles count="8" material="default_ai_0.2_sh_0.2_tr_0.0_dc_r_1.0_g_0.2_b_0.2_sc_r_1.0_g_1.0_b_1.0_ec_r_0.0_g_0.0_b_0_tri">
                    <input offset="0" semantic="VERTEX" source="#geometry0-vertex"/>
                    <input offset="1" semantic="NORMAL" source="#geometry0-normal"/>
                    <p>1 15 0 16 4 17 1 15 4 17 5 18 1 15 5 18 6 19 1 15 6 19 7 20 1 15 7 20 8 21 1 15 8 21 9 22 9 43 8 44 10 45 9 43 10 45 11 46</p>
                </triangles>
            </mesh>
        </geometry>
    </library_geometries>
    <library_visual_scenes>
        <visual_scene id="Building_DEBW_5221000QYbi">
            <node>
                <instance_geometry url="#geometry0">
                    <bind_material>
                        <technique_common>
                            <instance_material symbol="default_ai_0.2_sh_0.2_tr_0.0_dc_r_0.8_g_0.8_b_0.8_sc_r_1.0_g_1.0_b_1.0_ec_r_0.0_g_0.0_b_0_tri" target="#default_ai_0.2_sh_0.2_tr_0.0_dc_r_0.8_g_0.8_b_0.8_sc_r_1.0_g_1.0_b_1.0_ec_r_0.0_g_0.0_b_0_mat"/>
                            <instance_material symbol="default_ai_0.2_sh_0.2_tr_0.0_dc_r_1.0_g_0.2_b_0.2_sc_r_1.0_g_1.0_b_1.0_ec_r_0.0_g_0.0_b_0_tri" target="#default_ai_0.2_sh_0.2_tr_0.0_dc_r_1.0_g_0.2_b_0.2_sc_r_1.0_g_1.0_b_1.0_ec_r_0.0_g_0.0_b_0_mat"/>
                        </technique_common>
                    </bind_material>
                </instance_geometry>
            </node>
        </visual_scene>
    </library_visual_scenes>
    <scene>
        <instance_visual_scene url="#Building_DEBW_5221000QYbi"/>
    </scene>
</COLLADA>
