<?xml version="1.0" encoding="UTF-8" standalone="yes"?>
<COLLADA xmlns="http://www.collada.org/2005/11/COLLADASchema" version="1.4.1">
    <asset>
        <contributor>
            <authoring_tool>3D City Database Importer/Exporter, version 5.5.3; Chair of Geoinformatics, Technical University of Munich</authoring_tool>
        </contributor>
        <created>2026-05-06T15:12:12.489</created>
        <modified>2026-05-06T15:12:12.489</modified>
        <unit meter="1.0" name="meters"/>
        <up_axis>Z_UP</up_axis>
    </asset>
    <library_materials>
        <material id="default_ai_0.2_sh_0.2_tr_0.0_dc_r_0.8_g_0.8_b_0.8_sc_r_1.0_g_1.0_b_1.0_ec_r_0.0_g_0.0_b_0_mat">
            <instance_effect url="#default_ai_0.2_sh_0.2_tr_0.0_dc_r_0.8_g_0.8_b_0.8_sc_r_1.0_g_1.0_b_1.0_ec_r_0.0_g_0.0_b_0_eff"/>
        </material>
        <material id="default_ai_0.2_sh_0.2_tr_0.0_dc_r_1.0_g_0.2_b_0.2_sc_r_1.0_g_1.0_b_1.0_ec_r_0.0_g_0.0_b_0_mat">
            <instance_effect url="#default_ai_0.2_sh_0.2_tr_0.0_dc_r_1.0_g_0.2_b_0.2_sc_r_1.0_g_1.0_b_1.0_ec_r_0.0_g_0.0_b_0_eff"/>
        </material>
    </library_materials>
    <library_effects>
        <effect id="default_ai_0.2_sh_0.2_tr_0.0_dc_r_0.8_g_0.8_b_0.8_sc_r_1.0_g_1.0_b_1.0_ec_r_0.0_g_0.0_b_0_eff">
            <profile_COMMON>
                <technique sid="COMMON">
                    <lambert>
                        <emission>
                            <color>0.0 0.0 0.0 1.0</color>
                        </emission>
                        <diffuse>
                            <color>0.8 0.8 0.8 1.0</color>
                        </diffuse>
                        <reflective>
                            <color>1.0 1.0 1.0 1.0</color>
                        </reflective>
                        <reflectivity>
                            <float>0.2</float>
                        </reflectivity>
                        <transparent opaque="A_ONE">
                            <color>1.0 1.0 1.0 1.0</color>
                        </transparent>
                        <transparency>
                            <float>1.0</float>
                        </transparency>
                    </lambert>
                </technique>
                <extra>
                    <technique profile="GOOGLEEARTH">
                        <double_sided>0</double_sided>
                    </technique>
                </extra>
            </profile_COMMON>
        </effect>
        <effect id="default_ai_0.2_sh_0.2_tr_0.0_dc_r_1.0_g_0.2_b_0.2_sc_r_1.0_g_1.0_b_1.0_ec_r_0.0_g_0.0_b_0_eff">
            <profile_COMMON>
                <technique sid="COMMON">
                    <lambert>
                        <emission>
                            <color>0.0 0.0 0.0 1.0</color>
                        </emission>
                        <diffuse>
                            <color>1.0 0.2 0.2 1.0</color>
                        </diffuse>
                        <reflective>
                            <color>1.0 1.0 1.0 1.0</color>
                        </reflective>
                        <reflectivity>
                            <float>0.2</float>
                        </reflectivity>
                        <transparent opaque="A_ONE">
                            <color>1.0 1.0 1.0 1.0</color>
                        </transparent>
                        <transparency>
                            <float>1.0</float>
                        </transparency>
                    </lambert>
                </technique>
                <extra>
                    <technique profile="GOOGLEEARTH">
                        <double_sided>0</double_sided>
                    </technique>
                </extra>
            </profile_COMMON>
        </effect>
    </library_effects>
    <library_geometries>
        <geometry id="geometry0">
            <mesh>
                <source id="geometry0-position">
                    <float_array id="geometry0-position-array" count="60">-12.152 1.624 6.093 -9.71 -2.21 6.093 -7.85 -5.13 6.093 0.02 -0.03 6.093 0.0 0.0 6.093 -1.38 -0.89 6.093 -5.7 5.77 6.093 0.0 0.0 0.0 -1.38 -0.89 0.0 -5.7 5.77 0.0 0.02 -0.03 0.0 -7.85 -5.13 0.0 -9.71 -2.21 0.0 -12.152 1.624 0.0 -12.152 1.624 3.297 -9.71 -2.21 3.297 -12.24 -3.84 0.0 -14.71 -0.02 0.0 -12.24 -3.84 3.297 -14.71 -0.02 3.297</float_array>
                    <technique_common>
                        <accessor count="20" source="#geometry0-position-array" stride="3">
                            <param name="X" type="float"/>
                            <param name="Y" type="float"/>
                            <param name="Z" type="float"/>
                        </accessor>
                    </technique_common>
                </source>
                <source id="geometry0-normal">
                    <float_array id="geometry0-normal-array" count="216">0.0 0.0 -1.0 0.0 0.0 -1.0 0.0 0.0 -1.0 0.0 0.0 -1.0 0.0 0.0 -1.0 0.0 0.0 -1.0 0.0 0.0 -1.0 -0.843444 -0.5372172 0.0 -0.843444 -0.5372172 0.0 -0.843444 -0.5372172 0.0 -0.843444 -0.5372172 0.0 0.8389613 0.5441911 0.0 0.8389613 0.5441911 0.0 0.8389613 0.5441911 0.0 0.8389613 0.5441911 0.0 0.0 0.0 -1.0 0.0 0.0 -1.0 0.0 0.0 -1.0 0.0 0.0 -1.0 -0.843444 -0.5372171 0.0 -0.843444 -0.5372171 0.0 -0.843444 -0.5372171 0.0 -0.843444 -0.5372171 0.0 -0.5405993 0.8412802 0.0 -0.5405993 0.8412802 0.0 -0.5405993 0.8412802 0.0 -0.5405993 0.8412802 0.0 -0.5405994 0.8412802 0.0 -0.5406579 0.8412426 0.0 -0.5406579 0.8412426 0.0 -0.5406579 0.8412426 0.0 -0.5406579 0.8412426 0.0 -0.5419882 0.8403861 0.0 -0.5419882 0.8403861 0.0 -0.5419882 0.8403861 0.0 -0.5419882 0.8403861 0.0 0.843444 0.5372171 0.0 0.843444 0.5372171 0.0 0.843444 0.5372171 0.0 0.843444 0.5372171 0.0 0.5438259 -0.8391981 0.0 0.5438259 -0.8391981 0.0 0.5438259 -0.8391981 0.0 0.5438259 -0.8391981 0.0 -0.8434235 -0.5372493 0.0 -0.8434235 -0.5372493 0.0 -0.8434235 -0.5372493 0.0 -0.8434235 -0.5372493 0.0 -0.8434235 -0.5372493 0.0 0.0 0.0 1.0 0.0 0.0 1.0 0.0 0.0 1.0 0.0 0.0 1.0 0.0 0.0 1.0 0.0 0.0 1.0 0.0 0.0 1.0 0.541597 -0.8406382 0.0 0.541597 -0.8406382 0.0 0.541597 -0.8406382 0.0 0.541597 -0.8406382 0.0 -0.839747 -0.5429779 0.0 -0.839747 -0.5429779 0.0 -0.839747 -0.5429779 0.0 -0.839747 -0.5429779 0.0 0.0 0.0 1.0 0.0 0.0 1.0 0.0 0.0 1.0 0.0 0.0 1.0 0.8320504 0.5547002 0.0 0.8320504 0.5547002 0.0 0.8320504 0.5547002 0.0 0.8320504 0.5547002 0.0</float_array>
                    <technique_common>
                        <accessor count="72" source="#geometry0-normal-array" stride="3">
                            <param name="X" type="float"/>
                            <param name="Y" type="float"/>
                            <param name="Z" type="float"/>
                        </accessor>
                    </technique_common>
                </source>
                <vertices id="geometry0-vertex">
                    <input semantic="POSITION" source="#geometry0-position"/>
                </vertices>
                <triangles count="33" material="default_ai_0.2_sh_0.2_tr_0.0_dc_r_0.8_g_0.8_b_0.8_sc_r_1.0_g_1.0_b_1.0_ec_r_0.0_g_0.0_b_0_tri">
                    <input offset="0" semantic="VERTEX" source="#geometry0-vertex"/>
                    <input offset="1" semantic="NORMAL" source="#geometry0-normal"/>
                    <p>12 0 13 1 9 2 12 0 9 2 8 3 11 4 12 0 8 3 11 4 8 3 7 5 11 4 7 5 10 6 14 7 15 8 1 9 14 7 1 9 0 10 6 11 5 12 8 13 6 11 8 13 9 14 12 15 16 16 17 17 12 15 17 17 13 18 14 19 13 20 12 21 14 19 12 21 15 22 9 23 13 24 14 25 9 23 14 25 0 26 9 23 0 26 6 27 19 28 14 29 13 30 19 28 13 30 17 31 5 32 4 33 7 34 5 32 7 34 8 35 12 36 13 37 14 38 12 36 14 38 15 39 3 40 2 41 11 42 3 40 11 42 10 43 12 44 11 45 2 46 15 47 12 44 2 46 15 47 2 46 1 48 15 56 18 57 16 58 15 56 16 58 12 59 18 60 19 61 17 62 18 60 17 62 16 63 4 68 3 69 10 70 4 68 10 70 7 71</p>
                </triangles>
                <triangles count="7" material="default_ai_0.2_sh_0.2_tr_0.0_dc_r_1.0_g_0.2_b_0.2_sc_r_1.0_g_1.0_b_1.0_ec_r_0.0_g_0.0_b_0_tri">
                    <input offset="0" semantic="VERTEX" source="#geometry0-vertex"/>
                    <input offset="1" semantic="NORMAL" source="#geometry0-normal"/>
                    <p>5 49 6 50 0 51 5 49 0 51 1 52 5 49 1 52 2 53 5 49 2 53 3 54 5 49 3 54 4 55 14 64 19 65 18 66 14 64 18 66 15 67</p>
                </triangles>
            </mesh>
        </geometry>
    </library_geometries>
    <library_visual_scenes>
        <visual_scene id="Building_DEBW_5221000Qu0w">
            <node>
                <instance_geometry url="#geometry0">
                    <bind_material>
                        <technique_common>
                            <instance_material symbol="default_ai_0.2_sh_0.2_tr_0.0_dc_r_0.8_g_0.8_b_0.8_sc_r_1.0_g_1.0_b_1.0_ec_r_0.0_g_0.0_b_0_tri" target="#default_ai_0.2_sh_0.2_tr_0.0_dc_r_0.8_g_0.8_b_0.8_sc_r_1.0_g_1.0_b_1.0_ec_r_0.0_g_0.0_b_0_mat"/>
                            <instance_material symbol="default_ai_0.2_sh_0.2_tr_0.0_dc_r_1.0_g_0.2_b_0.2_sc_r_1.0_g_1.0_b_1.0_ec_r_0.0_g_0.0_b_0_tri" target="#default_ai_0.2_sh_0.2_tr_0.0_dc_r_1.0_g_0.2_b_0.2_sc_r_1.0_g_1.0_b_1.0_ec_r_0.0_g_0.0_b_0_mat"/>
                        </technique_common>
                    </bind_material>
                </instance_geometry>
            </node>
        </visual_scene>
    </library_visual_scenes>
    <scene>
        <instance_visual_scene url="#Building_DEBW_5221000Qu0w"/>
    </scene>
</COLLADA>
