<?xml version="1.0" encoding="UTF-8" standalone="yes"?>
<COLLADA xmlns="http://www.collada.org/2005/11/COLLADASchema" version="1.4.1">
    <asset>
        <contributor>
            <authoring_tool>3D City Database Importer/Exporter, version 5.5.3; Chair of Geoinformatics, Technical University of Munich</authoring_tool>
        </contributor>
        <created>2026-05-06T15:12:05.336</created>
        <modified>2026-05-06T15:12:05.336</modified>
        <unit meter="1.0" name="meters"/>
        <up_axis>Z_UP</up_axis>
    </asset>
    <library_materials>
        <material id="default_ai_0.2_sh_0.2_tr_0.0_dc_r_0.8_g_0.8_b_0.8_sc_r_1.0_g_1.0_b_1.0_ec_r_0.0_g_0.0_b_0_mat">
            <instance_effect url="#default_ai_0.2_sh_0.2_tr_0.0_dc_r_0.8_g_0.8_b_0.8_sc_r_1.0_g_1.0_b_1.0_ec_r_0.0_g_0.0_b_0_eff"/>
        </material>
        <material id="default_ai_0.2_sh_0.2_tr_0.0_dc_r_1.0_g_0.2_b_0.2_sc_r_1.0_g_1.0_b_1.0_ec_r_0.0_g_0.0_b_0_mat">
            <instance_effect url="#default_ai_0.2_sh_0.2_tr_0.0_dc_r_1.0_g_0.2_b_0.2_sc_r_1.0_g_1.0_b_1.0_ec_r_0.0_g_0.0_b_0_eff"/>
        </material>
    </library_materials>
    <library_effects>
        <effect id="default_ai_0.2_sh_0.2_tr_0.0_dc_r_0.8_g_0.8_b_0.8_sc_r_1.0_g_1.0_b_1.0_ec_r_0.0_g_0.0_b_0_eff">
            <profile_COMMON>
                <technique sid="COMMON">
                    <lambert>
                        <emission>
                            <color>0.0 0.0 0.0 1.0</color>
                        </emission>
                        <diffuse>
                            <color>0.8 0.8 0.8 1.0</color>
                        </diffuse>
                        <reflective>
                            <color>1.0 1.0 1.0 1.0</color>
                        </reflective>
                        <reflectivity>
                            <float>0.2</float>
                        </reflectivity>
                        <transparent opaque="A_ONE">
                            <color>1.0 1.0 1.0 1.0</color>
                        </transparent>
                        <transparency>
                            <float>1.0</float>
                        </transparency>
                    </lambert>
                </technique>
                <extra>
                    <technique profile="GOOGLEEARTH">
                        <double_sided>0</double_sided>
                    </technique>
                </extra>
            </profile_COMMON>
        </effect>
        <effect id="default_ai_0.2_sh_0.2_tr_0.0_dc_r_1.0_g_0.2_b_0.2_sc_r_1.0_g_1.0_b_1.0_ec_r_0.0_g_0.0_b_0_eff">
            <profile_COMMON>
                <technique sid="COMMON">
                    <lambert>
                        <emission>
                            <color>0.0 0.0 0.0 1.0</color>
                        </emission>
                        <diffuse>
                            <color>1.0 0.2 0.2 1.0</color>
                        </diffuse>
                        <reflective>
                            <color>1.0 1.0 1.0 1.0</color>
                        </reflective>
                        <reflectivity>
                            <float>0.2</float>
                        </reflectivity>
                        <transparent opaque="A_ONE">
                            <color>1.0 1.0 1.0 1.0</color>
                        </transparent>
                        <transparency>
                            <float>1.0</float>
                        </transparency>
                    </lambert>
                </technique>
                <extra>
                    <technique profile="GOOGLEEARTH">
                        <double_sided>0</double_sided>
                    </technique>
                </extra>
            </profile_COMMON>
        </effect>
    </library_effects>
    <library_geometries>
        <geometry id="geometry0">
            <mesh>
                <source id="geometry0-position">
                    <float_array id="geometry0-position-array" count="57">0.04 7.58 3.791 0.0 0.0 3.79 0.0 0.0 3.198 0.0 0.0 0.0 0.04 7.58 0.0 -4.26 7.6 0.0 -4.297 0.029 0.0 -4.26 7.6 3.182 -4.297 0.029 3.182 -4.184 0.028 3.198 -0.971 -3.336 3.788 -0.387 -3.34 3.788 2.97 -0.02 3.198 -4.297 0.029 3.198 2.94 -6.7 3.198 2.94 -6.7 0.0 2.97 -0.02 0.0 -4.33 -6.66 3.198 -4.33 -6.66 0.0</float_array>
                    <technique_common>
                        <accessor count="19" source="#geometry0-position-array" stride="3">
                            <param name="X" type="float"/>
                            <param name="Y" type="float"/>
                            <param name="Z" type="float"/>
                        </accessor>
                    </technique_common>
                </source>
                <source id="geometry0-normal">
                    <float_array id="geometry0-normal-array" count="228">0.9999861 -0.005277 0.0 0.9999861 -0.005277 0.0 0.9999861 -0.005277 0.0 0.9999861 -0.005277 0.0 0.9999861 -0.005277 0.0 0.0 0.0 -1.0 0.0 0.0 -1.0 0.0 0.0 -1.0 0.0 0.0 -1.0 -0.0010728 -0.1737341 0.984792 -0.001189 -0.1736003 0.9848155 -0.0010728 -0.1737341 0.984792 -9.566E-4 -0.1738679 0.9847685 0.0 0.0 -1.0 0.0 0.0 -1.0 0.0 0.0 -1.0 0.0 0.0 -1.0 0.0 0.0 -1.0 -0.006692 -0.9999776 0.0 -0.006692 -0.9999776 0.0 -0.006692 -0.9999776 0.0 0.0067339 0.9999774 0.0 0.0067339 0.9999774 0.0 0.0067339 0.9999774 0.0 0.0067339 0.9999774 0.0 0.0046511 0.9999892 0.0 0.0046511 0.9999892 0.0 0.0046511 0.9999892 0.0 0.0046511 0.9999892 0.0 -0.0067297 -0.9999645 -0.0050783 -0.0066912 -0.9998615 -0.0152344 -0.0067202 -0.9999484 -0.0076174 -0.0067487 -0.9999772 0.0 -0.0067487 -0.9999773 0.0 -0.9999878 0.0049334 0.0 -0.9999878 0.0049334 0.0 -0.9999878 0.0049334 0.0 -0.9999878 0.0049334 0.0 -0.9999878 0.0049334 0.0 0.0088492 0.9999608 0.0 0.0088492 0.9999608 0.0 0.0088492 0.9999608 0.0 0.00743 0.9999723 2.47E-5 0.006692 0.9999776 0.0 0.0067204 0.9999774 3.71E-5 0.007799 0.9999697 3.71E-5 0.0088492 0.9999608 0.0 0.173848 -7.808E-4 0.9847723 0.173848 -7.808E-4 0.9847723 0.173848 -7.808E-4 0.9847723 -0.1401688 6.527E-4 0.9901274 -0.1402253 6.853E-4 0.9901194 -0.1402072 6.747E-4 0.990122 -0.1401405 6.364E-4 0.9901314 -0.140092 6.087E-4 0.9901383 9.774E-4 0.1308387 0.9914032 0.0015414 0.1741776 0.984713 0.0013661 0.1740152 0.984742 0.0011785 0.1738394 0.9847733 5.854E-4 0.0872457 0.9961866 0.0 0.0 1.0 0.9999899 -0.004491 0.0 0.9999899 -0.004491 0.0 0.9999899 -0.004491 0.0 0.9999899 -0.004491 0.0 -0.1738222 8.575E-4 0.9847767 -0.1738222 8.575E-4 0.9847767 -0.1738222 8.575E-4 0.9847767 -0.9999881 0.004887 0.0 -0.9999881 0.004887 0.0 -0.9999881 0.004887 0.0 -0.9999881 0.004887 0.0 -0.005502 -0.9999849 0.0 -0.005502 -0.9999849 0.0 -0.005502 -0.9999849 0.0 -0.005502 -0.9999849 0.0</float_array>
                    <technique_common>
                        <accessor count="76" source="#geometry0-normal-array" stride="3">
                            <param name="X" type="float"/>
                            <param name="Y" type="float"/>
                            <param name="Z" type="float"/>
                        </accessor>
                    </technique_common>
                </source>
                <vertices id="geometry0-vertex">
                    <input semantic="POSITION" source="#geometry0-position"/>
                </vertices>
                <triangles count="29" material="default_ai_0.2_sh_0.2_tr_0.0_dc_r_0.8_g_0.8_b_0.8_sc_r_1.0_g_1.0_b_1.0_ec_r_0.0_g_0.0_b_0_tri">
                    <input offset="0" semantic="VERTEX" source="#geometry0-vertex"/>
                    <input offset="1" semantic="NORMAL" source="#geometry0-normal"/>
                    <p>3 0 4 1 0 2 2 3 3 0 0 2 2 3 0 2 1 4 5 5 4 6 3 7 5 5 3 7 6 8 3 13 16 14 15 15 3 13 15 15 18 16 3 13 18 16 6 17 9 18 2 19 1 20 2 21 12 22 16 23 2 21 16 23 3 24 7 25 0 26 4 27 7 25 4 27 5 28 2 29 9 30 8 31 2 29 8 31 6 32 2 29 6 32 3 33 6 34 18 35 17 36 8 37 6 34 17 36 8 37 17 36 13 38 9 39 8 40 13 41 9 42 2 43 3 44 9 42 3 44 6 45 9 42 6 45 8 46 12 61 14 62 15 63 12 61 15 63 16 64 8 68 7 69 5 70 8 68 5 70 6 71 14 72 17 73 18 74 14 72 18 74 15 75</p>
                </triangles>
                <triangles count="11" material="default_ai_0.2_sh_0.2_tr_0.0_dc_r_1.0_g_0.2_b_0.2_sc_r_1.0_g_1.0_b_1.0_ec_r_0.0_g_0.0_b_0_tri">
                    <input offset="0" semantic="VERTEX" source="#geometry0-vertex"/>
                    <input offset="1" semantic="NORMAL" source="#geometry0-normal"/>
                    <p>11 9 10 10 17 11 11 9 17 11 14 12 11 47 14 48 12 49 0 50 7 51 8 52 0 50 8 52 9 53 0 50 9 53 1 54 9 55 13 56 10 57 9 55 10 57 11 58 9 55 11 58 12 59 9 55 12 59 2 60 10 65 13 66 17 67</p>
                </triangles>
            </mesh>
        </geometry>
    </library_geometries>
    <library_visual_scenes>
        <visual_scene id="Building_DEBW_5221000c8EA">
            <node>
                <instance_geometry url="#geometry0">
                    <bind_material>
                        <technique_common>
                            <instance_material symbol="default_ai_0.2_sh_0.2_tr_0.0_dc_r_0.8_g_0.8_b_0.8_sc_r_1.0_g_1.0_b_1.0_ec_r_0.0_g_0.0_b_0_tri" target="#default_ai_0.2_sh_0.2_tr_0.0_dc_r_0.8_g_0.8_b_0.8_sc_r_1.0_g_1.0_b_1.0_ec_r_0.0_g_0.0_b_0_mat"/>
                            <instance_material symbol="default_ai_0.2_sh_0.2_tr_0.0_dc_r_1.0_g_0.2_b_0.2_sc_r_1.0_g_1.0_b_1.0_ec_r_0.0_g_0.0_b_0_tri" target="#default_ai_0.2_sh_0.2_tr_0.0_dc_r_1.0_g_0.2_b_0.2_sc_r_1.0_g_1.0_b_1.0_ec_r_0.0_g_0.0_b_0_mat"/>
                        </technique_common>
                    </bind_material>
                </instance_geometry>
            </node>
        </visual_scene>
    </library_visual_scenes>
    <scene>
        <instance_visual_scene url="#Building_DEBW_5221000c8EA"/>
    </scene>
</COLLADA>
