<?xml version="1.0" encoding="UTF-8" standalone="yes"?>
<COLLADA xmlns="http://www.collada.org/2005/11/COLLADASchema" version="1.4.1">
    <asset>
        <contributor>
            <authoring_tool>3D City Database Importer/Exporter, version 5.5.3; Chair of Geoinformatics, Technical University of Munich</authoring_tool>
        </contributor>
        <created>2026-05-06T15:12:08.303</created>
        <modified>2026-05-06T15:12:08.303</modified>
        <unit meter="1.0" name="meters"/>
        <up_axis>Z_UP</up_axis>
    </asset>
    <library_materials>
        <material id="default_ai_0.2_sh_0.2_tr_0.0_dc_r_0.8_g_0.8_b_0.8_sc_r_1.0_g_1.0_b_1.0_ec_r_0.0_g_0.0_b_0_mat">
            <instance_effect url="#default_ai_0.2_sh_0.2_tr_0.0_dc_r_0.8_g_0.8_b_0.8_sc_r_1.0_g_1.0_b_1.0_ec_r_0.0_g_0.0_b_0_eff"/>
        </material>
        <material id="default_ai_0.2_sh_0.2_tr_0.0_dc_r_1.0_g_0.2_b_0.2_sc_r_1.0_g_1.0_b_1.0_ec_r_0.0_g_0.0_b_0_mat">
            <instance_effect url="#default_ai_0.2_sh_0.2_tr_0.0_dc_r_1.0_g_0.2_b_0.2_sc_r_1.0_g_1.0_b_1.0_ec_r_0.0_g_0.0_b_0_eff"/>
        </material>
    </library_materials>
    <library_effects>
        <effect id="default_ai_0.2_sh_0.2_tr_0.0_dc_r_0.8_g_0.8_b_0.8_sc_r_1.0_g_1.0_b_1.0_ec_r_0.0_g_0.0_b_0_eff">
            <profile_COMMON>
                <technique sid="COMMON">
                    <lambert>
                        <emission>
                            <color>0.0 0.0 0.0 1.0</color>
                        </emission>
                        <diffuse>
                            <color>0.8 0.8 0.8 1.0</color>
                        </diffuse>
                        <reflective>
                            <color>1.0 1.0 1.0 1.0</color>
                        </reflective>
                        <reflectivity>
                            <float>0.2</float>
                        </reflectivity>
                        <transparent opaque="A_ONE">
                            <color>1.0 1.0 1.0 1.0</color>
                        </transparent>
                        <transparency>
                            <float>1.0</float>
                        </transparency>
                    </lambert>
                </technique>
                <extra>
                    <technique profile="GOOGLEEARTH">
                        <double_sided>0</double_sided>
                    </technique>
                </extra>
            </profile_COMMON>
        </effect>
        <effect id="default_ai_0.2_sh_0.2_tr_0.0_dc_r_1.0_g_0.2_b_0.2_sc_r_1.0_g_1.0_b_1.0_ec_r_0.0_g_0.0_b_0_eff">
            <profile_COMMON>
                <technique sid="COMMON">
                    <lambert>
                        <emission>
                            <color>0.0 0.0 0.0 1.0</color>
                        </emission>
                        <diffuse>
                            <color>1.0 0.2 0.2 1.0</color>
                        </diffuse>
                        <reflective>
                            <color>1.0 1.0 1.0 1.0</color>
                        </reflective>
                        <reflectivity>
                            <float>0.2</float>
                        </reflectivity>
                        <transparent opaque="A_ONE">
                            <color>1.0 1.0 1.0 1.0</color>
                        </transparent>
                        <transparency>
                            <float>1.0</float>
                        </transparency>
                    </lambert>
                </technique>
                <extra>
                    <technique profile="GOOGLEEARTH">
                        <double_sided>0</double_sided>
                    </technique>
                </extra>
            </profile_COMMON>
        </effect>
    </library_effects>
    <library_geometries>
        <geometry id="geometry0">
            <mesh>
                <source id="geometry0-position">
                    <float_array id="geometry0-position-array" count="204">1.46 -0.1 6.993 0.0 0.0 6.993 0.0 0.0 0.0 1.46 -0.1 0.0 -3.13 1.94 6.993 -4.69 2.03 6.993 -4.69 2.03 0.0 -3.13 1.94 0.0 -4.69 1.59 6.993 -4.69 1.59 0.0 3.54 6.11 6.993 13.69 5.43 6.993 13.69 5.43 0.0 3.54 6.11 0.0 -6.35 2.24 6.993 -6.32 2.78 6.993 -6.32 2.78 0.0 -6.35 2.24 0.0 1.5 0.45 6.993 1.5 0.45 0.0 13.34 -0.34 6.993 13.34 -0.34 0.0 -6.11 2.23 6.993 -6.11 2.23 0.0 -6.15 1.7 6.993 -6.15 1.7 0.0 3.31 -0.22 6.993 3.33 0.33 6.993 3.33 0.33 0.0 3.31 -0.22 0.0 -3.23 0.66 6.993 -3.23 0.66 0.0 0.05 0.55 6.993 -1.6 0.66 6.993 -1.6 0.66 0.0 0.05 0.55 0.0 -1.62 0.11 6.993 -1.62 0.11 0.0 6.57 0.11 6.993 4.84 0.23 6.993 4.84 0.23 0.0 6.57 0.11 0.0 -2.97 0.64 6.993 -2.97 0.64 0.0 -3.0 0.19 6.993 -3.0 0.19 0.0 8.13 0.01 6.993 8.1 -0.55 6.993 8.1 -0.55 0.0 8.13 0.01 0.0 9.78 -0.66 6.993 9.82 -0.11 6.993 9.82 -0.11 0.0 9.78 -0.66 0.0 11.42 -0.23 6.993 11.39 -0.77 6.993 11.39 -0.77 0.0 11.42 -0.23 0.0 4.83 -0.33 6.993 4.83 -0.33 0.0 6.51 -0.45 6.993 -2.38 6.5 6.993 -2.29 7.75 6.993 -5.95 8.03 6.993 -2.38 6.5 0.0 -2.29 7.75 0.0 -5.95 8.03 0.0 6.51 -0.45 0.0</float_array>
                    <technique_common>
                        <accessor count="68" source="#geometry0-position-array" stride="3">
                            <param name="X" type="float"/>
                            <param name="Y" type="float"/>
                            <param name="Z" type="float"/>
                        </accessor>
                    </technique_common>
                </source>
                <source id="geometry0-normal">
                    <float_array id="geometry0-normal-array" count="612">-0.068333 -0.9976625 0.0 -0.068333 -0.9976625 0.0 -0.068333 -0.9976625 0.0 -0.068333 -0.9976625 0.0 0.9998406 -0.0178547 0.0 0.9998406 -0.0178547 0.0 0.9998406 -0.0178547 0.0 0.9998406 -0.0178547 0.0 -0.9958932 0.0905357 0.0 -0.9958932 0.0905357 0.0 -0.9958932 0.0905357 0.0 -0.9958932 0.0905357 0.0 -0.0708276 -0.9974886 0.0 -0.0708276 -0.9974886 0.0 -0.0708276 -0.9974886 0.0 -0.0708276 -0.9974886 0.0 -0.9943092 0.106533 0.0 -0.9943092 0.106533 0.0 -0.9943092 0.106533 0.0 -0.9943092 0.106533 0.0 0.997418 -0.0718142 0.0 0.997418 -0.0718142 0.0 0.997418 -0.0718142 0.0 0.997418 -0.0718142 0.0 -0.0627691 -0.9980281 0.0 -0.0627691 -0.9980281 0.0 -0.0627691 -0.9980281 0.0 -0.0627691 -0.9980281 0.0 0.9984604 -0.0554695 0.0 0.9984604 -0.0554695 0.0 0.9984604 -0.0554695 0.0 0.9984604 -0.0554695 0.0 -0.0575965 -0.99834 0.0 -0.0575965 -0.99834 0.0 -0.0575965 -0.99834 0.0 -0.0575965 -0.99834 0.0 -0.9984604 0.0554695 0.0 -0.9984604 0.0554695 0.0 -0.9984604 0.0554695 0.0 -0.9984604 0.0554695 0.0 -0.0766967 -0.9970545 0.0 -0.0766967 -0.9970545 0.0 -0.0766967 -0.9970545 0.0 -0.0766967 -0.9970545 0.0 0.9985682 -0.0534942 0.0 0.9985682 -0.0534942 0.0 0.9985682 -0.0534942 0.0 0.9985682 -0.0534942 0.0 0.9993396 -0.0363396 0.0 0.9993396 -0.0363396 0.0 0.9993396 -0.0363396 0.0 0.9993396 -0.0363396 0.0 -0.0721797 -0.9973916 0.0 -0.0721797 -0.9973916 0.0 -0.0721797 -0.9973916 0.0 -0.0721797 -0.9973916 0.0 -0.068164 -0.9976741 0.0 -0.068164 -0.9976741 0.0 -0.068164 -0.9976741 0.0 -0.068164 -0.9976741 0.0 -0.9969622 0.0778876 0.0 -0.9969622 0.0778876 0.0 -0.9969622 0.0778876 0.0 -0.9969622 0.0778876 0.0 -0.9975258 0.0703019 0.0 -0.9975258 0.0703019 0.0 -0.9975258 0.0703019 0.0 -0.9975258 0.0703019 0.0 -0.0578739 -0.998324 0.0 -0.0578739 -0.998324 0.0 -0.0578739 -0.998324 0.0 -0.0578739 -0.998324 0.0 0.0657359 0.9978371 0.0 0.0657359 0.9978371 0.0 0.0657359 0.9978371 0.0 0.0657359 0.9978371 0.0 0.9981654 -0.0605472 0.0 0.9981654 -0.0605472 0.0 0.9981654 -0.0605472 0.0 0.9981654 -0.0605472 0.0 1.0 0.0 0.0 1.0 0.0 0.0 1.0 0.0 0.0 1.0 0.0 0.0 -0.9977852 0.0665189 0.0 -0.9977852 0.0665189 0.0 -0.9977852 0.0665189 0.0 -0.9977852 0.0665189 0.0 -0.0571979 -0.9983628 0.0 -0.0571979 -0.9983628 0.0 -0.0571979 -0.9983628 0.0 -0.0571979 -0.9983628 0.0 -0.9971641 0.0752576 0.0 -0.9971641 0.0752576 0.0 -0.9971641 0.0752576 0.0 -0.9971641 0.0752576 0.0 -0.9973658 0.0725356 0.0 -0.9973658 0.0725356 0.0 -0.9973658 0.0725356 0.0 -0.9973658 0.0725356 0.0 -0.0654332 -0.9978569 0.0 -0.0654332 -0.9978569 0.0 -0.0654332 -0.9978569 0.0 -0.0654332 -0.9978569 0.0 -0.0751295 -0.9971738 0.0 -0.0751295 -0.9971738 0.0 -0.0751295 -0.9971738 0.0 -0.0751295 -0.9971738 0.0 0.0 0.0 1.0 0.0 0.0 1.0 0.0 0.0 1.0 0.0 0.0 1.0 0.0 0.0 1.0 0.0 0.0 1.0 0.0 0.0 1.0 0.0 0.0 1.0 0.0 0.0 1.0 0.0 0.0 1.0 0.0 0.0 1.0 0.0 0.0 1.0 0.0 0.0 1.0 0.0 0.0 1.0 0.0 0.0 1.0 0.0 0.0 1.0 0.0 0.0 1.0 0.0 0.0 1.0 0.0 0.0 1.0 0.0 0.0 1.0 0.0 0.0 1.0 0.0 0.0 1.0 0.0 0.0 1.0 0.0 0.0 1.0 0.0 0.0 1.0 0.0 0.0 1.0 0.0 0.0 1.0 0.0 0.0 1.0 0.0 0.0 1.0 0.0 0.0 1.0 0.0 0.0 1.0 0.0 0.0 1.0 0.0 0.0 1.0 0.0 0.0 1.0 0.9973658 -0.0725356 0.0 0.9973658 -0.0725356 0.0 0.9973658 -0.0725356 0.0 0.9973658 -0.0725356 0.0 0.0762798 0.9970865 0.0 0.0762798 0.9970865 0.0 0.0762798 0.9970865 0.0 0.0762798 0.9970865 0.0 -0.066519 -0.9977852 0.0 -0.066519 -0.9977852 0.0 -0.066519 -0.9977852 0.0 -0.066519 -0.9977852 0.0 -0.0416305 -0.9991331 0.0 -0.0416305 -0.9991331 0.0 -0.0416305 -0.9991331 0.0 -0.0416305 -0.9991331 0.0 -0.0691979 -0.9976029 0.0 -0.0691979 -0.9976029 0.0 -0.0691979 -0.9976029 0.0 -0.0691979 -0.9976029 0.0 0.0668453 0.9977633 0.0 0.0668453 0.9977633 0.0 0.0668453 0.9977633 0.0 0.0668453 0.9977633 0.0 0.0 0.0 -1.0 0.0 0.0 -1.0 0.0 0.0 -1.0 0.0 0.0 -1.0 0.0 0.0 -1.0 0.0 0.0 -1.0 0.0 0.0 -1.0 0.0 0.0 -1.0 0.0 0.0 -1.0 0.0 0.0 -1.0 0.0 0.0 -1.0 0.0 0.0 -1.0 0.0 0.0 -1.0 0.0 0.0 -1.0 0.0 0.0 -1.0 0.0 0.0 -1.0 0.0 0.0 -1.0 0.0 0.0 -1.0 0.0 0.0 -1.0 0.0 0.0 -1.0 0.0 0.0 -1.0 0.0 0.0 -1.0 0.0 0.0 -1.0 0.0 0.0 -1.0 0.0 0.0 -1.0 0.0 0.0 -1.0 0.0 0.0 -1.0 0.0 0.0 -1.0 0.0 0.0 -1.0 0.0 0.0 -1.0 0.0 0.0 -1.0 0.0 0.0 -1.0 0.0 0.0 -1.0 0.0 0.0 -1.0 -0.9993396 0.0363396 0.0 -0.9993396 0.0363396 0.0 -0.9993396 0.0363396 0.0 -0.9993396 0.0363396 0.0</float_array>
                    <technique_common>
                        <accessor count="204" source="#geometry0-normal-array" stride="3">
                            <param name="X" type="float"/>
                            <param name="Y" type="float"/>
                            <param name="Z" type="float"/>
                        </accessor>
                    </technique_common>
                </source>
                <vertices id="geometry0-vertex">
                    <input semantic="POSITION" source="#geometry0-position"/>
                </vertices>
                <triangles count="100" material="default_ai_0.2_sh_0.2_tr_0.0_dc_r_0.8_g_0.8_b_0.8_sc_r_1.0_g_1.0_b_1.0_ec_r_0.0_g_0.0_b_0_tri">
                    <input offset="0" semantic="VERTEX" source="#geometry0-vertex"/>
                    <input offset="1" semantic="NORMAL" source="#geometry0-normal"/>
                    <p>0 0 1 1 2 2 0 0 2 2 3 3 39 4 58 5 59 6 39 4 59 6 40 7 1 8 32 9 35 10 1 8 35 10 2 11 51 12 46 13 49 14 51 12 49 14 52 15 60 16 38 17 41 18 60 16 41 18 67 19 62 20 61 21 64 22 62 20 64 22 65 23 47 24 60 25 67 26 47 24 67 26 48 27 54 28 55 29 56 30 54 28 56 30 57 31 4 32 5 33 6 34 4 32 6 34 7 35 14 36 15 37 16 38 14 36 16 38 17 39 42 40 30 41 31 42 42 40 31 42 43 43 46 44 47 45 48 46 46 44 48 46 49 47 33 48 36 49 37 50 33 48 37 50 34 51 58 52 26 53 29 54 58 52 29 54 59 55 55 56 50 57 53 58 55 56 53 58 56 59 30 60 4 61 7 62 30 60 7 62 31 63 15 64 63 65 66 66 15 64 66 66 16 67 36 68 44 69 45 70 36 68 45 70 37 71 61 72 10 73 13 74 61 72 13 74 64 75 11 76 20 77 21 78 11 76 21 78 12 79 5 80 8 81 9 82 5 80 9 82 6 83 44 84 42 85 43 86 44 84 43 86 45 87 20 88 54 89 57 90 20 88 57 90 21 91 24 92 22 93 23 94 24 92 23 94 25 95 50 96 51 97 52 98 50 96 52 98 53 99 27 100 18 101 19 102 27 100 19 102 28 103 8 104 24 105 25 106 8 104 25 106 9 107 18 142 0 143 3 144 18 142 3 144 19 145 63 146 62 147 65 148 63 146 65 148 66 149 32 150 33 151 34 152 32 150 34 152 35 153 22 154 14 155 17 156 22 154 17 156 23 157 38 158 39 159 40 160 38 158 40 160 41 161 10 162 11 163 12 164 10 162 12 164 13 165 59 166 29 167 40 168 29 167 28 169 40 168 3 170 2 171 19 172 2 171 35 173 19 172 19 172 35 173 28 169 28 169 35 173 40 168 37 174 45 175 34 176 45 175 43 177 34 176 43 177 31 178 34 176 31 178 7 179 34 176 34 176 7 179 35 173 35 173 7 179 40 168 40 168 7 179 41 180 9 181 25 182 6 183 25 182 23 184 6 183 6 183 23 184 7 179 17 185 16 186 23 184 23 184 16 186 7 179 7 179 16 186 41 180 16 186 66 187 41 180 65 188 64 189 66 187 66 187 64 189 41 180 64 189 13 190 41 180 13 190 12 191 41 180 41 180 12 191 67 192 21 193 57 194 12 191 56 195 53 196 57 194 57 194 53 196 12 191 53 196 52 197 12 191 52 197 49 198 12 191 12 191 49 198 67 192 67 192 49 198 48 199 26 200 27 201 28 202 26 200 28 202 29 203</p>
                </triangles>
                <triangles count="32" material="default_ai_0.2_sh_0.2_tr_0.0_dc_r_1.0_g_0.2_b_0.2_sc_r_1.0_g_1.0_b_1.0_ec_r_0.0_g_0.0_b_0_tri">
                    <input offset="0" semantic="VERTEX" source="#geometry0-vertex"/>
                    <input offset="1" semantic="NORMAL" source="#geometry0-normal"/>
                    <p>60 108 47 109 38 110 47 109 46 111 38 110 38 110 46 111 39 112 50 113 55 114 51 115 55 114 54 116 51 115 54 116 20 117 51 115 51 115 20 117 46 111 20 117 11 118 46 111 46 111 11 118 39 112 11 118 10 119 39 112 39 112 10 119 58 120 10 119 61 121 58 120 62 122 63 123 61 121 61 121 63 123 58 120 15 124 14 125 63 123 14 125 22 126 63 123 24 127 8 128 22 126 22 126 8 128 63 123 8 128 5 129 63 123 5 129 4 130 63 123 30 131 42 132 4 130 44 133 36 134 42 132 42 132 36 134 4 130 4 130 36 134 63 123 36 134 33 135 63 123 33 135 32 136 63 123 1 137 0 138 32 136 32 136 0 138 63 123 0 138 18 139 63 123 18 139 27 140 63 123 63 123 27 140 58 120 58 120 27 140 26 141</p>
                </triangles>
            </mesh>
        </geometry>
    </library_geometries>
    <library_visual_scenes>
        <visual_scene id="Building_DEBW_5221000QyMZ">
            <node>
                <instance_geometry url="#geometry0">
                    <bind_material>
                        <technique_common>
                            <instance_material symbol="default_ai_0.2_sh_0.2_tr_0.0_dc_r_0.8_g_0.8_b_0.8_sc_r_1.0_g_1.0_b_1.0_ec_r_0.0_g_0.0_b_0_tri" target="#default_ai_0.2_sh_0.2_tr_0.0_dc_r_0.8_g_0.8_b_0.8_sc_r_1.0_g_1.0_b_1.0_ec_r_0.0_g_0.0_b_0_mat"/>
                            <instance_material symbol="default_ai_0.2_sh_0.2_tr_0.0_dc_r_1.0_g_0.2_b_0.2_sc_r_1.0_g_1.0_b_1.0_ec_r_0.0_g_0.0_b_0_tri" target="#default_ai_0.2_sh_0.2_tr_0.0_dc_r_1.0_g_0.2_b_0.2_sc_r_1.0_g_1.0_b_1.0_ec_r_0.0_g_0.0_b_0_mat"/>
                        </technique_common>
                    </bind_material>
                </instance_geometry>
            </node>
        </visual_scene>
    </library_visual_scenes>
    <scene>
        <instance_visual_scene url="#Building_DEBW_5221000QyMZ"/>
    </scene>
</COLLADA>
