<?xml version="1.0" encoding="UTF-8" standalone="yes"?>
<COLLADA xmlns="http://www.collada.org/2005/11/COLLADASchema" version="1.4.1">
    <asset>
        <contributor>
            <authoring_tool>3D City Database Importer/Exporter, version 5.5.3; Chair of Geoinformatics, Technical University of Munich</authoring_tool>
        </contributor>
        <created>2026-05-06T15:12:01.955</created>
        <modified>2026-05-06T15:12:01.955</modified>
        <unit meter="1.0" name="meters"/>
        <up_axis>Z_UP</up_axis>
    </asset>
    <library_materials>
        <material id="default_ai_0.2_sh_0.2_tr_0.0_dc_r_0.8_g_0.8_b_0.8_sc_r_1.0_g_1.0_b_1.0_ec_r_0.0_g_0.0_b_0_mat">
            <instance_effect url="#default_ai_0.2_sh_0.2_tr_0.0_dc_r_0.8_g_0.8_b_0.8_sc_r_1.0_g_1.0_b_1.0_ec_r_0.0_g_0.0_b_0_eff"/>
        </material>
        <material id="default_ai_0.2_sh_0.2_tr_0.0_dc_r_1.0_g_0.2_b_0.2_sc_r_1.0_g_1.0_b_1.0_ec_r_0.0_g_0.0_b_0_mat">
            <instance_effect url="#default_ai_0.2_sh_0.2_tr_0.0_dc_r_1.0_g_0.2_b_0.2_sc_r_1.0_g_1.0_b_1.0_ec_r_0.0_g_0.0_b_0_eff"/>
        </material>
    </library_materials>
    <library_effects>
        <effect id="default_ai_0.2_sh_0.2_tr_0.0_dc_r_0.8_g_0.8_b_0.8_sc_r_1.0_g_1.0_b_1.0_ec_r_0.0_g_0.0_b_0_eff">
            <profile_COMMON>
                <technique sid="COMMON">
                    <lambert>
                        <emission>
                            <color>0.0 0.0 0.0 1.0</color>
                        </emission>
                        <diffuse>
                            <color>0.8 0.8 0.8 1.0</color>
                        </diffuse>
                        <reflective>
                            <color>1.0 1.0 1.0 1.0</color>
                        </reflective>
                        <reflectivity>
                            <float>0.2</float>
                        </reflectivity>
                        <transparent opaque="A_ONE">
                            <color>1.0 1.0 1.0 1.0</color>
                        </transparent>
                        <transparency>
                            <float>1.0</float>
                        </transparency>
                    </lambert>
                </technique>
                <extra>
                    <technique profile="GOOGLEEARTH">
                        <double_sided>0</double_sided>
                    </technique>
                </extra>
            </profile_COMMON>
        </effect>
        <effect id="default_ai_0.2_sh_0.2_tr_0.0_dc_r_1.0_g_0.2_b_0.2_sc_r_1.0_g_1.0_b_1.0_ec_r_0.0_g_0.0_b_0_eff">
            <profile_COMMON>
                <technique sid="COMMON">
                    <lambert>
                        <emission>
                            <color>0.0 0.0 0.0 1.0</color>
                        </emission>
                        <diffuse>
                            <color>1.0 0.2 0.2 1.0</color>
                        </diffuse>
                        <reflective>
                            <color>1.0 1.0 1.0 1.0</color>
                        </reflective>
                        <reflectivity>
                            <float>0.2</float>
                        </reflectivity>
                        <transparent opaque="A_ONE">
                            <color>1.0 1.0 1.0 1.0</color>
                        </transparent>
                        <transparency>
                            <float>1.0</float>
                        </transparency>
                    </lambert>
                </technique>
                <extra>
                    <technique profile="GOOGLEEARTH">
                        <double_sided>0</double_sided>
                    </technique>
                </extra>
            </profile_COMMON>
        </effect>
    </library_effects>
    <library_geometries>
        <geometry id="geometry0">
            <mesh>
                <source id="geometry0-position">
                    <float_array id="geometry0-position-array" count="30">0.0 0.0 7.322 11.16 4.94 7.331 9.15 9.629 12.042 -2.01 4.699 12.042 -4.0 9.35 7.172 0.0 0.0 0.0 11.16 4.94 0.0 7.16 14.27 7.18 7.16 14.27 0.0 -4.0 9.35 0.0</float_array>
                    <technique_common>
                        <accessor count="10" source="#geometry0-position-array" stride="3">
                            <param name="X" type="float"/>
                            <param name="Y" type="float"/>
                            <param name="Z" type="float"/>
                        </accessor>
                    </technique_common>
                </source>
                <source id="geometry0-normal">
                    <float_array id="geometry0-normal-array" count="102">0.9190941 0.3940382 0.0 0.919094 0.3940381 0.0 0.9190941 0.3940382 0.0 0.9190941 0.3940382 0.0 0.9190944 0.3940374 -5.55E-5 0.9190944 0.3940374 -5.55E-5 0.9190944 0.3940374 -5.55E-5 0.0 0.0 -1.0 0.0 0.0 -1.0 0.0 0.0 -1.0 0.0 0.0 -1.0 0.4047696 -0.9144187 0.0 0.4047696 -0.9144187 0.0 0.4047696 -0.9144187 0.0 0.4047696 -0.9144187 0.0 -0.2802455 0.6344484 0.7203733 -0.2802116 0.6344306 0.7204021 -0.2802455 0.6344484 0.7203733 -0.2802794 0.6344662 0.7203444 -0.9193991 -0.3933258 0.0 -0.9193991 -0.3933258 0.0 -0.9193991 -0.3933258 0.0 -0.9193991 -0.3933258 0.0 -0.403398 0.9150246 0.0 -0.403398 0.9150246 0.0 -0.403398 0.9150246 0.0 -0.4033979 0.9150246 0.0 0.2741407 -0.6206112 0.7346351 0.2741168 -0.6205982 0.734655 0.2741407 -0.6206112 0.7346351 0.2741646 -0.6206241 0.7346151 -0.9193994 -0.3933252 5.12E-5 -0.9193994 -0.3933252 5.12E-5 -0.9193994 -0.3933252 5.12E-5</float_array>
                    <technique_common>
                        <accessor count="34" source="#geometry0-normal-array" stride="3">
                            <param name="X" type="float"/>
                            <param name="Y" type="float"/>
                            <param name="Z" type="float"/>
                        </accessor>
                    </technique_common>
                </source>
                <vertices id="geometry0-vertex">
                    <input semantic="POSITION" source="#geometry0-position"/>
                </vertices>
                <triangles count="12" material="default_ai_0.2_sh_0.2_tr_0.0_dc_r_0.8_g_0.8_b_0.8_sc_r_1.0_g_1.0_b_1.0_ec_r_0.0_g_0.0_b_0_tri">
                    <input offset="0" semantic="VERTEX" source="#geometry0-vertex"/>
                    <input offset="1" semantic="NORMAL" source="#geometry0-normal"/>
                    <p>7 0 1 1 6 2 7 0 6 2 8 3 1 4 7 5 2 6 9 7 8 8 6 9 9 7 6 9 5 10 1 11 0 12 5 13 1 11 5 13 6 14 0 19 4 20 9 21 0 19 9 21 5 22 4 23 7 24 8 25 4 23 8 25 9 26 4 31 0 32 3 33</p>
                </triangles>
                <triangles count="4" material="default_ai_0.2_sh_0.2_tr_0.0_dc_r_1.0_g_0.2_b_0.2_sc_r_1.0_g_1.0_b_1.0_ec_r_0.0_g_0.0_b_0_tri">
                    <input offset="0" semantic="VERTEX" source="#geometry0-vertex"/>
                    <input offset="1" semantic="NORMAL" source="#geometry0-normal"/>
                    <p>7 15 4 16 3 17 7 15 3 17 2 18 0 27 1 28 2 29 0 27 2 29 3 30</p>
                </triangles>
            </mesh>
        </geometry>
    </library_geometries>
    <library_visual_scenes>
        <visual_scene id="Building_DEBW_5221000QhBI">
            <node>
                <instance_geometry url="#geometry0">
                    <bind_material>
                        <technique_common>
                            <instance_material symbol="default_ai_0.2_sh_0.2_tr_0.0_dc_r_0.8_g_0.8_b_0.8_sc_r_1.0_g_1.0_b_1.0_ec_r_0.0_g_0.0_b_0_tri" target="#default_ai_0.2_sh_0.2_tr_0.0_dc_r_0.8_g_0.8_b_0.8_sc_r_1.0_g_1.0_b_1.0_ec_r_0.0_g_0.0_b_0_mat"/>
                            <instance_material symbol="default_ai_0.2_sh_0.2_tr_0.0_dc_r_1.0_g_0.2_b_0.2_sc_r_1.0_g_1.0_b_1.0_ec_r_0.0_g_0.0_b_0_tri" target="#default_ai_0.2_sh_0.2_tr_0.0_dc_r_1.0_g_0.2_b_0.2_sc_r_1.0_g_1.0_b_1.0_ec_r_0.0_g_0.0_b_0_mat"/>
                        </technique_common>
                    </bind_material>
                </instance_geometry>
            </node>
        </visual_scene>
    </library_visual_scenes>
    <scene>
        <instance_visual_scene url="#Building_DEBW_5221000QhBI"/>
    </scene>
</COLLADA>
