<?xml version="1.0" encoding="UTF-8" standalone="yes"?>
<COLLADA xmlns="http://www.collada.org/2005/11/COLLADASchema" version="1.4.1">
    <asset>
        <contributor>
            <authoring_tool>3D City Database Importer/Exporter, version 5.5.3; Chair of Geoinformatics, Technical University of Munich</authoring_tool>
        </contributor>
        <created>2026-05-06T15:12:08.414</created>
        <modified>2026-05-06T15:12:08.414</modified>
        <unit meter="1.0" name="meters"/>
        <up_axis>Z_UP</up_axis>
    </asset>
    <library_materials>
        <material id="default_ai_0.2_sh_0.2_tr_0.0_dc_r_0.8_g_0.8_b_0.8_sc_r_1.0_g_1.0_b_1.0_ec_r_0.0_g_0.0_b_0_mat">
            <instance_effect url="#default_ai_0.2_sh_0.2_tr_0.0_dc_r_0.8_g_0.8_b_0.8_sc_r_1.0_g_1.0_b_1.0_ec_r_0.0_g_0.0_b_0_eff"/>
        </material>
        <material id="default_ai_0.2_sh_0.2_tr_0.0_dc_r_1.0_g_0.2_b_0.2_sc_r_1.0_g_1.0_b_1.0_ec_r_0.0_g_0.0_b_0_mat">
            <instance_effect url="#default_ai_0.2_sh_0.2_tr_0.0_dc_r_1.0_g_0.2_b_0.2_sc_r_1.0_g_1.0_b_1.0_ec_r_0.0_g_0.0_b_0_eff"/>
        </material>
    </library_materials>
    <library_effects>
        <effect id="default_ai_0.2_sh_0.2_tr_0.0_dc_r_0.8_g_0.8_b_0.8_sc_r_1.0_g_1.0_b_1.0_ec_r_0.0_g_0.0_b_0_eff">
            <profile_COMMON>
                <technique sid="COMMON">
                    <lambert>
                        <emission>
                            <color>0.0 0.0 0.0 1.0</color>
                        </emission>
                        <diffuse>
                            <color>0.8 0.8 0.8 1.0</color>
                        </diffuse>
                        <reflective>
                            <color>1.0 1.0 1.0 1.0</color>
                        </reflective>
                        <reflectivity>
                            <float>0.2</float>
                        </reflectivity>
                        <transparent opaque="A_ONE">
                            <color>1.0 1.0 1.0 1.0</color>
                        </transparent>
                        <transparency>
                            <float>1.0</float>
                        </transparency>
                    </lambert>
                </technique>
                <extra>
                    <technique profile="GOOGLEEARTH">
                        <double_sided>0</double_sided>
                    </technique>
                </extra>
            </profile_COMMON>
        </effect>
        <effect id="default_ai_0.2_sh_0.2_tr_0.0_dc_r_1.0_g_0.2_b_0.2_sc_r_1.0_g_1.0_b_1.0_ec_r_0.0_g_0.0_b_0_eff">
            <profile_COMMON>
                <technique sid="COMMON">
                    <lambert>
                        <emission>
                            <color>0.0 0.0 0.0 1.0</color>
                        </emission>
                        <diffuse>
                            <color>1.0 0.2 0.2 1.0</color>
                        </diffuse>
                        <reflective>
                            <color>1.0 1.0 1.0 1.0</color>
                        </reflective>
                        <reflectivity>
                            <float>0.2</float>
                        </reflectivity>
                        <transparent opaque="A_ONE">
                            <color>1.0 1.0 1.0 1.0</color>
                        </transparent>
                        <transparency>
                            <float>1.0</float>
                        </transparency>
                    </lambert>
                </technique>
                <extra>
                    <technique profile="GOOGLEEARTH">
                        <double_sided>0</double_sided>
                    </technique>
                </extra>
            </profile_COMMON>
        </effect>
    </library_effects>
    <library_geometries>
        <geometry id="geometry0">
            <mesh>
                <source id="geometry0-position">
                    <float_array id="geometry0-position-array" count="171">0.0 0.0 0.0 -0.11 -2.08 0.0 -4.25 -1.71 0.0 -4.38 -3.89 0.0 -11.16 -3.4 0.0 -10.96 -1.37 0.0 -15.05 -1.11 0.0 -14.891 0.99 0.0 -14.51 6.01 0.0 -10.31 5.72 0.0 -10.61 2.28 0.0 -7.49 2.14 0.0 -6.91 11.85 0.0 2.03 11.24 0.0 1.83 8.03 0.0 1.7 4.91 0.0 3.23 4.79 0.0 2.88 -0.2 0.0 -11.16 -3.4 9.319 -10.96 -1.37 9.319 3.23 4.79 16.309 1.7 4.91 16.309 1.723 5.473 16.311 -7.253 6.102 16.311 -7.49 2.14 16.298 -10.61 2.28 16.298 -10.31 5.72 16.309 -14.51 6.01 16.309 -14.891 0.99 16.293 -15.035 -0.913 16.287 -0.104 -1.961 16.287 0.0 0.0 16.293 2.88 -0.2 16.293 0.0 0.0 9.319 -0.11 -2.08 9.319 -4.38 -3.89 9.319 -10.31 5.72 9.319 -10.61 2.28 9.319 -14.891 0.99 9.319 -14.51 6.01 9.319 -4.25 -1.71 9.319 -6.91 11.85 9.319 -6.91 11.85 9.339 2.03 11.24 9.319 1.83 8.03 13.213 -15.05 -1.11 9.319 -15.05 -1.11 15.864 3.23 4.79 9.319 2.88 -0.2 9.319 -7.49 2.14 9.319 -0.11 -2.08 16.03 -4.25 -1.71 16.201 1.83 8.03 9.319 1.7 4.91 9.319 -4.38 -3.89 11.515 -11.16 -3.4 11.545 -10.96 -1.37 15.921</float_array>
                    <technique_common>
                        <accessor count="57" source="#geometry0-position-array" stride="3">
                            <param name="X" type="float"/>
                            <param name="Y" type="float"/>
                            <param name="Z" type="float"/>
                        </accessor>
                    </technique_common>
                </source>
                <source id="geometry0-normal">
                    <float_array id="geometry0-normal-array" count="570">0.9986045 -0.0528108 0.0 0.9986045 -0.0528108 0.0 0.9986045 -0.0528108 0.0 0.9986045 -0.0528108 0.0 0.0539157 0.7691644 0.6367725 0.0539021 0.7691969 0.6367345 0.0539204 0.7691666 0.6367694 0.0539226 0.7691482 0.6367915 0.0539064 0.76916 0.6367786 -0.9951817 0.0980474 0.0 -0.9951817 0.0980474 0.0 -0.9951817 0.0980474 0.0 -0.9951817 0.0980474 0.0 -0.0634408 -0.9045449 0.4216323 -0.0634793 -0.9042044 0.4223563 -0.0634606 -0.9041951 0.4223788 -0.0634576 -0.9046335 0.4214396 -0.0634092 -0.9045347 0.4216591 -0.0634648 -0.9043468 0.4220537 -0.0635136 -0.9049557 0.4207388 -0.063515 -0.9050436 0.4205496 0.9980646 -0.0621847 0.0 0.9980646 -0.0621847 0.0 0.9980646 -0.0621847 0.0 0.9975492 -0.0699684 0.0 0.9975492 -0.0699684 0.0 0.9975492 -0.0699684 0.0 0.9975492 -0.0699684 0.0 0.0 0.0 -1.0 0.0 0.0 -1.0 0.0 0.0 -1.0 0.0 0.0 -1.0 0.0 0.0 -1.0 0.0 0.0 -1.0 0.0 0.0 -1.0 0.0 0.0 -1.0 0.0 0.0 -1.0 0.0 0.0 -1.0 0.0 0.0 -1.0 0.0 0.0 -1.0 0.0 0.0 -1.0 0.0 0.0 -1.0 0.0 0.0 -1.0 0.0 0.0 -1.0 0.0 0.0 -1.0 0.0 0.0 -1.0 -0.0890172 -0.9960301 0.0 -0.0890172 -0.9960301 0.0 -0.0890172 -0.9960301 0.0 -0.0890172 -0.9960301 0.0 -0.0634416 -0.9979855 0.0 -0.0634416 -0.9979855 0.0 -0.0634416 -0.9979855 0.0 -0.0634416 -0.9979855 0.0 -0.0692776 -0.9975974 0.0 -0.0692776 -0.9975974 0.0 -0.0692776 -0.9975974 0.0 -0.0692776 -0.9975974 0.0 -0.0720834 -0.9973986 0.0 -0.0720834 -0.9973986 0.0 -0.0720834 -0.9973986 0.0 -0.0720834 -0.9973986 0.0 -0.9951818 0.0980474 0.0 -0.9951818 0.0980474 0.0 -0.9951818 0.0980474 0.0 -0.9951818 0.0980474 0.0 -0.9982191 0.0596544 3.98E-5 -0.9982208 0.059626 0.0 -0.9982208 0.059626 0.0 -0.9982183 0.0596686 5.96E-5 -0.9982157 0.0597111 1.193E-4 -0.0890172 -0.9960301 0.0 -0.0890172 -0.9960301 0.0 -0.0890172 -0.9960301 0.0 -0.0890172 -0.9960301 0.0 -0.997147 0.0754835 7.35E-5 -0.9971459 0.0754984 0.0 -0.9971459 0.0754984 0.0 -0.9971476 0.075476 1.102E-4 -0.9971493 0.0754536 2.204E-4 -0.0692776 -0.9975974 0.0 -0.0692776 -0.9975974 0.0 -0.0692776 -0.9975974 0.0 -0.0692776 -0.9975974 0.0 0.9991497 -0.041226 4.084E-4 0.9991331 -0.0416305 0.0 0.9991331 -0.0416305 0.0 0.9991497 -0.041226 4.084E-4 0.9991661 -0.0408214 8.168E-4 0.9962189 -0.0868793 0.0 0.9962189 -0.0868793 0.0 0.9962189 -0.0868793 0.0 0.9962189 -0.0868793 0.0 0.0448266 0.9989948 0.0 0.0448266 0.9989948 0.0 0.0448266 0.9989948 0.0 0.0448266 0.9989948 0.0 0.9980646 -0.0621847 0.0 0.9980646 -0.0621847 0.0 0.9980646 -0.0621847 0.0 0.9980646 -0.0621847 0.0 -0.0634416 -0.9979855 0.0 -0.0634416 -0.9979855 0.0 -0.0634416 -0.9979855 0.0 -0.0634416 -0.9979855 0.0 -4.33E-5 -0.0031803 0.999995 -2.216E-4 -0.003191 0.9999949 -2.352E-4 -0.0031818 0.9999949 3.586E-4 -0.003383 0.9999942 3.703E-4 -0.0034057 0.9999942 -2.454E-4 -0.0032418 0.9999947 -1.948E-4 -0.0030189 0.9999954 -1.798E-4 -0.0030355 0.9999954 -2.021E-4 -0.0030944 0.9999952 -0.0386829 -2.411E-4 0.9992515 -2.044E-4 -0.0031711 0.9999949 -0.0772178 0.0026872 0.9970106 -0.1537563 0.0085196 0.9880721 0.0688837 0.9976248 0.0 0.0688837 0.9976248 0.0 0.0688837 0.9976248 0.0 0.0688837 0.9976248 0.0 0.9986017 -0.0528617 4.035E-4 0.9986045 -0.0528108 0.0 0.9986045 -0.0528108 0.0 0.9986004 -0.0528871 6.052E-4 0.9985957 -0.0529634 0.0012104 -0.9971322 0.0756787 0.0 -0.9971322 0.0756787 0.0 -0.9971322 0.0756787 0.0 -0.9971322 0.0756787 0.0 -0.9982208 0.0596259 0.0 -0.9982208 0.0596259 0.0 -0.9982208 0.0596259 0.0 -0.9982208 0.0596259 0.0 0.9982266 -0.0595273 0.0 0.9982266 -0.0595273 0.0 0.9982266 -0.0595273 0.0 0.9982266 -0.0595273 0.0 0.9991331 -0.0416305 0.0 0.9991331 -0.0416305 0.0 0.9991331 -0.0416305 0.0 0.9991331 -0.0416305 0.0 -0.9971322 0.0756787 0.0 -0.9971322 0.0756787 0.0 -0.9971322 0.0756787 0.0 -0.9971322 0.0756787 0.0 0.9982266 -0.0595273 0.0 0.9982266 -0.0595273 0.0 0.9982266 -0.0595273 0.0 0.9982266 -0.0595273 0.0 0.0688837 0.9976247 0.0 0.0688837 0.9976247 0.0 0.0688837 0.9976247 0.0 0.0688837 0.9976247 0.0 -0.9971459 0.0754984 0.0 -0.9971459 0.0754984 0.0 -0.9971459 0.0754984 0.0 -0.9971459 0.0754984 0.0 -0.0720834 -0.9973986 0.0 -0.0720834 -0.9973986 0.0 -0.0720834 -0.9973986 0.0 -0.0720834 -0.9973986 0.0 0.0680744 0.9976802 0.0 0.0680744 0.9976802 0.0 0.0680744 0.9976802 0.0 0.0680744 0.9976802 0.0 0.0680744 0.9976802 0.0 0.0680744 0.9976802 0.0 0.0680744 0.9976802 0.0 0.9962189 -0.0868793 0.0 0.9962189 -0.0868793 0.0 0.9962189 -0.0868793 0.0 0.9962189 -0.0868793 0.0 0.0781912 0.9969384 0.0 0.0781912 0.9969384 0.0 0.0781912 0.9969384 0.0 0.0781912 0.9969384 0.0 0.0781912 0.9969384 0.0 0.0781912 0.9969384 0.0 0.0781912 0.9969384 0.0 0.0781912 0.9969384 0.0 0.0448266 0.9989948 0.0 0.0448266 0.9989948 0.0 0.0448266 0.9989948 0.0 0.0448266 0.9989948 0.0 0.9975492 -0.0699684 0.0 0.9975492 -0.0699684 0.0 0.9975492 -0.0699684 0.0 0.9975492 -0.0699684 0.0</float_array>
                    <technique_common>
                        <accessor count="190" source="#geometry0-normal-array" stride="3">
                            <param name="X" type="float"/>
                            <param name="Y" type="float"/>
                            <param name="Z" type="float"/>
                        </accessor>
                    </technique_common>
                </source>
                <vertices id="geometry0-vertex">
                    <input semantic="POSITION" source="#geometry0-position"/>
                </vertices>
                <triangles count="90" material="default_ai_0.2_sh_0.2_tr_0.0_dc_r_0.8_g_0.8_b_0.8_sc_r_1.0_g_1.0_b_1.0_ec_r_0.0_g_0.0_b_0_tri">
                    <input offset="0" semantic="VERTEX" source="#geometry0-vertex"/>
                    <input offset="1" semantic="NORMAL" source="#geometry0-normal"/>
                    <p>33 0 34 1 1 2 33 0 1 2 0 3 18 9 55 10 56 11 18 9 56 11 19 12 43 21 44 22 52 23 47 24 48 25 17 26 47 24 17 26 16 27 1 28 2 29 0 30 3 31 4 32 2 29 2 29 4 32 0 30 4 32 5 33 0 30 5 33 6 34 0 30 6 34 7 35 0 30 8 36 9 37 7 35 9 37 10 38 7 35 7 35 10 38 0 30 0 30 10 38 17 39 10 38 11 40 17 39 17 39 11 40 16 41 16 41 11 40 15 42 15 42 11 40 14 43 14 43 11 40 13 44 13 44 11 40 12 45 34 46 40 47 2 48 34 46 2 48 1 49 19 50 56 51 46 52 19 50 46 52 45 53 48 54 32 55 31 56 48 54 31 56 33 57 35 58 18 59 4 60 35 58 4 60 3 61 18 62 19 63 5 64 18 62 5 64 4 65 42 66 41 67 49 68 42 66 49 68 24 69 42 66 24 69 23 70 34 71 50 72 51 73 34 71 51 73 40 74 28 75 38 76 45 77 28 75 45 77 46 78 28 75 46 78 29 79 48 80 33 81 0 82 48 80 0 82 17 83 21 84 53 85 52 86 21 84 52 86 44 87 21 84 44 87 22 88 36 89 37 90 10 91 36 89 10 91 9 92 37 93 25 94 24 95 37 93 24 95 49 96 43 97 52 98 14 99 43 97 14 99 13 100 19 101 45 102 6 103 19 101 6 103 5 104 39 118 36 119 9 120 39 118 9 120 8 121 50 122 34 123 33 124 50 122 33 124 31 125 50 122 31 125 30 126 38 127 39 128 8 129 38 127 8 129 7 130 49 131 41 132 12 133 49 131 12 133 11 134 40 135 51 136 54 137 40 135 54 137 35 138 52 139 53 140 15 141 52 139 15 141 14 142 38 143 28 144 27 145 38 143 27 145 39 146 40 147 35 148 3 149 40 147 3 149 2 150 39 151 27 152 26 153 39 151 26 153 36 154 45 155 38 156 7 157 45 155 7 157 6 158 35 159 54 160 55 161 35 159 55 161 18 162 41 163 42 164 43 165 41 166 43 167 13 168 41 166 13 168 12 169 36 170 26 171 25 172 36 170 25 172 37 173 53 174 21 175 20 176 53 174 20 176 47 177 53 178 47 179 16 180 53 178 16 180 15 181 37 182 49 183 11 184 37 182 11 184 10 185 47 186 20 187 32 188 47 186 32 188 48 189</p>
                </triangles>
                <triangles count="20" material="default_ai_0.2_sh_0.2_tr_0.0_dc_r_1.0_g_0.2_b_0.2_sc_r_1.0_g_1.0_b_1.0_ec_r_0.0_g_0.0_b_0_tri">
                    <input offset="0" semantic="VERTEX" source="#geometry0-vertex"/>
                    <input offset="1" semantic="NORMAL" source="#geometry0-normal"/>
                    <p>23 4 22 5 44 6 23 4 44 6 43 7 23 4 43 7 42 8 56 13 55 14 54 15 56 13 54 15 51 16 46 17 56 13 51 16 29 18 46 17 51 16 30 19 29 18 51 16 30 19 51 16 50 20 31 105 32 106 20 107 31 105 20 107 21 108 31 105 21 108 22 109 31 105 22 109 23 110 31 105 23 110 24 111 31 105 24 111 25 112 30 113 31 105 25 112 29 114 30 113 25 112 29 114 25 112 26 115 29 114 26 115 27 116 29 114 27 116 28 117</p>
                </triangles>
            </mesh>
        </geometry>
    </library_geometries>
    <library_visual_scenes>
        <visual_scene id="Building_DEBW_5221000Qxit">
            <node>
                <instance_geometry url="#geometry0">
                    <bind_material>
                        <technique_common>
                            <instance_material symbol="default_ai_0.2_sh_0.2_tr_0.0_dc_r_0.8_g_0.8_b_0.8_sc_r_1.0_g_1.0_b_1.0_ec_r_0.0_g_0.0_b_0_tri" target="#default_ai_0.2_sh_0.2_tr_0.0_dc_r_0.8_g_0.8_b_0.8_sc_r_1.0_g_1.0_b_1.0_ec_r_0.0_g_0.0_b_0_mat"/>
                            <instance_material symbol="default_ai_0.2_sh_0.2_tr_0.0_dc_r_1.0_g_0.2_b_0.2_sc_r_1.0_g_1.0_b_1.0_ec_r_0.0_g_0.0_b_0_tri" target="#default_ai_0.2_sh_0.2_tr_0.0_dc_r_1.0_g_0.2_b_0.2_sc_r_1.0_g_1.0_b_1.0_ec_r_0.0_g_0.0_b_0_mat"/>
                        </technique_common>
                    </bind_material>
                </instance_geometry>
            </node>
        </visual_scene>
    </library_visual_scenes>
    <scene>
        <instance_visual_scene url="#Building_DEBW_5221000Qxit"/>
    </scene>
</COLLADA>
