<?xml version="1.0" encoding="UTF-8" standalone="yes"?>
<COLLADA xmlns="http://www.collada.org/2005/11/COLLADASchema" version="1.4.1">
    <asset>
        <contributor>
            <authoring_tool>3D City Database Importer/Exporter, version 5.5.3; Chair of Geoinformatics, Technical University of Munich</authoring_tool>
        </contributor>
        <created>2026-05-06T15:12:06.637</created>
        <modified>2026-05-06T15:12:06.637</modified>
        <unit meter="1.0" name="meters"/>
        <up_axis>Z_UP</up_axis>
    </asset>
    <library_materials>
        <material id="default_ai_0.2_sh_0.2_tr_0.0_dc_r_0.8_g_0.8_b_0.8_sc_r_1.0_g_1.0_b_1.0_ec_r_0.0_g_0.0_b_0_mat">
            <instance_effect url="#default_ai_0.2_sh_0.2_tr_0.0_dc_r_0.8_g_0.8_b_0.8_sc_r_1.0_g_1.0_b_1.0_ec_r_0.0_g_0.0_b_0_eff"/>
        </material>
        <material id="default_ai_0.2_sh_0.2_tr_0.0_dc_r_1.0_g_0.2_b_0.2_sc_r_1.0_g_1.0_b_1.0_ec_r_0.0_g_0.0_b_0_mat">
            <instance_effect url="#default_ai_0.2_sh_0.2_tr_0.0_dc_r_1.0_g_0.2_b_0.2_sc_r_1.0_g_1.0_b_1.0_ec_r_0.0_g_0.0_b_0_eff"/>
        </material>
    </library_materials>
    <library_effects>
        <effect id="default_ai_0.2_sh_0.2_tr_0.0_dc_r_0.8_g_0.8_b_0.8_sc_r_1.0_g_1.0_b_1.0_ec_r_0.0_g_0.0_b_0_eff">
            <profile_COMMON>
                <technique sid="COMMON">
                    <lambert>
                        <emission>
                            <color>0.0 0.0 0.0 1.0</color>
                        </emission>
                        <diffuse>
                            <color>0.8 0.8 0.8 1.0</color>
                        </diffuse>
                        <reflective>
                            <color>1.0 1.0 1.0 1.0</color>
                        </reflective>
                        <reflectivity>
                            <float>0.2</float>
                        </reflectivity>
                        <transparent opaque="A_ONE">
                            <color>1.0 1.0 1.0 1.0</color>
                        </transparent>
                        <transparency>
                            <float>1.0</float>
                        </transparency>
                    </lambert>
                </technique>
                <extra>
                    <technique profile="GOOGLEEARTH">
                        <double_sided>0</double_sided>
                    </technique>
                </extra>
            </profile_COMMON>
        </effect>
        <effect id="default_ai_0.2_sh_0.2_tr_0.0_dc_r_1.0_g_0.2_b_0.2_sc_r_1.0_g_1.0_b_1.0_ec_r_0.0_g_0.0_b_0_eff">
            <profile_COMMON>
                <technique sid="COMMON">
                    <lambert>
                        <emission>
                            <color>0.0 0.0 0.0 1.0</color>
                        </emission>
                        <diffuse>
                            <color>1.0 0.2 0.2 1.0</color>
                        </diffuse>
                        <reflective>
                            <color>1.0 1.0 1.0 1.0</color>
                        </reflective>
                        <reflectivity>
                            <float>0.2</float>
                        </reflectivity>
                        <transparent opaque="A_ONE">
                            <color>1.0 1.0 1.0 1.0</color>
                        </transparent>
                        <transparency>
                            <float>1.0</float>
                        </transparency>
                    </lambert>
                </technique>
                <extra>
                    <technique profile="GOOGLEEARTH">
                        <double_sided>0</double_sided>
                    </technique>
                </extra>
            </profile_COMMON>
        </effect>
    </library_effects>
    <library_geometries>
        <geometry id="geometry0">
            <mesh>
                <source id="geometry0-position">
                    <float_array id="geometry0-position-array" count="144">-5.02 5.27 9.497 0.0 0.0 9.497 0.0 0.0 0.0 -5.02 5.27 0.0 -9.299 1.185 9.497 -9.299 1.185 0.0 -3.9 -3.72 0.0 -3.9 -3.72 9.497 -2.26 -5.21 12.212 2.6 -10.29 12.212 2.6 -10.29 0.0 -2.26 -5.21 0.0 -2.26 -5.21 12.164 -5.354 -8.169 12.212 -0.48 -13.23 12.212 -0.48 -13.23 0.0 -5.354 -8.169 0.0 -5.354 -8.169 12.164 -14.269 -3.561 9.497 -16.35 -1.38 9.497 -16.35 -1.38 0.0 -14.269 -3.561 0.0 -13.07 1.75 9.497 -13.07 1.75 0.0 -10.99 -0.43 9.497 -10.99 -0.43 0.0 -2.37 -5.31 12.164 -3.9 -3.72 12.164 -9.299 1.185 12.164 -10.99 -0.43 12.164 -14.269 -3.561 12.164 -18.05 -7.17 12.164 -11.5 -14.04 12.164 -11.496 -14.044 12.164 -18.05 -7.17 0.0 -11.5 -14.04 0.0 -11.496 -14.044 0.0 -2.37 -5.31 0.0 -6.69 -21.25 12.217 0.56 -14.31 12.217 -0.48 -13.23 12.217 -5.354 -8.169 12.217 -11.496 -14.044 12.217 -11.5 -14.04 12.217 -12.58 -15.08 12.217 -12.58 -15.08 0.0 -6.69 -21.25 0.0 0.56 -14.31 0.0</float_array>
                    <technique_common>
                        <accessor count="48" source="#geometry0-position-array" stride="3">
                            <param name="X" type="float"/>
                            <param name="Y" type="float"/>
                            <param name="Z" type="float"/>
                        </accessor>
                    </technique_common>
                </source>
                <source id="geometry0-normal">
                    <float_array id="geometry0-normal-array" count="612">0.6724339 0.7401571 0.0 0.6724339 0.7401571 0.0 0.6724339 0.7401571 0.0 0.6724339 0.7401571 0.0 0.0 0.0 1.0 0.0 0.0 1.0 0.0 0.0 1.0 0.0 0.0 1.0 -0.6726728 0.73994 0.0 -0.6726728 0.73994 0.0 -0.6726728 0.73994 0.0 -0.6726728 0.73994 0.0 0.0 0.0 1.0 0.0 0.0 1.0 0.0 0.0 1.0 0.0 0.0 1.0 -0.6724339 -0.7401571 0.0 -0.6724339 -0.7401571 0.0 -0.6724339 -0.7401571 0.0 -0.6724339 -0.7401571 0.0 0.0 0.0 1.0 0.0 0.0 1.0 0.0 0.0 1.0 0.0 0.0 1.0 0.0 0.0 1.0 0.0 0.0 1.0 0.0 0.0 1.0 0.7071068 0.7071068 0.0 0.7071068 0.7071068 0.0 0.7071068 0.7071068 0.0 0.7071068 0.7071068 0.0 0.7071068 0.7071068 0.0 0.0 0.0 -1.0 0.0 0.0 -1.0 0.0 0.0 -1.0 0.0 0.0 -1.0 0.0 0.0 1.0 0.0 0.0 1.0 0.0 0.0 1.0 0.0 0.0 1.0 -0.6904622 0.7233685 0.0 -0.6904622 0.7233685 0.0 -0.6904622 0.7233685 0.0 -0.6904622 0.7233685 0.0 -0.6904622 0.7233685 0.0 -0.6903708 0.7234557 0.0 -0.6903708 0.7234557 0.0 -0.6903708 0.7234557 0.0 -0.6903708 0.7234557 0.0 -0.6905963 0.7232404 0.0 -0.6905963 0.7232404 0.0 -0.6905963 0.7232404 0.0 -0.6905963 0.7232404 0.0 0.672434 0.7401571 0.0 0.672434 0.7401571 0.0 0.672434 0.7401571 0.0 0.672434 0.7401571 0.0 -0.69052 0.7233133 0.0 -0.69052 0.7233133 0.0 -0.69052 0.7233133 0.0 -0.69052 0.7233133 0.0 -0.6911643 0.7226977 0.0 -0.6911643 0.7226977 0.0 -0.6911643 0.7226977 0.0 -0.6911643 0.7226977 0.0 -0.6912253 0.7226393 0.0 -0.6912253 0.7226393 0.0 -0.6912253 0.7226393 0.0 -0.6912253 0.7226393 0.0 -0.6912253 0.7226393 0.0 -0.7202886 -0.6936745 0.0 -0.7202886 -0.6936745 0.0 -0.7202886 -0.6936745 0.0 -0.7202886 -0.6936745 0.0 -0.7202886 -0.6936745 0.0 0.0 0.0 -1.0 0.0 0.0 -1.0 0.0 0.0 -1.0 0.0 0.0 -1.0 0.0 0.0 -1.0 0.0 0.0 -1.0 0.0 0.0 -1.0 0.0 0.0 -1.0 0.0 0.0 -1.0 0.0 0.0 -1.0 0.691494 -0.7223822 0.0 0.691494 -0.7223822 0.0 0.691494 -0.7223822 0.0 0.691494 -0.7223822 0.0 0.6902109 -0.7236083 0.0 0.6902109 -0.7236083 0.0 0.6902109 -0.7236083 0.0 0.6902109 -0.7236083 0.0 0.7235062 0.6903178 0.0 0.7235062 0.6903178 0.0 0.7235062 0.6903178 0.0 0.7235062 0.6903178 0.0 -0.6912253 0.7226393 0.0 -0.6912253 0.7226393 0.0 -0.6912253 0.7226393 0.0 -0.6912253 0.7226393 0.0 0.6905964 -0.7232404 0.0 0.6905964 -0.7232404 0.0 0.6905964 -0.7232404 0.0 0.6905964 -0.7232404 0.0 0.6904757 -0.7233555 0.0 0.6904757 -0.7233555 0.0 0.6904757 -0.7233555 0.0 0.6904757 -0.7233555 0.0 0.7225801 0.6912872 0.0 0.7225801 0.6912872 0.0 0.7225801 0.6912872 0.0 0.7225801 0.6912872 0.0 0.7225801 0.6912872 0.0 0.7202886 0.6936745 0.0 0.7202886 0.6936745 0.0 0.7202886 0.6936745 0.0 0.7202886 0.6936745 0.0 0.7202886 0.6936745 0.0 0.7202886 0.6936745 0.0 0.7202886 0.6936745 0.0 0.7202886 0.6936745 0.0 0.7202886 0.6936745 0.0 -0.6936417 0.7203202 0.0 -0.6936417 0.7203202 0.0 -0.6936417 0.7203202 0.0 -0.6936417 0.7203202 0.0 -0.7071068 -0.7071068 0.0 -0.7071068 -0.7071068 0.0 -0.7071068 -0.7071068 0.0 -0.7071068 -0.7071068 0.0 0.7205717 0.6933804 0.0 0.7205717 0.6933805 0.0 0.7205717 0.6933804 0.0 0.7205717 0.6933804 0.0 0.7205717 0.6933805 0.0 -0.690669 0.7231711 0.0 -0.690669 0.7231711 0.0 -0.690669 0.7231711 0.0 -0.690669 0.7231711 0.0 -0.690669 0.7231711 0.0 -0.690669 0.7231711 0.0 0.0 0.0 -1.0 0.0 0.0 -1.0 0.0 0.0 -1.0 0.0 0.0 -1.0 0.0 0.0 -1.0 0.0 0.0 -1.0 0.0 0.0 -1.0 0.0 0.0 -1.0 0.0 0.0 -1.0 0.0 0.0 -1.0 0.0 0.0 -1.0 -0.7233289 -0.6905036 0.0 -0.7233289 -0.6905036 0.0 -0.7233289 -0.6905036 0.0 -0.7233289 -0.6905036 0.0 -0.6911643 0.7226977 0.0 -0.6911643 0.7226977 0.0 -0.6911643 0.7226977 0.0 -0.6911643 0.7226977 0.0 0.0 0.0 1.0 0.0 0.0 1.0 0.0 0.0 1.0 0.0 0.0 1.0 0.0 0.0 1.0 0.0 0.0 1.0 0.0 0.0 1.0 0.0 0.0 1.0 0.0 0.0 1.0 0.0 0.0 1.0 0.6911643 -0.7226977 0.0 0.6911643 -0.7226977 0.0 0.6911643 -0.7226977 0.0 0.6911643 -0.7226977 0.0 -0.7234986 -0.6903258 0.0 -0.7234986 -0.6903258 0.0 -0.7234986 -0.6903258 0.0 -0.7234986 -0.6903258 0.0 -0.6905964 0.7232404 0.0 -0.6905964 0.7232404 0.0 -0.6905964 0.7232404 0.0 -0.6905964 0.7232404 0.0 0.7240726 0.6897238 0.0 0.7240726 0.6897238 0.0 0.7240726 0.6897238 0.0 0.7240726 0.6897238 0.0 0.0 0.0 -1.0 0.0 0.0 -1.0 0.0 0.0 -1.0 0.0 0.0 -1.0 -0.7237621 -0.6900496 0.0 -0.7237621 -0.6900496 0.0 -0.7237621 -0.6900496 0.0 -0.7237621 -0.6900496 0.0 0.6912253 -0.7226393 0.0 0.6912253 -0.7226393 0.0 0.6912253 -0.7226393 0.0 0.6912253 -0.7226393 0.0 0.7203205 0.6936414 0.0 0.7203205 0.6936414 0.0 0.7203205 0.6936414 0.0 0.7203205 0.6936414 0.0 0.7203205 0.6936414 0.0</float_array>
                    <technique_common>
                        <accessor count="204" source="#geometry0-normal-array" stride="3">
                            <param name="X" type="float"/>
                            <param name="Y" type="float"/>
                            <param name="Z" type="float"/>
                        </accessor>
                    </technique_common>
                </source>
                <vertices id="geometry0-vertex">
                    <input semantic="POSITION" source="#geometry0-position"/>
                </vertices>
                <triangles count="97" material="default_ai_0.2_sh_0.2_tr_0.0_dc_r_0.8_g_0.8_b_0.8_sc_r_1.0_g_1.0_b_1.0_ec_r_0.0_g_0.0_b_0_tri">
                    <input offset="0" semantic="VERTEX" source="#geometry0-vertex"/>
                    <input offset="1" semantic="NORMAL" source="#geometry0-normal"/>
                    <p>7 0 6 1 5 2 7 0 5 2 4 3 26 8 12 9 11 10 26 8 11 10 37 11 5 16 6 17 7 18 5 16 7 18 4 19 36 27 35 28 43 29 33 30 36 27 43 29 33 30 43 29 42 31 11 32 10 33 15 34 11 32 15 34 16 35 21 40 34 41 31 42 18 43 21 40 31 42 18 43 31 42 30 44 19 45 22 46 23 47 19 45 23 47 20 48 24 49 18 50 30 51 24 49 30 51 29 52 7 53 4 54 28 55 7 53 28 55 27 56 4 57 0 58 3 59 4 57 3 59 5 60 11 61 16 62 17 63 11 61 17 63 12 64 42 65 41 66 13 67 42 65 13 67 17 68 42 65 17 68 33 69 14 70 13 71 17 72 14 70 17 72 16 73 14 70 16 73 15 74 37 75 11 76 16 77 37 75 16 77 36 78 37 75 36 78 35 79 37 75 35 79 34 80 37 75 34 80 21 81 37 75 21 81 25 82 37 75 25 82 5 83 37 75 5 83 6 84 39 85 38 86 46 87 39 85 46 87 47 88 1 89 7 90 6 91 1 89 6 91 2 92 22 93 24 94 25 95 22 93 25 95 23 96 36 97 33 98 17 99 36 97 17 99 16 100 21 101 25 102 24 103 21 101 24 103 18 104 9 105 14 106 15 107 9 105 15 107 10 108 10 109 11 110 12 111 10 109 12 111 8 112 10 109 8 112 9 113 14 114 13 115 41 116 14 114 41 116 40 117 17 118 13 119 14 120 17 118 14 120 15 121 17 118 15 121 16 122 44 123 43 124 35 125 44 123 35 125 45 126 33 127 32 128 35 129 33 127 35 129 36 130 37 131 6 132 7 133 37 131 7 133 27 134 37 131 27 134 26 135 5 136 25 137 24 138 5 136 24 138 29 139 4 140 5 136 29 139 4 140 29 139 28 141 47 142 46 143 45 144 15 145 47 142 45 144 36 146 16 147 15 145 36 146 15 145 45 144 36 146 45 144 35 148 6 149 5 150 3 151 6 149 3 151 2 152 38 153 44 154 45 155 38 153 45 155 46 156 12 157 17 158 13 159 12 157 13 159 8 160 16 171 11 172 12 173 16 171 12 173 17 174 18 175 19 176 20 177 18 175 20 177 21 178 24 179 25 180 21 181 24 179 21 181 18 182 0 183 1 184 2 185 0 183 2 185 3 186 21 187 20 188 23 189 21 187 23 189 25 190 32 191 31 192 34 193 32 191 34 193 35 194 36 195 16 196 17 197 36 195 17 197 33 198 47 199 15 200 14 201 47 199 14 201 40 202 47 199 40 202 39 203</p>
                </triangles>
                <triangles count="19" material="default_ai_0.2_sh_0.2_tr_0.0_dc_r_1.0_g_0.2_b_0.2_sc_r_1.0_g_1.0_b_1.0_ec_r_0.0_g_0.0_b_0_tri">
                    <input offset="0" semantic="VERTEX" source="#geometry0-vertex"/>
                    <input offset="1" semantic="NORMAL" source="#geometry0-normal"/>
                    <p>1 4 0 5 4 6 1 4 4 6 7 7 13 12 14 13 9 14 13 12 9 14 8 15 43 20 44 21 38 22 42 23 43 20 38 22 42 23 38 22 39 24 42 23 39 24 40 25 42 23 40 25 41 26 24 36 22 37 19 38 24 36 19 38 18 39 32 161 33 162 17 163 32 161 17 163 12 164 32 161 12 164 26 165 32 161 26 165 27 166 32 161 27 166 28 167 32 161 28 167 29 168 32 161 29 168 30 169 32 161 30 169 31 170</p>
                </triangles>
            </mesh>
        </geometry>
    </library_geometries>
    <library_visual_scenes>
        <visual_scene id="Building_DEBW_5221000QesJ">
            <node>
                <instance_geometry url="#geometry0">
                    <bind_material>
                        <technique_common>
                            <instance_material symbol="default_ai_0.2_sh_0.2_tr_0.0_dc_r_0.8_g_0.8_b_0.8_sc_r_1.0_g_1.0_b_1.0_ec_r_0.0_g_0.0_b_0_tri" target="#default_ai_0.2_sh_0.2_tr_0.0_dc_r_0.8_g_0.8_b_0.8_sc_r_1.0_g_1.0_b_1.0_ec_r_0.0_g_0.0_b_0_mat"/>
                            <instance_material symbol="default_ai_0.2_sh_0.2_tr_0.0_dc_r_1.0_g_0.2_b_0.2_sc_r_1.0_g_1.0_b_1.0_ec_r_0.0_g_0.0_b_0_tri" target="#default_ai_0.2_sh_0.2_tr_0.0_dc_r_1.0_g_0.2_b_0.2_sc_r_1.0_g_1.0_b_1.0_ec_r_0.0_g_0.0_b_0_mat"/>
                        </technique_common>
                    </bind_material>
                </instance_geometry>
            </node>
        </visual_scene>
    </library_visual_scenes>
    <scene>
        <instance_visual_scene url="#Building_DEBW_5221000QesJ"/>
    </scene>
</COLLADA>
