<?xml version="1.0" encoding="UTF-8" standalone="yes"?>
<COLLADA xmlns="http://www.collada.org/2005/11/COLLADASchema" version="1.4.1">
    <asset>
        <contributor>
            <authoring_tool>3D City Database Importer/Exporter, version 5.5.3; Chair of Geoinformatics, Technical University of Munich</authoring_tool>
        </contributor>
        <created>2026-05-06T15:12:03.645</created>
        <modified>2026-05-06T15:12:03.645</modified>
        <unit meter="1.0" name="meters"/>
        <up_axis>Z_UP</up_axis>
    </asset>
    <library_materials>
        <material id="default_ai_0.2_sh_0.2_tr_0.0_dc_r_0.8_g_0.8_b_0.8_sc_r_1.0_g_1.0_b_1.0_ec_r_0.0_g_0.0_b_0_mat">
            <instance_effect url="#default_ai_0.2_sh_0.2_tr_0.0_dc_r_0.8_g_0.8_b_0.8_sc_r_1.0_g_1.0_b_1.0_ec_r_0.0_g_0.0_b_0_eff"/>
        </material>
        <material id="default_ai_0.2_sh_0.2_tr_0.0_dc_r_1.0_g_0.2_b_0.2_sc_r_1.0_g_1.0_b_1.0_ec_r_0.0_g_0.0_b_0_mat">
            <instance_effect url="#default_ai_0.2_sh_0.2_tr_0.0_dc_r_1.0_g_0.2_b_0.2_sc_r_1.0_g_1.0_b_1.0_ec_r_0.0_g_0.0_b_0_eff"/>
        </material>
    </library_materials>
    <library_effects>
        <effect id="default_ai_0.2_sh_0.2_tr_0.0_dc_r_0.8_g_0.8_b_0.8_sc_r_1.0_g_1.0_b_1.0_ec_r_0.0_g_0.0_b_0_eff">
            <profile_COMMON>
                <technique sid="COMMON">
                    <lambert>
                        <emission>
                            <color>0.0 0.0 0.0 1.0</color>
                        </emission>
                        <diffuse>
                            <color>0.8 0.8 0.8 1.0</color>
                        </diffuse>
                        <reflective>
                            <color>1.0 1.0 1.0 1.0</color>
                        </reflective>
                        <reflectivity>
                            <float>0.2</float>
                        </reflectivity>
                        <transparent opaque="A_ONE">
                            <color>1.0 1.0 1.0 1.0</color>
                        </transparent>
                        <transparency>
                            <float>1.0</float>
                        </transparency>
                    </lambert>
                </technique>
                <extra>
                    <technique profile="GOOGLEEARTH">
                        <double_sided>0</double_sided>
                    </technique>
                </extra>
            </profile_COMMON>
        </effect>
        <effect id="default_ai_0.2_sh_0.2_tr_0.0_dc_r_1.0_g_0.2_b_0.2_sc_r_1.0_g_1.0_b_1.0_ec_r_0.0_g_0.0_b_0_eff">
            <profile_COMMON>
                <technique sid="COMMON">
                    <lambert>
                        <emission>
                            <color>0.0 0.0 0.0 1.0</color>
                        </emission>
                        <diffuse>
                            <color>1.0 0.2 0.2 1.0</color>
                        </diffuse>
                        <reflective>
                            <color>1.0 1.0 1.0 1.0</color>
                        </reflective>
                        <reflectivity>
                            <float>0.2</float>
                        </reflectivity>
                        <transparent opaque="A_ONE">
                            <color>1.0 1.0 1.0 1.0</color>
                        </transparent>
                        <transparency>
                            <float>1.0</float>
                        </transparency>
                    </lambert>
                </technique>
                <extra>
                    <technique profile="GOOGLEEARTH">
                        <double_sided>0</double_sided>
                    </technique>
                </extra>
            </profile_COMMON>
        </effect>
    </library_effects>
    <library_geometries>
        <geometry id="geometry0">
            <mesh>
                <source id="geometry0-position">
                    <float_array id="geometry0-position-array" count="48">3.317 -2.494 7.096 3.475 -3.59 7.096 5.96 -0.28 6.381 5.8 0.82 6.381 1.46 -10.29 6.381 0.0 0.0 6.381 0.0 0.0 0.0 1.46 -10.29 0.0 5.364 -5.078 7.501 5.353 -5.006 7.501 5.96 -0.28 0.0 5.8 0.82 0.0 9.27 0.18 6.381 10.55 -8.97 6.381 10.55 -8.97 0.0 9.27 0.18 0.0</float_array>
                    <technique_common>
                        <accessor count="16" source="#geometry0-position-array" stride="3">
                            <param name="X" type="float"/>
                            <param name="Y" type="float"/>
                            <param name="Z" type="float"/>
                        </accessor>
                    </technique_common>
                </source>
                <source id="geometry0-normal">
                    <float_array id="geometry0-normal-array" count="162">0.0 0.0 -1.0 0.0 0.0 -1.0 0.0 0.0 -1.0 0.0 0.0 -1.0 0.0 0.0 -1.0 0.0 0.0 -1.0 0.1437072 -0.9896202 0.0 0.1437072 -0.9896202 0.0 0.1437072 -0.9896202 0.0 0.1437072 -0.9896202 0.0 -0.9900838 -0.1404784 0.0 -0.9900838 -0.1404784 0.0 -0.9900838 -0.1404784 0.0 -0.9900838 -0.1404784 0.0 -0.0326305 0.234424 0.9715866 -0.0326957 0.2345195 0.9715614 -0.0326305 0.234424 0.9715866 -0.0325653 0.2343285 0.9716119 -0.1399872 0.9901533 0.0 -0.1399872 0.9901533 0.0 -0.1399872 0.9901533 0.0 -0.1399872 0.9901533 0.0 -0.2337756 -0.0334345 0.9717156 -0.2344363 -0.0332631 0.9715622 -0.2339958 -0.0333484 0.9716655 -0.2347319 -0.0343117 0.9714544 -0.2355401 -0.0346645 0.9712462 -0.2366433 -0.0361528 0.9709237 0.2356136 0.0344856 0.9712348 0.2368299 0.0361813 0.9708772 0.2356136 0.0344856 0.9712348 0.2343963 0.0327899 0.9715881 0.0340183 -0.2342622 0.9715781 0.0340183 -0.2342622 0.9715781 0.0340183 -0.2342622 0.9715781 0.2343962 0.0339423 0.9715484 0.2345043 0.0338063 0.9715272 0.2343962 0.0339423 0.9715484 0.234288 0.0340782 0.9715698 -0.0331465 0.2344509 0.9715627 -0.0331465 0.2344509 0.9715627 -0.0331465 0.2344509 0.9715627 0.9895865 0.1439397 0.0 0.9895865 0.1439397 0.0 0.9895865 0.1439397 0.0 0.9895865 0.1439397 0.0 -0.1376499 0.990481 0.0 -0.1376499 0.990481 0.0 -0.1376499 0.990481 0.0 -0.1376499 0.990481 0.0 0.9903567 0.1385417 0.0 0.9903567 0.1385417 0.0 0.9903567 0.1385417 0.0 0.9903567 0.1385417 0.0</float_array>
                    <technique_common>
                        <accessor count="54" source="#geometry0-normal-array" stride="3">
                            <param name="X" type="float"/>
                            <param name="Y" type="float"/>
                            <param name="Z" type="float"/>
                        </accessor>
                    </technique_common>
                </source>
                <vertices id="geometry0-vertex">
                    <input semantic="POSITION" source="#geometry0-position"/>
                </vertices>
                <triangles count="16" material="default_ai_0.2_sh_0.2_tr_0.0_dc_r_0.8_g_0.8_b_0.8_sc_r_1.0_g_1.0_b_1.0_ec_r_0.0_g_0.0_b_0_tri">
                    <input offset="0" semantic="VERTEX" source="#geometry0-vertex"/>
                    <input offset="1" semantic="NORMAL" source="#geometry0-normal"/>
                    <p>6 0 11 1 10 2 7 3 6 0 10 2 7 3 10 2 15 4 7 3 15 4 14 5 13 6 4 7 7 8 13 6 7 8 14 9 4 10 5 11 6 12 4 10 6 12 7 13 5 18 3 19 11 20 5 18 11 20 6 21 3 42 2 43 10 44 3 42 10 44 11 45 2 46 12 47 15 48 2 46 15 48 10 49 12 50 13 51 14 52 12 50 14 52 15 53</p>
                </triangles>
                <triangles count="12" material="default_ai_0.2_sh_0.2_tr_0.0_dc_r_1.0_g_0.2_b_0.2_sc_r_1.0_g_1.0_b_1.0_ec_r_0.0_g_0.0_b_0_tri">
                    <input offset="0" semantic="VERTEX" source="#geometry0-vertex"/>
                    <input offset="1" semantic="NORMAL" source="#geometry0-normal"/>
                    <p>1 14 9 15 12 16 1 14 12 16 2 17 0 22 5 23 4 24 1 25 0 22 4 24 1 25 4 24 8 26 1 25 8 26 9 27 9 28 8 29 13 30 9 28 13 30 12 31 8 32 4 33 13 34 0 35 1 36 2 37 0 35 2 37 3 38 0 39 3 40 5 41</p>
                </triangles>
            </mesh>
        </geometry>
    </library_geometries>
    <library_visual_scenes>
        <visual_scene id="Building_DEBW_5221000QhAl">
            <node>
                <instance_geometry url="#geometry0">
                    <bind_material>
                        <technique_common>
                            <instance_material symbol="default_ai_0.2_sh_0.2_tr_0.0_dc_r_0.8_g_0.8_b_0.8_sc_r_1.0_g_1.0_b_1.0_ec_r_0.0_g_0.0_b_0_tri" target="#default_ai_0.2_sh_0.2_tr_0.0_dc_r_0.8_g_0.8_b_0.8_sc_r_1.0_g_1.0_b_1.0_ec_r_0.0_g_0.0_b_0_mat"/>
                            <instance_material symbol="default_ai_0.2_sh_0.2_tr_0.0_dc_r_1.0_g_0.2_b_0.2_sc_r_1.0_g_1.0_b_1.0_ec_r_0.0_g_0.0_b_0_tri" target="#default_ai_0.2_sh_0.2_tr_0.0_dc_r_1.0_g_0.2_b_0.2_sc_r_1.0_g_1.0_b_1.0_ec_r_0.0_g_0.0_b_0_mat"/>
                        </technique_common>
                    </bind_material>
                </instance_geometry>
            </node>
        </visual_scene>
    </library_visual_scenes>
    <scene>
        <instance_visual_scene url="#Building_DEBW_5221000QhAl"/>
    </scene>
</COLLADA>
