<?xml version="1.0" encoding="UTF-8" standalone="yes"?>
<COLLADA xmlns="http://www.collada.org/2005/11/COLLADASchema" version="1.4.1">
    <asset>
        <contributor>
            <authoring_tool>3D City Database Importer/Exporter, version 5.5.3; Chair of Geoinformatics, Technical University of Munich</authoring_tool>
        </contributor>
        <created>2026-05-06T15:12:16.845</created>
        <modified>2026-05-06T15:12:16.845</modified>
        <unit meter="1.0" name="meters"/>
        <up_axis>Z_UP</up_axis>
    </asset>
    <library_materials>
        <material id="default_ai_0.2_sh_0.2_tr_0.0_dc_r_1.0_g_0.2_b_0.2_sc_r_1.0_g_1.0_b_1.0_ec_r_0.0_g_0.0_b_0_mat">
            <instance_effect url="#default_ai_0.2_sh_0.2_tr_0.0_dc_r_1.0_g_0.2_b_0.2_sc_r_1.0_g_1.0_b_1.0_ec_r_0.0_g_0.0_b_0_eff"/>
        </material>
        <material id="default_ai_0.2_sh_0.2_tr_0.0_dc_r_0.8_g_0.8_b_0.8_sc_r_1.0_g_1.0_b_1.0_ec_r_0.0_g_0.0_b_0_mat">
            <instance_effect url="#default_ai_0.2_sh_0.2_tr_0.0_dc_r_0.8_g_0.8_b_0.8_sc_r_1.0_g_1.0_b_1.0_ec_r_0.0_g_0.0_b_0_eff"/>
        </material>
    </library_materials>
    <library_effects>
        <effect id="default_ai_0.2_sh_0.2_tr_0.0_dc_r_1.0_g_0.2_b_0.2_sc_r_1.0_g_1.0_b_1.0_ec_r_0.0_g_0.0_b_0_eff">
            <profile_COMMON>
                <technique sid="COMMON">
                    <lambert>
                        <emission>
                            <color>0.0 0.0 0.0 1.0</color>
                        </emission>
                        <diffuse>
                            <color>1.0 0.2 0.2 1.0</color>
                        </diffuse>
                        <reflective>
                            <color>1.0 1.0 1.0 1.0</color>
                        </reflective>
                        <reflectivity>
                            <float>0.2</float>
                        </reflectivity>
                        <transparent opaque="A_ONE">
                            <color>1.0 1.0 1.0 1.0</color>
                        </transparent>
                        <transparency>
                            <float>1.0</float>
                        </transparency>
                    </lambert>
                </technique>
                <extra>
                    <technique profile="GOOGLEEARTH">
                        <double_sided>0</double_sided>
                    </technique>
                </extra>
            </profile_COMMON>
        </effect>
        <effect id="default_ai_0.2_sh_0.2_tr_0.0_dc_r_0.8_g_0.8_b_0.8_sc_r_1.0_g_1.0_b_1.0_ec_r_0.0_g_0.0_b_0_eff">
            <profile_COMMON>
                <technique sid="COMMON">
                    <lambert>
                        <emission>
                            <color>0.0 0.0 0.0 1.0</color>
                        </emission>
                        <diffuse>
                            <color>0.8 0.8 0.8 1.0</color>
                        </diffuse>
                        <reflective>
                            <color>1.0 1.0 1.0 1.0</color>
                        </reflective>
                        <reflectivity>
                            <float>0.2</float>
                        </reflectivity>
                        <transparent opaque="A_ONE">
                            <color>1.0 1.0 1.0 1.0</color>
                        </transparent>
                        <transparency>
                            <float>1.0</float>
                        </transparency>
                    </lambert>
                </technique>
                <extra>
                    <technique profile="GOOGLEEARTH">
                        <double_sided>0</double_sided>
                    </technique>
                </extra>
            </profile_COMMON>
        </effect>
    </library_effects>
    <library_geometries>
        <geometry id="geometry0">
            <mesh>
                <source id="geometry0-position">
                    <float_array id="geometry0-position-array" count="45">4.47 -4.02 2.417 8.59 1.88 2.399 6.123 3.603 4.091 2.238 -2.012 4.091 0.0 0.0 2.399 0.0 0.0 2.427 3.65 5.33 2.409 4.15 4.981 2.749 4.15 4.981 2.399 4.47 -4.02 2.399 0.0 0.0 0.0 4.47 -4.02 0.0 3.65 5.33 0.0 4.15 4.981 0.0 8.59 1.88 0.0</float_array>
                    <technique_common>
                        <accessor count="15" source="#geometry0-position-array" stride="3">
                            <param name="X" type="float"/>
                            <param name="Y" type="float"/>
                            <param name="Z" type="float"/>
                        </accessor>
                    </technique_common>
                </source>
                <source id="geometry0-normal">
                    <float_array id="geometry0-normal-array" count="156">0.4030258 -0.2788142 0.8716839 0.403091 -0.2788212 0.8716515 0.4030258 -0.2788142 0.8716839 0.4029607 -0.2788072 0.8717163 -0.8250794 0.5650169 0.0 -0.8250794 0.5650169 0.0 -0.8250794 0.5650169 0.0 -0.8250794 0.5650169 0.0 0.5723612 0.8200017 0.0 0.5723611 0.8200017 0.0 0.5723612 0.8200017 0.0 0.5723612 0.8200017 0.0 0.8198842 -0.5725294 0.0 0.8198842 -0.5725294 0.0 0.8198842 -0.5725294 0.0 0.8198842 -0.5725294 0.0 0.8198842 -0.5725293 0.0 0.8198842 -0.5725293 0.0 0.8198842 -0.5725293 0.0 -0.668689 -0.7435422 0.0 -0.668689 -0.7435422 0.0 -0.668689 -0.7435422 0.0 -0.668689 -0.7435422 0.0 0.572596 0.8198377 2.6E-6 0.5725975 0.8198367 0.0 0.572596 0.8198377 2.6E-6 0.5725946 0.8198387 5.2E-6 0.5723611 0.8200017 0.0 0.5723611 0.8200017 0.0 0.5723611 0.8200017 0.0 0.5725945 0.8198388 0.0 0.5725945 0.8198388 0.0 0.5725945 0.8198388 0.0 0.5725945 0.8198388 0.0 -0.6686889 -0.7435424 1.037E-4 -0.668689 -0.7435422 0.0 -0.668689 -0.7435422 0.0 -0.6686888 -0.7435424 1.555E-4 -0.6686885 -0.7435425 3.11E-4 -0.3784542 0.3080847 0.8728437 -0.332876 0.3687072 0.8678989 -0.3672635 0.3234711 0.8720573 -0.4004238 0.2771063 0.873426 -0.4003886 0.2770275 0.8734671 -0.8250794 0.5650169 0.0 -0.8250794 0.5650169 0.0 -0.8250794 0.5650169 0.0 0.0 0.0 -1.0 0.0 0.0 -1.0 0.0 0.0 -1.0 0.0 0.0 -1.0 0.0 0.0 -1.0</float_array>
                    <technique_common>
                        <accessor count="52" source="#geometry0-normal-array" stride="3">
                            <param name="X" type="float"/>
                            <param name="Y" type="float"/>
                            <param name="Z" type="float"/>
                        </accessor>
                    </technique_common>
                </source>
                <vertices id="geometry0-vertex">
                    <input semantic="POSITION" source="#geometry0-position"/>
                </vertices>
                <triangles count="21" material="default_ai_0.2_sh_0.2_tr_0.0_dc_r_0.8_g_0.8_b_0.8_sc_r_1.0_g_1.0_b_1.0_ec_r_0.0_g_0.0_b_0_tri">
                    <input offset="0" semantic="VERTEX" source="#geometry0-vertex"/>
                    <input offset="1" semantic="NORMAL" source="#geometry0-normal"/>
                    <p>4 4 6 5 12 6 4 4 12 6 10 7 6 8 8 9 13 10 6 8 13 10 12 11 1 12 9 13 11 14 1 12 11 14 14 15 1 16 0 17 9 18 9 19 4 20 10 21 9 19 10 21 11 22 8 23 7 24 2 25 8 23 2 25 1 26 6 27 7 28 8 29 8 30 1 31 14 32 8 30 14 32 13 33 5 34 4 35 9 36 5 34 9 36 0 37 5 34 0 37 3 38 4 44 5 45 6 46 11 47 10 48 12 49 11 47 12 49 13 50 11 47 13 50 14 51</p>
                </triangles>
                <triangles count="5" material="default_ai_0.2_sh_0.2_tr_0.0_dc_r_1.0_g_0.2_b_0.2_sc_r_1.0_g_1.0_b_1.0_ec_r_0.0_g_0.0_b_0_tri">
                    <input offset="0" semantic="VERTEX" source="#geometry0-vertex"/>
                    <input offset="1" semantic="NORMAL" source="#geometry0-normal"/>
                    <p>0 0 1 1 2 2 0 0 2 2 3 3 2 39 7 40 6 41 2 39 6 41 5 42 2 39 5 42 3 43</p>
                </triangles>
            </mesh>
        </geometry>
    </library_geometries>
    <library_visual_scenes>
        <visual_scene id="Building_DEBW_5221000R0el">
            <node>
                <instance_geometry url="#geometry0">
                    <bind_material>
                        <technique_common>
                            <instance_material symbol="default_ai_0.2_sh_0.2_tr_0.0_dc_r_0.8_g_0.8_b_0.8_sc_r_1.0_g_1.0_b_1.0_ec_r_0.0_g_0.0_b_0_tri" target="#default_ai_0.2_sh_0.2_tr_0.0_dc_r_0.8_g_0.8_b_0.8_sc_r_1.0_g_1.0_b_1.0_ec_r_0.0_g_0.0_b_0_mat"/>
                            <instance_material symbol="default_ai_0.2_sh_0.2_tr_0.0_dc_r_1.0_g_0.2_b_0.2_sc_r_1.0_g_1.0_b_1.0_ec_r_0.0_g_0.0_b_0_tri" target="#default_ai_0.2_sh_0.2_tr_0.0_dc_r_1.0_g_0.2_b_0.2_sc_r_1.0_g_1.0_b_1.0_ec_r_0.0_g_0.0_b_0_mat"/>
                        </technique_common>
                    </bind_material>
                </instance_geometry>
            </node>
        </visual_scene>
    </library_visual_scenes>
    <scene>
        <instance_visual_scene url="#Building_DEBW_5221000R0el"/>
    </scene>
</COLLADA>
