<?xml version="1.0" encoding="UTF-8" standalone="yes"?>
<COLLADA xmlns="http://www.collada.org/2005/11/COLLADASchema" version="1.4.1">
    <asset>
        <contributor>
            <authoring_tool>3D City Database Importer/Exporter, version 5.5.3; Chair of Geoinformatics, Technical University of Munich</authoring_tool>
        </contributor>
        <created>2026-05-06T15:12:05.226</created>
        <modified>2026-05-06T15:12:05.226</modified>
        <unit meter="1.0" name="meters"/>
        <up_axis>Z_UP</up_axis>
    </asset>
    <library_materials>
        <material id="default_ai_0.2_sh_0.2_tr_0.0_dc_r_0.8_g_0.8_b_0.8_sc_r_1.0_g_1.0_b_1.0_ec_r_0.0_g_0.0_b_0_mat">
            <instance_effect url="#default_ai_0.2_sh_0.2_tr_0.0_dc_r_0.8_g_0.8_b_0.8_sc_r_1.0_g_1.0_b_1.0_ec_r_0.0_g_0.0_b_0_eff"/>
        </material>
        <material id="default_ai_0.2_sh_0.2_tr_0.0_dc_r_1.0_g_0.2_b_0.2_sc_r_1.0_g_1.0_b_1.0_ec_r_0.0_g_0.0_b_0_mat">
            <instance_effect url="#default_ai_0.2_sh_0.2_tr_0.0_dc_r_1.0_g_0.2_b_0.2_sc_r_1.0_g_1.0_b_1.0_ec_r_0.0_g_0.0_b_0_eff"/>
        </material>
    </library_materials>
    <library_effects>
        <effect id="default_ai_0.2_sh_0.2_tr_0.0_dc_r_0.8_g_0.8_b_0.8_sc_r_1.0_g_1.0_b_1.0_ec_r_0.0_g_0.0_b_0_eff">
            <profile_COMMON>
                <technique sid="COMMON">
                    <lambert>
                        <emission>
                            <color>0.0 0.0 0.0 1.0</color>
                        </emission>
                        <diffuse>
                            <color>0.8 0.8 0.8 1.0</color>
                        </diffuse>
                        <reflective>
                            <color>1.0 1.0 1.0 1.0</color>
                        </reflective>
                        <reflectivity>
                            <float>0.2</float>
                        </reflectivity>
                        <transparent opaque="A_ONE">
                            <color>1.0 1.0 1.0 1.0</color>
                        </transparent>
                        <transparency>
                            <float>1.0</float>
                        </transparency>
                    </lambert>
                </technique>
                <extra>
                    <technique profile="GOOGLEEARTH">
                        <double_sided>0</double_sided>
                    </technique>
                </extra>
            </profile_COMMON>
        </effect>
        <effect id="default_ai_0.2_sh_0.2_tr_0.0_dc_r_1.0_g_0.2_b_0.2_sc_r_1.0_g_1.0_b_1.0_ec_r_0.0_g_0.0_b_0_eff">
            <profile_COMMON>
                <technique sid="COMMON">
                    <lambert>
                        <emission>
                            <color>0.0 0.0 0.0 1.0</color>
                        </emission>
                        <diffuse>
                            <color>1.0 0.2 0.2 1.0</color>
                        </diffuse>
                        <reflective>
                            <color>1.0 1.0 1.0 1.0</color>
                        </reflective>
                        <reflectivity>
                            <float>0.2</float>
                        </reflectivity>
                        <transparent opaque="A_ONE">
                            <color>1.0 1.0 1.0 1.0</color>
                        </transparent>
                        <transparency>
                            <float>1.0</float>
                        </transparency>
                    </lambert>
                </technique>
                <extra>
                    <technique profile="GOOGLEEARTH">
                        <double_sided>0</double_sided>
                    </technique>
                </extra>
            </profile_COMMON>
        </effect>
    </library_effects>
    <library_geometries>
        <geometry id="geometry0">
            <mesh>
                <source id="geometry0-position">
                    <float_array id="geometry0-position-array" count="30">0.0 0.0 0.0 -1.47 7.8 0.0 7.24 9.47 0.0 8.73 1.52 0.0 0.0 0.0 5.407 8.73 1.52 5.396 4.354 0.758 9.647 -1.47 7.8 5.403 2.874 8.633 9.647 7.24 9.47 5.392</float_array>
                    <technique_common>
                        <accessor count="10" source="#geometry0-position-array" stride="3">
                            <param name="X" type="float"/>
                            <param name="Y" type="float"/>
                            <param name="Z" type="float"/>
                        </accessor>
                    </technique_common>
                </source>
                <source id="geometry0-normal">
                    <float_array id="geometry0-normal-array" count="102">-0.1883037 0.9821109 -2.53E-5 -0.1883037 0.9821109 -2.53E-5 -0.1883037 0.9821109 -2.53E-5 0.9828862 0.1842138 0.0 0.9828862 0.1842139 0.0 0.9828862 0.1842138 0.0 0.9828862 0.1842138 0.0 -0.1883037 0.9821109 0.0 -0.1883037 0.9821109 0.0 -0.1883037 0.9821109 0.0 -0.1883037 0.9821109 0.0 0.0 0.0 -1.0 0.0 0.0 -1.0 0.0 0.0 -1.0 0.0 0.0 -1.0 0.1715317 -0.9851786 0.0 0.1715317 -0.9851786 0.0 0.1715317 -0.9851786 0.0 0.1715317 -0.9851786 0.0 0.6795563 0.1277201 0.7224201 0.6795612 0.1277277 0.7224142 0.6795563 0.1277201 0.7224201 0.6795514 0.1277125 0.7224261 -0.6804289 -0.127871 0.7215716 -0.6804242 -0.1278637 0.7215773 -0.6804289 -0.127871 0.7215716 -0.6804335 -0.1278783 0.721566 0.1715317 -0.9851786 -1.97E-5 0.1715317 -0.9851786 -1.97E-5 0.1715317 -0.9851786 -1.97E-5 -0.9827006 -0.1852013 0.0 -0.9827006 -0.1852013 0.0 -0.9827006 -0.1852013 0.0 -0.9827006 -0.1852013 0.0</float_array>
                    <technique_common>
                        <accessor count="34" source="#geometry0-normal-array" stride="3">
                            <param name="X" type="float"/>
                            <param name="Y" type="float"/>
                            <param name="Z" type="float"/>
                        </accessor>
                    </technique_common>
                </source>
                <vertices id="geometry0-vertex">
                    <input semantic="POSITION" source="#geometry0-position"/>
                </vertices>
                <triangles count="12" material="default_ai_0.2_sh_0.2_tr_0.0_dc_r_0.8_g_0.8_b_0.8_sc_r_1.0_g_1.0_b_1.0_ec_r_0.0_g_0.0_b_0_tri">
                    <input offset="0" semantic="VERTEX" source="#geometry0-vertex"/>
                    <input offset="1" semantic="NORMAL" source="#geometry0-normal"/>
                    <p>9 0 7 1 8 2 9 3 5 4 3 5 9 3 3 5 2 6 7 7 9 8 2 9 7 7 2 9 1 10 0 11 1 12 2 13 0 11 2 13 3 14 5 15 4 16 0 17 5 15 0 17 3 18 4 27 5 28 6 29 4 30 7 31 1 32 4 30 1 32 0 33</p>
                </triangles>
                <triangles count="4" material="default_ai_0.2_sh_0.2_tr_0.0_dc_r_1.0_g_0.2_b_0.2_sc_r_1.0_g_1.0_b_1.0_ec_r_0.0_g_0.0_b_0_tri">
                    <input offset="0" semantic="VERTEX" source="#geometry0-vertex"/>
                    <input offset="1" semantic="NORMAL" source="#geometry0-normal"/>
                    <p>5 19 9 20 8 21 5 19 8 21 6 22 7 23 4 24 6 25 7 23 6 25 8 26</p>
                </triangles>
            </mesh>
        </geometry>
    </library_geometries>
    <library_visual_scenes>
        <visual_scene id="Building_DEBW_5221000QhMh">
            <node>
                <instance_geometry url="#geometry0">
                    <bind_material>
                        <technique_common>
                            <instance_material symbol="default_ai_0.2_sh_0.2_tr_0.0_dc_r_0.8_g_0.8_b_0.8_sc_r_1.0_g_1.0_b_1.0_ec_r_0.0_g_0.0_b_0_tri" target="#default_ai_0.2_sh_0.2_tr_0.0_dc_r_0.8_g_0.8_b_0.8_sc_r_1.0_g_1.0_b_1.0_ec_r_0.0_g_0.0_b_0_mat"/>
                            <instance_material symbol="default_ai_0.2_sh_0.2_tr_0.0_dc_r_1.0_g_0.2_b_0.2_sc_r_1.0_g_1.0_b_1.0_ec_r_0.0_g_0.0_b_0_tri" target="#default_ai_0.2_sh_0.2_tr_0.0_dc_r_1.0_g_0.2_b_0.2_sc_r_1.0_g_1.0_b_1.0_ec_r_0.0_g_0.0_b_0_mat"/>
                        </technique_common>
                    </bind_material>
                </instance_geometry>
            </node>
        </visual_scene>
    </library_visual_scenes>
    <scene>
        <instance_visual_scene url="#Building_DEBW_5221000QhMh"/>
    </scene>
</COLLADA>
