<?xml version="1.0" encoding="UTF-8" standalone="yes"?>
<COLLADA xmlns="http://www.collada.org/2005/11/COLLADASchema" version="1.4.1">
    <asset>
        <contributor>
            <authoring_tool>3D City Database Importer/Exporter, version 5.5.3; Chair of Geoinformatics, Technical University of Munich</authoring_tool>
        </contributor>
        <created>2026-05-06T15:12:07.651</created>
        <modified>2026-05-06T15:12:07.651</modified>
        <unit meter="1.0" name="meters"/>
        <up_axis>Z_UP</up_axis>
    </asset>
    <library_materials>
        <material id="default_ai_0.2_sh_0.2_tr_0.0_dc_r_0.8_g_0.8_b_0.8_sc_r_1.0_g_1.0_b_1.0_ec_r_0.0_g_0.0_b_0_mat">
            <instance_effect url="#default_ai_0.2_sh_0.2_tr_0.0_dc_r_0.8_g_0.8_b_0.8_sc_r_1.0_g_1.0_b_1.0_ec_r_0.0_g_0.0_b_0_eff"/>
        </material>
        <material id="default_ai_0.2_sh_0.2_tr_0.0_dc_r_1.0_g_0.2_b_0.2_sc_r_1.0_g_1.0_b_1.0_ec_r_0.0_g_0.0_b_0_mat">
            <instance_effect url="#default_ai_0.2_sh_0.2_tr_0.0_dc_r_1.0_g_0.2_b_0.2_sc_r_1.0_g_1.0_b_1.0_ec_r_0.0_g_0.0_b_0_eff"/>
        </material>
    </library_materials>
    <library_effects>
        <effect id="default_ai_0.2_sh_0.2_tr_0.0_dc_r_0.8_g_0.8_b_0.8_sc_r_1.0_g_1.0_b_1.0_ec_r_0.0_g_0.0_b_0_eff">
            <profile_COMMON>
                <technique sid="COMMON">
                    <lambert>
                        <emission>
                            <color>0.0 0.0 0.0 1.0</color>
                        </emission>
                        <diffuse>
                            <color>0.8 0.8 0.8 1.0</color>
                        </diffuse>
                        <reflective>
                            <color>1.0 1.0 1.0 1.0</color>
                        </reflective>
                        <reflectivity>
                            <float>0.2</float>
                        </reflectivity>
                        <transparent opaque="A_ONE">
                            <color>1.0 1.0 1.0 1.0</color>
                        </transparent>
                        <transparency>
                            <float>1.0</float>
                        </transparency>
                    </lambert>
                </technique>
                <extra>
                    <technique profile="GOOGLEEARTH">
                        <double_sided>0</double_sided>
                    </technique>
                </extra>
            </profile_COMMON>
        </effect>
        <effect id="default_ai_0.2_sh_0.2_tr_0.0_dc_r_1.0_g_0.2_b_0.2_sc_r_1.0_g_1.0_b_1.0_ec_r_0.0_g_0.0_b_0_eff">
            <profile_COMMON>
                <technique sid="COMMON">
                    <lambert>
                        <emission>
                            <color>0.0 0.0 0.0 1.0</color>
                        </emission>
                        <diffuse>
                            <color>1.0 0.2 0.2 1.0</color>
                        </diffuse>
                        <reflective>
                            <color>1.0 1.0 1.0 1.0</color>
                        </reflective>
                        <reflectivity>
                            <float>0.2</float>
                        </reflectivity>
                        <transparent opaque="A_ONE">
                            <color>1.0 1.0 1.0 1.0</color>
                        </transparent>
                        <transparency>
                            <float>1.0</float>
                        </transparency>
                    </lambert>
                </technique>
                <extra>
                    <technique profile="GOOGLEEARTH">
                        <double_sided>0</double_sided>
                    </technique>
                </extra>
            </profile_COMMON>
        </effect>
    </library_effects>
    <library_geometries>
        <geometry id="geometry0">
            <mesh>
                <source id="geometry0-position">
                    <float_array id="geometry0-position-array" count="135">0.0 0.0 0.0 0.01 0.0 0.0 -0.016 -0.496 0.0 -1.906 -0.366 0.0 -1.926 -0.856 0.0 -3.426 -0.776 0.0 -3.376 -0.306 0.0 -3.646 -0.296 0.0 -3.586 0.314 0.0 -3.246 5.504 0.0 0.175 5.324 0.0 -1.906 -0.366 5.741 -1.926 -0.856 5.741 0.01 0.0 5.741 -0.016 -0.496 5.741 -3.376 -0.306 5.741 -3.646 -0.296 5.741 -3.426 -0.776 5.741 0.0 0.0 5.741 0.0 0.0 5.739 -3.586 0.314 5.741 -3.246 5.504 5.741 0.175 5.324 5.741 0.175 5.324 5.739 3.114 0.404 5.738 3.134 -0.126 5.738 3.134 -0.126 0.0 3.114 0.404 0.0 3.534 0.824 5.738 3.504 0.364 5.738 3.504 0.364 0.0 3.534 0.824 0.0 0.184 5.324 5.738 0.204 6.214 5.738 0.204 6.214 0.0 0.184 5.324 0.0 1.504 0.004 5.738 1.534 0.574 5.738 1.534 0.574 0.0 1.504 0.004 0.0 3.804 5.994 0.0 0.044 0.634 0.0 0.01 0.0 5.738 0.044 0.634 5.738 3.804 5.994 5.738</float_array>
                    <technique_common>
                        <accessor count="45" source="#geometry0-position-array" stride="3">
                            <param name="X" type="float"/>
                            <param name="Y" type="float"/>
                            <param name="Z" type="float"/>
                        </accessor>
                    </technique_common>
                </source>
                <source id="geometry0-normal">
                    <float_array id="geometry0-normal-array" count="438">0.0 1.0 0.0 0.0 1.0 0.0 0.0 1.0 0.0 0.0 1.0 0.0 0.0 1.0 0.0 -0.0532576 -0.9985808 0.0 -0.0532576 -0.9985808 0.0 -0.0532576 -0.9985808 0.0 -0.0532576 -0.9985808 0.0 -0.102029 -0.9947815 0.0 -0.102029 -0.9947815 0.0 -0.102029 -0.9947815 0.0 -0.102029 -0.9947815 0.0 -0.0795021 -0.9968347 0.0 -0.0795021 -0.9968347 0.0 -0.0795021 -0.9968347 0.0 -0.0795021 -0.9968347 0.0 0.9986289 -0.0523475 0.0 0.9986289 -0.0523475 0.0 0.9986289 -0.0523475 0.0 0.9986289 -0.0523475 0.0 -0.9951974 0.0978882 0.0 -0.9951974 0.0978882 0.0 -0.9951974 0.0978882 0.0 -0.9951974 0.0978882 0.0 -0.9943889 0.1057864 0.0 -0.9943889 0.1057864 0.0 -0.9943889 0.1057864 0.0 -0.9943889 0.1057864 0.0 0.9978801 -0.0650791 0.0 0.9978801 -0.0650791 0.0 0.9978801 -0.0650791 0.0 0.9978801 -0.0650791 0.0 0.0525436 0.9986186 0.0 0.0525436 0.9986186 0.0 0.0525436 0.9986186 0.0 0.0525436 0.9986186 0.0 0.0525436 0.9986186 0.0 -0.997861 0.0653705 0.0 -0.997861 0.0653705 0.0 -0.997861 0.0653705 0.0 -0.997861 0.0653705 0.0 -0.0402359 -0.9991902 0.0 -0.0402359 -0.9991902 0.0 -0.0402359 -0.9991902 0.0 -0.0402359 -0.9991902 0.0 0.0 -1.0 0.0 0.0 -1.0 0.0 0.0 -1.0 0.0 0.0 -1.0 0.0 0.9986392 -0.0521533 0.0 0.9986392 -0.0521533 0.0 0.9986392 -0.0521533 0.0 0.9986392 -0.0521533 0.0 0.0 0.0 1.0 0.0 0.0 1.0 0.0 0.0 1.0 0.0 0.0 1.0 0.0 0.0 1.0 0.0 0.0 1.0 0.0 0.0 1.0 0.0 0.0 1.0 0.0 0.0 1.0 0.0 0.0 1.0 0.0 0.0 1.0 0.0 0.0 -1.0 0.0 0.0 -1.0 0.0 0.0 -1.0 0.0 0.0 -1.0 0.0 0.0 -1.0 0.0 0.0 -1.0 0.0 0.0 -1.0 0.0 0.0 -1.0 0.0 0.0 -1.0 0.0 0.0 -1.0 0.0 0.0 -1.0 0.0 0.0 -1.0 0.0 0.0 -1.0 -0.9997476 0.0224662 0.0 -0.9997476 0.0224662 0.0 -0.9997476 0.0224662 0.0 -0.9997476 0.0224662 0.0 0.0368528 0.0273608 0.9989461 0.0 0.0 1.0 0.0 0.0 1.0 0.0551567 0.0410611 0.9976331 0.0219812 0.0114186 0.9996932 1.258E-4 -1.172E-4 1.0 1.705E-4 -1.014E-4 1.0 8.6E-5 -7.56E-5 1.0 -3.8E-5 -1.512E-4 1.0 0.0 0.0 1.0 0.0475798 -0.0023241 0.9988647 0.0713431 -0.0033781 0.9974462 0.0994952 -0.0053357 0.9950238 -0.0686209 -0.9976429 0.0 -0.0686209 -0.9976429 0.0 -0.0686209 -0.9976429 0.0 -0.0686209 -0.9976429 0.0 0.9985651 -0.0535508 0.0 0.9985651 -0.0535508 0.0 0.9985651 -0.0535508 0.0 0.9985651 -0.0535508 0.0 0.0 0.0 -1.0 0.0 0.0 -1.0 0.0 0.0 -1.0 0.0 0.0 -1.0 0.0 0.0 -1.0 0.0 0.0 -1.0 0.0 0.0 -1.0 0.0 0.0 -1.0 0.0 0.0 -1.0 0.0 0.0 -1.0 0.0 0.0 -1.0 0.9992888 0.037709 0.0 0.9992888 0.037709 0.0 0.9992888 0.037709 0.0 0.9992888 0.037709 0.0 0.9994602 -0.0328523 0.0 0.9994602 -0.0328523 0.0 0.9994602 -0.0328523 0.0 0.9994602 -0.0328523 0.0 0.0609974 0.9981379 0.0 0.0609974 0.9981379 0.0 0.0609974 0.9981379 0.0 0.0609974 0.9981379 0.0 -0.9994602 0.0328523 0.0 -0.9994602 0.0328523 0.0 -0.9994602 0.0328523 0.0 -0.9994602 0.0328523 0.0 -0.9986178 0.052559 0.0 -0.9986178 0.052559 0.0 -0.9986178 0.052559 0.0 -0.9986178 0.052559 0.0 0.0 1.0 0.0 0.0 1.0 0.0 0.0 1.0 0.0 0.0 1.0 0.0 0.999168 -0.0407823 0.0 0.999168 -0.0407823 0.0 0.999168 -0.0407823 0.0 0.999168 -0.0407823 0.0 -0.0370116 -0.9993148 0.0 -0.0370116 -0.9993148 0.0 -0.0370116 -0.9993148 0.0 -0.0370116 -0.9993148 0.0</float_array>
                    <technique_common>
                        <accessor count="146" source="#geometry0-normal-array" stride="3">
                            <param name="X" type="float"/>
                            <param name="Y" type="float"/>
                            <param name="Z" type="float"/>
                        </accessor>
                    </technique_common>
                </source>
                <vertices id="geometry0-vertex">
                    <input semantic="POSITION" source="#geometry0-position"/>
                </vertices>
                <triangles count="70" material="default_ai_0.2_sh_0.2_tr_0.0_dc_r_0.8_g_0.8_b_0.8_sc_r_1.0_g_1.0_b_1.0_ec_r_0.0_g_0.0_b_0_tri">
                    <input offset="0" semantic="VERTEX" source="#geometry0-vertex"/>
                    <input offset="1" semantic="NORMAL" source="#geometry0-normal"/>
                    <p>1 0 0 1 19 2 1 0 19 2 18 3 1 0 18 3 13 4 12 5 17 6 5 7 12 5 5 7 4 8 29 9 24 10 27 11 29 9 27 11 30 12 25 13 36 14 39 15 25 13 39 15 26 16 13 17 14 18 2 19 13 17 2 19 1 20 16 21 20 22 8 23 16 21 8 23 7 24 17 25 15 26 6 27 17 25 6 27 5 28 28 29 29 30 30 31 28 29 30 31 31 32 10 33 9 34 21 35 23 36 10 33 21 35 23 36 21 35 22 37 20 38 21 39 9 40 20 38 9 40 8 41 37 42 43 43 41 44 37 42 41 44 38 45 42 46 19 47 0 48 42 46 0 48 1 49 44 50 28 51 31 52 44 50 31 52 40 53 35 65 34 66 40 67 35 65 40 67 31 68 35 65 31 68 30 69 35 65 30 69 27 70 35 65 27 70 26 71 10 72 35 65 26 71 1 73 0 74 10 72 41 75 1 73 10 72 38 76 41 75 10 72 38 76 10 72 26 71 38 76 26 71 39 77 32 78 33 79 34 80 32 78 34 80 35 81 14 95 11 96 3 97 14 95 3 97 2 98 43 99 42 100 1 101 43 99 1 101 41 102 1 103 2 104 0 105 2 104 3 106 0 105 0 105 3 106 10 107 10 107 3 106 9 108 9 108 3 106 8 109 3 106 4 110 8 109 5 111 6 112 4 110 4 110 6 112 8 109 8 109 6 112 7 113 24 114 25 115 26 116 24 114 26 116 27 117 23 118 19 119 0 120 23 118 0 120 10 121 33 122 44 123 40 124 33 122 40 124 34 125 19 126 23 127 10 128 19 126 10 128 0 129 36 130 37 131 38 132 36 130 38 132 39 133 23 134 32 135 35 136 23 134 35 136 10 137 11 138 12 139 4 140 11 138 4 140 3 141 15 142 16 143 7 144 15 142 7 144 6 145</p>
                </triangles>
                <triangles count="20" material="default_ai_0.2_sh_0.2_tr_0.0_dc_r_1.0_g_0.2_b_0.2_sc_r_1.0_g_1.0_b_1.0_ec_r_0.0_g_0.0_b_0_tri">
                    <input offset="0" semantic="VERTEX" source="#geometry0-vertex"/>
                    <input offset="1" semantic="NORMAL" source="#geometry0-normal"/>
                    <p>14 54 13 55 18 56 11 57 14 54 18 56 11 57 18 56 22 58 11 57 22 58 21 59 11 57 21 59 20 60 12 61 11 57 20 60 15 62 17 63 12 61 15 62 12 61 20 60 15 62 20 60 16 64 28 82 44 83 33 84 28 82 33 84 32 85 28 82 32 85 23 86 29 87 28 82 23 86 24 88 29 87 23 86 25 89 24 88 23 86 37 90 36 91 25 89 37 90 25 89 23 86 43 92 37 90 23 86 43 92 23 86 19 93 43 92 19 93 42 94</p>
                </triangles>
            </mesh>
        </geometry>
    </library_geometries>
    <library_visual_scenes>
        <visual_scene id="Building_DEBW_5221000Qts2">
            <node>
                <instance_geometry url="#geometry0">
                    <bind_material>
                        <technique_common>
                            <instance_material symbol="default_ai_0.2_sh_0.2_tr_0.0_dc_r_0.8_g_0.8_b_0.8_sc_r_1.0_g_1.0_b_1.0_ec_r_0.0_g_0.0_b_0_tri" target="#default_ai_0.2_sh_0.2_tr_0.0_dc_r_0.8_g_0.8_b_0.8_sc_r_1.0_g_1.0_b_1.0_ec_r_0.0_g_0.0_b_0_mat"/>
                            <instance_material symbol="default_ai_0.2_sh_0.2_tr_0.0_dc_r_1.0_g_0.2_b_0.2_sc_r_1.0_g_1.0_b_1.0_ec_r_0.0_g_0.0_b_0_tri" target="#default_ai_0.2_sh_0.2_tr_0.0_dc_r_1.0_g_0.2_b_0.2_sc_r_1.0_g_1.0_b_1.0_ec_r_0.0_g_0.0_b_0_mat"/>
                        </technique_common>
                    </bind_material>
                </instance_geometry>
            </node>
        </visual_scene>
    </library_visual_scenes>
    <scene>
        <instance_visual_scene url="#Building_DEBW_5221000Qts2"/>
    </scene>
</COLLADA>
