<?xml version="1.0" encoding="UTF-8" standalone="yes"?>
<COLLADA xmlns="http://www.collada.org/2005/11/COLLADASchema" version="1.4.1">
    <asset>
        <contributor>
            <authoring_tool>3D City Database Importer/Exporter, version 5.5.3; Chair of Geoinformatics, Technical University of Munich</authoring_tool>
        </contributor>
        <created>2026-05-06T15:12:02.819</created>
        <modified>2026-05-06T15:12:02.819</modified>
        <unit meter="1.0" name="meters"/>
        <up_axis>Z_UP</up_axis>
    </asset>
    <library_materials>
        <material id="default_ai_0.2_sh_0.2_tr_0.0_dc_r_0.8_g_0.8_b_0.8_sc_r_1.0_g_1.0_b_1.0_ec_r_0.0_g_0.0_b_0_mat">
            <instance_effect url="#default_ai_0.2_sh_0.2_tr_0.0_dc_r_0.8_g_0.8_b_0.8_sc_r_1.0_g_1.0_b_1.0_ec_r_0.0_g_0.0_b_0_eff"/>
        </material>
        <material id="default_ai_0.2_sh_0.2_tr_0.0_dc_r_1.0_g_0.2_b_0.2_sc_r_1.0_g_1.0_b_1.0_ec_r_0.0_g_0.0_b_0_mat">
            <instance_effect url="#default_ai_0.2_sh_0.2_tr_0.0_dc_r_1.0_g_0.2_b_0.2_sc_r_1.0_g_1.0_b_1.0_ec_r_0.0_g_0.0_b_0_eff"/>
        </material>
    </library_materials>
    <library_effects>
        <effect id="default_ai_0.2_sh_0.2_tr_0.0_dc_r_0.8_g_0.8_b_0.8_sc_r_1.0_g_1.0_b_1.0_ec_r_0.0_g_0.0_b_0_eff">
            <profile_COMMON>
                <technique sid="COMMON">
                    <lambert>
                        <emission>
                            <color>0.0 0.0 0.0 1.0</color>
                        </emission>
                        <diffuse>
                            <color>0.8 0.8 0.8 1.0</color>
                        </diffuse>
                        <reflective>
                            <color>1.0 1.0 1.0 1.0</color>
                        </reflective>
                        <reflectivity>
                            <float>0.2</float>
                        </reflectivity>
                        <transparent opaque="A_ONE">
                            <color>1.0 1.0 1.0 1.0</color>
                        </transparent>
                        <transparency>
                            <float>1.0</float>
                        </transparency>
                    </lambert>
                </technique>
                <extra>
                    <technique profile="GOOGLEEARTH">
                        <double_sided>0</double_sided>
                    </technique>
                </extra>
            </profile_COMMON>
        </effect>
        <effect id="default_ai_0.2_sh_0.2_tr_0.0_dc_r_1.0_g_0.2_b_0.2_sc_r_1.0_g_1.0_b_1.0_ec_r_0.0_g_0.0_b_0_eff">
            <profile_COMMON>
                <technique sid="COMMON">
                    <lambert>
                        <emission>
                            <color>0.0 0.0 0.0 1.0</color>
                        </emission>
                        <diffuse>
                            <color>1.0 0.2 0.2 1.0</color>
                        </diffuse>
                        <reflective>
                            <color>1.0 1.0 1.0 1.0</color>
                        </reflective>
                        <reflectivity>
                            <float>0.2</float>
                        </reflectivity>
                        <transparent opaque="A_ONE">
                            <color>1.0 1.0 1.0 1.0</color>
                        </transparent>
                        <transparency>
                            <float>1.0</float>
                        </transparency>
                    </lambert>
                </technique>
                <extra>
                    <technique profile="GOOGLEEARTH">
                        <double_sided>0</double_sided>
                    </technique>
                </extra>
            </profile_COMMON>
        </effect>
    </library_effects>
    <library_geometries>
        <geometry id="geometry0">
            <mesh>
                <source id="geometry0-position">
                    <float_array id="geometry0-position-array" count="48">0.52 0.05 5.404 0.0 0.0 5.403 0.0 0.0 0.0 0.52 0.05 0.0 -0.09 1.12 0.0 -0.281 3.378 0.0 -0.84 9.98 0.0 5.76 10.53 0.0 6.297 3.987 0.0 6.57 0.67 0.0 6.57 0.67 5.438 -0.281 3.378 7.304 -0.84 9.98 3.556 -0.09 1.12 6.033 6.297 3.987 7.304 5.76 10.53 3.591</float_array>
                    <technique_common>
                        <accessor count="16" source="#geometry0-position-array" stride="3">
                            <param name="X" type="float"/>
                            <param name="Y" type="float"/>
                            <param name="Z" type="float"/>
                        </accessor>
                    </technique_common>
                </source>
                <source id="geometry0-normal">
                    <float_array id="geometry0-normal-array" count="150">0.0957124 -0.995409 0.0 0.0957124 -0.995409 0.0 0.0957124 -0.995409 0.0 0.0957124 -0.995409 0.0 -0.996787 -0.080099 0.0 -0.996787 -0.080099 0.0 -0.996787 -0.080099 0.0 -0.9967869 -0.080099 0.0 0.9966302 0.082026 0.0 0.9966302 0.082026 0.0 0.9966302 0.082026 0.0 0.9966302 0.082026 0.0 0.1019454 -0.9947901 0.0 0.1019454 -0.9947901 0.0 0.1019454 -0.9947901 0.0 0.1019454 -0.99479 0.0 -0.0454287 0.4902445 0.8704002 -0.0454667 0.4902101 0.8704176 -0.0454287 0.4902445 0.8704002 -0.0453907 0.4902789 0.8703828 -0.9964415 -0.0842871 0.0 -0.9964415 -0.0842871 0.0 -0.9964415 -0.0842871 0.0 -0.9964415 -0.0842871 0.0 -0.0830455 0.9965457 0.0 -0.0830455 0.9965457 0.0 -0.0830455 0.9965457 0.0 -0.0830455 0.9965457 0.0 0.0 0.0 -1.0 0.0 0.0 -1.0 0.0 0.0 -1.0 0.0 0.0 -1.0 0.0 0.0 -1.0 0.0 0.0 -1.0 0.0 0.0 -1.0 0.0 0.0 -1.0 0.0454806 -0.4913078 0.8697978 0.0450852 -0.4869789 0.8722494 0.0450451 -0.4870529 0.87221 0.0450118 -0.4870704 0.872202 0.0459149 -0.4955511 0.8673644 0.046807 -0.5040401 0.8624109 -0.9964346 -0.0843694 0.0 -0.9964346 -0.0843694 0.0 -0.9964346 -0.0843694 0.0 -0.9964346 -0.0843694 0.0 0.996649 0.0817974 0.0 0.996649 0.0817974 0.0 0.996649 0.0817974 0.0 0.996649 0.0817974 0.0</float_array>
                    <technique_common>
                        <accessor count="50" source="#geometry0-normal-array" stride="3">
                            <param name="X" type="float"/>
                            <param name="Y" type="float"/>
                            <param name="Z" type="float"/>
                        </accessor>
                    </technique_common>
                </source>
                <vertices id="geometry0-vertex">
                    <input semantic="POSITION" source="#geometry0-position"/>
                </vertices>
                <triangles count="22" material="default_ai_0.2_sh_0.2_tr_0.0_dc_r_0.8_g_0.8_b_0.8_sc_r_1.0_g_1.0_b_1.0_ec_r_0.0_g_0.0_b_0_tri">
                    <input offset="0" semantic="VERTEX" source="#geometry0-vertex"/>
                    <input offset="1" semantic="NORMAL" source="#geometry0-normal"/>
                    <p>0 0 1 1 2 2 0 0 2 2 3 3 1 4 13 5 4 6 1 4 4 6 2 7 14 8 10 9 9 10 14 8 9 10 8 11 10 12 0 13 3 14 10 12 3 14 9 15 13 20 11 21 5 22 13 20 5 22 4 23 12 24 15 25 7 26 12 24 7 26 6 27 9 28 3 29 2 30 9 28 2 30 4 31 9 28 4 31 5 32 9 28 5 32 6 33 8 34 9 28 6 33 8 34 6 33 7 35 11 42 12 43 6 44 11 42 6 44 5 45 15 46 14 47 8 48 15 46 8 48 7 49</p>
                </triangles>
                <triangles count="6" material="default_ai_0.2_sh_0.2_tr_0.0_dc_r_1.0_g_0.2_b_0.2_sc_r_1.0_g_1.0_b_1.0_ec_r_0.0_g_0.0_b_0_tri">
                    <input offset="0" semantic="VERTEX" source="#geometry0-vertex"/>
                    <input offset="1" semantic="NORMAL" source="#geometry0-normal"/>
                    <p>14 16 15 17 12 18 14 16 12 18 11 19 10 36 14 37 11 38 10 36 11 38 13 39 10 36 13 39 1 40 10 36 1 40 0 41</p>
                </triangles>
            </mesh>
        </geometry>
    </library_geometries>
    <library_visual_scenes>
        <visual_scene id="Building_DEBW_5221000QYYx">
            <node>
                <instance_geometry url="#geometry0">
                    <bind_material>
                        <technique_common>
                            <instance_material symbol="default_ai_0.2_sh_0.2_tr_0.0_dc_r_0.8_g_0.8_b_0.8_sc_r_1.0_g_1.0_b_1.0_ec_r_0.0_g_0.0_b_0_tri" target="#default_ai_0.2_sh_0.2_tr_0.0_dc_r_0.8_g_0.8_b_0.8_sc_r_1.0_g_1.0_b_1.0_ec_r_0.0_g_0.0_b_0_mat"/>
                            <instance_material symbol="default_ai_0.2_sh_0.2_tr_0.0_dc_r_1.0_g_0.2_b_0.2_sc_r_1.0_g_1.0_b_1.0_ec_r_0.0_g_0.0_b_0_tri" target="#default_ai_0.2_sh_0.2_tr_0.0_dc_r_1.0_g_0.2_b_0.2_sc_r_1.0_g_1.0_b_1.0_ec_r_0.0_g_0.0_b_0_mat"/>
                        </technique_common>
                    </bind_material>
                </instance_geometry>
            </node>
        </visual_scene>
    </library_visual_scenes>
    <scene>
        <instance_visual_scene url="#Building_DEBW_5221000QYYx"/>
    </scene>
</COLLADA>
