<?xml version="1.0" encoding="UTF-8" standalone="yes"?>
<COLLADA xmlns="http://www.collada.org/2005/11/COLLADASchema" version="1.4.1">
    <asset>
        <contributor>
            <authoring_tool>3D City Database Importer/Exporter, version 5.5.3; Chair of Geoinformatics, Technical University of Munich</authoring_tool>
        </contributor>
        <created>2026-05-06T15:12:02.961</created>
        <modified>2026-05-06T15:12:02.961</modified>
        <unit meter="1.0" name="meters"/>
        <up_axis>Z_UP</up_axis>
    </asset>
    <library_materials>
        <material id="default_ai_0.2_sh_0.2_tr_0.0_dc_r_0.8_g_0.8_b_0.8_sc_r_1.0_g_1.0_b_1.0_ec_r_0.0_g_0.0_b_0_mat">
            <instance_effect url="#default_ai_0.2_sh_0.2_tr_0.0_dc_r_0.8_g_0.8_b_0.8_sc_r_1.0_g_1.0_b_1.0_ec_r_0.0_g_0.0_b_0_eff"/>
        </material>
        <material id="default_ai_0.2_sh_0.2_tr_0.0_dc_r_1.0_g_0.2_b_0.2_sc_r_1.0_g_1.0_b_1.0_ec_r_0.0_g_0.0_b_0_mat">
            <instance_effect url="#default_ai_0.2_sh_0.2_tr_0.0_dc_r_1.0_g_0.2_b_0.2_sc_r_1.0_g_1.0_b_1.0_ec_r_0.0_g_0.0_b_0_eff"/>
        </material>
    </library_materials>
    <library_effects>
        <effect id="default_ai_0.2_sh_0.2_tr_0.0_dc_r_0.8_g_0.8_b_0.8_sc_r_1.0_g_1.0_b_1.0_ec_r_0.0_g_0.0_b_0_eff">
            <profile_COMMON>
                <technique sid="COMMON">
                    <lambert>
                        <emission>
                            <color>0.0 0.0 0.0 1.0</color>
                        </emission>
                        <diffuse>
                            <color>0.8 0.8 0.8 1.0</color>
                        </diffuse>
                        <reflective>
                            <color>1.0 1.0 1.0 1.0</color>
                        </reflective>
                        <reflectivity>
                            <float>0.2</float>
                        </reflectivity>
                        <transparent opaque="A_ONE">
                            <color>1.0 1.0 1.0 1.0</color>
                        </transparent>
                        <transparency>
                            <float>1.0</float>
                        </transparency>
                    </lambert>
                </technique>
                <extra>
                    <technique profile="GOOGLEEARTH">
                        <double_sided>0</double_sided>
                    </technique>
                </extra>
            </profile_COMMON>
        </effect>
        <effect id="default_ai_0.2_sh_0.2_tr_0.0_dc_r_1.0_g_0.2_b_0.2_sc_r_1.0_g_1.0_b_1.0_ec_r_0.0_g_0.0_b_0_eff">
            <profile_COMMON>
                <technique sid="COMMON">
                    <lambert>
                        <emission>
                            <color>0.0 0.0 0.0 1.0</color>
                        </emission>
                        <diffuse>
                            <color>1.0 0.2 0.2 1.0</color>
                        </diffuse>
                        <reflective>
                            <color>1.0 1.0 1.0 1.0</color>
                        </reflective>
                        <reflectivity>
                            <float>0.2</float>
                        </reflectivity>
                        <transparent opaque="A_ONE">
                            <color>1.0 1.0 1.0 1.0</color>
                        </transparent>
                        <transparency>
                            <float>1.0</float>
                        </transparency>
                    </lambert>
                </technique>
                <extra>
                    <technique profile="GOOGLEEARTH">
                        <double_sided>0</double_sided>
                    </technique>
                </extra>
            </profile_COMMON>
        </effect>
    </library_effects>
    <library_geometries>
        <geometry id="geometry0">
            <mesh>
                <source id="geometry0-position">
                    <float_array id="geometry0-position-array" count="126">0.25 -0.74 11.297 0.0 0.0 11.275 -0.278 -0.107 11.587 -1.51 -0.58 12.97 -1.236 -1.324 12.97 -6.78 -3.5 6.963 0.0 0.0 0.0 0.25 -0.74 0.0 -6.78 -3.5 0.0 -7.09 -2.721 0.0 -1.565 -0.601 0.0 -7.09 -2.721 6.941 -1.545 -0.593 12.932 -1.565 -0.601 12.911 -1.565 -0.601 10.318 -13.33 12.98 7.09 -7.805 15.13 12.964 -7.805 15.13 0.0 -13.33 12.98 0.0 -2.28 17.28 7.09 -2.28 17.28 0.0 0.37 10.56 7.1 0.37 10.56 0.0 -7.09 -2.721 7.09 -1.565 -0.601 12.953 0.77 10.42 6.782 0.47 10.31 7.099 0.47 10.31 0.0 0.77 10.42 0.0 1.38 8.04 7.089 3.96 1.52 7.09 3.96 1.52 0.0 1.38 8.04 0.0 1.67 8.18 6.77 1.67 8.18 0.0 1.57 8.44 6.768 1.57 8.44 0.0 0.67 10.69 0.0 1.25 8.29 0.0 0.67 10.69 6.776 0.0 0.0 11.292 1.25 8.29 7.117</float_array>
                    <technique_common>
                        <accessor count="42" source="#geometry0-position-array" stride="3">
                            <param name="X" type="float"/>
                            <param name="Y" type="float"/>
                            <param name="Z" type="float"/>
                        </accessor>
                    </technique_common>
                </source>
                <source id="geometry0-normal">
                    <float_array id="geometry0-normal-array" count="504">-0.3532293 0.9355219 0.005295 -0.3532293 0.9355219 0.005295 -0.3532293 0.9355219 0.005295 -0.6540752 -0.2599476 0.7103611 -0.654076 -0.2599474 0.7103604 -0.6540752 -0.2599476 0.7103611 -0.6540744 -0.2599478 0.7103618 0.3442537 -0.9388766 0.0 0.3442537 -0.9388766 0.0 0.3442537 -0.9388766 0.0 0.3442537 -0.9388766 0.0 0.9298473 0.3679457 0.0 0.9298473 0.3679457 0.0 0.9298473 0.3679457 0.0 0.9298473 0.3679457 0.0 0.3584994 -0.93353 0.0 0.3584994 -0.93353 0.0 0.3584994 -0.93353 0.0 0.3584994 -0.93353 0.0 0.43475 -0.9005512 0.0 0.43475 -0.9005512 0.0 0.43475 -0.9005512 0.0 0.43475 -0.9005512 0.0 0.3582429 -0.9336284 0.0 0.3582429 -0.9336284 0.0 0.3582429 -0.9336284 0.0 0.3582429 -0.9336284 0.0 0.3582429 -0.9336284 0.0 0.3582429 -0.9336284 0.0 0.3582429 -0.9336284 0.0 -0.3584993 0.93353 0.0 -0.3584993 0.93353 0.0 -0.3584993 0.93353 0.0 -0.3584993 0.93353 0.0 0.9333454 0.3589796 0.0 0.9333454 0.3589796 0.0 0.9333454 0.3589796 0.0 0.9333454 0.3589796 0.0 -0.3628027 0.931866 1.167E-4 -0.3713897 0.928477 0.0 -0.3648275 0.9310752 -5.82E-5 -0.3584976 0.9335307 1.751E-4 -0.358748 0.9334344 4.665E-4 0.0 0.0 -1.0 0.0 0.0 -1.0 0.0 0.0 -1.0 0.0 0.0 -1.0 0.0 0.0 -1.0 0.0 0.0 -1.0 0.0 0.0 -1.0 0.0 0.0 -1.0 0.0 0.0 -1.0 0.0 0.0 -1.0 0.0 0.0 -1.0 0.0 0.0 -1.0 0.0 0.0 -1.0 0.0 0.0 -1.0 0.0 0.0 -1.0 -0.3582429 0.9336284 0.0 -0.3582429 0.9336284 0.0 -0.3582429 0.9336284 0.0 -0.3582429 0.9336284 0.0 0.9377487 0.3473148 0.0 0.9377487 0.3473148 0.0 0.9377487 0.3473148 0.0 0.9377486 0.3473148 0.0 -0.3582429 0.9336284 0.0 -0.3582429 0.9336284 0.0 -0.3582429 0.9336284 0.0 0.6530305 0.2594059 0.7115194 0.6544133 0.2590888 0.7103634 0.6509948 0.2598848 0.713208 0.6510759 0.2598723 0.7131386 0.654408 0.2590822 0.7103708 0.654404 0.2590694 0.7103791 0.6547269 0.2589037 0.7101419 0.6549829 0.2587608 0.709958 0.6549689 0.2583619 0.7101161 0.6546912 0.2590691 0.7101145 0.6531208 0.2585324 0.7117543 0.6509531 0.2577259 0.7140291 0.6510559 0.2586255 0.7136099 0.6546059 0.2590792 0.7101895 0.6546456 0.2572547 0.7108158 0.9328687 0.3602165 0.0 0.9328687 0.3602165 0.0 0.9328687 0.3602165 0.0 0.9328688 0.3602166 0.0 -0.424433 0.9054594 0.0 -0.4244329 0.9054594 0.0 -0.424433 0.9054594 0.0 -0.424433 0.9054593 0.0 0.3564079 -0.9343063 -0.0067181 0.3713897 -0.928477 0.0 0.3649229 -0.9310378 5.73E-5 0.3488756 -0.9371148 -0.0100767 0.3392403 -0.9404814 -0.0202659 0.3583471 -0.9335884 0.0 0.3583471 -0.9335884 0.0 0.3583454 -0.9335891 0.0 0.3583446 -0.9335893 0.0 0.3583422 -0.9335903 0.0 -0.9292989 -0.3693284 0.0 -0.9292989 -0.3693284 0.0 -0.9292989 -0.3693284 0.0 -0.9292989 -0.3693284 0.0 -0.9292989 -0.3693284 0.0 -0.3976052 0.9175565 0.0 -0.3976053 0.9175566 0.0 -0.3976052 0.9175565 0.0 -0.3976052 0.9175565 0.0 0.6789256 0.2500415 0.6903182 0.6789265 0.2500348 0.6903198 0.678883 0.2499785 0.6903829 0.6788613 0.2499503 0.6904144 0.6787978 0.2498526 0.6905123 0.3713897 -0.9284771 0.0 0.3713897 -0.9284771 0.0 0.3713897 -0.9284771 0.0 0.3655612 -0.9307873 -2.128E-4 0.3655612 -0.9307873 -2.128E-4 0.3655612 -0.9307873 -2.128E-4 0.359204 -0.9332591 0.0 0.359204 -0.9332591 0.0 0.359204 -0.9332591 0.0 0.0 0.0 -1.0 0.0 0.0 -1.0 0.0 0.0 -1.0 0.0 0.0 -1.0 0.0 0.0 -1.0 -0.9291333 -0.3697449 0.0 -0.9291333 -0.3697449 0.0 -0.9291333 -0.3697449 0.0 -0.9291333 -0.3697449 0.0 0.3654475 -0.9308319 0.0 0.3654475 -0.9308319 0.0 0.3654475 -0.9308319 0.0 0.3654475 -0.930832 0.0 0.3582429 -0.9336284 0.0 0.3582429 -0.9336284 0.0 0.3582429 -0.9336284 0.0 0.3582429 -0.9336284 0.0 0.9473953 0.3200659 0.0 0.9473953 0.3200659 0.0 0.9473953 0.3200659 0.0 0.9473953 0.3200659 0.0 -0.6955705 0.5611212 0.4486922 -0.6955705 0.5611212 0.4486922 -0.6955705 0.5611212 0.4486922 0.1178968 -0.9651526 0.2336259 0.1178968 -0.9651526 0.2336259 0.1178968 -0.9651526 0.2336259 -0.6664713 -0.2453932 0.7039874 -0.6664926 -0.2453468 0.7039834 -0.6664713 -0.2453932 0.7039874 -0.66645 -0.2454396 0.7039912 -0.3626498 0.9319255 0.0 -0.3626498 0.9319255 0.0 -0.3626498 0.9319255 0.0 -0.3626498 0.9319255 0.0 -0.3626499 0.9319255 0.0 -0.3626499 0.9319255 0.0 -0.3626499 0.9319255 0.0 -0.3626499 0.9319255 0.0 0.9302796 0.3668513 0.0 0.9302796 0.3668513 0.0 0.9302796 0.3668513 0.0 0.9302796 0.3668513 0.0</float_array>
                    <technique_common>
                        <accessor count="168" source="#geometry0-normal-array" stride="3">
                            <param name="X" type="float"/>
                            <param name="Y" type="float"/>
                            <param name="Z" type="float"/>
                        </accessor>
                    </technique_common>
                </source>
                <vertices id="geometry0-vertex">
                    <input semantic="POSITION" source="#geometry0-position"/>
                </vertices>
                <triangles count="72" material="default_ai_0.2_sh_0.2_tr_0.0_dc_r_0.8_g_0.8_b_0.8_sc_r_1.0_g_1.0_b_1.0_ec_r_0.0_g_0.0_b_0_tri">
                    <input offset="0" semantic="VERTEX" source="#geometry0-vertex"/>
                    <input offset="1" semantic="NORMAL" source="#geometry0-normal"/>
                    <p>3 0 2 1 12 2 25 7 26 8 27 9 25 7 27 9 28 10 29 11 30 12 31 13 29 11 31 13 32 14 10 15 6 16 1 17 10 15 1 17 14 18 33 19 29 20 32 21 33 19 32 21 34 22 11 23 14 24 13 25 10 26 14 27 11 28 10 26 11 28 9 29 6 30 10 31 14 32 6 30 14 32 1 33 35 34 33 35 34 36 35 34 34 36 36 37 14 38 13 39 12 40 14 38 12 40 2 41 14 38 2 41 1 42 17 43 20 44 22 45 18 46 17 43 22 45 9 47 18 46 22 45 9 47 22 45 37 48 6 49 10 50 9 47 31 51 6 49 9 47 32 52 31 51 9 47 36 53 34 54 32 52 36 53 32 52 9 47 38 55 36 53 9 47 27 56 38 55 9 47 27 56 9 47 37 48 27 56 37 48 28 57 10 58 9 59 11 60 10 58 11 60 14 61 39 62 25 63 28 64 39 62 28 64 37 65 13 66 14 67 11 68 26 84 41 85 38 86 26 84 38 86 27 87 41 88 35 89 36 90 41 88 36 90 38 91 12 92 13 93 14 94 12 92 14 94 1 95 12 92 1 95 2 96 6 97 31 98 30 99 1 100 6 97 30 99 1 100 30 99 40 101 18 102 9 103 11 104 18 102 11 104 23 105 18 102 23 105 15 106 21 107 39 108 37 109 21 107 37 109 22 110 13 116 12 117 24 118 5 119 0 120 4 121 2 122 1 123 40 124 8 125 9 126 10 127 8 125 10 127 6 128 8 125 6 128 7 129 5 130 11 131 9 132 5 130 9 132 8 133 0 134 5 135 8 136 0 134 8 136 7 137 23 138 11 139 13 140 23 138 13 140 24 141 1 142 0 143 7 144 1 142 7 144 6 145 15 156 16 157 17 158 15 156 17 158 18 159 16 160 19 161 20 162 16 160 20 162 17 163 19 164 21 165 22 166 19 164 22 166 20 167</p>
                </triangles>
                <triangles count="22" material="default_ai_0.2_sh_0.2_tr_0.0_dc_r_1.0_g_0.2_b_0.2_sc_r_1.0_g_1.0_b_1.0_ec_r_0.0_g_0.0_b_0_tri">
                    <input offset="0" semantic="VERTEX" source="#geometry0-vertex"/>
                    <input offset="1" semantic="NORMAL" source="#geometry0-normal"/>
                    <p>16 3 15 4 23 5 16 3 23 5 24 6 19 69 16 70 24 71 19 69 24 71 12 72 19 69 12 72 2 73 19 69 2 73 40 74 21 75 19 69 40 74 25 76 39 77 21 75 26 78 25 76 21 75 26 78 21 75 40 74 41 79 26 78 40 74 41 79 40 74 30 80 41 79 30 80 29 81 41 79 29 81 33 82 41 79 33 82 35 83 3 111 4 112 0 113 2 114 3 111 0 113 2 114 0 113 1 115 3 146 12 147 13 148 3 149 13 150 11 151 3 152 11 153 5 154 3 152 5 154 4 155</p>
                </triangles>
            </mesh>
        </geometry>
    </library_geometries>
    <library_visual_scenes>
        <visual_scene id="Building_DEBW_5221000Qesp">
            <node>
                <instance_geometry url="#geometry0">
                    <bind_material>
                        <technique_common>
                            <instance_material symbol="default_ai_0.2_sh_0.2_tr_0.0_dc_r_0.8_g_0.8_b_0.8_sc_r_1.0_g_1.0_b_1.0_ec_r_0.0_g_0.0_b_0_tri" target="#default_ai_0.2_sh_0.2_tr_0.0_dc_r_0.8_g_0.8_b_0.8_sc_r_1.0_g_1.0_b_1.0_ec_r_0.0_g_0.0_b_0_mat"/>
                            <instance_material symbol="default_ai_0.2_sh_0.2_tr_0.0_dc_r_1.0_g_0.2_b_0.2_sc_r_1.0_g_1.0_b_1.0_ec_r_0.0_g_0.0_b_0_tri" target="#default_ai_0.2_sh_0.2_tr_0.0_dc_r_1.0_g_0.2_b_0.2_sc_r_1.0_g_1.0_b_1.0_ec_r_0.0_g_0.0_b_0_mat"/>
                        </technique_common>
                    </bind_material>
                </instance_geometry>
            </node>
        </visual_scene>
    </library_visual_scenes>
    <scene>
        <instance_visual_scene url="#Building_DEBW_5221000Qesp"/>
    </scene>
</COLLADA>
