<?xml version="1.0" encoding="UTF-8" standalone="yes"?>
<COLLADA xmlns="http://www.collada.org/2005/11/COLLADASchema" version="1.4.1">
    <asset>
        <contributor>
            <authoring_tool>3D City Database Importer/Exporter, version 5.5.3; Chair of Geoinformatics, Technical University of Munich</authoring_tool>
        </contributor>
        <created>2026-05-06T15:12:08.256</created>
        <modified>2026-05-06T15:12:08.256</modified>
        <unit meter="1.0" name="meters"/>
        <up_axis>Z_UP</up_axis>
    </asset>
    <library_materials>
        <material id="default_ai_0.2_sh_0.2_tr_0.0_dc_r_1.0_g_0.2_b_0.2_sc_r_1.0_g_1.0_b_1.0_ec_r_0.0_g_0.0_b_0_mat">
            <instance_effect url="#default_ai_0.2_sh_0.2_tr_0.0_dc_r_1.0_g_0.2_b_0.2_sc_r_1.0_g_1.0_b_1.0_ec_r_0.0_g_0.0_b_0_eff"/>
        </material>
        <material id="default_ai_0.2_sh_0.2_tr_0.0_dc_r_0.8_g_0.8_b_0.8_sc_r_1.0_g_1.0_b_1.0_ec_r_0.0_g_0.0_b_0_mat">
            <instance_effect url="#default_ai_0.2_sh_0.2_tr_0.0_dc_r_0.8_g_0.8_b_0.8_sc_r_1.0_g_1.0_b_1.0_ec_r_0.0_g_0.0_b_0_eff"/>
        </material>
    </library_materials>
    <library_effects>
        <effect id="default_ai_0.2_sh_0.2_tr_0.0_dc_r_1.0_g_0.2_b_0.2_sc_r_1.0_g_1.0_b_1.0_ec_r_0.0_g_0.0_b_0_eff">
            <profile_COMMON>
                <technique sid="COMMON">
                    <lambert>
                        <emission>
                            <color>0.0 0.0 0.0 1.0</color>
                        </emission>
                        <diffuse>
                            <color>1.0 0.2 0.2 1.0</color>
                        </diffuse>
                        <reflective>
                            <color>1.0 1.0 1.0 1.0</color>
                        </reflective>
                        <reflectivity>
                            <float>0.2</float>
                        </reflectivity>
                        <transparent opaque="A_ONE">
                            <color>1.0 1.0 1.0 1.0</color>
                        </transparent>
                        <transparency>
                            <float>1.0</float>
                        </transparency>
                    </lambert>
                </technique>
                <extra>
                    <technique profile="GOOGLEEARTH">
                        <double_sided>0</double_sided>
                    </technique>
                </extra>
            </profile_COMMON>
        </effect>
        <effect id="default_ai_0.2_sh_0.2_tr_0.0_dc_r_0.8_g_0.8_b_0.8_sc_r_1.0_g_1.0_b_1.0_ec_r_0.0_g_0.0_b_0_eff">
            <profile_COMMON>
                <technique sid="COMMON">
                    <lambert>
                        <emission>
                            <color>0.0 0.0 0.0 1.0</color>
                        </emission>
                        <diffuse>
                            <color>0.8 0.8 0.8 1.0</color>
                        </diffuse>
                        <reflective>
                            <color>1.0 1.0 1.0 1.0</color>
                        </reflective>
                        <reflectivity>
                            <float>0.2</float>
                        </reflectivity>
                        <transparent opaque="A_ONE">
                            <color>1.0 1.0 1.0 1.0</color>
                        </transparent>
                        <transparency>
                            <float>1.0</float>
                        </transparency>
                    </lambert>
                </technique>
                <extra>
                    <technique profile="GOOGLEEARTH">
                        <double_sided>0</double_sided>
                    </technique>
                </extra>
            </profile_COMMON>
        </effect>
    </library_effects>
    <library_geometries>
        <geometry id="geometry0">
            <mesh>
                <source id="geometry0-position">
                    <float_array id="geometry0-position-array" count="219">-3.075 0.208 12.153 0.0 0.0 12.153 0.37 5.25 12.153 -2.68 5.459 12.153 0.0 0.0 0.0 0.37 5.25 0.0 -2.68 5.459 0.0 -3.075 0.208 0.0 -16.493 -1.711 10.785 -16.51 -1.71 10.785 -19.77 -1.54 10.785 -20.14 -6.89 10.785 -16.858 -7.139 10.785 -16.51 -1.71 0.0 -19.77 -1.54 0.0 -20.14 -6.89 0.0 -16.858 -7.139 0.0 -16.493 -1.711 0.0 -8.85 12.27 0.0 -9.13 9.22 0.0 -15.728 9.723 0.0 -15.52 12.76 0.0 -15.728 9.723 6.826 -15.52 12.76 6.826 -8.85 12.27 6.826 -9.13 9.22 6.826 -15.728 9.723 12.109 -15.85 7.939 12.109 -5.85 7.27 12.109 -5.72 8.96 12.109 -9.13 9.22 12.109 -15.85 7.939 0.0 -15.85 7.939 11.878 -5.72 8.96 0.0 -5.85 7.27 0.0 -5.85 7.27 11.876 -3.81 -9.55 12.418 -10.01 -9.12 12.42 -10.01 -9.12 0.0 -3.81 -9.55 0.0 -3.299 -2.43 13.754 -3.11 0.21 13.231 -3.075 0.208 13.231 -2.68 5.459 12.191 -2.7 5.46 12.191 -2.56 7.05 11.875 -16.498 -1.537 13.754 -16.96 -8.65 12.42 -16.84 -7.14 12.704 -16.84 -7.14 0.0 -16.96 -8.65 0.0 -2.56 7.05 0.0 -16.858 -7.139 12.704 -3.299 -2.43 0.0 -3.11 0.21 0.0 -2.7 5.46 0.0 -16.493 -1.711 13.721 -16.51 -1.71 13.721 -13.65 -8.87 12.421 -13.65 -8.877 12.42 -10.01 -9.126 12.419 -10.01 -9.126 10.779 -10.01 -9.126 0.0 -16.498 -1.537 0.0 -13.65 -8.87 0.0 -13.65 -8.877 0.0 -13.65 -8.877 10.779 -13.065 -9.727 11.749 -10.63 -9.894 11.749 -10.12 -10.74 0.0 -13.77 -10.49 0.0 -10.12 -10.74 10.779 -13.77 -10.49 10.779</float_array>
                    <technique_common>
                        <accessor count="73" source="#geometry0-position-array" stride="3">
                            <param name="X" type="float"/>
                            <param name="Y" type="float"/>
                            <param name="Z" type="float"/>
                        </accessor>
                    </technique_common>
                </source>
                <source id="geometry0-normal">
                    <float_array id="geometry0-normal-array" count="864">0.0 0.0 1.0 0.0 0.0 1.0 0.0 0.0 1.0 0.0 0.0 1.0 0.0 0.0 -1.0 0.0 0.0 -1.0 0.0 0.0 -1.0 0.0 0.0 -1.0 0.0 0.0 -1.0 -0.0667508 -0.9977697 0.0 -0.0667508 -0.9977697 0.0 -0.0667508 -0.9977697 0.0 -0.0667508 -0.9977697 0.0 0.861582 -0.0587198 0.5042107 0.861582 -0.0587198 0.5042107 0.861582 -0.0587198 0.5042107 0.0 0.0 1.0 0.0 0.0 1.0 0.0 0.0 1.0 0.0 0.0 1.0 0.0 0.0 1.0 -0.9977468 0.0670924 0.0 -0.9977468 0.0670924 0.0 -0.9977468 0.0670924 0.0 -0.9977468 0.0670924 0.0 -0.0682473 -0.9976684 0.0 -0.0682473 -0.9976684 0.0 -0.0682473 -0.9976684 0.0 -0.0682473 -0.9976684 0.0 0.0 0.0 1.0 0.0 0.0 1.0 0.0 0.0 1.0 0.0 0.0 1.0 0.0 0.0 1.0 -0.9968572 0.0792198 0.0 -0.9968572 0.0792198 0.0 -0.9968572 0.0792198 0.0 -0.9968572 0.0792198 0.0 0.9974473 -0.0714082 0.0 0.9974473 -0.0714082 0.0 0.9974473 -0.0714082 0.0 0.9974473 -0.0714082 0.0 -0.8298424 0.061737 0.5545719 -0.8298424 0.061737 0.5545719 -0.8298424 0.061737 0.5545719 0.9975258 -0.0703018 0.0 0.9975258 -0.0703018 0.0 0.9975258 -0.0703018 0.0 0.9975258 -0.0703018 0.0 0.9974345 -0.0715855 0.0 0.9974344 -0.0715855 0.0 0.9974345 -0.0715855 0.0 0.9974345 -0.0715855 0.0 0.0760257 0.9971058 0.0 0.0760257 0.9971058 0.0 0.0760257 0.9971058 0.0 0.0760257 0.9971058 0.0 0.0760257 0.9971058 0.0 -0.9976629 0.0683283 0.0 -0.9976629 0.0683283 0.0 -0.9976629 0.0683283 0.0 -0.9976629 0.0683283 0.0 -0.0124152 -0.183542 0.9829335 -0.0124181 -0.1835466 0.9829326 -0.0098452 -0.1814344 0.9833538 -9.033E-4 -0.1740087 0.9847438 -0.0037191 -0.163121 0.9865991 -0.0136046 -0.1758139 0.9843294 -0.0093965 -0.1413396 0.9899166 -0.0116478 -0.1835682 0.982938 -0.0125173 -0.1838636 0.9828721 -0.0137262 -0.1850906 0.9826256 -0.0101931 -0.1834854 0.9829696 -0.0109772 -0.1866268 0.9823696 0.0587171 0.9982746 0.0 0.0587171 0.9982746 0.0 0.0587171 0.9982746 0.0 0.0587171 0.9982746 0.0 -0.068333 -0.9976625 0.0 -0.068333 -0.9976625 0.0 -0.068333 -0.9976625 0.0 -0.068333 -0.9976625 0.0 0.0524956 0.7664158 0.6401961 0.0525558 0.7663087 0.6403194 0.0524956 0.7664158 0.6401961 0.0524353 0.766523 0.6400728 1.0 0.0 0.0 1.0 0.0 0.0 1.0 0.0 0.0 1.0 0.0 0.0 1.0 0.0 0.0 0.0 0.0 -1.0 0.0 0.0 -1.0 0.0 0.0 -1.0 0.0 0.0 -1.0 0.0 0.0 -1.0 0.0 0.0 -1.0 0.0 0.0 -1.0 0.0 0.0 -1.0 0.0 0.0 -1.0 0.0 0.0 -1.0 0.0 0.0 -1.0 0.0 0.0 -1.0 0.0 0.0 -1.0 0.0 0.0 -1.0 0.0 0.0 -1.0 0.0 0.0 -1.0 0.0 0.0 -1.0 0.0 0.0 -1.0 0.0 0.0 -1.0 0.9977468 -0.0670924 0.0 0.9977468 -0.0670924 0.0 0.9977468 -0.0670924 0.0 0.9977468 -0.0670924 0.0 0.0520765 0.9986432 0.0 0.0520765 0.9986432 0.0 0.0520765 0.9986432 0.0 0.0520765 0.9986432 0.0 0.0 0.0 -1.0 0.0 0.0 -1.0 0.0 0.0 -1.0 0.0 0.0 -1.0 0.0 0.0 -1.0 0.0 0.0 -1.0 0.0 0.0 -1.0 0.0 0.0 -1.0 0.0667202 0.9977717 0.0 0.0667202 0.9977717 0.0 0.0667202 0.9977717 0.0 0.0667202 0.9977718 0.0 0.0682473 0.9976685 0.0 0.0682473 0.9976685 0.0 0.0682473 0.9976685 0.0 0.0682473 0.9976685 0.0 0.0499341 0.9987525 0.0 0.0499341 0.9987525 0.0 0.0499341 0.9987525 0.0 0.0499341 0.9987526 0.0 0.0499341 0.9987526 0.0 0.996146 -0.087711 0.0 0.996146 -0.087711 0.0 0.996146 -0.087711 0.0 0.996146 -0.087711 0.0 0.9971826 -0.0750118 0.0 0.9971826 -0.0750118 0.0 0.9971826 -0.0750118 0.0 0.9971826 -0.0750118 0.0 0.0760146 0.9971068 0.0 0.0760146 0.9971068 0.0 0.0760146 0.9971068 0.0 0.0760146 0.9971068 0.0 -0.0682473 -0.9976685 0.0 -0.0682473 -0.9976685 0.0 -0.0682473 -0.9976685 0.0 -0.0682473 -0.9976685 0.0 0.0667508 0.9977697 0.0 0.0667508 0.9977697 0.0 0.0667508 0.9977697 0.0 0.0667508 0.9977697 0.0 -0.0691887 -0.9976036 0.0 -0.0691887 -0.9976036 0.0 -0.0691887 -0.9976036 0.0 -0.0691887 -0.9976036 0.0 -0.075651 -0.9971343 0.0 -0.075651 -0.9971343 0.0 -0.075651 -0.9971343 0.0 -0.075651 -0.9971343 0.0 -0.9977468 0.0670924 0.0 -0.9977468 0.0670924 0.0 -0.9977468 0.0670924 0.0 -0.9977468 0.0670924 0.0 -0.9972441 0.074191 0.0 -0.9972441 0.074191 0.0 -0.9972441 0.074191 0.0 -0.9972441 0.074191 0.0 -0.9976171 0.0689939 0.0 -0.9976171 0.0689939 0.0 -0.9976171 0.0689939 0.0 -0.9976171 0.0689939 0.0 -0.0760146 -0.9971067 0.0 -0.0760146 -0.9971067 0.0 -0.0760146 -0.9971067 0.0 -0.0760146 -0.9971067 0.0 0.0732658 0.9973124 0.0 0.0732658 0.9973124 0.0 0.0732658 0.9973124 0.0 0.0732658 0.9973124 0.0 -0.9976026 0.0692038 0.0 -0.9976026 0.0692038 0.0 -0.9976026 0.0692038 0.0 -0.9976026 0.0692038 0.0 -0.0667508 -0.9977697 0.0 -0.0667508 -0.9977697 0.0 -0.0667508 -0.9977697 0.0 -0.0667508 -0.9977697 0.0 0.0760146 0.9971067 0.0 0.0760146 0.9971067 0.0 0.0760146 0.9971067 0.0 0.0760146 0.9971067 0.0 -0.0674881 -0.9977201 0.0 -0.0674881 -0.9977201 0.0 -0.0674881 -0.9977201 0.0 -0.0674881 -0.9977201 0.0 0.0125511 0.1924663 0.9812233 0.0130799 0.1933272 0.9810472 0.013114 0.1933669 0.9810389 0.0119951 0.1915718 0.9814053 0.0116609 0.1925112 0.9812256 0.0131266 0.1935075 0.9810109 0.0119747 0.1935677 0.9810138 0.0132568 0.1937895 0.9809536 0.0096785 0.1935738 0.981038 -0.066319 -0.9977984 0.0 -0.066319 -0.9977985 0.0 -0.066319 -0.9977984 0.0 -0.066319 -0.9977984 0.0 0.0 0.0 -1.0 0.0 0.0 -1.0 0.0 0.0 -1.0 0.0 0.0 -1.0 0.0 0.0 -1.0 0.9970545 -0.0766966 0.0 0.9970545 -0.0766966 0.0 0.9970545 -0.0766966 0.0 0.9970545 -0.0766966 0.0 0.9970545 -0.0766966 0.0 -0.0570497 -0.9983713 0.0 -0.0570497 -0.9983713 0.0 -0.0570497 -0.9983713 0.0 -0.0570497 -0.9983713 0.0 -0.0570497 -0.9983714 0.0 0.0 0.0 1.0 0.0 0.0 1.0 0.0 0.0 1.0 0.0 0.0 1.0 0.0 0.0 -1.0 0.0 0.0 -1.0 0.0 0.0 -1.0 0.0 0.0 -1.0 -0.9976698 0.0682267 0.0 -0.9976698 0.0682267 0.0 -0.9976698 0.0682267 0.0 -0.9976698 0.0682267 0.0 -0.9976698 0.0682267 0.0 -0.9976698 0.0682267 0.0 -0.9971826 0.0750118 0.0 -0.9971826 0.0750118 0.0 -0.9971826 0.0750118 0.0 -0.9971826 0.0750118 0.0 0.9971826 -0.0750118 0.0 0.9971826 -0.0750118 0.0 0.9971826 -0.0750118 0.0 0.9971827 -0.0750118 0.0 0.0683643 0.9976604 0.0 0.0683643 0.9976604 0.0 0.0683643 0.9976604 0.0 0.0683643 0.9976604 0.0 0.9976856 -0.0679957 0.0 0.9976856 -0.0679957 0.0 0.9976856 -0.0679957 0.0 0.9976856 -0.0679957 0.0 0.9958126 -0.0914188 0.0 0.9958126 -0.0914188 0.0 0.9958126 -0.0914188 0.0 0.9958126 -0.0914188 0.0 -0.0587171 -0.9982747 0.0 -0.0587171 -0.9982746 0.0 -0.0587171 -0.9982746 0.0 -0.0587171 -0.9982747 0.0 -0.0587171 -0.9982747 0.0 -0.0554671 -0.9984605 0.0 -0.0554671 -0.9984605 0.0 -0.0554671 -0.9984605 0.0 -0.0554671 -0.9984605 0.0 -0.0554671 -0.9984605 0.0 -0.9976701 0.0682238 0.0 -0.9976701 0.0682238 0.0 -0.9976701 0.0682238 0.0 -0.9976701 0.0682238 0.0 -0.0525032 -0.7660433 0.6406412 -0.0525338 -0.7659871 0.6407058 -0.0525032 -0.7660433 0.6406412 -0.0524726 -0.7660995 0.6405766 -1.0 0.0 0.0 -1.0 0.0 0.0 -1.0 0.0 0.0 -1.0 0.0 0.0 -1.0 0.0 0.0</float_array>
                    <technique_common>
                        <accessor count="288" source="#geometry0-normal-array" stride="3">
                            <param name="X" type="float"/>
                            <param name="Y" type="float"/>
                            <param name="Z" type="float"/>
                        </accessor>
                    </technique_common>
                </source>
                <vertices id="geometry0-vertex">
                    <input semantic="POSITION" source="#geometry0-position"/>
                </vertices>
                <triangles count="131" material="default_ai_0.2_sh_0.2_tr_0.0_dc_r_0.8_g_0.8_b_0.8_sc_r_1.0_g_1.0_b_1.0_ec_r_0.0_g_0.0_b_0_tri">
                    <input offset="0" semantic="VERTEX" source="#geometry0-vertex"/>
                    <input offset="1" semantic="NORMAL" source="#geometry0-normal"/>
                    <p>31 4 20 5 19 6 31 4 19 6 33 7 31 4 33 7 34 8 32 9 35 10 28 11 32 9 28 11 27 12 8 21 12 22 52 23 8 21 52 23 56 24 66 25 61 26 60 27 66 25 60 27 59 28 47 34 48 35 49 36 47 34 49 36 50 37 41 38 40 39 53 40 41 38 53 40 54 41 2 45 1 46 4 47 2 45 4 47 5 48 40 49 36 50 39 51 40 49 39 51 53 52 33 53 19 54 25 55 33 53 25 55 30 56 33 53 30 56 29 57 22 58 23 59 21 60 22 58 21 60 20 61 9 74 8 75 17 76 9 74 17 76 13 77 71 78 72 79 70 80 71 78 70 80 69 81 62 86 38 87 37 88 61 89 62 86 37 88 61 89 37 88 60 90 53 91 39 92 38 93 54 94 53 91 38 93 6 95 7 96 54 94 6 95 54 94 38 93 55 97 6 95 38 93 51 98 55 97 38 93 34 99 51 98 38 93 31 100 34 99 38 93 31 100 38 93 62 101 63 102 31 100 62 101 17 103 13 104 63 102 17 103 63 102 62 101 49 105 16 106 17 103 49 105 17 103 62 101 64 107 50 108 49 105 64 107 49 105 62 101 64 107 62 101 65 109 16 110 17 111 8 112 16 110 8 112 12 113 10 114 9 115 13 116 10 114 13 116 14 117 62 118 69 119 70 120 62 118 70 120 65 121 6 122 5 123 4 124 6 122 4 124 7 125 35 126 45 127 51 128 35 126 51 128 34 129 62 130 65 131 66 132 62 130 66 132 61 133 6 134 55 135 44 136 3 137 6 134 44 136 3 137 44 136 43 138 45 139 44 140 55 141 45 139 55 141 51 142 0 143 7 144 6 145 0 143 6 145 3 146 25 147 22 148 26 149 25 147 26 149 30 150 66 151 65 152 62 153 66 151 62 153 61 154 35 155 34 156 31 157 35 155 31 157 32 158 36 159 37 160 38 161 36 159 38 161 39 162 12 163 11 164 15 165 12 163 15 165 16 166 8 167 17 168 16 169 8 167 16 169 12 170 72 171 66 172 65 173 72 171 65 173 70 174 11 175 10 176 14 177 11 175 14 177 15 178 20 179 19 180 25 181 20 179 25 181 22 182 23 183 24 184 18 185 23 183 18 185 21 186 57 187 46 188 63 189 57 187 63 189 13 190 32 191 31 192 34 193 32 191 34 193 35 194 25 195 19 196 20 197 25 195 20 197 22 198 1 199 0 200 7 201 1 199 7 201 4 202 58 212 47 213 50 214 58 212 50 214 64 215 13 216 17 217 16 218 13 216 16 218 15 219 13 216 15 219 14 220 34 221 33 222 29 223 35 224 34 221 29 223 35 224 29 223 28 225 54 226 7 227 0 228 54 226 0 228 42 229 54 226 42 229 41 230 18 235 19 236 20 237 18 235 20 237 21 238 20 239 31 240 32 241 20 239 32 241 27 242 22 243 20 239 27 242 22 243 27 242 26 244 6 245 7 246 0 247 6 245 0 247 3 248 0 249 3 250 43 251 0 249 43 251 42 252 3 253 2 254 5 255 3 253 5 255 6 256 61 257 71 258 69 259 61 257 69 259 62 260 24 261 25 262 19 263 24 261 19 263 18 264 13 265 17 266 8 267 13 265 8 267 56 268 13 265 56 268 57 269 16 270 49 271 48 272 12 273 16 270 48 272 12 273 48 272 52 274 46 275 32 276 31 277 46 275 31 277 63 278 64 283 65 284 66 285 64 283 66 285 59 286 64 283 59 286 58 287</p>
                </triangles>
                <triangles count="33" material="default_ai_0.2_sh_0.2_tr_0.0_dc_r_1.0_g_0.2_b_0.2_sc_r_1.0_g_1.0_b_1.0_ec_r_0.0_g_0.0_b_0_tri">
                    <input offset="0" semantic="VERTEX" source="#geometry0-vertex"/>
                    <input offset="1" semantic="NORMAL" source="#geometry0-normal"/>
                    <p>0 0 1 1 2 2 0 0 2 2 3 3 68 13 71 14 61 15 29 16 30 17 26 18 29 16 26 18 27 19 29 16 27 19 28 20 11 29 12 30 8 31 11 29 8 31 9 32 11 29 9 32 10 33 67 42 66 43 72 44 36 62 40 63 46 64 37 65 36 62 46 64 60 66 37 65 46 64 58 67 59 68 60 66 58 67 60 66 46 64 48 69 47 70 58 67 56 71 52 72 48 69 56 71 48 69 58 67 56 71 58 67 46 64 56 71 46 64 57 73 67 82 68 83 61 84 67 82 61 84 66 85 32 203 46 204 40 205 32 203 40 205 41 206 32 203 41 206 42 207 35 208 32 203 42 207 44 209 45 210 35 208 44 209 35 208 42 207 44 209 42 207 43 211 23 231 22 232 25 233 23 231 25 233 24 234 68 279 67 280 72 281 68 279 72 281 71 282</p>
                </triangles>
            </mesh>
        </geometry>
    </library_geometries>
    <library_visual_scenes>
        <visual_scene id="Building_DEBW_5221000QyO0">
            <node>
                <instance_geometry url="#geometry0">
                    <bind_material>
                        <technique_common>
                            <instance_material symbol="default_ai_0.2_sh_0.2_tr_0.0_dc_r_0.8_g_0.8_b_0.8_sc_r_1.0_g_1.0_b_1.0_ec_r_0.0_g_0.0_b_0_tri" target="#default_ai_0.2_sh_0.2_tr_0.0_dc_r_0.8_g_0.8_b_0.8_sc_r_1.0_g_1.0_b_1.0_ec_r_0.0_g_0.0_b_0_mat"/>
                            <instance_material symbol="default_ai_0.2_sh_0.2_tr_0.0_dc_r_1.0_g_0.2_b_0.2_sc_r_1.0_g_1.0_b_1.0_ec_r_0.0_g_0.0_b_0_tri" target="#default_ai_0.2_sh_0.2_tr_0.0_dc_r_1.0_g_0.2_b_0.2_sc_r_1.0_g_1.0_b_1.0_ec_r_0.0_g_0.0_b_0_mat"/>
                        </technique_common>
                    </bind_material>
                </instance_geometry>
            </node>
        </visual_scene>
    </library_visual_scenes>
    <scene>
        <instance_visual_scene url="#Building_DEBW_5221000QyO0"/>
    </scene>
</COLLADA>
