<?xml version="1.0" encoding="UTF-8" standalone="yes"?>
<COLLADA xmlns="http://www.collada.org/2005/11/COLLADASchema" version="1.4.1">
    <asset>
        <contributor>
            <authoring_tool>3D City Database Importer/Exporter, version 5.5.3; Chair of Geoinformatics, Technical University of Munich</authoring_tool>
        </contributor>
        <created>2026-05-06T15:12:06.040</created>
        <modified>2026-05-06T15:12:06.040</modified>
        <unit meter="1.0" name="meters"/>
        <up_axis>Z_UP</up_axis>
    </asset>
    <library_materials>
        <material id="default_ai_0.2_sh_0.2_tr_0.0_dc_r_0.8_g_0.8_b_0.8_sc_r_1.0_g_1.0_b_1.0_ec_r_0.0_g_0.0_b_0_mat">
            <instance_effect url="#default_ai_0.2_sh_0.2_tr_0.0_dc_r_0.8_g_0.8_b_0.8_sc_r_1.0_g_1.0_b_1.0_ec_r_0.0_g_0.0_b_0_eff"/>
        </material>
        <material id="default_ai_0.2_sh_0.2_tr_0.0_dc_r_1.0_g_0.2_b_0.2_sc_r_1.0_g_1.0_b_1.0_ec_r_0.0_g_0.0_b_0_mat">
            <instance_effect url="#default_ai_0.2_sh_0.2_tr_0.0_dc_r_1.0_g_0.2_b_0.2_sc_r_1.0_g_1.0_b_1.0_ec_r_0.0_g_0.0_b_0_eff"/>
        </material>
    </library_materials>
    <library_effects>
        <effect id="default_ai_0.2_sh_0.2_tr_0.0_dc_r_0.8_g_0.8_b_0.8_sc_r_1.0_g_1.0_b_1.0_ec_r_0.0_g_0.0_b_0_eff">
            <profile_COMMON>
                <technique sid="COMMON">
                    <lambert>
                        <emission>
                            <color>0.0 0.0 0.0 1.0</color>
                        </emission>
                        <diffuse>
                            <color>0.8 0.8 0.8 1.0</color>
                        </diffuse>
                        <reflective>
                            <color>1.0 1.0 1.0 1.0</color>
                        </reflective>
                        <reflectivity>
                            <float>0.2</float>
                        </reflectivity>
                        <transparent opaque="A_ONE">
                            <color>1.0 1.0 1.0 1.0</color>
                        </transparent>
                        <transparency>
                            <float>1.0</float>
                        </transparency>
                    </lambert>
                </technique>
                <extra>
                    <technique profile="GOOGLEEARTH">
                        <double_sided>0</double_sided>
                    </technique>
                </extra>
            </profile_COMMON>
        </effect>
        <effect id="default_ai_0.2_sh_0.2_tr_0.0_dc_r_1.0_g_0.2_b_0.2_sc_r_1.0_g_1.0_b_1.0_ec_r_0.0_g_0.0_b_0_eff">
            <profile_COMMON>
                <technique sid="COMMON">
                    <lambert>
                        <emission>
                            <color>0.0 0.0 0.0 1.0</color>
                        </emission>
                        <diffuse>
                            <color>1.0 0.2 0.2 1.0</color>
                        </diffuse>
                        <reflective>
                            <color>1.0 1.0 1.0 1.0</color>
                        </reflective>
                        <reflectivity>
                            <float>0.2</float>
                        </reflectivity>
                        <transparent opaque="A_ONE">
                            <color>1.0 1.0 1.0 1.0</color>
                        </transparent>
                        <transparency>
                            <float>1.0</float>
                        </transparency>
                    </lambert>
                </technique>
                <extra>
                    <technique profile="GOOGLEEARTH">
                        <double_sided>0</double_sided>
                    </technique>
                </extra>
            </profile_COMMON>
        </effect>
    </library_effects>
    <library_geometries>
        <geometry id="geometry0">
            <mesh>
                <source id="geometry0-position">
                    <float_array id="geometry0-position-array" count="72">7.4 -0.5 8.449 0.0 0.0 8.449 0.0 0.0 0.0 7.4 -0.5 0.0 -0.92 19.52 8.449 -0.56 24.78 8.449 -0.56 24.78 0.0 -0.92 19.52 0.0 9.16 25.36 8.449 1.77 25.87 8.449 1.69 24.63 8.449 1.33 19.36 8.449 0.81 11.77 8.449 -1.44 11.92 8.449 -1.8 6.64 8.449 0.45 6.49 8.449 1.33 19.36 0.0 1.77 25.87 0.0 1.69 24.63 0.0 0.45 6.49 0.0 0.81 11.77 0.0 -1.44 11.92 0.0 9.16 25.36 0.0 -1.8 6.64 0.0</float_array>
                    <technique_common>
                        <accessor count="24" source="#geometry0-position-array" stride="3">
                            <param name="X" type="float"/>
                            <param name="Y" type="float"/>
                            <param name="Z" type="float"/>
                        </accessor>
                    </technique_common>
                </source>
                <source id="geometry0-normal">
                    <float_array id="geometry0-normal-array" count="216">-0.9976048 0.0691714 0.0 -0.9976048 0.0691714 0.0 -0.9976048 0.0691714 0.0 -0.9976048 0.0691714 0.0 0.0688485 0.9976271 0.0 0.0688485 0.9976271 0.0 0.0688485 0.9976271 0.0 0.0688485 0.9976271 0.0 -0.0709319 -0.9974812 0.0 -0.0709319 -0.9974812 0.0 -0.0709319 -0.9974812 0.0 -0.0709319 -0.9974812 0.0 -0.0674139 -0.9977251 0.0 -0.0674139 -0.9977251 0.0 -0.0674139 -0.9977251 0.0 -0.0674139 -0.9977251 0.0 0.0 0.0 -1.0 0.0 0.0 -1.0 0.0 0.0 -1.0 0.0 0.0 -1.0 0.0 0.0 -1.0 0.0 0.0 -1.0 0.0 0.0 -1.0 0.0 0.0 -1.0 0.0 0.0 -1.0 0.0 0.0 -1.0 0.0 0.0 -1.0 0.0 0.0 -1.0 0.0665197 0.9977852 0.0 0.0665197 0.9977852 0.0 0.0665197 0.9977852 0.0 0.0665197 0.9977852 0.0 -0.9976661 0.0682813 0.0 -0.9976661 0.0682813 0.0 -0.9976661 0.0682813 0.0 -0.9976661 0.0682813 0.0 0.0665188 0.9977852 0.0 0.0665188 0.9977852 0.0 0.0665188 0.9977852 0.0 0.0665188 0.9977852 0.0 -0.9976613 0.068351 0.0 -0.9976613 0.068351 0.0 -0.9976613 0.068351 0.0 -0.9976613 0.068351 0.0 -0.9976837 0.0680239 0.0 -0.9976837 0.0680239 0.0 -0.9976837 0.0680239 0.0 -0.9976837 0.0680239 0.0 -0.9979253 0.0643821 0.0 -0.9979253 0.0643821 0.0 -0.9979253 0.0643821 0.0 -0.9979253 0.0643821 0.0 0.997692 -0.0679017 0.0 0.997692 -0.0679017 0.0 0.997692 -0.0679017 0.0 0.997692 -0.0679017 0.0 0.0 0.0 1.0 0.0 0.0 1.0 0.0 0.0 1.0 0.0 0.0 1.0 0.0 0.0 1.0 0.0 0.0 1.0 0.0 0.0 1.0 0.0 0.0 1.0 0.0 0.0 1.0 0.0 0.0 1.0 0.0 0.0 1.0 0.0 0.0 1.0 -0.0665191 -0.9977852 0.0 -0.0665191 -0.9977852 0.0 -0.0665191 -0.9977852 0.0 -0.0665191 -0.9977852 0.0</float_array>
                    <technique_common>
                        <accessor count="72" source="#geometry0-normal-array" stride="3">
                            <param name="X" type="float"/>
                            <param name="Y" type="float"/>
                            <param name="Z" type="float"/>
                        </accessor>
                    </technique_common>
                </source>
                <vertices id="geometry0-vertex">
                    <input semantic="POSITION" source="#geometry0-position"/>
                </vertices>
                <triangles count="34" material="default_ai_0.2_sh_0.2_tr_0.0_dc_r_0.8_g_0.8_b_0.8_sc_r_1.0_g_1.0_b_1.0_ec_r_0.0_g_0.0_b_0_tri">
                    <input offset="0" semantic="VERTEX" source="#geometry0-vertex"/>
                    <input offset="1" semantic="NORMAL" source="#geometry0-normal"/>
                    <p>1 0 15 1 19 2 1 0 19 2 2 3 9 4 8 5 22 6 9 4 22 6 17 7 11 8 4 9 7 10 11 8 7 10 16 11 0 12 1 13 2 14 0 12 2 14 3 15 22 16 3 17 2 18 22 16 2 18 19 19 22 16 19 19 23 20 18 21 17 22 22 16 7 23 6 24 18 21 7 23 18 21 22 16 16 25 7 23 22 16 20 26 16 25 22 16 20 26 22 16 23 20 20 26 23 20 21 27 5 28 10 29 18 30 5 28 18 30 6 31 4 32 5 33 6 34 4 32 6 34 7 35 13 36 12 37 20 38 13 36 20 38 21 39 12 40 11 41 16 42 12 40 16 42 20 43 14 44 13 45 21 46 14 44 21 46 23 47 10 48 9 49 17 50 10 48 17 50 18 51 8 52 0 53 3 54 8 52 3 54 22 55 15 68 14 69 23 70 15 68 23 70 19 71</p>
                </triangles>
                <triangles count="10" material="default_ai_0.2_sh_0.2_tr_0.0_dc_r_1.0_g_0.2_b_0.2_sc_r_1.0_g_1.0_b_1.0_ec_r_0.0_g_0.0_b_0_tri">
                    <input offset="0" semantic="VERTEX" source="#geometry0-vertex"/>
                    <input offset="1" semantic="NORMAL" source="#geometry0-normal"/>
                    <p>15 56 1 57 0 58 15 56 0 58 8 59 14 60 15 56 8 59 12 61 13 62 14 60 12 61 14 60 8 59 11 63 12 61 8 59 4 64 11 63 8 59 10 65 5 66 4 64 10 65 4 64 8 59 10 65 8 59 9 67</p>
                </triangles>
            </mesh>
        </geometry>
    </library_geometries>
    <library_visual_scenes>
        <visual_scene id="Building_DEBW_5221000Qi44">
            <node>
                <instance_geometry url="#geometry0">
                    <bind_material>
                        <technique_common>
                            <instance_material symbol="default_ai_0.2_sh_0.2_tr_0.0_dc_r_0.8_g_0.8_b_0.8_sc_r_1.0_g_1.0_b_1.0_ec_r_0.0_g_0.0_b_0_tri" target="#default_ai_0.2_sh_0.2_tr_0.0_dc_r_0.8_g_0.8_b_0.8_sc_r_1.0_g_1.0_b_1.0_ec_r_0.0_g_0.0_b_0_mat"/>
                            <instance_material symbol="default_ai_0.2_sh_0.2_tr_0.0_dc_r_1.0_g_0.2_b_0.2_sc_r_1.0_g_1.0_b_1.0_ec_r_0.0_g_0.0_b_0_tri" target="#default_ai_0.2_sh_0.2_tr_0.0_dc_r_1.0_g_0.2_b_0.2_sc_r_1.0_g_1.0_b_1.0_ec_r_0.0_g_0.0_b_0_mat"/>
                        </technique_common>
                    </bind_material>
                </instance_geometry>
            </node>
        </visual_scene>
    </library_visual_scenes>
    <scene>
        <instance_visual_scene url="#Building_DEBW_5221000Qi44"/>
    </scene>
</COLLADA>
