<?xml version="1.0" encoding="UTF-8" standalone="yes"?>
<COLLADA xmlns="http://www.collada.org/2005/11/COLLADASchema" version="1.4.1">
    <asset>
        <contributor>
            <authoring_tool>3D City Database Importer/Exporter, version 5.5.3; Chair of Geoinformatics, Technical University of Munich</authoring_tool>
        </contributor>
        <created>2026-05-06T15:12:03.471</created>
        <modified>2026-05-06T15:12:03.471</modified>
        <unit meter="1.0" name="meters"/>
        <up_axis>Z_UP</up_axis>
    </asset>
    <library_materials>
        <material id="default_ai_0.2_sh_0.2_tr_0.0_dc_r_1.0_g_0.2_b_0.2_sc_r_1.0_g_1.0_b_1.0_ec_r_0.0_g_0.0_b_0_mat">
            <instance_effect url="#default_ai_0.2_sh_0.2_tr_0.0_dc_r_1.0_g_0.2_b_0.2_sc_r_1.0_g_1.0_b_1.0_ec_r_0.0_g_0.0_b_0_eff"/>
        </material>
        <material id="default_ai_0.2_sh_0.2_tr_0.0_dc_r_0.8_g_0.8_b_0.8_sc_r_1.0_g_1.0_b_1.0_ec_r_0.0_g_0.0_b_0_mat">
            <instance_effect url="#default_ai_0.2_sh_0.2_tr_0.0_dc_r_0.8_g_0.8_b_0.8_sc_r_1.0_g_1.0_b_1.0_ec_r_0.0_g_0.0_b_0_eff"/>
        </material>
    </library_materials>
    <library_effects>
        <effect id="default_ai_0.2_sh_0.2_tr_0.0_dc_r_1.0_g_0.2_b_0.2_sc_r_1.0_g_1.0_b_1.0_ec_r_0.0_g_0.0_b_0_eff">
            <profile_COMMON>
                <technique sid="COMMON">
                    <lambert>
                        <emission>
                            <color>0.0 0.0 0.0 1.0</color>
                        </emission>
                        <diffuse>
                            <color>1.0 0.2 0.2 1.0</color>
                        </diffuse>
                        <reflective>
                            <color>1.0 1.0 1.0 1.0</color>
                        </reflective>
                        <reflectivity>
                            <float>0.2</float>
                        </reflectivity>
                        <transparent opaque="A_ONE">
                            <color>1.0 1.0 1.0 1.0</color>
                        </transparent>
                        <transparency>
                            <float>1.0</float>
                        </transparency>
                    </lambert>
                </technique>
                <extra>
                    <technique profile="GOOGLEEARTH">
                        <double_sided>0</double_sided>
                    </technique>
                </extra>
            </profile_COMMON>
        </effect>
        <effect id="default_ai_0.2_sh_0.2_tr_0.0_dc_r_0.8_g_0.8_b_0.8_sc_r_1.0_g_1.0_b_1.0_ec_r_0.0_g_0.0_b_0_eff">
            <profile_COMMON>
                <technique sid="COMMON">
                    <lambert>
                        <emission>
                            <color>0.0 0.0 0.0 1.0</color>
                        </emission>
                        <diffuse>
                            <color>0.8 0.8 0.8 1.0</color>
                        </diffuse>
                        <reflective>
                            <color>1.0 1.0 1.0 1.0</color>
                        </reflective>
                        <reflectivity>
                            <float>0.2</float>
                        </reflectivity>
                        <transparent opaque="A_ONE">
                            <color>1.0 1.0 1.0 1.0</color>
                        </transparent>
                        <transparency>
                            <float>1.0</float>
                        </transparency>
                    </lambert>
                </technique>
                <extra>
                    <technique profile="GOOGLEEARTH">
                        <double_sided>0</double_sided>
                    </technique>
                </extra>
            </profile_COMMON>
        </effect>
    </library_effects>
    <library_geometries>
        <geometry id="geometry0">
            <mesh>
                <source id="geometry0-position">
                    <float_array id="geometry0-position-array" count="123">-0.42 -6.18 8.027 0.0 0.0 9.371 0.0 0.0 8.024 0.0 0.0 0.0 -0.42 -6.18 0.0 6.723 -6.675 8.024 7.058 -1.718 9.102 7.3 1.86 9.88 7.377 3.005 10.129 0.237 3.484 10.129 7.59 6.15 8.024 7.59 6.15 9.557 7.3 1.86 9.102 7.3 1.86 8.024 0.449 6.613 8.024 0.449 6.613 9.56 6.723 -6.675 0.0 7.59 6.15 0.0 0.449 6.613 0.0 7.3 1.86 0.0 0.449 6.613 9.358 0.0 0.0 9.358 8.39 1.79 8.836 9.21 0.86 8.621 9.21 0.86 0.0 8.39 1.79 0.0 8.867 -6.824 8.578 6.723 -6.675 9.102 8.867 -6.824 0.0 8.867 -6.824 8.572 9.16 -0.26 0.0 9.16 -0.26 8.614 12.7 -7.09 0.0 13.17 -0.53 0.0 12.7 -7.09 7.585 13.17 -0.53 7.585 9.16 -0.26 8.617 -3.05 6.84 8.482 -3.49 0.24 8.484 -3.05 6.84 0.0 -3.49 0.24 0.0</float_array>
                    <technique_common>
                        <accessor count="41" source="#geometry0-position-array" stride="3">
                            <param name="X" type="float"/>
                            <param name="Y" type="float"/>
                            <param name="Z" type="float"/>
                        </accessor>
                    </technique_common>
                </source>
                <source id="geometry0-normal">
                    <float_array id="geometry0-normal-array" count="525">0.0119564 0.1781298 0.9839343 0.0119493 0.1781164 0.9839368 0.0119564 0.1781298 0.9839343 0.0119636 0.1781432 0.9839318 0.999005 -0.0445986 0.0 0.999005 -0.0445986 0.0 0.999005 -0.0445986 0.0 0.999005 -0.0445986 0.0 0.9990052 -0.044593 0.0 0.9990052 -0.044593 0.0 0.9990052 -0.044593 0.0 0.0647396 0.9979022 0.0 0.0647396 0.9979022 0.0 0.0647396 0.9979022 0.0 0.0647397 0.9979022 0.0 0.0647397 0.9979022 0.0 -0.0142356 -0.2115741 0.9772583 -0.0142505 -0.211562 0.9772608 -0.0142505 -0.211562 0.9772606 -0.014247 -0.2115478 0.9772638 -0.0142392 -0.211549 0.9772637 -0.0142169 -0.2116066 0.9772515 -0.0141988 -0.2116487 0.9772426 0.9977205 -0.0674814 0.0 0.9977205 -0.0674814 0.0 0.9977205 -0.0674814 0.0 0.9974432 -0.0714632 0.0 0.9974432 -0.0714632 0.0 0.9974432 -0.0714632 0.0 0.9974432 -0.0714632 0.0 -0.9977852 0.066519 0.0 -0.9977852 0.066519 0.0 -0.9977852 0.066519 0.0 -0.9977852 0.066519 0.0 -0.9977226 0.06745 0.0 -0.9977226 0.06745 0.0 -0.9977226 0.06745 0.0 -0.9977226 0.06745 0.0 0.0671796 0.9977409 0.0 0.0671795 0.9977409 0.0 0.0671795 0.9977409 0.0 0.0671796 0.9977409 0.0 0.0671796 0.9977409 0.0 0.0640882 0.9979442 0.0 0.0640882 0.9979442 0.0 0.0640882 0.9979442 0.0 0.0640882 0.9979442 0.0 0.0640882 0.9979442 0.0 0.9990052 -0.044593 0.0 0.9990052 -0.044593 0.0 0.9990052 -0.044593 0.0 0.9990052 -0.044593 0.0 -0.9990052 0.044593 0.0 -0.9990052 0.044593 0.0 -0.9990052 0.044593 0.0 -0.9990052 0.044593 0.0 -0.997703 0.0677406 0.0 -0.997703 0.0677406 0.0 -0.997703 0.0677406 0.0 -0.997703 0.0677406 0.0 0.7500733 0.6613547 0.0 0.7500733 0.6613547 0.0 0.7500733 0.6613547 0.0 0.7500733 0.6613547 0.0 -0.0692309 -0.9976007 0.0 -0.0692309 -0.9976007 0.0 -0.0692309 -0.9976007 0.0 -0.0692309 -0.9976006 0.0 0.9977226 -0.06745 0.0 0.9977226 -0.06745 0.0 0.9977226 -0.06745 0.0 0.9977226 -0.06745 0.0 0.997728 -0.0673698 1.105E-4 0.997723 -0.0674451 0.0 0.997723 -0.0674451 0.0 0.9977214 -0.0674685 2.21E-4 0.9977331 -0.0672944 2.21E-4 0.9977465 -0.0670971 0.0 -0.9977216 0.0674657 -5.23E-5 -0.9977226 0.06745 -1.046E-4 -0.9977216 0.0674657 -5.23E-5 -0.9977206 0.0674814 0.0 0.0 0.0 -1.0 0.0 0.0 -1.0 0.0 0.0 -1.0 0.0 0.0 -1.0 -0.997703 0.0677406 0.0 -0.997703 0.0677406 0.0 -0.997703 0.0677406 0.0 -0.997703 0.0677406 0.0 0.9977216 -0.0674657 5.23E-5 0.9977206 -0.0674814 0.0 0.9977216 -0.0674657 5.23E-5 0.9977226 -0.06745 1.046E-4 -0.9976986 0.0678048 0.0 -0.9976986 0.0678048 0.0 -0.9976986 0.0678048 0.0 0.2364977 -0.0161191 0.9714983 0.2363373 -0.015972 0.9715398 0.2364488 -0.0159298 0.9715134 0.2368105 -0.0162708 0.9714197 0.236755 -0.0163842 0.9714313 0.2362652 -0.0160409 0.9715562 0.2360809 -0.0159675 0.9716022 -0.9977242 0.0674274 0.0 -0.9977242 0.0674274 0.0 -0.9977242 0.0674274 0.0 -0.2418296 0.0164177 0.9701799 -0.2418266 0.0164157 0.9701806 -0.2418296 0.0164177 0.9701799 -0.2418325 0.0164196 0.9701791 0.997723 -0.0674451 0.0 0.997723 -0.0674451 0.0 0.997723 -0.0674451 0.0 0.997723 -0.0674451 0.0 -0.0686059 -0.9976438 0.0 -0.0686059 -0.9976438 0.0 -0.0686059 -0.9976438 0.0 -0.0686059 -0.9976438 0.0 -0.0686059 -0.9976438 0.0 -0.0693289 -0.9975939 0.0 -0.0693289 -0.9975939 0.0 -0.0693289 -0.9975939 0.0 -0.0693289 -0.9975938 0.0 -0.0693289 -0.9975939 0.0 -0.0693289 -0.9975938 0.0 0.0 0.0 -1.0 0.0 0.0 -1.0 0.0 0.0 -1.0 0.0 0.0 -1.0 0.0 0.0 -1.0 0.0 0.0 -1.0 0.0 0.0 -1.0 0.0 0.0 -1.0 0.0 0.0 -1.0 0.0 0.0 -1.0 -0.0691329 -0.9976075 0.0 -0.0691329 -0.9976075 0.0 -0.0691329 -0.9976075 0.0 -0.0691329 -0.9976075 0.0 0.997703 -0.0677406 0.0 0.997703 -0.0677406 0.0 0.997703 -0.0677406 0.0 0.997703 -0.0677406 0.0 0.0 0.0 -1.0 0.0 0.0 -1.0 0.0 0.0 -1.0 0.0 0.0 -1.0 0.0 0.0 -1.0 0.0 0.0 -1.0 0.997703 -0.0677406 0.0 0.997703 -0.0677406 0.0 0.997703 -0.0677406 0.0 0.997703 -0.0677406 0.0 -0.9976986 0.0678048 0.0 -0.9976986 0.0678048 0.0 -0.9976986 0.0678048 0.0 -0.9976986 0.0678048 0.0 0.064701 0.9979047 0.0 0.064701 0.9979047 0.0 0.064701 0.9979047 0.0 0.064701 0.9979047 0.0 0.064701 0.9979047 0.0 0.064701 0.9979047 0.0 0.064701 0.9979047 0.0 0.064701 0.9979047 0.0 -0.9977061 0.0676936 1.95E-4 -0.997703 0.0677406 0.0 -0.997703 0.0677412 2.924E-4 -0.9977078 0.06767 2.924E-4 -0.9977126 0.0675983 0.0 0.2481232 -0.0177471 0.9685659 0.2480772 -0.0177137 0.9685783 0.2481232 -0.0177471 0.9685659 0.2481691 -0.0177804 0.9685536</float_array>
                    <technique_common>
                        <accessor count="175" source="#geometry0-normal-array" stride="3">
                            <param name="X" type="float"/>
                            <param name="Y" type="float"/>
                            <param name="Z" type="float"/>
                        </accessor>
                    </technique_common>
                </source>
                <vertices id="geometry0-vertex">
                    <input semantic="POSITION" source="#geometry0-position"/>
                </vertices>
                <triangles count="79" material="default_ai_0.2_sh_0.2_tr_0.0_dc_r_0.8_g_0.8_b_0.8_sc_r_1.0_g_1.0_b_1.0_ec_r_0.0_g_0.0_b_0_tri">
                    <input offset="0" semantic="VERTEX" source="#geometry0-vertex"/>
                    <input offset="1" semantic="NORMAL" source="#geometry0-normal"/>
                    <p>23 4 31 5 30 6 23 4 30 6 24 7 26 8 29 9 31 10 18 11 39 12 37 13 14 14 18 11 37 13 14 14 37 13 20 15 12 23 7 24 6 25 35 26 34 27 32 28 35 26 32 28 33 29 38 30 37 31 39 32 38 30 39 32 40 33 19 34 16 35 5 36 19 34 5 36 13 37 33 38 30 39 31 40 33 38 31 40 36 41 33 38 36 41 35 42 25 43 19 44 13 45 25 43 13 45 12 46 25 43 12 46 22 47 29 48 28 49 30 50 29 48 30 50 31 51 31 52 30 53 28 54 31 52 28 54 29 55 2 56 21 57 20 58 2 56 20 58 14 59 22 60 23 61 24 62 22 60 24 62 25 63 34 64 29 65 28 66 34 64 28 66 32 67 13 68 5 69 16 70 13 68 16 70 19 71 12 72 13 73 10 74 12 72 10 74 11 75 12 72 11 75 8 76 12 72 8 76 7 77 13 78 5 79 6 80 13 78 6 80 12 81 3 82 40 83 39 84 3 82 39 84 18 85 2 86 14 87 18 88 2 86 18 88 3 89 13 90 12 91 6 92 13 90 6 92 5 93 0 94 1 95 2 96 6 104 5 105 27 106 10 111 13 112 19 113 10 111 19 113 17 114 40 115 3 116 2 117 40 115 2 117 21 118 40 115 21 118 38 119 16 120 28 121 29 122 16 120 29 122 26 123 5 124 16 120 26 123 5 124 26 123 27 125 19 126 16 127 4 128 19 126 4 128 3 129 19 126 3 129 18 130 19 126 18 130 17 131 32 132 28 133 30 134 32 132 30 134 33 135 5 136 0 137 4 138 5 136 4 138 16 139 3 140 18 141 14 142 3 140 14 142 2 143 30 144 28 145 16 146 30 144 16 146 19 147 30 144 19 147 25 148 30 144 25 148 24 149 21 150 2 151 14 152 21 150 14 152 20 153 0 154 2 155 3 156 0 154 3 156 4 157 14 158 15 159 11 160 14 158 11 160 10 161 14 162 10 163 17 164 14 162 17 164 18 165 20 166 21 167 1 168 20 166 1 168 9 169 20 166 9 169 15 170</p>
                </triangles>
                <triangles count="16" material="default_ai_0.2_sh_0.2_tr_0.0_dc_r_1.0_g_0.2_b_0.2_sc_r_1.0_g_1.0_b_1.0_ec_r_0.0_g_0.0_b_0_tri">
                    <input offset="0" semantic="VERTEX" source="#geometry0-vertex"/>
                    <input offset="1" semantic="NORMAL" source="#geometry0-normal"/>
                    <p>15 0 9 1 8 2 15 0 8 2 11 3 1 16 0 17 5 18 1 16 5 18 6 19 1 16 6 19 7 20 1 16 7 20 8 21 1 16 8 21 9 22 6 97 27 98 26 99 6 97 26 99 31 100 6 97 31 100 23 101 6 97 23 101 22 102 6 97 22 102 12 103 20 107 37 108 38 109 20 107 38 109 21 110 35 171 36 172 29 173 35 171 29 173 34 174</p>
                </triangles>
            </mesh>
        </geometry>
    </library_geometries>
    <library_visual_scenes>
        <visual_scene id="Building_DEBW_5221000QhDt">
            <node>
                <instance_geometry url="#geometry0">
                    <bind_material>
                        <technique_common>
                            <instance_material symbol="default_ai_0.2_sh_0.2_tr_0.0_dc_r_0.8_g_0.8_b_0.8_sc_r_1.0_g_1.0_b_1.0_ec_r_0.0_g_0.0_b_0_tri" target="#default_ai_0.2_sh_0.2_tr_0.0_dc_r_0.8_g_0.8_b_0.8_sc_r_1.0_g_1.0_b_1.0_ec_r_0.0_g_0.0_b_0_mat"/>
                            <instance_material symbol="default_ai_0.2_sh_0.2_tr_0.0_dc_r_1.0_g_0.2_b_0.2_sc_r_1.0_g_1.0_b_1.0_ec_r_0.0_g_0.0_b_0_tri" target="#default_ai_0.2_sh_0.2_tr_0.0_dc_r_1.0_g_0.2_b_0.2_sc_r_1.0_g_1.0_b_1.0_ec_r_0.0_g_0.0_b_0_mat"/>
                        </technique_common>
                    </bind_material>
                </instance_geometry>
            </node>
        </visual_scene>
    </library_visual_scenes>
    <scene>
        <instance_visual_scene url="#Building_DEBW_5221000QhDt"/>
    </scene>
</COLLADA>
