<?xml version="1.0" encoding="UTF-8" standalone="yes"?>
<COLLADA xmlns="http://www.collada.org/2005/11/COLLADASchema" version="1.4.1">
    <asset>
        <contributor>
            <authoring_tool>3D City Database Importer/Exporter, version 5.5.3; Chair of Geoinformatics, Technical University of Munich</authoring_tool>
        </contributor>
        <created>2026-05-06T15:12:04.756</created>
        <modified>2026-05-06T15:12:04.756</modified>
        <unit meter="1.0" name="meters"/>
        <up_axis>Z_UP</up_axis>
    </asset>
    <library_materials>
        <material id="default_ai_0.2_sh_0.2_tr_0.0_dc_r_0.8_g_0.8_b_0.8_sc_r_1.0_g_1.0_b_1.0_ec_r_0.0_g_0.0_b_0_mat">
            <instance_effect url="#default_ai_0.2_sh_0.2_tr_0.0_dc_r_0.8_g_0.8_b_0.8_sc_r_1.0_g_1.0_b_1.0_ec_r_0.0_g_0.0_b_0_eff"/>
        </material>
        <material id="default_ai_0.2_sh_0.2_tr_0.0_dc_r_1.0_g_0.2_b_0.2_sc_r_1.0_g_1.0_b_1.0_ec_r_0.0_g_0.0_b_0_mat">
            <instance_effect url="#default_ai_0.2_sh_0.2_tr_0.0_dc_r_1.0_g_0.2_b_0.2_sc_r_1.0_g_1.0_b_1.0_ec_r_0.0_g_0.0_b_0_eff"/>
        </material>
    </library_materials>
    <library_effects>
        <effect id="default_ai_0.2_sh_0.2_tr_0.0_dc_r_0.8_g_0.8_b_0.8_sc_r_1.0_g_1.0_b_1.0_ec_r_0.0_g_0.0_b_0_eff">
            <profile_COMMON>
                <technique sid="COMMON">
                    <lambert>
                        <emission>
                            <color>0.0 0.0 0.0 1.0</color>
                        </emission>
                        <diffuse>
                            <color>0.8 0.8 0.8 1.0</color>
                        </diffuse>
                        <reflective>
                            <color>1.0 1.0 1.0 1.0</color>
                        </reflective>
                        <reflectivity>
                            <float>0.2</float>
                        </reflectivity>
                        <transparent opaque="A_ONE">
                            <color>1.0 1.0 1.0 1.0</color>
                        </transparent>
                        <transparency>
                            <float>1.0</float>
                        </transparency>
                    </lambert>
                </technique>
                <extra>
                    <technique profile="GOOGLEEARTH">
                        <double_sided>0</double_sided>
                    </technique>
                </extra>
            </profile_COMMON>
        </effect>
        <effect id="default_ai_0.2_sh_0.2_tr_0.0_dc_r_1.0_g_0.2_b_0.2_sc_r_1.0_g_1.0_b_1.0_ec_r_0.0_g_0.0_b_0_eff">
            <profile_COMMON>
                <technique sid="COMMON">
                    <lambert>
                        <emission>
                            <color>0.0 0.0 0.0 1.0</color>
                        </emission>
                        <diffuse>
                            <color>1.0 0.2 0.2 1.0</color>
                        </diffuse>
                        <reflective>
                            <color>1.0 1.0 1.0 1.0</color>
                        </reflective>
                        <reflectivity>
                            <float>0.2</float>
                        </reflectivity>
                        <transparent opaque="A_ONE">
                            <color>1.0 1.0 1.0 1.0</color>
                        </transparent>
                        <transparency>
                            <float>1.0</float>
                        </transparency>
                    </lambert>
                </technique>
                <extra>
                    <technique profile="GOOGLEEARTH">
                        <double_sided>0</double_sided>
                    </technique>
                </extra>
            </profile_COMMON>
        </effect>
    </library_effects>
    <library_geometries>
        <geometry id="geometry0">
            <mesh>
                <source id="geometry0-position">
                    <float_array id="geometry0-position-array" count="54">-1.19 10.72 12.17 0.0 0.0 12.17 0.0 0.0 0.0 -1.19 10.72 0.0 0.09 -0.83 12.168 -1.23 11.09 12.171 -10.12 10.1 5.313 -10.08 9.74 5.313 -9.26 2.27 5.306 -8.89 -0.98 5.313 -8.8 -1.82 5.311 0.09 -0.83 0.0 -8.8 -1.82 0.0 -8.89 -0.98 0.0 -9.26 2.27 0.0 -10.08 9.74 0.0 -10.12 10.1 0.0 -1.23 11.09 0.0</float_array>
                    <technique_common>
                        <accessor count="18" source="#geometry0-position-array" stride="3">
                            <param name="X" type="float"/>
                            <param name="Y" type="float"/>
                            <param name="Z" type="float"/>
                        </accessor>
                    </technique_common>
                </source>
                <source id="geometry0-normal">
                    <float_array id="geometry0-normal-array" count="162">-0.9938837 -0.1104312 0.0 -0.9938837 -0.1104312 0.0 -0.9938837 -0.1104312 0.0 -0.9938837 -0.1104312 0.0 -0.9935818 -0.1131154 0.0 -0.9935818 -0.1131154 0.0 -0.9935818 -0.1131154 0.0 -0.9935818 -0.1131154 0.0 -0.9943091 -0.1065333 0.0 -0.9943091 -0.1065333 0.0 -0.9943091 -0.1065333 0.0 -0.9943091 -0.1065333 0.0 -0.9940289 -0.1091169 0.0 -0.9940289 -0.1091169 0.0 -0.9940289 -0.1091169 0.0 -0.994029 -0.1091169 0.0 0.1106769 -0.9938564 0.0 0.1106769 -0.9938564 0.0 0.1106769 -0.9938564 0.0 0.1106769 -0.9938564 0.0 -0.6046458 -0.0671818 0.7936561 -0.6047218 -0.0666817 0.7936404 -0.6047015 -0.0670808 0.7936224 -0.6047003 -0.0673042 0.7936043 -0.6045513 -0.0673057 0.7937176 -0.6046396 -0.0672336 0.7936566 -0.6047269 -0.0671312 0.7935987 -0.604726 -0.0671577 0.7935971 -0.6047216 -0.067189 0.7935978 0.9938951 0.1103298 0.0 0.9938951 0.1103298 0.0 0.9938951 0.1103298 0.0 0.9938951 0.1103298 0.0 0.0 0.0 -1.0 0.0 0.0 -1.0 0.0 0.0 -1.0 0.0 0.0 -1.0 0.0 0.0 -1.0 0.0 0.0 -1.0 0.0 0.0 -1.0 0.0 0.0 -1.0 0.0 0.0 -1.0 -0.1106769 0.9938564 0.0 -0.1106769 0.9938565 0.0 -0.1106769 0.9938564 0.0 -0.1106769 0.9938564 0.0 0.994207 0.1074818 0.0 0.994207 0.1074818 0.0 0.994207 0.1074818 0.0 0.9942071 0.1074818 0.0 0.9941724 0.1078018 0.0 0.9941724 0.1078018 0.0 0.9941724 0.1078018 0.0 0.9941724 0.1078018 0.0</float_array>
                    <technique_common>
                        <accessor count="54" source="#geometry0-normal-array" stride="3">
                            <param name="X" type="float"/>
                            <param name="Y" type="float"/>
                            <param name="Z" type="float"/>
                        </accessor>
                    </technique_common>
                </source>
                <vertices id="geometry0-vertex">
                    <input semantic="POSITION" source="#geometry0-position"/>
                </vertices>
                <triangles count="25" material="default_ai_0.2_sh_0.2_tr_0.0_dc_r_0.8_g_0.8_b_0.8_sc_r_1.0_g_1.0_b_1.0_ec_r_0.0_g_0.0_b_0_tri">
                    <input offset="0" semantic="VERTEX" source="#geometry0-vertex"/>
                    <input offset="1" semantic="NORMAL" source="#geometry0-normal"/>
                    <p>7 0 6 1 16 2 7 0 16 2 15 3 9 4 8 5 14 6 9 4 14 6 13 7 10 8 9 9 13 10 10 8 13 10 12 11 8 12 7 13 15 14 8 12 15 14 14 15 4 16 10 17 12 18 4 16 12 18 11 19 0 29 1 30 2 31 0 29 2 31 3 32 2 33 11 34 12 35 2 33 12 35 13 36 2 33 13 36 14 37 2 33 14 37 15 38 2 33 15 38 16 39 3 40 2 33 16 39 3 40 16 39 17 41 6 42 5 43 17 44 6 42 17 44 16 45 5 46 0 47 3 48 5 46 3 48 17 49 1 50 4 51 11 52 1 50 11 52 2 53</p>
                </triangles>
                <triangles count="7" material="default_ai_0.2_sh_0.2_tr_0.0_dc_r_1.0_g_0.2_b_0.2_sc_r_1.0_g_1.0_b_1.0_ec_r_0.0_g_0.0_b_0_tri">
                    <input offset="0" semantic="VERTEX" source="#geometry0-vertex"/>
                    <input offset="1" semantic="NORMAL" source="#geometry0-normal"/>
                    <p>9 20 10 21 4 22 9 20 4 22 1 23 9 20 1 23 0 24 9 20 0 24 5 25 8 26 9 20 5 25 7 27 8 26 5 25 7 27 5 25 6 28</p>
                </triangles>
            </mesh>
        </geometry>
    </library_geometries>
    <library_visual_scenes>
        <visual_scene id="Building_DEBW_522vC00001y">
            <node>
                <instance_geometry url="#geometry0">
                    <bind_material>
                        <technique_common>
                            <instance_material symbol="default_ai_0.2_sh_0.2_tr_0.0_dc_r_0.8_g_0.8_b_0.8_sc_r_1.0_g_1.0_b_1.0_ec_r_0.0_g_0.0_b_0_tri" target="#default_ai_0.2_sh_0.2_tr_0.0_dc_r_0.8_g_0.8_b_0.8_sc_r_1.0_g_1.0_b_1.0_ec_r_0.0_g_0.0_b_0_mat"/>
                            <instance_material symbol="default_ai_0.2_sh_0.2_tr_0.0_dc_r_1.0_g_0.2_b_0.2_sc_r_1.0_g_1.0_b_1.0_ec_r_0.0_g_0.0_b_0_tri" target="#default_ai_0.2_sh_0.2_tr_0.0_dc_r_1.0_g_0.2_b_0.2_sc_r_1.0_g_1.0_b_1.0_ec_r_0.0_g_0.0_b_0_mat"/>
                        </technique_common>
                    </bind_material>
                </instance_geometry>
            </node>
        </visual_scene>
    </library_visual_scenes>
    <scene>
        <instance_visual_scene url="#Building_DEBW_522vC00001y"/>
    </scene>
</COLLADA>
