<?xml version="1.0" encoding="UTF-8" standalone="yes"?>
<COLLADA xmlns="http://www.collada.org/2005/11/COLLADASchema" version="1.4.1">
    <asset>
        <contributor>
            <authoring_tool>3D City Database Importer/Exporter, version 5.5.3; Chair of Geoinformatics, Technical University of Munich</authoring_tool>
        </contributor>
        <created>2026-05-06T15:12:06.460</created>
        <modified>2026-05-06T15:12:06.460</modified>
        <unit meter="1.0" name="meters"/>
        <up_axis>Z_UP</up_axis>
    </asset>
    <library_materials>
        <material id="default_ai_0.2_sh_0.2_tr_0.0_dc_r_1.0_g_0.2_b_0.2_sc_r_1.0_g_1.0_b_1.0_ec_r_0.0_g_0.0_b_0_mat">
            <instance_effect url="#default_ai_0.2_sh_0.2_tr_0.0_dc_r_1.0_g_0.2_b_0.2_sc_r_1.0_g_1.0_b_1.0_ec_r_0.0_g_0.0_b_0_eff"/>
        </material>
        <material id="default_ai_0.2_sh_0.2_tr_0.0_dc_r_0.8_g_0.8_b_0.8_sc_r_1.0_g_1.0_b_1.0_ec_r_0.0_g_0.0_b_0_mat">
            <instance_effect url="#default_ai_0.2_sh_0.2_tr_0.0_dc_r_0.8_g_0.8_b_0.8_sc_r_1.0_g_1.0_b_1.0_ec_r_0.0_g_0.0_b_0_eff"/>
        </material>
    </library_materials>
    <library_effects>
        <effect id="default_ai_0.2_sh_0.2_tr_0.0_dc_r_1.0_g_0.2_b_0.2_sc_r_1.0_g_1.0_b_1.0_ec_r_0.0_g_0.0_b_0_eff">
            <profile_COMMON>
                <technique sid="COMMON">
                    <lambert>
                        <emission>
                            <color>0.0 0.0 0.0 1.0</color>
                        </emission>
                        <diffuse>
                            <color>1.0 0.2 0.2 1.0</color>
                        </diffuse>
                        <reflective>
                            <color>1.0 1.0 1.0 1.0</color>
                        </reflective>
                        <reflectivity>
                            <float>0.2</float>
                        </reflectivity>
                        <transparent opaque="A_ONE">
                            <color>1.0 1.0 1.0 1.0</color>
                        </transparent>
                        <transparency>
                            <float>1.0</float>
                        </transparency>
                    </lambert>
                </technique>
                <extra>
                    <technique profile="GOOGLEEARTH">
                        <double_sided>0</double_sided>
                    </technique>
                </extra>
            </profile_COMMON>
        </effect>
        <effect id="default_ai_0.2_sh_0.2_tr_0.0_dc_r_0.8_g_0.8_b_0.8_sc_r_1.0_g_1.0_b_1.0_ec_r_0.0_g_0.0_b_0_eff">
            <profile_COMMON>
                <technique sid="COMMON">
                    <lambert>
                        <emission>
                            <color>0.0 0.0 0.0 1.0</color>
                        </emission>
                        <diffuse>
                            <color>0.8 0.8 0.8 1.0</color>
                        </diffuse>
                        <reflective>
                            <color>1.0 1.0 1.0 1.0</color>
                        </reflective>
                        <reflectivity>
                            <float>0.2</float>
                        </reflectivity>
                        <transparent opaque="A_ONE">
                            <color>1.0 1.0 1.0 1.0</color>
                        </transparent>
                        <transparency>
                            <float>1.0</float>
                        </transparency>
                    </lambert>
                </technique>
                <extra>
                    <technique profile="GOOGLEEARTH">
                        <double_sided>0</double_sided>
                    </technique>
                </extra>
            </profile_COMMON>
        </effect>
    </library_effects>
    <library_geometries>
        <geometry id="geometry0">
            <mesh>
                <source id="geometry0-position">
                    <float_array id="geometry0-position-array" count="72">2.93 0.3 4.175 0.0 0.0 4.198 0.0 0.0 0.0 2.93 0.3 0.0 1.59 12.29 3.28 2.442 4.667 9.628 2.442 4.667 0.0 1.59 12.29 0.0 -6.32 11.38 3.321 -5.95 8.46 5.757 -6.1 8.44 5.76 -5.587 3.794 9.628 -5.11 -0.523 0.0 -5.587 3.794 0.0 -6.1 8.44 0.0 -5.95 8.46 0.0 -6.32 11.38 0.0 -5.11 -0.523 4.237 0.24 -2.53 3.217 -4.83 -3.06 3.212 -4.83 -3.06 0.0 0.24 -2.53 0.0 -5.11 -0.523 4.425 0.0 0.0 4.425</float_array>
                    <technique_common>
                        <accessor count="24" source="#geometry0-position-array" stride="3">
                            <param name="X" type="float"/>
                            <param name="Y" type="float"/>
                            <param name="Z" type="float"/>
                        </accessor>
                    </technique_common>
                </source>
                <source id="geometry0-normal">
                    <float_array id="geometry0-normal-array" count="258">0.0437293 -0.4270459 0.9031719 0.043704 -0.4270127 0.9031889 0.0437293 -0.4270459 0.9031719 0.0437547 -0.4270792 0.903155 0.9938141 0.111056 0.0 0.9938141 0.111056 0.0 0.9938141 0.111056 0.0 0.9938141 0.111056 0.0 0.1018164 -0.9948032 0.0 0.1018165 -0.9948032 0.0 0.1018164 -0.9948032 0.0 0.1018165 -0.9948032 0.0 -0.1018164 0.9948032 0.0 -0.1018165 0.9948032 0.0 -0.1018164 0.9948032 0.0 -0.1018165 0.9948032 0.0 -0.9939647 -0.1097006 0.0 -0.9939647 -0.1097006 0.0 -0.9939647 -0.1097006 0.0 -0.9939647 -0.1097006 0.0 -0.9939647 -0.1097006 0.0 0.9955308 0.0944377 0.0 0.9955308 0.0944377 0.0 0.9955308 0.0944377 0.0 0.9955308 0.0944377 0.0 0.9955308 0.0944377 0.0 -0.9920673 -0.1257073 0.0 -0.9920674 -0.1257073 0.0 -0.9920673 -0.1257073 0.0 -0.9920673 -0.1257073 0.0 0.10397 -0.9945805 0.0 0.1039699 -0.9945804 0.0 0.10397 -0.9945805 0.0 0.10397 -0.9945805 0.0 -0.9939592 -0.1097506 0.0 -0.9939592 -0.1097506 0.0 -0.9939592 -0.1097506 0.0 -0.9939592 -0.1097505 0.0 0.0 0.0 -1.0 0.0 0.0 -1.0 0.0 0.0 -1.0 0.0 0.0 -1.0 -0.1142904 0.9934474 0.0 -0.1142904 0.9934474 0.0 -0.1142904 0.9934474 0.0 -0.1142904 0.9934474 0.0 0.0 0.0 -1.0 0.0 0.0 -1.0 0.0 0.0 -1.0 0.0 0.0 -1.0 0.0 0.0 -1.0 0.0 0.0 -1.0 0.0 0.0 -1.0 0.0 0.0 -1.0 0.0 0.0 -1.0 0.1018566 -0.9947991 0.0 0.1018566 -0.9947991 0.0 0.1018566 -0.9947991 0.0 0.1018566 -0.9947991 0.0 0.993812 0.1110754 0.0 0.993812 0.1110754 0.0 0.993812 0.1110754 0.0 0.993812 0.1110754 0.0 -0.1321666 0.9912275 0.0 -0.1321666 0.9912275 0.0 -0.1321666 0.9912275 0.0 -0.1321666 0.9912276 0.0 -0.1018164 0.9948032 0.0 -0.1018164 0.9948032 0.0 -0.1018164 0.9948032 0.0 -0.1018165 0.9948032 0.0 -0.993951 -0.109825 0.0 -0.9939509 -0.109825 0.0 -0.993951 -0.109825 0.0 -0.993951 -0.109825 0.0 -0.0689915 0.6337007 0.7704958 -0.0689136 0.6338001 0.770421 -0.0689539 0.633747 0.770461 -0.068961 0.6337835 0.7704304 -0.0689068 0.6338745 0.7703602 -0.0689347 0.6339094 0.7703291 0.0841749 -0.7740824 0.627464 0.0841674 -0.7740892 0.6274566 0.0841244 -0.7741121 0.6274342 0.0841029 -0.7741234 0.627423 0.0840233 -0.7741713 0.6273746</float_array>
                    <technique_common>
                        <accessor count="86" source="#geometry0-normal-array" stride="3">
                            <param name="X" type="float"/>
                            <param name="Y" type="float"/>
                            <param name="Z" type="float"/>
                        </accessor>
                    </technique_common>
                </source>
                <vertices id="geometry0-vertex">
                    <input semantic="POSITION" source="#geometry0-position"/>
                </vertices>
                <triangles count="39" material="default_ai_0.2_sh_0.2_tr_0.0_dc_r_0.8_g_0.8_b_0.8_sc_r_1.0_g_1.0_b_1.0_ec_r_0.0_g_0.0_b_0_tri">
                    <input offset="0" semantic="VERTEX" source="#geometry0-vertex"/>
                    <input offset="1" semantic="NORMAL" source="#geometry0-normal"/>
                    <p>5 4 0 5 3 6 5 4 3 6 6 7 12 8 2 9 1 10 12 8 1 10 17 11 1 12 2 13 12 14 1 12 12 14 17 15 12 16 20 17 19 18 17 19 12 16 19 18 17 19 19 18 22 20 21 21 2 22 1 23 21 21 1 23 23 24 21 21 23 24 18 25 9 26 8 27 16 28 9 26 16 28 15 29 18 30 19 31 20 32 18 30 20 32 21 33 11 34 10 35 14 36 11 34 14 36 13 37 21 38 20 39 12 40 21 38 12 40 2 41 8 42 4 43 7 44 8 42 7 44 16 45 3 46 2 47 12 48 3 46 12 48 13 49 3 46 13 49 14 50 3 46 14 50 15 51 3 46 15 51 16 52 3 46 16 52 7 53 3 46 7 53 6 54 0 55 1 56 2 57 0 55 2 57 3 58 4 59 5 60 6 61 4 59 6 61 7 62 10 63 9 64 15 65 10 63 15 65 14 66 1 67 17 68 22 69 1 67 22 69 23 70 17 71 11 72 13 73 17 71 13 73 12 74</p>
                </triangles>
                <triangles count="9" material="default_ai_0.2_sh_0.2_tr_0.0_dc_r_1.0_g_0.2_b_0.2_sc_r_1.0_g_1.0_b_1.0_ec_r_0.0_g_0.0_b_0_tri">
                    <input offset="0" semantic="VERTEX" source="#geometry0-vertex"/>
                    <input offset="1" semantic="NORMAL" source="#geometry0-normal"/>
                    <p>23 0 22 1 19 2 23 0 19 2 18 3 10 75 11 76 5 77 9 78 10 75 5 77 9 78 5 77 4 79 9 78 4 79 8 80 0 81 5 82 11 83 1 84 0 81 11 83 1 84 11 83 17 85</p>
                </triangles>
            </mesh>
        </geometry>
    </library_geometries>
    <library_visual_scenes>
        <visual_scene id="Building_DEBW_5221000QjqB">
            <node>
                <instance_geometry url="#geometry0">
                    <bind_material>
                        <technique_common>
                            <instance_material symbol="default_ai_0.2_sh_0.2_tr_0.0_dc_r_0.8_g_0.8_b_0.8_sc_r_1.0_g_1.0_b_1.0_ec_r_0.0_g_0.0_b_0_tri" target="#default_ai_0.2_sh_0.2_tr_0.0_dc_r_0.8_g_0.8_b_0.8_sc_r_1.0_g_1.0_b_1.0_ec_r_0.0_g_0.0_b_0_mat"/>
                            <instance_material symbol="default_ai_0.2_sh_0.2_tr_0.0_dc_r_1.0_g_0.2_b_0.2_sc_r_1.0_g_1.0_b_1.0_ec_r_0.0_g_0.0_b_0_tri" target="#default_ai_0.2_sh_0.2_tr_0.0_dc_r_1.0_g_0.2_b_0.2_sc_r_1.0_g_1.0_b_1.0_ec_r_0.0_g_0.0_b_0_mat"/>
                        </technique_common>
                    </bind_material>
                </instance_geometry>
            </node>
        </visual_scene>
    </library_visual_scenes>
    <scene>
        <instance_visual_scene url="#Building_DEBW_5221000QjqB"/>
    </scene>
</COLLADA>
