<?xml version="1.0" encoding="UTF-8" standalone="yes"?>
<COLLADA xmlns="http://www.collada.org/2005/11/COLLADASchema" version="1.4.1">
    <asset>
        <contributor>
            <authoring_tool>3D City Database Importer/Exporter, version 5.5.3; Chair of Geoinformatics, Technical University of Munich</authoring_tool>
        </contributor>
        <created>2026-05-06T15:12:07.749</created>
        <modified>2026-05-06T15:12:07.749</modified>
        <unit meter="1.0" name="meters"/>
        <up_axis>Z_UP</up_axis>
    </asset>
    <library_materials>
        <material id="default_ai_0.2_sh_0.2_tr_0.0_dc_r_0.8_g_0.8_b_0.8_sc_r_1.0_g_1.0_b_1.0_ec_r_0.0_g_0.0_b_0_mat">
            <instance_effect url="#default_ai_0.2_sh_0.2_tr_0.0_dc_r_0.8_g_0.8_b_0.8_sc_r_1.0_g_1.0_b_1.0_ec_r_0.0_g_0.0_b_0_eff"/>
        </material>
        <material id="default_ai_0.2_sh_0.2_tr_0.0_dc_r_1.0_g_0.2_b_0.2_sc_r_1.0_g_1.0_b_1.0_ec_r_0.0_g_0.0_b_0_mat">
            <instance_effect url="#default_ai_0.2_sh_0.2_tr_0.0_dc_r_1.0_g_0.2_b_0.2_sc_r_1.0_g_1.0_b_1.0_ec_r_0.0_g_0.0_b_0_eff"/>
        </material>
    </library_materials>
    <library_effects>
        <effect id="default_ai_0.2_sh_0.2_tr_0.0_dc_r_0.8_g_0.8_b_0.8_sc_r_1.0_g_1.0_b_1.0_ec_r_0.0_g_0.0_b_0_eff">
            <profile_COMMON>
                <technique sid="COMMON">
                    <lambert>
                        <emission>
                            <color>0.0 0.0 0.0 1.0</color>
                        </emission>
                        <diffuse>
                            <color>0.8 0.8 0.8 1.0</color>
                        </diffuse>
                        <reflective>
                            <color>1.0 1.0 1.0 1.0</color>
                        </reflective>
                        <reflectivity>
                            <float>0.2</float>
                        </reflectivity>
                        <transparent opaque="A_ONE">
                            <color>1.0 1.0 1.0 1.0</color>
                        </transparent>
                        <transparency>
                            <float>1.0</float>
                        </transparency>
                    </lambert>
                </technique>
                <extra>
                    <technique profile="GOOGLEEARTH">
                        <double_sided>0</double_sided>
                    </technique>
                </extra>
            </profile_COMMON>
        </effect>
        <effect id="default_ai_0.2_sh_0.2_tr_0.0_dc_r_1.0_g_0.2_b_0.2_sc_r_1.0_g_1.0_b_1.0_ec_r_0.0_g_0.0_b_0_eff">
            <profile_COMMON>
                <technique sid="COMMON">
                    <lambert>
                        <emission>
                            <color>0.0 0.0 0.0 1.0</color>
                        </emission>
                        <diffuse>
                            <color>1.0 0.2 0.2 1.0</color>
                        </diffuse>
                        <reflective>
                            <color>1.0 1.0 1.0 1.0</color>
                        </reflective>
                        <reflectivity>
                            <float>0.2</float>
                        </reflectivity>
                        <transparent opaque="A_ONE">
                            <color>1.0 1.0 1.0 1.0</color>
                        </transparent>
                        <transparency>
                            <float>1.0</float>
                        </transparency>
                    </lambert>
                </technique>
                <extra>
                    <technique profile="GOOGLEEARTH">
                        <double_sided>0</double_sided>
                    </technique>
                </extra>
            </profile_COMMON>
        </effect>
    </library_effects>
    <library_geometries>
        <geometry id="geometry0">
            <mesh>
                <source id="geometry0-position">
                    <float_array id="geometry0-position-array" count="114">-0.19 -3.11 13.299 0.0 0.0 13.299 0.0 0.0 0.0 -0.19 -3.11 0.0 -2.0 -11.4 13.299 -2.36 -11.38 13.299 -2.36 -11.38 0.0 -2.0 -11.4 0.0 11.43 -16.36 13.299 4.64 -15.89 13.299 4.64 -15.89 0.0 11.43 -16.36 0.0 8.36 -10.39 13.299 11.26 -10.57 13.299 11.26 -10.57 0.0 8.36 -10.39 0.0 -2.06 -6.28 13.299 -0.43 -6.39 13.299 -0.43 -6.39 0.0 -2.06 -6.28 0.0 4.73 -13.75 13.299 11.55 -14.15 13.299 15.57 -14.38 13.299 16.03 -7.5 13.299 11.48 -7.2 13.299 8.67 -4.96 13.299 8.98 -0.59 13.299 0.7 -11.59 13.299 0.6 -13.51 13.299 16.03 -7.5 0.0 11.48 -7.2 0.0 0.7 -11.59 0.0 0.6 -13.51 0.0 11.55 -14.15 0.0 15.57 -14.38 0.0 8.67 -4.96 0.0 4.73 -13.75 0.0 8.98 -0.59 0.0</float_array>
                    <technique_common>
                        <accessor count="38" source="#geometry0-position-array" stride="3">
                            <param name="X" type="float"/>
                            <param name="Y" type="float"/>
                            <param name="Z" type="float"/>
                        </accessor>
                    </technique_common>
                </source>
                <source id="geometry0-normal">
                    <float_array id="geometry0-normal-array" count="342">0.0 0.0 -1.0 0.0 0.0 -1.0 0.0 0.0 -1.0 0.0 0.0 -1.0 0.0 0.0 -1.0 0.0 0.0 -1.0 0.0 0.0 -1.0 0.0 0.0 -1.0 0.0 0.0 -1.0 0.0 0.0 -1.0 0.0 0.0 -1.0 0.0 0.0 -1.0 0.0 0.0 -1.0 0.0 0.0 -1.0 0.0 0.0 -1.0 0.0 0.0 -1.0 0.0 0.0 -1.0 0.0 0.0 -1.0 0.0 0.0 -1.0 0.9983744 -0.0569975 0.0 0.9983744 -0.0569975 0.0 0.9983744 -0.0569975 0.0 0.9983744 -0.0569975 0.0 -0.0580135 -0.9983158 0.0 -0.0580135 -0.9983158 0.0 -0.0580135 -0.9983158 0.0 -0.0580135 -0.9983158 0.0 -0.9986464 0.0520128 0.0 -0.9986464 0.0520128 0.0 -0.9986464 0.0520128 0.0 -0.9986464 0.0520128 0.0 0.9985291 -0.0542187 0.0 0.9985291 -0.0542187 0.0 0.9985291 -0.0542187 0.0 0.9985291 -0.0542187 0.0 -0.9973337 0.0729756 0.0 -0.9973337 0.0729756 0.0 -0.9973337 0.0729756 0.0 -0.9973337 0.0729756 0.0 0.9977723 -0.0667117 0.0 0.9977723 -0.0667117 0.0 0.9977723 -0.0667117 0.0 0.9977723 -0.0667117 0.0 0.0619495 0.9980792 0.0 0.0619495 0.9980792 0.0 0.0619495 0.9980792 0.0 0.0619495 0.9980792 0.0 0.0 0.0 1.0 0.0 0.0 1.0 0.0 0.0 1.0 0.0 0.0 1.0 0.0 0.0 1.0 0.0 0.0 1.0 0.0 0.0 1.0 0.0 0.0 1.0 0.0 0.0 1.0 0.0 0.0 1.0 0.0 0.0 1.0 0.0 0.0 1.0 0.0 0.0 1.0 0.0 0.0 1.0 0.0 0.0 1.0 0.0 0.0 1.0 0.0 0.0 1.0 0.0 0.0 1.0 0.0 0.0 1.0 -0.9978759 0.065143 0.0 -0.9978759 0.065143 0.0 -0.9978759 0.065143 0.0 -0.9978759 0.065143 0.0 -0.998139 0.0609796 0.0 -0.998139 0.0609796 0.0 -0.998139 0.0609796 0.0 -0.998139 0.0609796 0.0 -0.070197 -0.9975331 0.0 -0.070197 -0.9975331 0.0 -0.070197 -0.9975331 0.0 -0.070197 -0.9975331 0.0 0.0655602 0.9978486 0.0 0.0655602 0.9978486 0.0 0.0655602 0.9978486 0.0 0.0655602 0.9978486 0.0 -0.9991168 0.042019 0.0 -0.9991168 0.042019 0.0 -0.9991168 0.042019 0.0 -0.9991168 0.042019 0.0 0.9974934 -0.0707603 0.0 0.9974934 -0.0707603 0.0 0.9974934 -0.0707603 0.0 0.9974934 -0.0707603 0.0 -0.9982744 0.058722 0.0 -0.9982744 0.058722 0.0 -0.9982744 0.058722 0.0 -0.9982744 0.058722 0.0 -0.0554687 -0.9984604 0.0 -0.0554687 -0.9984604 0.0 -0.0554687 -0.9984604 0.0 -0.0554687 -0.9984604 0.0 0.0657912 0.9978334 0.0 0.0657912 0.9978334 0.0 0.0657912 0.9978334 0.0 0.0657912 0.9978334 0.0 0.0673313 0.9977307 0.0 0.0673313 0.9977307 0.0 0.0673313 0.9977307 0.0 0.0673313 0.9977307 0.0 -0.0690542 -0.9976129 0.0 -0.0690542 -0.9976129 0.0 -0.0690542 -0.9976129 0.0 -0.0690542 -0.9976129 0.0 -0.0571206 -0.9983672 0.0 -0.0571206 -0.9983672 0.0 -0.0571206 -0.9983672 0.0 -0.0571206 -0.9983672 0.0</float_array>
                    <technique_common>
                        <accessor count="114" source="#geometry0-normal-array" stride="3">
                            <param name="X" type="float"/>
                            <param name="Y" type="float"/>
                            <param name="Z" type="float"/>
                        </accessor>
                    </technique_common>
                </source>
                <vertices id="geometry0-vertex">
                    <input semantic="POSITION" source="#geometry0-position"/>
                </vertices>
                <triangles count="55" material="default_ai_0.2_sh_0.2_tr_0.0_dc_r_0.8_g_0.8_b_0.8_sc_r_1.0_g_1.0_b_1.0_ec_r_0.0_g_0.0_b_0_tri">
                    <input offset="0" semantic="VERTEX" source="#geometry0-vertex"/>
                    <input offset="1" semantic="NORMAL" source="#geometry0-normal"/>
                    <p>11 0 10 1 36 2 33 3 11 0 36 2 34 4 33 3 36 2 30 5 29 6 34 4 14 7 30 5 34 4 14 7 34 4 36 2 14 7 36 2 32 8 14 7 32 8 31 9 14 7 31 9 7 10 14 7 7 10 6 11 15 12 14 7 6 11 15 12 6 11 19 13 15 12 19 13 18 14 15 12 18 14 3 15 15 12 3 15 2 16 35 17 15 12 2 16 35 17 2 16 37 18 25 19 12 20 15 21 25 19 15 21 35 22 20 23 28 24 32 25 20 23 32 25 36 26 28 27 27 28 31 29 28 27 31 29 32 30 21 31 8 32 11 33 21 31 11 33 33 34 17 35 0 36 3 37 17 35 3 37 18 38 23 39 22 40 34 41 23 39 34 41 29 42 12 43 13 44 14 45 12 43 14 45 15 46 13 66 24 67 30 68 13 66 30 68 14 69 0 70 1 71 2 72 0 70 2 72 3 73 27 74 4 75 7 76 27 74 7 76 31 77 1 78 26 79 37 80 1 78 37 80 2 81 9 82 20 83 36 84 9 82 36 84 10 85 26 86 25 87 35 88 26 86 35 88 37 89 5 90 16 91 19 92 5 90 19 92 6 93 4 94 5 95 6 96 4 94 6 96 7 97 24 98 23 99 29 100 24 98 29 100 30 101 16 102 17 103 18 104 16 102 18 104 19 105 8 106 9 107 10 108 8 106 10 108 11 109 22 110 21 111 33 112 22 110 33 112 34 113</p>
                </triangles>
                <triangles count="17" material="default_ai_0.2_sh_0.2_tr_0.0_dc_r_1.0_g_0.2_b_0.2_sc_r_1.0_g_1.0_b_1.0_ec_r_0.0_g_0.0_b_0_tri">
                    <input offset="0" semantic="VERTEX" source="#geometry0-vertex"/>
                    <input offset="1" semantic="NORMAL" source="#geometry0-normal"/>
                    <p>9 47 8 48 20 49 8 48 21 50 20 49 21 50 22 51 20 49 23 52 24 53 22 51 24 53 13 54 22 51 22 51 13 54 20 49 20 49 13 54 28 55 28 55 13 54 27 56 27 56 13 54 4 57 4 57 13 54 5 58 13 54 12 59 5 58 5 58 12 59 16 60 16 60 12 59 17 61 17 61 12 59 0 62 0 62 12 59 1 63 12 59 25 64 1 63 1 63 25 64 26 65</p>
                </triangles>
            </mesh>
        </geometry>
    </library_geometries>
    <library_visual_scenes>
        <visual_scene id="Building_DEBW_5221000Qtxf">
            <node>
                <instance_geometry url="#geometry0">
                    <bind_material>
                        <technique_common>
                            <instance_material symbol="default_ai_0.2_sh_0.2_tr_0.0_dc_r_0.8_g_0.8_b_0.8_sc_r_1.0_g_1.0_b_1.0_ec_r_0.0_g_0.0_b_0_tri" target="#default_ai_0.2_sh_0.2_tr_0.0_dc_r_0.8_g_0.8_b_0.8_sc_r_1.0_g_1.0_b_1.0_ec_r_0.0_g_0.0_b_0_mat"/>
                            <instance_material symbol="default_ai_0.2_sh_0.2_tr_0.0_dc_r_1.0_g_0.2_b_0.2_sc_r_1.0_g_1.0_b_1.0_ec_r_0.0_g_0.0_b_0_tri" target="#default_ai_0.2_sh_0.2_tr_0.0_dc_r_1.0_g_0.2_b_0.2_sc_r_1.0_g_1.0_b_1.0_ec_r_0.0_g_0.0_b_0_mat"/>
                        </technique_common>
                    </bind_material>
                </instance_geometry>
            </node>
        </visual_scene>
    </library_visual_scenes>
    <scene>
        <instance_visual_scene url="#Building_DEBW_5221000Qtxf"/>
    </scene>
</COLLADA>
