<?xml version="1.0" encoding="UTF-8" standalone="yes"?>
<COLLADA xmlns="http://www.collada.org/2005/11/COLLADASchema" version="1.4.1">
    <asset>
        <contributor>
            <authoring_tool>3D City Database Importer/Exporter, version 5.5.3; Chair of Geoinformatics, Technical University of Munich</authoring_tool>
        </contributor>
        <created>2026-05-06T15:12:19.481</created>
        <modified>2026-05-06T15:12:19.481</modified>
        <unit meter="1.0" name="meters"/>
        <up_axis>Z_UP</up_axis>
    </asset>
    <library_materials>
        <material id="default_ai_0.2_sh_0.2_tr_0.0_dc_r_1.0_g_0.2_b_0.2_sc_r_1.0_g_1.0_b_1.0_ec_r_0.0_g_0.0_b_0_mat">
            <instance_effect url="#default_ai_0.2_sh_0.2_tr_0.0_dc_r_1.0_g_0.2_b_0.2_sc_r_1.0_g_1.0_b_1.0_ec_r_0.0_g_0.0_b_0_eff"/>
        </material>
        <material id="default_ai_0.2_sh_0.2_tr_0.0_dc_r_0.8_g_0.8_b_0.8_sc_r_1.0_g_1.0_b_1.0_ec_r_0.0_g_0.0_b_0_mat">
            <instance_effect url="#default_ai_0.2_sh_0.2_tr_0.0_dc_r_0.8_g_0.8_b_0.8_sc_r_1.0_g_1.0_b_1.0_ec_r_0.0_g_0.0_b_0_eff"/>
        </material>
    </library_materials>
    <library_effects>
        <effect id="default_ai_0.2_sh_0.2_tr_0.0_dc_r_1.0_g_0.2_b_0.2_sc_r_1.0_g_1.0_b_1.0_ec_r_0.0_g_0.0_b_0_eff">
            <profile_COMMON>
                <technique sid="COMMON">
                    <lambert>
                        <emission>
                            <color>0.0 0.0 0.0 1.0</color>
                        </emission>
                        <diffuse>
                            <color>1.0 0.2 0.2 1.0</color>
                        </diffuse>
                        <reflective>
                            <color>1.0 1.0 1.0 1.0</color>
                        </reflective>
                        <reflectivity>
                            <float>0.2</float>
                        </reflectivity>
                        <transparent opaque="A_ONE">
                            <color>1.0 1.0 1.0 1.0</color>
                        </transparent>
                        <transparency>
                            <float>1.0</float>
                        </transparency>
                    </lambert>
                </technique>
                <extra>
                    <technique profile="GOOGLEEARTH">
                        <double_sided>0</double_sided>
                    </technique>
                </extra>
            </profile_COMMON>
        </effect>
        <effect id="default_ai_0.2_sh_0.2_tr_0.0_dc_r_0.8_g_0.8_b_0.8_sc_r_1.0_g_1.0_b_1.0_ec_r_0.0_g_0.0_b_0_eff">
            <profile_COMMON>
                <technique sid="COMMON">
                    <lambert>
                        <emission>
                            <color>0.0 0.0 0.0 1.0</color>
                        </emission>
                        <diffuse>
                            <color>0.8 0.8 0.8 1.0</color>
                        </diffuse>
                        <reflective>
                            <color>1.0 1.0 1.0 1.0</color>
                        </reflective>
                        <reflectivity>
                            <float>0.2</float>
                        </reflectivity>
                        <transparent opaque="A_ONE">
                            <color>1.0 1.0 1.0 1.0</color>
                        </transparent>
                        <transparency>
                            <float>1.0</float>
                        </transparency>
                    </lambert>
                </technique>
                <extra>
                    <technique profile="GOOGLEEARTH">
                        <double_sided>0</double_sided>
                    </technique>
                </extra>
            </profile_COMMON>
        </effect>
    </library_effects>
    <library_geometries>
        <geometry id="geometry0">
            <mesh>
                <source id="geometry0-position">
                    <float_array id="geometry0-position-array" count="174">0.35 -0.93 10.296 0.0 0.0 9.65 0.0 0.0 0.0 0.35 -0.93 0.0 11.66 -7.26 10.405 23.46 -2.87 10.34 22.04 0.87 12.796 22.99 1.22 12.789 22.588 2.296 13.494 -2.589 -7.315 13.494 -1.5 -10.23 11.583 -0.56 -9.88 11.578 0.84 -13.6 9.138 1.08 -13.51 9.137 12.42 -9.31 9.063 -3.37 -2.32 10.278 -3.37 -2.32 0.0 11.1 5.4 8.943 10.75 6.34 8.291 10.75 6.34 0.0 11.1 5.4 0.0 4.15 0.47 10.327 7.82 1.84 10.346 7.82 1.84 0.0 4.15 0.47 0.0 20.63 4.69 11.585 21.57 5.04 11.59 21.57 5.04 0.0 20.63 4.69 0.0 11.55 6.64 8.294 13.42 7.33 8.308 13.42 7.33 0.0 11.55 6.64 0.0 3.79 1.42 9.666 3.79 1.42 0.0 -1.5 -10.23 0.0 -0.56 -9.88 0.0 7.06 3.89 8.923 7.06 3.89 0.0 11.66 -7.26 0.0 23.46 -2.87 0.0 19.21 8.41 8.995 19.21 8.41 0.0 22.09 3.63 12.568 22.99 1.22 0.0 22.09 3.63 0.0 1.08 -13.51 0.0 12.42 -9.31 0.0 22.04 0.87 0.0 -2.92 -6.43 12.88 0.84 -13.6 0.0 -1.97 -6.08 12.887 -1.97 -6.08 0.0 15.2 6.93 8.964 14.85 7.86 8.318 -2.92 -6.43 0.0 15.2 6.93 0.0 14.85 7.86 0.0</float_array>
                    <technique_common>
                        <accessor count="58" source="#geometry0-position-array" stride="3">
                            <param name="X" type="float"/>
                            <param name="Y" type="float"/>
                            <param name="Z" type="float"/>
                        </accessor>
                    </technique_common>
                </source>
                <source id="geometry0-normal">
                    <float_array id="geometry0-normal-array" count="534">0.1865472 -0.4888072 0.8522134 0.186492 -0.4888077 0.8522252 0.1865957 -0.488808 0.8522023 0.1863588 -0.4887852 0.8522673 0.1865174 -0.4888317 0.8522059 0.1866069 -0.4888653 0.852167 0.1866041 -0.488809 0.8521999 0.186582 -0.4889331 0.8521336 0.1866394 -0.4888325 0.8521787 0.1866979 -0.4887312 0.852224 0.1868057 -0.4886846 0.8522271 -0.9376383 -0.3476123 0.0 -0.9376383 -0.3476123 0.0 -0.9376383 -0.3476123 0.0 -0.9376383 -0.3476124 0.0 0.9368014 0.3498614 2.038E-4 0.9368014 0.3498614 2.038E-4 0.9368014 0.3498614 2.038E-4 0.0 0.0 -1.0 0.0 0.0 -1.0 0.0 0.0 -1.0 0.0 0.0 -1.0 0.0 0.0 -1.0 0.0 0.0 -1.0 0.0 0.0 -1.0 0.0 0.0 -1.0 0.0 0.0 -1.0 0.0 0.0 -1.0 0.0 0.0 -1.0 0.0 0.0 -1.0 0.0 0.0 -1.0 0.0 0.0 -1.0 0.0 0.0 -1.0 0.0 0.0 -1.0 0.0 0.0 -1.0 0.0 0.0 -1.0 0.0 0.0 -1.0 0.0 0.0 -1.0 0.0 0.0 -1.0 0.0 0.0 -1.0 0.0 0.0 -1.0 0.0 0.0 -1.0 0.0 0.0 -1.0 0.0 0.0 -1.0 0.0 0.0 -1.0 0.0 0.0 -1.0 0.9376383 0.3476123 0.0 0.9376383 0.3476124 0.0 0.9376383 0.3476123 0.0 0.9376383 0.3476123 0.0 -0.3501068 0.9367098 0.0 -0.3501068 0.9367098 0.0 -0.3501068 0.9367098 0.0 -0.3501068 0.9367098 0.0 -0.1945679 0.509147 0.8383988 -0.1944554 0.5094194 0.8382595 -0.195662 0.5129016 0.8358518 -0.1943402 0.509774 0.8380706 -0.1943248 0.5095267 0.8382246 -0.1959957 0.5136127 0.8353368 -0.1975885 0.5179952 0.8322498 -0.194289 0.5090578 0.8385177 -0.1944691 0.5094535 0.8382356 -0.1944018 0.5093348 0.8383233 -0.194388 0.5091493 0.8384392 -0.1944426 0.5095253 0.8381981 -0.1944404 0.5093607 0.8382986 -0.1944314 0.5092812 0.838349 -0.1944743 0.5095404 0.8381816 -0.1941663 0.5090257 0.8385656 -0.19393 0.5083907 0.8390055 -0.194493 0.5094638 0.8382238 -0.1944601 0.5093983 0.8382712 -0.194141 0.5093622 0.8383671 -0.1938007 0.5092607 0.8385075 0.9348832 0.3549553 0.0 0.9348832 0.3549553 0.0 0.9348832 0.3549553 0.0 0.9348834 0.3549553 0.0 -0.3500193 0.9367425 0.0 -0.3500193 0.9367425 0.0 -0.3500193 0.9367425 0.0 -0.3500194 0.9367425 0.0 -0.3462474 0.9381433 0.0 -0.3462474 0.9381432 0.0 -0.3462474 0.9381433 0.0 -0.3462474 0.9381432 0.0 0.3486851 -0.9372399 0.0 0.3486851 -0.9372399 0.0 0.3486851 -0.9372399 0.0 0.3486851 -0.9372399 0.0 0.93511 0.3543576 0.0 0.93511 0.3543576 0.0 0.93511 0.3543576 0.0 0.93511 0.3543576 0.0 -0.3457053 0.9383432 0.0 -0.3457053 0.9383432 0.0 -0.3457053 0.9383432 0.0 -0.3457053 0.9383432 0.0 -0.9371459 -0.3489377 0.0 -0.9371459 -0.3489377 0.0 -0.9371459 -0.3489377 0.0 -0.9371459 -0.3489377 0.0 -0.3489371 0.9371461 0.0 -0.3489371 0.9371461 0.0 -0.3489371 0.9371461 0.0 -0.3489371 0.9371461 0.0 -0.9367337 -0.3500426 0.0 -0.9367337 -0.3500426 0.0 -0.9367337 -0.3500426 0.0 -0.9367337 -0.3500426 0.0 -0.3511231 0.9363293 0.0 -0.3511231 0.9363293 0.0 -0.3511231 0.9363293 0.0 -0.3511231 0.9363293 0.0 -0.9367006 -0.3501313 2.959E-4 -0.9367006 -0.3501313 2.959E-4 -0.9367006 -0.3501313 2.959E-4 0.9342488 0.3566219 0.0 0.9342488 0.3566219 0.0 0.9342488 0.3566219 0.0 0.9342488 0.3566219 0.0 -0.3461704 0.9381717 0.0 -0.3461703 0.9381717 0.0 -0.3461704 0.9381717 0.0 -0.3461704 0.9381717 0.0 0.9359152 0.3522254 0.0 0.9359152 0.3522255 0.0 0.9359152 0.3522254 0.0 0.9359152 0.3522254 0.0 -0.347528 0.9376696 0.0 -0.347528 0.9376696 0.0 -0.347528 0.9376696 0.0 -0.347528 0.9376696 0.0 -0.3497243 0.9368526 0.0 -0.3497243 0.9368526 0.0 -0.3497243 0.9368526 0.0 -0.3497243 0.9368526 0.0 -0.3508527 0.9364307 0.0 -0.3508527 0.9364307 0.0 -0.3508527 0.9364307 0.0 -0.3508526 0.9364306 0.0 0.3511239 -0.936329 0.0 0.3511239 -0.936329 0.0 0.3511239 -0.936329 0.0 0.3511239 -0.936329 0.0 0.9368076 0.349845 0.0 0.9368076 0.349845 0.0 0.9368076 0.349845 0.0 0.9368076 0.349845 0.0 0.9382293 0.346014 0.0 0.9382294 0.346014 0.0 0.9382293 0.346014 0.0 0.9382294 0.346014 0.0 0.3489368 -0.9371462 0.0 0.3489368 -0.9371462 0.0 0.3489368 -0.9371462 0.0 0.3489369 -0.9371462 0.0 -0.935915 -0.352226 0.0 -0.9359149 -0.352226 0.0 -0.935915 -0.352226 0.0 -0.935915 -0.352226 0.0 0.3457058 -0.938343 0.0 0.3457057 -0.938343 0.0 0.3457058 -0.938343 0.0 0.3457057 -0.938343 0.0 -0.9359149 -0.352226 0.0 -0.9359149 -0.352226 0.0 -0.9359149 -0.352226 0.0 -0.9359149 -0.352226 0.0 0.3473143 -0.9377488 0.0 0.3473143 -0.9377488 0.0 0.3473143 -0.9377488 0.0 0.3473144 -0.9377488 0.0 -0.9371461 -0.3489373 0.0 -0.9371461 -0.3489374 0.0 -0.9371461 -0.3489373 0.0 -0.9371461 -0.3489373 0.0</float_array>
                    <technique_common>
                        <accessor count="178" source="#geometry0-normal-array" stride="3">
                            <param name="X" type="float"/>
                            <param name="Y" type="float"/>
                            <param name="Z" type="float"/>
                        </accessor>
                    </technique_common>
                </source>
                <vertices id="geometry0-vertex">
                    <input semantic="POSITION" source="#geometry0-position"/>
                </vertices>
                <triangles count="84" material="default_ai_0.2_sh_0.2_tr_0.0_dc_r_0.8_g_0.8_b_0.8_sc_r_1.0_g_1.0_b_1.0_ec_r_0.0_g_0.0_b_0_tri">
                    <input offset="0" semantic="VERTEX" source="#geometry0-vertex"/>
                    <input offset="1" semantic="NORMAL" source="#geometry0-normal"/>
                    <p>22 11 37 12 38 13 22 11 38 13 23 14 7 15 43 16 8 17 31 18 57 19 56 20 32 21 31 18 56 20 19 22 32 21 56 20 20 23 19 22 56 20 20 23 56 20 42 24 20 23 42 24 28 25 38 26 20 23 28 25 23 27 38 26 28 25 24 28 23 27 28 25 2 29 34 30 24 28 3 31 2 29 24 28 3 31 24 28 28 25 16 32 3 31 28 25 52 33 16 32 28 25 52 33 28 25 27 34 52 33 27 34 45 35 52 33 45 35 44 36 52 33 44 36 48 37 52 33 48 37 40 38 52 33 40 38 39 39 52 33 39 39 47 40 52 33 47 40 46 41 52 33 46 41 50 42 52 33 50 42 36 43 52 33 36 43 35 44 52 33 35 44 55 45 4 46 14 47 47 48 4 46 47 48 39 49 37 50 17 51 20 52 37 50 20 52 38 53 6 75 5 76 40 77 6 75 40 77 48 78 15 79 0 80 3 81 15 79 3 81 16 82 53 83 41 84 42 85 53 83 42 85 56 86 5 87 4 88 39 89 5 87 39 89 40 90 33 91 21 92 24 93 33 91 24 93 34 94 49 95 51 96 52 97 49 95 52 97 55 98 17 99 18 100 19 101 17 99 19 101 20 102 25 103 26 104 27 105 25 103 27 105 28 106 10 107 49 108 55 109 10 107 55 109 35 110 18 111 29 112 32 113 18 111 32 113 19 114 49 115 10 116 9 117 41 118 25 119 28 120 41 118 28 120 42 121 29 122 30 123 31 124 29 122 31 124 32 125 54 126 53 127 56 128 54 126 56 128 57 129 30 130 54 131 57 132 30 130 57 132 31 133 21 134 22 135 23 136 21 134 23 136 24 137 1 138 33 139 34 140 1 138 34 140 2 141 13 142 12 143 50 144 13 142 50 144 46 145 43 146 7 147 44 148 43 146 44 148 45 149 26 150 43 151 45 152 26 150 45 152 27 153 11 154 10 155 35 156 11 154 35 156 36 157 12 158 11 159 36 160 12 158 36 160 50 161 7 162 6 163 48 164 7 162 48 164 44 165 0 166 1 167 2 168 0 166 2 168 3 169 14 170 13 171 46 172 14 170 46 172 47 173 51 174 15 175 16 176 51 174 16 176 52 177</p>
                </triangles>
                <triangles count="28" material="default_ai_0.2_sh_0.2_tr_0.0_dc_r_1.0_g_0.2_b_0.2_sc_r_1.0_g_1.0_b_1.0_ec_r_0.0_g_0.0_b_0_tri">
                    <input offset="0" semantic="VERTEX" source="#geometry0-vertex"/>
                    <input offset="1" semantic="NORMAL" source="#geometry0-normal"/>
                    <p>5 0 6 1 4 2 7 3 8 4 6 1 6 1 8 4 4 2 8 4 9 5 4 2 4 2 9 5 14 6 10 7 11 8 9 5 9 5 11 8 14 6 14 6 11 8 13 9 13 9 11 8 12 10 54 54 30 55 53 56 30 55 29 57 53 56 29 57 18 58 53 56 18 58 17 59 53 56 53 56 17 59 41 60 41 60 17 59 25 61 17 59 37 62 25 61 37 62 22 63 25 61 22 63 21 64 25 61 33 65 1 66 21 64 1 66 0 67 21 64 21 64 0 67 25 61 0 67 15 68 25 61 15 68 51 69 25 61 25 61 51 69 26 70 26 70 51 69 43 71 43 71 51 69 8 72 8 72 51 69 9 73 9 73 51 69 49 74</p>
                </triangles>
            </mesh>
        </geometry>
    </library_geometries>
    <library_visual_scenes>
        <visual_scene id="Building_DEBW_522Ou00003M">
            <node>
                <instance_geometry url="#geometry0">
                    <bind_material>
                        <technique_common>
                            <instance_material symbol="default_ai_0.2_sh_0.2_tr_0.0_dc_r_0.8_g_0.8_b_0.8_sc_r_1.0_g_1.0_b_1.0_ec_r_0.0_g_0.0_b_0_tri" target="#default_ai_0.2_sh_0.2_tr_0.0_dc_r_0.8_g_0.8_b_0.8_sc_r_1.0_g_1.0_b_1.0_ec_r_0.0_g_0.0_b_0_mat"/>
                            <instance_material symbol="default_ai_0.2_sh_0.2_tr_0.0_dc_r_1.0_g_0.2_b_0.2_sc_r_1.0_g_1.0_b_1.0_ec_r_0.0_g_0.0_b_0_tri" target="#default_ai_0.2_sh_0.2_tr_0.0_dc_r_1.0_g_0.2_b_0.2_sc_r_1.0_g_1.0_b_1.0_ec_r_0.0_g_0.0_b_0_mat"/>
                        </technique_common>
                    </bind_material>
                </instance_geometry>
            </node>
        </visual_scene>
    </library_visual_scenes>
    <scene>
        <instance_visual_scene url="#Building_DEBW_522Ou00003M"/>
    </scene>
</COLLADA>
