<?xml version="1.0" encoding="UTF-8" standalone="yes"?>
<COLLADA xmlns="http://www.collada.org/2005/11/COLLADASchema" version="1.4.1">
    <asset>
        <contributor>
            <authoring_tool>3D City Database Importer/Exporter, version 5.5.3; Chair of Geoinformatics, Technical University of Munich</authoring_tool>
        </contributor>
        <created>2026-05-06T15:12:09.590</created>
        <modified>2026-05-06T15:12:09.590</modified>
        <unit meter="1.0" name="meters"/>
        <up_axis>Z_UP</up_axis>
    </asset>
    <library_materials>
        <material id="default_ai_0.2_sh_0.2_tr_0.0_dc_r_0.8_g_0.8_b_0.8_sc_r_1.0_g_1.0_b_1.0_ec_r_0.0_g_0.0_b_0_mat">
            <instance_effect url="#default_ai_0.2_sh_0.2_tr_0.0_dc_r_0.8_g_0.8_b_0.8_sc_r_1.0_g_1.0_b_1.0_ec_r_0.0_g_0.0_b_0_eff"/>
        </material>
        <material id="default_ai_0.2_sh_0.2_tr_0.0_dc_r_1.0_g_0.2_b_0.2_sc_r_1.0_g_1.0_b_1.0_ec_r_0.0_g_0.0_b_0_mat">
            <instance_effect url="#default_ai_0.2_sh_0.2_tr_0.0_dc_r_1.0_g_0.2_b_0.2_sc_r_1.0_g_1.0_b_1.0_ec_r_0.0_g_0.0_b_0_eff"/>
        </material>
    </library_materials>
    <library_effects>
        <effect id="default_ai_0.2_sh_0.2_tr_0.0_dc_r_0.8_g_0.8_b_0.8_sc_r_1.0_g_1.0_b_1.0_ec_r_0.0_g_0.0_b_0_eff">
            <profile_COMMON>
                <technique sid="COMMON">
                    <lambert>
                        <emission>
                            <color>0.0 0.0 0.0 1.0</color>
                        </emission>
                        <diffuse>
                            <color>0.8 0.8 0.8 1.0</color>
                        </diffuse>
                        <reflective>
                            <color>1.0 1.0 1.0 1.0</color>
                        </reflective>
                        <reflectivity>
                            <float>0.2</float>
                        </reflectivity>
                        <transparent opaque="A_ONE">
                            <color>1.0 1.0 1.0 1.0</color>
                        </transparent>
                        <transparency>
                            <float>1.0</float>
                        </transparency>
                    </lambert>
                </technique>
                <extra>
                    <technique profile="GOOGLEEARTH">
                        <double_sided>0</double_sided>
                    </technique>
                </extra>
            </profile_COMMON>
        </effect>
        <effect id="default_ai_0.2_sh_0.2_tr_0.0_dc_r_1.0_g_0.2_b_0.2_sc_r_1.0_g_1.0_b_1.0_ec_r_0.0_g_0.0_b_0_eff">
            <profile_COMMON>
                <technique sid="COMMON">
                    <lambert>
                        <emission>
                            <color>0.0 0.0 0.0 1.0</color>
                        </emission>
                        <diffuse>
                            <color>1.0 0.2 0.2 1.0</color>
                        </diffuse>
                        <reflective>
                            <color>1.0 1.0 1.0 1.0</color>
                        </reflective>
                        <reflectivity>
                            <float>0.2</float>
                        </reflectivity>
                        <transparent opaque="A_ONE">
                            <color>1.0 1.0 1.0 1.0</color>
                        </transparent>
                        <transparency>
                            <float>1.0</float>
                        </transparency>
                    </lambert>
                </technique>
                <extra>
                    <technique profile="GOOGLEEARTH">
                        <double_sided>0</double_sided>
                    </technique>
                </extra>
            </profile_COMMON>
        </effect>
    </library_effects>
    <library_geometries>
        <geometry id="geometry0">
            <mesh>
                <source id="geometry0-position">
                    <float_array id="geometry0-position-array" count="60">0.09 0.031 7.682 0.0 0.0 7.682 0.0 0.0 0.0 0.09 0.031 0.0 -7.0 -2.399 7.682 -7.0 -2.399 0.0 -6.643 1.431 11.512 -10.17 3.881 7.682 -7.76 -2.659 7.682 0.81 0.281 7.682 0.81 0.281 0.0 -3.22 6.4 7.682 -3.22 6.4 0.0 -10.17 3.881 0.0 -2.727 2.809 11.552 -1.59 6.991 7.682 -0.75 4.621 7.682 -0.75 4.621 0.0 -1.59 6.991 0.0 -7.76 -2.659 0.0</float_array>
                    <technique_common>
                        <accessor count="20" source="#geometry0-position-array" stride="3">
                            <param name="X" type="float"/>
                            <param name="Y" type="float"/>
                            <param name="Z" type="float"/>
                        </accessor>
                    </technique_common>
                </source>
                <source id="geometry0-normal">
                    <float_array id="geometry0-normal-array" count="234">0.3256669 -0.9454846 0.0 0.3256669 -0.9454846 0.0 0.3256669 -0.9454846 0.0 0.3256669 -0.9454846 0.0 0.7946316 0.2816416 0.5378091 0.7946316 0.2816416 0.5378091 0.7946316 0.2816416 0.5378091 0.3242034 -0.9459874 0.0 0.3242034 -0.9459874 0.0 0.3242034 -0.9459874 0.0 0.3242034 -0.9459874 0.0 -0.3407545 0.9401523 0.0 -0.3407545 0.9401523 0.0 -0.3407545 0.9401523 0.0 -0.3407545 0.9401523 0.0 0.0 0.0 -1.0 0.0 0.0 -1.0 0.0 0.0 -1.0 0.0 0.0 -1.0 0.0 0.0 -1.0 0.0 0.0 -1.0 0.0 0.0 -1.0 0.0 0.0 -1.0 0.0 0.0 -1.0 0.2417699 -0.6962973 0.6758087 0.2417699 -0.6962973 0.6758087 0.2417699 -0.6962973 0.6758087 -0.7892779 -0.2908501 0.5407834 -0.7892779 -0.2908501 0.5407834 -0.7892779 -0.2908501 0.5407834 -0.2508793 0.6933398 0.6755291 -0.2508793 0.6933398 0.6755291 -0.2508793 0.6933398 0.6755291 -0.3408631 0.9401129 0.0 -0.3408631 0.9401129 0.0 -0.3408631 0.9401129 0.0 -0.3408631 0.9401129 0.0 0.9410532 0.3382588 0.0 0.9410532 0.3382588 0.0 0.9410532 0.3382588 0.0 0.9410532 0.3382588 0.0 -0.2513722 0.6935438 0.6751363 -0.2513722 0.6935438 0.6751363 -0.2513722 0.6935438 0.6751363 0.2386994 -0.6977376 0.6754146 0.2386994 -0.6977376 0.6754146 0.2386994 -0.6977376 0.6754146 -0.9383186 -0.3457718 0.0 -0.9383186 -0.3457718 0.0 -0.9383186 -0.3457718 0.0 -0.9383186 -0.3457718 0.0 0.3236876 -0.946164 0.0 0.3236876 -0.946164 0.0 0.3236876 -0.946164 0.0 0.3236876 -0.946164 0.0 0.7929395 0.2850198 0.5385264 0.7929395 0.2850198 0.5385264 0.7929395 0.2850198 0.5385264 0.2391762 -0.6978878 0.6750906 0.2391762 -0.6978878 0.6750906 0.2391762 -0.6978878 0.6750906 -0.2514712 0.6935658 0.6750767 -0.2514712 0.6935658 0.6750767 -0.2514712 0.6935658 0.6750767 0.942549 0.334068 0.0 0.942549 0.334068 0.0 0.942549 0.334068 0.0 0.942549 0.334068 0.0 0.2386155 -0.697705 0.6754779 0.2386155 -0.697705 0.6754779 0.2386155 -0.697705 0.6754779 0.3280117 -0.9446737 0.0 0.3280117 -0.9446737 0.0 0.3280117 -0.9446737 0.0 0.3280117 -0.9446737 0.0 0.2401751 -0.6972861 0.6753577 0.2401751 -0.6972861 0.6753577 0.2401751 -0.6972861 0.6753577</float_array>
                    <technique_common>
                        <accessor count="78" source="#geometry0-normal-array" stride="3">
                            <param name="X" type="float"/>
                            <param name="Y" type="float"/>
                            <param name="Z" type="float"/>
                        </accessor>
                    </technique_common>
                </source>
                <vertices id="geometry0-vertex">
                    <input semantic="POSITION" source="#geometry0-position"/>
                </vertices>
                <triangles count="25" material="default_ai_0.2_sh_0.2_tr_0.0_dc_r_0.8_g_0.8_b_0.8_sc_r_1.0_g_1.0_b_1.0_ec_r_0.0_g_0.0_b_0_tri">
                    <input offset="0" semantic="VERTEX" source="#geometry0-vertex"/>
                    <input offset="1" semantic="NORMAL" source="#geometry0-normal"/>
                    <p>0 0 1 1 2 2 0 0 2 2 3 3 1 7 4 8 5 9 1 7 5 9 2 10 7 11 11 12 12 13 7 11 12 13 13 14 5 15 19 16 13 17 5 15 13 17 12 18 5 15 12 18 18 19 5 15 18 19 17 20 5 15 17 20 10 21 5 15 10 21 3 22 5 15 3 22 2 23 11 33 15 34 18 35 11 33 18 35 12 36 16 37 9 38 10 39 16 37 10 39 17 40 8 47 7 48 13 49 8 47 13 49 19 50 4 51 8 52 19 53 4 51 19 53 5 54 15 64 16 65 17 66 15 64 17 66 18 67 9 71 0 72 3 73 9 71 3 73 10 74</p>
                </triangles>
                <triangles count="11" material="default_ai_0.2_sh_0.2_tr_0.0_dc_r_1.0_g_0.2_b_0.2_sc_r_1.0_g_1.0_b_1.0_ec_r_0.0_g_0.0_b_0_tri">
                    <input offset="0" semantic="VERTEX" source="#geometry0-vertex"/>
                    <input offset="1" semantic="NORMAL" source="#geometry0-normal"/>
                    <p>14 4 16 5 15 6 14 24 0 25 9 26 6 27 7 28 8 29 15 30 6 31 14 32 6 41 11 42 7 43 4 44 14 45 8 46 16 55 14 56 9 57 1 58 14 59 4 60 11 61 6 62 15 63 8 68 14 69 6 70 0 75 14 76 1 77</p>
                </triangles>
            </mesh>
        </geometry>
    </library_geometries>
    <library_visual_scenes>
        <visual_scene id="Building_DEBW_522100061K6">
            <node>
                <instance_geometry url="#geometry0">
                    <bind_material>
                        <technique_common>
                            <instance_material symbol="default_ai_0.2_sh_0.2_tr_0.0_dc_r_0.8_g_0.8_b_0.8_sc_r_1.0_g_1.0_b_1.0_ec_r_0.0_g_0.0_b_0_tri" target="#default_ai_0.2_sh_0.2_tr_0.0_dc_r_0.8_g_0.8_b_0.8_sc_r_1.0_g_1.0_b_1.0_ec_r_0.0_g_0.0_b_0_mat"/>
                            <instance_material symbol="default_ai_0.2_sh_0.2_tr_0.0_dc_r_1.0_g_0.2_b_0.2_sc_r_1.0_g_1.0_b_1.0_ec_r_0.0_g_0.0_b_0_tri" target="#default_ai_0.2_sh_0.2_tr_0.0_dc_r_1.0_g_0.2_b_0.2_sc_r_1.0_g_1.0_b_1.0_ec_r_0.0_g_0.0_b_0_mat"/>
                        </technique_common>
                    </bind_material>
                </instance_geometry>
            </node>
        </visual_scene>
    </library_visual_scenes>
    <scene>
        <instance_visual_scene url="#Building_DEBW_522100061K6"/>
    </scene>
</COLLADA>
