<?xml version="1.0" encoding="UTF-8" standalone="yes"?>
<COLLADA xmlns="http://www.collada.org/2005/11/COLLADASchema" version="1.4.1">
    <asset>
        <contributor>
            <authoring_tool>3D City Database Importer/Exporter, version 5.5.3; Chair of Geoinformatics, Technical University of Munich</authoring_tool>
        </contributor>
        <created>2026-05-06T15:12:03.482</created>
        <modified>2026-05-06T15:12:03.482</modified>
        <unit meter="1.0" name="meters"/>
        <up_axis>Z_UP</up_axis>
    </asset>
    <library_materials>
        <material id="default_ai_0.2_sh_0.2_tr_0.0_dc_r_0.8_g_0.8_b_0.8_sc_r_1.0_g_1.0_b_1.0_ec_r_0.0_g_0.0_b_0_mat">
            <instance_effect url="#default_ai_0.2_sh_0.2_tr_0.0_dc_r_0.8_g_0.8_b_0.8_sc_r_1.0_g_1.0_b_1.0_ec_r_0.0_g_0.0_b_0_eff"/>
        </material>
        <material id="default_ai_0.2_sh_0.2_tr_0.0_dc_r_1.0_g_0.2_b_0.2_sc_r_1.0_g_1.0_b_1.0_ec_r_0.0_g_0.0_b_0_mat">
            <instance_effect url="#default_ai_0.2_sh_0.2_tr_0.0_dc_r_1.0_g_0.2_b_0.2_sc_r_1.0_g_1.0_b_1.0_ec_r_0.0_g_0.0_b_0_eff"/>
        </material>
    </library_materials>
    <library_effects>
        <effect id="default_ai_0.2_sh_0.2_tr_0.0_dc_r_0.8_g_0.8_b_0.8_sc_r_1.0_g_1.0_b_1.0_ec_r_0.0_g_0.0_b_0_eff">
            <profile_COMMON>
                <technique sid="COMMON">
                    <lambert>
                        <emission>
                            <color>0.0 0.0 0.0 1.0</color>
                        </emission>
                        <diffuse>
                            <color>0.8 0.8 0.8 1.0</color>
                        </diffuse>
                        <reflective>
                            <color>1.0 1.0 1.0 1.0</color>
                        </reflective>
                        <reflectivity>
                            <float>0.2</float>
                        </reflectivity>
                        <transparent opaque="A_ONE">
                            <color>1.0 1.0 1.0 1.0</color>
                        </transparent>
                        <transparency>
                            <float>1.0</float>
                        </transparency>
                    </lambert>
                </technique>
                <extra>
                    <technique profile="GOOGLEEARTH">
                        <double_sided>0</double_sided>
                    </technique>
                </extra>
            </profile_COMMON>
        </effect>
        <effect id="default_ai_0.2_sh_0.2_tr_0.0_dc_r_1.0_g_0.2_b_0.2_sc_r_1.0_g_1.0_b_1.0_ec_r_0.0_g_0.0_b_0_eff">
            <profile_COMMON>
                <technique sid="COMMON">
                    <lambert>
                        <emission>
                            <color>0.0 0.0 0.0 1.0</color>
                        </emission>
                        <diffuse>
                            <color>1.0 0.2 0.2 1.0</color>
                        </diffuse>
                        <reflective>
                            <color>1.0 1.0 1.0 1.0</color>
                        </reflective>
                        <reflectivity>
                            <float>0.2</float>
                        </reflectivity>
                        <transparent opaque="A_ONE">
                            <color>1.0 1.0 1.0 1.0</color>
                        </transparent>
                        <transparency>
                            <float>1.0</float>
                        </transparency>
                    </lambert>
                </technique>
                <extra>
                    <technique profile="GOOGLEEARTH">
                        <double_sided>0</double_sided>
                    </technique>
                </extra>
            </profile_COMMON>
        </effect>
    </library_effects>
    <library_geometries>
        <geometry id="geometry0">
            <mesh>
                <source id="geometry0-position">
                    <float_array id="geometry0-position-array" count="90">0.26 0.02 4.651 0.0 0.0 4.662 0.0 0.0 0.0 0.26 0.02 0.0 -0.75 6.57 7.973 -0.75 6.57 0.0 -1.02 9.1 6.08 -1.13 9.09 6.078 -1.13 9.09 0.0 -1.02 9.1 0.0 -1.16 9.36 5.876 -1.16 9.36 0.0 -0.508 4.447 9.563 7.99 10.45 5.855 8.97 1.03 4.651 8.97 1.03 0.0 7.99 10.45 0.0 -0.85 6.56 7.972 -0.85 6.56 0.0 0.23 0.5 5.177 5.03 1.11 5.235 5.09 0.58 4.651 8.506 5.492 9.563 -0.88 6.88 7.733 -0.88 6.88 0.0 5.09 0.58 0.0 5.03 1.11 0.0 0.23 0.5 0.0 -0.77 6.9 0.0 -0.77 6.9 7.727</float_array>
                    <technique_common>
                        <accessor count="30" source="#geometry0-position-array" stride="3">
                            <param name="X" type="float"/>
                            <param name="Y" type="float"/>
                            <param name="Z" type="float"/>
                        </accessor>
                    </technique_common>
                </source>
                <source id="geometry0-normal">
                    <float_array id="geometry0-normal-array" count="282">0.994632 0.1034756 0.0 0.994632 0.1034756 0.0 0.994632 0.1034756 0.0 0.9946321 0.1034756 0.0 0.9946314 0.1034813 -4.56E-5 0.9946314 0.1034813 -4.56E-5 0.9946314 0.1034813 -4.56E-5 -0.1182893 0.9929792 0.0 -0.1182893 0.9929792 0.0 -0.1182893 0.9929792 0.0 -0.1182894 0.9929792 0.0 -0.9936053 -0.1129097 0.0 -0.9936053 -0.1129097 0.0 -0.9936053 -0.1129097 0.0 -0.9936053 -0.1129097 0.0 -0.9956342 -0.0933406 0.0 -0.9956343 -0.0933406 0.0 -0.9956342 -0.0933406 0.0 -0.9956342 -0.0933406 0.0 0.1260694 -0.9920214 0.0 0.1260694 -0.9920214 0.0 0.1260694 -0.9920214 0.0 0.1260694 -0.9920214 0.0 0.0905378 -0.995893 0.0 0.0905378 -0.995893 0.0 0.0905378 -0.995893 0.0 0.0905378 -0.995893 0.0 0.0766965 -0.9970545 0.0 0.0766965 -0.9970545 0.0 0.0766965 -0.9970545 0.0 0.0766965 -0.9970545 0.0 0.9980526 0.0623783 0.0 0.9980526 0.0623783 0.0 0.9980526 0.0623783 0.0 0.9980526 0.0623783 0.0 0.0 0.0 -1.0 0.0 0.0 -1.0 0.0 0.0 -1.0 0.0 0.0 -1.0 0.0 0.0 -1.0 0.0 0.0 -1.0 0.0 0.0 -1.0 0.0 0.0 -1.0 0.0 0.0 -1.0 0.0 0.0 -1.0 0.0 0.0 -1.0 0.0 0.0 -1.0 0.0 0.0 -1.0 0.0 0.0 -1.0 0.1152071 -0.9933414 0.0 0.1152071 -0.9933414 0.0 0.1152071 -0.9933414 0.0 0.1152071 -0.9933414 0.0 0.0995059 -0.995037 0.0 0.099506 -0.995037 0.0 0.0995059 -0.995037 0.0 0.0995059 -0.995037 0.0 -0.9938837 -0.1104316 0.0 -0.9938837 -0.1104316 0.0 -0.9938837 -0.1104316 0.0 -0.9938837 -0.1104316 0.0 -0.993653 -0.1124889 0.0 -0.993653 -0.1124889 0.0 -0.993653 -0.1124889 0.0 -0.993653 -0.1124889 0.0 -0.9935473 -0.1134186 0.0 -0.9935473 -0.1134186 0.0 -0.9935473 -0.1134186 0.0 -0.9935473 -0.1134186 0.0 -0.9935548 -0.1133533 -1.313E-4 -0.9935548 -0.1133533 -1.313E-4 -0.9935548 -0.1133533 -1.313E-4 -0.0687477 0.5930063 0.8022577 -0.0687609 0.5929511 0.8022973 -0.0681955 0.5920358 0.8030213 -0.0685028 0.5920125 0.8030123 -0.0668553 0.592472 0.8028121 -0.0687669 0.5927235 0.802465 -0.0684955 0.591103 0.8036826 -0.0685088 0.5911712 0.8036312 -0.0674316 0.5933571 0.80211 -0.0641074 0.5933008 0.802424 -0.1788853 0.9838699 0.0 -0.1788853 0.98387 0.0 -0.1788853 0.9838699 0.0 -0.1788853 0.9838699 0.0 0.0850668 -0.7334645 0.6743838 0.0850632 -0.7334844 0.6743625 0.0850649 -0.733492 0.6743541 0.0850536 -0.7334969 0.6743503 0.0844907 -0.7335704 0.6743409 0.0844524 -0.7335682 0.6743482 0.0841622 -0.7336127 0.6743362 0.0849534 -0.7335004 0.674359</float_array>
                    <technique_common>
                        <accessor count="94" source="#geometry0-normal-array" stride="3">
                            <param name="X" type="float"/>
                            <param name="Y" type="float"/>
                            <param name="Z" type="float"/>
                        </accessor>
                    </technique_common>
                </source>
                <vertices id="geometry0-vertex">
                    <input semantic="POSITION" source="#geometry0-position"/>
                </vertices>
                <triangles count="42" material="default_ai_0.2_sh_0.2_tr_0.0_dc_r_0.8_g_0.8_b_0.8_sc_r_1.0_g_1.0_b_1.0_ec_r_0.0_g_0.0_b_0_tri">
                    <input offset="0" semantic="VERTEX" source="#geometry0-vertex"/>
                    <input offset="1" semantic="NORMAL" source="#geometry0-normal"/>
                    <p>13 0 14 1 15 2 13 0 15 2 16 3 14 4 13 5 22 6 10 7 13 8 16 9 10 7 16 9 11 10 29 11 6 12 9 13 29 11 9 13 28 14 17 15 23 16 24 17 17 15 24 17 18 18 20 19 19 20 27 21 20 19 27 21 26 22 6 23 7 24 8 25 6 23 8 25 9 26 0 27 1 28 2 29 0 27 2 29 3 30 19 31 0 32 3 33 19 31 3 33 27 34 9 35 8 36 11 37 9 35 11 37 16 38 9 35 16 38 15 39 28 40 9 35 15 39 24 41 28 40 15 39 5 42 18 43 24 41 5 42 24 41 15 39 3 44 2 45 5 42 27 46 3 44 5 42 26 47 27 46 5 42 26 47 5 42 15 39 26 47 15 39 25 48 14 49 21 50 25 51 14 49 25 51 15 52 4 53 17 54 18 55 4 53 18 55 5 56 7 57 10 58 11 59 7 57 11 59 8 60 21 61 20 62 26 63 21 61 26 63 25 64 1 65 4 66 5 67 1 65 5 67 2 68 4 69 1 70 12 71 23 82 29 83 28 84 23 82 28 84 24 85</p>
                </triangles>
                <triangles count="14" material="default_ai_0.2_sh_0.2_tr_0.0_dc_r_1.0_g_0.2_b_0.2_sc_r_1.0_g_1.0_b_1.0_ec_r_0.0_g_0.0_b_0_tri">
                    <input offset="0" semantic="VERTEX" source="#geometry0-vertex"/>
                    <input offset="1" semantic="NORMAL" source="#geometry0-normal"/>
                    <p>12 72 22 73 4 74 22 73 13 75 4 74 4 74 13 75 17 76 10 77 7 78 13 75 7 78 6 79 13 75 6 79 29 80 13 75 13 75 29 80 17 76 17 76 29 80 23 81 21 86 14 87 20 88 14 87 22 89 20 88 20 88 22 89 19 90 22 89 12 91 19 90 19 90 12 91 0 92 0 92 12 91 1 93</p>
                </triangles>
            </mesh>
        </geometry>
    </library_geometries>
    <library_visual_scenes>
        <visual_scene id="Building_DEBW_5221000QjtI">
            <node>
                <instance_geometry url="#geometry0">
                    <bind_material>
                        <technique_common>
                            <instance_material symbol="default_ai_0.2_sh_0.2_tr_0.0_dc_r_0.8_g_0.8_b_0.8_sc_r_1.0_g_1.0_b_1.0_ec_r_0.0_g_0.0_b_0_tri" target="#default_ai_0.2_sh_0.2_tr_0.0_dc_r_0.8_g_0.8_b_0.8_sc_r_1.0_g_1.0_b_1.0_ec_r_0.0_g_0.0_b_0_mat"/>
                            <instance_material symbol="default_ai_0.2_sh_0.2_tr_0.0_dc_r_1.0_g_0.2_b_0.2_sc_r_1.0_g_1.0_b_1.0_ec_r_0.0_g_0.0_b_0_tri" target="#default_ai_0.2_sh_0.2_tr_0.0_dc_r_1.0_g_0.2_b_0.2_sc_r_1.0_g_1.0_b_1.0_ec_r_0.0_g_0.0_b_0_mat"/>
                        </technique_common>
                    </bind_material>
                </instance_geometry>
            </node>
        </visual_scene>
    </library_visual_scenes>
    <scene>
        <instance_visual_scene url="#Building_DEBW_5221000QjtI"/>
    </scene>
</COLLADA>
