<?xml version="1.0" encoding="UTF-8" standalone="yes"?>
<COLLADA xmlns="http://www.collada.org/2005/11/COLLADASchema" version="1.4.1">
    <asset>
        <contributor>
            <authoring_tool>3D City Database Importer/Exporter, version 5.5.3; Chair of Geoinformatics, Technical University of Munich</authoring_tool>
        </contributor>
        <created>2026-05-06T15:12:10.275</created>
        <modified>2026-05-06T15:12:10.275</modified>
        <unit meter="1.0" name="meters"/>
        <up_axis>Z_UP</up_axis>
    </asset>
    <library_materials>
        <material id="default_ai_0.2_sh_0.2_tr_0.0_dc_r_1.0_g_0.2_b_0.2_sc_r_1.0_g_1.0_b_1.0_ec_r_0.0_g_0.0_b_0_mat">
            <instance_effect url="#default_ai_0.2_sh_0.2_tr_0.0_dc_r_1.0_g_0.2_b_0.2_sc_r_1.0_g_1.0_b_1.0_ec_r_0.0_g_0.0_b_0_eff"/>
        </material>
        <material id="default_ai_0.2_sh_0.2_tr_0.0_dc_r_0.8_g_0.8_b_0.8_sc_r_1.0_g_1.0_b_1.0_ec_r_0.0_g_0.0_b_0_mat">
            <instance_effect url="#default_ai_0.2_sh_0.2_tr_0.0_dc_r_0.8_g_0.8_b_0.8_sc_r_1.0_g_1.0_b_1.0_ec_r_0.0_g_0.0_b_0_eff"/>
        </material>
    </library_materials>
    <library_effects>
        <effect id="default_ai_0.2_sh_0.2_tr_0.0_dc_r_1.0_g_0.2_b_0.2_sc_r_1.0_g_1.0_b_1.0_ec_r_0.0_g_0.0_b_0_eff">
            <profile_COMMON>
                <technique sid="COMMON">
                    <lambert>
                        <emission>
                            <color>0.0 0.0 0.0 1.0</color>
                        </emission>
                        <diffuse>
                            <color>1.0 0.2 0.2 1.0</color>
                        </diffuse>
                        <reflective>
                            <color>1.0 1.0 1.0 1.0</color>
                        </reflective>
                        <reflectivity>
                            <float>0.2</float>
                        </reflectivity>
                        <transparent opaque="A_ONE">
                            <color>1.0 1.0 1.0 1.0</color>
                        </transparent>
                        <transparency>
                            <float>1.0</float>
                        </transparency>
                    </lambert>
                </technique>
                <extra>
                    <technique profile="GOOGLEEARTH">
                        <double_sided>0</double_sided>
                    </technique>
                </extra>
            </profile_COMMON>
        </effect>
        <effect id="default_ai_0.2_sh_0.2_tr_0.0_dc_r_0.8_g_0.8_b_0.8_sc_r_1.0_g_1.0_b_1.0_ec_r_0.0_g_0.0_b_0_eff">
            <profile_COMMON>
                <technique sid="COMMON">
                    <lambert>
                        <emission>
                            <color>0.0 0.0 0.0 1.0</color>
                        </emission>
                        <diffuse>
                            <color>0.8 0.8 0.8 1.0</color>
                        </diffuse>
                        <reflective>
                            <color>1.0 1.0 1.0 1.0</color>
                        </reflective>
                        <reflectivity>
                            <float>0.2</float>
                        </reflectivity>
                        <transparent opaque="A_ONE">
                            <color>1.0 1.0 1.0 1.0</color>
                        </transparent>
                        <transparency>
                            <float>1.0</float>
                        </transparency>
                    </lambert>
                </technique>
                <extra>
                    <technique profile="GOOGLEEARTH">
                        <double_sided>0</double_sided>
                    </technique>
                </extra>
            </profile_COMMON>
        </effect>
    </library_effects>
    <library_geometries>
        <geometry id="geometry0">
            <mesh>
                <source id="geometry0-position">
                    <float_array id="geometry0-position-array" count="72">0.0 0.0 0.0 -1.88 -0.53 0.0 -3.37 4.79 0.0 -2.28 5.08 0.0 -3.56 9.64 0.0 4.39 11.87 0.0 4.65 11.94 0.0 5.41 9.34 0.0 6.69 4.63 0.0 7.48 4.85 0.0 8.22 2.28 0.0 4.65 11.94 7.732 5.41 9.34 7.708 -1.88 -0.53 7.702 -3.37 4.79 7.702 8.22 2.28 7.059 0.0 0.0 9.284 2.782 0.772 11.622 0.017 10.643 11.622 -3.56 9.64 8.614 -2.28 5.08 8.616 4.39 11.87 7.95 7.48 4.85 7.075 6.69 4.63 7.738</float_array>
                    <technique_common>
                        <accessor count="24" source="#geometry0-position-array" stride="3">
                            <param name="X" type="float"/>
                            <param name="Y" type="float"/>
                            <param name="Z" type="float"/>
                        </accessor>
                    </technique_common>
                </source>
                <source id="geometry0-normal">
                    <float_array id="geometry0-normal-array" count="228">-0.6060478 -0.1697809 0.7770974 -0.6062844 -0.1698052 0.7769076 -0.6061633 -0.1698118 0.7770008 -0.6060173 -0.1698043 0.7771163 -0.6059801 -0.169765 0.7771537 -0.6059601 -0.1697454 0.7771738 -0.6059524 -0.1697511 0.7771783 0.0 0.0 -1.0 0.0 0.0 -1.0 0.0 0.0 -1.0 0.0 0.0 -1.0 0.0 0.0 -1.0 0.0 0.0 -1.0 0.0 0.0 -1.0 0.0 0.0 -1.0 0.0 0.0 -1.0 0.0 0.0 -1.0 0.0 0.0 -1.0 -0.2599722 0.9656161 0.0 -0.2599722 0.9656161 0.0 -0.2599722 0.9656161 0.0 -0.2599722 0.9656161 0.0 -0.2700709 0.9628404 1.049E-4 -0.2700709 0.9628404 1.049E-4 -0.2700709 0.9628404 1.049E-4 0.9609575 0.276696 0.0 0.9609575 0.276696 0.0 0.9609575 0.276696 0.0 0.9609575 0.276696 0.0 -0.2700791 0.9628382 0.0 -0.2700791 0.9628382 0.0 -0.2700791 0.9628382 0.0 -0.2700791 0.9628382 0.0 0.2673085 -0.963611 1.093E-4 0.2673085 -0.963611 1.093E-4 0.2673085 -0.963611 1.093E-4 0.2672811 -0.9636187 0.0 0.2672811 -0.9636187 0.0 0.2672811 -0.9636187 0.0 0.2672811 -0.9636187 0.0 -0.9627885 -0.2702564 0.0 -0.9627884 -0.2702563 0.0 -0.9627885 -0.2702564 0.0 -0.9627885 -0.2702564 0.0 -0.2571108 0.9663819 0.0 -0.2571108 0.9663819 0.0 -0.2571108 0.9663819 0.0 -0.2571108 0.966382 0.0 0.6100318 0.1526224 0.7775394 0.6054521 0.1695953 0.7776022 0.6053995 0.1694859 0.777667 0.6166701 0.1272232 0.7768734 0.6267638 0.0844203 0.7746227 0.6053724 0.169624 0.777658 0.6053702 0.1694436 0.7776991 0.605431 0.1694852 0.7776428 -0.2682725 0.963343 0.0 -0.2682725 0.9633431 0.0 -0.2682725 0.963343 0.0 -0.2682725 0.9633431 0.0 0.9598345 0.280567 0.0 0.9598345 0.280567 0.0 0.9598345 0.280567 0.0 0.9598345 0.280567 0.0 -0.9629452 -0.2696971 0.0 -0.9629452 -0.2696971 0.0 -0.9629452 -0.2696971 0.0 -0.9629452 -0.2696971 0.0 0.2713386 -0.9624839 0.0 0.2713386 -0.9624839 0.0 0.2713386 -0.9624839 0.0 0.2713386 -0.9624839 0.0 0.9649998 0.2622505 0.0 0.9649998 0.2622505 0.0 0.9649998 0.2622505 0.0 0.9649999 0.2622505 0.0</float_array>
                    <technique_common>
                        <accessor count="76" source="#geometry0-normal-array" stride="3">
                            <param name="X" type="float"/>
                            <param name="Y" type="float"/>
                            <param name="Z" type="float"/>
                        </accessor>
                    </technique_common>
                </source>
                <vertices id="geometry0-vertex">
                    <input semantic="POSITION" source="#geometry0-position"/>
                </vertices>
                <triangles count="33" material="default_ai_0.2_sh_0.2_tr_0.0_dc_r_0.8_g_0.8_b_0.8_sc_r_1.0_g_1.0_b_1.0_ec_r_0.0_g_0.0_b_0_tri">
                    <input offset="0" semantic="VERTEX" source="#geometry0-vertex"/>
                    <input offset="1" semantic="NORMAL" source="#geometry0-normal"/>
                    <p>1 7 2 8 0 9 0 9 2 8 10 10 2 8 3 11 10 10 3 11 4 12 10 10 5 13 6 14 4 12 6 14 7 15 4 12 7 15 8 16 4 12 4 12 8 16 10 10 10 10 8 16 9 17 21 18 11 19 6 20 21 18 6 20 5 21 21 22 19 23 18 24 22 25 15 26 10 27 22 25 10 27 9 28 19 29 21 30 5 31 19 29 5 31 4 32 16 33 15 34 17 35 15 36 16 37 0 38 15 36 0 38 10 39 20 40 19 41 4 42 20 40 4 42 3 43 14 44 20 45 3 46 14 44 3 46 2 47 23 56 22 57 9 58 23 56 9 58 8 59 11 60 12 61 7 62 11 60 7 62 6 63 13 64 14 65 2 66 13 64 2 66 1 67 16 68 13 69 1 70 16 68 1 70 0 71 12 72 23 73 8 74 12 72 8 74 7 75</p>
                </triangles>
                <triangles count="11" material="default_ai_0.2_sh_0.2_tr_0.0_dc_r_1.0_g_0.2_b_0.2_sc_r_1.0_g_1.0_b_1.0_ec_r_0.0_g_0.0_b_0_tri">
                    <input offset="0" semantic="VERTEX" source="#geometry0-vertex"/>
                    <input offset="1" semantic="NORMAL" source="#geometry0-normal"/>
                    <p>20 0 14 1 13 2 20 0 13 2 16 3 20 0 16 3 17 4 20 0 17 4 18 5 20 0 18 5 19 6 18 48 17 49 15 50 11 51 21 52 18 48 12 53 11 51 18 48 23 54 12 53 18 48 23 54 18 48 15 50 23 54 15 50 22 55</p>
                </triangles>
            </mesh>
        </geometry>
    </library_geometries>
    <library_visual_scenes>
        <visual_scene id="Building_DEBW_5221000Qm87">
            <node>
                <instance_geometry url="#geometry0">
                    <bind_material>
                        <technique_common>
                            <instance_material symbol="default_ai_0.2_sh_0.2_tr_0.0_dc_r_0.8_g_0.8_b_0.8_sc_r_1.0_g_1.0_b_1.0_ec_r_0.0_g_0.0_b_0_tri" target="#default_ai_0.2_sh_0.2_tr_0.0_dc_r_0.8_g_0.8_b_0.8_sc_r_1.0_g_1.0_b_1.0_ec_r_0.0_g_0.0_b_0_mat"/>
                            <instance_material symbol="default_ai_0.2_sh_0.2_tr_0.0_dc_r_1.0_g_0.2_b_0.2_sc_r_1.0_g_1.0_b_1.0_ec_r_0.0_g_0.0_b_0_tri" target="#default_ai_0.2_sh_0.2_tr_0.0_dc_r_1.0_g_0.2_b_0.2_sc_r_1.0_g_1.0_b_1.0_ec_r_0.0_g_0.0_b_0_mat"/>
                        </technique_common>
                    </bind_material>
                </instance_geometry>
            </node>
        </visual_scene>
    </library_visual_scenes>
    <scene>
        <instance_visual_scene url="#Building_DEBW_5221000Qm87"/>
    </scene>
</COLLADA>
