<?xml version="1.0" encoding="UTF-8" standalone="yes"?>
<COLLADA xmlns="http://www.collada.org/2005/11/COLLADASchema" version="1.4.1">
    <asset>
        <contributor>
            <authoring_tool>3D City Database Importer/Exporter, version 5.5.3; Chair of Geoinformatics, Technical University of Munich</authoring_tool>
        </contributor>
        <created>2026-05-06T15:12:06.103</created>
        <modified>2026-05-06T15:12:06.103</modified>
        <unit meter="1.0" name="meters"/>
        <up_axis>Z_UP</up_axis>
    </asset>
    <library_materials>
        <material id="default_ai_0.2_sh_0.2_tr_0.0_dc_r_1.0_g_0.2_b_0.2_sc_r_1.0_g_1.0_b_1.0_ec_r_0.0_g_0.0_b_0_mat">
            <instance_effect url="#default_ai_0.2_sh_0.2_tr_0.0_dc_r_1.0_g_0.2_b_0.2_sc_r_1.0_g_1.0_b_1.0_ec_r_0.0_g_0.0_b_0_eff"/>
        </material>
        <material id="default_ai_0.2_sh_0.2_tr_0.0_dc_r_0.8_g_0.8_b_0.8_sc_r_1.0_g_1.0_b_1.0_ec_r_0.0_g_0.0_b_0_mat">
            <instance_effect url="#default_ai_0.2_sh_0.2_tr_0.0_dc_r_0.8_g_0.8_b_0.8_sc_r_1.0_g_1.0_b_1.0_ec_r_0.0_g_0.0_b_0_eff"/>
        </material>
    </library_materials>
    <library_effects>
        <effect id="default_ai_0.2_sh_0.2_tr_0.0_dc_r_1.0_g_0.2_b_0.2_sc_r_1.0_g_1.0_b_1.0_ec_r_0.0_g_0.0_b_0_eff">
            <profile_COMMON>
                <technique sid="COMMON">
                    <lambert>
                        <emission>
                            <color>0.0 0.0 0.0 1.0</color>
                        </emission>
                        <diffuse>
                            <color>1.0 0.2 0.2 1.0</color>
                        </diffuse>
                        <reflective>
                            <color>1.0 1.0 1.0 1.0</color>
                        </reflective>
                        <reflectivity>
                            <float>0.2</float>
                        </reflectivity>
                        <transparent opaque="A_ONE">
                            <color>1.0 1.0 1.0 1.0</color>
                        </transparent>
                        <transparency>
                            <float>1.0</float>
                        </transparency>
                    </lambert>
                </technique>
                <extra>
                    <technique profile="GOOGLEEARTH">
                        <double_sided>0</double_sided>
                    </technique>
                </extra>
            </profile_COMMON>
        </effect>
        <effect id="default_ai_0.2_sh_0.2_tr_0.0_dc_r_0.8_g_0.8_b_0.8_sc_r_1.0_g_1.0_b_1.0_ec_r_0.0_g_0.0_b_0_eff">
            <profile_COMMON>
                <technique sid="COMMON">
                    <lambert>
                        <emission>
                            <color>0.0 0.0 0.0 1.0</color>
                        </emission>
                        <diffuse>
                            <color>0.8 0.8 0.8 1.0</color>
                        </diffuse>
                        <reflective>
                            <color>1.0 1.0 1.0 1.0</color>
                        </reflective>
                        <reflectivity>
                            <float>0.2</float>
                        </reflectivity>
                        <transparent opaque="A_ONE">
                            <color>1.0 1.0 1.0 1.0</color>
                        </transparent>
                        <transparency>
                            <float>1.0</float>
                        </transparency>
                    </lambert>
                </technique>
                <extra>
                    <technique profile="GOOGLEEARTH">
                        <double_sided>0</double_sided>
                    </technique>
                </extra>
            </profile_COMMON>
        </effect>
    </library_effects>
    <library_geometries>
        <geometry id="geometry0">
            <mesh>
                <source id="geometry0-position">
                    <float_array id="geometry0-position-array" count="198">5.72 10.03 14.498 4.34 10.13 15.432 5.046 10.079 15.432 -0.08 -1.24 12.083 0.0 0.0 15.434 0.0 0.0 0.0 -0.08 -1.24 0.0 6.15 14.85 14.356 5.461 12.545 15.091 5.86 12.5 14.536 -17.43 -0.05 10.139 -17.09 4.81 11.456 -17.09 4.81 0.0 -17.43 -0.05 0.0 -14.668 1.442 15.443 -14.335 6.339 15.443 -14.733 8.644 14.61 -15.57 8.7 13.345 -15.83 4.71 13.362 -17.4 0.385 11.442 1.6 17.93 12.879 1.76 19.18 12.461 1.76 19.18 0.0 1.6 17.93 0.0 4.62 12.64 14.982 4.62 12.64 0.0 5.86 12.5 0.0 6.16 -1.66 12.795 6.16 -1.66 0.0 6.61 18.58 13.108 -11.75 11.73 13.813 -16.44 12.29 11.67 -16.44 12.29 0.0 -11.75 11.73 0.0 -11.1 0.77 14.574 -11.1 0.77 0.0 -11.91 19.55 11.094 -11.76 20.8 10.676 -16.59 21.39 10.034 -16.733 20.245 10.417 -15.339 12.158 13.34 -12.13 8.47 14.906 4.47 11.299 15.432 -17.35 15.29 9.995 -16.59 21.39 0.0 -17.35 15.29 0.0 -0.008 -0.12 15.434 4.323 -0.581 15.432 -3.241 0.225 15.436 5.23 3.29 14.542 6.49 3.2 12.795 6.49 3.2 0.0 5.23 3.29 0.0 -15.83 4.71 0.0 -11.19 -0.48 10.833 -11.19 -0.48 0.0 -11.91 19.55 0.0 6.153 -1.66 12.806 -12.13 8.47 0.0 -15.57 8.7 0.0 4.34 10.13 0.0 5.72 10.03 0.0 -11.76 20.8 0.0 -16.11 15.14 0.0 6.61 18.58 0.0 -16.11 15.14 11.875</float_array>
                    <technique_common>
                        <accessor count="66" source="#geometry0-position-array" stride="3">
                            <param name="X" type="float"/>
                            <param name="Y" type="float"/>
                            <param name="Z" type="float"/>
                        </accessor>
                    </technique_common>
                </source>
                <source id="geometry0-normal">
                    <float_array id="geometry0-normal-array" count="660">-0.8314626 0.0563734 0.5527134 -0.8314074 0.0564965 0.5527838 -0.8314058 0.0564251 0.5527936 -0.8313824 0.0564143 0.5528298 -0.8312634 0.056435 0.5530065 -0.8313598 0.0564391 0.5528612 -0.8314847 0.0565367 0.5526632 0.0791162 0.9968654 0.0 0.0791162 0.9968654 0.0 0.0791162 0.9968654 0.0 0.0791162 0.9968654 0.0 -0.9977849 0.066519 -7.94E-4 -0.9977849 0.066519 -7.94E-4 -0.9977849 0.066519 -7.94E-4 -0.0853198 0.3255653 0.9416623 -0.0853134 0.3255398 0.9416716 -0.0853112 0.3255938 0.9416531 -0.0853306 0.3256035 0.941648 -0.0853177 0.3255733 0.9416597 -0.0853393 0.3254437 0.9417025 -0.085332 0.3254365 0.9417057 -0.0852814 0.3257303 0.9416086 -0.0852507 0.3258284 0.9415775 -0.0852749 0.3257571 0.9415999 -0.0853617 0.3254071 0.9417131 -0.0853832 0.3256372 0.9416316 -0.0852905 0.3256265 0.9416438 -0.0853294 0.3255997 0.9416496 -0.0852946 0.3256838 0.9416235 -0.0853062 0.3257854 0.9415873 0.808654 -0.0549081 0.5857166 0.8083216 -0.0548233 0.586183 0.808608 -0.0548481 0.5857856 0.8176314 -0.0489144 0.5736604 0.8263176 -0.0428678 0.5615706 0.8263066 -0.0429527 0.5615804 0.8084916 -0.0548976 0.5859416 -0.9933631 0.1150209 0.0 -0.9933631 0.1150209 0.0 -0.9933631 0.1150209 0.0 -0.9933631 0.1150209 0.0 0.9938716 -0.1105243 0.001928 0.9938716 -0.1105243 0.001928 0.9938716 -0.1105243 0.001928 0.9924687 -0.1224983 -3.07E-4 0.9924687 -0.1224983 -3.07E-4 0.9924687 -0.1224983 -3.07E-4 0.0 0.0 -1.0 0.0 0.0 -1.0 0.0 0.0 -1.0 0.0 0.0 -1.0 0.0 0.0 -1.0 0.0 0.0 -1.0 0.0 0.0 -1.0 0.0 0.0 -1.0 0.0 0.0 -1.0 0.0 0.0 -1.0 0.0 0.0 -1.0 0.0 0.0 -1.0 0.0 0.0 -1.0 0.0 0.0 -1.0 0.0 0.0 -1.0 0.0 0.0 -1.0 0.0 0.0 -1.0 0.0 0.0 -1.0 0.0 0.0 -1.0 0.0 0.0 -1.0 0.0 0.0 -1.0 0.0 0.0 -1.0 0.0 0.0 -1.0 0.0 0.0 -1.0 0.0 0.0 -1.0 0.0 0.0 -1.0 -0.9919073 0.1269641 0.0 -0.9919073 0.1269641 0.0 -0.9919073 0.1269641 0.0 -0.9919074 0.1269641 0.0 -0.120092 -0.9927627 0.0 -0.120092 -0.9927627 0.0 -0.120092 -0.9927627 0.0 -0.120092 -0.9927627 0.0 0.8086088 -0.0549176 0.5857779 0.8086088 -0.0549176 0.5857779 0.8086088 -0.0549176 0.5857779 0.997418 -0.0718135 0.0 0.997418 -0.0718135 0.0 0.997418 -0.0718135 0.0 0.997418 -0.0718135 0.0 -0.9923278 0.1236343 0.0 -0.9923278 0.1236343 0.0 -0.9923278 0.1236343 0.0 -0.9923278 0.1236343 0.0 -0.9923268 0.1236398 -8.747E-4 -0.9923268 0.1236398 -8.747E-4 -0.9923268 0.1236398 -8.747E-4 -0.0625783 -0.9972453 -0.0398235 -0.0625783 -0.9972453 -0.0398235 -0.0625783 -0.9972453 -0.0398235 0.9973677 -0.0725089 0.0 0.9973677 -0.0725089 0.0 0.9973677 -0.0725089 0.0 0.9973677 -0.0725089 0.0 -0.8315738 0.0563784 0.5525454 -0.8314912 0.0565255 0.5526549 -0.8316774 0.0563486 0.5523927 -0.8316152 0.0563048 0.5524908 -0.8313666 0.056438 0.552851 0.9924775 -0.1224273 0.0 0.9924775 -0.1224273 0.0 0.9924775 -0.1224273 0.0 0.9924775 -0.1224273 0.0 -0.1121907 -0.9936867 0.0 -0.1121907 -0.9936867 0.0 -0.1121907 -0.9936867 0.0 -0.1121907 -0.9936867 0.0 0.9977027 -0.0677452 0.0 0.9977027 -0.0677452 0.0 0.9977027 -0.0677452 0.0 0.9977027 -0.0677452 0.0 -0.1185609 -0.9929467 0.0 -0.1185609 -0.9929468 0.0 -0.1185609 -0.9929467 0.0 -0.1185609 -0.9929467 0.0 -0.1002265 -0.9429022 0.317632 -0.1000898 -0.942983 0.3174354 -0.1002488 -0.9429247 0.3175581 -0.1002793 -0.9429483 0.3174784 -0.0999308 -0.9430411 0.3173127 -0.099574 -0.9431326 0.3171526 0.0667114 0.9977723 0.0 0.0667114 0.9977723 0.0 0.0667114 0.9977723 0.0 0.0667114 0.9977724 0.0 -0.1002849 -0.942953 0.3174628 -0.1002191 -0.9429155 0.3175951 -0.1002849 -0.942953 0.3174628 -0.1003507 -0.9429905 0.3173305 0.0720497 0.9974011 -3.339E-4 0.0720497 0.9974011 -3.339E-4 0.0720497 0.9974011 -3.339E-4 -0.9932748 0.1157806 0.0 -0.9932748 0.1157806 0.0 -0.9932748 0.1157806 0.0 -0.9932748 0.1157806 0.0 0.9928769 -0.1191449 0.0 0.9928769 -0.1191449 0.0 0.9928769 -0.1191449 0.0 0.9928769 -0.1191449 0.0 0.071247 0.9974587 0.0 0.071247 0.9974587 0.0 0.071247 0.9974587 0.0 0.071247 0.9974587 0.0 0.0722746 0.9973848 0.0 0.0722746 0.9973847 0.0 0.0722746 0.9973848 0.0 0.0722746 0.9973848 0.0 -0.118355 -0.9929712 -4.571E-4 -0.118355 -0.9929712 -4.571E-4 -0.118355 -0.9929712 -4.571E-4 -0.9975618 0.0697883 0.0 -0.9975618 0.0697883 0.0 -0.9975618 0.0697883 0.0 -0.9975618 0.0697883 0.0 -0.0692031 -0.9976026 0.0 -0.0692031 -0.9976026 0.0 -0.0692031 -0.9976026 0.0 -0.0692031 -0.9976026 0.0 0.121252 0.9926218 0.0 0.121252 0.9926218 0.0 0.121252 0.9926218 0.0 0.121252 0.9926218 0.0 0.1190582 0.9928873 0.0 0.1190582 0.9928873 0.0 0.1190582 0.9928873 0.0 0.1190582 0.9928873 0.0 -0.9978836 0.0650251 0.0 -0.9978836 0.0650251 0.0 -0.9978836 0.0650251 0.0 -0.9978836 0.0650251 0.0 0.0666922 0.9977736 4.25E-5 0.0666922 0.9977736 4.25E-5 0.0666922 0.9977736 4.25E-5 -0.0692559 -0.9975987 6.853E-4 -0.0692559 -0.9975987 6.853E-4 -0.0692559 -0.9975987 6.853E-4 -0.9979253 0.0643823 0.0 -0.9979253 0.0643823 0.0 -0.9979253 0.0643823 0.0 -0.9979253 0.0643823 0.0 -0.0671557 -0.9977425 0.0 -0.0671557 -0.9977425 0.0 -0.0671557 -0.9977425 0.0 -0.0671557 -0.9977425 0.0 -0.9975549 0.0698862 -3.631E-4 -0.9975549 0.0698862 -3.631E-4 -0.9975549 0.0698862 -3.631E-4 0.1227755 0.9924345 0.0 0.1227755 0.9924345 0.0 0.1227755 0.9924345 0.0 0.1227755 0.9924345 0.0 4.585E-4 -3.06E-5 0.9999999 4.585E-4 -3.08E-5 0.9999999 5.089E-4 -5.62E-5 0.9999999 4.799E-4 3.725E-4 0.9999998 6.058E-4 -1.035E-4 0.9999999 5.885E-4 -6.97E-5 0.9999999 4.441E-4 6.78E-4 0.9999997 3.786E-4 0.0010365 0.9999994 6.026E-4 -6.7E-5 0.9999998 0.9938353 -0.110866 0.0 0.9938353 -0.110866 0.0 0.9938353 -0.110866 0.0 0.9938353 -0.110866 0.0 -0.0687472 -0.9976342 0.0 -0.0687472 -0.9976341 0.0 -0.0687472 -0.9976342 0.0 -0.0687472 -0.9976342 0.0 -0.1122322 -0.993682 -1.17E-4 -0.1122322 -0.993682 -1.17E-4 -0.1122322 -0.993682 -1.17E-4</float_array>
                    <technique_common>
                        <accessor count="220" source="#geometry0-normal-array" stride="3">
                            <param name="X" type="float"/>
                            <param name="Y" type="float"/>
                            <param name="Z" type="float"/>
                        </accessor>
                    </technique_common>
                </source>
                <vertices id="geometry0-vertex">
                    <input semantic="POSITION" source="#geometry0-position"/>
                </vertices>
                <triangles count="87" material="default_ai_0.2_sh_0.2_tr_0.0_dc_r_0.8_g_0.8_b_0.8_sc_r_1.0_g_1.0_b_1.0_ec_r_0.0_g_0.0_b_0_tri">
                    <input offset="0" semantic="VERTEX" source="#geometry0-vertex"/>
                    <input offset="1" semantic="NORMAL" source="#geometry0-normal"/>
                    <p>11 7 18 8 53 9 11 7 53 9 12 10 4 11 3 12 46 13 31 37 65 38 63 39 31 37 63 39 32 40 1 41 24 42 42 43 9 44 29 45 7 46 55 47 13 48 35 49 13 48 12 50 35 49 35 49 12 50 5 51 12 50 53 52 5 51 53 52 59 53 5 51 59 53 58 54 5 51 58 54 33 55 5 51 32 56 63 57 33 55 45 58 44 59 63 57 63 57 44 59 33 55 33 55 44 59 5 51 62 60 56 61 44 59 44 59 56 61 5 51 56 61 23 62 5 51 5 51 23 62 6 63 6 63 23 62 28 64 23 62 22 65 28 64 64 66 26 67 22 65 26 67 25 68 22 65 25 68 60 69 22 65 61 70 52 71 60 69 60 69 52 71 22 65 22 65 52 71 28 64 28 64 52 71 51 72 20 73 21 74 22 75 20 73 22 75 23 76 65 77 43 78 45 79 65 77 45 79 63 80 34 84 54 85 55 86 34 84 55 86 35 87 43 88 38 89 44 90 43 88 44 90 45 91 38 92 43 93 39 94 3 95 27 96 57 97 0 98 49 99 52 100 0 98 52 100 61 101 29 107 9 108 26 109 29 107 26 109 64 110 9 111 24 112 25 113 9 111 25 113 26 114 50 115 27 116 28 117 50 115 28 117 51 118 30 119 31 120 32 121 30 119 32 121 33 122 17 129 41 130 58 131 17 129 58 131 59 132 0 137 1 138 2 139 41 140 30 141 33 142 41 140 33 142 58 143 37 144 36 145 56 146 37 144 56 146 62 147 49 148 50 149 51 150 49 148 51 150 52 151 1 152 0 153 61 154 1 152 61 154 60 155 31 156 30 157 40 158 10 159 11 160 12 161 10 159 12 161 13 162 4 163 34 164 35 165 4 163 35 165 5 166 38 167 37 168 62 169 38 167 62 169 44 170 36 171 20 172 23 173 36 171 23 173 56 174 18 175 17 176 59 177 18 175 59 177 53 178 41 179 17 180 16 181 34 182 4 183 48 184 3 185 4 186 5 187 3 185 5 187 6 188 27 189 3 190 6 191 27 189 6 191 28 192 11 193 10 194 19 195 21 196 29 197 64 198 21 196 64 198 22 199 24 209 1 210 60 211 24 209 60 211 25 212 54 213 10 214 13 215 54 213 13 215 55 216 24 217 9 218 8 219</p>
                </triangles>
                <triangles count="41" material="default_ai_0.2_sh_0.2_tr_0.0_dc_r_1.0_g_0.2_b_0.2_sc_r_1.0_g_1.0_b_1.0_ec_r_0.0_g_0.0_b_0_tri">
                    <input offset="0" semantic="VERTEX" source="#geometry0-vertex"/>
                    <input offset="1" semantic="NORMAL" source="#geometry0-normal"/>
                    <p>11 0 19 1 14 2 18 3 11 0 14 2 18 3 14 2 15 4 18 3 15 4 16 5 18 3 16 5 17 6 15 14 42 15 24 16 41 17 16 18 15 14 41 17 15 14 24 16 30 19 41 17 24 16 40 20 30 19 24 16 39 21 40 20 24 16 39 21 24 16 8 22 39 21 8 22 7 23 37 24 38 25 39 21 36 26 37 24 39 21 36 26 39 21 7 23 20 27 36 26 7 23 20 27 7 23 29 28 20 27 29 28 21 29 0 30 2 31 47 32 49 33 0 30 47 32 49 33 47 32 57 34 49 33 57 34 27 35 49 33 27 35 50 36 7 81 8 82 9 83 65 102 31 103 40 104 65 102 40 104 39 105 65 102 39 105 43 106 48 123 14 124 34 125 34 125 14 124 54 126 54 126 14 124 10 127 10 127 14 124 19 128 57 133 47 134 46 135 57 133 46 135 3 136 46 200 47 201 4 202 47 201 2 203 4 202 4 202 2 203 48 204 48 204 2 203 14 205 14 205 2 203 15 206 2 203 1 207 15 206 15 206 1 207 42 208</p>
                </triangles>
            </mesh>
        </geometry>
    </library_geometries>
    <library_visual_scenes>
        <visual_scene id="Building_DEBW_5221000QWrk">
            <node>
                <instance_geometry url="#geometry0">
                    <bind_material>
                        <technique_common>
                            <instance_material symbol="default_ai_0.2_sh_0.2_tr_0.0_dc_r_0.8_g_0.8_b_0.8_sc_r_1.0_g_1.0_b_1.0_ec_r_0.0_g_0.0_b_0_tri" target="#default_ai_0.2_sh_0.2_tr_0.0_dc_r_0.8_g_0.8_b_0.8_sc_r_1.0_g_1.0_b_1.0_ec_r_0.0_g_0.0_b_0_mat"/>
                            <instance_material symbol="default_ai_0.2_sh_0.2_tr_0.0_dc_r_1.0_g_0.2_b_0.2_sc_r_1.0_g_1.0_b_1.0_ec_r_0.0_g_0.0_b_0_tri" target="#default_ai_0.2_sh_0.2_tr_0.0_dc_r_1.0_g_0.2_b_0.2_sc_r_1.0_g_1.0_b_1.0_ec_r_0.0_g_0.0_b_0_mat"/>
                        </technique_common>
                    </bind_material>
                </instance_geometry>
            </node>
        </visual_scene>
    </library_visual_scenes>
    <scene>
        <instance_visual_scene url="#Building_DEBW_5221000QWrk"/>
    </scene>
</COLLADA>
