<?xml version="1.0" encoding="UTF-8" standalone="yes"?>
<COLLADA xmlns="http://www.collada.org/2005/11/COLLADASchema" version="1.4.1">
    <asset>
        <contributor>
            <authoring_tool>3D City Database Importer/Exporter, version 5.5.3; Chair of Geoinformatics, Technical University of Munich</authoring_tool>
        </contributor>
        <created>2026-05-06T15:12:11.995</created>
        <modified>2026-05-06T15:12:11.995</modified>
        <unit meter="1.0" name="meters"/>
        <up_axis>Z_UP</up_axis>
    </asset>
    <library_materials>
        <material id="default_ai_0.2_sh_0.2_tr_0.0_dc_r_0.8_g_0.8_b_0.8_sc_r_1.0_g_1.0_b_1.0_ec_r_0.0_g_0.0_b_0_mat">
            <instance_effect url="#default_ai_0.2_sh_0.2_tr_0.0_dc_r_0.8_g_0.8_b_0.8_sc_r_1.0_g_1.0_b_1.0_ec_r_0.0_g_0.0_b_0_eff"/>
        </material>
        <material id="default_ai_0.2_sh_0.2_tr_0.0_dc_r_1.0_g_0.2_b_0.2_sc_r_1.0_g_1.0_b_1.0_ec_r_0.0_g_0.0_b_0_mat">
            <instance_effect url="#default_ai_0.2_sh_0.2_tr_0.0_dc_r_1.0_g_0.2_b_0.2_sc_r_1.0_g_1.0_b_1.0_ec_r_0.0_g_0.0_b_0_eff"/>
        </material>
    </library_materials>
    <library_effects>
        <effect id="default_ai_0.2_sh_0.2_tr_0.0_dc_r_0.8_g_0.8_b_0.8_sc_r_1.0_g_1.0_b_1.0_ec_r_0.0_g_0.0_b_0_eff">
            <profile_COMMON>
                <technique sid="COMMON">
                    <lambert>
                        <emission>
                            <color>0.0 0.0 0.0 1.0</color>
                        </emission>
                        <diffuse>
                            <color>0.8 0.8 0.8 1.0</color>
                        </diffuse>
                        <reflective>
                            <color>1.0 1.0 1.0 1.0</color>
                        </reflective>
                        <reflectivity>
                            <float>0.2</float>
                        </reflectivity>
                        <transparent opaque="A_ONE">
                            <color>1.0 1.0 1.0 1.0</color>
                        </transparent>
                        <transparency>
                            <float>1.0</float>
                        </transparency>
                    </lambert>
                </technique>
                <extra>
                    <technique profile="GOOGLEEARTH">
                        <double_sided>0</double_sided>
                    </technique>
                </extra>
            </profile_COMMON>
        </effect>
        <effect id="default_ai_0.2_sh_0.2_tr_0.0_dc_r_1.0_g_0.2_b_0.2_sc_r_1.0_g_1.0_b_1.0_ec_r_0.0_g_0.0_b_0_eff">
            <profile_COMMON>
                <technique sid="COMMON">
                    <lambert>
                        <emission>
                            <color>0.0 0.0 0.0 1.0</color>
                        </emission>
                        <diffuse>
                            <color>1.0 0.2 0.2 1.0</color>
                        </diffuse>
                        <reflective>
                            <color>1.0 1.0 1.0 1.0</color>
                        </reflective>
                        <reflectivity>
                            <float>0.2</float>
                        </reflectivity>
                        <transparent opaque="A_ONE">
                            <color>1.0 1.0 1.0 1.0</color>
                        </transparent>
                        <transparency>
                            <float>1.0</float>
                        </transparency>
                    </lambert>
                </technique>
                <extra>
                    <technique profile="GOOGLEEARTH">
                        <double_sided>0</double_sided>
                    </technique>
                </extra>
            </profile_COMMON>
        </effect>
    </library_effects>
    <library_geometries>
        <geometry id="geometry0">
            <mesh>
                <source id="geometry0-position">
                    <float_array id="geometry0-position-array" count="105">-4.91 2.67 5.992 0.0 0.0 5.992 0.0 0.0 0.0 -4.91 2.67 0.0 -6.109 0.496 7.45 -6.09 0.53 7.428 -6.09 0.53 0.0 -6.109 0.496 0.0 -1.17 -2.15 7.43 -1.17 -2.15 0.0 -4.16 -7.29 0.0 -8.02 -5.27 0.0 -13.232 -2.542 0.0 -11.711 0.312 0.0 -10.39 2.79 0.0 -2.485 -4.573 0.0 -4.98 -9.17 0.0 -5.17 -9.07 0.0 -11.711 0.312 9.051 -13.232 -2.542 7.15 -8.02 -5.27 7.167 -4.16 -7.29 7.179 -5.17 -9.07 5.977 -4.98 -9.17 5.977 -2.485 -4.573 9.051 -1.17 -2.15 7.482 -6.09 0.53 7.444 -6.109 0.496 7.466 -10.39 2.79 7.453 -8.95 -6.98 5.878 -8.02 -5.27 7.268 -13.232 -2.542 7.195 -14.1 -4.17 5.878 -14.1 -4.17 0.0 -8.95 -6.98 0.0</float_array>
                    <technique_common>
                        <accessor count="35" source="#geometry0-position-array" stride="3">
                            <param name="X" type="float"/>
                            <param name="Y" type="float"/>
                            <param name="Z" type="float"/>
                        </accessor>
                    </technique_common>
                </source>
                <source id="geometry0-normal">
                    <float_array id="geometry0-normal-array" count="414">0.4637275 0.8859779 0.0 0.4637275 0.8859779 0.0 0.4637275 0.8859779 0.0 0.4637275 0.8859779 0.0 0.8729427 -0.4878226 0.0 0.8729427 -0.4878227 0.0 0.8729428 -0.4878227 0.0 0.8729427 -0.4878226 0.0 0.8729427 -0.4878226 0.0 0.2314609 0.4371226 0.8691087 0.2314368 0.4371005 0.8691261 0.2314609 0.4371226 0.8691087 0.2314849 0.4371445 0.8690911 0.4198912 0.7809697 -0.462361 0.4198912 0.7809697 -0.462361 0.4198912 0.7809697 -0.462361 0.2302819 0.4346798 0.8706455 0.2302819 0.4346798 0.8706455 0.2302819 0.4346798 0.8706455 0.4722363 0.881472 0.0 0.4722363 0.881472 0.0 0.4722363 0.881472 0.0 0.4722362 0.881472 0.0 -0.4722363 -0.881472 0.0 -0.4722363 -0.881472 0.0 -0.4722363 -0.881472 0.0 -0.4722362 -0.881472 0.0 -0.4657478 -0.8849176 0.0 -0.4657478 -0.8849176 0.0 -0.4657478 -0.8849176 0.0 -0.4657478 -0.8849176 0.0 0.8788946 -0.4770159 0.0 0.8788946 -0.4770159 0.0 0.8788946 -0.4770159 0.0 0.8788946 -0.4770159 0.0 -0.4637275 -0.8859779 0.0 -0.4637275 -0.8859779 0.0 -0.4637275 -0.8859779 0.0 -0.4637275 -0.8859779 0.0 -0.4789715 -0.8778304 0.0 -0.4789715 -0.8778304 0.0 -0.4789715 -0.8778304 0.0 -0.4789715 -0.8778304 0.0 0.4637275 0.8859779 0.0 0.4637275 0.8859779 0.0 0.4637275 0.8859779 0.0 0.4637275 0.8859779 0.0 -0.8824984 0.4703153 0.0 -0.8824984 0.4703153 0.0 -0.8824984 0.4703153 0.0 -0.8824984 0.4703153 0.0 0.4777235 0.8785102 0.0 0.4777235 0.8785102 0.0 0.4777235 0.8785102 0.0 0.4777235 0.8785102 0.0 -0.8729427 0.4878226 0.0 -0.8729427 0.4878226 0.0 -0.8729427 0.4878226 0.0 -0.8729427 0.4878226 0.0 -0.8824416 0.4704219 0.0 -0.8824416 0.4704219 0.0 -0.8824416 0.4704219 0.0 -0.8824416 0.4704219 0.0 0.0 0.0 -1.0 0.0 0.0 -1.0 0.0 0.0 -1.0 0.0 0.0 -1.0 0.2422394 0.436464 0.8664984 0.2419139 0.4450371 0.8622178 0.2421719 0.4393406 0.8650622 0.2422972 0.4364856 0.8664712 0.2420293 0.4450801 0.8621632 0.8783635 -0.4779931 0.0 0.8783635 -0.4779931 0.0 0.8783635 -0.4779931 0.0 0.8783635 -0.4779931 0.0 0.4652373 0.8851861 0.0 0.4652373 0.885186 0.0 0.4652373 0.8851861 0.0 0.4652373 0.885186 0.0 -0.2783424 -0.5100728 0.8138497 -0.2783938 -0.5101101 0.8138087 -0.2783424 -0.5100728 0.8138497 -0.2782911 -0.5100353 0.8138906 0.0 0.0 -1.0 0.0 0.0 -1.0 0.0 0.0 -1.0 0.0 0.0 -1.0 0.0 0.0 -1.0 -0.8697425 0.4935058 0.0 -0.8697426 0.4935058 0.0 -0.8697425 0.4935058 0.0 -0.8697425 0.4935058 0.0 0.0 0.0 -1.0 0.0 0.0 -1.0 0.0 0.0 -1.0 0.0 0.0 -1.0 0.0 0.0 -1.0 0.0 0.0 -1.0 0.0 0.0 -1.0 0.0 0.0 -1.0 0.0 0.0 -1.0 0.0 0.0 -1.0 0.0 0.0 -1.0 0.878484 -0.4777717 0.0 0.8784841 -0.4777717 0.0 0.878484 -0.4777717 0.0 0.878484 -0.4777717 0.0 0.8784841 -0.4777717 0.0 -0.8824129 0.4704757 0.0 -0.8824129 0.4704757 0.0 -0.8824128 0.470476 0.0 -0.8824127 0.4704761 0.0 -0.8824126 0.4704764 0.0 -0.875697 0.482861 0.0 -0.875697 0.482861 0.0 -0.875697 0.482861 0.0 -0.875697 0.482861 0.0 -0.4636638 -0.8860112 0.0 -0.4636638 -0.8860112 0.0 -0.4636638 -0.8860112 0.0 -0.4636638 -0.8860112 0.0 -0.2384859 -0.4469635 0.8621764 -0.2360023 -0.4484028 0.8621125 -0.2380275 -0.4472478 0.8621556 -0.2383496 -0.4470132 0.8621884 -0.2370931 -0.4477758 0.862139 -0.2370844 -0.4477557 0.8621519 -0.2371997 -0.4478115 0.8620911 0.8789055 -0.4769958 0.0 0.8789055 -0.4769958 0.0 0.8789055 -0.4769958 0.0 0.8789055 -0.4769958 0.0 0.8789056 -0.4769958 0.0 0.4722363 0.881472 0.0 0.4722362 0.881472 0.0 0.4722363 0.881472 0.0 0.4722363 0.881472 0.0</float_array>
                    <technique_common>
                        <accessor count="138" source="#geometry0-normal-array" stride="3">
                            <param name="X" type="float"/>
                            <param name="Y" type="float"/>
                            <param name="Z" type="float"/>
                        </accessor>
                    </technique_common>
                </source>
                <vertices id="geometry0-vertex">
                    <input semantic="POSITION" source="#geometry0-position"/>
                </vertices>
                <triangles count="62" material="default_ai_0.2_sh_0.2_tr_0.0_dc_r_0.8_g_0.8_b_0.8_sc_r_1.0_g_1.0_b_1.0_ec_r_0.0_g_0.0_b_0_tri">
                    <input offset="0" semantic="VERTEX" source="#geometry0-vertex"/>
                    <input offset="1" semantic="NORMAL" source="#geometry0-normal"/>
                    <p>20 0 19 1 31 2 20 0 31 2 30 3 7 4 6 5 26 6 4 7 7 4 26 6 4 7 26 6 27 8 8 19 9 20 7 21 8 19 7 21 4 22 7 23 9 24 8 25 7 23 8 25 4 26 23 27 22 28 17 29 23 27 17 29 16 30 24 31 23 32 16 33 24 31 16 33 15 34 19 35 12 36 11 37 19 35 11 37 20 38 29 39 32 40 33 41 29 39 33 41 34 42 20 43 11 44 12 45 20 43 12 45 19 46 19 47 18 48 13 49 19 47 13 49 12 50 0 51 1 52 2 53 0 51 2 53 3 54 4 55 5 56 6 57 4 55 6 57 7 58 18 59 28 60 14 61 18 59 14 61 13 62 33 63 12 64 11 65 33 63 11 65 34 66 1 72 8 73 9 74 1 72 9 74 2 75 28 76 26 77 6 78 28 76 6 78 14 79 3 84 2 85 9 86 6 87 3 84 9 86 6 87 9 86 7 88 22 89 21 90 10 91 22 89 10 91 17 92 11 93 12 94 10 95 12 94 13 96 10 95 13 96 14 97 10 95 6 98 7 99 14 97 14 97 7 99 10 95 7 99 9 100 10 95 10 95 9 100 17 101 17 101 9 100 16 102 16 102 9 100 15 103 34 104 11 105 20 106 34 104 20 106 30 107 34 104 30 107 29 108 12 109 33 110 32 111 19 112 12 109 32 111 19 112 32 111 31 113 5 114 0 115 3 116 5 114 3 116 6 117 21 118 20 119 11 120 21 118 11 120 10 121 15 129 9 130 8 131 15 129 8 131 25 132 15 129 25 132 24 133 8 134 4 135 27 136 8 134 27 136 25 137</p>
                </triangles>
                <triangles count="14" material="default_ai_0.2_sh_0.2_tr_0.0_dc_r_1.0_g_0.2_b_0.2_sc_r_1.0_g_1.0_b_1.0_ec_r_0.0_g_0.0_b_0_tri">
                    <input offset="0" semantic="VERTEX" source="#geometry0-vertex"/>
                    <input offset="1" semantic="NORMAL" source="#geometry0-normal"/>
                    <p>28 9 18 10 24 11 28 9 24 11 25 12 28 13 25 14 27 15 28 16 27 17 26 18 4 67 8 68 1 69 5 70 4 67 1 69 5 70 1 69 0 71 29 80 30 81 31 82 29 80 31 82 32 83 22 122 23 123 24 124 21 125 22 122 24 124 21 125 24 124 18 126 20 127 21 125 18 126 20 127 18 126 19 128</p>
                </triangles>
            </mesh>
        </geometry>
    </library_geometries>
    <library_visual_scenes>
        <visual_scene id="Building_DEBW_5221000QswB">
            <node>
                <instance_geometry url="#geometry0">
                    <bind_material>
                        <technique_common>
                            <instance_material symbol="default_ai_0.2_sh_0.2_tr_0.0_dc_r_0.8_g_0.8_b_0.8_sc_r_1.0_g_1.0_b_1.0_ec_r_0.0_g_0.0_b_0_tri" target="#default_ai_0.2_sh_0.2_tr_0.0_dc_r_0.8_g_0.8_b_0.8_sc_r_1.0_g_1.0_b_1.0_ec_r_0.0_g_0.0_b_0_mat"/>
                            <instance_material symbol="default_ai_0.2_sh_0.2_tr_0.0_dc_r_1.0_g_0.2_b_0.2_sc_r_1.0_g_1.0_b_1.0_ec_r_0.0_g_0.0_b_0_tri" target="#default_ai_0.2_sh_0.2_tr_0.0_dc_r_1.0_g_0.2_b_0.2_sc_r_1.0_g_1.0_b_1.0_ec_r_0.0_g_0.0_b_0_mat"/>
                        </technique_common>
                    </bind_material>
                </instance_geometry>
            </node>
        </visual_scene>
    </library_visual_scenes>
    <scene>
        <instance_visual_scene url="#Building_DEBW_5221000QswB"/>
    </scene>
</COLLADA>
