<?xml version="1.0" encoding="UTF-8" standalone="yes"?>
<COLLADA xmlns="http://www.collada.org/2005/11/COLLADASchema" version="1.4.1">
    <asset>
        <contributor>
            <authoring_tool>3D City Database Importer/Exporter, version 5.5.3; Chair of Geoinformatics, Technical University of Munich</authoring_tool>
        </contributor>
        <created>2026-05-06T15:12:07.036</created>
        <modified>2026-05-06T15:12:07.036</modified>
        <unit meter="1.0" name="meters"/>
        <up_axis>Z_UP</up_axis>
    </asset>
    <library_materials>
        <material id="default_ai_0.2_sh_0.2_tr_0.0_dc_r_0.8_g_0.8_b_0.8_sc_r_1.0_g_1.0_b_1.0_ec_r_0.0_g_0.0_b_0_mat">
            <instance_effect url="#default_ai_0.2_sh_0.2_tr_0.0_dc_r_0.8_g_0.8_b_0.8_sc_r_1.0_g_1.0_b_1.0_ec_r_0.0_g_0.0_b_0_eff"/>
        </material>
        <material id="default_ai_0.2_sh_0.2_tr_0.0_dc_r_1.0_g_0.2_b_0.2_sc_r_1.0_g_1.0_b_1.0_ec_r_0.0_g_0.0_b_0_mat">
            <instance_effect url="#default_ai_0.2_sh_0.2_tr_0.0_dc_r_1.0_g_0.2_b_0.2_sc_r_1.0_g_1.0_b_1.0_ec_r_0.0_g_0.0_b_0_eff"/>
        </material>
    </library_materials>
    <library_effects>
        <effect id="default_ai_0.2_sh_0.2_tr_0.0_dc_r_0.8_g_0.8_b_0.8_sc_r_1.0_g_1.0_b_1.0_ec_r_0.0_g_0.0_b_0_eff">
            <profile_COMMON>
                <technique sid="COMMON">
                    <lambert>
                        <emission>
                            <color>0.0 0.0 0.0 1.0</color>
                        </emission>
                        <diffuse>
                            <color>0.8 0.8 0.8 1.0</color>
                        </diffuse>
                        <reflective>
                            <color>1.0 1.0 1.0 1.0</color>
                        </reflective>
                        <reflectivity>
                            <float>0.2</float>
                        </reflectivity>
                        <transparent opaque="A_ONE">
                            <color>1.0 1.0 1.0 1.0</color>
                        </transparent>
                        <transparency>
                            <float>1.0</float>
                        </transparency>
                    </lambert>
                </technique>
                <extra>
                    <technique profile="GOOGLEEARTH">
                        <double_sided>0</double_sided>
                    </technique>
                </extra>
            </profile_COMMON>
        </effect>
        <effect id="default_ai_0.2_sh_0.2_tr_0.0_dc_r_1.0_g_0.2_b_0.2_sc_r_1.0_g_1.0_b_1.0_ec_r_0.0_g_0.0_b_0_eff">
            <profile_COMMON>
                <technique sid="COMMON">
                    <lambert>
                        <emission>
                            <color>0.0 0.0 0.0 1.0</color>
                        </emission>
                        <diffuse>
                            <color>1.0 0.2 0.2 1.0</color>
                        </diffuse>
                        <reflective>
                            <color>1.0 1.0 1.0 1.0</color>
                        </reflective>
                        <reflectivity>
                            <float>0.2</float>
                        </reflectivity>
                        <transparent opaque="A_ONE">
                            <color>1.0 1.0 1.0 1.0</color>
                        </transparent>
                        <transparency>
                            <float>1.0</float>
                        </transparency>
                    </lambert>
                </technique>
                <extra>
                    <technique profile="GOOGLEEARTH">
                        <double_sided>0</double_sided>
                    </technique>
                </extra>
            </profile_COMMON>
        </effect>
    </library_effects>
    <library_geometries>
        <geometry id="geometry0">
            <mesh>
                <source id="geometry0-position">
                    <float_array id="geometry0-position-array" count="72">-0.82 -0.75 8.88 0.0 0.0 8.88 0.0 0.0 0.0 -0.82 -0.75 0.0 2.15 -2.26 0.0 -7.34 -11.32 0.0 -9.7 -8.86 0.0 -8.92 -8.12 0.0 -10.72 -6.24 0.0 -11.49 -6.98 0.0 -11.68 -6.75 0.0 -2.19 2.3 0.0 -2.12 2.23 0.0 -2.94 1.45 0.0 -9.7 -8.86 8.88 -8.92 -8.12 8.88 -10.72 -6.24 8.88 2.15 -2.26 8.88 -7.34 -11.32 8.88 -11.49 -6.98 8.88 -11.68 -6.75 8.88 -2.19 2.3 8.88 -2.94 1.45 8.88 -2.12 2.23 8.88</float_array>
                    <technique_common>
                        <accessor count="24" source="#geometry0-position-array" stride="3">
                            <param name="X" type="float"/>
                            <param name="Y" type="float"/>
                            <param name="Z" type="float"/>
                        </accessor>
                    </technique_common>
                </source>
                <source id="geometry0-normal">
                    <float_array id="geometry0-normal-array" count="216">-0.6749092 0.7379007 0.0 -0.6749092 0.7379007 0.0 -0.6749092 0.7379007 0.0 -0.6749092 0.7379007 0.0 -0.722308 -0.6915715 0.0 -0.722308 -0.6915715 0.0 -0.722308 -0.6915715 0.0 -0.722308 -0.6915715 0.0 0.724519 0.6892548 0.0 0.724519 0.6892548 0.0 0.724519 0.6892548 0.0 0.724519 0.6892548 0.0 0.6929219 -0.7210127 0.0 0.6929219 -0.7210127 0.0 0.6929219 -0.7210127 0.0 0.6929219 -0.7210127 0.0 0.7071056 0.707108 0.0 0.7071056 0.707108 0.0 0.7071056 0.707108 0.0 0.7071056 0.707108 0.0 0.0 0.0 -1.0 0.0 0.0 -1.0 0.0 0.0 -1.0 0.0 0.0 -1.0 0.0 0.0 -1.0 0.0 0.0 -1.0 0.0 0.0 -1.0 0.0 0.0 -1.0 0.0 0.0 -1.0 0.0 0.0 -1.0 0.0 0.0 -1.0 0.0 0.0 -1.0 0.7200779 0.6938933 0.0 0.7200779 0.6938933 0.0 0.7200779 0.6938933 0.0 0.7200779 0.6938933 0.0 -0.7709609 -0.6368825 0.0 -0.7709609 -0.6368825 0.0 -0.7709609 -0.6368825 0.0 -0.7709609 -0.6368825 0.0 -0.7216218 -0.6922874 0.0 -0.7216218 -0.6922874 0.0 -0.7216218 -0.6922874 0.0 -0.7216218 -0.6922874 0.0 -0.6901311 0.7236844 0.0 -0.6901311 0.7236844 0.0 -0.6901311 0.7236844 0.0 -0.6901311 0.7236844 0.0 0.6892137 -0.7245581 0.0 0.6892137 -0.7245581 0.0 0.6892137 -0.7245581 0.0 0.6892137 -0.7245581 0.0 0.6905301 -0.7233036 0.0 0.6905301 -0.7233036 0.0 0.6905301 -0.7233036 0.0 0.6905301 -0.7233036 0.0 -0.6882604 0.7254637 0.0 -0.6882604 0.7254637 0.0 -0.6882604 0.7254637 0.0 -0.6882604 0.7254637 0.0 0.0 0.0 1.0 0.0 0.0 1.0 0.0 0.0 1.0 0.0 0.0 1.0 0.0 0.0 1.0 0.0 0.0 1.0 0.0 0.0 1.0 0.0 0.0 1.0 0.0 0.0 1.0 0.0 0.0 1.0 0.0 0.0 1.0 0.0 0.0 1.0</float_array>
                    <technique_common>
                        <accessor count="72" source="#geometry0-normal-array" stride="3">
                            <param name="X" type="float"/>
                            <param name="Y" type="float"/>
                            <param name="Z" type="float"/>
                        </accessor>
                    </technique_common>
                </source>
                <vertices id="geometry0-vertex">
                    <input semantic="POSITION" source="#geometry0-position"/>
                </vertices>
                <triangles count="34" material="default_ai_0.2_sh_0.2_tr_0.0_dc_r_0.8_g_0.8_b_0.8_sc_r_1.0_g_1.0_b_1.0_ec_r_0.0_g_0.0_b_0_tri">
                    <input offset="0" semantic="VERTEX" source="#geometry0-vertex"/>
                    <input offset="1" semantic="NORMAL" source="#geometry0-normal"/>
                    <p>0 0 1 1 2 2 0 0 2 2 3 3 15 4 16 5 8 6 15 4 8 6 7 7 1 8 17 9 4 10 1 8 4 10 2 11 16 12 19 13 9 14 16 12 9 14 8 15 21 16 23 17 12 18 21 16 12 18 11 19 2 20 4 21 3 22 4 21 5 23 3 22 3 22 5 23 13 24 6 25 7 26 5 23 5 23 7 26 13 24 7 26 8 27 13 24 8 27 9 28 13 24 9 28 10 29 13 24 13 24 10 29 12 30 12 30 10 29 11 31 22 32 0 33 3 34 22 32 3 34 13 35 19 36 20 37 10 38 19 36 10 38 9 39 18 40 14 41 6 42 18 40 6 42 5 43 20 44 21 45 11 46 20 44 11 46 10 47 23 48 22 49 13 50 23 48 13 50 12 51 17 52 18 53 5 54 17 52 5 54 4 55 14 56 15 57 7 58 14 56 7 58 6 59</p>
                </triangles>
                <triangles count="10" material="default_ai_0.2_sh_0.2_tr_0.0_dc_r_1.0_g_0.2_b_0.2_sc_r_1.0_g_1.0_b_1.0_ec_r_0.0_g_0.0_b_0_tri">
                    <input offset="0" semantic="VERTEX" source="#geometry0-vertex"/>
                    <input offset="1" semantic="NORMAL" source="#geometry0-normal"/>
                    <p>23 60 21 61 22 62 21 61 20 63 22 62 22 62 20 63 0 64 19 65 16 66 20 63 20 63 16 66 0 64 16 66 15 67 0 64 15 67 14 68 0 64 14 68 18 69 0 64 0 64 18 69 1 70 1 70 18 69 17 71</p>
                </triangles>
            </mesh>
        </geometry>
    </library_geometries>
    <library_visual_scenes>
        <visual_scene id="Building_DEBW_5221000Qjke">
            <node>
                <instance_geometry url="#geometry0">
                    <bind_material>
                        <technique_common>
                            <instance_material symbol="default_ai_0.2_sh_0.2_tr_0.0_dc_r_0.8_g_0.8_b_0.8_sc_r_1.0_g_1.0_b_1.0_ec_r_0.0_g_0.0_b_0_tri" target="#default_ai_0.2_sh_0.2_tr_0.0_dc_r_0.8_g_0.8_b_0.8_sc_r_1.0_g_1.0_b_1.0_ec_r_0.0_g_0.0_b_0_mat"/>
                            <instance_material symbol="default_ai_0.2_sh_0.2_tr_0.0_dc_r_1.0_g_0.2_b_0.2_sc_r_1.0_g_1.0_b_1.0_ec_r_0.0_g_0.0_b_0_tri" target="#default_ai_0.2_sh_0.2_tr_0.0_dc_r_1.0_g_0.2_b_0.2_sc_r_1.0_g_1.0_b_1.0_ec_r_0.0_g_0.0_b_0_mat"/>
                        </technique_common>
                    </bind_material>
                </instance_geometry>
            </node>
        </visual_scene>
    </library_visual_scenes>
    <scene>
        <instance_visual_scene url="#Building_DEBW_5221000Qjke"/>
    </scene>
</COLLADA>
