<?xml version="1.0" encoding="UTF-8" standalone="yes"?>
<COLLADA xmlns="http://www.collada.org/2005/11/COLLADASchema" version="1.4.1">
    <asset>
        <contributor>
            <authoring_tool>3D City Database Importer/Exporter, version 5.5.3; Chair of Geoinformatics, Technical University of Munich</authoring_tool>
        </contributor>
        <created>2026-05-06T15:12:10.477</created>
        <modified>2026-05-06T15:12:10.477</modified>
        <unit meter="1.0" name="meters"/>
        <up_axis>Z_UP</up_axis>
    </asset>
    <library_materials>
        <material id="default_ai_0.2_sh_0.2_tr_0.0_dc_r_1.0_g_0.2_b_0.2_sc_r_1.0_g_1.0_b_1.0_ec_r_0.0_g_0.0_b_0_mat">
            <instance_effect url="#default_ai_0.2_sh_0.2_tr_0.0_dc_r_1.0_g_0.2_b_0.2_sc_r_1.0_g_1.0_b_1.0_ec_r_0.0_g_0.0_b_0_eff"/>
        </material>
        <material id="default_ai_0.2_sh_0.2_tr_0.0_dc_r_0.8_g_0.8_b_0.8_sc_r_1.0_g_1.0_b_1.0_ec_r_0.0_g_0.0_b_0_mat">
            <instance_effect url="#default_ai_0.2_sh_0.2_tr_0.0_dc_r_0.8_g_0.8_b_0.8_sc_r_1.0_g_1.0_b_1.0_ec_r_0.0_g_0.0_b_0_eff"/>
        </material>
    </library_materials>
    <library_effects>
        <effect id="default_ai_0.2_sh_0.2_tr_0.0_dc_r_1.0_g_0.2_b_0.2_sc_r_1.0_g_1.0_b_1.0_ec_r_0.0_g_0.0_b_0_eff">
            <profile_COMMON>
                <technique sid="COMMON">
                    <lambert>
                        <emission>
                            <color>0.0 0.0 0.0 1.0</color>
                        </emission>
                        <diffuse>
                            <color>1.0 0.2 0.2 1.0</color>
                        </diffuse>
                        <reflective>
                            <color>1.0 1.0 1.0 1.0</color>
                        </reflective>
                        <reflectivity>
                            <float>0.2</float>
                        </reflectivity>
                        <transparent opaque="A_ONE">
                            <color>1.0 1.0 1.0 1.0</color>
                        </transparent>
                        <transparency>
                            <float>1.0</float>
                        </transparency>
                    </lambert>
                </technique>
                <extra>
                    <technique profile="GOOGLEEARTH">
                        <double_sided>0</double_sided>
                    </technique>
                </extra>
            </profile_COMMON>
        </effect>
        <effect id="default_ai_0.2_sh_0.2_tr_0.0_dc_r_0.8_g_0.8_b_0.8_sc_r_1.0_g_1.0_b_1.0_ec_r_0.0_g_0.0_b_0_eff">
            <profile_COMMON>
                <technique sid="COMMON">
                    <lambert>
                        <emission>
                            <color>0.0 0.0 0.0 1.0</color>
                        </emission>
                        <diffuse>
                            <color>0.8 0.8 0.8 1.0</color>
                        </diffuse>
                        <reflective>
                            <color>1.0 1.0 1.0 1.0</color>
                        </reflective>
                        <reflectivity>
                            <float>0.2</float>
                        </reflectivity>
                        <transparent opaque="A_ONE">
                            <color>1.0 1.0 1.0 1.0</color>
                        </transparent>
                        <transparency>
                            <float>1.0</float>
                        </transparency>
                    </lambert>
                </technique>
                <extra>
                    <technique profile="GOOGLEEARTH">
                        <double_sided>0</double_sided>
                    </technique>
                </extra>
            </profile_COMMON>
        </effect>
    </library_effects>
    <library_geometries>
        <geometry id="geometry0">
            <mesh>
                <source id="geometry0-position">
                    <float_array id="geometry0-position-array" count="30">3.87 -8.51 7.396 0.0 0.0 7.431 -4.711 -2.074 11.953 -1.916 -8.291 11.953 -9.7 -4.27 7.188 0.0 0.0 0.0 -9.7 -4.27 0.0 3.87 -8.51 0.0 -5.86 -12.91 7.153 -5.86 -12.91 0.0</float_array>
                    <technique_common>
                        <accessor count="10" source="#geometry0-position-array" stride="3">
                            <param name="X" type="float"/>
                            <param name="Y" type="float"/>
                            <param name="Z" type="float"/>
                        </accessor>
                    </technique_common>
                </source>
                <source id="geometry0-normal">
                    <float_array id="geometry0-normal-array" count="102">0.3505796 -0.8019708 0.4836701 0.3505796 -0.8019708 0.4836701 0.3505796 -0.8019708 0.4836701 0.4120383 -0.9111665 0.0 0.4120383 -0.9111665 0.0 0.4120383 -0.9111665 0.0 0.4120383 -0.9111665 0.0 0.9102932 0.4139641 0.0 0.9102932 0.4139641 0.0 0.9102932 0.4139641 0.0 0.9102932 0.4139641 0.0 -0.6002824 -0.2698567 0.7528867 -0.6002793 -0.2698407 0.7528949 -0.6002824 -0.2698567 0.7528867 -0.6002856 -0.2698727 0.7528784 -0.9138116 -0.4061385 0.0 -0.9138116 -0.4061385 0.0 -0.9138116 -0.4061385 0.0 -0.9138116 -0.4061385 0.0 -0.4028968 0.9152455 0.0 -0.4028967 0.9152455 0.0 -0.4028968 0.9152455 0.0 -0.4028968 0.9152455 0.0 -0.4028975 0.9152451 3.72E-5 -0.4028975 0.9152451 3.72E-5 -0.4028975 0.9152451 3.72E-5 0.6019538 0.2706384 0.7512698 0.6019614 0.2706576 0.7512569 0.6019538 0.2706384 0.7512698 0.6019464 0.2706192 0.7512827 0.0 0.0 -1.0 0.0 0.0 -1.0 0.0 0.0 -1.0 0.0 0.0 -1.0</float_array>
                    <technique_common>
                        <accessor count="34" source="#geometry0-normal-array" stride="3">
                            <param name="X" type="float"/>
                            <param name="Y" type="float"/>
                            <param name="Z" type="float"/>
                        </accessor>
                    </technique_common>
                </source>
                <vertices id="geometry0-vertex">
                    <input semantic="POSITION" source="#geometry0-position"/>
                </vertices>
                <triangles count="11" material="default_ai_0.2_sh_0.2_tr_0.0_dc_r_0.8_g_0.8_b_0.8_sc_r_1.0_g_1.0_b_1.0_ec_r_0.0_g_0.0_b_0_tri">
                    <input offset="0" semantic="VERTEX" source="#geometry0-vertex"/>
                    <input offset="1" semantic="NORMAL" source="#geometry0-normal"/>
                    <p>0 3 8 4 9 5 0 3 9 5 7 6 1 7 0 8 7 9 1 7 7 9 5 10 8 15 4 16 6 17 8 15 6 17 9 18 4 19 1 20 5 21 4 19 5 21 6 22 1 23 4 24 2 25 5 30 7 31 9 32 5 30 9 32 6 33</p>
                </triangles>
                <triangles count="5" material="default_ai_0.2_sh_0.2_tr_0.0_dc_r_1.0_g_0.2_b_0.2_sc_r_1.0_g_1.0_b_1.0_ec_r_0.0_g_0.0_b_0_tri">
                    <input offset="0" semantic="VERTEX" source="#geometry0-vertex"/>
                    <input offset="1" semantic="NORMAL" source="#geometry0-normal"/>
                    <p>8 0 0 1 3 2 4 11 8 12 3 13 4 11 3 13 2 14 0 26 1 27 2 28 0 26 2 28 3 29</p>
                </triangles>
            </mesh>
        </geometry>
    </library_geometries>
    <library_visual_scenes>
        <visual_scene id="Building_DEBW_5221000QnfI">
            <node>
                <instance_geometry url="#geometry0">
                    <bind_material>
                        <technique_common>
                            <instance_material symbol="default_ai_0.2_sh_0.2_tr_0.0_dc_r_0.8_g_0.8_b_0.8_sc_r_1.0_g_1.0_b_1.0_ec_r_0.0_g_0.0_b_0_tri" target="#default_ai_0.2_sh_0.2_tr_0.0_dc_r_0.8_g_0.8_b_0.8_sc_r_1.0_g_1.0_b_1.0_ec_r_0.0_g_0.0_b_0_mat"/>
                            <instance_material symbol="default_ai_0.2_sh_0.2_tr_0.0_dc_r_1.0_g_0.2_b_0.2_sc_r_1.0_g_1.0_b_1.0_ec_r_0.0_g_0.0_b_0_tri" target="#default_ai_0.2_sh_0.2_tr_0.0_dc_r_1.0_g_0.2_b_0.2_sc_r_1.0_g_1.0_b_1.0_ec_r_0.0_g_0.0_b_0_mat"/>
                        </technique_common>
                    </bind_material>
                </instance_geometry>
            </node>
        </visual_scene>
    </library_visual_scenes>
    <scene>
        <instance_visual_scene url="#Building_DEBW_5221000QnfI"/>
    </scene>
</COLLADA>
