<?xml version="1.0" encoding="UTF-8" standalone="yes"?>
<COLLADA xmlns="http://www.collada.org/2005/11/COLLADASchema" version="1.4.1">
    <asset>
        <contributor>
            <authoring_tool>3D City Database Importer/Exporter, version 5.5.3; Chair of Geoinformatics, Technical University of Munich</authoring_tool>
        </contributor>
        <created>2026-05-06T15:12:07.248</created>
        <modified>2026-05-06T15:12:07.248</modified>
        <unit meter="1.0" name="meters"/>
        <up_axis>Z_UP</up_axis>
    </asset>
    <library_materials>
        <material id="default_ai_0.2_sh_0.2_tr_0.0_dc_r_0.8_g_0.8_b_0.8_sc_r_1.0_g_1.0_b_1.0_ec_r_0.0_g_0.0_b_0_mat">
            <instance_effect url="#default_ai_0.2_sh_0.2_tr_0.0_dc_r_0.8_g_0.8_b_0.8_sc_r_1.0_g_1.0_b_1.0_ec_r_0.0_g_0.0_b_0_eff"/>
        </material>
        <material id="default_ai_0.2_sh_0.2_tr_0.0_dc_r_1.0_g_0.2_b_0.2_sc_r_1.0_g_1.0_b_1.0_ec_r_0.0_g_0.0_b_0_mat">
            <instance_effect url="#default_ai_0.2_sh_0.2_tr_0.0_dc_r_1.0_g_0.2_b_0.2_sc_r_1.0_g_1.0_b_1.0_ec_r_0.0_g_0.0_b_0_eff"/>
        </material>
    </library_materials>
    <library_effects>
        <effect id="default_ai_0.2_sh_0.2_tr_0.0_dc_r_0.8_g_0.8_b_0.8_sc_r_1.0_g_1.0_b_1.0_ec_r_0.0_g_0.0_b_0_eff">
            <profile_COMMON>
                <technique sid="COMMON">
                    <lambert>
                        <emission>
                            <color>0.0 0.0 0.0 1.0</color>
                        </emission>
                        <diffuse>
                            <color>0.8 0.8 0.8 1.0</color>
                        </diffuse>
                        <reflective>
                            <color>1.0 1.0 1.0 1.0</color>
                        </reflective>
                        <reflectivity>
                            <float>0.2</float>
                        </reflectivity>
                        <transparent opaque="A_ONE">
                            <color>1.0 1.0 1.0 1.0</color>
                        </transparent>
                        <transparency>
                            <float>1.0</float>
                        </transparency>
                    </lambert>
                </technique>
                <extra>
                    <technique profile="GOOGLEEARTH">
                        <double_sided>0</double_sided>
                    </technique>
                </extra>
            </profile_COMMON>
        </effect>
        <effect id="default_ai_0.2_sh_0.2_tr_0.0_dc_r_1.0_g_0.2_b_0.2_sc_r_1.0_g_1.0_b_1.0_ec_r_0.0_g_0.0_b_0_eff">
            <profile_COMMON>
                <technique sid="COMMON">
                    <lambert>
                        <emission>
                            <color>0.0 0.0 0.0 1.0</color>
                        </emission>
                        <diffuse>
                            <color>1.0 0.2 0.2 1.0</color>
                        </diffuse>
                        <reflective>
                            <color>1.0 1.0 1.0 1.0</color>
                        </reflective>
                        <reflectivity>
                            <float>0.2</float>
                        </reflectivity>
                        <transparent opaque="A_ONE">
                            <color>1.0 1.0 1.0 1.0</color>
                        </transparent>
                        <transparency>
                            <float>1.0</float>
                        </transparency>
                    </lambert>
                </technique>
                <extra>
                    <technique profile="GOOGLEEARTH">
                        <double_sided>0</double_sided>
                    </technique>
                </extra>
            </profile_COMMON>
        </effect>
    </library_effects>
    <library_geometries>
        <geometry id="geometry0">
            <mesh>
                <source id="geometry0-position">
                    <float_array id="geometry0-position-array" count="81">0.0 0.0 0.0 -4.97 -0.48 0.0 -5.208 1.988 0.0 -0.25 2.48 0.0 0.0 0.0 6.597 -4.97 -0.48 6.597 -0.25 2.48 6.597 -5.208 1.988 6.597 -5.21 2.01 7.284 -5.21 2.01 7.306 -11.94 1.32 7.285 -5.208 1.988 7.285 -5.21 2.01 0.0 -11.94 1.32 0.0 -0.25 2.48 7.285 -0.65 6.51 11.174 -0.79 7.929 12.544 -12.483 6.769 12.544 -0.65 6.51 7.203 -13.03 12.25 7.062 -13.03 12.25 0.0 -1.33 13.41 7.062 -1.14 11.46 7.102 -1.14 11.46 0.0 -1.33 13.41 0.0 -0.65 6.51 0.0 -1.14 11.46 9.012</float_array>
                    <technique_common>
                        <accessor count="27" source="#geometry0-position-array" stride="3">
                            <param name="X" type="float"/>
                            <param name="Y" type="float"/>
                            <param name="Z" type="float"/>
                        </accessor>
                    </technique_common>
                </source>
                <source id="geometry0-normal">
                    <float_array id="geometry0-normal-array" count="306">0.0987485 -0.9951124 0.0 0.0987485 -0.9951124 0.0 0.0987485 -0.9951124 0.0 0.0987485 -0.9951124 0.0 0.9952866 0.0969767 0.0 0.9952867 0.0969767 0.0 0.9952866 0.0969767 0.0 0.9952866 0.0969767 0.0 0.068378 -0.6885853 0.7219243 0.0680385 -0.68564 0.7247542 0.0682029 -0.687452 0.7230201 0.0685243 -0.6893404 0.7211895 0.0685325 -0.6893673 0.7211629 0.0684011 -0.6892993 0.7212404 0.0684191 -0.689285 0.7212523 -0.9953824 -0.0959892 0.0 -0.9953824 -0.0959892 0.0 -0.9953824 -0.0959892 0.0 -0.9953824 -0.0959892 0.0 0.1019914 -0.9947853 0.0 0.1019914 -0.9947853 0.0 0.1019914 -0.9947853 0.0 0.9952866 0.0969767 0.0 0.9952866 0.0969767 0.0 0.9952866 0.0969767 0.0 0.9951103 0.0987702 0.0 0.9951103 0.0987702 0.0 0.9951103 0.0987702 0.0 0.9951103 0.0987702 0.0 0.9951103 0.0987702 0.0 0.0 0.0 -1.0 0.0 0.0 -1.0 0.0 0.0 -1.0 0.0 0.0 -1.0 0.9951395 0.0984748 -7.78E-5 0.9951362 0.0985084 0.0 0.9951362 0.0985084 0.0 0.9951413 0.098458 -1.167E-4 0.9951462 0.0984075 -2.333E-4 -0.9958938 -0.0905294 0.0 -0.9958938 -0.0905294 0.0 -0.9958938 -0.0905294 0.0 -0.9958938 -0.0905294 0.0 -0.9958938 -0.0905294 0.0 0.9951362 0.0985084 0.0 0.9951362 0.0985084 0.0 0.9951362 0.0985084 0.0 0.9951362 0.0985084 0.0 -0.0986616 0.9951211 0.0 -0.0986616 0.9951211 0.0 -0.0986616 0.9951211 0.0 -0.0986616 0.9951211 0.0 0.0961322 -0.9953685 0.0 0.0961322 -0.9953685 0.0 0.0961322 -0.9953685 0.0 0.0961322 -0.9953685 0.0 0.0 0.0 -1.0 0.0 0.0 -1.0 0.0 0.0 -1.0 0.0 0.0 -1.0 0.0 0.0 -1.0 0.0 0.0 -1.0 0.0 0.0 -1.0 0.0 0.0 -1.0 0.9951103 0.0987702 0.0 0.9951103 0.0987702 0.0 0.9951103 0.0987702 0.0 -0.9958938 -0.0905294 0.0 -0.9958938 -0.0905294 0.0 -0.9958938 -0.0905294 0.0 0.0 0.0 1.0 0.0 0.0 1.0 0.0 0.0 1.0 0.0 0.0 1.0 -0.0987485 0.9951124 0.0 -0.0987485 0.9951124 0.0 -0.0987485 0.9951124 0.0 -0.0987485 0.9951124 0.0 0.0987485 -0.9951124 0.0 0.0987485 -0.9951124 0.0 0.0987485 -0.9951124 0.0 0.0987485 -0.9951124 0.0 -0.9950642 -0.0992333 0.0 -0.9950643 -0.0992333 0.0 -0.9950642 -0.0992333 0.0 -0.9950642 -0.0992333 0.0 0.1019914 -0.9947853 0.0 0.1019914 -0.9947852 0.0 0.1019914 -0.9947853 0.0 0.1019914 -0.9947853 0.0 0.9949574 0.1002981 0.0 0.9949574 0.1002981 0.0 0.9949574 0.1002981 0.0 0.9949574 0.1002981 0.0 -0.9950643 -0.0992318 7.49E-5 -0.9950643 -0.0992318 7.49E-5 -0.9950643 -0.0992318 7.49E-5 -0.0696158 0.7019996 0.7087666 -0.0695993 0.7019933 0.7087746 -0.0696014 0.7019842 0.7087834 -0.069624 0.7020028 0.7087626 -0.0696447 0.7020305 0.7087332</float_array>
                    <technique_common>
                        <accessor count="102" source="#geometry0-normal-array" stride="3">
                            <param name="X" type="float"/>
                            <param name="Y" type="float"/>
                            <param name="Z" type="float"/>
                        </accessor>
                    </technique_common>
                </source>
                <vertices id="geometry0-vertex">
                    <input semantic="POSITION" source="#geometry0-position"/>
                </vertices>
                <triangles count="44" material="default_ai_0.2_sh_0.2_tr_0.0_dc_r_0.8_g_0.8_b_0.8_sc_r_1.0_g_1.0_b_1.0_ec_r_0.0_g_0.0_b_0_tri">
                    <input offset="0" semantic="VERTEX" source="#geometry0-vertex"/>
                    <input offset="1" semantic="NORMAL" source="#geometry0-normal"/>
                    <p>7 0 2 1 3 2 7 0 3 2 6 3 21 4 22 5 23 6 21 4 23 6 24 7 5 15 7 16 2 17 5 15 2 17 1 18 8 19 9 20 10 21 21 22 26 23 22 24 3 25 25 26 18 27 6 28 3 25 18 27 6 28 18 27 14 29 0 30 1 31 2 32 0 30 2 32 3 33 15 34 18 35 22 36 15 34 22 36 26 37 15 34 26 37 16 38 12 39 2 40 7 41 12 39 7 41 11 42 12 39 11 42 8 43 22 44 18 45 25 46 22 44 25 46 23 47 19 48 21 49 24 50 19 48 24 50 20 51 4 52 5 53 1 54 4 52 1 54 0 55 25 56 3 57 2 58 25 56 2 58 12 59 25 56 12 59 13 60 25 56 13 60 20 61 23 62 25 56 20 61 23 62 20 61 24 63 18 64 15 65 14 66 11 67 9 68 8 69 3 74 2 75 7 76 3 74 7 76 6 77 7 78 6 79 14 80 7 78 14 80 11 81 10 82 19 83 20 84 10 82 20 84 13 85 8 86 10 87 13 88 8 86 13 88 12 89 6 90 4 91 0 92 6 90 0 92 3 93 10 94 17 95 19 96</p>
                </triangles>
                <triangles count="10" material="default_ai_0.2_sh_0.2_tr_0.0_dc_r_1.0_g_0.2_b_0.2_sc_r_1.0_g_1.0_b_1.0_ec_r_0.0_g_0.0_b_0_tri">
                    <input offset="0" semantic="VERTEX" source="#geometry0-vertex"/>
                    <input offset="1" semantic="NORMAL" source="#geometry0-normal"/>
                    <p>9 8 11 9 14 10 9 8 14 10 15 11 9 8 15 11 16 12 9 8 16 12 17 13 9 8 17 13 10 14 6 70 7 71 5 72 6 70 5 72 4 73 26 97 21 98 19 99 26 97 19 99 17 100 26 97 17 100 16 101</p>
                </triangles>
            </mesh>
        </geometry>
    </library_geometries>
    <library_visual_scenes>
        <visual_scene id="Building_DEBW_5221000Qi2j">
            <node>
                <instance_geometry url="#geometry0">
                    <bind_material>
                        <technique_common>
                            <instance_material symbol="default_ai_0.2_sh_0.2_tr_0.0_dc_r_0.8_g_0.8_b_0.8_sc_r_1.0_g_1.0_b_1.0_ec_r_0.0_g_0.0_b_0_tri" target="#default_ai_0.2_sh_0.2_tr_0.0_dc_r_0.8_g_0.8_b_0.8_sc_r_1.0_g_1.0_b_1.0_ec_r_0.0_g_0.0_b_0_mat"/>
                            <instance_material symbol="default_ai_0.2_sh_0.2_tr_0.0_dc_r_1.0_g_0.2_b_0.2_sc_r_1.0_g_1.0_b_1.0_ec_r_0.0_g_0.0_b_0_tri" target="#default_ai_0.2_sh_0.2_tr_0.0_dc_r_1.0_g_0.2_b_0.2_sc_r_1.0_g_1.0_b_1.0_ec_r_0.0_g_0.0_b_0_mat"/>
                        </technique_common>
                    </bind_material>
                </instance_geometry>
            </node>
        </visual_scene>
    </library_visual_scenes>
    <scene>
        <instance_visual_scene url="#Building_DEBW_5221000Qi2j"/>
    </scene>
</COLLADA>
