<?xml version="1.0" encoding="UTF-8" standalone="yes"?>
<COLLADA xmlns="http://www.collada.org/2005/11/COLLADASchema" version="1.4.1">
    <asset>
        <contributor>
            <authoring_tool>3D City Database Importer/Exporter, version 5.5.3; Chair of Geoinformatics, Technical University of Munich</authoring_tool>
        </contributor>
        <created>2026-05-06T15:12:08.688</created>
        <modified>2026-05-06T15:12:08.688</modified>
        <unit meter="1.0" name="meters"/>
        <up_axis>Z_UP</up_axis>
    </asset>
    <library_materials>
        <material id="default_ai_0.2_sh_0.2_tr_0.0_dc_r_0.8_g_0.8_b_0.8_sc_r_1.0_g_1.0_b_1.0_ec_r_0.0_g_0.0_b_0_mat">
            <instance_effect url="#default_ai_0.2_sh_0.2_tr_0.0_dc_r_0.8_g_0.8_b_0.8_sc_r_1.0_g_1.0_b_1.0_ec_r_0.0_g_0.0_b_0_eff"/>
        </material>
        <material id="default_ai_0.2_sh_0.2_tr_0.0_dc_r_1.0_g_0.2_b_0.2_sc_r_1.0_g_1.0_b_1.0_ec_r_0.0_g_0.0_b_0_mat">
            <instance_effect url="#default_ai_0.2_sh_0.2_tr_0.0_dc_r_1.0_g_0.2_b_0.2_sc_r_1.0_g_1.0_b_1.0_ec_r_0.0_g_0.0_b_0_eff"/>
        </material>
    </library_materials>
    <library_effects>
        <effect id="default_ai_0.2_sh_0.2_tr_0.0_dc_r_0.8_g_0.8_b_0.8_sc_r_1.0_g_1.0_b_1.0_ec_r_0.0_g_0.0_b_0_eff">
            <profile_COMMON>
                <technique sid="COMMON">
                    <lambert>
                        <emission>
                            <color>0.0 0.0 0.0 1.0</color>
                        </emission>
                        <diffuse>
                            <color>0.8 0.8 0.8 1.0</color>
                        </diffuse>
                        <reflective>
                            <color>1.0 1.0 1.0 1.0</color>
                        </reflective>
                        <reflectivity>
                            <float>0.2</float>
                        </reflectivity>
                        <transparent opaque="A_ONE">
                            <color>1.0 1.0 1.0 1.0</color>
                        </transparent>
                        <transparency>
                            <float>1.0</float>
                        </transparency>
                    </lambert>
                </technique>
                <extra>
                    <technique profile="GOOGLEEARTH">
                        <double_sided>0</double_sided>
                    </technique>
                </extra>
            </profile_COMMON>
        </effect>
        <effect id="default_ai_0.2_sh_0.2_tr_0.0_dc_r_1.0_g_0.2_b_0.2_sc_r_1.0_g_1.0_b_1.0_ec_r_0.0_g_0.0_b_0_eff">
            <profile_COMMON>
                <technique sid="COMMON">
                    <lambert>
                        <emission>
                            <color>0.0 0.0 0.0 1.0</color>
                        </emission>
                        <diffuse>
                            <color>1.0 0.2 0.2 1.0</color>
                        </diffuse>
                        <reflective>
                            <color>1.0 1.0 1.0 1.0</color>
                        </reflective>
                        <reflectivity>
                            <float>0.2</float>
                        </reflectivity>
                        <transparent opaque="A_ONE">
                            <color>1.0 1.0 1.0 1.0</color>
                        </transparent>
                        <transparency>
                            <float>1.0</float>
                        </transparency>
                    </lambert>
                </technique>
                <extra>
                    <technique profile="GOOGLEEARTH">
                        <double_sided>0</double_sided>
                    </technique>
                </extra>
            </profile_COMMON>
        </effect>
    </library_effects>
    <library_geometries>
        <geometry id="geometry0">
            <mesh>
                <source id="geometry0-position">
                    <float_array id="geometry0-position-array" count="60">1.79 26.43 13.554 0.0 0.0 13.554 0.0 0.0 0.0 1.79 26.43 0.0 -0.83 -12.14 13.554 -0.83 -12.14 0.0 -87.34 -44.0 13.554 -84.27 0.92 13.554 -84.27 0.92 0.0 -87.34 -44.0 0.0 -3.37 -49.75 13.554 -42.65 -47.07 13.554 -42.65 -47.07 0.0 -3.37 -49.75 0.0 -48.61 -46.66 13.554 -82.11 32.45 13.554 -83.16 17.12 13.554 -83.16 17.12 0.0 -82.11 32.45 0.0 -48.61 -46.66 0.0</float_array>
                    <technique_common>
                        <accessor count="20" source="#geometry0-position-array" stride="3">
                            <param name="X" type="float"/>
                            <param name="Y" type="float"/>
                            <param name="Z" type="float"/>
                        </accessor>
                    </technique_common>
                </source>
                <source id="geometry0-normal">
                    <float_array id="geometry0-normal-array" count="180">-0.0685192 -0.9976498 0.0 -0.0685192 -0.9976498 0.0 -0.0685192 -0.9976498 0.0 -0.0685192 -0.9976498 0.0 0.9977145 -0.0675713 0.0 0.9977145 -0.0675713 0.0 0.9977145 -0.0675713 0.0 0.9977145 -0.0675713 0.0 -0.9976727 0.0681847 0.0 -0.9976727 0.0681847 0.0 -0.9976727 0.0681847 0.0 -0.9976727 0.0681847 0.0 0.0 0.0 1.0 0.0 0.0 1.0 0.0 0.0 1.0 0.0 0.0 1.0 0.0 0.0 1.0 0.0 0.0 1.0 0.0 0.0 1.0 0.0 0.0 1.0 0.0 0.0 1.0 0.0 0.0 1.0 0.0 0.0 -1.0 0.0 0.0 -1.0 0.0 0.0 -1.0 0.0 0.0 -1.0 0.0 0.0 -1.0 0.0 0.0 -1.0 0.0 0.0 -1.0 0.0 0.0 -1.0 0.0 0.0 -1.0 0.0 0.0 -1.0 -0.9976625 0.0683332 0.0 -0.9976625 0.0683332 0.0 -0.9976625 0.0683332 0.0 -0.9976625 0.0683332 0.0 -0.9976609 0.0683578 0.0 -0.9976609 0.0683578 0.0 -0.9976609 0.0683578 0.0 -0.9976609 0.0683578 0.0 0.997671 -0.0682098 0.0 0.997671 -0.0682098 0.0 0.997671 -0.0682098 0.0 0.997671 -0.0682098 0.0 0.0715681 0.9974357 0.0 0.0715681 0.9974357 0.0 0.0715681 0.9974357 0.0 0.0715681 0.9974357 0.0 -0.0686297 -0.9976423 0.0 -0.0686297 -0.9976423 0.0 -0.0686297 -0.9976423 0.0 -0.0686297 -0.9976423 0.0 -0.0680699 -0.9976806 0.0 -0.0680699 -0.9976806 0.0 -0.0680699 -0.9976806 0.0 -0.0680699 -0.9976806 0.0 0.9977273 -0.0673817 0.0 0.9977273 -0.0673817 0.0 0.9977273 -0.0673817 0.0 0.9977273 -0.0673817 0.0</float_array>
                    <technique_common>
                        <accessor count="60" source="#geometry0-normal-array" stride="3">
                            <param name="X" type="float"/>
                            <param name="Y" type="float"/>
                            <param name="Z" type="float"/>
                        </accessor>
                    </technique_common>
                </source>
                <vertices id="geometry0-vertex">
                    <input semantic="POSITION" source="#geometry0-position"/>
                </vertices>
                <triangles count="28" material="default_ai_0.2_sh_0.2_tr_0.0_dc_r_0.8_g_0.8_b_0.8_sc_r_1.0_g_1.0_b_1.0_ec_r_0.0_g_0.0_b_0_tri">
                    <input offset="0" semantic="VERTEX" source="#geometry0-vertex"/>
                    <input offset="1" semantic="NORMAL" source="#geometry0-normal"/>
                    <p>14 0 6 1 9 2 14 0 9 2 19 3 0 4 1 5 2 6 0 4 2 6 3 7 6 8 7 9 8 10 6 8 8 10 9 11 13 22 12 23 19 24 13 22 19 24 9 25 13 22 9 25 8 26 13 22 8 26 17 27 13 22 17 27 18 28 5 29 13 22 18 28 5 29 18 28 3 30 5 29 3 30 2 31 16 32 15 33 18 34 16 32 18 34 17 35 7 36 16 37 17 38 7 36 17 38 8 39 1 40 4 41 5 42 1 40 5 42 2 43 15 44 0 45 3 46 15 44 3 46 18 47 11 48 14 49 19 50 11 48 19 50 12 51 10 52 11 53 12 54 10 52 12 54 13 55 4 56 10 57 13 58 4 56 13 58 5 59</p>
                </triangles>
                <triangles count="8" material="default_ai_0.2_sh_0.2_tr_0.0_dc_r_1.0_g_0.2_b_0.2_sc_r_1.0_g_1.0_b_1.0_ec_r_0.0_g_0.0_b_0_tri">
                    <input offset="0" semantic="VERTEX" source="#geometry0-vertex"/>
                    <input offset="1" semantic="NORMAL" source="#geometry0-normal"/>
                    <p>11 12 10 13 14 14 14 14 10 13 6 15 6 15 10 13 7 16 7 16 10 13 16 17 16 17 10 13 15 18 10 13 4 19 15 18 15 18 4 19 0 20 0 20 4 19 1 21</p>
                </triangles>
            </mesh>
        </geometry>
    </library_geometries>
    <library_visual_scenes>
        <visual_scene id="Building_DEBW_5221000QxmU">
            <node>
                <instance_geometry url="#geometry0">
                    <bind_material>
                        <technique_common>
                            <instance_material symbol="default_ai_0.2_sh_0.2_tr_0.0_dc_r_0.8_g_0.8_b_0.8_sc_r_1.0_g_1.0_b_1.0_ec_r_0.0_g_0.0_b_0_tri" target="#default_ai_0.2_sh_0.2_tr_0.0_dc_r_0.8_g_0.8_b_0.8_sc_r_1.0_g_1.0_b_1.0_ec_r_0.0_g_0.0_b_0_mat"/>
                            <instance_material symbol="default_ai_0.2_sh_0.2_tr_0.0_dc_r_1.0_g_0.2_b_0.2_sc_r_1.0_g_1.0_b_1.0_ec_r_0.0_g_0.0_b_0_tri" target="#default_ai_0.2_sh_0.2_tr_0.0_dc_r_1.0_g_0.2_b_0.2_sc_r_1.0_g_1.0_b_1.0_ec_r_0.0_g_0.0_b_0_mat"/>
                        </technique_common>
                    </bind_material>
                </instance_geometry>
            </node>
        </visual_scene>
    </library_visual_scenes>
    <scene>
        <instance_visual_scene url="#Building_DEBW_5221000QxmU"/>
    </scene>
</COLLADA>
