<?xml version="1.0" encoding="UTF-8" standalone="yes"?>
<COLLADA xmlns="http://www.collada.org/2005/11/COLLADASchema" version="1.4.1">
    <asset>
        <contributor>
            <authoring_tool>3D City Database Importer/Exporter, version 5.5.3; Chair of Geoinformatics, Technical University of Munich</authoring_tool>
        </contributor>
        <created>2026-05-06T15:12:13.870</created>
        <modified>2026-05-06T15:12:13.870</modified>
        <unit meter="1.0" name="meters"/>
        <up_axis>Z_UP</up_axis>
    </asset>
    <library_materials>
        <material id="default_ai_0.2_sh_0.2_tr_0.0_dc_r_0.8_g_0.8_b_0.8_sc_r_1.0_g_1.0_b_1.0_ec_r_0.0_g_0.0_b_0_mat">
            <instance_effect url="#default_ai_0.2_sh_0.2_tr_0.0_dc_r_0.8_g_0.8_b_0.8_sc_r_1.0_g_1.0_b_1.0_ec_r_0.0_g_0.0_b_0_eff"/>
        </material>
        <material id="default_ai_0.2_sh_0.2_tr_0.0_dc_r_1.0_g_0.2_b_0.2_sc_r_1.0_g_1.0_b_1.0_ec_r_0.0_g_0.0_b_0_mat">
            <instance_effect url="#default_ai_0.2_sh_0.2_tr_0.0_dc_r_1.0_g_0.2_b_0.2_sc_r_1.0_g_1.0_b_1.0_ec_r_0.0_g_0.0_b_0_eff"/>
        </material>
    </library_materials>
    <library_effects>
        <effect id="default_ai_0.2_sh_0.2_tr_0.0_dc_r_0.8_g_0.8_b_0.8_sc_r_1.0_g_1.0_b_1.0_ec_r_0.0_g_0.0_b_0_eff">
            <profile_COMMON>
                <technique sid="COMMON">
                    <lambert>
                        <emission>
                            <color>0.0 0.0 0.0 1.0</color>
                        </emission>
                        <diffuse>
                            <color>0.8 0.8 0.8 1.0</color>
                        </diffuse>
                        <reflective>
                            <color>1.0 1.0 1.0 1.0</color>
                        </reflective>
                        <reflectivity>
                            <float>0.2</float>
                        </reflectivity>
                        <transparent opaque="A_ONE">
                            <color>1.0 1.0 1.0 1.0</color>
                        </transparent>
                        <transparency>
                            <float>1.0</float>
                        </transparency>
                    </lambert>
                </technique>
                <extra>
                    <technique profile="GOOGLEEARTH">
                        <double_sided>0</double_sided>
                    </technique>
                </extra>
            </profile_COMMON>
        </effect>
        <effect id="default_ai_0.2_sh_0.2_tr_0.0_dc_r_1.0_g_0.2_b_0.2_sc_r_1.0_g_1.0_b_1.0_ec_r_0.0_g_0.0_b_0_eff">
            <profile_COMMON>
                <technique sid="COMMON">
                    <lambert>
                        <emission>
                            <color>0.0 0.0 0.0 1.0</color>
                        </emission>
                        <diffuse>
                            <color>1.0 0.2 0.2 1.0</color>
                        </diffuse>
                        <reflective>
                            <color>1.0 1.0 1.0 1.0</color>
                        </reflective>
                        <reflectivity>
                            <float>0.2</float>
                        </reflectivity>
                        <transparent opaque="A_ONE">
                            <color>1.0 1.0 1.0 1.0</color>
                        </transparent>
                        <transparency>
                            <float>1.0</float>
                        </transparency>
                    </lambert>
                </technique>
                <extra>
                    <technique profile="GOOGLEEARTH">
                        <double_sided>0</double_sided>
                    </technique>
                </extra>
            </profile_COMMON>
        </effect>
    </library_effects>
    <library_geometries>
        <geometry id="geometry0">
            <mesh>
                <source id="geometry0-position">
                    <float_array id="geometry0-position-array" count="105">9.339 -8.536 12.867 9.271 -8.836 12.41 7.81 -11.61 8.604 12.45 -10.18 8.604 3.47 -10.85 8.604 0.0 0.0 8.604 0.0 0.0 0.0 3.47 -10.85 0.0 7.81 -11.61 0.0 12.45 -10.18 0.0 3.68 1.15 8.604 3.38 2.28 8.604 3.38 2.28 0.0 3.68 1.15 0.0 5.568 -2.893 16.184 6.791 -0.567 13.003 7.579 -2.745 12.814 10.409 -1.884 12.843 12.07 1.22 8.604 9.2 0.33 8.604 12.07 1.22 0.0 9.2 0.33 0.0 7.791 -6.096 14.165 6.335 -5.331 16.163 6.98 -9.75 8.604 10.66 -4.39 8.604 10.66 -4.39 0.0 13.48 -3.55 8.604 5.761 3.02 12.874 8.14 3.76 0.0 13.48 -3.55 0.0 7.33 -10.07 0.0 6.98 -9.75 0.0 7.33 -10.07 8.604 8.14 3.76 8.604</float_array>
                    <technique_common>
                        <accessor count="35" source="#geometry0-position-array" stride="3">
                            <param name="X" type="float"/>
                            <param name="Y" type="float"/>
                            <param name="Z" type="float"/>
                        </accessor>
                    </technique_common>
                </source>
                <source id="geometry0-normal">
                    <float_array id="geometry0-normal-array" count="402">-0.9524751 -0.3046165 0.0 -0.9524751 -0.3046165 0.0 -0.9524751 -0.3046165 0.0 -0.9524751 -0.3046165 0.0 -0.298275 0.95448 0.0 -0.298275 0.95448 0.0 -0.298275 0.95448 0.0 -0.298275 0.95448 0.0 0.825252 0.2551297 0.5038531 0.825252 0.2551297 0.5038531 0.825252 0.2551297 0.5038531 0.8252937 0.2548625 0.50392 0.8252937 0.2548625 0.50392 0.8252937 0.2548625 0.50392 -0.6747689 -0.7380291 0.0 -0.6747689 -0.7380291 0.0 -0.6747689 -0.7380291 0.0 -0.6747689 -0.7380291 0.0 -0.82464 -0.2570307 0.5038891 -0.82464 -0.2570307 0.5038891 -0.82464 -0.2570307 0.5038891 0.2466227 -0.8277685 0.5039608 0.2466725 -0.8277563 0.5039565 0.2466227 -0.8277685 0.5039608 0.246573 -0.8277808 0.5039651 -0.255988 0.8249671 0.5038842 -0.2561616 0.8250048 0.5037345 -0.255988 0.8249671 0.5038842 -0.2558144 0.8249295 0.504034 0.9589805 0.2834722 0.0 0.9589805 0.2834722 0.0 0.9589805 0.2834722 0.0 0.9589805 0.2834722 0.0 0.8250187 0.256421 0.5035796 0.8250187 0.256421 0.5035796 0.8250187 0.256421 0.5035796 -0.8227013 -0.2631384 0.5039056 -0.8227032 -0.2631646 0.5038887 -0.8227013 -0.2631384 0.5039056 -0.8226993 -0.2631121 0.5039225 -0.9547004 -0.2975689 0.0 -0.9547004 -0.2975689 0.0 -0.9547004 -0.2975689 0.0 -0.9547004 -0.2975689 0.0 0.8253401 0.2546811 0.5039358 0.8253401 0.2546811 0.5039358 0.8253401 0.2546811 0.5039358 0.2945199 -0.9556454 0.0 0.2945199 -0.9556454 0.0 0.2945199 -0.9556454 0.0 0.2945199 -0.9556454 0.0 -0.2575527 0.8244685 0.5039031 -0.2574682 0.8244981 0.5038978 -0.2575527 0.8244685 0.5039031 -0.2576371 0.8244389 0.5039083 0.9553857 0.295361 0.0 0.9553857 0.295361 0.0 0.9553857 0.295361 0.0 0.9553857 0.295361 0.0 -0.9665183 -0.2565978 0.0 -0.9665183 -0.2565978 0.0 -0.9665183 -0.2565978 0.0 -0.9665183 -0.2565978 0.0 -0.8348418 -0.2216199 0.5039084 -0.8348402 -0.2216 0.50392 -0.8348418 -0.2216199 0.5039084 -0.8348435 -0.2216398 0.5038969 0.955417 0.2952599 0.0 0.955417 0.2952599 0.0 0.955417 0.2952599 0.0 0.955417 0.2952599 0.0 -0.2961899 0.9551291 0.0 -0.2961899 0.9551291 0.0 -0.2961899 0.9551291 0.0 -0.2961899 0.9551291 0.0 0.0 0.0 -1.0 0.0 0.0 -1.0 0.0 0.0 -1.0 0.0 0.0 -1.0 0.0 0.0 -1.0 0.0 0.0 -1.0 0.0 0.0 -1.0 0.0 0.0 -1.0 0.0 0.0 -1.0 0.0 0.0 -1.0 0.0 0.0 -1.0 0.0 0.0 -1.0 0.0 0.0 -1.0 0.8251745 0.2552613 0.5039133 0.8251745 0.2552613 0.5039133 0.8251745 0.2552613 0.5039133 0.828346 0.244857 0.503873 0.828346 0.244857 0.503873 0.828346 0.244857 0.503873 0.8250905 0.2553422 0.5040098 0.8250905 0.2553422 0.5040098 0.8250905 0.2553422 0.5040098 -0.2969039 0.9549074 0.0 -0.2969039 0.9549074 0.0 -0.2969039 0.9549074 0.0 -0.2969039 0.9549074 0.0 0.2544041 -0.8254067 0.5039666 0.2543856 -0.8254191 0.5039556 0.2544041 -0.8254067 0.5039666 0.2544227 -0.8253943 0.5039777 0.825222 0.2550837 0.5039258 0.825222 0.2550837 0.5039258 0.825222 0.2550837 0.5039258 0.8253907 0.2549136 0.5037353 0.8253907 0.2549136 0.5037353 0.8253907 0.2549136 0.5037353 -0.2969039 0.9549074 6.95E-5 -0.2969039 0.9549074 6.95E-5 -0.2969039 0.9549074 6.95E-5 -0.5831941 -0.6370144 0.5040807 -0.582832 -0.637473 0.5039197 -0.583511 -0.636679 0.5041377 -0.583375 -0.6367851 0.5041611 -0.5825599 -0.6376848 0.5039663 0.8252189 0.2550238 0.5039611 0.8252189 0.2550238 0.5039611 0.8252189 0.2550238 0.5039611 0.2854766 -0.9583856 0.0 0.2854766 -0.9583856 0.0 0.2854766 -0.9583856 0.0 0.2854766 -0.9583856 0.0 0.2583372 -0.8242319 0.5038884 0.2583691 -0.8242353 0.5038666 0.2583372 -0.8242319 0.5038884 0.2583053 -0.8242285 0.5039103 0.299049 -0.9542378 0.0 0.299049 -0.9542378 0.0 0.299049 -0.9542378 0.0 0.299049 -0.9542378 0.0</float_array>
                    <technique_common>
                        <accessor count="134" source="#geometry0-normal-array" stride="3">
                            <param name="X" type="float"/>
                            <param name="Y" type="float"/>
                            <param name="Z" type="float"/>
                        </accessor>
                    </technique_common>
                </source>
                <vertices id="geometry0-vertex">
                    <input semantic="POSITION" source="#geometry0-position"/>
                </vertices>
                <triangles count="38" material="default_ai_0.2_sh_0.2_tr_0.0_dc_r_0.8_g_0.8_b_0.8_sc_r_1.0_g_1.0_b_1.0_ec_r_0.0_g_0.0_b_0_tri">
                    <input offset="0" semantic="VERTEX" source="#geometry0-vertex"/>
                    <input offset="1" semantic="NORMAL" source="#geometry0-normal"/>
                    <p>4 0 5 1 6 2 4 0 6 2 7 3 5 4 10 5 13 6 5 4 13 6 6 7 33 14 24 15 32 16 33 14 32 16 31 17 18 29 27 30 30 31 18 29 30 31 20 32 2 40 33 41 31 42 2 40 31 42 8 43 3 47 2 48 8 49 3 47 8 49 9 50 25 55 3 56 9 57 25 55 9 57 26 58 10 59 11 60 12 61 10 59 12 61 13 62 34 67 19 68 21 69 34 67 21 69 29 70 19 71 18 72 20 73 19 71 20 73 21 74 7 75 6 76 13 77 32 78 7 75 13 77 32 78 13 77 12 79 32 78 12 79 29 80 32 78 29 80 21 81 32 78 21 81 20 82 31 83 32 78 20 82 8 84 31 83 20 82 26 85 9 86 8 84 26 85 8 84 20 82 26 85 20 82 30 87 11 97 34 98 29 99 11 97 29 99 12 100 28 111 34 112 11 113 27 122 25 123 26 124 27 122 26 124 30 125 24 130 4 131 7 132 24 130 7 132 32 133</p>
                </triangles>
                <triangles count="28" material="default_ai_0.2_sh_0.2_tr_0.0_dc_r_1.0_g_0.2_b_0.2_sc_r_1.0_g_1.0_b_1.0_ec_r_0.0_g_0.0_b_0_tri">
                    <input offset="0" semantic="VERTEX" source="#geometry0-vertex"/>
                    <input offset="1" semantic="NORMAL" source="#geometry0-normal"/>
                    <p>25 8 0 9 3 10 15 11 16 12 19 13 1 18 33 19 2 20 17 21 16 22 25 23 17 21 25 23 27 24 16 25 17 26 18 27 16 25 18 27 19 28 14 33 25 34 16 35 23 36 14 37 5 38 23 36 5 38 4 39 22 44 25 45 23 46 14 51 15 52 10 53 14 51 10 53 5 54 15 63 28 64 11 65 15 63 11 65 10 66 23 88 25 89 14 90 17 91 27 92 18 93 0 94 25 95 22 96 1 101 2 102 3 103 1 101 3 103 0 104 15 105 19 106 28 107 14 108 16 109 15 110 24 114 33 115 1 116 24 114 1 116 0 117 24 114 0 117 22 118 28 119 19 120 34 121 22 126 23 127 4 128 22 126 4 128 24 129</p>
                </triangles>
            </mesh>
        </geometry>
    </library_geometries>
    <library_visual_scenes>
        <visual_scene id="Building_DEBW_5221000QaZw">
            <node>
                <instance_geometry url="#geometry0">
                    <bind_material>
                        <technique_common>
                            <instance_material symbol="default_ai_0.2_sh_0.2_tr_0.0_dc_r_0.8_g_0.8_b_0.8_sc_r_1.0_g_1.0_b_1.0_ec_r_0.0_g_0.0_b_0_tri" target="#default_ai_0.2_sh_0.2_tr_0.0_dc_r_0.8_g_0.8_b_0.8_sc_r_1.0_g_1.0_b_1.0_ec_r_0.0_g_0.0_b_0_mat"/>
                            <instance_material symbol="default_ai_0.2_sh_0.2_tr_0.0_dc_r_1.0_g_0.2_b_0.2_sc_r_1.0_g_1.0_b_1.0_ec_r_0.0_g_0.0_b_0_tri" target="#default_ai_0.2_sh_0.2_tr_0.0_dc_r_1.0_g_0.2_b_0.2_sc_r_1.0_g_1.0_b_1.0_ec_r_0.0_g_0.0_b_0_mat"/>
                        </technique_common>
                    </bind_material>
                </instance_geometry>
            </node>
        </visual_scene>
    </library_visual_scenes>
    <scene>
        <instance_visual_scene url="#Building_DEBW_5221000QaZw"/>
    </scene>
</COLLADA>
