<?xml version="1.0" encoding="UTF-8" standalone="yes"?>
<COLLADA xmlns="http://www.collada.org/2005/11/COLLADASchema" version="1.4.1">
    <asset>
        <contributor>
            <authoring_tool>3D City Database Importer/Exporter, version 5.5.3; Chair of Geoinformatics, Technical University of Munich</authoring_tool>
        </contributor>
        <created>2026-05-06T15:12:14.035</created>
        <modified>2026-05-06T15:12:14.035</modified>
        <unit meter="1.0" name="meters"/>
        <up_axis>Z_UP</up_axis>
    </asset>
    <library_materials>
        <material id="default_ai_0.2_sh_0.2_tr_0.0_dc_r_1.0_g_0.2_b_0.2_sc_r_1.0_g_1.0_b_1.0_ec_r_0.0_g_0.0_b_0_mat">
            <instance_effect url="#default_ai_0.2_sh_0.2_tr_0.0_dc_r_1.0_g_0.2_b_0.2_sc_r_1.0_g_1.0_b_1.0_ec_r_0.0_g_0.0_b_0_eff"/>
        </material>
        <material id="default_ai_0.2_sh_0.2_tr_0.0_dc_r_0.8_g_0.8_b_0.8_sc_r_1.0_g_1.0_b_1.0_ec_r_0.0_g_0.0_b_0_mat">
            <instance_effect url="#default_ai_0.2_sh_0.2_tr_0.0_dc_r_0.8_g_0.8_b_0.8_sc_r_1.0_g_1.0_b_1.0_ec_r_0.0_g_0.0_b_0_eff"/>
        </material>
    </library_materials>
    <library_effects>
        <effect id="default_ai_0.2_sh_0.2_tr_0.0_dc_r_1.0_g_0.2_b_0.2_sc_r_1.0_g_1.0_b_1.0_ec_r_0.0_g_0.0_b_0_eff">
            <profile_COMMON>
                <technique sid="COMMON">
                    <lambert>
                        <emission>
                            <color>0.0 0.0 0.0 1.0</color>
                        </emission>
                        <diffuse>
                            <color>1.0 0.2 0.2 1.0</color>
                        </diffuse>
                        <reflective>
                            <color>1.0 1.0 1.0 1.0</color>
                        </reflective>
                        <reflectivity>
                            <float>0.2</float>
                        </reflectivity>
                        <transparent opaque="A_ONE">
                            <color>1.0 1.0 1.0 1.0</color>
                        </transparent>
                        <transparency>
                            <float>1.0</float>
                        </transparency>
                    </lambert>
                </technique>
                <extra>
                    <technique profile="GOOGLEEARTH">
                        <double_sided>0</double_sided>
                    </technique>
                </extra>
            </profile_COMMON>
        </effect>
        <effect id="default_ai_0.2_sh_0.2_tr_0.0_dc_r_0.8_g_0.8_b_0.8_sc_r_1.0_g_1.0_b_1.0_ec_r_0.0_g_0.0_b_0_eff">
            <profile_COMMON>
                <technique sid="COMMON">
                    <lambert>
                        <emission>
                            <color>0.0 0.0 0.0 1.0</color>
                        </emission>
                        <diffuse>
                            <color>0.8 0.8 0.8 1.0</color>
                        </diffuse>
                        <reflective>
                            <color>1.0 1.0 1.0 1.0</color>
                        </reflective>
                        <reflectivity>
                            <float>0.2</float>
                        </reflectivity>
                        <transparent opaque="A_ONE">
                            <color>1.0 1.0 1.0 1.0</color>
                        </transparent>
                        <transparency>
                            <float>1.0</float>
                        </transparency>
                    </lambert>
                </technique>
                <extra>
                    <technique profile="GOOGLEEARTH">
                        <double_sided>0</double_sided>
                    </technique>
                </extra>
            </profile_COMMON>
        </effect>
    </library_effects>
    <library_geometries>
        <geometry id="geometry0">
            <mesh>
                <source id="geometry0-position">
                    <float_array id="geometry0-position-array" count="45">-0.028 0.072 9.899 -3.37 8.56 9.956 -5.773 2.652 13.389 -6.55 7.27 9.958 -8.36 6.53 9.962 -11.609 5.221 9.958 0.0 0.0 9.84 -8.15 -3.32 9.827 0.0 0.0 0.0 -3.37 8.56 0.0 -8.15 -3.32 0.0 -11.61 5.22 9.956 -11.61 5.22 0.0 -8.36 6.53 0.0 -6.55 7.27 0.0</float_array>
                    <technique_common>
                        <accessor count="15" source="#geometry0-position-array" stride="3">
                            <param name="X" type="float"/>
                            <param name="Y" type="float"/>
                            <param name="Z" type="float"/>
                        </accessor>
                    </technique_common>
                </source>
                <source id="geometry0-normal">
                    <float_array id="geometry0-normal-array" count="156">0.2295731 -0.562857 0.7940329 0.2305833 -0.5615265 0.7946819 0.2295731 -0.562857 0.7940329 0.2285623 -0.5641857 0.7933813 -0.9268209 -0.3755035 0.0 -0.9268209 -0.3755035 0.0 -0.9268209 -0.3755035 0.0 -0.9268209 -0.3755036 0.0 -0.6798315 -0.2856832 0.6754364 -0.5687743 -0.2424016 0.7859626 -0.6798315 -0.2856832 0.6754364 -0.7729254 -0.3214161 0.5470631 -0.2097982 0.5183546 0.8290315 -0.225197 0.5565062 0.799742 -0.2252928 0.5564518 0.7997528 -0.2018752 0.4987263 0.8429226 -0.1772028 0.4381917 0.881242 -0.3784337 0.9256284 0.0 -0.3784337 0.9256284 0.0 -0.3784337 0.9256284 0.0 -0.3784337 0.9256284 0.0 0.3772608 -0.926107 0.0 0.3772608 -0.926107 0.0 0.3772608 -0.926107 0.0 0.3772608 -0.926107 0.0 0.9304472 0.3663843 -0.0055382 0.9304472 0.3663843 -0.0055382 0.9304472 0.3663843 -0.0055382 0.930487 0.3663249 0.0 0.930487 0.3663249 0.0 0.930487 0.3663249 0.0 0.930487 0.3663249 0.0 -0.3598177 0.8939016 -0.2673409 -0.3598177 0.8939016 -0.2673409 -0.3598177 0.8939016 -0.2673409 0.5771126 0.2219501 0.7859257 0.5771126 0.2219501 0.7859257 0.5771126 0.2219501 0.7859257 -0.3759081 0.926657 0.0 -0.3759081 0.926657 0.0 -0.3759081 0.926657 0.0 -0.3759081 0.926657 0.0 -0.3738497 0.9274893 0.0 -0.3738497 0.9274893 0.0 -0.3738497 0.9274893 0.0 -0.3738497 0.9274893 0.0 0.0 0.0 -1.0 0.0 0.0 -1.0 0.0 0.0 -1.0 0.0 0.0 -1.0 0.0 0.0 -1.0 0.0 0.0 -1.0</float_array>
                    <technique_common>
                        <accessor count="52" source="#geometry0-normal-array" stride="3">
                            <param name="X" type="float"/>
                            <param name="Y" type="float"/>
                            <param name="Z" type="float"/>
                        </accessor>
                    </technique_common>
                </source>
                <vertices id="geometry0-vertex">
                    <input semantic="POSITION" source="#geometry0-position"/>
                </vertices>
                <triangles count="18" material="default_ai_0.2_sh_0.2_tr_0.0_dc_r_0.8_g_0.8_b_0.8_sc_r_1.0_g_1.0_b_1.0_ec_r_0.0_g_0.0_b_0_tri">
                    <input offset="0" semantic="VERTEX" source="#geometry0-vertex"/>
                    <input offset="1" semantic="NORMAL" source="#geometry0-normal"/>
                    <p>7 4 11 5 12 6 7 4 12 6 10 7 4 17 3 18 14 19 4 17 14 19 13 20 6 21 7 22 10 23 6 21 10 23 8 24 6 25 1 26 0 27 1 28 6 29 8 30 1 28 8 30 9 31 4 32 11 33 5 34 3 38 1 39 9 40 3 38 9 40 14 41 11 42 4 43 13 44 11 42 13 44 12 45 9 46 8 47 10 48 14 49 9 46 10 48 13 50 14 49 10 48 13 50 10 48 12 51</p>
                </triangles>
                <triangles count="8" material="default_ai_0.2_sh_0.2_tr_0.0_dc_r_1.0_g_0.2_b_0.2_sc_r_1.0_g_1.0_b_1.0_ec_r_0.0_g_0.0_b_0_tri">
                    <input offset="0" semantic="VERTEX" source="#geometry0-vertex"/>
                    <input offset="1" semantic="NORMAL" source="#geometry0-normal"/>
                    <p>6 0 0 1 2 2 6 0 2 2 7 3 7 8 2 9 5 10 7 8 5 10 11 11 4 12 5 13 2 14 4 12 2 14 1 15 4 12 1 15 3 16 0 35 1 36 2 37</p>
                </triangles>
            </mesh>
        </geometry>
    </library_geometries>
    <library_visual_scenes>
        <visual_scene id="Building_DEBW_5221000Qb4g">
            <node>
                <instance_geometry url="#geometry0">
                    <bind_material>
                        <technique_common>
                            <instance_material symbol="default_ai_0.2_sh_0.2_tr_0.0_dc_r_0.8_g_0.8_b_0.8_sc_r_1.0_g_1.0_b_1.0_ec_r_0.0_g_0.0_b_0_tri" target="#default_ai_0.2_sh_0.2_tr_0.0_dc_r_0.8_g_0.8_b_0.8_sc_r_1.0_g_1.0_b_1.0_ec_r_0.0_g_0.0_b_0_mat"/>
                            <instance_material symbol="default_ai_0.2_sh_0.2_tr_0.0_dc_r_1.0_g_0.2_b_0.2_sc_r_1.0_g_1.0_b_1.0_ec_r_0.0_g_0.0_b_0_tri" target="#default_ai_0.2_sh_0.2_tr_0.0_dc_r_1.0_g_0.2_b_0.2_sc_r_1.0_g_1.0_b_1.0_ec_r_0.0_g_0.0_b_0_mat"/>
                        </technique_common>
                    </bind_material>
                </instance_geometry>
            </node>
        </visual_scene>
    </library_visual_scenes>
    <scene>
        <instance_visual_scene url="#Building_DEBW_5221000Qb4g"/>
    </scene>
</COLLADA>
