<?xml version="1.0" encoding="UTF-8" standalone="yes"?>
<COLLADA xmlns="http://www.collada.org/2005/11/COLLADASchema" version="1.4.1">
    <asset>
        <contributor>
            <authoring_tool>3D City Database Importer/Exporter, version 5.5.3; Chair of Geoinformatics, Technical University of Munich</authoring_tool>
        </contributor>
        <created>2026-05-06T15:12:13.003</created>
        <modified>2026-05-06T15:12:13.003</modified>
        <unit meter="1.0" name="meters"/>
        <up_axis>Z_UP</up_axis>
    </asset>
    <library_materials>
        <material id="default_ai_0.2_sh_0.2_tr_0.0_dc_r_0.8_g_0.8_b_0.8_sc_r_1.0_g_1.0_b_1.0_ec_r_0.0_g_0.0_b_0_mat">
            <instance_effect url="#default_ai_0.2_sh_0.2_tr_0.0_dc_r_0.8_g_0.8_b_0.8_sc_r_1.0_g_1.0_b_1.0_ec_r_0.0_g_0.0_b_0_eff"/>
        </material>
        <material id="default_ai_0.2_sh_0.2_tr_0.0_dc_r_1.0_g_0.2_b_0.2_sc_r_1.0_g_1.0_b_1.0_ec_r_0.0_g_0.0_b_0_mat">
            <instance_effect url="#default_ai_0.2_sh_0.2_tr_0.0_dc_r_1.0_g_0.2_b_0.2_sc_r_1.0_g_1.0_b_1.0_ec_r_0.0_g_0.0_b_0_eff"/>
        </material>
    </library_materials>
    <library_effects>
        <effect id="default_ai_0.2_sh_0.2_tr_0.0_dc_r_0.8_g_0.8_b_0.8_sc_r_1.0_g_1.0_b_1.0_ec_r_0.0_g_0.0_b_0_eff">
            <profile_COMMON>
                <technique sid="COMMON">
                    <lambert>
                        <emission>
                            <color>0.0 0.0 0.0 1.0</color>
                        </emission>
                        <diffuse>
                            <color>0.8 0.8 0.8 1.0</color>
                        </diffuse>
                        <reflective>
                            <color>1.0 1.0 1.0 1.0</color>
                        </reflective>
                        <reflectivity>
                            <float>0.2</float>
                        </reflectivity>
                        <transparent opaque="A_ONE">
                            <color>1.0 1.0 1.0 1.0</color>
                        </transparent>
                        <transparency>
                            <float>1.0</float>
                        </transparency>
                    </lambert>
                </technique>
                <extra>
                    <technique profile="GOOGLEEARTH">
                        <double_sided>0</double_sided>
                    </technique>
                </extra>
            </profile_COMMON>
        </effect>
        <effect id="default_ai_0.2_sh_0.2_tr_0.0_dc_r_1.0_g_0.2_b_0.2_sc_r_1.0_g_1.0_b_1.0_ec_r_0.0_g_0.0_b_0_eff">
            <profile_COMMON>
                <technique sid="COMMON">
                    <lambert>
                        <emission>
                            <color>0.0 0.0 0.0 1.0</color>
                        </emission>
                        <diffuse>
                            <color>1.0 0.2 0.2 1.0</color>
                        </diffuse>
                        <reflective>
                            <color>1.0 1.0 1.0 1.0</color>
                        </reflective>
                        <reflectivity>
                            <float>0.2</float>
                        </reflectivity>
                        <transparent opaque="A_ONE">
                            <color>1.0 1.0 1.0 1.0</color>
                        </transparent>
                        <transparency>
                            <float>1.0</float>
                        </transparency>
                    </lambert>
                </technique>
                <extra>
                    <technique profile="GOOGLEEARTH">
                        <double_sided>0</double_sided>
                    </technique>
                </extra>
            </profile_COMMON>
        </effect>
    </library_effects>
    <library_geometries>
        <geometry id="geometry0">
            <mesh>
                <source id="geometry0-position">
                    <float_array id="geometry0-position-array" count="66">1.12 0.36 7.589 0.0 0.0 7.611 0.0 0.0 0.0 1.12 0.36 0.0 -2.64 10.98 6.14 -7.03 9.48 6.117 -6.05 6.56 7.513 -16.66 3.33 7.288 -15.322 -1.878 9.717 -0.007 3.544 9.717 -9.89 -5.7 0.0 -14.07 -6.75 0.0 -16.66 3.33 0.0 -6.05 6.56 0.0 -7.03 9.48 0.0 -2.64 10.98 0.0 -3.5 -1.13 0.0 -2.86 -3.1 0.0 -3.5 -1.13 7.675 -2.86 -3.1 6.371 -9.89 -5.7 6.305 -14.07 -6.75 6.56</float_array>
                    <technique_common>
                        <accessor count="22" source="#geometry0-position-array" stride="3">
                            <param name="X" type="float"/>
                            <param name="Y" type="float"/>
                            <param name="Z" type="float"/>
                        </accessor>
                    </technique_common>
                </source>
                <source id="geometry0-normal">
                    <float_array id="geometry0-normal-array" count="210">-0.3233322 0.9462856 0.0 -0.3233322 0.9462856 0.0 -0.3233322 0.9462856 0.0 -0.3233322 0.9462855 0.0 0.0 0.0 -1.0 0.0 0.0 -1.0 0.0 0.0 -1.0 0.0 0.0 -1.0 0.0 0.0 -1.0 0.0 0.0 -1.0 0.0 0.0 -1.0 0.0 0.0 -1.0 0.0 0.0 -1.0 0.0 0.0 -1.0 0.3468798 -0.9379096 0.0 0.3468798 -0.9379096 0.0 0.3468798 -0.9379096 0.0 0.3468798 -0.9379096 0.0 -0.9685403 -0.2488569 -5.75E-5 -0.9685403 -0.2488569 -5.75E-5 -0.9685403 -0.2488569 -5.75E-5 -0.1378406 0.3893437 0.9107203 -0.1378405 0.3893448 0.9107199 -0.1378536 0.3893225 0.9107274 -0.1378255 0.3892746 0.9107522 -0.1378179 0.3892406 0.9107678 -0.1377562 0.3892012 0.910794 -0.9685392 -0.2488608 0.0 -0.9685392 -0.2488608 0.0 -0.9685392 -0.2488608 0.0 -0.9685392 -0.2488608 0.0 -0.948032 -0.3181752 0.0 -0.948032 -0.3181752 0.0 -0.948032 -0.3181752 0.0 -0.948032 -0.3181752 0.0 0.3072411 -0.9516318 0.0 0.3072411 -0.9516317 0.0 0.3072411 -0.9516318 0.0 0.3072411 -0.9516318 0.0 -0.2912334 0.956652 0.0 -0.2912334 0.956652 0.0 -0.2912334 0.956652 0.0 -0.2912334 0.956652 0.0 0.3060092 -0.9520286 0.0 0.3060092 -0.9520286 0.0 0.3060092 -0.9520286 0.0 0.3060092 -0.9520286 0.0 0.9426621 0.3337486 0.0 0.9426621 0.3337486 0.0 0.9426621 0.3337486 0.0 0.9426621 0.3337486 0.0 0.2436274 -0.9698689 0.0 0.2436274 -0.9698689 0.0 0.2436274 -0.9698689 0.0 0.2436274 -0.9698689 0.0 0.9426668 0.3337356 -1.074E-4 0.9426668 0.3337356 -1.074E-4 0.9426668 0.3337356 -1.074E-4 0.1781127 -0.5024241 0.8460768 0.1779134 -0.5024909 0.846079 0.1779044 -0.5024437 0.846109 0.1778565 -0.5024512 0.8461146 0.1779052 -0.5024784 0.8460882 0.17792 -0.5023955 0.8461343 0.1778736 -0.5025116 0.8460751 0.1778495 -0.5025371 0.8460652 0.9510695 0.308977 0.0 0.9510695 0.308977 0.0 0.9510695 0.308977 0.0 0.9510695 0.308977 0.0</float_array>
                    <technique_common>
                        <accessor count="70" source="#geometry0-normal-array" stride="3">
                            <param name="X" type="float"/>
                            <param name="Y" type="float"/>
                            <param name="Z" type="float"/>
                        </accessor>
                    </technique_common>
                </source>
                <vertices id="geometry0-vertex">
                    <input semantic="POSITION" source="#geometry0-position"/>
                </vertices>
                <triangles count="30" material="default_ai_0.2_sh_0.2_tr_0.0_dc_r_0.8_g_0.8_b_0.8_sc_r_1.0_g_1.0_b_1.0_ec_r_0.0_g_0.0_b_0_tri">
                    <input offset="0" semantic="VERTEX" source="#geometry0-vertex"/>
                    <input offset="1" semantic="NORMAL" source="#geometry0-normal"/>
                    <p>5 0 4 1 15 2 5 0 15 2 14 3 16 4 17 5 10 6 16 4 10 6 11 7 16 4 11 7 12 8 16 4 12 8 13 9 2 10 16 4 13 9 2 10 13 9 14 11 2 10 14 11 15 12 2 10 15 12 3 13 19 14 20 15 10 16 19 14 10 16 17 17 7 18 21 19 8 20 21 27 7 28 12 29 21 27 12 29 11 30 6 31 5 32 14 33 6 31 14 33 13 34 1 35 18 36 16 37 1 35 16 37 2 38 7 39 6 40 13 41 7 39 13 41 12 42 0 43 1 44 2 45 0 43 2 45 3 46 4 47 0 48 3 49 4 47 3 49 15 50 20 51 21 52 11 53 20 51 11 53 10 54 0 55 4 56 9 57 18 66 19 67 17 68 18 66 17 68 16 69</p>
                </triangles>
                <triangles count="10" material="default_ai_0.2_sh_0.2_tr_0.0_dc_r_1.0_g_0.2_b_0.2_sc_r_1.0_g_1.0_b_1.0_ec_r_0.0_g_0.0_b_0_tri">
                    <input offset="0" semantic="VERTEX" source="#geometry0-vertex"/>
                    <input offset="1" semantic="NORMAL" source="#geometry0-normal"/>
                    <p>7 21 8 22 9 23 6 24 7 21 9 23 6 24 9 23 4 25 6 24 4 25 5 26 0 58 9 59 1 60 1 60 9 59 18 61 9 59 8 62 18 61 18 61 8 62 19 63 19 63 8 62 20 64 20 64 8 62 21 65</p>
                </triangles>
            </mesh>
        </geometry>
    </library_geometries>
    <library_visual_scenes>
        <visual_scene id="Building_DEBW_5221000Qyes">
            <node>
                <instance_geometry url="#geometry0">
                    <bind_material>
                        <technique_common>
                            <instance_material symbol="default_ai_0.2_sh_0.2_tr_0.0_dc_r_0.8_g_0.8_b_0.8_sc_r_1.0_g_1.0_b_1.0_ec_r_0.0_g_0.0_b_0_tri" target="#default_ai_0.2_sh_0.2_tr_0.0_dc_r_0.8_g_0.8_b_0.8_sc_r_1.0_g_1.0_b_1.0_ec_r_0.0_g_0.0_b_0_mat"/>
                            <instance_material symbol="default_ai_0.2_sh_0.2_tr_0.0_dc_r_1.0_g_0.2_b_0.2_sc_r_1.0_g_1.0_b_1.0_ec_r_0.0_g_0.0_b_0_tri" target="#default_ai_0.2_sh_0.2_tr_0.0_dc_r_1.0_g_0.2_b_0.2_sc_r_1.0_g_1.0_b_1.0_ec_r_0.0_g_0.0_b_0_mat"/>
                        </technique_common>
                    </bind_material>
                </instance_geometry>
            </node>
        </visual_scene>
    </library_visual_scenes>
    <scene>
        <instance_visual_scene url="#Building_DEBW_5221000Qyes"/>
    </scene>
</COLLADA>
