<?xml version="1.0" encoding="UTF-8" standalone="yes"?>
<COLLADA xmlns="http://www.collada.org/2005/11/COLLADASchema" version="1.4.1">
    <asset>
        <contributor>
            <authoring_tool>3D City Database Importer/Exporter, version 5.5.3; Chair of Geoinformatics, Technical University of Munich</authoring_tool>
        </contributor>
        <created>2026-05-06T15:12:06.598</created>
        <modified>2026-05-06T15:12:06.598</modified>
        <unit meter="1.0" name="meters"/>
        <up_axis>Z_UP</up_axis>
    </asset>
    <library_materials>
        <material id="default_ai_0.2_sh_0.2_tr_0.0_dc_r_0.8_g_0.8_b_0.8_sc_r_1.0_g_1.0_b_1.0_ec_r_0.0_g_0.0_b_0_mat">
            <instance_effect url="#default_ai_0.2_sh_0.2_tr_0.0_dc_r_0.8_g_0.8_b_0.8_sc_r_1.0_g_1.0_b_1.0_ec_r_0.0_g_0.0_b_0_eff"/>
        </material>
        <material id="default_ai_0.2_sh_0.2_tr_0.0_dc_r_1.0_g_0.2_b_0.2_sc_r_1.0_g_1.0_b_1.0_ec_r_0.0_g_0.0_b_0_mat">
            <instance_effect url="#default_ai_0.2_sh_0.2_tr_0.0_dc_r_1.0_g_0.2_b_0.2_sc_r_1.0_g_1.0_b_1.0_ec_r_0.0_g_0.0_b_0_eff"/>
        </material>
    </library_materials>
    <library_effects>
        <effect id="default_ai_0.2_sh_0.2_tr_0.0_dc_r_0.8_g_0.8_b_0.8_sc_r_1.0_g_1.0_b_1.0_ec_r_0.0_g_0.0_b_0_eff">
            <profile_COMMON>
                <technique sid="COMMON">
                    <lambert>
                        <emission>
                            <color>0.0 0.0 0.0 1.0</color>
                        </emission>
                        <diffuse>
                            <color>0.8 0.8 0.8 1.0</color>
                        </diffuse>
                        <reflective>
                            <color>1.0 1.0 1.0 1.0</color>
                        </reflective>
                        <reflectivity>
                            <float>0.2</float>
                        </reflectivity>
                        <transparent opaque="A_ONE">
                            <color>1.0 1.0 1.0 1.0</color>
                        </transparent>
                        <transparency>
                            <float>1.0</float>
                        </transparency>
                    </lambert>
                </technique>
                <extra>
                    <technique profile="GOOGLEEARTH">
                        <double_sided>0</double_sided>
                    </technique>
                </extra>
            </profile_COMMON>
        </effect>
        <effect id="default_ai_0.2_sh_0.2_tr_0.0_dc_r_1.0_g_0.2_b_0.2_sc_r_1.0_g_1.0_b_1.0_ec_r_0.0_g_0.0_b_0_eff">
            <profile_COMMON>
                <technique sid="COMMON">
                    <lambert>
                        <emission>
                            <color>0.0 0.0 0.0 1.0</color>
                        </emission>
                        <diffuse>
                            <color>1.0 0.2 0.2 1.0</color>
                        </diffuse>
                        <reflective>
                            <color>1.0 1.0 1.0 1.0</color>
                        </reflective>
                        <reflectivity>
                            <float>0.2</float>
                        </reflectivity>
                        <transparent opaque="A_ONE">
                            <color>1.0 1.0 1.0 1.0</color>
                        </transparent>
                        <transparency>
                            <float>1.0</float>
                        </transparency>
                    </lambert>
                </technique>
                <extra>
                    <technique profile="GOOGLEEARTH">
                        <double_sided>0</double_sided>
                    </technique>
                </extra>
            </profile_COMMON>
        </effect>
    </library_effects>
    <library_geometries>
        <geometry id="geometry0">
            <mesh>
                <source id="geometry0-position">
                    <float_array id="geometry0-position-array" count="48">10.21 6.45 3.496 0.0 0.0 3.487 0.0 0.0 0.0 10.21 6.45 0.0 5.27 14.29 7.486 6.314 12.632 9.806 6.314 12.632 0.0 5.27 14.29 0.0 -1.01 12.99 4.822 4.06 16.19 4.819 4.06 16.19 0.0 -1.01 12.99 0.0 -3.906 6.189 9.806 -6.16 9.76 4.805 -6.16 9.76 0.0 -3.906 6.189 0.0</float_array>
                    <technique_common>
                        <accessor count="16" source="#geometry0-position-array" stride="3">
                            <param name="X" type="float"/>
                            <param name="Y" type="float"/>
                            <param name="Z" type="float"/>
                        </accessor>
                    </technique_common>
                </source>
                <source id="geometry0-normal">
                    <float_array id="geometry0-normal-array" count="150">-0.531329 0.8471656 0.0 -0.531329 0.8471655 0.0 -0.531329 0.8471656 0.0 -0.531329 0.8471655 0.0 0.3485564 -0.5528443 0.7568829 0.3485641 -0.5528142 0.7569012 0.3485564 -0.5528443 0.7568829 0.3485488 -0.5528742 0.7568644 -0.8456352 -0.5337613 0.0 -0.8456352 -0.5337613 0.0 -0.8456352 -0.5337613 0.0 -0.8456352 -0.5337613 0.0 0.5340865 -0.8454298 0.0 0.5340865 -0.8454298 0.0 0.5340865 -0.8454298 0.0 0.5340865 -0.84543 0.0 0.8462158 0.5328404 0.0 0.8462158 0.5328404 0.0 0.8462158 0.5328404 0.0 0.8462158 0.5328404 0.0 -0.5337421 0.8456473 0.0 -0.5337421 0.8456473 0.0 -0.5337421 0.8456473 0.0 -0.5337421 0.8456473 0.0 0.8460088 0.5331689 0.0 0.8460088 0.5331689 0.0 0.8460088 0.5331689 0.0 0.8460088 0.5331689 0.0 -0.4074713 0.6462962 0.6451886 -0.4074642 0.6463269 0.6451625 -0.4074684 0.6462958 0.6451908 -0.40748 0.6462612 0.6452182 -0.4074836 0.6462594 0.6452177 -0.4074901 0.6462219 0.6452512 0.0 0.0 -1.0 0.0 0.0 -1.0 0.0 0.0 -1.0 0.0 0.0 -1.0 0.0 0.0 -1.0 0.0 0.0 -1.0 0.0 0.0 -1.0 0.0 0.0 -1.0 0.8434787 0.5371626 0.0 0.8434787 0.5371626 0.0 0.8434787 0.5371626 0.0 0.8434787 0.5371626 0.0 -0.8456642 -0.5337153 0.0 -0.8456642 -0.5337154 0.0 -0.8456642 -0.5337153 0.0 -0.8456642 -0.5337153 0.0</float_array>
                    <technique_common>
                        <accessor count="50" source="#geometry0-normal-array" stride="3">
                            <param name="X" type="float"/>
                            <param name="Y" type="float"/>
                            <param name="Z" type="float"/>
                        </accessor>
                    </technique_common>
                </source>
                <vertices id="geometry0-vertex">
                    <input semantic="POSITION" source="#geometry0-position"/>
                </vertices>
                <triangles count="22" material="default_ai_0.2_sh_0.2_tr_0.0_dc_r_0.8_g_0.8_b_0.8_sc_r_1.0_g_1.0_b_1.0_ec_r_0.0_g_0.0_b_0_tri">
                    <input offset="0" semantic="VERTEX" source="#geometry0-vertex"/>
                    <input offset="1" semantic="NORMAL" source="#geometry0-normal"/>
                    <p>13 0 8 1 11 2 13 0 11 2 14 3 12 8 13 9 14 10 12 8 14 10 15 11 0 12 1 13 2 14 0 12 2 14 3 15 4 16 5 17 6 18 4 16 6 18 7 19 8 20 9 21 10 22 8 20 10 22 11 23 5 24 0 25 3 26 5 24 3 26 6 27 15 34 14 35 11 36 15 34 11 36 10 37 15 34 10 37 7 38 15 34 7 38 6 39 15 34 6 39 3 40 15 34 3 40 2 41 9 42 4 43 7 44 9 42 7 44 10 45 1 46 12 47 15 48 1 46 15 48 2 49</p>
                </triangles>
                <triangles count="6" material="default_ai_0.2_sh_0.2_tr_0.0_dc_r_1.0_g_0.2_b_0.2_sc_r_1.0_g_1.0_b_1.0_ec_r_0.0_g_0.0_b_0_tri">
                    <input offset="0" semantic="VERTEX" source="#geometry0-vertex"/>
                    <input offset="1" semantic="NORMAL" source="#geometry0-normal"/>
                    <p>12 4 1 5 0 6 12 4 0 6 5 7 13 28 12 29 5 30 13 28 5 30 4 31 8 32 13 28 4 31 8 32 4 31 9 33</p>
                </triangles>
            </mesh>
        </geometry>
    </library_geometries>
    <library_visual_scenes>
        <visual_scene id="Building_DEBW_5221000QjsR">
            <node>
                <instance_geometry url="#geometry0">
                    <bind_material>
                        <technique_common>
                            <instance_material symbol="default_ai_0.2_sh_0.2_tr_0.0_dc_r_0.8_g_0.8_b_0.8_sc_r_1.0_g_1.0_b_1.0_ec_r_0.0_g_0.0_b_0_tri" target="#default_ai_0.2_sh_0.2_tr_0.0_dc_r_0.8_g_0.8_b_0.8_sc_r_1.0_g_1.0_b_1.0_ec_r_0.0_g_0.0_b_0_mat"/>
                            <instance_material symbol="default_ai_0.2_sh_0.2_tr_0.0_dc_r_1.0_g_0.2_b_0.2_sc_r_1.0_g_1.0_b_1.0_ec_r_0.0_g_0.0_b_0_tri" target="#default_ai_0.2_sh_0.2_tr_0.0_dc_r_1.0_g_0.2_b_0.2_sc_r_1.0_g_1.0_b_1.0_ec_r_0.0_g_0.0_b_0_mat"/>
                        </technique_common>
                    </bind_material>
                </instance_geometry>
            </node>
        </visual_scene>
    </library_visual_scenes>
    <scene>
        <instance_visual_scene url="#Building_DEBW_5221000QjsR"/>
    </scene>
</COLLADA>
