<?xml version="1.0" encoding="UTF-8" standalone="yes"?>
<COLLADA xmlns="http://www.collada.org/2005/11/COLLADASchema" version="1.4.1">
    <asset>
        <contributor>
            <authoring_tool>3D City Database Importer/Exporter, version 5.5.3; Chair of Geoinformatics, Technical University of Munich</authoring_tool>
        </contributor>
        <created>2026-05-06T15:12:08.738</created>
        <modified>2026-05-06T15:12:08.738</modified>
        <unit meter="1.0" name="meters"/>
        <up_axis>Z_UP</up_axis>
    </asset>
    <library_materials>
        <material id="default_ai_0.2_sh_0.2_tr_0.0_dc_r_0.8_g_0.8_b_0.8_sc_r_1.0_g_1.0_b_1.0_ec_r_0.0_g_0.0_b_0_mat">
            <instance_effect url="#default_ai_0.2_sh_0.2_tr_0.0_dc_r_0.8_g_0.8_b_0.8_sc_r_1.0_g_1.0_b_1.0_ec_r_0.0_g_0.0_b_0_eff"/>
        </material>
        <material id="default_ai_0.2_sh_0.2_tr_0.0_dc_r_1.0_g_0.2_b_0.2_sc_r_1.0_g_1.0_b_1.0_ec_r_0.0_g_0.0_b_0_mat">
            <instance_effect url="#default_ai_0.2_sh_0.2_tr_0.0_dc_r_1.0_g_0.2_b_0.2_sc_r_1.0_g_1.0_b_1.0_ec_r_0.0_g_0.0_b_0_eff"/>
        </material>
    </library_materials>
    <library_effects>
        <effect id="default_ai_0.2_sh_0.2_tr_0.0_dc_r_0.8_g_0.8_b_0.8_sc_r_1.0_g_1.0_b_1.0_ec_r_0.0_g_0.0_b_0_eff">
            <profile_COMMON>
                <technique sid="COMMON">
                    <lambert>
                        <emission>
                            <color>0.0 0.0 0.0 1.0</color>
                        </emission>
                        <diffuse>
                            <color>0.8 0.8 0.8 1.0</color>
                        </diffuse>
                        <reflective>
                            <color>1.0 1.0 1.0 1.0</color>
                        </reflective>
                        <reflectivity>
                            <float>0.2</float>
                        </reflectivity>
                        <transparent opaque="A_ONE">
                            <color>1.0 1.0 1.0 1.0</color>
                        </transparent>
                        <transparency>
                            <float>1.0</float>
                        </transparency>
                    </lambert>
                </technique>
                <extra>
                    <technique profile="GOOGLEEARTH">
                        <double_sided>0</double_sided>
                    </technique>
                </extra>
            </profile_COMMON>
        </effect>
        <effect id="default_ai_0.2_sh_0.2_tr_0.0_dc_r_1.0_g_0.2_b_0.2_sc_r_1.0_g_1.0_b_1.0_ec_r_0.0_g_0.0_b_0_eff">
            <profile_COMMON>
                <technique sid="COMMON">
                    <lambert>
                        <emission>
                            <color>0.0 0.0 0.0 1.0</color>
                        </emission>
                        <diffuse>
                            <color>1.0 0.2 0.2 1.0</color>
                        </diffuse>
                        <reflective>
                            <color>1.0 1.0 1.0 1.0</color>
                        </reflective>
                        <reflectivity>
                            <float>0.2</float>
                        </reflectivity>
                        <transparent opaque="A_ONE">
                            <color>1.0 1.0 1.0 1.0</color>
                        </transparent>
                        <transparency>
                            <float>1.0</float>
                        </transparency>
                    </lambert>
                </technique>
                <extra>
                    <technique profile="GOOGLEEARTH">
                        <double_sided>0</double_sided>
                    </technique>
                </extra>
            </profile_COMMON>
        </effect>
    </library_effects>
    <library_geometries>
        <geometry id="geometry0">
            <mesh>
                <source id="geometry0-position">
                    <float_array id="geometry0-position-array" count="426">0.796 -0.065 22.736 0.0 0.0 21.926 1.59 -0.13 21.926 0.0 0.0 0.0 1.59 -0.13 0.0 0.267 10.633 21.926 2.27 10.48 21.926 2.27 10.48 0.0 0.267 10.633 0.0 1.269 10.556 22.945 -17.27 -7.0 20.396 -16.89 -1.93 20.396 -16.89 -1.93 0.0 -17.27 -7.0 0.0 -15.83 -7.1 20.396 -15.83 -7.1 0.0 -15.83 -7.1 20.34 -15.566 -1.972 20.396 -15.566 -1.972 0.0 -15.566 -1.972 20.34 3.013 -1.767 26.386 -0.04 -1.59 25.041 -0.266 -10.581 25.122 2.606 -10.678 26.386 3.013 -1.767 0.0 3.24 -1.78 0.0 3.24 -1.59 0.0 6.11 -1.83 0.0 5.517 -10.75 0.0 5.515 -10.777 0.0 2.606 -10.678 0.0 -0.266 -10.581 0.0 -0.04 -1.59 0.0 3.24 -1.78 25.789 3.24 -1.59 25.812 4.902 -10.756 20.336 5.515 -10.777 18.72 5.517 -10.75 18.719 6.11 -1.83 18.233 -0.266 -10.581 20.336 2.606 -10.678 20.336 -9.13 0.52 0.0 -10.33 0.63 0.0 -9.98 7.85 0.0 -8.59 7.8 0.0 -8.252 11.281 0.0 -8.232 11.28 0.0 -9.119 0.519 0.0 -9.119 0.519 21.702 -8.232 11.28 21.702 -8.252 11.281 21.72 -8.59 7.8 21.765 -9.98 7.85 22.986 -10.33 0.63 22.771 -9.13 0.52 21.712 -12.06 -0.55 20.301 -9.22 -0.71 20.301 -9.22 -0.71 0.0 -12.06 -0.55 0.0 -10.006 -10.25 0.0 -12.374 -10.17 0.0 -12.11 -2.08 0.0 -12.11 -2.08 20.301 -12.374 -10.17 20.301 -10.006 -10.25 20.301 -8.12 12.64 23.122 -1.88 12.21 23.165 -1.88 12.21 0.0 -8.12 12.64 0.0 -8.252 11.282 21.83 -8.232 11.28 21.83 -2.06 10.81 21.83 -2.06 10.81 0.0 -8.252 11.282 0.0 -15.982 -10.048 0.0 -12.11 -2.08 20.34 -15.982 -10.048 20.34 -12.374 -10.17 20.34 -9.13 0.52 25.232 -9.22 -0.71 25.232 -10.006 -10.25 25.232 -7.07 -10.35 25.232 -5.89 -10.39 25.232 -0.266 -10.581 25.232 -0.04 -1.59 25.232 0.0 0.0 25.232 0.267 10.633 25.232 -2.06 10.81 25.232 -8.232 11.28 25.232 -9.119 0.519 25.232 -5.89 -10.39 0.0 -7.07 -10.35 0.0 -7.07 -10.35 21.346 -5.89 -10.39 20.336 -10.006 -10.25 21.346 6.56 -11.08 20.336 5.48 -11.01 20.336 5.48 -11.01 0.0 6.56 -11.08 0.0 6.578 -10.813 0.0 5.28 -14.32 0.0 4.22 -14.25 0.0 -4.537 -13.672 0.0 -4.52 -13.28 0.0 -6.07 -13.19 0.0 5.28 -14.32 20.336 4.22 -14.25 20.336 -4.52 -13.28 20.336 -6.07 -13.19 20.336 -4.537 -13.672 20.336 6.578 -10.813 20.336 5.517 -10.75 20.336 5.515 -10.777 20.336 -4.72 -17.92 20.338 -4.537 -13.672 20.338 -4.72 -17.92 0.0 4.22 -14.25 20.338 3.93 -18.47 20.338 3.93 -18.47 0.0 6.11 -1.83 20.368 6.09 -3.59 20.368 6.09 -3.59 0.0 9.81 -7.85 0.0 6.78 -7.67 0.0 6.577 -10.813 0.0 10.02 -3.75 0.0 10.02 -3.75 20.368 9.81 -7.85 20.368 6.78 -7.67 20.368 6.577 -10.813 20.368 5.517 -10.75 20.368 6.577 -10.813 20.336 -7.18 -11.38 0.0 -16.02 -10.79 0.0 -10.006 -10.251 0.0 -7.634 -10.84 21.566 -7.18 -11.38 21.346 -15.624 -10.438 21.509 -10.006 -10.251 21.346 -15.982 -10.048 21.346 -16.02 -10.79 21.346 -10.006 -10.251 20.301</float_array>
                    <technique_common>
                        <accessor count="142" source="#geometry0-position-array" stride="3">
                            <param name="X" type="float"/>
                            <param name="Y" type="float"/>
                            <param name="Z" type="float"/>
                        </accessor>
                    </technique_common>
                </source>
                <source id="geometry0-normal">
                    <float_array id="geometry0-normal-array" count="1803">0.0562488 0.9984168 0.0 0.0562488 0.9984168 0.0 0.0562488 0.9984168 0.0 0.0562488 0.9984168 0.0 0.076164 0.9970953 0.0 0.076164 0.9970953 0.0 0.076164 0.9970953 0.0 0.076164 0.9970953 0.0 -0.0692775 -0.9975974 0.0 -0.0692775 -0.9975974 0.0 -0.0692775 -0.9975974 0.0 -0.0692775 -0.9975974 0.0 -0.0692775 -0.9975974 0.0 0.0134167 0.3965412 0.9179189 0.0134545 0.3960778 0.9181184 0.0134368 0.3964625 0.9179527 0.0133978 0.396773 0.917819 0.0133764 0.3966989 0.9178513 0.0 0.0 1.0 0.0 0.0 1.0 0.0 0.0 1.0 0.0 0.0 1.0 0.0 0.0 1.0 0.0 0.0 1.0 0.0 0.0 1.0 0.0 0.0 1.0 0.0 0.0 1.0 0.0 0.0 1.0 0.0 0.0 1.0 0.0 0.0 1.0 0.0 0.0 1.0 0.0 0.0 1.0 0.0578785 0.9983236 0.0 0.0578785 0.9983236 0.0 0.0578785 0.9983236 0.0 0.0578786 0.9983236 0.0 0.0 0.0 1.0 0.0 0.0 1.0 0.0 0.0 1.0 0.0 0.0 1.0 -0.0759304 -0.9971131 0.0 -0.0759304 -0.9971131 0.0 -0.0759304 -0.9971131 0.0 -0.0759304 -0.9971131 0.0 -0.9953091 0.0967457 0.0 -0.9953091 0.0967457 0.0 -0.9953091 0.0967457 0.0 -0.9953091 0.0967457 0.0 0.0 0.0 -1.0 0.0 0.0 -1.0 0.0 0.0 -1.0 0.0 0.0 -1.0 0.0 0.0 -1.0 0.0 0.0 -1.0 0.0 0.0 -1.0 0.0 0.0 -1.0 0.0 0.0 -1.0 0.0 0.0 -1.0 0.0 0.0 -1.0 0.0 0.0 -1.0 0.0 0.0 -1.0 -0.9966232 0.0821116 0.0 -0.9966232 0.0821116 0.0 -0.9966232 0.0821116 0.0 -0.9966232 0.0821116 0.0 -0.9966232 0.0821116 0.0 -0.7123246 0.0178999 0.7016219 -0.7122379 0.0179109 0.7017097 -0.7123246 0.0178999 0.7016219 -0.7124113 0.017889 0.7015341 0.9328697 -0.0448026 0.3574168 0.9335519 -0.042639 0.3558971 0.9337265 -0.0426825 0.3554336 0.933929 -0.0426792 0.3549016 0.930972 -0.0488656 0.3618057 0.9309364 -0.0489206 0.3618897 0.9338831 -0.0428586 0.355001 0.9338781 -0.0429746 0.3549999 -0.0905372 -0.9958931 0.0 -0.0905372 -0.9958931 0.0 -0.0905372 -0.9958931 0.0 -0.0905372 -0.9958931 0.0 0.0317062 0.9994973 0.0 0.0317062 0.9994972 0.0 0.0317062 0.9994973 0.0 0.0317062 0.9994973 0.0 0.0317062 0.9994973 0.0 0.0 0.0 -1.0 0.0 0.0 -1.0 0.0 0.0 -1.0 0.0 0.0 -1.0 0.0 0.0 -1.0 0.0312347 0.9995121 0.0 0.0312347 0.9995121 0.0 0.0312347 0.9995121 0.0 0.0312347 0.9995121 0.0 0.0312347 0.9995121 0.0 0.9996842 -0.0251283 0.0 0.9996842 -0.0251283 0.0 0.9996842 -0.0251283 0.0 0.9996842 -0.0251283 0.0 -0.059329 -0.9982384 0.0 -0.059329 -0.9982384 0.0 -0.059329 -0.9982384 0.0 -0.059329 -0.9982385 0.0 -0.059329 -0.9982385 0.0 -0.9977975 0.0663334 0.0 -0.9977975 0.0663334 0.0 -0.9977975 0.0663334 0.0 -0.9977975 0.0663334 0.0 -0.0646788 -0.9979061 0.0 -0.0646788 -0.9979061 0.0 -0.0646788 -0.9979061 0.0 -0.0646788 -0.9979061 0.0 0.9986774 -0.051414 0.0 0.9986774 -0.051414 0.0 0.9986774 -0.051414 0.0 0.9986774 -0.051414 0.0 0.9986774 -0.051414 0.0 0.9986774 -0.051414 0.0 0.9986774 -0.051414 0.0 0.9986774 -0.051414 0.0 0.0571751 0.9983642 0.0 0.0571751 0.9983642 0.0 0.0571751 0.9983642 0.0 0.0571751 0.9983642 0.0 -0.9973337 0.0729758 0.0 -0.9973338 0.0729758 0.0 -0.9973337 0.0729758 0.0 -0.9973337 0.0729758 0.0 -0.9973337 0.0729758 0.0 -0.9977975 0.0663334 0.0 -0.9977975 0.0663334 0.0 -0.9977975 0.0663334 0.0 -0.9977975 0.0663334 0.0 -0.9977975 0.0663334 0.0 0.0 0.0 1.0 0.0 0.0 1.0 0.0 0.0 1.0 0.0 0.0 1.0 0.0 0.0 1.0 -0.9986912 0.0511461 0.0 -0.9986912 0.0511461 0.0 -0.9986912 0.0511461 0.0 -0.9986912 0.0511461 0.0 -0.9986912 0.0511461 0.0 0.0 0.0 -1.0 0.0 0.0 -1.0 0.0 0.0 -1.0 0.0 0.0 -1.0 0.0 0.0 -1.0 0.0 0.0 -1.0 0.0 0.0 -1.0 0.0 0.0 -1.0 0.0 0.0 -1.0 0.0 0.0 -1.0 0.0 0.0 -1.0 0.0 0.0 -1.0 0.0 0.0 -1.0 0.0761639 0.9970952 4.521E-4 0.0761639 0.9970952 4.521E-4 0.0761639 0.9970952 4.521E-4 -0.9994664 0.0326618 0.0 -0.9994664 0.0326618 0.0 -0.9994664 0.0326618 0.0 -0.9994664 0.0326618 0.0 0.9999354 -0.0113629 0.0 0.9999354 -0.0113629 0.0 0.9999355 -0.0113629 0.0 0.9999355 -0.0113629 0.0 0.9999355 -0.0113629 0.0 -0.033942 -0.9994238 0.0 -0.033942 -0.9994238 0.0 -0.033942 -0.9994239 0.0 -0.033942 -0.9994239 0.0 -0.033942 -0.9994239 0.0 -0.099499 -0.9950377 0.0 -0.099499 -0.9950377 0.0 -0.099499 -0.9950377 0.0 -0.099499 -0.9950377 0.0 -0.3959126 0.0202759 0.9180644 -0.3959126 0.0202759 0.9180644 -0.3959126 0.0202759 0.9180644 0.0687473 0.9976342 0.0 0.0687473 0.9976341 0.0 0.0687473 0.9976342 0.0 0.0687473 0.9976342 0.0 0.0359478 0.9993536 0.0 0.0359478 0.9993536 0.0 0.0359478 0.9993536 0.0 0.0359478 0.9993536 0.0 0.0 0.0 1.0 0.0 0.0 1.0 0.0 0.0 1.0 0.0 0.0 1.0 0.0 0.0 1.0 0.0833328 0.9965218 0.0 0.0833328 0.9965218 0.0 0.0833328 0.9965218 0.0 0.0833328 0.9965218 0.0 0.0 0.0 -1.0 0.0 0.0 -1.0 0.0 0.0 -1.0 0.0 0.0 -1.0 0.0 0.0 -1.0 0.0 0.0 -1.0 0.0 0.0 -1.0 0.9966201 -0.0821487 0.0 0.9966201 -0.0821487 0.0 0.9966201 -0.0821487 0.0 0.9966201 -0.0821487 0.0 0.9943457 -0.1061919 0.0 0.9943457 -0.1061919 0.0 0.9943457 -0.1061919 0.0 0.9943457 -0.1061919 0.0 -0.9996849 0.0251026 0.0 -0.9996849 0.0251026 0.0 -0.9996849 0.0251026 0.0 -0.9996849 0.0251026 0.0 0.9986908 -0.0511525 0.0 0.9986908 -0.0511525 0.0 0.9986908 -0.0511525 0.0 0.9986908 -0.0511525 0.0 -0.0658939 -0.9978266 0.0 -0.0658939 -0.9978266 0.0 -0.0658939 -0.9978266 0.0 -0.0658939 -0.9978266 0.0 -0.9986734 0.0514921 0.0 -0.9986734 0.0514921 0.0 -0.9986734 0.0514921 0.0 -0.9986734 0.0514921 0.0 -0.091284 -0.9958249 0.0 -0.091284 -0.9958249 0.0 -0.091284 -0.9958249 0.0 -0.091284 -0.9958249 0.0 -0.0337552 -0.9994301 0.0 -0.0337552 -0.9994301 0.0 -0.0337552 -0.9994301 0.0 -0.0337552 -0.9994301 0.0 -0.9996842 0.0251283 0.0 -0.9996842 0.0251283 0.0 -0.9996842 0.0251283 0.0 -0.9996842 0.0251283 0.0 -0.9996842 0.0251283 0.0 -0.0337552 -0.9994301 0.0 -0.0337552 -0.9994301 0.0 -0.0337552 -0.9994301 0.0 -0.0337552 -0.9994301 0.0 0.9996837 -0.0251493 0.0 0.9996837 -0.0251493 0.0 0.9996837 -0.0251493 0.0 0.9996837 -0.0251493 0.0 0.9996837 -0.0251493 0.0 0.9996837 -0.0251493 0.0 -0.9966232 0.0821117 0.0 -0.9966232 0.0821117 0.0 -0.9966232 0.0821117 0.0 -0.9966232 0.0821117 0.0 -0.0264418 -0.3957772 0.9179659 -0.0264438 -0.3954056 0.9181259 -0.0264418 -0.3957772 0.9179659 -0.0264398 -0.3961487 0.9178056 -0.9966201 0.0821487 0.0 -0.9966201 0.0821487 0.0 -0.9966201 0.0821487 0.0 -0.9966201 0.0821487 0.0 -0.0340403 -0.9994205 0.0 -0.0340403 -0.9994205 0.0 -0.0340403 -0.9994205 0.0 -0.0340403 -0.9994205 0.0 -0.0340403 -0.9994205 0.0 0.9996849 -0.0251026 0.0 0.9996849 -0.0251026 0.0 0.9996849 -0.0251026 0.0 0.9996849 -0.0251026 0.0 0.0759304 0.9971131 0.0 0.0759304 0.9971131 0.0 0.0759304 0.9971131 0.0 0.0759304 0.9971131 0.0 -0.0339925 -0.9994221 3.63E-5 -0.0340126 -0.9994214 0.0 -0.0340126 -0.9994214 0.0 -0.0339824 -0.9994224 5.45E-5 -0.0339522 -0.9994234 1.09E-4 0.0759304 0.9971131 0.0 0.0759304 0.9971131 0.0 0.0759304 0.9971131 0.0 0.0759304 0.9971131 0.0 0.0759304 0.9971131 0.0 0.997267 -0.0738827 0.0 0.997267 -0.0738827 0.0 0.997267 -0.0738827 0.0 0.997267 -0.0738827 0.0 -0.0665939 -0.9977802 0.0 -0.0665939 -0.9977802 0.0 -0.0665939 -0.9977802 0.0 -0.0665939 -0.9977802 0.0 -0.033942 -0.9994238 0.0 -0.033942 -0.9994238 0.0 -0.033942 -0.9994238 0.0 -0.033942 -0.9994238 0.0 -0.0593013 -0.9982401 0.0 -0.0593013 -0.9982401 0.0 -0.0593013 -0.9982401 0.0 -0.0593013 -0.9982401 0.0 0.0341862 0.9994155 0.0 0.0341862 0.9994155 0.0 0.0341862 0.9994155 0.0 0.0341862 0.9994155 0.0 0.9977975 -0.0663334 0.0 0.9977975 -0.0663334 0.0 0.9977975 -0.0663334 0.0 0.9977975 -0.0663334 0.0 0.9996842 -0.0251283 0.0 0.9996842 -0.0251283 0.0 0.9996842 -0.0251283 0.0 0.9996842 -0.0251283 0.0 0.9996842 -0.0251283 0.0 0.0337002 0.999432 0.0 0.0337002 0.999432 0.0 0.0337002 0.999432 0.0 0.0337002 0.999432 0.0 0.0337002 0.999432 0.0 -0.057967 -0.9983185 0.0 -0.057967 -0.9983185 0.0 -0.057967 -0.9983185 0.0 -0.057967 -0.9983185 0.0 0.0337944 0.9994288 0.0 0.0337944 0.9994288 0.0 0.0337944 0.9994288 0.0 0.0337944 0.9994288 0.0 0.0337944 0.9994288 0.0 -0.0371758 -0.4877592 0.8721863 -0.052251 -0.6856378 0.7260652 -0.0522588 -0.6856531 0.7260501 -0.028131 -0.3690407 0.9289874 0.0 0.0 1.0 0.065861 0.9978288 0.0 0.065861 0.9978288 0.0 0.065861 0.9978288 0.0 0.065861 0.9978288 0.0 0.0758445 0.9971197 0.0 0.0758445 0.9971197 0.0 0.0758445 0.9971197 0.0 0.0758445 0.9971197 0.0 0.0758445 0.9971197 0.0 0.0758445 0.9971197 0.0 0.049959 0.9987513 0.0 0.049959 0.9987513 0.0 0.049959 0.9987513 0.0 0.049959 0.9987513 0.0 0.0 0.0 -1.0 0.0 0.0 -1.0 0.0 0.0 -1.0 0.0 0.0 -1.0 0.0 0.0 -1.0 0.0 0.0 -1.0 0.0 0.0 -1.0 0.0339849 0.9994222 4.985E-4 0.0339496 0.9994235 0.0 0.0341156 0.9994178 4.985E-4 0.0340638 0.9994196 4.985E-4 0.0337944 0.9994288 0.0 0.0341862 0.9994155 0.0 0.0406788 0.9991723 0.0 0.0406788 0.9991723 0.0 0.0406788 0.9991723 0.0 0.0406788 0.9991723 0.0 0.9918358 -0.1275217 0.0 0.9918358 -0.1275217 0.0 0.9918358 -0.1275217 0.0 0.9918358 -0.1275217 0.0 -0.9979401 0.0641534 0.0 -0.9979401 0.0641534 0.0 -0.9979401 0.0641534 0.0 -0.9979401 0.0641534 0.0 -0.9990734 0.0430391 0.0 -0.9990734 0.0430391 0.0 -0.9990734 0.0430391 0.0 -0.9990734 0.0430391 0.0 -0.9990734 0.0430391 0.0 0.1158834 0.9928629 0.0281824 0.1158834 0.9928629 0.0281824 0.1158834 0.9928629 0.0281824 0.6579459 -0.0542805 0.7511064 0.6580106 -0.0542632 0.7510509 0.6592733 -0.054374 0.7499348 0.6620837 -0.0546524 0.7474345 0.6641772 -0.0548291 0.7455619 0.6664265 -0.0550972 0.7435322 -0.9966201 0.0821487 0.0 -0.9966201 0.0821487 0.0 -0.9966201 0.0821487 0.0 -0.9966201 0.0821487 0.0 -0.9966201 0.0821487 0.0 -0.0814891 -0.9966742 1.006E-4 -0.0814891 -0.9966742 1.006E-4 -0.0814891 -0.9966742 1.006E-4 0.0 0.0 -1.0 0.0 0.0 -1.0 0.0 0.0 -1.0 0.0 0.0 -1.0 0.0 0.0 -1.0 0.0 0.0 -1.0 0.0 0.0 -1.0 0.0 0.0 -1.0 0.0 0.0 -1.0 0.0 0.0 -1.0 0.0 0.0 -1.0 0.0 0.0 -1.0 0.999468 -0.0326155 0.0 0.999468 -0.0326155 0.0 0.999468 -0.0326155 0.0 0.999468 -0.0326155 0.0 0.997647 -0.0685586 0.0 0.9976471 -0.0685586 0.0 0.9976471 -0.0685586 0.0 0.997647 -0.0685586 0.0 0.997647 -0.0685586 0.0 -0.997267 0.0738827 0.0 -0.997267 0.0738827 0.0 -0.997267 0.0738827 0.0 -0.997267 0.0738827 0.0 -0.9972669 0.0738827 0.0 -0.998827 0.0484196 0.0 -0.998827 0.0484197 0.0 -0.998827 0.0484196 0.0 -0.998827 0.0484196 0.0 -0.4022185 0.018364 0.9153595 -0.4022009 0.0183563 0.9153674 -0.4022185 0.018364 0.9153595 -0.4022362 0.0183717 0.9153516 0.9979207 -0.0644537 0.0 0.9979207 -0.0644537 0.0 0.9979207 -0.0644537 0.0 0.9979207 -0.0644537 0.0 -0.0340403 -0.9994204 0.0 -0.0340403 -0.9994204 0.0 -0.0340403 -0.9994204 0.0 -0.0340403 -0.9994204 0.0 0.0 0.0 1.0 0.0 0.0 1.0 0.0 0.0 1.0 0.0 0.0 1.0 -0.0338788 -0.9994259 0.0 -0.0338788 -0.9994259 0.0 -0.0338788 -0.9994259 0.0 -0.0338788 -0.9994259 0.0 -0.0338788 -0.9994259 0.0 -0.0338788 -0.9994259 0.0 0.9981795 -0.0603129 0.0 0.9981795 -0.0603129 0.0 0.9981795 -0.0603129 0.0 0.9981795 -0.0603129 0.0 -0.9972029 0.0747413 0.0 -0.9972029 0.0747413 0.0 -0.9972029 0.0747413 0.0 -0.9972029 0.0747413 0.0 0.0 0.0 1.0 0.0 0.0 1.0 0.0 0.0 1.0 0.0 0.0 1.0 0.0 0.0 1.0 0.0 0.0 1.0 0.0 0.0 1.0 0.0 0.0 1.0 0.0 0.0 1.0 0.0 0.0 1.0 0.0 0.0 1.0 0.0 0.0 1.0 -0.0339522 -0.9994234 0.0 -0.0339522 -0.9994234 0.0 -0.0339522 -0.9994234 0.0 0.0 0.0 -1.0 0.0 0.0 -1.0 0.0 0.0 -1.0 0.0 0.0 -1.0 0.7112477 -0.0455252 0.7014657 0.7115582 -0.0454861 0.7011533 0.7112477 -0.0455252 0.7014657 0.7109372 -0.0455643 0.7017779 0.0 0.0 -1.0 0.0 0.0 -1.0 0.0 0.0 -1.0 0.0 0.0 -1.0 0.0 0.0 -1.0 0.0 0.0 -1.0 0.0 0.0 -1.0 0.0 0.0 -1.0 0.0 0.0 -1.0 -0.999061 0.0433271 0.0 -0.999061 0.0433271 0.0 -0.999061 0.0433271 0.0 -0.999061 0.0433271 0.0 0.0 0.0 -1.0 0.0 0.0 -1.0 0.0 0.0 -1.0 0.0 0.0 -1.0 0.0 0.0 -1.0 0.0 0.0 -1.0 0.0 0.0 -1.0 0.0 0.0 -1.0 0.0 0.0 -1.0 0.0 0.0 -1.0 0.0 0.0 -1.0 0.0 0.0 1.0 0.0 0.0 1.0 0.0 0.0 1.0 0.0 0.0 1.0 0.0 0.0 1.0 0.0 0.0 1.0 0.0 0.0 1.0 -0.0337944 -0.9994288 0.0 -0.0337944 -0.9994288 0.0 -0.0337944 -0.9994288 0.0 -0.0337944 -0.9994288 0.0 -0.0337944 -0.9994288 0.0 0.9996849 -0.0251026 0.0 0.9996849 -0.0251026 0.0 0.9996849 -0.0251026 0.0 0.9996849 -0.0251026 0.0 -0.0634556 -0.9979846 0.0 -0.0634556 -0.9979846 0.0 -0.0634556 -0.9979846 0.0 -0.0634556 -0.9979846 0.0 0.9966232 -0.0821117 0.0 0.9966232 -0.0821117 0.0 0.9966232 -0.0821117 0.0 0.9966232 -0.0821117 0.0 -0.0337645 -0.9994298 0.0 -0.0337645 -0.9994298 0.0 -0.0337645 -0.9994298 0.0 -0.0337645 -0.9994298 0.0 0.0905372 0.9958931 0.0 0.0905372 0.9958931 0.0 0.0905372 0.9958931 0.0 0.0905372 0.9958931 0.0 0.0905372 0.9958931 0.0 0.999468 -0.0326155 0.0 0.999468 -0.0326155 0.0 0.999468 -0.0326155 0.0 0.999468 -0.0326155 0.0 -1.0 0.0 0.0 -1.0 0.0 0.0 -1.0 0.0 0.0 -1.0 0.0 0.0 -0.999468 0.0326155 0.0 -0.999468 0.0326155 0.0 -0.999468 0.0326155 0.0 -0.999468 0.0326155 0.0 -0.9986774 0.051414 0.0 -0.9986774 0.051414 0.0 -0.9986774 0.051414 0.0 -0.9986774 0.051414 0.0 0.9977353 -0.0672635 0.0 0.9977353 -0.0672635 0.0 0.9977353 -0.0672635 0.0 0.9977353 -0.0672635 0.0 0.3946485 -0.0421468 0.917865 0.3946485 -0.0421468 0.917865 0.3946485 -0.0421468 0.917865 -0.0814891 -0.9966742 0.0 -0.0814891 -0.9966742 0.0 -0.0814891 -0.9966742 0.0 -0.0814891 -0.9966742 0.0 0.9979525 -0.0639593 0.0 0.9979525 -0.0639593 0.0 0.9979525 -0.0639593 0.0 0.9979525 -0.0639593 0.0 0.0592733 0.9982418 0.0 0.0592733 0.9982418 0.0 0.0592733 0.9982418 0.0 0.0592733 0.9982418 0.0 0.0337552 0.9994301 0.0 0.0337552 0.9994301 0.0 0.0337552 0.9994301 0.0 0.0337552 0.9994301 0.0 0.033942 0.9994238 0.0 0.033942 0.9994238 0.0 0.033942 0.9994238 0.0 0.033942 0.9994238 0.0 -0.065861 -0.9978288 0.0 -0.065861 -0.9978288 0.0 -0.065861 -0.9978288 0.0 -0.065861 -0.9978288 0.0 -0.995319 0.0966441 0.0 -0.9953189 0.0966441 0.0 -0.995319 0.0966441 0.0 -0.995319 0.0966441 0.0 0.0342391 0.9994137 0.0 0.0342391 0.9994137 0.0 0.0342391 0.9994137 0.0 -0.059329 -0.9982385 0.0 -0.059329 -0.9982385 0.0 -0.059329 -0.9982385 0.0 -0.059329 -0.9982385 0.0 0.0339925 0.9994221 -3.63E-5 0.0339522 0.9994234 -1.09E-4 0.0339824 0.9994224 -5.45E-5 0.0340126 0.9994214 0.0 0.0340126 0.9994214 0.0</float_array>
                    <technique_common>
                        <accessor count="601" source="#geometry0-normal-array" stride="3">
                            <param name="X" type="float"/>
                            <param name="Y" type="float"/>
                            <param name="Z" type="float"/>
                        </accessor>
                    </technique_common>
                </source>
                <vertices id="geometry0-vertex">
                    <input semantic="POSITION" source="#geometry0-position"/>
                </vertices>
                <triangles count="281" material="default_ai_0.2_sh_0.2_tr_0.0_dc_r_0.8_g_0.8_b_0.8_sc_r_1.0_g_1.0_b_1.0_ec_r_0.0_g_0.0_b_0_tri">
                    <input offset="0" semantic="VERTEX" source="#geometry0-vertex"/>
                    <input offset="1" semantic="NORMAL" source="#geometry0-normal"/>
                    <p>55 0 56 1 57 2 55 0 57 2 58 3 5 4 6 5 7 6 5 4 7 6 8 7 13 8 15 9 16 10 13 8 16 10 14 11 13 8 14 11 10 12 21 32 20 33 24 34 21 32 24 34 32 35 46 40 72 41 71 42 46 40 71 42 70 43 69 44 65 45 68 46 69 44 68 46 73 47 18 48 61 49 60 50 15 51 18 48 60 50 15 51 60 50 74 52 8 53 7 54 4 55 8 53 4 55 3 56 15 57 13 58 12 59 15 57 12 59 18 60 80 61 79 62 56 63 94 64 80 61 56 63 94 64 56 63 64 65 48 78 54 79 41 80 48 78 41 80 47 81 18 82 12 83 11 84 19 85 18 82 11 84 19 85 11 84 17 86 58 87 57 88 59 89 58 87 59 89 60 90 58 87 60 90 61 91 61 92 18 93 19 94 62 95 61 92 19 94 62 95 19 94 75 96 22 97 21 98 84 99 22 97 84 99 83 100 124 101 131 102 111 103 124 101 111 103 37 104 124 101 37 104 28 105 28 106 37 107 38 108 28 106 38 108 27 109 95 110 96 111 97 112 95 110 97 112 98 113 16 114 15 115 18 116 16 114 18 116 19 117 16 118 19 119 17 120 16 118 17 120 14 121 20 122 33 123 25 124 20 122 25 124 24 125 41 126 57 127 56 128 41 126 56 128 79 129 41 126 79 129 78 130 130 131 119 132 38 133 111 134 130 131 38 133 111 134 38 133 37 135 74 141 133 142 140 143 76 144 74 141 140 143 76 144 140 143 139 145 103 146 104 147 90 148 103 146 90 148 31 149 103 146 31 149 30 150 103 146 30 150 29 151 102 152 103 146 29 151 101 153 102 152 29 151 97 154 100 155 101 153 97 154 101 153 29 151 98 156 97 154 29 151 98 156 29 151 28 157 98 156 28 157 99 158 9 159 6 160 5 161 62 162 55 163 58 164 62 162 58 164 61 165 121 166 27 167 38 168 121 166 38 168 119 169 121 166 119 169 120 170 83 171 82 172 93 173 22 174 83 171 93 173 22 174 93 173 39 175 73 176 46 177 70 178 73 176 70 178 69 179 65 183 66 184 67 185 65 183 67 185 68 186 52 187 51 188 44 189 52 187 44 189 43 190 34 196 38 197 27 198 34 196 27 198 26 199 121 200 125 201 122 202 121 200 122 202 123 203 121 200 123 203 124 204 121 200 124 204 28 205 121 200 28 205 27 206 47 207 46 208 49 209 47 207 49 209 48 210 92 211 136 212 132 213 92 211 132 213 91 214 8 215 3 216 1 217 8 215 1 217 5 218 126 219 127 220 122 221 126 219 122 221 125 222 105 223 106 224 101 225 105 223 101 225 100 226 76 227 16 228 15 229 76 227 15 229 74 230 54 231 53 232 42 233 54 231 42 233 41 234 22 235 39 236 40 237 22 235 40 237 23 238 39 239 22 240 21 241 39 239 21 241 32 242 39 239 32 242 31 243 39 244 31 245 30 246 39 244 30 246 40 247 32 248 3 249 1 250 32 248 1 250 85 251 21 252 32 248 85 251 21 252 85 251 84 253 56 254 57 255 59 256 56 254 59 256 64 257 49 262 46 263 47 264 49 262 47 264 48 265 64 266 59 267 91 268 64 266 91 268 92 269 64 266 92 269 94 270 1 271 3 272 8 273 1 271 8 273 5 274 71 275 70 276 88 277 71 275 88 277 87 278 40 279 30 280 29 281 40 279 29 281 36 282 40 279 36 282 35 283 70 284 71 285 72 286 49 287 70 284 72 286 49 287 72 286 46 288 29 289 28 290 37 291 29 289 37 291 36 292 136 293 140 294 133 295 136 293 133 295 132 296 93 297 90 298 31 299 93 297 31 299 39 300 127 301 128 302 123 303 127 301 123 303 122 304 134 305 60 306 63 307 134 305 63 307 141 308 28 309 27 310 38 311 28 309 38 311 37 312 32 313 21 314 22 315 32 313 22 315 39 316 32 313 39 316 31 317 138 318 92 319 91 320 141 321 138 318 91 320 141 321 91 320 134 322 107 323 108 324 104 325 107 323 104 325 103 326 76 327 77 328 63 329 76 327 63 329 60 330 76 327 60 330 74 331 109 337 106 338 101 339 109 337 101 339 102 340 8 341 72 342 71 343 8 341 71 343 87 344 5 345 8 341 87 344 5 345 87 344 86 346 50 347 49 348 46 349 50 347 46 349 45 350 46 351 47 352 41 353 45 354 46 351 41 353 44 355 45 354 41 353 44 355 41 353 42 356 44 355 42 356 43 357 139 358 138 359 141 360 77 361 76 362 139 358 77 361 139 358 141 360 77 361 141 360 63 363 120 364 126 365 125 366 120 364 125 366 121 367 66 368 71 369 72 370 66 368 72 370 67 371 108 372 93 373 90 374 108 372 90 374 104 375 102 376 115 377 113 378 109 379 102 376 113 378 109 379 113 378 114 380 89 390 88 391 70 392 89 390 70 392 49 393 89 390 49 393 48 394 0 395 1 396 2 397 46 398 72 399 47 400 72 399 8 401 47 400 8 401 3 402 47 400 3 402 32 403 47 400 47 400 32 403 41 404 41 404 32 403 57 405 57 405 32 403 59 406 59 406 32 403 91 407 91 407 32 403 90 408 90 408 32 403 31 409 63 410 62 411 75 412 63 410 75 412 77 413 118 414 101 415 106 416 118 414 106 416 116 417 118 414 116 417 117 418 28 419 29 420 36 421 28 419 36 421 112 422 28 419 112 422 111 423 53 424 52 425 43 426 53 424 43 426 42 427 128 432 129 433 124 434 128 432 124 434 123 435 94 436 92 437 81 438 94 436 81 438 80 439 91 444 90 445 93 446 91 444 93 446 82 447 92 448 91 444 82 447 92 448 82 447 81 449 96 450 105 451 100 452 96 450 100 452 97 453 10 454 11 455 12 456 10 454 12 456 13 457 40 470 35 471 23 472 101 473 118 474 115 475 101 473 115 475 102 476 26 481 27 482 25 483 27 482 28 484 25 483 25 483 28 484 24 485 24 485 28 484 32 486 32 486 28 484 31 487 31 487 28 484 30 488 30 488 28 484 29 489 109 490 107 491 103 492 109 490 103 492 102 493 74 494 60 495 134 496 133 497 74 494 134 496 133 497 134 496 91 498 133 497 91 498 132 499 73 500 68 501 67 502 73 500 67 502 72 503 73 500 72 503 46 504 77 512 76 513 74 514 63 515 77 512 74 514 63 515 74 514 60 516 1 517 5 518 86 519 1 517 86 519 85 520 117 521 113 522 115 523 117 521 115 523 118 524 59 525 57 526 56 527 59 525 56 527 64 528 60 529 59 530 64 531 60 529 64 531 63 532 47 533 41 534 78 535 48 536 47 533 78 535 48 536 78 535 89 537 63 538 60 539 61 540 63 538 61 540 62 541 33 542 34 543 26 544 33 542 26 544 25 545 61 546 60 547 63 548 61 546 63 548 62 549 18 550 15 551 16 552 18 550 16 552 19 553 110 554 95 555 98 556 110 554 98 556 99 557 2 561 1 562 3 563 2 561 3 563 4 564 6 565 2 566 4 567 6 565 4 567 7 568 99 569 28 570 111 571 99 569 111 571 110 572 30 573 31 574 39 575 30 573 39 575 40 576 31 577 90 578 93 579 31 577 93 579 39 580 106 581 109 582 102 583 106 581 102 583 101 584 51 585 50 586 45 587 51 585 45 587 44 588 36 589 35 590 112 591 111 592 131 593 129 594 111 592 129 594 130 595 40 596 35 597 36 598 40 596 36 598 29 599 40 596 29 599 30 600</p>
                </triangles>
                <triangles count="64" material="default_ai_0.2_sh_0.2_tr_0.0_dc_r_1.0_g_0.2_b_0.2_sc_r_1.0_g_1.0_b_1.0_ec_r_0.0_g_0.0_b_0_tri">
                    <input offset="0" semantic="VERTEX" source="#geometry0-vertex"/>
                    <input offset="1" semantic="NORMAL" source="#geometry0-normal"/>
                    <p>138 13 139 14 137 15 138 13 137 15 135 16 138 13 135 16 92 17 39 18 93 19 108 20 39 18 108 20 107 21 39 18 107 21 109 22 39 18 109 22 106 23 39 18 106 23 105 24 39 18 105 24 96 25 39 18 96 25 95 26 40 27 39 18 95 26 35 28 40 27 95 26 112 29 35 28 95 26 112 29 95 26 110 30 112 29 110 30 111 31 17 36 11 37 10 38 17 36 10 38 14 39 0 66 9 67 5 68 0 66 5 68 1 69 33 70 20 71 23 72 33 70 23 72 35 73 33 70 35 73 36 74 33 70 36 74 37 75 33 70 37 75 38 76 33 70 38 76 34 77 76 136 77 137 75 138 16 139 76 136 75 138 16 139 75 138 19 140 137 180 139 181 140 182 63 191 64 192 56 193 63 191 56 193 55 194 63 191 55 194 62 195 135 258 137 259 140 260 135 258 140 260 136 261 71 332 66 333 65 334 71 332 65 334 69 335 71 332 69 335 70 336 53 381 54 382 48 383 52 384 53 385 48 386 51 387 52 384 48 386 51 387 48 386 49 388 51 387 49 388 50 389 20 428 21 429 22 430 20 428 22 430 23 431 114 440 113 441 117 442 114 440 117 442 116 443 87 458 88 459 89 460 86 461 87 458 89 460 85 462 86 461 89 460 84 463 85 462 89 460 84 463 89 460 78 464 84 463 78 464 79 465 84 463 79 465 80 466 84 463 80 466 81 467 84 463 81 467 82 468 84 463 82 468 83 469 9 477 0 478 2 479 9 477 2 479 6 480 128 505 127 506 126 507 128 505 126 507 120 508 129 509 128 505 120 508 130 510 129 509 120 508 130 510 120 508 119 511 135 558 136 559 92 560</p>
                </triangles>
            </mesh>
        </geometry>
    </library_geometries>
    <library_visual_scenes>
        <visual_scene id="Building_DEBW_5221000QyrV">
            <node>
                <instance_geometry url="#geometry0">
                    <bind_material>
                        <technique_common>
                            <instance_material symbol="default_ai_0.2_sh_0.2_tr_0.0_dc_r_0.8_g_0.8_b_0.8_sc_r_1.0_g_1.0_b_1.0_ec_r_0.0_g_0.0_b_0_tri" target="#default_ai_0.2_sh_0.2_tr_0.0_dc_r_0.8_g_0.8_b_0.8_sc_r_1.0_g_1.0_b_1.0_ec_r_0.0_g_0.0_b_0_mat"/>
                            <instance_material symbol="default_ai_0.2_sh_0.2_tr_0.0_dc_r_1.0_g_0.2_b_0.2_sc_r_1.0_g_1.0_b_1.0_ec_r_0.0_g_0.0_b_0_tri" target="#default_ai_0.2_sh_0.2_tr_0.0_dc_r_1.0_g_0.2_b_0.2_sc_r_1.0_g_1.0_b_1.0_ec_r_0.0_g_0.0_b_0_mat"/>
                        </technique_common>
                    </bind_material>
                </instance_geometry>
            </node>
        </visual_scene>
    </library_visual_scenes>
    <scene>
        <instance_visual_scene url="#Building_DEBW_5221000QyrV"/>
    </scene>
</COLLADA>
