<?xml version="1.0" encoding="UTF-8" standalone="yes"?>
<COLLADA xmlns="http://www.collada.org/2005/11/COLLADASchema" version="1.4.1">
    <asset>
        <contributor>
            <authoring_tool>3D City Database Importer/Exporter, version 5.5.3; Chair of Geoinformatics, Technical University of Munich</authoring_tool>
        </contributor>
        <created>2026-05-06T15:12:10.328</created>
        <modified>2026-05-06T15:12:10.328</modified>
        <unit meter="1.0" name="meters"/>
        <up_axis>Z_UP</up_axis>
    </asset>
    <library_materials>
        <material id="default_ai_0.2_sh_0.2_tr_0.0_dc_r_0.8_g_0.8_b_0.8_sc_r_1.0_g_1.0_b_1.0_ec_r_0.0_g_0.0_b_0_mat">
            <instance_effect url="#default_ai_0.2_sh_0.2_tr_0.0_dc_r_0.8_g_0.8_b_0.8_sc_r_1.0_g_1.0_b_1.0_ec_r_0.0_g_0.0_b_0_eff"/>
        </material>
        <material id="default_ai_0.2_sh_0.2_tr_0.0_dc_r_1.0_g_0.2_b_0.2_sc_r_1.0_g_1.0_b_1.0_ec_r_0.0_g_0.0_b_0_mat">
            <instance_effect url="#default_ai_0.2_sh_0.2_tr_0.0_dc_r_1.0_g_0.2_b_0.2_sc_r_1.0_g_1.0_b_1.0_ec_r_0.0_g_0.0_b_0_eff"/>
        </material>
    </library_materials>
    <library_effects>
        <effect id="default_ai_0.2_sh_0.2_tr_0.0_dc_r_0.8_g_0.8_b_0.8_sc_r_1.0_g_1.0_b_1.0_ec_r_0.0_g_0.0_b_0_eff">
            <profile_COMMON>
                <technique sid="COMMON">
                    <lambert>
                        <emission>
                            <color>0.0 0.0 0.0 1.0</color>
                        </emission>
                        <diffuse>
                            <color>0.8 0.8 0.8 1.0</color>
                        </diffuse>
                        <reflective>
                            <color>1.0 1.0 1.0 1.0</color>
                        </reflective>
                        <reflectivity>
                            <float>0.2</float>
                        </reflectivity>
                        <transparent opaque="A_ONE">
                            <color>1.0 1.0 1.0 1.0</color>
                        </transparent>
                        <transparency>
                            <float>1.0</float>
                        </transparency>
                    </lambert>
                </technique>
                <extra>
                    <technique profile="GOOGLEEARTH">
                        <double_sided>0</double_sided>
                    </technique>
                </extra>
            </profile_COMMON>
        </effect>
        <effect id="default_ai_0.2_sh_0.2_tr_0.0_dc_r_1.0_g_0.2_b_0.2_sc_r_1.0_g_1.0_b_1.0_ec_r_0.0_g_0.0_b_0_eff">
            <profile_COMMON>
                <technique sid="COMMON">
                    <lambert>
                        <emission>
                            <color>0.0 0.0 0.0 1.0</color>
                        </emission>
                        <diffuse>
                            <color>1.0 0.2 0.2 1.0</color>
                        </diffuse>
                        <reflective>
                            <color>1.0 1.0 1.0 1.0</color>
                        </reflective>
                        <reflectivity>
                            <float>0.2</float>
                        </reflectivity>
                        <transparent opaque="A_ONE">
                            <color>1.0 1.0 1.0 1.0</color>
                        </transparent>
                        <transparency>
                            <float>1.0</float>
                        </transparency>
                    </lambert>
                </technique>
                <extra>
                    <technique profile="GOOGLEEARTH">
                        <double_sided>0</double_sided>
                    </technique>
                </extra>
            </profile_COMMON>
        </effect>
    </library_effects>
    <library_geometries>
        <geometry id="geometry0">
            <mesh>
                <source id="geometry0-position">
                    <float_array id="geometry0-position-array" count="306">-5.0 -2.35 7.978 0.0 0.0 8.019 0.0 0.0 0.0 -5.0 -2.35 0.0 -4.948 -6.002 7.662 -5.049 -5.908 7.616 -5.049 -5.908 0.0 -4.948 -6.002 0.0 -4.477 -6.284 7.912 -4.346 -6.329 7.989 -4.212 -6.362 8.07 -4.076 -6.383 8.155 -3.938 -6.393 8.244 -3.801 -6.391 8.335 -3.663 -6.378 8.429 -3.528 -6.353 8.524 -3.394 -6.316 8.619 -3.265 -6.269 8.715 -3.14 -6.21 8.81 -1.83 -8.893 9.095 0.137 -4.612 11.318 -4.688 -2.935 8.497 -4.51 -3.27 8.542 -4.635 -3.328 8.447 -4.755 -3.397 8.353 -4.869 -3.475 8.261 -4.975 -3.563 8.172 -5.074 -3.659 8.086 -5.164 -3.764 8.004 -5.245 -3.875 7.927 -5.316 -3.993 7.854 -5.377 -4.117 7.787 -5.427 -4.246 7.726 -5.466 -4.378 7.672 -5.493 -4.513 7.625 -5.509 -4.65 7.584 -5.514 -4.788 7.552 -5.506 -4.926 7.527 -5.487 -5.063 7.51 -5.457 -5.197 7.501 -5.415 -5.329 7.5 -5.362 -5.456 7.508 -5.298 -5.579 7.523 -5.225 -5.695 7.546 -5.141 -5.805 7.578 -4.84 -6.087 7.715 -4.725 -6.163 7.775 -4.603 -6.229 7.841 -4.477 -6.284 0.0 -4.346 -6.329 0.0 -5.298 -5.579 0.0 -5.225 -5.695 0.0 -5.493 -4.513 0.0 -5.509 -4.65 0.0 -5.245 -3.875 0.0 -5.316 -3.993 0.0 -3.528 -6.353 0.0 -3.394 -6.316 0.0 -1.23 -10.12 8.084 -3.14 -6.21 0.0 -1.23 -10.12 0.0 -4.755 -3.397 0.0 -4.869 -3.475 0.0 4.9 -2.65 11.097 6.54 -1.85 11.103 6.54 -1.85 0.0 4.9 -2.65 0.0 -4.076 -6.383 0.0 -3.938 -6.393 0.0 7.8 -4.48 8.946 8.32 -5.56 8.059 8.32 -5.56 0.0 7.8 -4.48 0.0 -3.265 -6.269 0.0 -4.725 -6.163 0.0 -4.603 -6.229 0.0 4.77 -2.381 11.318 3.92 -7.67 8.064 2.47 2.39 7.172 -0.42 0.99 7.178 -4.212 -6.362 0.0 -3.801 -6.391 0.0 3.92 -7.67 0.0 -4.84 -6.087 0.0 -5.362 -5.456 0.0 -3.663 -6.378 0.0 -4.635 -3.328 0.0 -5.377 -4.117 0.0 2.47 2.39 0.0 -0.42 0.99 0.0 -5.141 -5.805 0.0 -5.427 -4.246 0.0 -5.466 -4.378 0.0 -5.415 -5.329 0.0 -5.457 -5.197 0.0 -5.487 -5.063 0.0 -5.506 -4.926 0.0 -5.514 -4.788 0.0 -5.164 -3.764 0.0 -5.074 -3.659 0.0 -4.975 -3.563 0.0 -4.51 -3.27 0.0</float_array>
                    <technique_common>
                        <accessor count="102" source="#geometry0-position-array" stride="3">
                            <param name="X" type="float"/>
                            <param name="Y" type="float"/>
                            <param name="Z" type="float"/>
                        </accessor>
                    </technique_common>
                </source>
                <source id="geometry0-normal">
                    <float_array id="geometry0-normal-array" count="936">-0.9205819 -0.3905499 0.0 -0.9205819 -0.3905499 0.0 -0.9205819 -0.3905499 0.0 -0.9205819 -0.3905499 0.0 0.0 0.0 -1.0 0.0 0.0 -1.0 0.0 0.0 -1.0 0.0 0.0 -1.0 0.0 0.0 -1.0 0.0 0.0 -1.0 0.0 0.0 -1.0 0.0 0.0 -1.0 0.0 0.0 -1.0 0.0 0.0 -1.0 0.0 0.0 -1.0 0.0 0.0 -1.0 0.0 0.0 -1.0 0.0 0.0 -1.0 0.0 0.0 -1.0 0.0 0.0 -1.0 0.0 0.0 -1.0 0.0 0.0 -1.0 0.0 0.0 -1.0 0.0 0.0 -1.0 0.0 0.0 -1.0 0.0 0.0 -1.0 0.0 0.0 -1.0 0.0 0.0 -1.0 0.0 0.0 -1.0 0.0 0.0 -1.0 0.0 0.0 -1.0 0.0 0.0 -1.0 0.0 0.0 -1.0 0.0 0.0 -1.0 0.0 0.0 -1.0 0.0 0.0 -1.0 0.0 0.0 -1.0 0.0 0.0 -1.0 0.0 0.0 -1.0 0.0 0.0 -1.0 0.0 0.0 -1.0 0.0 0.0 -1.0 0.0 0.0 -1.0 0.0 0.0 -1.0 0.0 0.0 -1.0 0.0 0.0 -1.0 0.0 0.0 -1.0 0.0 0.0 -1.0 0.0 0.0 -1.0 0.0 0.0 -1.0 0.0 0.0 -1.0 0.0 0.0 -1.0 0.0 0.0 -1.0 -0.6387558 0.7694095 0.0 -0.6387559 0.7694095 0.0 -0.6387558 0.7694095 0.0 -0.6387558 0.7694095 0.0 -0.9905196 -0.1373716 0.0 -0.9905196 -0.1373716 0.0 -0.9905196 -0.1373716 0.0 -0.9905196 -0.1373716 0.0 0.3423275 -0.9395807 0.0 0.3423275 -0.9395807 0.0 0.3423275 -0.9395807 0.0 0.3423275 -0.9395807 0.0 -0.4253612 0.9050237 0.0 -0.4253611 0.9050237 0.0 -0.4253612 0.9050237 0.0 -0.4253612 0.9050237 0.0 -0.6961458 0.7179005 0.0 -0.6961458 0.7179005 0.0 -0.6961458 0.7179005 0.0 -0.6961458 0.7179005 0.0 0.9018438 0.4320621 0.0 0.9018438 0.4320621 0.0 0.9018438 0.4320621 0.0 0.9018439 0.4320622 0.0 -0.9758428 -0.2184741 0.0 -0.9758428 -0.2184741 0.0 -0.9758428 -0.2184741 0.0 -0.9758428 -0.2184741 0.0 0.9007688 0.4342992 0.0 0.9007686 0.4342992 0.0 0.9007688 0.4342992 0.0 0.9007687 0.4342992 0.0 -0.6812847 -0.7320185 0.0 -0.6812847 -0.7320185 0.0 -0.6812847 -0.7320185 0.0 -0.6812847 -0.7320185 0.0 -0.5420521 -0.1790114 0.8210569 -0.540715 -0.1771633 0.8223383 -0.543665 -0.1882012 0.8179296 -0.5434333 -0.1852146 0.8187648 -0.5406674 -0.1735502 0.8231398 -0.5416551 -0.1793805 0.8212385 -0.5421617 -0.1826964 0.8201723 -0.5420741 -0.1816621 0.8204599 -0.5421194 -0.1832772 0.8200707 -0.5420132 -0.1719165 0.8225974 -0.5415506 -0.1731292 0.8226478 -0.5416173 -0.181769 0.8207379 -0.5421748 -0.1775978 0.8212829 -0.5421275 -0.1736991 0.8221474 -0.5419741 -0.1784869 0.8212226 -0.5419429 -0.1809768 0.8206981 -0.5417803 -0.1778395 0.8214909 -0.5417669 -0.1762757 0.8218367 -0.5421596 -0.1801977 0.8207265 -0.5417681 -0.1781056 0.8214413 -0.5415842 -0.1763438 0.8219425 -0.5417733 -0.1775642 0.8215551 -0.5416029 -0.1767661 0.8218395 -0.5421599 -0.1785878 0.821078 -0.541104 -0.1758389 0.8223668 -0.5416433 -0.176654 0.8218369 -0.5427675 -0.1796769 0.8204387 -0.541522 -0.1770371 0.8218345 -0.5417045 -0.1772906 0.8216594 -0.5419675 -0.1777881 0.8213786 -0.5426804 -0.1787478 0.8206992 -0.5420871 -0.1781381 0.8212237 -0.541093 -0.1768226 0.8221632 -0.5416508 -0.1774481 0.8216609 -0.541844 -0.1776234 0.8214957 -0.5418367 -0.1776353 0.8214979 -0.5416316 -0.1774732 0.8216681 -0.541752 -0.177546 0.821573 -0.5441983 -0.1788239 0.8196769 -0.5464536 -0.1800086 0.8179153 -0.5419774 -0.1775843 0.8214161 -0.541984 -0.1776425 0.8213992 -0.4208986 0.9071077 0.0 -0.4208986 0.9071077 0.0 -0.4208986 0.9071077 0.0 -0.4208986 0.9071077 0.0 -0.7458097 -0.6661591 0.0 -0.7458097 -0.6661592 0.0 -0.7458097 -0.6661591 0.0 -0.7458097 -0.6661591 0.0 0.432398 -0.9016829 0.0 0.432398 -0.9016829 0.0 0.432398 -0.9016829 0.0 0.432398 -0.9016829 0.0 -0.8832092 -0.4689736 0.0023343 -0.8832092 -0.4689736 0.0023343 -0.8832092 -0.4689736 0.0023343 -0.3248784 -0.9457558 0.0 -0.3248784 -0.9457558 0.0 -0.3248784 -0.9457558 0.0 -0.3248784 -0.9457558 0.0 -0.8463552 -0.5326189 0.0 -0.8463552 -0.5326189 0.0 -0.8463552 -0.5326189 0.0 -0.8463551 -0.5326189 0.0 -0.9993442 0.0362089 0.0 -0.9993442 0.0362089 0.0 -0.9993442 0.0362089 0.0 -0.9993442 0.0362089 0.0 -0.9228617 -0.3851315 0.0 -0.9228617 -0.3851315 0.0 -0.9228617 -0.3851315 0.0 -0.9228617 -0.3851315 0.0 -0.8077916 0.5894681 0.0 -0.8077917 0.5894681 0.0 -0.8077916 0.5894681 0.0 -0.8077916 0.5894682 0.0 -0.998324 -0.0578731 0.0 -0.998324 -0.0578731 0.0 -0.998324 -0.0578731 0.0 -0.998324 -0.0578731 0.0 -0.9932494 0.1159984 0.0 -0.9932494 0.1159984 0.0 -0.9932494 0.1159984 0.0 -0.9932494 0.1159984 0.0 -0.8568513 0.5155637 0.0 -0.8568513 0.5155637 0.0 -0.8568513 0.5155637 0.0 -0.8568513 0.5155637 0.0 0.9005748 0.4347005 6.349E-4 0.9005748 0.4347005 6.349E-4 0.9005748 0.4347005 6.349E-4 0.2661606 -0.9639287 0.0 0.2661606 -0.9639287 0.0 0.2661606 -0.9639287 0.0 0.2661606 -0.9639287 0.0 -0.7592561 0.6507919 0.0 -0.7592561 0.6507919 0.0 -0.7592561 0.6507919 0.0 -0.7592561 0.6507919 0.0 -0.9529262 -0.3032025 0.0 -0.9529262 -0.3032025 0.0 -0.9529262 -0.3032025 0.0 -0.9529262 -0.3032025 0.0 -0.9805808 0.1961155 0.0 -0.9805808 0.1961155 0.0 -0.9805808 0.1961155 0.0 -0.9805808 0.1961155 0.0 -0.8985254 -0.4389216 0.0 -0.8985254 -0.4389216 0.0 -0.8985254 -0.4389216 0.0 -0.8985254 -0.4389216 0.0 -0.4384237 0.8987684 0.0 -0.4384237 0.8987684 0.0 -0.4384237 0.8987684 0.0 -0.4384237 0.8987684 0.0 -0.5646836 0.8253075 0.0 -0.5646836 0.8253075 0.0 -0.5646836 0.8253075 0.0 -0.5646836 0.8253075 0.0 -0.8826185 -0.4700901 0.0 -0.8826185 -0.47009 0.0 -0.8826185 -0.4700901 0.0 -0.8826185 -0.47009 0.0 -0.0722758 -0.9973847 0.0 -0.0722758 -0.9973847 0.0 -0.0722758 -0.9973847 0.0 -0.0722758 -0.9973847 0.0 -0.4000547 -0.9164913 0.0 -0.4000547 -0.9164913 0.0 -0.4000547 -0.9164913 0.0 -0.4000547 -0.9164913 0.0 -0.5513477 -0.8342756 0.0 -0.5513477 -0.8342757 0.0 -0.5513477 -0.8342756 0.0 -0.5513477 -0.8342756 0.0 -0.9324103 0.3614015 0.0 -0.9324103 0.3614015 0.0 -0.9324103 0.3614015 0.0 -0.9324103 0.3614015 0.0 0.9010018 0.4338153 0.0 0.9010018 0.4338153 0.0 0.9010018 0.4338153 0.0 0.9010018 0.4338153 0.0 -0.4758193 -0.8795431 0.0 -0.4758193 -0.8795431 0.0 -0.4758193 -0.8795431 0.0 -0.4758193 -0.8795431 0.0 0.4268421 -0.9043262 0.0 0.426842 -0.9043261 0.0 0.4268421 -0.9043262 0.0 0.4268421 -0.9043263 0.0 0.2583355 -0.5356171 0.8039758 0.2580967 -0.5359194 0.8038511 0.2581779 -0.5357905 0.8039109 0.2579895 -0.5359913 0.8038375 0.2580397 -0.5360187 0.8038031 0.2581338 -0.5360259 0.803768 0.2581134 -0.5360062 0.8037878 0.2580472 -0.5358921 0.8038851 0.2580145 -0.5358051 0.8039537 -0.2672909 0.5555389 0.7873576 -0.266994 0.5559575 0.787163 -0.2672131 0.5556601 0.7872986 -0.2674179 0.5553486 0.7874488 -0.2674173 0.5553703 0.7874337 -0.2674026 0.5554071 0.7874128 -0.2674305 0.5554275 0.7873889 0.0145994 -0.9998934 0.0 0.0145994 -0.9998934 0.0 0.0145994 -0.9998934 0.0 0.0145994 -0.9998935 0.0 -0.1526029 -0.9882876 0.0 -0.1526029 -0.9882876 0.0 -0.1526029 -0.9882876 0.0 -0.1526029 -0.9882876 0.0 -0.2391236 -0.9709892 0.0 -0.2391236 -0.9709892 0.0 -0.2391236 -0.9709892 0.0 -0.2391236 -0.9709892 0.0 0.4295932 -0.9030225 0.0 0.4295932 -0.9030225 0.0 0.4295932 -0.9030225 0.0 0.4295932 -0.9030225 0.0 -0.8985773 -0.4388147 -7.129E-4 -0.8985773 -0.4388147 -7.129E-4 -0.8985773 -0.4388147 -7.129E-4 -0.6184649 -0.7858124 0.0 -0.6184649 -0.7858124 0.0 -0.6184649 -0.7858124 0.0 -0.6184649 -0.7858124 0.0 -0.8870986 -0.4615801 0.0 -0.8870986 -0.4615801 0.0 -0.8870986 -0.4615801 0.0 -0.8870986 -0.4615801 0.0 0.0937878 -0.9955922 0.0 0.0937878 -0.9955922 0.0 0.0937878 -0.9955922 0.0 0.0937878 -0.9955922 0.0 -0.4984715 0.8669061 0.0 -0.4984715 0.8669061 0.0 -0.4984715 0.8669061 0.0 -0.4984715 0.8669061 0.0 0.1820866 -0.9832825 0.0 0.1820866 -0.9832825 0.0 0.1820866 -0.9832825 0.0 0.1820866 -0.9832825 0.0 -0.8973035 0.4414142 0.0 -0.8973035 0.4414143 0.0 -0.8973035 0.4414142 0.0 -0.8973035 0.4414142 0.0 -0.4359679 0.8999622 0.0 -0.4359679 0.8999622 0.0 -0.4359679 0.8999622 0.0 -0.4359679 0.8999622 0.0 -0.9590176 0.2833464 0.0 -0.9590176 0.2833464 0.0 -0.9590176 0.2833464 0.0 -0.9590177 0.2833464 0.0 -0.7947665 -0.6069153 0.0 -0.7947665 -0.6069153 0.0 -0.7947665 -0.6069153 0.0 -0.7947665 -0.6069153 0.0</float_array>
                    <technique_common>
                        <accessor count="312" source="#geometry0-normal-array" stride="3">
                            <param name="X" type="float"/>
                            <param name="Y" type="float"/>
                            <param name="Z" type="float"/>
                        </accessor>
                    </technique_common>
                </source>
                <vertices id="geometry0-vertex">
                    <input semantic="POSITION" source="#geometry0-position"/>
                </vertices>
                <triangles count="148" material="default_ai_0.2_sh_0.2_tr_0.0_dc_r_0.8_g_0.8_b_0.8_sc_r_1.0_g_1.0_b_1.0_ec_r_0.0_g_0.0_b_0_tri">
                    <input offset="0" semantic="VERTEX" source="#geometry0-vertex"/>
                    <input offset="1" semantic="NORMAL" source="#geometry0-normal"/>
                    <p>1 0 79 1 89 2 1 0 89 2 2 3 65 4 72 5 66 6 72 5 71 7 66 6 71 7 82 8 66 6 66 6 82 8 88 9 88 9 82 8 89 10 89 10 82 8 2 11 2 11 82 8 3 12 3 12 82 8 101 13 101 13 82 8 86 14 86 14 82 8 61 15 61 15 82 8 62 16 62 16 82 8 100 17 100 17 82 8 99 18 99 18 82 8 98 19 98 19 82 8 54 20 54 20 82 8 55 21 55 21 82 8 87 22 87 22 82 8 91 23 91 23 82 8 92 24 92 24 82 8 52 25 52 25 82 8 53 26 53 26 82 8 97 27 97 27 82 8 96 28 96 28 82 8 95 29 95 29 82 8 94 30 94 30 82 8 93 31 93 31 82 8 84 32 84 32 82 8 50 33 50 33 82 8 51 34 60 35 59 36 82 8 82 8 59 36 51 34 51 34 59 36 90 37 90 37 59 36 6 38 6 38 59 36 7 39 7 39 59 36 83 40 83 40 59 36 74 41 74 41 59 36 75 42 75 42 59 36 48 43 48 43 59 36 49 44 49 44 59 36 80 45 80 45 59 36 67 46 67 46 59 36 68 47 68 47 59 36 81 48 81 48 59 36 85 49 85 49 59 36 56 50 56 50 59 36 57 51 57 51 59 36 73 52 26 53 25 54 62 55 26 53 62 55 100 56 38 57 37 58 96 59 38 57 96 59 95 60 17 61 16 62 57 63 17 61 57 63 73 64 0 65 1 66 2 67 0 65 2 67 3 68 27 69 26 70 100 71 27 69 100 71 99 72 64 73 69 74 72 75 64 73 72 75 65 76 39 77 38 78 95 79 39 77 95 79 94 80 78 81 63 82 66 83 78 81 66 83 88 84 4 85 5 86 6 87 4 85 6 87 7 88 23 131 22 132 101 133 23 131 101 133 86 134 5 135 44 136 90 137 5 135 90 137 6 138 70 139 77 140 82 141 70 139 82 141 71 142 0 143 22 144 21 145 9 146 8 147 48 148 9 146 48 148 49 149 43 150 42 151 50 152 43 150 50 152 51 153 36 154 35 155 53 156 36 154 53 156 97 157 41 158 40 159 93 160 41 158 93 160 84 161 29 162 28 163 98 164 29 162 98 164 54 165 37 166 36 167 97 168 37 166 97 168 96 169 35 170 34 171 52 172 35 170 52 172 53 173 30 174 29 175 54 176 30 174 54 176 55 177 63 178 78 179 76 180 16 181 15 182 56 183 16 181 56 183 57 184 28 185 27 186 99 187 28 185 99 187 98 188 40 189 39 190 94 191 40 189 94 191 93 192 34 193 33 194 92 195 34 193 92 195 52 196 58 197 18 198 59 199 58 197 59 199 60 200 63 201 64 202 65 203 63 201 65 203 66 204 25 205 24 206 61 207 25 205 61 207 62 208 22 209 0 210 3 211 22 209 3 211 101 212 12 213 11 214 67 215 12 213 67 215 68 216 8 217 47 218 75 219 8 217 75 219 48 220 46 221 45 222 83 223 46 221 83 223 74 224 32 225 31 226 87 227 32 225 87 227 91 228 69 229 70 230 71 231 69 229 71 231 72 232 47 233 46 234 74 235 47 233 74 235 75 236 18 237 17 238 73 239 18 237 73 239 59 240 13 257 12 258 68 259 13 257 68 259 81 260 11 261 10 262 80 263 11 261 80 263 67 264 10 265 9 266 49 267 10 265 49 267 80 268 77 269 58 270 60 271 77 269 60 271 82 272 18 273 58 274 19 275 45 276 4 277 7 278 45 276 7 278 83 279 42 280 41 281 84 282 42 280 84 282 50 283 14 284 13 285 81 286 14 284 81 286 85 287 24 288 23 289 86 290 24 288 86 290 61 291 15 292 14 293 85 294 15 292 85 294 56 295 31 296 30 297 55 298 31 296 55 298 87 299 79 300 78 301 88 302 79 300 88 302 89 303 33 304 32 305 91 306 33 304 91 306 92 307 44 308 43 309 51 310 44 308 51 310 90 311</p>
                </triangles>
                <triangles count="52" material="default_ai_0.2_sh_0.2_tr_0.0_dc_r_1.0_g_0.2_b_0.2_sc_r_1.0_g_1.0_b_1.0_ec_r_0.0_g_0.0_b_0_tri">
                    <input offset="0" semantic="VERTEX" source="#geometry0-vertex"/>
                    <input offset="1" semantic="NORMAL" source="#geometry0-normal"/>
                    <p>46 89 47 90 8 91 46 89 8 91 9 92 46 89 9 92 10 93 46 89 10 93 11 94 46 89 11 94 12 95 46 89 12 95 13 96 46 89 13 96 14 97 46 89 14 97 15 98 46 89 15 98 16 99 46 89 16 99 17 100 46 89 17 100 18 101 45 102 46 89 18 101 4 103 45 102 18 101 5 104 4 103 18 101 44 105 5 104 18 101 43 106 44 105 18 101 42 107 43 106 18 101 41 108 42 107 18 101 40 109 41 108 18 101 39 110 40 109 18 101 38 111 39 110 18 101 37 112 38 111 18 101 36 113 37 112 18 101 35 114 36 113 18 101 34 115 35 114 18 101 33 116 34 115 18 101 32 117 33 116 18 101 31 118 32 117 18 101 30 119 31 118 18 101 29 120 30 119 18 101 28 121 29 120 18 101 27 122 28 121 18 101 26 123 27 122 18 101 25 124 26 123 18 101 24 125 25 124 18 101 23 126 24 125 18 101 22 127 23 126 18 101 22 127 18 101 19 128 22 127 19 128 20 129 22 127 20 129 21 130 64 241 63 242 69 243 69 243 63 242 70 244 70 244 63 242 77 245 77 245 63 242 58 246 58 246 63 242 19 247 19 247 63 242 20 248 20 248 63 242 76 249 0 250 21 251 20 252 0 250 20 252 76 253 1 254 0 250 76 253 1 254 76 253 78 255 1 254 78 255 79 256</p>
                </triangles>
            </mesh>
        </geometry>
    </library_geometries>
    <library_visual_scenes>
        <visual_scene id="Building_DEBW_5221000QmPU">
            <node>
                <instance_geometry url="#geometry0">
                    <bind_material>
                        <technique_common>
                            <instance_material symbol="default_ai_0.2_sh_0.2_tr_0.0_dc_r_0.8_g_0.8_b_0.8_sc_r_1.0_g_1.0_b_1.0_ec_r_0.0_g_0.0_b_0_tri" target="#default_ai_0.2_sh_0.2_tr_0.0_dc_r_0.8_g_0.8_b_0.8_sc_r_1.0_g_1.0_b_1.0_ec_r_0.0_g_0.0_b_0_mat"/>
                            <instance_material symbol="default_ai_0.2_sh_0.2_tr_0.0_dc_r_1.0_g_0.2_b_0.2_sc_r_1.0_g_1.0_b_1.0_ec_r_0.0_g_0.0_b_0_tri" target="#default_ai_0.2_sh_0.2_tr_0.0_dc_r_1.0_g_0.2_b_0.2_sc_r_1.0_g_1.0_b_1.0_ec_r_0.0_g_0.0_b_0_mat"/>
                        </technique_common>
                    </bind_material>
                </instance_geometry>
            </node>
        </visual_scene>
    </library_visual_scenes>
    <scene>
        <instance_visual_scene url="#Building_DEBW_5221000QmPU"/>
    </scene>
</COLLADA>
