<?xml version="1.0" encoding="UTF-8" standalone="yes"?>
<COLLADA xmlns="http://www.collada.org/2005/11/COLLADASchema" version="1.4.1">
    <asset>
        <contributor>
            <authoring_tool>3D City Database Importer/Exporter, version 5.5.3; Chair of Geoinformatics, Technical University of Munich</authoring_tool>
        </contributor>
        <created>2026-05-06T15:12:16.653</created>
        <modified>2026-05-06T15:12:16.653</modified>
        <unit meter="1.0" name="meters"/>
        <up_axis>Z_UP</up_axis>
    </asset>
    <library_materials>
        <material id="default_ai_0.2_sh_0.2_tr_0.0_dc_r_0.8_g_0.8_b_0.8_sc_r_1.0_g_1.0_b_1.0_ec_r_0.0_g_0.0_b_0_mat">
            <instance_effect url="#default_ai_0.2_sh_0.2_tr_0.0_dc_r_0.8_g_0.8_b_0.8_sc_r_1.0_g_1.0_b_1.0_ec_r_0.0_g_0.0_b_0_eff"/>
        </material>
        <material id="default_ai_0.2_sh_0.2_tr_0.0_dc_r_1.0_g_0.2_b_0.2_sc_r_1.0_g_1.0_b_1.0_ec_r_0.0_g_0.0_b_0_mat">
            <instance_effect url="#default_ai_0.2_sh_0.2_tr_0.0_dc_r_1.0_g_0.2_b_0.2_sc_r_1.0_g_1.0_b_1.0_ec_r_0.0_g_0.0_b_0_eff"/>
        </material>
    </library_materials>
    <library_effects>
        <effect id="default_ai_0.2_sh_0.2_tr_0.0_dc_r_0.8_g_0.8_b_0.8_sc_r_1.0_g_1.0_b_1.0_ec_r_0.0_g_0.0_b_0_eff">
            <profile_COMMON>
                <technique sid="COMMON">
                    <lambert>
                        <emission>
                            <color>0.0 0.0 0.0 1.0</color>
                        </emission>
                        <diffuse>
                            <color>0.8 0.8 0.8 1.0</color>
                        </diffuse>
                        <reflective>
                            <color>1.0 1.0 1.0 1.0</color>
                        </reflective>
                        <reflectivity>
                            <float>0.2</float>
                        </reflectivity>
                        <transparent opaque="A_ONE">
                            <color>1.0 1.0 1.0 1.0</color>
                        </transparent>
                        <transparency>
                            <float>1.0</float>
                        </transparency>
                    </lambert>
                </technique>
                <extra>
                    <technique profile="GOOGLEEARTH">
                        <double_sided>0</double_sided>
                    </technique>
                </extra>
            </profile_COMMON>
        </effect>
        <effect id="default_ai_0.2_sh_0.2_tr_0.0_dc_r_1.0_g_0.2_b_0.2_sc_r_1.0_g_1.0_b_1.0_ec_r_0.0_g_0.0_b_0_eff">
            <profile_COMMON>
                <technique sid="COMMON">
                    <lambert>
                        <emission>
                            <color>0.0 0.0 0.0 1.0</color>
                        </emission>
                        <diffuse>
                            <color>1.0 0.2 0.2 1.0</color>
                        </diffuse>
                        <reflective>
                            <color>1.0 1.0 1.0 1.0</color>
                        </reflective>
                        <reflectivity>
                            <float>0.2</float>
                        </reflectivity>
                        <transparent opaque="A_ONE">
                            <color>1.0 1.0 1.0 1.0</color>
                        </transparent>
                        <transparency>
                            <float>1.0</float>
                        </transparency>
                    </lambert>
                </technique>
                <extra>
                    <technique profile="GOOGLEEARTH">
                        <double_sided>0</double_sided>
                    </technique>
                </extra>
            </profile_COMMON>
        </effect>
    </library_effects>
    <library_geometries>
        <geometry id="geometry0">
            <mesh>
                <source id="geometry0-position">
                    <float_array id="geometry0-position-array" count="96">-6.4 0.28 5.981 0.0 0.0 5.981 0.0 0.0 0.0 -6.4 0.28 0.0 2.16 -14.96 5.981 1.95 -14.93 5.981 1.95 -14.93 0.0 2.16 -14.96 0.0 -0.46 -7.45 5.981 -0.46 -7.45 0.0 -6.96 -14.26 5.981 -6.97 -14.48 5.981 -6.97 -14.48 0.0 -6.96 -14.26 0.0 2.56 -9.84 5.981 2.43 -9.84 5.981 2.43 -9.84 0.0 2.56 -9.84 0.0 -6.49 0.29 5.981 -6.49 0.29 0.0 -6.66 -1.89 5.981 -6.6 -1.89 5.981 -6.6 -1.89 0.0 -6.66 -1.89 0.0 1.96 -14.72 5.981 1.96 -14.72 0.0 2.19 -14.97 5.981 2.19 -14.97 0.0 -7.27 -14.45 5.981 -7.27 -14.45 0.0 2.66 -7.64 5.981 2.66 -7.64 0.0</float_array>
                    <technique_common>
                        <accessor count="32" source="#geometry0-position-array" stride="3">
                            <param name="X" type="float"/>
                            <param name="Y" type="float"/>
                            <param name="Z" type="float"/>
                        </accessor>
                    </technique_common>
                </source>
                <source id="geometry0-normal">
                    <float_array id="geometry0-normal-array" count="288">-0.9988227 0.0485097 0.0 -0.9988227 0.0485097 0.0 -0.9988227 0.0485097 0.0 -0.9988227 0.0485097 0.0 0.1104318 0.9938837 0.0 0.1104318 0.9938837 0.0 0.1104318 0.9938837 0.0 0.1104318 0.9938837 0.0 0.0437082 0.9990444 0.0 0.0437082 0.9990444 0.0 0.0437082 0.9990444 0.0 0.0437082 0.9990444 0.0 0.9980993 -0.0616276 0.0 0.9980993 -0.0616276 0.0 0.9980993 -0.0616276 0.0 0.9980993 -0.0616276 0.0 0.0 -1.0 0.0 0.0 -1.0 0.0 0.0 -1.0 0.0 0.0 -1.0 0.0 -0.9988682 0.0475651 0.0 -0.9988682 0.0475651 0.0 -0.9988682 0.0475651 0.0 -0.9988682 0.0475651 0.0 0.0 0.0 1.0 0.0 0.0 1.0 0.0 0.0 1.0 0.0 0.0 1.0 0.0 0.0 1.0 0.0 0.0 1.0 0.0 0.0 1.0 0.0 0.0 1.0 0.0 0.0 1.0 0.0 0.0 1.0 0.0 0.0 1.0 0.0 0.0 1.0 0.0 0.0 1.0 0.0 0.0 1.0 0.0 0.0 1.0 0.0 0.0 1.0 -0.0995028 -0.9950373 0.0 -0.0995028 -0.9950373 0.0 -0.0995028 -0.9950373 0.0 -0.0995028 -0.9950373 0.0 -0.9987294 0.0503947 0.0 -0.9987294 0.0503947 0.0 -0.9987294 0.0503947 0.0 -0.9987294 0.0503947 0.0 0.0 1.0 0.0 0.0 1.0 0.0 0.0 1.0 0.0 0.0 1.0 0.0 0.0607848 0.9981509 0.0 0.0607848 0.9981509 0.0 0.0607848 0.9981509 0.0 0.0607848 0.9981509 0.0 0.9989074 -0.0467325 0.0 0.9989074 -0.0467325 0.0 0.9989074 -0.0467325 0.0 0.9989074 -0.0467325 0.0 -0.1414201 -0.9899496 0.0 -0.1414201 -0.9899496 0.0 -0.1414201 -0.9899496 0.0 -0.1414201 -0.9899496 0.0 0.9989686 -0.0454067 0.0 0.9989686 -0.0454067 0.0 0.9989686 -0.0454067 0.0 0.9989686 -0.0454067 0.0 -0.0515011 -0.9986729 0.0 -0.0515011 -0.9986729 0.0 -0.0515011 -0.9986729 0.0 -0.0515011 -0.9986729 0.0 0.9989686 -0.0454077 0.0 0.9989686 -0.0454077 0.0 0.9989686 -0.0454077 0.0 0.9989686 -0.0454077 0.0 0.0 0.0 -1.0 0.0 0.0 -1.0 0.0 0.0 -1.0 0.0 0.0 -1.0 0.0 0.0 -1.0 0.0 0.0 -1.0 0.0 0.0 -1.0 0.0 0.0 -1.0 0.0 0.0 -1.0 0.0 0.0 -1.0 0.0 0.0 -1.0 0.0 0.0 -1.0 0.0 0.0 -1.0 0.0 0.0 -1.0 0.0 0.0 -1.0 0.0 0.0 -1.0 -0.3162346 -0.9486811 0.0 -0.3162346 -0.9486811 0.0 -0.3162346 -0.9486811 0.0 -0.3162346 -0.9486811 0.0</float_array>
                    <technique_common>
                        <accessor count="96" source="#geometry0-normal-array" stride="3">
                            <param name="X" type="float"/>
                            <param name="Y" type="float"/>
                            <param name="Z" type="float"/>
                        </accessor>
                    </technique_common>
                </source>
                <vertices id="geometry0-vertex">
                    <input semantic="POSITION" source="#geometry0-position"/>
                </vertices>
                <triangles count="46" material="default_ai_0.2_sh_0.2_tr_0.0_dc_r_0.8_g_0.8_b_0.8_sc_r_1.0_g_1.0_b_1.0_ec_r_0.0_g_0.0_b_0_tri">
                    <input offset="0" semantic="VERTEX" source="#geometry0-vertex"/>
                    <input offset="1" semantic="NORMAL" source="#geometry0-normal"/>
                    <p>28 0 20 1 23 2 28 0 23 2 29 3 18 4 0 5 3 6 18 4 3 6 19 7 0 8 1 9 2 10 0 8 2 10 3 11 1 12 8 13 9 14 1 12 9 14 2 15 14 16 15 17 16 18 14 16 16 18 17 19 5 20 24 21 25 22 5 20 25 22 6 23 11 40 28 41 29 42 11 40 29 42 12 43 21 44 18 45 19 46 21 44 19 46 22 47 20 48 21 49 22 50 20 48 22 50 23 51 8 52 30 53 31 54 8 52 31 54 9 55 15 56 26 57 27 58 15 56 27 58 16 59 4 60 5 61 6 62 4 60 6 62 7 63 10 64 11 65 12 66 10 64 12 66 13 67 24 68 10 69 13 70 24 68 13 70 25 71 30 72 14 73 17 74 30 72 17 74 31 75 31 76 17 77 16 78 9 79 31 76 16 78 9 79 16 78 27 80 9 79 27 80 7 81 3 82 2 83 9 79 3 82 9 79 7 81 19 84 3 82 7 81 22 85 19 84 7 81 23 86 22 85 7 81 12 87 29 88 23 86 13 89 12 87 23 86 25 90 13 89 23 86 25 90 23 86 7 81 25 90 7 81 6 91 26 92 4 93 7 94 26 92 7 94 27 95</p>
                </triangles>
                <triangles count="14" material="default_ai_0.2_sh_0.2_tr_0.0_dc_r_1.0_g_0.2_b_0.2_sc_r_1.0_g_1.0_b_1.0_ec_r_0.0_g_0.0_b_0_tri">
                    <input offset="0" semantic="VERTEX" source="#geometry0-vertex"/>
                    <input offset="1" semantic="NORMAL" source="#geometry0-normal"/>
                    <p>14 24 30 25 15 26 30 25 8 27 15 26 15 26 8 27 26 28 26 28 8 27 4 29 1 30 0 31 8 27 8 27 0 31 4 29 0 31 18 32 4 29 18 32 21 33 4 29 21 33 20 34 4 29 28 35 11 36 20 34 11 36 10 37 20 34 10 37 24 38 20 34 20 34 24 38 4 29 4 29 24 38 5 39</p>
                </triangles>
            </mesh>
        </geometry>
    </library_geometries>
    <library_visual_scenes>
        <visual_scene id="Building_DEBW_5221000Qzpu">
            <node>
                <instance_geometry url="#geometry0">
                    <bind_material>
                        <technique_common>
                            <instance_material symbol="default_ai_0.2_sh_0.2_tr_0.0_dc_r_0.8_g_0.8_b_0.8_sc_r_1.0_g_1.0_b_1.0_ec_r_0.0_g_0.0_b_0_tri" target="#default_ai_0.2_sh_0.2_tr_0.0_dc_r_0.8_g_0.8_b_0.8_sc_r_1.0_g_1.0_b_1.0_ec_r_0.0_g_0.0_b_0_mat"/>
                            <instance_material symbol="default_ai_0.2_sh_0.2_tr_0.0_dc_r_1.0_g_0.2_b_0.2_sc_r_1.0_g_1.0_b_1.0_ec_r_0.0_g_0.0_b_0_tri" target="#default_ai_0.2_sh_0.2_tr_0.0_dc_r_1.0_g_0.2_b_0.2_sc_r_1.0_g_1.0_b_1.0_ec_r_0.0_g_0.0_b_0_mat"/>
                        </technique_common>
                    </bind_material>
                </instance_geometry>
            </node>
        </visual_scene>
    </library_visual_scenes>
    <scene>
        <instance_visual_scene url="#Building_DEBW_5221000Qzpu"/>
    </scene>
</COLLADA>
