<?xml version="1.0" encoding="UTF-8" standalone="yes"?>
<COLLADA xmlns="http://www.collada.org/2005/11/COLLADASchema" version="1.4.1">
    <asset>
        <contributor>
            <authoring_tool>3D City Database Importer/Exporter, version 5.5.3; Chair of Geoinformatics, Technical University of Munich</authoring_tool>
        </contributor>
        <created>2026-05-06T15:12:03.604</created>
        <modified>2026-05-06T15:12:03.604</modified>
        <unit meter="1.0" name="meters"/>
        <up_axis>Z_UP</up_axis>
    </asset>
    <library_materials>
        <material id="default_ai_0.2_sh_0.2_tr_0.0_dc_r_0.8_g_0.8_b_0.8_sc_r_1.0_g_1.0_b_1.0_ec_r_0.0_g_0.0_b_0_mat">
            <instance_effect url="#default_ai_0.2_sh_0.2_tr_0.0_dc_r_0.8_g_0.8_b_0.8_sc_r_1.0_g_1.0_b_1.0_ec_r_0.0_g_0.0_b_0_eff"/>
        </material>
        <material id="default_ai_0.2_sh_0.2_tr_0.0_dc_r_1.0_g_0.2_b_0.2_sc_r_1.0_g_1.0_b_1.0_ec_r_0.0_g_0.0_b_0_mat">
            <instance_effect url="#default_ai_0.2_sh_0.2_tr_0.0_dc_r_1.0_g_0.2_b_0.2_sc_r_1.0_g_1.0_b_1.0_ec_r_0.0_g_0.0_b_0_eff"/>
        </material>
    </library_materials>
    <library_effects>
        <effect id="default_ai_0.2_sh_0.2_tr_0.0_dc_r_0.8_g_0.8_b_0.8_sc_r_1.0_g_1.0_b_1.0_ec_r_0.0_g_0.0_b_0_eff">
            <profile_COMMON>
                <technique sid="COMMON">
                    <lambert>
                        <emission>
                            <color>0.0 0.0 0.0 1.0</color>
                        </emission>
                        <diffuse>
                            <color>0.8 0.8 0.8 1.0</color>
                        </diffuse>
                        <reflective>
                            <color>1.0 1.0 1.0 1.0</color>
                        </reflective>
                        <reflectivity>
                            <float>0.2</float>
                        </reflectivity>
                        <transparent opaque="A_ONE">
                            <color>1.0 1.0 1.0 1.0</color>
                        </transparent>
                        <transparency>
                            <float>1.0</float>
                        </transparency>
                    </lambert>
                </technique>
                <extra>
                    <technique profile="GOOGLEEARTH">
                        <double_sided>0</double_sided>
                    </technique>
                </extra>
            </profile_COMMON>
        </effect>
        <effect id="default_ai_0.2_sh_0.2_tr_0.0_dc_r_1.0_g_0.2_b_0.2_sc_r_1.0_g_1.0_b_1.0_ec_r_0.0_g_0.0_b_0_eff">
            <profile_COMMON>
                <technique sid="COMMON">
                    <lambert>
                        <emission>
                            <color>0.0 0.0 0.0 1.0</color>
                        </emission>
                        <diffuse>
                            <color>1.0 0.2 0.2 1.0</color>
                        </diffuse>
                        <reflective>
                            <color>1.0 1.0 1.0 1.0</color>
                        </reflective>
                        <reflectivity>
                            <float>0.2</float>
                        </reflectivity>
                        <transparent opaque="A_ONE">
                            <color>1.0 1.0 1.0 1.0</color>
                        </transparent>
                        <transparency>
                            <float>1.0</float>
                        </transparency>
                    </lambert>
                </technique>
                <extra>
                    <technique profile="GOOGLEEARTH">
                        <double_sided>0</double_sided>
                    </technique>
                </extra>
            </profile_COMMON>
        </effect>
    </library_effects>
    <library_geometries>
        <geometry id="geometry0">
            <mesh>
                <source id="geometry0-position">
                    <float_array id="geometry0-position-array" count="48">1.71 -2.58 2.513 4.94 -0.89 2.962 4.102 -1.328 3.216 5.07 -1.14 2.968 6.71 -0.03 2.436 6.66 0.06 2.434 4.75 2.95 2.461 2.365 1.469 3.216 0.0 0.0 2.489 0.0 0.0 0.0 1.71 -2.58 0.0 4.94 -0.89 0.0 5.07 -1.14 0.0 4.75 2.95 0.0 6.66 0.06 0.0 6.71 -0.03 0.0</float_array>
                    <technique_common>
                        <accessor count="16" source="#geometry0-position-array" stride="3">
                            <param name="X" type="float"/>
                            <param name="Y" type="float"/>
                            <param name="Z" type="float"/>
                        </accessor>
                    </technique_common>
                </source>
                <source id="geometry0-normal">
                    <float_array id="geometry0-normal-array" count="156">0.8342643 0.5513649 0.0 0.8342643 0.5513649 0.0 0.8342643 0.5513649 0.0 0.8342642 0.5513648 0.0 0.2208175 0.1370638 0.9656361 0.220952 0.1372162 0.9655837 0.2200856 0.1369997 0.9658123 0.2357183 0.1472403 0.9606026 0.2195923 0.1369191 0.9659361 0.2517034 0.1575391 0.9548963 0.2824637 0.1778735 0.9426427 -0.8872167 -0.4613531 0.0 -0.8872166 -0.461353 0.0 -0.8872167 -0.4613531 0.0 -0.8872167 -0.4613531 0.0 0.5605131 -0.8281455 0.0 0.5605132 -0.8281456 0.0 0.5605131 -0.8281455 0.0 0.5605131 -0.8281455 0.0 -0.2146275 -0.133271 0.9675608 -0.214606 -0.1332752 0.967565 -0.2146275 -0.133271 0.9675608 -0.2146489 -0.1332668 0.9675566 -0.5275865 0.8495013 -2.412E-4 -0.5275865 0.8495013 -2.412E-4 -0.5275865 0.8495013 -2.412E-4 0.463597 -0.8860463 0.0 0.4635969 -0.8860462 0.0 0.463597 -0.8860463 0.0 0.463597 -0.8860463 0.0 0.0 0.0 -1.0 0.0 0.0 -1.0 0.0 0.0 -1.0 0.0 0.0 -1.0 0.0 0.0 -1.0 0.0 0.0 -1.0 0.0 0.0 -1.0 -0.8335384 -0.5524615 0.0 -0.8335385 -0.5524616 0.0 -0.8335384 -0.5524615 0.0 -0.8335384 -0.5524615 0.0 -0.5275854 0.849502 0.0 -0.5275855 0.849502 0.0 -0.5275854 0.849502 0.0 -0.5275854 0.849502 0.0 0.4634771 -0.8861082 0.0010957 0.4634771 -0.8861082 0.0010957 0.4634771 -0.8861082 0.0010957 0.8741565 0.4856443 0.0 0.8741565 0.4856443 0.0 0.8741565 0.4856443 0.0 0.8741565 0.4856443 0.0</float_array>
                    <technique_common>
                        <accessor count="52" source="#geometry0-normal-array" stride="3">
                            <param name="X" type="float"/>
                            <param name="Y" type="float"/>
                            <param name="Z" type="float"/>
                        </accessor>
                    </technique_common>
                </source>
                <vertices id="geometry0-vertex">
                    <input semantic="POSITION" source="#geometry0-position"/>
                </vertices>
                <triangles count="21" material="default_ai_0.2_sh_0.2_tr_0.0_dc_r_0.8_g_0.8_b_0.8_sc_r_1.0_g_1.0_b_1.0_ec_r_0.0_g_0.0_b_0_tri">
                    <input offset="0" semantic="VERTEX" source="#geometry0-vertex"/>
                    <input offset="1" semantic="NORMAL" source="#geometry0-normal"/>
                    <p>6 0 5 1 14 2 6 0 14 2 13 3 3 11 1 12 11 13 3 11 11 13 12 14 4 15 3 16 12 17 4 15 12 17 15 18 6 23 8 24 7 25 1 26 0 27 10 28 1 26 10 28 11 29 11 30 10 31 9 32 11 30 9 32 13 33 11 30 13 33 14 34 11 30 14 34 15 35 11 30 15 35 12 36 0 37 8 38 9 39 0 37 9 39 10 40 8 41 6 42 13 43 8 41 13 43 9 44 0 45 1 46 2 47 5 48 4 49 15 50 5 48 15 50 14 51</p>
                </triangles>
                <triangles count="7" material="default_ai_0.2_sh_0.2_tr_0.0_dc_r_1.0_g_0.2_b_0.2_sc_r_1.0_g_1.0_b_1.0_ec_r_0.0_g_0.0_b_0_tri">
                    <input offset="0" semantic="VERTEX" source="#geometry0-vertex"/>
                    <input offset="1" semantic="NORMAL" source="#geometry0-normal"/>
                    <p>7 4 2 5 1 6 6 7 7 4 1 6 6 7 1 6 3 8 6 7 3 8 4 9 6 7 4 9 5 10 0 19 2 20 7 21 0 19 7 21 8 22</p>
                </triangles>
            </mesh>
        </geometry>
    </library_geometries>
    <library_visual_scenes>
        <visual_scene id="Building_DEBW_5221000Qwqs">
            <node>
                <instance_geometry url="#geometry0">
                    <bind_material>
                        <technique_common>
                            <instance_material symbol="default_ai_0.2_sh_0.2_tr_0.0_dc_r_0.8_g_0.8_b_0.8_sc_r_1.0_g_1.0_b_1.0_ec_r_0.0_g_0.0_b_0_tri" target="#default_ai_0.2_sh_0.2_tr_0.0_dc_r_0.8_g_0.8_b_0.8_sc_r_1.0_g_1.0_b_1.0_ec_r_0.0_g_0.0_b_0_mat"/>
                            <instance_material symbol="default_ai_0.2_sh_0.2_tr_0.0_dc_r_1.0_g_0.2_b_0.2_sc_r_1.0_g_1.0_b_1.0_ec_r_0.0_g_0.0_b_0_tri" target="#default_ai_0.2_sh_0.2_tr_0.0_dc_r_1.0_g_0.2_b_0.2_sc_r_1.0_g_1.0_b_1.0_ec_r_0.0_g_0.0_b_0_mat"/>
                        </technique_common>
                    </bind_material>
                </instance_geometry>
            </node>
        </visual_scene>
    </library_visual_scenes>
    <scene>
        <instance_visual_scene url="#Building_DEBW_5221000Qwqs"/>
    </scene>
</COLLADA>
