<?xml version="1.0" encoding="UTF-8" standalone="yes"?>
<COLLADA xmlns="http://www.collada.org/2005/11/COLLADASchema" version="1.4.1">
    <asset>
        <contributor>
            <authoring_tool>3D City Database Importer/Exporter, version 5.5.3; Chair of Geoinformatics, Technical University of Munich</authoring_tool>
        </contributor>
        <created>2026-05-06T15:12:13.210</created>
        <modified>2026-05-06T15:12:13.210</modified>
        <unit meter="1.0" name="meters"/>
        <up_axis>Z_UP</up_axis>
    </asset>
    <library_materials>
        <material id="default_ai_0.2_sh_0.2_tr_0.0_dc_r_0.8_g_0.8_b_0.8_sc_r_1.0_g_1.0_b_1.0_ec_r_0.0_g_0.0_b_0_mat">
            <instance_effect url="#default_ai_0.2_sh_0.2_tr_0.0_dc_r_0.8_g_0.8_b_0.8_sc_r_1.0_g_1.0_b_1.0_ec_r_0.0_g_0.0_b_0_eff"/>
        </material>
        <material id="default_ai_0.2_sh_0.2_tr_0.0_dc_r_1.0_g_0.2_b_0.2_sc_r_1.0_g_1.0_b_1.0_ec_r_0.0_g_0.0_b_0_mat">
            <instance_effect url="#default_ai_0.2_sh_0.2_tr_0.0_dc_r_1.0_g_0.2_b_0.2_sc_r_1.0_g_1.0_b_1.0_ec_r_0.0_g_0.0_b_0_eff"/>
        </material>
    </library_materials>
    <library_effects>
        <effect id="default_ai_0.2_sh_0.2_tr_0.0_dc_r_0.8_g_0.8_b_0.8_sc_r_1.0_g_1.0_b_1.0_ec_r_0.0_g_0.0_b_0_eff">
            <profile_COMMON>
                <technique sid="COMMON">
                    <lambert>
                        <emission>
                            <color>0.0 0.0 0.0 1.0</color>
                        </emission>
                        <diffuse>
                            <color>0.8 0.8 0.8 1.0</color>
                        </diffuse>
                        <reflective>
                            <color>1.0 1.0 1.0 1.0</color>
                        </reflective>
                        <reflectivity>
                            <float>0.2</float>
                        </reflectivity>
                        <transparent opaque="A_ONE">
                            <color>1.0 1.0 1.0 1.0</color>
                        </transparent>
                        <transparency>
                            <float>1.0</float>
                        </transparency>
                    </lambert>
                </technique>
                <extra>
                    <technique profile="GOOGLEEARTH">
                        <double_sided>0</double_sided>
                    </technique>
                </extra>
            </profile_COMMON>
        </effect>
        <effect id="default_ai_0.2_sh_0.2_tr_0.0_dc_r_1.0_g_0.2_b_0.2_sc_r_1.0_g_1.0_b_1.0_ec_r_0.0_g_0.0_b_0_eff">
            <profile_COMMON>
                <technique sid="COMMON">
                    <lambert>
                        <emission>
                            <color>0.0 0.0 0.0 1.0</color>
                        </emission>
                        <diffuse>
                            <color>1.0 0.2 0.2 1.0</color>
                        </diffuse>
                        <reflective>
                            <color>1.0 1.0 1.0 1.0</color>
                        </reflective>
                        <reflectivity>
                            <float>0.2</float>
                        </reflectivity>
                        <transparent opaque="A_ONE">
                            <color>1.0 1.0 1.0 1.0</color>
                        </transparent>
                        <transparency>
                            <float>1.0</float>
                        </transparency>
                    </lambert>
                </technique>
                <extra>
                    <technique profile="GOOGLEEARTH">
                        <double_sided>0</double_sided>
                    </technique>
                </extra>
            </profile_COMMON>
        </effect>
    </library_effects>
    <library_geometries>
        <geometry id="geometry0">
            <mesh>
                <source id="geometry0-position">
                    <float_array id="geometry0-position-array" count="162">-2.84 -2.11 8.792 0.0 0.0 8.785 0.0 0.0 0.0 -2.84 -2.11 0.0 15.9 -14.64 5.931 16.3 -14.35 5.578 16.3 -14.35 0.0 15.9 -14.64 0.0 -2.54 -2.52 8.789 -2.54 -2.52 0.0 1.99 -15.31 5.899 1.06 -14.06 5.9 1.06 -14.06 0.0 1.99 -15.31 0.0 0.66 -14.36 5.54 -6.14 -5.19 5.562 -6.14 -5.19 0.0 0.66 -14.36 0.0 8.14 -4.24 5.934 8.54 -3.94 5.577 8.54 -3.94 0.0 8.14 -4.24 0.0 0.3 -0.4 8.784 0.3 -0.4 0.0 14.96 -12.55 5.577 14.96 -12.55 0.0 6.81 -2.45 5.931 6.81 -2.45 0.0 3.9 2.28 5.578 7.21 -2.15 5.574 7.21 -2.15 0.0 3.9 2.28 0.0 14.56 -12.85 5.934 14.56 -12.85 0.0 2.74 -17.15 5.54 3.14 -16.85 5.9 3.14 -16.85 0.0 2.74 -17.15 0.0 9.71 -26.09 5.715 9.51 -26.24 5.535 9.51 -26.24 0.0 9.71 -26.09 0.0 19.61 -18.77 0.0 16.0 -21.45 0.0 16.29 -21.85 0.0 13.44 -23.96 0.0 13.14 -23.56 0.0 16.0 -21.45 8.781 16.29 -21.85 8.786 13.44 -23.96 8.785 14.86 -22.909 10.057 13.14 -23.56 8.784 -1.43 -1.062 10.057 19.61 -18.77 5.57</float_array>
                    <technique_common>
                        <accessor count="54" source="#geometry0-position-array" stride="3">
                            <param name="X" type="float"/>
                            <param name="Y" type="float"/>
                            <param name="Z" type="float"/>
                        </accessor>
                    </technique_common>
                </source>
                <source id="geometry0-normal">
                    <float_array id="geometry0-normal-array" count="498">0.8010837 0.5985523 0.0 0.8010837 0.5985523 0.0 0.8010837 0.5985523 0.0 0.8010837 0.5985523 0.0 -0.4684004 -0.3492886 0.8115409 -0.4684069 -0.3492893 0.8115369 -0.4646909 -0.346496 0.8148637 -0.4685324 -0.3493079 0.8114563 -0.4685464 -0.3493044 0.8114498 -0.468392 -0.3492798 0.8115494 -0.4684039 -0.3493017 0.8115332 -0.4683833 -0.3492817 0.8115537 -0.4684318 -0.3492957 0.8115196 -0.4624267 -0.3448133 0.8168632 -0.4533409 -0.3380413 0.8247485 -0.4684373 -0.3492843 0.8115214 -0.4684256 -0.3492839 0.8115283 -0.4684232 -0.3492891 0.8115275 0.8005365 0.5992839 0.0 0.8005366 0.599284 0.0 0.8005365 0.5992839 0.0 0.8005365 0.599284 0.0 0.4696268 0.3501612 0.8104553 0.4658918 0.3473876 0.8137977 0.4659283 0.3474096 0.8137676 0.4748687 0.3540694 0.8056888 0.4708571 0.351071 0.8093472 0.4656288 0.3471657 0.8140429 0.4660023 0.3474809 0.8136946 0.4659918 0.3473037 0.8137762 0.4659981 0.3474489 0.8137106 0.4660099 0.3473967 0.8137262 0.4659556 0.3474894 0.8137177 0.4659029 0.3473793 0.813795 0.4658408 0.3473517 0.8138422 0.465942 0.347398 0.8137645 0.4660284 0.3475132 0.8136659 0.4660611 0.3475461 0.8136331 -0.8070304 -0.5905098 0.0 -0.8070305 -0.5905099 0.0 -0.8070304 -0.5905098 0.0 -0.8070304 -0.5905098 0.0 0.5960783 -0.8029264 0.0 0.5960783 -0.8029264 0.0 0.5960783 -0.8029264 0.0 0.5960782 -0.8029264 0.0 0.5999998 -0.8000002 0.0 0.5999998 -0.8000002 0.0 0.5999998 -0.8000002 0.0 0.5999999 -0.8000002 0.0 -0.8023047 -0.5969148 0.0 -0.8023047 -0.5969147 0.0 -0.8023047 -0.5969148 0.0 -0.8023047 -0.5969148 0.0 -0.599999 0.8000008 0.0 -0.599999 0.8000008 0.0 -0.599999 0.8000008 0.0 -0.5999989 0.8000008 0.0 -0.8032467 -0.5956464 0.0 -0.8032467 -0.5956464 0.0 -0.8032467 -0.5956464 0.0 -0.8032467 -0.5956464 0.0 0.0 0.0 -1.0 0.0 0.0 -1.0 0.0 0.0 -1.0 0.0 0.0 -1.0 0.0 0.0 -1.0 0.0 0.0 -1.0 0.0 0.0 -1.0 0.0 0.0 -1.0 0.0 0.0 -1.0 0.0 0.0 -1.0 0.0 0.0 -1.0 0.0 0.0 -1.0 0.0 0.0 -1.0 0.0 0.0 -1.0 0.0 0.0 -1.0 0.0 0.0 -1.0 0.0 0.0 -1.0 0.0 0.0 -1.0 0.0 0.0 -1.0 0.0 0.0 -1.0 0.0 0.0 -1.0 0.0 0.0 -1.0 0.0 0.0 -1.0 0.0 0.0 -1.0 0.0 0.0 -1.0 0.0 0.0 -1.0 -0.8012469 -0.5983338 0.0 -0.8012469 -0.5983338 0.0 -0.8012469 -0.5983338 0.0 -0.8012469 -0.5983338 0.0 -0.6 0.8000001 0.0 -0.6 0.8000001 0.0 -0.6 0.8000001 0.0 -0.6 0.8 0.0 0.8004344 0.5994205 0.0 0.8004343 0.5994205 0.0 0.8004344 0.5994205 0.0 0.8004344 0.5994205 0.0 0.5999994 -0.8000004 0.0 0.5999994 -0.8000005 0.0 0.5999994 -0.8000004 0.0 0.5999994 -0.8000004 0.0 0.5999991 -0.8000007 0.0 0.5999991 -0.8000007 0.0 0.5999991 -0.8000007 0.0 0.5999991 -0.8000007 0.0 0.8096093 0.5869691 0.0 0.8096093 0.5869692 0.0 0.8096093 0.5869691 0.0 0.8096093 0.5869691 0.0 -0.5957077 0.8032013 0.0 -0.5957077 0.8032013 0.0 -0.5957077 0.8032013 0.0 -0.5957077 0.8032013 0.0 -0.5963764 0.8027049 -2.718E-4 -0.5963764 0.8027049 -2.718E-4 -0.5963764 0.8027049 -2.718E-4 0.5935992 -0.8047608 0.0 0.5935992 -0.8047609 0.0 0.5935992 -0.8047608 0.0 0.5935992 -0.8047608 0.0 0.8 0.6 0.0 0.8 0.6 0.0 0.8 0.6 0.0 0.8 0.6 0.0 0.5950248 -0.8037073 0.0 0.5950248 -0.8037073 0.0 0.5950248 -0.8037073 0.0 0.5950248 -0.8037074 0.0 -0.8020071 -0.5973145 0.0 -0.8020071 -0.5973145 0.0 -0.8020071 -0.5973145 0.0 -0.8020071 -0.5973145 0.0 -0.5971441 0.8021339 0.0 -0.5971441 0.8021339 0.0 -0.5971441 0.8021339 0.0 -0.5971442 0.8021339 0.0 -0.5963761 0.8027052 0.0 -0.5963761 0.8027053 0.0 -0.5963761 0.8027052 0.0 -0.5963761 0.8027052 0.0 0.8016729 0.597763 0.0 0.8016729 0.597763 0.0 0.8016729 0.597763 0.0 0.8016729 0.597763 0.0 0.8026824 0.5964068 0.0 0.8026824 0.5964068 0.0 0.8026824 0.5964068 0.0 0.8026823 0.5964068 0.0 0.6000006 -0.7999995 0.0 0.6000006 -0.7999995 0.0 0.6000006 -0.7999995 0.0 0.6000006 -0.7999995 0.0 0.5950249 -0.8037073 -1.887E-4 0.5950249 -0.8037073 -1.887E-4 0.5950249 -0.8037073 -1.887E-4 -0.8000004 -0.5999994 0.0 -0.8000005 -0.5999994 0.0 -0.8000004 -0.5999994 0.0 -0.8000004 -0.5999994 0.0 -0.5869679 0.8096102 0.0 -0.5869679 0.8096102 0.0 -0.5869679 0.8096102 0.0 -0.5869679 0.8096102 0.0</float_array>
                    <technique_common>
                        <accessor count="166" source="#geometry0-normal-array" stride="3">
                            <param name="X" type="float"/>
                            <param name="Y" type="float"/>
                            <param name="Z" type="float"/>
                        </accessor>
                    </technique_common>
                </source>
                <vertices id="geometry0-vertex">
                    <input semantic="POSITION" source="#geometry0-position"/>
                </vertices>
                <triangles count="78" material="default_ai_0.2_sh_0.2_tr_0.0_dc_r_0.8_g_0.8_b_0.8_sc_r_1.0_g_1.0_b_1.0_ec_r_0.0_g_0.0_b_0_tri">
                    <input offset="0" semantic="VERTEX" source="#geometry0-vertex"/>
                    <input offset="1" semantic="NORMAL" source="#geometry0-normal"/>
                    <p>28 0 29 1 30 2 28 0 30 2 31 3 32 18 4 19 7 20 32 18 7 20 33 21 8 38 0 39 3 40 8 38 3 40 9 41 53 42 47 43 43 44 53 42 43 44 42 45 29 46 26 47 27 48 29 46 27 48 30 49 10 50 11 51 12 52 10 50 12 52 13 53 34 54 35 55 36 56 34 54 36 56 37 57 14 58 15 59 16 60 14 58 16 60 17 61 31 62 30 63 27 64 23 65 31 62 27 64 23 65 27 64 21 66 3 67 2 68 23 65 3 67 23 65 21 66 9 69 3 67 21 66 16 70 9 69 21 66 17 71 16 70 21 66 17 71 21 66 20 72 12 73 17 71 20 72 12 73 20 72 25 74 12 73 25 74 33 75 12 73 33 75 7 76 13 77 12 73 7 76 36 78 13 77 7 76 37 79 36 78 7 76 40 80 37 79 7 76 40 80 7 76 6 81 41 82 40 80 6 81 41 82 6 81 42 83 41 82 42 83 43 84 46 85 41 82 43 84 46 85 43 84 44 86 46 85 44 86 45 87 35 88 10 89 13 90 35 88 13 90 36 91 18 92 19 93 20 94 18 92 20 94 21 95 5 96 53 97 42 98 5 96 42 98 6 99 38 100 39 101 40 102 38 100 40 102 41 103 11 104 14 105 17 106 11 104 17 106 12 107 47 108 48 109 44 110 47 108 44 110 43 111 15 112 8 113 9 114 15 112 9 114 16 115 1 116 0 117 52 118 51 119 38 120 41 121 51 119 41 121 46 122 1 123 22 124 23 125 1 123 23 125 2 126 48 127 49 128 45 129 48 127 45 129 44 130 39 131 34 132 37 133 39 131 37 133 40 134 22 135 28 136 31 137 22 135 31 137 23 138 0 139 1 140 2 141 0 139 2 141 3 142 19 143 24 144 25 145 19 143 25 145 20 146 26 147 18 148 21 149 26 147 21 149 27 150 24 151 32 152 33 153 24 151 33 153 25 154 49 155 48 156 50 157 49 158 51 159 46 160 49 158 46 160 45 161 4 162 5 163 6 164 4 162 6 164 7 165</p>
                </triangles>
                <triangles count="26" material="default_ai_0.2_sh_0.2_tr_0.0_dc_r_1.0_g_0.2_b_0.2_sc_r_1.0_g_1.0_b_1.0_ec_r_0.0_g_0.0_b_0_tri">
                    <input offset="0" semantic="VERTEX" source="#geometry0-vertex"/>
                    <input offset="1" semantic="NORMAL" source="#geometry0-normal"/>
                    <p>15 4 14 5 8 6 14 5 11 7 8 6 11 7 10 8 8 6 10 8 35 9 8 6 34 10 39 11 35 9 35 9 39 11 8 6 39 11 38 12 8 6 38 12 51 13 8 6 8 6 51 13 0 14 0 14 51 13 52 15 52 15 51 13 50 16 50 16 51 13 49 17 1 22 52 23 50 24 1 22 50 24 48 25 1 22 48 25 47 26 22 27 1 22 47 26 22 27 47 26 53 28 29 29 28 30 22 27 26 31 29 29 22 27 18 32 26 31 22 27 24 33 19 34 18 32 24 33 18 32 22 27 32 35 24 33 22 27 4 36 32 35 22 27 4 36 22 27 53 28 4 36 53 28 5 37</p>
                </triangles>
            </mesh>
        </geometry>
    </library_geometries>
    <library_visual_scenes>
        <visual_scene id="Building_DEBW_5221000Qz23">
            <node>
                <instance_geometry url="#geometry0">
                    <bind_material>
                        <technique_common>
                            <instance_material symbol="default_ai_0.2_sh_0.2_tr_0.0_dc_r_0.8_g_0.8_b_0.8_sc_r_1.0_g_1.0_b_1.0_ec_r_0.0_g_0.0_b_0_tri" target="#default_ai_0.2_sh_0.2_tr_0.0_dc_r_0.8_g_0.8_b_0.8_sc_r_1.0_g_1.0_b_1.0_ec_r_0.0_g_0.0_b_0_mat"/>
                            <instance_material symbol="default_ai_0.2_sh_0.2_tr_0.0_dc_r_1.0_g_0.2_b_0.2_sc_r_1.0_g_1.0_b_1.0_ec_r_0.0_g_0.0_b_0_tri" target="#default_ai_0.2_sh_0.2_tr_0.0_dc_r_1.0_g_0.2_b_0.2_sc_r_1.0_g_1.0_b_1.0_ec_r_0.0_g_0.0_b_0_mat"/>
                        </technique_common>
                    </bind_material>
                </instance_geometry>
            </node>
        </visual_scene>
    </library_visual_scenes>
    <scene>
        <instance_visual_scene url="#Building_DEBW_5221000Qz23"/>
    </scene>
</COLLADA>
