<?xml version="1.0" encoding="UTF-8" standalone="yes"?>
<COLLADA xmlns="http://www.collada.org/2005/11/COLLADASchema" version="1.4.1">
    <asset>
        <contributor>
            <authoring_tool>3D City Database Importer/Exporter, version 5.5.3; Chair of Geoinformatics, Technical University of Munich</authoring_tool>
        </contributor>
        <created>2026-05-06T15:12:10.777</created>
        <modified>2026-05-06T15:12:10.777</modified>
        <unit meter="1.0" name="meters"/>
        <up_axis>Z_UP</up_axis>
    </asset>
    <library_materials>
        <material id="default_ai_0.2_sh_0.2_tr_0.0_dc_r_0.8_g_0.8_b_0.8_sc_r_1.0_g_1.0_b_1.0_ec_r_0.0_g_0.0_b_0_mat">
            <instance_effect url="#default_ai_0.2_sh_0.2_tr_0.0_dc_r_0.8_g_0.8_b_0.8_sc_r_1.0_g_1.0_b_1.0_ec_r_0.0_g_0.0_b_0_eff"/>
        </material>
        <material id="default_ai_0.2_sh_0.2_tr_0.0_dc_r_1.0_g_0.2_b_0.2_sc_r_1.0_g_1.0_b_1.0_ec_r_0.0_g_0.0_b_0_mat">
            <instance_effect url="#default_ai_0.2_sh_0.2_tr_0.0_dc_r_1.0_g_0.2_b_0.2_sc_r_1.0_g_1.0_b_1.0_ec_r_0.0_g_0.0_b_0_eff"/>
        </material>
    </library_materials>
    <library_effects>
        <effect id="default_ai_0.2_sh_0.2_tr_0.0_dc_r_0.8_g_0.8_b_0.8_sc_r_1.0_g_1.0_b_1.0_ec_r_0.0_g_0.0_b_0_eff">
            <profile_COMMON>
                <technique sid="COMMON">
                    <lambert>
                        <emission>
                            <color>0.0 0.0 0.0 1.0</color>
                        </emission>
                        <diffuse>
                            <color>0.8 0.8 0.8 1.0</color>
                        </diffuse>
                        <reflective>
                            <color>1.0 1.0 1.0 1.0</color>
                        </reflective>
                        <reflectivity>
                            <float>0.2</float>
                        </reflectivity>
                        <transparent opaque="A_ONE">
                            <color>1.0 1.0 1.0 1.0</color>
                        </transparent>
                        <transparency>
                            <float>1.0</float>
                        </transparency>
                    </lambert>
                </technique>
                <extra>
                    <technique profile="GOOGLEEARTH">
                        <double_sided>0</double_sided>
                    </technique>
                </extra>
            </profile_COMMON>
        </effect>
        <effect id="default_ai_0.2_sh_0.2_tr_0.0_dc_r_1.0_g_0.2_b_0.2_sc_r_1.0_g_1.0_b_1.0_ec_r_0.0_g_0.0_b_0_eff">
            <profile_COMMON>
                <technique sid="COMMON">
                    <lambert>
                        <emission>
                            <color>0.0 0.0 0.0 1.0</color>
                        </emission>
                        <diffuse>
                            <color>1.0 0.2 0.2 1.0</color>
                        </diffuse>
                        <reflective>
                            <color>1.0 1.0 1.0 1.0</color>
                        </reflective>
                        <reflectivity>
                            <float>0.2</float>
                        </reflectivity>
                        <transparent opaque="A_ONE">
                            <color>1.0 1.0 1.0 1.0</color>
                        </transparent>
                        <transparency>
                            <float>1.0</float>
                        </transparency>
                    </lambert>
                </technique>
                <extra>
                    <technique profile="GOOGLEEARTH">
                        <double_sided>0</double_sided>
                    </technique>
                </extra>
            </profile_COMMON>
        </effect>
    </library_effects>
    <library_geometries>
        <geometry id="geometry0">
            <mesh>
                <source id="geometry0-position">
                    <float_array id="geometry0-position-array" count="156">0.0 0.0 0.0 0.977 0.1 0.0 1.4 -3.85 0.0 -1.33 -1.67 0.0 1.4 -3.85 9.067 -1.33 -1.67 9.535 0.0 0.0 9.535 0.977 0.1 9.441 8.7 10.34 9.92 9.05 7.14 9.919 9.05 7.14 0.0 8.7 10.34 0.0 8.01 2.89 0.0 7.17 10.17 0.0 9.51 3.06 0.0 9.51 3.06 9.92 8.01 2.89 9.778 7.17 10.17 9.775 -1.19 9.24 9.833 7.17 10.17 9.833 -1.19 9.24 0.0 -0.09 0.89 9.833 -0.117 0.912 9.833 -0.117 0.912 9.778 -0.117 0.912 0.0 -0.09 0.89 0.0 -0.77 5.47 9.833 -0.77 5.47 0.0 -0.77 5.47 9.812 -0.705 5.477 0.0 8.246 0.844 0.0 0.0 0.0 9.833 0.977 0.1 9.833 8.246 0.844 9.833 8.01 2.89 9.833 -0.705 5.477 9.833 -0.705 5.477 9.797 -1.63 2.12 10.111 -1.99 5.33 10.111 -1.99 5.33 0.0 -1.63 2.12 0.0 1.52 -4.97 14.23 12.66 -3.74 14.23 12.11 1.24 10.301 8.25 0.81 10.304 8.246 0.844 10.277 0.977 0.1 10.232 1.4 -3.85 13.347 1.52 -4.97 0.0 12.66 -3.74 0.0 8.25 0.81 0.0 12.11 1.24 0.0</float_array>
                    <technique_common>
                        <accessor count="52" source="#geometry0-position-array" stride="3">
                            <param name="X" type="float"/>
                            <param name="Y" type="float"/>
                            <param name="Z" type="float"/>
                        </accessor>
                    </technique_common>
                </source>
                <source id="geometry0-normal">
                    <float_array id="geometry0-normal-array" count="666">-0.1018205 0.9948028 0.0 -0.1018205 0.9948028 0.0 -0.1018205 0.9948028 0.0 -0.1018205 0.9948028 0.0 -0.1018205 0.9948028 0.0 0.9940717 0.1087267 0.0 0.9940717 0.1087267 0.0 0.9940717 0.1087267 0.0 0.9940717 0.1087267 0.0 -0.6239966 -0.781427 0.0 -0.6239967 -0.7814271 0.0 -0.6239966 -0.781427 0.0 -0.6239967 -0.781427 0.0 -0.1104316 0.9938838 0.0 -0.1104316 0.9938838 0.0 -0.1104316 0.9938838 0.0 -0.1104316 0.9938838 0.0 -0.1140058 0.9934801 0.0 -0.1140058 0.9934801 0.0 -0.1140058 0.9934801 0.0 -0.1140058 0.9934801 0.0 -0.9943148 -0.1064798 0.0 -0.9943148 -0.1064798 0.0 -0.9943148 -0.1064798 0.0 -0.9943148 -0.1064798 0.0 -0.110562 0.9938692 0.0 -0.110562 0.9938692 0.0 -0.110562 0.9938692 0.0 -0.110562 0.9938692 0.0 -0.110562 0.9938692 0.0 -0.9918064 -0.1277507 0.0 -0.9918064 -0.1277507 0.0 -0.9918064 -0.1277507 0.0 -0.9918064 -0.1277507 0.0 -0.1107141 0.9938523 0.0 -0.1107141 0.9938523 0.0 -0.1107141 0.9938523 0.0 -0.1107141 0.9938523 0.0 -0.7822379 0.6229799 0.0 -0.7822379 0.6229799 0.0 -0.7822379 0.6229799 0.0 -0.7822379 0.6229799 0.0 -0.6316733 -0.7752348 0.0 -0.6316733 -0.7752348 0.0 -0.6316733 -0.7752347 0.0 -0.6316733 -0.7752347 0.0 -0.6316733 -0.7752347 0.0 0.9939565 0.1097744 0.0 0.9939565 0.1097744 0.0 0.9939565 0.1097744 0.0 0.9939565 0.1097744 0.0 0.1038389 -0.0827053 0.9911495 0.1038529 -0.0827237 0.9911466 0.1038389 -0.0827053 0.9911495 0.1038249 -0.0826869 0.9911525 -0.1070799 0.9942504 0.0 -0.1070799 0.9942504 0.0 -0.1070799 0.9942504 0.0 -0.1070799 0.9942504 0.0 0.9918063 0.1277507 0.0 0.9918063 0.1277507 0.0 0.9918063 0.1277507 0.0 0.9918063 0.1277507 0.0 0.10708 -0.9942504 0.0 0.10708 -0.9942504 0.0 0.10708 -0.9942504 0.0 0.10708 -0.9942504 0.0 0.0 0.0 -1.0 0.0 0.0 -1.0 0.0 0.0 -1.0 0.0 0.0 -1.0 0.0 0.0 -1.0 0.9931515 0.116833 0.0 0.9931515 0.116833 0.0 0.9931515 0.116833 0.0 0.9931515 0.116833 0.0 0.9931515 0.116833 0.0 0.9934132 0.1145873 0.0 0.9934132 0.1145873 0.0 0.9934132 0.1145873 0.0 0.9934132 0.1145873 0.0 0.9934132 0.1145873 0.0 0.1126123 -0.993639 0.0 0.1126123 -0.9936391 0.0 0.1126123 -0.993639 0.0 0.1126123 -0.993639 0.0 -0.9943148 -0.1064798 0.0 -0.9943148 -0.1064798 0.0 -0.9943148 -0.1064798 0.0 -0.9943148 -0.1064798 0.0 -0.9943148 -0.1064798 0.0 0.1018222 -0.9948026 0.0 0.1018222 -0.9948027 0.0 0.1018222 -0.9948026 0.0 0.1018222 -0.9948026 0.0 0.1070799 -0.9942504 0.0 0.1070799 -0.9942504 0.0 0.1070799 -0.9942504 0.0 0.1070799 -0.9942504 0.0 0.1018205 -0.9948028 0.0 0.1018205 -0.9948028 0.0 0.1018205 -0.9948028 0.0 0.1018205 -0.9948028 0.0 0.1018205 -0.9948028 0.0 0.9934089 0.1146241 0.0 0.9934089 0.1146241 0.0 0.9934089 0.1146241 0.0 0.9934089 0.1146241 0.0 0.2307784 0.0257843 0.9726647 0.2350992 0.0263663 0.9716137 0.2350195 0.0263884 0.9716324 0.2286162 0.0254932 0.9731827 0.2222828 0.0245747 0.9746725 0.9295673 0.2844646 0.2344875 0.9295673 0.2844646 0.2344875 0.9295673 0.2844646 0.2344875 -0.0677491 0.6140716 0.7863371 -0.0677161 0.6132991 0.7869427 -0.0677 0.613344 0.7869091 -0.0677488 0.6140892 0.7863234 -0.0678622 0.6155333 0.7851838 -0.067715 0.6133519 0.7869016 0.9934089 0.1146241 0.0 0.9934089 0.1146241 0.0 0.9934089 0.1146241 0.0 0.9934089 0.1146241 0.0 0.9943148 0.1064798 0.0 0.9943148 0.1064798 0.0 0.9943148 0.1064798 0.0 0.9943148 0.1064798 0.0 -0.9938515 -0.1107209 0.0 -0.9938515 -0.1107209 0.0 -0.9938515 -0.1107209 0.0 -0.9938516 -0.1107209 0.0 -0.9938516 -0.1107209 0.0 0.0 0.0 -1.0 0.0 0.0 -1.0 0.0 0.0 -1.0 0.0 0.0 -1.0 0.0 0.0 -1.0 0.0 0.0 -1.0 0.0 0.0 -1.0 0.0 0.0 -1.0 0.0 0.0 -1.0 0.0 0.0 -1.0 -0.1018205 0.9948028 0.0 -0.1018205 0.9948028 0.0 -0.1018205 0.9948028 0.0 -0.1018205 0.9948028 0.0 -0.1018222 0.9948026 0.0 -0.1018222 0.9948026 0.0 -0.1018222 0.9948026 0.0 -0.1018222 0.9948027 0.0 -0.9918063 -0.1277507 0.0 -0.9918063 -0.1277507 0.0 -0.9918063 -0.1277507 0.0 -0.9918063 -0.1277507 0.0 0.0 0.0 -1.0 0.0 0.0 -1.0 0.0 0.0 -1.0 0.0 0.0 -1.0 0.0 0.0 -1.0 0.109746 -0.9939597 0.0 0.109746 -0.9939597 0.0 0.109746 -0.9939597 0.0 0.109746 -0.9939597 0.0 -0.9934089 -0.1146241 0.0 -0.9934089 -0.1146241 0.0 -0.9934089 -0.1146241 0.0 -0.9934089 -0.1146241 0.0 0.9937042 0.1120353 0.0 0.9937042 0.1120353 0.0 0.9937042 0.1120353 0.0 0.9937042 0.1120353 0.0 -0.9937699 -0.1114508 0.0 -0.9937699 -0.1114508 0.0 -0.9937699 -0.1114508 0.0 -0.9937699 -0.1114508 0.0 0.0 0.0 -1.0 0.0 0.0 -1.0 0.0 0.0 -1.0 0.0 0.0 -1.0 0.0 0.0 -1.0 0.0 0.0 -1.0 0.0 0.0 -1.0 0.0 0.0 -1.0 0.0 0.0 -1.0 0.0 0.0 -1.0 0.0 0.0 -1.0 -0.9949259 -0.1006105 0.0 -0.9949259 -0.1006105 0.0 -0.9949259 -0.1006105 0.0 -0.9949259 -0.1006105 0.0 -0.9949259 -0.1006105 0.0 0.1018222 -0.9948026 0.0 0.1018222 -0.9948026 0.0 0.1018222 -0.9948026 0.0 0.1018222 -0.9948026 0.0 0.0 0.0 1.0 0.0 0.0 1.0 0.0 0.0 1.0 0.0 0.0 1.0 0.0 0.0 1.0 0.0 0.0 1.0 0.0 0.0 1.0 0.0 0.0 1.0 0.0 0.0 1.0 0.0 0.0 1.0 -0.6239389 -0.7814732 0.0 -0.6239389 -0.7814732 0.0 -0.6239389 -0.7814732 0.0 -0.6239389 -0.7814732 0.0 -0.9943092 -0.1065331 0.0 -0.9943092 -0.1065331 0.0 -0.9943092 -0.1065331 0.0 -0.9943092 -0.1065331 0.0 -0.9943091 -0.1065331 0.0 -0.0929943 -0.0103475 0.9956129 -0.09308 -0.0103297 0.9956051 -0.092898 -0.0102694 0.9956228 -0.0929514 -0.0103564 0.9956168 -0.0931869 -0.0105036 0.9955932</float_array>
                    <technique_common>
                        <accessor count="222" source="#geometry0-normal-array" stride="3">
                            <param name="X" type="float"/>
                            <param name="Y" type="float"/>
                            <param name="Z" type="float"/>
                        </accessor>
                    </technique_common>
                </source>
                <vertices id="geometry0-vertex">
                    <input semantic="POSITION" source="#geometry0-position"/>
                </vertices>
                <triangles count="105" material="default_ai_0.2_sh_0.2_tr_0.0_dc_r_0.8_g_0.8_b_0.8_sc_r_1.0_g_1.0_b_1.0_ec_r_0.0_g_0.0_b_0_tri">
                    <input offset="0" semantic="VERTEX" source="#geometry0-vertex"/>
                    <input offset="1" semantic="NORMAL" source="#geometry0-normal"/>
                    <p>33 0 30 1 1 2 33 0 1 2 7 3 33 0 7 3 32 4 8 5 9 6 10 7 8 5 10 7 11 8 4 9 5 10 3 11 4 9 3 11 2 12 17 13 8 14 11 15 17 13 11 15 13 16 38 17 28 18 27 19 38 17 27 19 39 20 7 21 1 22 2 23 7 21 2 23 4 24 13 25 20 26 18 27 17 28 13 25 18 27 17 28 18 27 19 29 36 30 23 31 22 32 36 30 22 32 35 33 44 34 43 35 51 36 44 34 51 36 50 37 5 38 6 39 0 40 5 38 0 40 3 41 24 42 25 43 21 44 23 45 24 42 21 44 23 45 21 44 22 46 43 47 42 48 49 49 43 47 49 49 51 50 36 55 29 56 27 57 36 55 27 57 28 58 23 59 24 60 29 61 23 59 29 61 36 62 28 63 36 64 35 65 28 63 35 65 26 66 10 67 14 68 12 69 10 67 12 69 13 70 10 67 13 70 11 71 50 72 30 73 33 74 50 72 33 74 45 75 50 72 45 75 44 76 30 77 12 78 16 79 30 77 16 79 34 80 30 77 34 80 33 81 15 82 16 83 12 84 15 82 12 84 14 85 4 86 47 87 46 88 4 86 46 88 32 89 4 86 32 89 7 90 6 91 0 92 1 93 6 91 1 93 7 94 28 95 27 96 29 97 28 95 29 97 36 98 33 99 32 100 7 101 33 99 7 101 1 102 33 99 1 102 30 103 16 104 12 105 13 106 16 104 13 106 17 107 16 122 17 123 19 124 16 122 19 124 34 125 4 126 2 127 1 128 4 126 1 128 7 129 20 130 27 131 28 132 20 130 28 132 26 133 20 130 26 133 18 134 27 135 20 136 29 137 20 136 13 138 29 137 29 137 13 138 24 139 24 139 13 138 25 140 25 140 13 138 0 141 0 141 13 138 1 142 1 142 13 138 30 143 30 143 13 138 12 144 33 145 32 146 46 147 33 145 46 147 45 148 7 149 1 150 0 151 7 149 0 151 6 152 36 153 29 154 24 155 36 153 24 155 23 156 24 157 40 158 39 159 24 157 39 159 27 160 24 157 27 160 29 161 42 162 41 163 48 164 42 162 48 164 49 165 17 166 13 167 12 168 17 166 12 168 16 169 9 170 15 171 14 172 9 170 14 172 10 173 37 174 38 175 39 176 37 174 39 176 40 177 49 178 48 179 2 180 49 178 2 180 1 181 50 182 51 183 49 178 50 182 49 178 1 181 50 182 1 181 30 184 0 185 1 186 2 187 0 185 2 187 3 188 25 189 0 190 6 191 25 189 6 191 31 192 25 189 31 192 21 193 6 194 7 195 32 196 6 194 32 196 31 197 23 208 37 209 40 210 23 208 40 210 24 211 2 212 48 213 41 214 4 215 2 212 41 214 4 215 41 214 47 216</p>
                </triangles>
                <triangles count="21" material="default_ai_0.2_sh_0.2_tr_0.0_dc_r_1.0_g_0.2_b_0.2_sc_r_1.0_g_1.0_b_1.0_ec_r_0.0_g_0.0_b_0_tri">
                    <input offset="0" semantic="VERTEX" source="#geometry0-vertex"/>
                    <input offset="1" semantic="NORMAL" source="#geometry0-normal"/>
                    <p>5 51 4 52 7 53 5 51 7 53 6 54 28 108 38 109 37 110 28 108 37 110 23 111 28 108 23 111 36 112 46 113 47 114 41 115 46 116 41 117 42 118 44 119 45 120 46 116 44 119 46 116 42 118 44 119 42 118 43 121 18 198 26 199 35 200 19 201 18 198 35 200 19 201 35 200 22 202 19 201 22 202 21 203 19 201 21 203 31 204 19 201 31 204 32 205 19 201 32 205 33 206 19 201 33 206 34 207 17 217 16 218 15 219 17 217 15 219 9 220 17 217 9 220 8 221</p>
                </triangles>
            </mesh>
        </geometry>
    </library_geometries>
    <library_visual_scenes>
        <visual_scene id="Building_DEBW_5221000Qnem">
            <node>
                <instance_geometry url="#geometry0">
                    <bind_material>
                        <technique_common>
                            <instance_material symbol="default_ai_0.2_sh_0.2_tr_0.0_dc_r_0.8_g_0.8_b_0.8_sc_r_1.0_g_1.0_b_1.0_ec_r_0.0_g_0.0_b_0_tri" target="#default_ai_0.2_sh_0.2_tr_0.0_dc_r_0.8_g_0.8_b_0.8_sc_r_1.0_g_1.0_b_1.0_ec_r_0.0_g_0.0_b_0_mat"/>
                            <instance_material symbol="default_ai_0.2_sh_0.2_tr_0.0_dc_r_1.0_g_0.2_b_0.2_sc_r_1.0_g_1.0_b_1.0_ec_r_0.0_g_0.0_b_0_tri" target="#default_ai_0.2_sh_0.2_tr_0.0_dc_r_1.0_g_0.2_b_0.2_sc_r_1.0_g_1.0_b_1.0_ec_r_0.0_g_0.0_b_0_mat"/>
                        </technique_common>
                    </bind_material>
                </instance_geometry>
            </node>
        </visual_scene>
    </library_visual_scenes>
    <scene>
        <instance_visual_scene url="#Building_DEBW_5221000Qnem"/>
    </scene>
</COLLADA>
