<?xml version="1.0" encoding="UTF-8" standalone="yes"?>
<COLLADA xmlns="http://www.collada.org/2005/11/COLLADASchema" version="1.4.1">
    <asset>
        <contributor>
            <authoring_tool>3D City Database Importer/Exporter, version 5.5.3; Chair of Geoinformatics, Technical University of Munich</authoring_tool>
        </contributor>
        <created>2026-05-06T15:12:09.068</created>
        <modified>2026-05-06T15:12:09.068</modified>
        <unit meter="1.0" name="meters"/>
        <up_axis>Z_UP</up_axis>
    </asset>
    <library_materials>
        <material id="default_ai_0.2_sh_0.2_tr_0.0_dc_r_0.8_g_0.8_b_0.8_sc_r_1.0_g_1.0_b_1.0_ec_r_0.0_g_0.0_b_0_mat">
            <instance_effect url="#default_ai_0.2_sh_0.2_tr_0.0_dc_r_0.8_g_0.8_b_0.8_sc_r_1.0_g_1.0_b_1.0_ec_r_0.0_g_0.0_b_0_eff"/>
        </material>
        <material id="default_ai_0.2_sh_0.2_tr_0.0_dc_r_1.0_g_0.2_b_0.2_sc_r_1.0_g_1.0_b_1.0_ec_r_0.0_g_0.0_b_0_mat">
            <instance_effect url="#default_ai_0.2_sh_0.2_tr_0.0_dc_r_1.0_g_0.2_b_0.2_sc_r_1.0_g_1.0_b_1.0_ec_r_0.0_g_0.0_b_0_eff"/>
        </material>
    </library_materials>
    <library_effects>
        <effect id="default_ai_0.2_sh_0.2_tr_0.0_dc_r_0.8_g_0.8_b_0.8_sc_r_1.0_g_1.0_b_1.0_ec_r_0.0_g_0.0_b_0_eff">
            <profile_COMMON>
                <technique sid="COMMON">
                    <lambert>
                        <emission>
                            <color>0.0 0.0 0.0 1.0</color>
                        </emission>
                        <diffuse>
                            <color>0.8 0.8 0.8 1.0</color>
                        </diffuse>
                        <reflective>
                            <color>1.0 1.0 1.0 1.0</color>
                        </reflective>
                        <reflectivity>
                            <float>0.2</float>
                        </reflectivity>
                        <transparent opaque="A_ONE">
                            <color>1.0 1.0 1.0 1.0</color>
                        </transparent>
                        <transparency>
                            <float>1.0</float>
                        </transparency>
                    </lambert>
                </technique>
                <extra>
                    <technique profile="GOOGLEEARTH">
                        <double_sided>0</double_sided>
                    </technique>
                </extra>
            </profile_COMMON>
        </effect>
        <effect id="default_ai_0.2_sh_0.2_tr_0.0_dc_r_1.0_g_0.2_b_0.2_sc_r_1.0_g_1.0_b_1.0_ec_r_0.0_g_0.0_b_0_eff">
            <profile_COMMON>
                <technique sid="COMMON">
                    <lambert>
                        <emission>
                            <color>0.0 0.0 0.0 1.0</color>
                        </emission>
                        <diffuse>
                            <color>1.0 0.2 0.2 1.0</color>
                        </diffuse>
                        <reflective>
                            <color>1.0 1.0 1.0 1.0</color>
                        </reflective>
                        <reflectivity>
                            <float>0.2</float>
                        </reflectivity>
                        <transparent opaque="A_ONE">
                            <color>1.0 1.0 1.0 1.0</color>
                        </transparent>
                        <transparency>
                            <float>1.0</float>
                        </transparency>
                    </lambert>
                </technique>
                <extra>
                    <technique profile="GOOGLEEARTH">
                        <double_sided>0</double_sided>
                    </technique>
                </extra>
            </profile_COMMON>
        </effect>
    </library_effects>
    <library_geometries>
        <geometry id="geometry0">
            <mesh>
                <source id="geometry0-position">
                    <float_array id="geometry0-position-array" count="102">-0.029 -0.45 15.321 0.0 0.0 15.321 0.0 0.0 0.0 -0.029 -0.45 0.0 -2.139 2.97 15.321 -1.859 7.09 15.321 -1.859 7.09 0.0 -2.139 2.97 0.0 11.861 9.27 15.321 11.251 0.14 15.321 11.251 0.14 0.0 11.861 9.27 0.0 -1.109 17.83 15.321 5.791 17.35 15.321 5.791 17.35 0.0 -1.109 17.83 0.0 5.471 12.8 15.321 5.471 12.8 0.0 -4.109 7.27 15.321 -4.109 7.27 0.0 2.311 12.99 15.321 2.311 12.99 0.0 -3.659 13.8 15.321 -1.399 13.67 15.321 -1.399 13.67 0.0 -3.659 13.8 0.0 0.181 2.78 15.321 0.181 2.78 0.0 2.111 9.91 0.0 4.911 0.62 0.0 4.791 -0.82 0.0 4.791 -0.82 15.321 2.111 9.91 15.321 4.911 0.62 15.321</float_array>
                    <technique_common>
                        <accessor count="34" source="#geometry0-position-array" stride="3">
                            <param name="X" type="float"/>
                            <param name="Y" type="float"/>
                            <param name="Z" type="float"/>
                        </accessor>
                    </technique_common>
                </source>
                <source id="geometry0-normal">
                    <float_array id="geometry0-normal-array" count="306">0.0 0.0 -1.0 0.0 0.0 -1.0 0.0 0.0 -1.0 0.0 0.0 -1.0 0.0 0.0 -1.0 0.0 0.0 -1.0 0.0 0.0 -1.0 0.0 0.0 -1.0 0.0 0.0 -1.0 0.0 0.0 -1.0 0.0 0.0 -1.0 0.0 0.0 -1.0 0.0 0.0 -1.0 0.0 0.0 -1.0 0.0 0.0 -1.0 0.0 0.0 -1.0 0.0 0.0 -1.0 0.0655 0.9978526 0.0 0.0655 0.9978526 0.0 0.0655 0.9978526 0.0 0.0655 0.9978526 0.0 -0.0600181 -0.9981973 0.0 -0.0600181 -0.9981973 0.0 -0.0600181 -0.9981973 0.0 -0.0600181 -0.9981973 0.0 -0.9976339 0.0687497 0.0 -0.9976339 0.0687497 0.0 -0.9976339 0.0687497 0.0 -0.9976339 0.0687497 0.0 -0.0754937 -0.9971462 0.0 -0.0754937 -0.9971462 0.0 -0.0754937 -0.9971462 0.0 -0.0754937 -0.9971462 0.0 0.0 0.0 1.0 0.0 0.0 1.0 0.0 0.0 1.0 0.0 0.0 1.0 0.0 0.0 1.0 0.0 0.0 1.0 0.0 0.0 1.0 0.0 0.0 1.0 0.0 0.0 1.0 0.0 0.0 1.0 0.0 0.0 1.0 0.0 0.0 1.0 0.0 0.0 1.0 0.0 0.0 1.0 0.0 0.0 1.0 0.0 0.0 1.0 0.0 0.0 1.0 0.9977755 -0.066664 0.0 0.9977755 -0.066664 0.0 0.9977755 -0.066664 0.0 0.9977755 -0.066664 0.0 0.997536 -0.0701563 0.0 0.997536 -0.0701563 0.0 0.997536 -0.0701563 0.0 0.997536 -0.0701563 0.0 -0.997579 0.0695428 0.0 -0.997579 0.0695428 0.0 -0.997579 0.0695428 0.0 -0.997579 0.0695428 0.0 0.9965458 -0.0830454 0.0 0.9965458 -0.0830454 0.0 0.9965458 -0.0830454 0.0 0.9965458 -0.0830454 0.0 0.0574273 0.9983497 0.0 0.0574273 0.9983497 0.0 0.0574273 0.9983497 0.0 0.0574273 0.9983497 0.0 -0.9979299 0.064311 0.0 -0.9979299 0.064311 0.0 -0.9979299 0.064311 0.0 -0.9979299 0.064311 0.0 0.0693974 0.9975891 0.0 0.0693974 0.9975891 0.0 0.0693974 0.9975891 0.0 0.0693974 0.9975891 0.0 -0.0765383 -0.9970666 0.0 -0.0765383 -0.9970666 0.0 -0.0765383 -0.9970666 0.0 -0.0765383 -0.9970666 0.0 -0.0797451 -0.9968153 0.0 -0.0797451 -0.9968153 0.0 -0.0797451 -0.9968153 0.0 -0.0797451 -0.9968153 0.0 -0.9978872 0.0649703 0.0 -0.9978872 0.0649703 0.0 -0.9978872 0.0649703 0.0 -0.9978872 0.0649703 0.0 -0.0816233 -0.9966633 0.0 -0.0816233 -0.9966633 0.0 -0.0816233 -0.9966633 0.0 -0.0816233 -0.9966633 0.0 -0.9976986 0.0678048 0.0 -0.9976986 0.0678048 0.0 -0.9976986 0.0678048 0.0 -0.9976986 0.0678048 0.0 0.9978983 -0.0647986 0.0 0.9978983 -0.0647986 0.0 0.9978983 -0.0647986 0.0 0.9978983 -0.0647986 0.0</float_array>
                    <technique_common>
                        <accessor count="102" source="#geometry0-normal-array" stride="3">
                            <param name="X" type="float"/>
                            <param name="Y" type="float"/>
                            <param name="Z" type="float"/>
                        </accessor>
                    </technique_common>
                </source>
                <vertices id="geometry0-vertex">
                    <input semantic="POSITION" source="#geometry0-position"/>
                </vertices>
                <triangles count="49" material="default_ai_0.2_sh_0.2_tr_0.0_dc_r_0.8_g_0.8_b_0.8_sc_r_1.0_g_1.0_b_1.0_ec_r_0.0_g_0.0_b_0_tri">
                    <input offset="0" semantic="VERTEX" source="#geometry0-vertex"/>
                    <input offset="1" semantic="NORMAL" source="#geometry0-normal"/>
                    <p>29 0 30 1 3 2 29 0 3 2 2 3 29 0 2 3 27 4 10 5 29 0 27 4 11 6 10 5 27 4 11 6 27 4 7 7 11 6 7 7 6 8 11 6 6 8 19 9 28 10 11 6 19 9 28 10 19 9 25 11 28 10 25 11 24 12 28 10 24 12 15 13 21 14 28 10 15 13 21 14 15 13 14 15 21 14 14 15 17 16 32 17 8 18 11 19 32 17 11 19 28 20 16 21 20 22 21 23 16 21 21 23 17 24 18 25 22 26 25 27 18 25 25 27 19 28 9 29 33 30 29 31 9 29 29 31 10 32 8 50 9 51 10 52 8 50 10 52 11 53 13 54 16 55 17 56 13 54 17 56 14 57 23 58 12 59 15 60 23 58 15 60 24 61 33 62 31 63 30 64 33 62 30 64 29 65 22 66 23 67 24 68 22 66 24 68 25 69 0 70 1 71 2 72 0 70 2 72 3 73 12 74 13 75 14 76 12 74 14 76 15 77 31 78 0 79 3 80 31 78 3 80 30 81 5 82 18 83 19 84 5 82 19 84 6 85 1 86 26 87 27 88 1 86 27 88 2 89 26 90 4 91 7 92 26 90 7 92 27 93 4 94 5 95 6 96 4 94 6 96 7 97 20 98 32 99 28 100 20 98 28 100 21 101</p>
                </triangles>
                <triangles count="15" material="default_ai_0.2_sh_0.2_tr_0.0_dc_r_1.0_g_0.2_b_0.2_sc_r_1.0_g_1.0_b_1.0_ec_r_0.0_g_0.0_b_0_tri">
                    <input offset="0" semantic="VERTEX" source="#geometry0-vertex"/>
                    <input offset="1" semantic="NORMAL" source="#geometry0-normal"/>
                    <p>1 33 0 34 31 35 1 33 31 35 33 36 26 37 1 33 33 36 26 37 33 36 9 38 26 37 9 38 8 39 26 37 8 39 32 40 26 37 32 40 20 41 4 42 26 37 20 41 5 43 4 42 20 41 18 44 5 43 20 41 22 45 18 44 20 41 22 45 20 41 16 46 23 47 22 45 16 46 23 47 16 46 13 48 23 47 13 48 12 49</p>
                </triangles>
            </mesh>
        </geometry>
    </library_geometries>
    <library_visual_scenes>
        <visual_scene id="Building_DEBW_5221000QyXM">
            <node>
                <instance_geometry url="#geometry0">
                    <bind_material>
                        <technique_common>
                            <instance_material symbol="default_ai_0.2_sh_0.2_tr_0.0_dc_r_0.8_g_0.8_b_0.8_sc_r_1.0_g_1.0_b_1.0_ec_r_0.0_g_0.0_b_0_tri" target="#default_ai_0.2_sh_0.2_tr_0.0_dc_r_0.8_g_0.8_b_0.8_sc_r_1.0_g_1.0_b_1.0_ec_r_0.0_g_0.0_b_0_mat"/>
                            <instance_material symbol="default_ai_0.2_sh_0.2_tr_0.0_dc_r_1.0_g_0.2_b_0.2_sc_r_1.0_g_1.0_b_1.0_ec_r_0.0_g_0.0_b_0_tri" target="#default_ai_0.2_sh_0.2_tr_0.0_dc_r_1.0_g_0.2_b_0.2_sc_r_1.0_g_1.0_b_1.0_ec_r_0.0_g_0.0_b_0_mat"/>
                        </technique_common>
                    </bind_material>
                </instance_geometry>
            </node>
        </visual_scene>
    </library_visual_scenes>
    <scene>
        <instance_visual_scene url="#Building_DEBW_5221000QyXM"/>
    </scene>
</COLLADA>
