<?xml version="1.0" encoding="UTF-8" standalone="yes"?>
<COLLADA xmlns="http://www.collada.org/2005/11/COLLADASchema" version="1.4.1">
    <asset>
        <contributor>
            <authoring_tool>3D City Database Importer/Exporter, version 5.5.3; Chair of Geoinformatics, Technical University of Munich</authoring_tool>
        </contributor>
        <created>2026-05-06T15:12:09.517</created>
        <modified>2026-05-06T15:12:09.517</modified>
        <unit meter="1.0" name="meters"/>
        <up_axis>Z_UP</up_axis>
    </asset>
    <library_materials>
        <material id="default_ai_0.2_sh_0.2_tr_0.0_dc_r_0.8_g_0.8_b_0.8_sc_r_1.0_g_1.0_b_1.0_ec_r_0.0_g_0.0_b_0_mat">
            <instance_effect url="#default_ai_0.2_sh_0.2_tr_0.0_dc_r_0.8_g_0.8_b_0.8_sc_r_1.0_g_1.0_b_1.0_ec_r_0.0_g_0.0_b_0_eff"/>
        </material>
        <material id="default_ai_0.2_sh_0.2_tr_0.0_dc_r_1.0_g_0.2_b_0.2_sc_r_1.0_g_1.0_b_1.0_ec_r_0.0_g_0.0_b_0_mat">
            <instance_effect url="#default_ai_0.2_sh_0.2_tr_0.0_dc_r_1.0_g_0.2_b_0.2_sc_r_1.0_g_1.0_b_1.0_ec_r_0.0_g_0.0_b_0_eff"/>
        </material>
    </library_materials>
    <library_effects>
        <effect id="default_ai_0.2_sh_0.2_tr_0.0_dc_r_0.8_g_0.8_b_0.8_sc_r_1.0_g_1.0_b_1.0_ec_r_0.0_g_0.0_b_0_eff">
            <profile_COMMON>
                <technique sid="COMMON">
                    <lambert>
                        <emission>
                            <color>0.0 0.0 0.0 1.0</color>
                        </emission>
                        <diffuse>
                            <color>0.8 0.8 0.8 1.0</color>
                        </diffuse>
                        <reflective>
                            <color>1.0 1.0 1.0 1.0</color>
                        </reflective>
                        <reflectivity>
                            <float>0.2</float>
                        </reflectivity>
                        <transparent opaque="A_ONE">
                            <color>1.0 1.0 1.0 1.0</color>
                        </transparent>
                        <transparency>
                            <float>1.0</float>
                        </transparency>
                    </lambert>
                </technique>
                <extra>
                    <technique profile="GOOGLEEARTH">
                        <double_sided>0</double_sided>
                    </technique>
                </extra>
            </profile_COMMON>
        </effect>
        <effect id="default_ai_0.2_sh_0.2_tr_0.0_dc_r_1.0_g_0.2_b_0.2_sc_r_1.0_g_1.0_b_1.0_ec_r_0.0_g_0.0_b_0_eff">
            <profile_COMMON>
                <technique sid="COMMON">
                    <lambert>
                        <emission>
                            <color>0.0 0.0 0.0 1.0</color>
                        </emission>
                        <diffuse>
                            <color>1.0 0.2 0.2 1.0</color>
                        </diffuse>
                        <reflective>
                            <color>1.0 1.0 1.0 1.0</color>
                        </reflective>
                        <reflectivity>
                            <float>0.2</float>
                        </reflectivity>
                        <transparent opaque="A_ONE">
                            <color>1.0 1.0 1.0 1.0</color>
                        </transparent>
                        <transparency>
                            <float>1.0</float>
                        </transparency>
                    </lambert>
                </technique>
                <extra>
                    <technique profile="GOOGLEEARTH">
                        <double_sided>0</double_sided>
                    </technique>
                </extra>
            </profile_COMMON>
        </effect>
    </library_effects>
    <library_geometries>
        <geometry id="geometry0">
            <mesh>
                <source id="geometry0-position">
                    <float_array id="geometry0-position-array" count="375">25.61 -25.82 18.135 0.0 0.0 18.135 0.0 0.0 0.0 25.61 -25.82 0.0 26.753 -24.697 17.603 26.753 -24.697 0.0 1.001 0.991 17.667 0.99 0.98 17.673 0.99 0.98 0.0 1.001 0.991 0.0 -1.09 1.09 17.84 -4.76 4.79 17.84 -4.76 4.79 0.0 -1.09 1.09 0.0 -0.09 2.08 17.84 6.13 13.85 17.84 5.272 14.716 17.84 -0.09 2.08 0.0 -0.09 2.08 17.739 5.272 14.716 0.0 6.13 13.85 0.0 6.13 13.85 17.739 26.92 -27.36 17.805 28.18 -26.12 17.805 28.18 -26.12 17.739 28.18 -26.12 0.0 26.92 -27.36 0.0 41.59 -40.13 17.805 28.46 -41.543 17.805 28.46 -41.543 17.715 28.46 -41.543 0.0 41.59 -40.13 0.0 27.11 -29.11 17.805 57.88 -38.36 17.805 53.24 -33.69 17.805 48.92 -29.33 17.805 37.07 -17.372 17.805 53.24 -33.69 0.0 48.92 -29.33 0.0 57.88 -38.36 0.0 37.07 -17.372 0.0 37.07 -17.372 17.739 27.11 -29.11 0.0 27.11 -29.11 17.715 26.431 -41.762 0.0 25.11 -29.33 0.0 25.11 -29.33 17.715 26.431 -41.762 17.715 -76.94 -46.9 24.789 -72.69 -42.68 24.789 -72.69 -42.68 0.0 -76.94 -46.9 0.0 -66.99 -37.0 24.789 -66.99 -37.0 0.0 -46.26 -33.43 24.789 -44.65 -35.05 24.789 -44.65 -35.05 0.0 -46.26 -33.43 0.0 -46.26 -33.43 24.747 -54.765 -24.872 24.789 -54.765 -24.872 24.747 -54.765 -24.872 0.0 -43.093 -49.246 24.789 -82.89 -53.53 24.789 -82.89 -53.53 0.0 -43.093 -49.246 0.0 -43.093 -49.246 17.695 -83.7 -53.62 24.789 -83.7 -53.62 0.0 -44.4 -37.33 0.0 -44.4 -37.33 24.789 -44.4 -37.33 17.695 -11.44 0.14 24.731 -12.54 -0.94 24.731 -12.54 -0.94 0.0 -11.44 0.14 0.0 -21.51 8.12 0.0 -20.415 9.206 0.0 -21.51 8.12 24.731 -20.415 9.206 24.731 -44.68 -31.87 24.747 -53.215 -23.335 24.747 -53.215 -23.335 0.0 -44.68 -31.87 0.0 -11.55 -1.94 24.785 -43.2 -33.35 24.785 -43.2 -33.35 0.0 -11.55 -1.94 0.0 -21.509 8.12 0.0 -12.54 -0.94 24.785 -21.509 8.12 24.785 -53.215 -23.335 24.785 -44.68 -31.87 24.785 -21.509 8.12 24.731 26.76 -24.69 0.0 0.99 0.98 17.739 26.76 -24.69 17.739 26.753 -24.697 17.739 1.001 0.991 17.739 -40.935 -49.014 17.695 -42.19 -37.09 17.695 -42.19 -37.09 0.0 -40.935 -49.014 0.0 -42.19 -37.09 17.745 -42.41 -35.0 17.745 -42.41 -35.0 0.0 24.94 -27.73 17.745 25.11 -29.33 17.745 24.94 -27.73 0.0 26.431 -41.762 17.745 -40.935 -49.014 17.745 -4.46 24.55 24.797 5.272 14.717 24.797 5.272 14.717 0.0 -4.46 24.55 0.0 -4.68 24.76 24.797 -14.14 15.43 24.797 -20.415 9.206 24.797 -11.44 0.14 24.797 -10.46 -0.85 24.797 -4.76 4.79 24.797 -10.46 -0.85 0.0 -4.68 24.76 0.0 -14.14 15.43 0.0 5.272 14.717 17.84</float_array>
                    <technique_common>
                        <accessor count="125" source="#geometry0-position-array" stride="3">
                            <param name="X" type="float"/>
                            <param name="Y" type="float"/>
                            <param name="Z" type="float"/>
                        </accessor>
                    </technique_common>
                </source>
                <source id="geometry0-normal">
                    <float_array id="geometry0-normal-array" count="1524">-0.7013913 0.7127764 0.0 -0.7013913 0.7127764 0.0 -0.7013913 0.7127764 0.0 -0.7013913 0.7127764 0.0 -0.7071068 -0.7071066 0.0 -0.7071068 -0.7071066 0.0 -0.7071068 -0.7071066 0.0 -0.7071068 -0.7071066 0.0 -0.7095835 -0.7046213 0.0 -0.7095835 -0.7046213 0.0 -0.7095835 -0.7046213 0.0 -0.7095835 -0.7046213 0.0 0.7062265 0.707986 0.0 0.7062265 0.707986 0.0 0.7062265 0.707986 0.0 0.7062265 0.707986 0.0 0.0 0.0 1.0 0.0 0.0 1.0 0.0 0.0 1.0 0.0 0.0 1.0 -0.9941566 -0.1079474 0.0 -0.9941566 -0.1079474 0.0 -0.9941566 -0.1079474 0.0 -0.9941566 -0.1079474 0.0 -0.7041832 0.7100183 0.0 -0.7041832 0.7100183 0.0 -0.7041832 0.7100183 0.0 -0.7041832 0.7100183 0.0 0.0 0.0 -1.0 0.0 0.0 -1.0 0.0 0.0 -1.0 0.0 0.0 -1.0 0.0 0.0 -1.0 0.0 0.0 -1.0 0.7092997 0.7049071 0.0 0.7092997 0.7049071 0.0 0.7092997 0.7049071 0.0 0.7092997 0.7049071 0.0 0.7103073 0.7038918 0.0 0.7103073 0.7038918 0.0 0.7103073 0.7038918 0.0 0.7103073 0.7038918 0.0 -0.7099882 -0.7042137 0.0 -0.7099882 -0.7042137 0.0 -0.7099882 -0.7042137 0.0 -0.7099882 -0.7042137 0.0 -0.1073202 0.9942245 0.0 -0.1073202 0.9942245 0.0 -0.1073202 0.9942245 0.0 -0.1073202 0.9942245 0.0 0.7008383 -0.7133201 0.0 0.7008383 -0.7133201 0.0 0.7008383 -0.7133201 0.0 0.7008383 -0.7133201 0.0 -0.7106644 -0.7035311 0.0 -0.7106644 -0.7035311 0.0 -0.7106644 -0.7035311 0.0 -0.7106644 -0.7035311 0.0 0.7071049 -0.7071087 0.0 0.7071049 -0.7071087 0.0 0.7071049 -0.7071087 0.0 0.7071049 -0.7071087 0.0 0.7071049 -0.7071087 0.0 0.2342468 0.2324651 0.9439749 0.2234992 0.2216814 0.9491604 0.2236126 0.2217847 0.9491096 0.2395994 0.2378358 0.9412897 0.255337 0.2536488 0.9329873 -0.994402 -0.1056631 0.0 -0.994402 -0.1056631 0.0 -0.994402 -0.1056631 0.0 -0.994402 -0.1056631 0.0 0.1070323 -0.9942555 0.0 0.1070323 -0.9942555 0.0 0.1070323 -0.9942555 0.0 0.1070323 -0.9942555 0.0 0.1070323 -0.9942555 0.0 0.1070324 -0.9942556 0.0 -0.7045979 0.7096067 0.0 -0.7045979 0.7096067 0.0 -0.7045979 0.7096067 0.0 -0.7045979 0.7096067 0.0 0.9941566 0.1079474 0.0 0.9941566 0.1079474 0.0 0.9941566 0.1079474 0.0 0.9941566 0.1079474 0.0 0.0 0.0 1.0 0.0 0.0 1.0 0.0 0.0 1.0 0.0 0.0 1.0 0.0 0.0 1.0 0.0 0.0 1.0 -0.7035083 0.710687 0.0 -0.7035083 0.710687 0.0 -0.7035083 0.710687 0.0 -0.7035083 0.710687 0.0 -0.7014273 0.712741 0.0 -0.7014273 0.712741 0.0 -0.7014273 0.712741 0.0 -0.7014273 0.712741 0.0 -0.7014273 0.712741 0.0 -0.7058627 0.7083486 0.0 -0.7058627 0.7083486 0.0 -0.7058627 0.7083486 0.0 -0.7058627 0.7083486 0.0 0.0 0.0 -1.0 0.0 0.0 -1.0 0.0 0.0 -1.0 0.0 0.0 -1.0 -0.7071049 0.7071087 0.0 -0.7071049 0.7071087 0.0 -0.7071049 0.7071087 0.0 -0.7071049 0.7071087 0.0 0.1069982 -0.9942592 0.0 0.1069982 -0.9942592 0.0 0.1069982 -0.9942591 0.0 0.1069982 -0.9942592 0.0 0.1069982 -0.9942592 0.0 0.709293 0.7049137 0.0 0.709293 0.7049137 0.0 0.709293 0.7049137 0.0 0.709293 0.7049137 0.0 0.7092931 0.7049137 0.0 -0.7062265 -0.707986 0.0 -0.7062265 -0.707986 0.0 -0.7062265 -0.707986 0.0 -0.7062265 -0.707986 0.0 0.0 0.0 1.0 0.0 0.0 1.0 0.0 0.0 1.0 0.0 0.0 1.0 0.0 0.0 1.0 0.0 0.0 1.0 0.0 0.0 1.0 0.0 0.0 1.0 0.0 0.0 1.0 0.0 0.0 1.0 0.0 0.0 1.0 0.0 0.0 1.0 0.0 0.0 1.0 -0.7042848 0.7099175 0.0 -0.7042848 0.7099175 0.0 -0.7042848 0.7099175 0.0 -0.7042848 0.7099175 0.0 -0.7042848 0.7099175 0.0 -0.1093401 0.9940044 0.0 -0.1093401 0.9940044 0.0 -0.1093401 0.9940044 0.0 -0.1093401 0.9940044 0.0 0.994402 0.1056631 0.0 0.994402 0.1056631 0.0 0.994402 0.1056631 0.0 0.994402 0.1056631 0.0 0.0 0.0 -1.0 0.0 0.0 -1.0 0.0 0.0 -1.0 0.0 0.0 -1.0 0.0 0.0 -1.0 -0.9940384 -0.1090309 0.0 -0.9940384 -0.1090309 0.0 -0.9940384 -0.1090309 0.0 -0.9940384 -0.1090309 0.0 0.1073126 -0.9942253 0.0 0.1073126 -0.9942253 0.0 0.1073126 -0.9942253 0.0 0.1073126 -0.9942253 0.0 0.107028 -0.994256 0.0 0.107028 -0.994256 0.0 0.107028 -0.994256 0.0 0.107028 -0.994256 0.0 0.107028 -0.994256 0.0 0.9945069 0.1046715 0.0 0.9945069 0.1046715 0.0 0.9945069 0.1046715 0.0 0.9945069 0.1046715 0.0 0.7071068 0.7071067 0.0 0.7071068 0.7071067 0.0 0.7071068 0.7071067 0.0 0.7071068 0.7071067 0.0 -0.7092997 -0.7049071 0.0 -0.7092997 -0.7049071 0.0 -0.7092997 -0.7049071 0.0 -0.7092997 -0.7049071 0.0 -0.9945068 -0.1046715 0.0 -0.9945068 -0.1046715 0.0 -0.9945068 -0.1046715 0.0 -0.9945068 -0.1046715 0.0 -0.7050056 0.7092018 0.0 -0.7050056 0.7092018 0.0 -0.7050056 0.7092018 0.0 -0.7050056 0.7092018 0.0 0.7103574 0.7038411 0.0 0.7103574 0.7038411 0.0 0.7103574 0.7038411 0.0 0.7103574 0.7038411 0.0 0.0 0.0 1.0 0.0 0.0 1.0 0.0 0.0 1.0 0.0 0.0 1.0 -0.7033413 0.7108523 0.0 -0.7033413 0.7108523 0.0 -0.7033413 0.7108523 0.0 -0.7033413 0.7108523 0.0 0.8841349 -0.4672319 0.0 0.8841349 -0.4672319 0.0 0.8841349 -0.4672319 0.0 0.8841349 -0.4672319 0.0 0.0 0.0 -1.0 0.0 0.0 -1.0 0.0 0.0 -1.0 0.0 0.0 -1.0 0.0 0.0 -1.0 0.0 0.0 -1.0 0.0 0.0 -1.0 0.0 0.0 -1.0 0.0 0.0 -1.0 0.0 0.0 -1.0 0.1080199 -0.9941487 0.0 0.1080199 -0.9941487 0.0 0.1080199 -0.9941487 0.0 0.1080199 -0.9941487 0.0 -0.1079631 0.9941549 0.0 -0.1079631 0.9941549 0.0 -0.1079631 0.9941549 0.0 -0.1079631 0.9941549 0.0 0.110432 -0.9938837 0.0 0.110432 -0.9938837 0.0 0.110432 -0.9938837 0.0 0.110432 -0.9938837 0.0 -0.7106644 -0.7035311 0.0 -0.7106644 -0.7035311 0.0 -0.7106644 -0.7035311 0.0 -0.7106644 -0.7035311 0.0 0.7103072 0.7038919 0.0 0.7103072 0.7038919 0.0 0.7103072 0.7038919 0.0 0.7103072 0.7038919 0.0 0.7103072 0.7038919 0.0 0.0 0.0 1.0 0.0 0.0 1.0 0.0 0.0 1.0 0.0 0.0 1.0 0.0 0.0 1.0 0.0 0.0 1.0 0.0 0.0 1.0 0.0 0.0 1.0 0.0 0.0 1.0 0.0 0.0 1.0 0.0 0.0 -1.0 0.0 0.0 -1.0 0.0 0.0 -1.0 0.0 0.0 -1.0 0.7033772 -0.7108169 0.0 0.7033772 -0.7108169 0.0 0.7033772 -0.7108169 0.0 0.7033772 -0.7108169 0.0 0.1068904 -0.9942708 0.0 0.1068904 -0.9942708 0.0 0.1068904 -0.9942708 0.0 0.1068904 -0.9942708 0.0 0.0 0.0 1.0 0.0 0.0 1.0 0.0 0.0 1.0 0.0 0.0 1.0 0.7013913 -0.7127764 0.0 0.7013913 -0.7127764 0.0 0.7013913 -0.7127764 0.0 0.7013913 -0.7127764 0.0 -0.8841349 0.4672319 0.0 -0.8841349 0.4672319 0.0 -0.8841349 0.4672319 0.0 -0.8841349 0.4672319 0.0 -0.7099792 -0.7042226 0.0 -0.7099792 -0.7042226 0.0 -0.7099792 -0.7042226 0.0 -0.7099792 -0.7042226 0.0 -0.7062265 -0.707986 0.0 -0.7062265 -0.707986 0.0 -0.7062265 -0.707986 0.0 -0.7062265 -0.707986 0.0 -0.7041231 0.7100779 0.0 -0.7041231 0.7100779 0.0 -0.7041231 0.7100779 0.0 -0.7041231 0.7100779 0.0 0.0 0.0 1.0 0.0 0.0 1.0 0.0 0.0 1.0 0.0 0.0 1.0 0.0 0.0 1.0 0.7025889 -0.7115959 0.0 0.7025889 -0.7115959 0.0 0.7025889 -0.7115959 0.0 0.7025889 -0.7115959 0.0 0.7107475 0.7034472 0.0 0.7107475 0.7034472 0.0 0.7107475 0.7034472 0.0 0.7107475 0.7034472 0.0 0.0 0.0 1.0 0.0 0.0 1.0 0.0 0.0 1.0 0.0 0.0 1.0 0.0 0.0 1.0 0.0 0.0 1.0 0.0 0.0 1.0 0.0 0.0 1.0 0.0 0.0 -1.0 0.0 0.0 -1.0 0.0 0.0 -1.0 0.0 0.0 -1.0 0.0 0.0 -1.0 0.0 0.0 -1.0 0.0 0.0 -1.0 0.0 0.0 -1.0 0.0 0.0 -1.0 0.0 0.0 -1.0 0.0 0.0 -1.0 0.0 0.0 -1.0 0.7093818 0.7048244 0.0 0.7093818 0.7048244 0.0 0.7093818 0.7048244 0.0 0.7093818 0.7048244 0.0 0.7033557 -0.7108381 0.0 0.7033557 -0.7108381 0.0 0.7033557 -0.7108381 0.0 0.7033557 -0.7108381 0.0 0.7033557 -0.7108381 0.0 0.6904778 0.7233536 0.0 0.6904778 0.7233536 0.0 0.6904778 0.7233536 0.0 0.6904778 0.7233536 0.0 0.9940423 0.1089958 0.0 0.9940422 0.1089957 0.0 0.9940423 0.1089958 0.0 0.9940423 0.1089958 0.0 0.9940422 0.1089957 0.0 0.0 0.0 -1.0 0.0 0.0 -1.0 0.0 0.0 -1.0 0.0 0.0 -1.0 0.0 0.0 -1.0 0.0 0.0 -1.0 0.0 0.0 -1.0 0.0 0.0 -1.0 0.0 0.0 -1.0 0.0 0.0 -1.0 0.0 0.0 -1.0 0.0 0.0 -1.0 0.0 0.0 -1.0 0.0 0.0 -1.0 0.0 0.0 -1.0 0.0 0.0 -1.0 0.0 0.0 -1.0 0.9940383 0.1090308 0.0 0.9940383 0.1090308 0.0 0.9940383 0.1090308 0.0 0.9940383 0.1090308 0.0 -0.7042157 0.7099862 0.0 -0.7042157 0.7099862 0.0 -0.7042157 0.7099862 0.0 -0.7042157 0.7099862 0.0 -0.7042156 0.7099862 0.0 0.7035446 -0.7106511 0.0 0.7035446 -0.7106512 0.0 0.7035446 -0.7106511 0.0 0.7035446 -0.7106511 0.0 0.7035446 -0.7106512 0.0 -0.9941577 -0.1079374 0.0 -0.9941577 -0.1079374 0.0 -0.9941577 -0.1079374 0.0 -0.9941577 -0.1079374 0.0 -0.9941577 -0.1079374 0.0 0.0 0.0 1.0 0.0 0.0 1.0 0.0 0.0 1.0 0.0 0.0 1.0 0.0 0.0 1.0 0.0 0.0 1.0 0.0 0.0 -1.0 0.0 0.0 -1.0 0.0 0.0 -1.0 0.0 0.0 -1.0 0.0 0.0 -1.0 -0.9941566 -0.1079474 0.0 -0.9941566 -0.1079474 0.0 -0.9941566 -0.1079474 0.0 -0.9941566 -0.1079474 0.0 -0.7071063 -0.7071072 0.0 -0.7071063 -0.7071072 0.0 -0.7071063 -0.7071072 0.0 -0.7071063 -0.7071072 0.0 -0.7071063 -0.7071072 0.0 0.994402 0.1056631 0.0 0.994402 0.1056631 0.0 0.994402 0.1056631 0.0 0.994402 0.1056631 0.0 0.7092997 0.704907 0.0 0.7092997 0.704907 0.0 0.7092997 0.704907 0.0 0.7092997 0.704907 0.0 0.71038 0.7038184 0.0 0.71038 0.7038184 0.0 0.71038 0.7038184 0.0 0.71038 0.7038184 0.0 0.7103799 0.7038184 0.0 0.7106512 0.7035445 0.0 0.7106512 0.7035445 0.0 0.7106512 0.7035445 0.0 0.7106512 0.7035445 0.0 0.7106512 0.7035445 0.0 -0.9945069 -0.1046715 0.0 -0.9945069 -0.1046715 0.0 -0.9945069 -0.1046715 0.0 -0.9945069 -0.1046715 0.0 0.7106668 0.7035288 0.0 0.7106668 0.7035288 0.0 0.7106668 0.7035288 0.0 0.7106668 0.7035288 0.0 -0.7013913 0.7127764 0.0 -0.7013913 0.7127764 0.0 -0.7013913 0.7127764 0.0 -0.7013913 0.7127764 0.0 -0.7071068 -0.7071067 0.0 -0.7071068 -0.7071067 0.0 -0.7071068 -0.7071067 0.0 -0.7071068 -0.7071067 0.0 -0.7021978 0.711982 0.0 -0.7021978 0.711982 0.0 -0.7021978 0.711982 0.0 -0.7021978 0.711982 0.0 -0.7042912 0.7099112 0.0 -0.7042912 0.7099112 0.0 -0.7042912 0.7099112 0.0 -0.7042912 0.7099112 0.0 -0.7042912 0.7099112 0.0 -0.7135639 -0.7005901 0.0 -0.7135639 -0.7005901 0.0 -0.7135639 -0.7005901 0.0 -0.7135639 -0.7005901 0.0 -0.7106872 -0.7035081 0.0 -0.7106872 -0.7035082 0.0 -0.7106872 -0.7035081 0.0 -0.7106872 -0.7035081 0.0 -0.7106872 -0.7035082 0.0 -0.9945054 -0.1046854 0.0 -0.9945054 -0.1046854 0.0 -0.9945054 -0.1046854 0.0 -0.9945054 -0.1046854 0.0 -0.9945054 -0.1046854 0.0 0.7106644 0.7035311 0.0 0.7106644 0.7035311 0.0 0.7106644 0.7035311 0.0 0.7106644 0.7035311 0.0 -0.7106276 -0.7035684 0.0 -0.7106276 -0.7035684 0.0 -0.7106276 -0.7035684 0.0 -0.7106276 -0.7035684 0.0 0.7033772 -0.7108169 0.0 0.7033772 -0.7108169 0.0 0.7033772 -0.7108169 0.0 0.7033772 -0.7108169 0.0 0.7106668 0.7035288 0.0 0.7106668 0.7035288 0.0 0.7106668 0.7035288 0.0 0.7106668 0.7035288 0.0 0.7044104 -0.7097929 0.0 0.7044104 -0.7097929 0.0 0.7044104 -0.7097929 0.0 0.7044104 -0.7097929 0.0 0.7071068 -0.7071068 0.0 0.7071068 -0.7071068 0.0 0.7071068 -0.7071068 0.0 0.7071068 -0.7071068 0.0 0.7071068 -0.7071068 0.0 0.8841348 -0.4672319 0.0 0.8841348 -0.4672319 0.0 0.8841348 -0.4672319 0.0 0.8841348 -0.4672319 0.0 0.0 0.0 -1.0 0.0 0.0 -1.0 0.0 0.0 -1.0 0.0 0.0 -1.0 0.0 0.0 -1.0 0.0 0.0 -1.0 0.0 0.0 1.0 0.0 0.0 1.0 0.0 0.0 1.0 0.0 0.0 1.0 0.0 0.0 1.0 0.0 0.0 1.0 0.0 0.0 1.0 0.0 0.0 1.0 0.70059 -0.7135641 0.0 0.70059 -0.7135641 0.0 0.70059 -0.7135641 0.0 0.70059 -0.7135641 0.0 0.0 0.0 -1.0 0.0 0.0 -1.0 0.0 0.0 -1.0 0.0 0.0 -1.0 0.9944028 0.1056553 0.0 0.9944028 0.1056553 0.0 0.9944028 0.1056553 0.0 0.9944028 0.1056553 0.0 0.9944028 0.1056553 0.0 0.9940384 0.1090309 0.0 0.9940384 0.1090309 0.0 0.9940384 0.1090309 0.0 0.9940384 0.1090309 0.0</float_array>
                    <technique_common>
                        <accessor count="508" source="#geometry0-normal-array" stride="3">
                            <param name="X" type="float"/>
                            <param name="Y" type="float"/>
                            <param name="Z" type="float"/>
                        </accessor>
                    </technique_common>
                </source>
                <vertices id="geometry0-vertex">
                    <input semantic="POSITION" source="#geometry0-position"/>
                </vertices>
                <triangles count="241" material="default_ai_0.2_sh_0.2_tr_0.0_dc_r_0.8_g_0.8_b_0.8_sc_r_1.0_g_1.0_b_1.0_ec_r_0.0_g_0.0_b_0_tri">
                    <input offset="0" semantic="VERTEX" source="#geometry0-vertex"/>
                    <input offset="1" semantic="NORMAL" source="#geometry0-normal"/>
                    <p>41 0 40 1 25 2 41 0 25 2 24 3 81 4 80 5 92 6 81 4 92 6 91 7 24 8 96 9 94 10 24 8 94 10 25 11 4 12 5 13 9 14 4 12 9 14 6 15 43 20 42 21 30 22 43 20 30 22 29 23 78 24 79 25 77 26 78 24 77 26 76 27 101 28 105 29 108 30 101 28 108 30 45 31 101 28 45 31 44 32 101 28 44 32 102 33 58 34 57 35 61 36 58 34 61 36 60 37 21 38 41 39 40 40 21 38 40 40 20 41 0 42 1 43 2 44 0 42 2 44 3 45 104 46 106 47 108 48 104 46 108 48 105 49 4 50 0 51 3 52 4 50 3 52 5 53 79 54 72 55 118 56 79 54 118 56 117 57 8 58 9 59 6 60 8 58 6 60 98 61 8 58 98 61 95 62 45 68 44 69 47 70 45 68 47 70 46 71 102 72 44 73 47 74 102 72 47 74 109 75 99 76 102 72 109 75 99 76 109 75 110 77 48 78 49 79 50 80 48 78 50 80 51 81 30 82 42 83 43 84 30 82 43 84 29 85 1 92 7 93 8 94 1 92 8 94 2 95 25 96 26 97 22 98 24 99 25 96 22 98 24 99 22 98 23 100 49 101 52 102 53 103 49 101 53 103 50 104 42 105 30 106 44 107 42 105 44 107 45 108 7 109 6 110 9 111 7 109 9 111 8 112 30 113 31 114 27 115 29 116 30 113 27 115 29 116 27 115 28 117 56 118 57 119 58 120 56 118 58 120 54 121 56 118 54 121 55 122 6 123 4 124 97 125 6 123 97 125 98 126 61 140 53 141 52 142 60 143 61 140 52 142 60 143 52 142 59 144 46 145 43 146 42 147 46 145 42 147 45 148 47 149 46 150 107 151 47 149 107 151 109 152 5 153 3 154 2 155 5 153 2 155 8 156 5 153 8 156 9 157 69 158 65 159 66 160 69 158 66 160 71 161 29 162 47 163 44 164 29 162 44 164 30 165 64 166 65 167 66 168 64 166 66 168 62 169 64 166 62 169 63 170 102 171 101 172 100 173 102 171 100 173 99 174 83 175 82 176 81 177 83 175 81 177 80 178 61 179 57 180 58 181 61 179 58 181 60 182 100 183 99 184 110 185 100 183 110 185 103 186 67 187 48 188 51 189 67 187 51 189 68 190 35 191 34 192 37 193 35 191 37 193 38 194 19 199 12 200 11 201 19 199 11 201 16 202 18 203 17 204 20 205 18 203 20 205 21 206 65 207 64 208 69 209 69 209 64 208 56 210 56 210 64 208 57 211 57 211 64 208 61 212 61 212 64 208 53 213 53 213 64 208 50 214 50 214 64 208 51 215 51 215 64 208 68 216 33 217 27 218 31 219 33 217 31 219 39 220 71 221 100 222 101 223 71 221 101 223 69 224 63 225 67 226 68 227 63 225 68 227 64 228 79 229 77 230 75 231 79 229 75 231 72 232 38 233 40 234 41 235 38 233 41 235 36 236 38 233 36 236 35 237 101 248 102 249 65 250 101 248 65 250 69 251 11 252 12 253 113 254 11 252 113 254 124 255 99 256 66 257 65 258 99 256 65 258 102 259 25 264 40 265 41 266 25 264 41 266 24 267 20 268 17 269 18 270 20 268 18 270 21 271 10 272 11 273 12 274 10 272 12 274 13 275 6 276 9 277 5 278 6 276 5 278 4 279 60 280 81 281 82 282 60 280 82 282 61 283 80 289 58 290 57 291 80 289 57 291 83 292 111 293 112 294 113 295 111 293 113 295 114 296 57 305 61 306 82 307 57 305 82 307 83 308 8 309 17 310 9 311 9 311 17 310 5 312 5 312 17 310 94 313 17 310 20 314 94 313 94 313 20 314 25 315 25 315 20 314 40 316 34 317 33 318 39 319 34 317 39 319 37 320 121 321 12 322 11 323 121 321 11 323 120 324 121 321 120 324 119 325 115 326 111 327 114 328 115 326 114 328 122 329 69 330 56 331 55 332 71 333 69 330 55 332 71 333 55 332 70 334 42 335 26 336 25 337 42 335 25 337 40 338 42 335 40 338 38 339 42 335 38 339 37 340 42 335 37 340 39 341 42 335 39 341 31 342 42 335 31 342 30 343 114 344 113 345 12 346 114 344 12 346 121 347 114 344 121 347 75 348 114 344 75 348 77 349 114 344 77 349 123 350 114 344 123 350 122 351 66 352 71 353 70 354 66 352 70 354 62 355 123 356 77 357 79 358 123 356 79 358 117 359 123 356 117 359 116 360 13 361 17 362 18 363 13 361 18 363 14 364 13 361 14 364 10 365 26 366 42 367 43 368 26 366 43 368 32 369 26 366 32 369 22 370 20 377 17 378 13 379 20 377 13 379 12 380 20 377 12 380 19 381 43 382 29 383 28 384 43 382 28 384 32 385 83 386 86 387 85 388 80 389 83 386 85 388 80 389 85 388 92 390 47 391 44 392 45 393 47 391 45 393 46 394 58 395 60 396 59 397 58 395 59 397 54 398 20 399 19 400 16 401 21 402 20 399 16 401 21 402 16 401 15 403 87 404 74 405 73 406 87 404 73 406 89 407 87 404 89 407 84 408 100 409 101 410 102 411 100 409 102 411 99 412 73 413 74 414 88 415 73 413 88 415 93 416 41 417 24 418 23 419 41 417 23 419 36 420 81 421 82 422 83 423 81 421 83 423 80 424 116 425 115 426 122 427 116 425 122 427 123 428 88 429 82 430 81 431 88 429 81 431 91 432 88 429 91 432 90 433 95 434 18 435 17 436 95 434 17 436 8 437 75 438 121 439 119 440 72 441 75 438 119 440 72 441 119 440 118 442 105 443 101 444 100 445 105 443 100 445 103 446 105 443 103 446 104 447 75 448 77 449 79 450 75 448 79 450 72 451 76 452 74 453 73 454 76 452 73 454 78 455 11 456 124 457 112 458 11 456 112 458 120 459 73 460 93 461 90 462 73 460 90 462 89 463 84 464 85 465 86 466 84 464 86 466 87 467 5 468 94 469 96 470 4 471 5 468 96 470 4 471 96 470 97 472 18 473 21 474 15 475 18 473 15 475 14 476 74 477 87 478 86 479 74 477 86 479 83 480 74 477 83 480 82 481 74 477 82 481 88 482 72 491 73 492 74 493 72 491 74 493 75 494 75 495 74 496 76 497 75 495 76 497 77 498 45 499 108 500 106 501 46 502 45 499 106 501 46 502 106 501 107 503 66 504 65 505 69 506 66 504 69 506 71 507</p>
                </triangles>
                <triangles count="49" material="default_ai_0.2_sh_0.2_tr_0.0_dc_r_1.0_g_0.2_b_0.2_sc_r_1.0_g_1.0_b_1.0_ec_r_0.0_g_0.0_b_0_tri">
                    <input offset="0" semantic="VERTEX" source="#geometry0-vertex"/>
                    <input offset="1" semantic="NORMAL" source="#geometry0-normal"/>
                    <p>79 16 78 17 73 18 79 16 73 18 72 19 7 63 1 64 0 65 7 63 0 65 4 66 7 63 4 66 6 67 107 86 106 87 104 88 107 86 104 88 103 89 107 86 103 89 110 90 107 86 110 90 109 91 36 127 23 128 22 129 36 127 22 129 32 130 36 127 32 130 28 131 36 127 28 131 27 132 35 133 36 127 27 132 34 134 35 133 27 132 34 134 27 132 33 135 46 136 47 137 29 138 46 136 29 138 43 139 71 195 66 196 99 197 71 195 99 197 100 198 63 238 62 239 70 240 63 238 70 240 55 241 63 238 55 241 54 242 63 238 54 242 59 243 63 238 59 243 52 244 63 238 52 244 49 245 63 238 49 245 48 246 63 238 48 246 67 247 80 260 81 261 60 262 80 260 60 262 58 263 11 284 10 285 14 286 11 284 14 286 15 287 11 284 15 287 16 288 119 297 120 298 112 299 119 297 112 299 111 300 119 297 111 300 115 301 119 297 115 301 116 302 118 303 119 297 116 302 118 303 116 302 117 304 92 371 85 372 84 373 92 371 84 373 89 374 92 371 89 374 90 375 92 371 90 375 91 376 18 483 95 484 98 485 18 483 98 485 97 486 18 483 97 486 96 487 21 488 18 483 96 487 21 488 96 487 24 489 21 488 24 489 41 490</p>
                </triangles>
            </mesh>
        </geometry>
    </library_geometries>
    <library_visual_scenes>
        <visual_scene id="Building_DEBW_5221000QmHl">
            <node>
                <instance_geometry url="#geometry0">
                    <bind_material>
                        <technique_common>
                            <instance_material symbol="default_ai_0.2_sh_0.2_tr_0.0_dc_r_0.8_g_0.8_b_0.8_sc_r_1.0_g_1.0_b_1.0_ec_r_0.0_g_0.0_b_0_tri" target="#default_ai_0.2_sh_0.2_tr_0.0_dc_r_0.8_g_0.8_b_0.8_sc_r_1.0_g_1.0_b_1.0_ec_r_0.0_g_0.0_b_0_mat"/>
                            <instance_material symbol="default_ai_0.2_sh_0.2_tr_0.0_dc_r_1.0_g_0.2_b_0.2_sc_r_1.0_g_1.0_b_1.0_ec_r_0.0_g_0.0_b_0_tri" target="#default_ai_0.2_sh_0.2_tr_0.0_dc_r_1.0_g_0.2_b_0.2_sc_r_1.0_g_1.0_b_1.0_ec_r_0.0_g_0.0_b_0_mat"/>
                        </technique_common>
                    </bind_material>
                </instance_geometry>
            </node>
        </visual_scene>
    </library_visual_scenes>
    <scene>
        <instance_visual_scene url="#Building_DEBW_5221000QmHl"/>
    </scene>
</COLLADA>
