<?xml version="1.0" encoding="UTF-8" standalone="yes"?>
<COLLADA xmlns="http://www.collada.org/2005/11/COLLADASchema" version="1.4.1">
    <asset>
        <contributor>
            <authoring_tool>3D City Database Importer/Exporter, version 5.5.3; Chair of Geoinformatics, Technical University of Munich</authoring_tool>
        </contributor>
        <created>2026-05-06T15:12:19.459</created>
        <modified>2026-05-06T15:12:19.459</modified>
        <unit meter="1.0" name="meters"/>
        <up_axis>Z_UP</up_axis>
    </asset>
    <library_materials>
        <material id="default_ai_0.2_sh_0.2_tr_0.0_dc_r_0.8_g_0.8_b_0.8_sc_r_1.0_g_1.0_b_1.0_ec_r_0.0_g_0.0_b_0_mat">
            <instance_effect url="#default_ai_0.2_sh_0.2_tr_0.0_dc_r_0.8_g_0.8_b_0.8_sc_r_1.0_g_1.0_b_1.0_ec_r_0.0_g_0.0_b_0_eff"/>
        </material>
        <material id="default_ai_0.2_sh_0.2_tr_0.0_dc_r_1.0_g_0.2_b_0.2_sc_r_1.0_g_1.0_b_1.0_ec_r_0.0_g_0.0_b_0_mat">
            <instance_effect url="#default_ai_0.2_sh_0.2_tr_0.0_dc_r_1.0_g_0.2_b_0.2_sc_r_1.0_g_1.0_b_1.0_ec_r_0.0_g_0.0_b_0_eff"/>
        </material>
    </library_materials>
    <library_effects>
        <effect id="default_ai_0.2_sh_0.2_tr_0.0_dc_r_0.8_g_0.8_b_0.8_sc_r_1.0_g_1.0_b_1.0_ec_r_0.0_g_0.0_b_0_eff">
            <profile_COMMON>
                <technique sid="COMMON">
                    <lambert>
                        <emission>
                            <color>0.0 0.0 0.0 1.0</color>
                        </emission>
                        <diffuse>
                            <color>0.8 0.8 0.8 1.0</color>
                        </diffuse>
                        <reflective>
                            <color>1.0 1.0 1.0 1.0</color>
                        </reflective>
                        <reflectivity>
                            <float>0.2</float>
                        </reflectivity>
                        <transparent opaque="A_ONE">
                            <color>1.0 1.0 1.0 1.0</color>
                        </transparent>
                        <transparency>
                            <float>1.0</float>
                        </transparency>
                    </lambert>
                </technique>
                <extra>
                    <technique profile="GOOGLEEARTH">
                        <double_sided>0</double_sided>
                    </technique>
                </extra>
            </profile_COMMON>
        </effect>
        <effect id="default_ai_0.2_sh_0.2_tr_0.0_dc_r_1.0_g_0.2_b_0.2_sc_r_1.0_g_1.0_b_1.0_ec_r_0.0_g_0.0_b_0_eff">
            <profile_COMMON>
                <technique sid="COMMON">
                    <lambert>
                        <emission>
                            <color>0.0 0.0 0.0 1.0</color>
                        </emission>
                        <diffuse>
                            <color>1.0 0.2 0.2 1.0</color>
                        </diffuse>
                        <reflective>
                            <color>1.0 1.0 1.0 1.0</color>
                        </reflective>
                        <reflectivity>
                            <float>0.2</float>
                        </reflectivity>
                        <transparent opaque="A_ONE">
                            <color>1.0 1.0 1.0 1.0</color>
                        </transparent>
                        <transparency>
                            <float>1.0</float>
                        </transparency>
                    </lambert>
                </technique>
                <extra>
                    <technique profile="GOOGLEEARTH">
                        <double_sided>0</double_sided>
                    </technique>
                </extra>
            </profile_COMMON>
        </effect>
    </library_effects>
    <library_geometries>
        <geometry id="geometry0">
            <mesh>
                <source id="geometry0-position">
                    <float_array id="geometry0-position-array" count="48">4.649 -10.502 8.703 4.942 -6.172 8.703 -0.16 -2.268 6.996 -0.27 -3.83 6.995 -3.65 -3.65 5.916 -4.11 -9.91 5.904 30.48 -2.06 3.527 0.0 0.0 5.664 30.478 -2.06 3.528 0.0 0.0 0.0 -0.27 -3.83 0.0 29.8 -12.2 3.526 -3.65 -3.65 0.0 -4.11 -9.91 0.0 30.48 -2.06 0.0 29.8 -12.2 0.0</float_array>
                    <technique_common>
                        <accessor count="16" source="#geometry0-position-array" stride="3">
                            <param name="X" type="float"/>
                            <param name="Y" type="float"/>
                            <param name="Z" type="float"/>
                        </accessor>
                    </technique_common>
                </source>
                <source id="geometry0-normal">
                    <float_array id="geometry0-normal-array" count="168">-0.9975295 0.0702487 -2.107E-4 -0.9975295 0.0702487 -2.107E-4 -0.9975295 0.0702487 -2.107E-4 -0.0673882 -0.9977268 -1.432E-4 -0.0673882 -0.9977268 -1.432E-4 -0.0673882 -0.9977268 -1.432E-4 -0.3030557 0.0204447 0.9527535 -0.3030753 0.0204443 0.9527473 -0.3030524 0.0204748 0.9527539 -0.3030049 0.0205375 0.9527677 -0.3029925 0.0205536 0.9527713 -0.3029225 0.0207227 0.9527898 0.0774136 0.984932 0.1546481 0.0774136 0.984932 0.1546481 0.0774136 0.984932 0.1546481 -0.9973111 0.0732848 0.0 -0.9973111 0.0732848 0.0 -0.9973111 0.0732848 0.0 -0.9973111 0.0732848 0.0 0.053179 0.998585 0.0 0.053179 0.998585 0.0 0.053179 0.998585 0.0 0.053179 0.998585 0.0 0.0 0.0 -1.0 0.0 0.0 -1.0 0.0 0.0 -1.0 0.0 0.0 -1.0 0.0 0.0 -1.0 0.0 0.0 -1.0 0.0939758 0.499337 0.8612963 0.0941137 0.4994171 0.8612347 0.0939758 0.499337 0.8612963 0.0938378 0.4992567 0.8613577 0.0674315 0.9977239 0.0 0.0674315 0.9977239 0.0 0.0674315 0.9977239 0.0 0.0674315 0.9977239 0.0 0.997759 -0.0669109 0.0 0.9977589 -0.0669109 0.0 0.997759 -0.0669109 0.0 0.997759 -0.0669109 0.0 -0.0673782 -0.9977275 0.0 -0.0673782 -0.9977275 0.0 -0.0673782 -0.9977275 0.0 -0.0673782 -0.9977275 0.0 -0.9975244 0.0703216 0.0 -0.9975244 0.0703216 0.0 -0.9975244 0.0703216 0.0 -0.9975244 0.0703216 0.0 0.2007147 -0.0135693 0.9795558 0.2007118 -0.0135816 0.9795562 0.2007147 -0.0135693 0.9795558 0.2007175 -0.013557 0.9795553 0.23158 -0.8556636 0.4628288 0.23158 -0.8556636 0.4628288 0.23158 -0.8556636 0.4628288</float_array>
                    <technique_common>
                        <accessor count="56" source="#geometry0-normal-array" stride="3">
                            <param name="X" type="float"/>
                            <param name="Y" type="float"/>
                            <param name="Z" type="float"/>
                        </accessor>
                    </technique_common>
                </source>
                <vertices id="geometry0-vertex">
                    <input semantic="POSITION" source="#geometry0-position"/>
                </vertices>
                <triangles count="19" material="default_ai_0.2_sh_0.2_tr_0.0_dc_r_0.8_g_0.8_b_0.8_sc_r_1.0_g_1.0_b_1.0_ec_r_0.0_g_0.0_b_0_tri">
                    <input offset="0" semantic="VERTEX" source="#geometry0-vertex"/>
                    <input offset="1" semantic="NORMAL" source="#geometry0-normal"/>
                    <p>7 0 3 1 2 2 5 3 11 4 0 5 6 12 7 13 8 14 5 15 4 16 12 17 5 15 12 17 13 18 4 19 3 20 10 21 4 19 10 21 12 22 10 23 9 24 14 25 10 23 14 25 15 26 10 23 15 26 13 27 10 23 13 27 12 28 7 33 6 34 14 35 7 33 14 35 9 36 6 37 11 38 15 39 6 37 15 39 14 40 11 41 5 42 13 43 11 41 13 43 15 44 3 45 7 46 9 47 3 45 9 47 10 48</p>
                </triangles>
                <triangles count="9" material="default_ai_0.2_sh_0.2_tr_0.0_dc_r_1.0_g_0.2_b_0.2_sc_r_1.0_g_1.0_b_1.0_ec_r_0.0_g_0.0_b_0_tri">
                    <input offset="0" semantic="VERTEX" source="#geometry0-vertex"/>
                    <input offset="1" semantic="NORMAL" source="#geometry0-normal"/>
                    <p>4 6 5 7 0 8 4 6 0 8 1 9 3 10 4 6 1 9 3 10 1 9 2 11 1 29 8 30 7 31 1 29 7 31 2 32 1 49 0 50 11 51 1 49 11 51 6 52 1 53 6 54 8 55</p>
                </triangles>
            </mesh>
        </geometry>
    </library_geometries>
    <library_visual_scenes>
        <visual_scene id="Building_DEBW_522JR00002E">
            <node>
                <instance_geometry url="#geometry0">
                    <bind_material>
                        <technique_common>
                            <instance_material symbol="default_ai_0.2_sh_0.2_tr_0.0_dc_r_0.8_g_0.8_b_0.8_sc_r_1.0_g_1.0_b_1.0_ec_r_0.0_g_0.0_b_0_tri" target="#default_ai_0.2_sh_0.2_tr_0.0_dc_r_0.8_g_0.8_b_0.8_sc_r_1.0_g_1.0_b_1.0_ec_r_0.0_g_0.0_b_0_mat"/>
                            <instance_material symbol="default_ai_0.2_sh_0.2_tr_0.0_dc_r_1.0_g_0.2_b_0.2_sc_r_1.0_g_1.0_b_1.0_ec_r_0.0_g_0.0_b_0_tri" target="#default_ai_0.2_sh_0.2_tr_0.0_dc_r_1.0_g_0.2_b_0.2_sc_r_1.0_g_1.0_b_1.0_ec_r_0.0_g_0.0_b_0_mat"/>
                        </technique_common>
                    </bind_material>
                </instance_geometry>
            </node>
        </visual_scene>
    </library_visual_scenes>
    <scene>
        <instance_visual_scene url="#Building_DEBW_522JR00002E"/>
    </scene>
</COLLADA>
