<?xml version="1.0" encoding="UTF-8" standalone="yes"?>
<COLLADA xmlns="http://www.collada.org/2005/11/COLLADASchema" version="1.4.1">
    <asset>
        <contributor>
            <authoring_tool>3D City Database Importer/Exporter, version 5.5.3; Chair of Geoinformatics, Technical University of Munich</authoring_tool>
        </contributor>
        <created>2026-05-06T15:12:10.547</created>
        <modified>2026-05-06T15:12:10.547</modified>
        <unit meter="1.0" name="meters"/>
        <up_axis>Z_UP</up_axis>
    </asset>
    <library_materials>
        <material id="default_ai_0.2_sh_0.2_tr_0.0_dc_r_0.8_g_0.8_b_0.8_sc_r_1.0_g_1.0_b_1.0_ec_r_0.0_g_0.0_b_0_mat">
            <instance_effect url="#default_ai_0.2_sh_0.2_tr_0.0_dc_r_0.8_g_0.8_b_0.8_sc_r_1.0_g_1.0_b_1.0_ec_r_0.0_g_0.0_b_0_eff"/>
        </material>
        <material id="default_ai_0.2_sh_0.2_tr_0.0_dc_r_1.0_g_0.2_b_0.2_sc_r_1.0_g_1.0_b_1.0_ec_r_0.0_g_0.0_b_0_mat">
            <instance_effect url="#default_ai_0.2_sh_0.2_tr_0.0_dc_r_1.0_g_0.2_b_0.2_sc_r_1.0_g_1.0_b_1.0_ec_r_0.0_g_0.0_b_0_eff"/>
        </material>
    </library_materials>
    <library_effects>
        <effect id="default_ai_0.2_sh_0.2_tr_0.0_dc_r_0.8_g_0.8_b_0.8_sc_r_1.0_g_1.0_b_1.0_ec_r_0.0_g_0.0_b_0_eff">
            <profile_COMMON>
                <technique sid="COMMON">
                    <lambert>
                        <emission>
                            <color>0.0 0.0 0.0 1.0</color>
                        </emission>
                        <diffuse>
                            <color>0.8 0.8 0.8 1.0</color>
                        </diffuse>
                        <reflective>
                            <color>1.0 1.0 1.0 1.0</color>
                        </reflective>
                        <reflectivity>
                            <float>0.2</float>
                        </reflectivity>
                        <transparent opaque="A_ONE">
                            <color>1.0 1.0 1.0 1.0</color>
                        </transparent>
                        <transparency>
                            <float>1.0</float>
                        </transparency>
                    </lambert>
                </technique>
                <extra>
                    <technique profile="GOOGLEEARTH">
                        <double_sided>0</double_sided>
                    </technique>
                </extra>
            </profile_COMMON>
        </effect>
        <effect id="default_ai_0.2_sh_0.2_tr_0.0_dc_r_1.0_g_0.2_b_0.2_sc_r_1.0_g_1.0_b_1.0_ec_r_0.0_g_0.0_b_0_eff">
            <profile_COMMON>
                <technique sid="COMMON">
                    <lambert>
                        <emission>
                            <color>0.0 0.0 0.0 1.0</color>
                        </emission>
                        <diffuse>
                            <color>1.0 0.2 0.2 1.0</color>
                        </diffuse>
                        <reflective>
                            <color>1.0 1.0 1.0 1.0</color>
                        </reflective>
                        <reflectivity>
                            <float>0.2</float>
                        </reflectivity>
                        <transparent opaque="A_ONE">
                            <color>1.0 1.0 1.0 1.0</color>
                        </transparent>
                        <transparency>
                            <float>1.0</float>
                        </transparency>
                    </lambert>
                </technique>
                <extra>
                    <technique profile="GOOGLEEARTH">
                        <double_sided>0</double_sided>
                    </technique>
                </extra>
            </profile_COMMON>
        </effect>
    </library_effects>
    <library_geometries>
        <geometry id="geometry0">
            <mesh>
                <source id="geometry0-position">
                    <float_array id="geometry0-position-array" count="48">-0.76 -1.36 6.367 0.0 0.0 7.282 0.0 0.0 0.0 -0.76 -1.36 0.0 -0.24 4.33 8.057 8.56 6.76 6.3 8.56 6.76 0.0 -0.24 4.33 0.0 0.89 0.25 8.053 0.89 0.25 0.0 0.49 -5.75 6.39 5.835 -4.262 11.016 3.18 5.274 11.016 0.49 -5.75 0.0 11.23 -2.76 6.284 11.23 -2.76 0.0</float_array>
                    <technique_common>
                        <accessor count="16" source="#geometry0-position-array" stride="3">
                            <param name="X" type="float"/>
                            <param name="Y" type="float"/>
                            <param name="Z" type="float"/>
                        </accessor>
                    </technique_common>
                </source>
                <source id="geometry0-normal">
                    <float_array id="geometry0-normal-array" count="156">0.2681989 -0.9633635 -8.3E-6 0.2681989 -0.9633635 -8.3E-6 0.2681989 -0.9633635 -8.3E-6 -0.2661747 0.9639248 0.0 -0.2661747 0.9639248 0.0 -0.2661747 0.9639248 0.0 -0.2661747 0.9639249 0.0 0.268199 -0.9633635 0.0 0.268199 -0.9633635 0.0 0.268199 -0.9633635 0.0 0.268199 -0.9633635 0.0 0.0 0.0 -1.0 0.0 0.0 -1.0 0.0 0.0 -1.0 0.0 0.0 -1.0 0.0 0.0 -1.0 0.0 0.0 -1.0 0.0 0.0 -1.0 0.6217627 0.1731037 0.7638365 0.6217707 0.1730993 0.763831 0.6217627 0.1731037 0.7638365 0.6217546 0.173108 0.763842 -0.8729435 0.4878213 0.0 -0.8729435 0.4878213 0.0 -0.8729435 0.4878213 0.0 -0.8729435 0.4878213 0.0 -0.2661557 0.96393 1.022E-4 -0.2661557 0.96393 1.022E-4 -0.2661557 0.96393 1.022E-4 0.9628484 0.2700425 0.0 0.9628484 0.2700425 0.0 0.9628484 0.2700425 0.0 0.9628484 0.2700424 0.0 -0.6169978 -0.1718884 0.7679635 -0.6170616 -0.1717921 0.767934 -0.6169716 -0.1717322 0.7680196 -0.6170242 -0.1717234 0.7679794 -0.6169299 -0.171712 0.7680576 -0.6169333 -0.1716926 0.7680592 -0.6170262 -0.1717916 0.7679625 -0.9617715 -0.2738529 0.0 -0.9617716 -0.273853 0.0 -0.9617715 -0.2738529 0.0 -0.9617716 -0.2738529 0.0 -0.9637207 -0.2669129 0.0 -0.9637207 -0.2669128 0.0 -0.9637207 -0.2669129 0.0 -0.9637207 -0.2669129 0.0 -0.2704323 0.962739 0.0 -0.2704323 0.962739 0.0 -0.2704323 0.962739 0.0 -0.2704323 0.962739 0.0</float_array>
                    <technique_common>
                        <accessor count="52" source="#geometry0-normal-array" stride="3">
                            <param name="X" type="float"/>
                            <param name="Y" type="float"/>
                            <param name="Z" type="float"/>
                        </accessor>
                    </technique_common>
                </source>
                <vertices id="geometry0-vertex">
                    <input semantic="POSITION" source="#geometry0-position"/>
                </vertices>
                <triangles count="21" material="default_ai_0.2_sh_0.2_tr_0.0_dc_r_0.8_g_0.8_b_0.8_sc_r_1.0_g_1.0_b_1.0_ec_r_0.0_g_0.0_b_0_tri">
                    <input offset="0" semantic="VERTEX" source="#geometry0-vertex"/>
                    <input offset="1" semantic="NORMAL" source="#geometry0-normal"/>
                    <p>10 0 14 1 11 2 4 3 5 4 6 5 4 3 6 5 7 6 14 7 10 8 13 9 14 7 13 9 15 10 6 11 15 12 13 13 6 11 13 13 3 14 9 15 7 16 6 11 9 15 6 11 3 14 9 15 3 14 2 17 0 22 1 23 2 24 0 22 2 24 3 25 5 26 4 27 12 28 5 29 14 30 15 31 5 29 15 31 6 32 10 40 0 41 3 42 10 40 3 42 13 43 8 44 4 45 7 46 8 44 7 46 9 47 1 48 8 49 9 50 1 48 9 50 2 51</p>
                </triangles>
                <triangles count="7" material="default_ai_0.2_sh_0.2_tr_0.0_dc_r_1.0_g_0.2_b_0.2_sc_r_1.0_g_1.0_b_1.0_ec_r_0.0_g_0.0_b_0_tri">
                    <input offset="0" semantic="VERTEX" source="#geometry0-vertex"/>
                    <input offset="1" semantic="NORMAL" source="#geometry0-normal"/>
                    <p>11 18 14 19 5 20 11 18 5 20 12 21 1 33 0 34 8 35 0 34 10 36 8 35 10 36 11 37 8 35 8 35 11 37 4 38 4 38 11 37 12 39</p>
                </triangles>
            </mesh>
        </geometry>
    </library_geometries>
    <library_visual_scenes>
        <visual_scene id="Building_DEBW_5221000Qnkt">
            <node>
                <instance_geometry url="#geometry0">
                    <bind_material>
                        <technique_common>
                            <instance_material symbol="default_ai_0.2_sh_0.2_tr_0.0_dc_r_0.8_g_0.8_b_0.8_sc_r_1.0_g_1.0_b_1.0_ec_r_0.0_g_0.0_b_0_tri" target="#default_ai_0.2_sh_0.2_tr_0.0_dc_r_0.8_g_0.8_b_0.8_sc_r_1.0_g_1.0_b_1.0_ec_r_0.0_g_0.0_b_0_mat"/>
                            <instance_material symbol="default_ai_0.2_sh_0.2_tr_0.0_dc_r_1.0_g_0.2_b_0.2_sc_r_1.0_g_1.0_b_1.0_ec_r_0.0_g_0.0_b_0_tri" target="#default_ai_0.2_sh_0.2_tr_0.0_dc_r_1.0_g_0.2_b_0.2_sc_r_1.0_g_1.0_b_1.0_ec_r_0.0_g_0.0_b_0_mat"/>
                        </technique_common>
                    </bind_material>
                </instance_geometry>
            </node>
        </visual_scene>
    </library_visual_scenes>
    <scene>
        <instance_visual_scene url="#Building_DEBW_5221000Qnkt"/>
    </scene>
</COLLADA>
