<?xml version="1.0" encoding="UTF-8" standalone="yes"?>
<COLLADA xmlns="http://www.collada.org/2005/11/COLLADASchema" version="1.4.1">
    <asset>
        <contributor>
            <authoring_tool>3D City Database Importer/Exporter, version 5.5.3; Chair of Geoinformatics, Technical University of Munich</authoring_tool>
        </contributor>
        <created>2026-05-06T15:12:03.515</created>
        <modified>2026-05-06T15:12:03.515</modified>
        <unit meter="1.0" name="meters"/>
        <up_axis>Z_UP</up_axis>
    </asset>
    <library_materials>
        <material id="default_ai_0.2_sh_0.2_tr_0.0_dc_r_0.8_g_0.8_b_0.8_sc_r_1.0_g_1.0_b_1.0_ec_r_0.0_g_0.0_b_0_mat">
            <instance_effect url="#default_ai_0.2_sh_0.2_tr_0.0_dc_r_0.8_g_0.8_b_0.8_sc_r_1.0_g_1.0_b_1.0_ec_r_0.0_g_0.0_b_0_eff"/>
        </material>
        <material id="default_ai_0.2_sh_0.2_tr_0.0_dc_r_1.0_g_0.2_b_0.2_sc_r_1.0_g_1.0_b_1.0_ec_r_0.0_g_0.0_b_0_mat">
            <instance_effect url="#default_ai_0.2_sh_0.2_tr_0.0_dc_r_1.0_g_0.2_b_0.2_sc_r_1.0_g_1.0_b_1.0_ec_r_0.0_g_0.0_b_0_eff"/>
        </material>
    </library_materials>
    <library_effects>
        <effect id="default_ai_0.2_sh_0.2_tr_0.0_dc_r_0.8_g_0.8_b_0.8_sc_r_1.0_g_1.0_b_1.0_ec_r_0.0_g_0.0_b_0_eff">
            <profile_COMMON>
                <technique sid="COMMON">
                    <lambert>
                        <emission>
                            <color>0.0 0.0 0.0 1.0</color>
                        </emission>
                        <diffuse>
                            <color>0.8 0.8 0.8 1.0</color>
                        </diffuse>
                        <reflective>
                            <color>1.0 1.0 1.0 1.0</color>
                        </reflective>
                        <reflectivity>
                            <float>0.2</float>
                        </reflectivity>
                        <transparent opaque="A_ONE">
                            <color>1.0 1.0 1.0 1.0</color>
                        </transparent>
                        <transparency>
                            <float>1.0</float>
                        </transparency>
                    </lambert>
                </technique>
                <extra>
                    <technique profile="GOOGLEEARTH">
                        <double_sided>0</double_sided>
                    </technique>
                </extra>
            </profile_COMMON>
        </effect>
        <effect id="default_ai_0.2_sh_0.2_tr_0.0_dc_r_1.0_g_0.2_b_0.2_sc_r_1.0_g_1.0_b_1.0_ec_r_0.0_g_0.0_b_0_eff">
            <profile_COMMON>
                <technique sid="COMMON">
                    <lambert>
                        <emission>
                            <color>0.0 0.0 0.0 1.0</color>
                        </emission>
                        <diffuse>
                            <color>1.0 0.2 0.2 1.0</color>
                        </diffuse>
                        <reflective>
                            <color>1.0 1.0 1.0 1.0</color>
                        </reflective>
                        <reflectivity>
                            <float>0.2</float>
                        </reflectivity>
                        <transparent opaque="A_ONE">
                            <color>1.0 1.0 1.0 1.0</color>
                        </transparent>
                        <transparency>
                            <float>1.0</float>
                        </transparency>
                    </lambert>
                </technique>
                <extra>
                    <technique profile="GOOGLEEARTH">
                        <double_sided>0</double_sided>
                    </technique>
                </extra>
            </profile_COMMON>
        </effect>
    </library_effects>
    <library_geometries>
        <geometry id="geometry0">
            <mesh>
                <source id="geometry0-position">
                    <float_array id="geometry0-position-array" count="60">1.36 -2.74 2.747 1.7 -2.53 2.746 0.0 0.0 2.966 -2.24 -1.39 2.968 -2.06 -1.66 2.944 -4.88 -3.59 2.935 -3.39 -5.54 2.759 -3.81 -5.81 2.759 -3.72 -5.95 2.747 -3.02 -5.51 2.747 0.0 0.0 0.0 -2.24 -1.39 0.0 -4.88 -3.59 0.0 -3.39 -5.54 0.0 -3.81 -5.81 0.0 -3.72 -5.95 0.0 -2.06 -1.66 0.0 -3.02 -5.51 0.0 1.7 -2.53 0.0 1.36 -2.74 0.0</float_array>
                    <technique_common>
                        <accessor count="20" source="#geometry0-position-array" stride="3">
                            <param name="X" type="float"/>
                            <param name="Y" type="float"/>
                            <param name="Z" type="float"/>
                        </accessor>
                    </technique_common>
                </source>
                <source id="geometry0-normal">
                    <float_array id="geometry0-normal-array" count="180">-0.8411785 -0.5407575 0.0 -0.8411785 -0.5407576 0.0 -0.8411785 -0.5407575 0.0 -0.8411785 -0.5407575 0.0 0.5254928 -0.850798 0.0 0.5254928 -0.850798 0.0 0.5254928 -0.850798 0.0 0.5254929 -0.850798 0.0 0.0 0.0 -1.0 0.0 0.0 -1.0 0.0 0.0 -1.0 0.0 0.0 -1.0 0.0 0.0 -1.0 0.0 0.0 -1.0 0.0 0.0 -1.0 0.0 0.0 -1.0 0.0 0.0 -1.0 0.0 0.0 -1.0 0.0399305 -0.0599002 0.9974055 0.0389955 -0.0608521 0.9973847 0.0391513 -0.0602875 0.9974129 0.0378538 -0.0604788 0.9974515 0.0395409 -0.0622858 0.9972748 0.0386528 -0.0611385 0.9973806 0.0378068 -0.0610386 0.9974191 0.0377894 -0.0603609 0.9974611 0.0380168 -0.0597938 0.9974866 0.0388885 -0.0604933 0.9974108 0.8300259 0.5577249 0.0 0.8300259 0.5577249 0.0 0.8300259 0.5577249 0.0 0.8300259 0.5577249 0.0 -0.5647888 0.8252355 0.0 -0.5647888 0.8252355 0.0 -0.5647888 0.8252355 0.0 -0.5647888 0.8252355 0.0 -0.5272684 0.8496988 0.0 -0.5272685 0.8496988 0.0 -0.5272684 0.8496988 0.0 -0.5272684 0.8496988 0.0 -0.8320503 -0.5547004 0.0 -0.8320503 -0.5547004 0.0 -0.8320503 -0.5547004 0.0 -0.8320503 -0.5547004 0.0 -0.5407577 0.8411784 0.0 -0.5407577 0.8411784 0.0 -0.5407577 0.8411784 0.0 -0.5407577 0.8411784 0.0 -0.7945891 -0.6071475 0.0 -0.7945891 -0.6071476 0.0 -0.7945891 -0.6071475 0.0 -0.7945891 -0.6071475 0.0 0.5345011 -0.8451678 0.0 0.5345011 -0.8451678 0.0 0.5345011 -0.8451678 0.0 0.5345011 -0.8451678 0.0 0.5321711 -0.8466368 0.0 0.5321711 -0.8466368 0.0 0.5321711 -0.8466368 0.0 0.5321711 -0.8466368 0.0</float_array>
                    <technique_common>
                        <accessor count="60" source="#geometry0-normal-array" stride="3">
                            <param name="X" type="float"/>
                            <param name="Y" type="float"/>
                            <param name="Z" type="float"/>
                        </accessor>
                    </technique_common>
                </source>
                <vertices id="geometry0-vertex">
                    <input semantic="POSITION" source="#geometry0-position"/>
                </vertices>
                <triangles count="28" material="default_ai_0.2_sh_0.2_tr_0.0_dc_r_0.8_g_0.8_b_0.8_sc_r_1.0_g_1.0_b_1.0_ec_r_0.0_g_0.0_b_0_tri">
                    <input offset="0" semantic="VERTEX" source="#geometry0-vertex"/>
                    <input offset="1" semantic="NORMAL" source="#geometry0-normal"/>
                    <p>8 0 7 1 14 2 8 0 14 2 15 3 1 4 0 5 19 6 1 4 19 6 18 7 10 8 18 9 19 10 10 8 19 10 17 11 16 12 11 13 10 8 16 12 10 8 17 11 12 14 16 12 17 11 13 15 12 14 17 11 13 15 17 11 15 16 13 15 15 16 14 17 2 28 1 29 18 30 2 28 18 30 10 31 5 32 4 33 16 34 5 32 16 34 12 35 3 36 2 37 10 38 3 36 10 38 11 39 4 40 3 41 11 42 4 40 11 42 16 43 7 44 6 45 13 46 7 44 13 46 14 47 6 48 5 49 12 50 6 48 12 50 13 51 0 52 9 53 17 54 0 52 17 54 19 55 9 56 8 57 15 58 9 56 15 58 17 59</p>
                </triangles>
                <triangles count="8" material="default_ai_0.2_sh_0.2_tr_0.0_dc_r_1.0_g_0.2_b_0.2_sc_r_1.0_g_1.0_b_1.0_ec_r_0.0_g_0.0_b_0_tri">
                    <input offset="0" semantic="VERTEX" source="#geometry0-vertex"/>
                    <input offset="1" semantic="NORMAL" source="#geometry0-normal"/>
                    <p>1 18 2 19 0 20 0 20 2 19 9 21 3 22 4 23 2 19 2 19 4 23 9 21 4 23 5 24 9 21 5 24 6 25 9 21 9 21 6 25 8 26 8 26 6 25 7 27</p>
                </triangles>
            </mesh>
        </geometry>
    </library_geometries>
    <library_visual_scenes>
        <visual_scene id="Building_DEBW_5221000Qw8E">
            <node>
                <instance_geometry url="#geometry0">
                    <bind_material>
                        <technique_common>
                            <instance_material symbol="default_ai_0.2_sh_0.2_tr_0.0_dc_r_0.8_g_0.8_b_0.8_sc_r_1.0_g_1.0_b_1.0_ec_r_0.0_g_0.0_b_0_tri" target="#default_ai_0.2_sh_0.2_tr_0.0_dc_r_0.8_g_0.8_b_0.8_sc_r_1.0_g_1.0_b_1.0_ec_r_0.0_g_0.0_b_0_mat"/>
                            <instance_material symbol="default_ai_0.2_sh_0.2_tr_0.0_dc_r_1.0_g_0.2_b_0.2_sc_r_1.0_g_1.0_b_1.0_ec_r_0.0_g_0.0_b_0_tri" target="#default_ai_0.2_sh_0.2_tr_0.0_dc_r_1.0_g_0.2_b_0.2_sc_r_1.0_g_1.0_b_1.0_ec_r_0.0_g_0.0_b_0_mat"/>
                        </technique_common>
                    </bind_material>
                </instance_geometry>
            </node>
        </visual_scene>
    </library_visual_scenes>
    <scene>
        <instance_visual_scene url="#Building_DEBW_5221000Qw8E"/>
    </scene>
</COLLADA>
