<?xml version="1.0" encoding="UTF-8" standalone="yes"?>
<COLLADA xmlns="http://www.collada.org/2005/11/COLLADASchema" version="1.4.1">
    <asset>
        <contributor>
            <authoring_tool>3D City Database Importer/Exporter, version 5.5.3; Chair of Geoinformatics, Technical University of Munich</authoring_tool>
        </contributor>
        <created>2026-05-06T15:12:08.659</created>
        <modified>2026-05-06T15:12:08.659</modified>
        <unit meter="1.0" name="meters"/>
        <up_axis>Z_UP</up_axis>
    </asset>
    <library_materials>
        <material id="default_ai_0.2_sh_0.2_tr_0.0_dc_r_0.8_g_0.8_b_0.8_sc_r_1.0_g_1.0_b_1.0_ec_r_0.0_g_0.0_b_0_mat">
            <instance_effect url="#default_ai_0.2_sh_0.2_tr_0.0_dc_r_0.8_g_0.8_b_0.8_sc_r_1.0_g_1.0_b_1.0_ec_r_0.0_g_0.0_b_0_eff"/>
        </material>
        <material id="default_ai_0.2_sh_0.2_tr_0.0_dc_r_1.0_g_0.2_b_0.2_sc_r_1.0_g_1.0_b_1.0_ec_r_0.0_g_0.0_b_0_mat">
            <instance_effect url="#default_ai_0.2_sh_0.2_tr_0.0_dc_r_1.0_g_0.2_b_0.2_sc_r_1.0_g_1.0_b_1.0_ec_r_0.0_g_0.0_b_0_eff"/>
        </material>
    </library_materials>
    <library_effects>
        <effect id="default_ai_0.2_sh_0.2_tr_0.0_dc_r_0.8_g_0.8_b_0.8_sc_r_1.0_g_1.0_b_1.0_ec_r_0.0_g_0.0_b_0_eff">
            <profile_COMMON>
                <technique sid="COMMON">
                    <lambert>
                        <emission>
                            <color>0.0 0.0 0.0 1.0</color>
                        </emission>
                        <diffuse>
                            <color>0.8 0.8 0.8 1.0</color>
                        </diffuse>
                        <reflective>
                            <color>1.0 1.0 1.0 1.0</color>
                        </reflective>
                        <reflectivity>
                            <float>0.2</float>
                        </reflectivity>
                        <transparent opaque="A_ONE">
                            <color>1.0 1.0 1.0 1.0</color>
                        </transparent>
                        <transparency>
                            <float>1.0</float>
                        </transparency>
                    </lambert>
                </technique>
                <extra>
                    <technique profile="GOOGLEEARTH">
                        <double_sided>0</double_sided>
                    </technique>
                </extra>
            </profile_COMMON>
        </effect>
        <effect id="default_ai_0.2_sh_0.2_tr_0.0_dc_r_1.0_g_0.2_b_0.2_sc_r_1.0_g_1.0_b_1.0_ec_r_0.0_g_0.0_b_0_eff">
            <profile_COMMON>
                <technique sid="COMMON">
                    <lambert>
                        <emission>
                            <color>0.0 0.0 0.0 1.0</color>
                        </emission>
                        <diffuse>
                            <color>1.0 0.2 0.2 1.0</color>
                        </diffuse>
                        <reflective>
                            <color>1.0 1.0 1.0 1.0</color>
                        </reflective>
                        <reflectivity>
                            <float>0.2</float>
                        </reflectivity>
                        <transparent opaque="A_ONE">
                            <color>1.0 1.0 1.0 1.0</color>
                        </transparent>
                        <transparency>
                            <float>1.0</float>
                        </transparency>
                    </lambert>
                </technique>
                <extra>
                    <technique profile="GOOGLEEARTH">
                        <double_sided>0</double_sided>
                    </technique>
                </extra>
            </profile_COMMON>
        </effect>
    </library_effects>
    <library_geometries>
        <geometry id="geometry0">
            <mesh>
                <source id="geometry0-position">
                    <float_array id="geometry0-position-array" count="456">0.296 -0.01 12.824 0.0 0.0 12.898 0.0 0.0 0.0 0.296 -0.01 0.0 3.566 2.866 11.996 3.512 2.574 12.035 3.512 2.574 0.0 3.566 2.866 0.0 -2.305 1.2 14.272 -2.484 1.437 14.163 -2.484 1.437 0.0 -2.305 1.2 0.0 -0.584 0.099 13.114 -0.867 0.188 13.255 -0.867 0.188 0.0 -0.584 0.099 0.0 -3.067 3.395 13.768 -3.047 3.691 13.77 -3.047 3.691 0.0 -3.067 3.395 0.0 -2.774 1.954 13.981 -2.883 2.229 13.91 -2.883 2.229 0.0 -2.774 1.954 0.0 -0.742 6.823 13.414 -0.456 6.901 13.247 -0.456 6.901 0.0 -0.742 6.823 0.0 -1.782 6.266 14.278 -2.007 6.072 14.287 -1.86 6.199 14.367 -2.919 4.569 13.815 -2.825 4.85 13.86 -2.825 4.85 0.0 -2.919 4.569 0.0 -0.164 6.954 13.103 0.132 6.981 12.983 0.132 6.981 0.0 -0.164 6.954 0.0 -0.294 0.037 12.995 -0.294 0.037 0.0 0.428 6.981 12.887 0.723 6.955 12.817 0.723 6.955 0.0 0.428 6.981 0.0 3.433 2.288 12.102 3.328 2.011 12.196 3.328 2.011 0.0 3.433 2.288 0.0 -1.287 6.591 13.81 -1.019 6.719 13.602 -1.019 6.719 0.0 -1.287 6.591 0.0 2.235 0.634 12.976 1.988 0.47 12.883 1.988 0.47 0.0 2.235 0.634 0.0 1.728 0.328 12.813 1.456 0.21 12.767 1.456 0.21 0.0 1.728 0.328 0.0 -1.141 0.301 13.415 -1.404 0.438 13.595 -1.404 0.438 0.0 -1.141 0.301 0.0 2.774 5.864 13.009 2.568 6.077 13.061 2.668 5.973 13.127 0.155 3.079 15.613 0.217 4.19 15.613 -2.213 5.859 14.176 -2.399 5.628 14.078 -2.564 5.382 13.992 -2.706 5.122 13.919 -2.988 4.281 13.785 -3.03 3.987 13.77 -3.06 3.099 13.781 -3.027 2.804 13.81 -2.968 2.513 13.852 -2.64 1.689 14.065 -2.194 1.077 14.339 -1.654 0.597 13.792 -1.889 0.779 14.006 -1.889 0.779 0.0 -1.654 0.597 0.0 2.679 1.025 12.824 2.466 0.82 13.038 2.466 0.82 0.0 2.679 1.025 0.0 -2.399 5.628 0.0 -2.564 5.382 0.0 2.774 5.864 0.0 2.568 6.077 0.0 -2.64 1.689 0.0 1.015 6.903 12.773 1.015 6.903 0.0 2.43 0.791 13.073 -2.106 0.98 14.233 0.592 0.006 12.773 0.886 0.048 12.747 1.174 0.116 12.745 2.343 6.27 12.949 2.102 6.443 12.862 1.847 6.594 12.8 1.579 6.721 12.765 1.301 6.825 12.756 -1.542 6.44 14.036 -2.007 6.072 0.0 -2.213 5.859 0.0 -1.542 6.44 0.0 2.961 5.633 12.798 3.126 5.387 12.609 3.126 5.387 0.0 2.961 5.633 0.0 1.301 6.825 0.0 0.592 0.006 0.0 1.847 6.594 0.0 1.579 6.721 0.0 -2.706 5.122 0.0 3.612 3.697 11.995 3.603 3.401 11.987 3.603 3.401 0.0 3.612 3.697 0.0 3.269 5.127 12.442 3.388 4.856 12.3 3.388 4.856 0.0 3.269 5.127 0.0 2.343 6.27 0.0 -3.03 3.987 0.0 2.102 6.443 0.0 -1.782 6.266 0.0 0.886 0.048 0.0 1.174 0.116 0.0 3.483 4.575 12.184 3.552 4.287 12.094 3.552 4.287 0.0 3.483 4.575 0.0 3.593 3.161 11.984 3.593 3.161 0.0 -3.06 3.099 0.0 3.595 3.993 12.031 3.595 3.993 0.0 -3.027 2.804 0.0 -2.968 2.513 0.0 -2.106 0.98 0.0 2.874 1.249 12.631 3.048 1.489 12.462 3.2 1.744 12.316 -2.988 4.281 0.0 3.2 1.744 0.0 3.048 1.489 0.0 2.874 1.249 0.0</float_array>
                    <technique_common>
                        <accessor count="152" source="#geometry0-position-array" stride="3">
                            <param name="X" type="float"/>
                            <param name="Y" type="float"/>
                            <param name="Z" type="float"/>
                        </accessor>
                    </technique_common>
                </source>
                <source id="geometry0-normal">
                    <float_array id="geometry0-normal-array" count="1392">-0.9483454 0.3172395 0.0 -0.9483454 0.3172395 0.0 -0.9483454 0.3172395 0.0 -0.9483455 0.3172395 0.0 -0.9983549 0.0573378 0.0 -0.9983549 0.0573378 0.0 -0.9983549 0.0573378 0.0 -0.9983549 0.0573378 0.0 0.5831496 0.8123648 0.0 0.5831496 0.8123648 0.0 0.5831496 0.8123648 0.0 0.5831496 0.8123648 0.0 0.5531427 -0.8330865 0.0 0.5531427 -0.8330865 0.0 0.5531427 -0.8330865 0.0 0.5531427 -0.8330865 0.0 -0.3000019 -0.9539386 0.0 -0.3000019 -0.9539387 0.0 -0.3000019 -0.9539386 0.0 -0.3000019 -0.9539386 0.0 0.0539753 -0.9985422 0.0 0.0539753 -0.9985423 0.0 0.0539753 -0.9985422 0.0 0.0539753 -0.9985422 0.0 -0.9938013 -0.1111709 0.0 -0.9938013 -0.1111709 0.0 -0.9938013 -0.1111709 0.0 -0.9938013 -0.1111709 0.0 -0.7416155 -0.6708252 0.0 -0.7416155 -0.6708252 0.0 -0.7416155 -0.6708252 0.0 -0.7416155 -0.6708252 0.0 -0.6123089 -0.7906187 0.0 -0.6123088 -0.7906187 0.0 -0.6123089 -0.7906187 0.0 -0.6123089 -0.7906187 0.0 0.9995381 -0.0303916 0.0 0.9995381 -0.0303916 0.0 0.9995381 -0.0303916 0.0 0.9995381 -0.0303916 0.0 0.3162278 -0.9486833 0.0 0.3162278 -0.9486833 0.0 0.3162278 -0.9486833 0.0 0.3162278 -0.9486833 0.0 0.7274617 -0.039885 0.6849881 0.7289641 -0.0389173 0.6834448 0.7388979 -0.039786 0.6726419 0.7423593 -0.0402882 0.6687897 0.732266 -0.0399558 0.6798456 0.727684 -0.0400541 0.6847421 0.724518 -0.0405038 0.6880648 0.7247775 -0.0402426 0.6878068 0.727586 -0.0395233 0.6848769 0.7270424 -0.0397761 0.6854395 0.7257742 -0.0403609 0.686748 0.7246224 -0.0410161 0.6879246 0.7248784 -0.0408143 0.6876668 0.7257631 -0.0403553 0.6867601 0.7257221 -0.0406695 0.6867849 0.71495 -0.0288247 0.6985813 0.7164909 -0.0302684 0.6969395 0.7276548 -0.0426774 0.6846146 0.7248586 -0.0401332 0.6877278 0.7256935 -0.0405596 0.6868216 0.7294009 -0.0432179 0.68272 0.7265755 -0.0418275 0.6858124 0.731388 -0.043484 0.6805738 0.7400604 -0.0472577 0.6708781 -0.1785888 0.9839238 0.0 -0.1785888 0.9839238 0.0 -0.1785888 0.9839238 0.0 -0.1785888 0.9839238 0.0 -0.9977251 0.0674138 0.0 -0.9977251 0.0674138 0.0 -0.9977251 0.0674138 0.0 -0.9977251 0.0674138 0.0 -0.0908389 0.9958656 0.0 -0.0908389 0.9958656 0.0 -0.0908389 0.9958656 0.0 -0.0908389 0.9958656 0.0 0.6934469 -0.7205077 0.0 0.6934469 -0.7205077 0.0 0.6934469 -0.7205077 0.0 0.6934469 -0.7205077 0.0 -0.7188193 0.695197 0.0 -0.7188193 0.695197 0.0 -0.7188193 0.695197 0.0 -0.7188193 0.695197 0.0 0.9017338 -0.432292 0.0 0.9017337 -0.4322919 0.0 0.9017338 -0.432292 0.0 0.9017338 -0.432292 0.0 -0.5869683 0.8096099 0.0 -0.5869683 0.8096099 0.0 -0.5869683 0.8096099 0.0 -0.5869683 0.8096099 0.0 0.9473262 0.3202704 0.0 0.9473262 0.3202704 0.0 0.9473262 0.3202704 0.0 0.9473262 0.3202704 0.0 -0.0337645 -0.9994298 0.0 -0.0337645 -0.9994298 0.0 -0.0337645 -0.9994298 0.0 -0.0337645 -0.9994299 0.0 -0.8923978 -0.4512496 0.0 -0.8923978 -0.4512496 0.0 -0.8923978 -0.4512496 0.0 -0.8923978 -0.4512496 0.0 0.9958377 -0.0911443 0.0 0.9958377 -0.0911443 0.0 0.9958377 -0.0911443 0.0 0.9958377 -0.0911443 0.0 0.9983549 0.0573378 0.0 0.9983549 0.0573378 0.0 0.9983549 0.0573378 0.0 0.9983549 0.0573378 0.0 -0.6530057 0.7573529 0.0 -0.6530057 0.757353 0.0 -0.6530057 0.7573529 0.0 -0.6530057 0.7573529 0.0 0.0 1.0 0.0 0.0 1.0 0.0 0.0 1.0 0.0 0.0 1.0 0.0 -0.8502649 -0.526355 0.0 -0.8502649 -0.526355 0.0 -0.8502649 -0.526355 0.0 -0.8502649 -0.526355 0.0 0.3979859 -0.9173915 0.0 0.3979859 -0.9173915 0.0 0.3979859 -0.9173915 0.0 0.3979859 -0.9173915 0.0 0.8589755 -0.5120167 0.0 0.8589756 -0.5120167 0.0 0.8589755 -0.5120167 0.0 0.8589755 -0.5120167 0.0 -0.9724791 0.2329901 0.0 -0.9724791 0.2329901 0.0 -0.9724791 0.2329901 0.0 -0.9724791 0.2329901 0.0 0.9156138 0.4020592 0.0 0.9156138 0.4020592 0.0 0.9156138 0.4020592 0.0 0.9156137 0.4020592 0.0 -0.7418046 -0.6706126 -0.0021643 -0.7418046 -0.6706126 -0.0021643 -0.7418046 -0.6706126 -0.0021643 0.9833267 -0.1818477 0.0 0.9833267 -0.1818477 0.0 0.9833267 -0.1818477 0.0 0.9833267 -0.1818477 0.0 -0.4619897 -0.8868854 0.0 -0.4619897 -0.8868854 0.0 -0.4619897 -0.8868854 0.0 -0.4619896 -0.8868853 0.0 0.175324 0.9845108 0.0 0.175324 0.9845108 0.0 0.175324 0.9845108 0.0 0.175324 0.9845108 0.0 0.3503838 0.9366063 0.0 0.3503838 0.9366063 0.0 0.3503838 0.9366063 0.0 0.3503838 0.9366063 0.0 0.8096105 -0.5869676 0.0 0.8096105 -0.5869676 0.0 0.8096105 -0.5869676 0.0 0.8096104 -0.5869676 0.0 0.1414214 -0.9899495 0.0 0.1414214 -0.9899495 0.0 0.1414214 -0.9899495 0.0 0.1414214 -0.9899495 0.0 -0.9296379 -0.3684744 0.0 -0.9296378 -0.3684744 0.0 -0.9296379 -0.3684744 0.0 -0.929638 -0.3684744 0.0 -0.1248654 -0.9921737 0.0 -0.1248654 -0.9921737 0.0 -0.1248654 -0.9921737 0.0 -0.1248654 -0.9921737 0.0 -0.8304887 0.5570354 0.0 -0.8304887 0.5570354 0.0 -0.8304887 0.5570354 0.0 -0.8304887 0.5570354 0.0 -0.5095248 0.860456 0.0 -0.5095248 0.860456 0.0 -0.5095248 0.860456 0.0 -0.5095247 0.860456 0.0 -0.9899495 0.1414215 0.0 -0.9899495 0.1414215 0.0 -0.9899495 0.1414215 0.0 -0.9899495 0.1414215 0.0 -0.3812588 -0.9244684 0.0 -0.3812588 -0.9244683 0.0 -0.3812588 -0.9244684 0.0 -0.3812588 -0.9244683 0.0 0.6271588 -0.7788914 0.0 0.6271588 -0.7788914 0.0 0.6271588 -0.7788914 0.0 0.6271588 -0.7788915 0.0 0.2297926 -0.9732396 0.0 0.2297927 -0.9732397 0.0 0.2297926 -0.9732396 0.0 0.2297926 -0.9732396 0.0 0.9991331 -0.0416305 0.0 0.9991331 -0.0416305 0.0 0.9991331 -0.0416305 0.0 0.9991331 -0.0416305 0.0 0.7188205 0.6951958 0.0 0.7188205 0.6951958 0.0 0.7188205 0.6951958 0.0 0.7188205 0.6951957 0.0 -0.778892 0.6271582 0.0 -0.778892 0.6271581 0.0 -0.778892 0.6271582 0.0 -0.778892 0.6271582 0.0 0.0877953 0.9961385 0.0 0.0877953 0.9961385 0.0 0.0877953 0.9961385 0.0 0.0877953 0.9961386 0.0 0.6510686 0.7590189 0.0 0.6510686 0.759019 0.0 0.6510686 0.7590189 0.0 0.6510686 0.7590189 0.0 -0.4939173 0.0285718 0.8690392 -0.4943532 0.0271412 0.8688373 -0.4944846 0.0273718 0.8687553 -0.4945762 0.027558 0.8686973 -0.4953552 0.0275955 0.8682521 -0.4961879 0.0276782 0.8677739 -0.4944132 0.0276648 0.8687867 -0.4933398 0.0276173 0.8693981 -0.4951372 0.0274765 0.8683803 -0.4951673 0.0275293 0.8683613 -0.4953502 0.0274361 0.86826 -0.4953066 0.0275119 0.8682824 -0.4956922 0.0273262 0.8680683 -0.4952574 0.027567 0.8683088 -0.4940734 0.027949 0.8689709 -0.4963186 0.0269421 0.8677223 -0.4933087 0.0286566 0.8693822 -0.495579 0.026979 0.8681439 -0.4960688 0.0271193 0.8678597 -0.4912089 0.0303282 0.8705137 -0.5011801 0.0221213 0.8650602 -0.4859596 0.0367248 0.8732094 -0.4615234 0.0585386 0.8851946 0.8304887 0.5570354 0.0 0.8304887 0.5570354 0.0 0.8304887 0.5570354 0.0 0.8304887 0.5570354 0.0 0.7542427 -0.6565958 0.0 0.7542426 -0.6565958 0.0 0.7542427 -0.6565958 0.0 0.7542427 -0.6565958 0.0 -0.6795431 -0.7336356 0.0 -0.6795431 -0.7336356 0.0 -0.6795431 -0.7336356 0.0 -0.6795431 -0.7336356 0.0 0.4282322 0.9036688 0.0 0.4282322 0.9036688 0.0 0.4282322 0.9036688 0.0 0.4282322 0.9036688 0.0 -0.2631177 0.9647638 0.0 -0.2631176 0.9647638 0.0 -0.2631177 0.9647638 0.0 -0.2631176 0.9647638 0.0 0.1604784 -0.6568386 0.7367563 0.1602993 -0.6567549 0.7368699 0.1620618 -0.6592093 0.7342882 0.1597845 -0.6568154 0.7369278 0.1582875 -0.6546587 0.7391664 0.1608862 -0.6573511 0.73621 0.1606831 -0.6577803 0.735871 0.1605846 -0.6579364 0.7357529 0.1607083 -0.6577151 0.7359238 0.1604907 -0.6582585 0.7354853 0.1603749 -0.6585137 0.7352819 0.1609024 -0.6564229 0.7370343 0.161242 -0.65524 0.738012 0.1610029 -0.6572317 0.7362911 0.1609063 -0.6570322 0.7364902 0.1610652 -0.6576641 0.7358913 0.1614638 -0.6616394 0.7322314 0.1601534 -0.656621 0.7370208 0.1585631 -0.6496962 0.7434734 0.158563 -0.6496959 0.7434736 -0.2090685 -0.977901 0.0 -0.2090685 -0.977901 0.0 -0.2090685 -0.977901 0.0 -0.2090685 -0.977901 0.0 0.7772448 0.6291984 0.0 0.7772448 0.6291984 0.0 0.7772448 0.6291984 0.0 0.7772448 0.6291984 0.0 -0.9800591 -0.1987063 0.0 -0.9800591 -0.1987063 0.0 -0.9800591 -0.1987063 0.0 -0.9800591 -0.1987063 0.0 0.0 0.0 -1.0 0.0 0.0 -1.0 0.0 0.0 -1.0 0.0 0.0 -1.0 0.0 0.0 -1.0 0.0 0.0 -1.0 0.0 0.0 -1.0 0.0 0.0 -1.0 0.0 0.0 -1.0 0.0 0.0 -1.0 0.0 0.0 -1.0 0.0 0.0 -1.0 0.0 0.0 -1.0 0.0 0.0 -1.0 0.0 0.0 -1.0 0.0 0.0 -1.0 0.0 0.0 -1.0 0.0 0.0 -1.0 0.0 0.0 -1.0 0.0 0.0 -1.0 0.0 0.0 -1.0 0.0 0.0 -1.0 0.0 0.0 -1.0 0.0 0.0 -1.0 0.0 0.0 -1.0 0.0 0.0 -1.0 0.0 0.0 -1.0 0.0 0.0 -1.0 0.0 0.0 -1.0 0.0 0.0 -1.0 0.0 0.0 -1.0 0.0 0.0 -1.0 0.0 0.0 -1.0 0.0 0.0 -1.0 0.0 0.0 -1.0 0.0 0.0 -1.0 0.0 0.0 -1.0 0.0 0.0 -1.0 0.0 0.0 -1.0 0.0 0.0 -1.0 0.0 0.0 -1.0 0.0 0.0 -1.0 0.0 0.0 -1.0 0.0 0.0 -1.0 0.0 0.0 -1.0 0.0 0.0 -1.0 0.0 0.0 -1.0 0.0 0.0 -1.0 0.0 0.0 -1.0 0.0 0.0 -1.0 0.0 0.0 -1.0 0.0 0.0 -1.0 0.0 0.0 -1.0 0.0 0.0 -1.0 0.0 0.0 -1.0 0.0 0.0 -1.0 0.0 0.0 -1.0 0.0 0.0 -1.0 0.0 0.0 -1.0 0.0 0.0 -1.0 0.0 0.0 -1.0 0.0 0.0 -1.0 0.0 0.0 -1.0 0.0 0.0 -1.0 0.0 0.0 -1.0 0.0 0.0 -1.0 0.0 0.0 -1.0 0.0 0.0 -1.0 0.0 0.0 -1.0 0.0 0.0 -1.0 0.0 0.0 -1.0 0.0 0.0 -1.0 0.0 0.0 -1.0 -0.351494 0.9361901 0.0 -0.351494 0.9361902 0.0 -0.351494 0.9361901 0.0 -0.351494 0.9361901 0.0 0.9350748 -0.3544506 0.0 0.9350748 -0.3544506 0.0 0.9350748 -0.3544506 0.0 0.9350747 -0.3544505 0.0 0.6271957 -0.7788617 -2.265E-4 0.6271957 -0.7788617 -2.265E-4 0.6271957 -0.7788617 -2.265E-4 0.226112 0.6717664 0.70541 0.2266633 0.6717419 0.7052564 0.2270075 0.6699611 0.7068378 0.2268344 0.6704225 0.7064559 0.2265721 0.6718251 0.7052065 0.2266451 0.6714714 0.7055198 0.226436 0.6720144 0.7050698 0.2270266 0.6708813 0.7059584 0.2265688 0.6715208 0.7054972 0.2257282 0.6729925 0.7043635 0.2262564 0.672231 0.7049209 0.228065 0.6699123 0.7065436 0.2265144 0.6715619 0.7054756 0.2242441 0.6742586 0.7036262 0.2284881 0.6699688 0.7063533 0.229485 0.6688042 0.7071334 0.2275551 0.6706371 0.7060202 0.2325865 0.6664776 0.7083158 0.2195983 0.676149 0.7032773 0.2019839 0.6891952 0.6958538 -0.7979754 -0.60269 0.0 -0.7979754 -0.60269 0.0 -0.7979754 -0.60269 0.0 -0.7979754 -0.6026899 0.0 0.9894728 0.1447187 0.0 0.9894728 0.1447187 0.0 0.9894728 0.1447187 0.0 0.9894728 0.1447187 0.0 -0.877637 0.479326 0.0 -0.877637 0.479326 0.0 -0.877637 0.479326 0.0 -0.877637 0.4793259 0.0 -0.9997206 -0.0236419 0.0 -0.9997206 -0.0236419 0.0 -0.9997206 -0.0236419 0.0 -0.9997206 -0.0236419 0.0 0.7193717 0.6946102 0.0045822 0.7193717 0.6946102 0.0045822 0.7193717 0.6946102 0.0045822 -0.9161575 0.4008183 0.0 -0.9161576 0.4008183 0.0 -0.9161575 0.4008183 0.0 -0.9161575 0.4008183 0.0 -0.6530553 0.7573069 -0.0022344 -0.6530553 0.7573069 -0.0022344 -0.6530553 0.7573069 -0.0022344 -0.9580117 -0.2867291 0.0 -0.9580117 -0.2867291 0.0 -0.9580117 -0.2867291 0.0 -0.9580117 -0.2867291 0.0 -0.4309784 0.9023622 0.0 -0.4309784 0.9023622 0.0 -0.4309784 0.9023622 0.0 -0.4309784 0.9023622 0.0 0.2631176 0.9647638 0.0 0.2631176 0.9647638 0.0 0.2631176 0.9647638 0.0 0.2631176 0.9647638 0.0 0.9639031 -0.2662531 0.0 0.9639031 -0.2662532 0.0 0.9639031 -0.2662531 0.0 0.9639031 -0.2662531 0.0 -0.5366571 -0.8438004 0.0 -0.5366571 -0.8438004 0.0 -0.5366571 -0.8438004 0.0 -0.5366571 -0.8438004 0.0 0.8762159 0.4819188 0.0 0.8762159 0.4819188 0.0 0.8762159 0.4819188 0.0 0.8762159 0.4819188 0.0 0.9724792 0.2329901 0.0 0.9724792 0.2329901 0.0 0.9724792 0.2329901 0.0 0.9724792 0.2329901 0.0 0.5095249 0.8604559 0.0 0.5095249 0.8604559 0.0 0.5095249 0.8604559 0.0 0.5095249 0.8604559 0.0 0.479325 -0.8776374 0.0 0.479325 -0.8776374 0.0 0.479325 -0.8776374 0.0 0.479325 -0.8776374 0.0</float_array>
                    <technique_common>
                        <accessor count="464" source="#geometry0-normal-array" stride="3">
                            <param name="X" type="float"/>
                            <param name="Y" type="float"/>
                            <param name="Z" type="float"/>
                        </accessor>
                    </technique_common>
                </source>
                <vertices id="geometry0-vertex">
                    <input semantic="POSITION" source="#geometry0-position"/>
                </vertices>
                <triangles count="221" material="default_ai_0.2_sh_0.2_tr_0.0_dc_r_0.8_g_0.8_b_0.8_sc_r_1.0_g_1.0_b_1.0_ec_r_0.0_g_0.0_b_0_tri">
                    <input offset="0" semantic="VERTEX" source="#geometry0-vertex"/>
                    <input offset="1" semantic="NORMAL" source="#geometry0-normal"/>
                    <p>31 0 32 1 33 2 31 0 33 2 34 3 17 4 75 5 128 6 17 4 128 6 18 7 102 8 101 9 127 10 102 8 127 10 129 11 53 12 54 13 55 14 53 12 55 14 56 15 12 16 13 17 14 18 12 16 14 18 15 19 98 20 0 21 3 22 98 20 3 22 115 23 77 24 76 25 139 26 77 24 139 26 142 27 97 28 8 29 11 30 97 28 11 30 144 31 81 32 82 33 83 34 81 32 83 34 84 35 119 36 120 37 121 38 119 36 121 38 122 39 58 40 100 41 132 42 58 40 132 42 59 43 25 68 35 69 38 70 25 68 38 70 26 71 16 72 17 73 18 74 16 72 18 74 19 75 35 76 36 77 37 78 35 76 37 78 38 79 85 80 86 81 87 82 85 80 87 82 88 83 70 84 29 85 107 86 70 84 107 86 108 87 46 88 147 89 149 90 46 88 149 90 47 91 28 92 106 93 109 94 28 92 109 94 130 95 124 96 133 97 136 98 124 96 136 98 125 99 0 100 1 101 2 102 0 100 2 102 3 103 79 104 20 105 23 106 79 104 23 106 93 107 137 108 4 109 7 110 137 108 7 110 138 111 140 112 119 113 122 114 140 112 122 114 141 115 29 116 28 117 130 118 29 116 130 118 107 119 36 120 41 121 44 122 36 120 44 122 37 123 9 124 79 125 93 126 9 124 93 126 10 127 57 128 58 129 59 130 57 128 59 130 60 131 147 132 146 133 150 134 147 132 150 134 149 135 74 136 31 137 34 138 74 136 34 138 148 139 123 140 124 141 125 142 123 140 125 142 126 143 8 144 97 145 80 146 4 147 5 148 6 149 4 147 6 149 7 150 61 151 62 152 63 153 61 151 63 153 64 154 42 155 94 156 95 157 42 155 95 157 43 158 105 159 104 160 117 161 105 159 117 161 114 162 146 163 145 164 151 165 146 163 151 165 150 166 99 167 98 168 115 169 99 167 115 169 131 170 20 171 21 172 22 173 20 171 22 173 23 174 1 175 39 176 40 177 1 175 40 177 2 178 72 179 71 180 89 181 72 179 89 181 90 182 106 183 49 184 52 185 106 183 52 185 109 186 75 187 74 188 148 189 75 187 148 189 128 190 13 191 61 192 64 193 13 191 64 193 14 194 86 195 53 196 56 197 86 195 56 197 87 198 100 199 99 200 131 201 100 199 131 201 132 202 120 203 137 204 138 205 120 203 138 205 121 206 66 207 65 208 91 209 66 207 91 209 92 210 71 211 70 212 108 213 71 211 108 213 89 214 41 215 42 216 43 217 41 215 43 217 44 218 101 219 66 220 92 221 101 219 92 221 127 222 110 246 111 247 112 248 110 246 112 248 113 249 145 250 85 251 88 252 145 250 88 252 151 253 82 254 97 255 144 256 82 254 144 256 83 257 104 258 103 259 116 260 104 258 116 260 117 261 24 262 25 263 26 264 24 262 26 264 27 265 39 286 12 287 15 288 39 286 15 288 40 289 65 290 110 291 113 292 65 290 113 292 91 293 78 294 77 295 142 296 78 294 142 296 143 297 122 298 121 299 138 300 122 298 138 300 7 301 122 298 7 301 6 302 122 298 6 302 48 303 122 298 48 303 47 304 122 298 47 304 149 305 122 298 149 305 150 306 122 298 150 306 151 307 122 298 151 307 88 308 122 298 88 308 87 309 122 298 87 309 56 310 122 298 56 310 55 311 122 298 55 311 60 312 122 298 60 312 59 313 122 298 59 313 132 314 122 298 132 314 131 315 122 298 131 315 115 316 122 298 115 316 3 317 122 298 3 317 2 318 122 298 2 318 40 319 122 298 40 319 15 320 122 298 15 320 14 321 122 298 14 321 64 322 122 298 64 322 63 323 122 298 63 323 84 324 122 298 84 324 83 325 122 298 83 325 144 326 122 298 144 326 11 327 122 298 11 327 10 328 122 298 10 328 93 329 122 298 93 329 23 330 122 298 23 330 22 331 122 298 22 331 143 332 122 298 143 332 142 333 122 298 142 333 139 334 122 298 139 334 19 335 122 298 19 335 18 336 122 298 18 336 128 337 122 298 128 337 148 338 122 298 148 338 34 339 122 298 34 339 33 340 122 298 33 340 118 341 122 298 118 341 90 342 122 298 90 342 89 343 122 298 89 343 108 344 122 298 108 344 107 345 122 298 107 345 130 346 122 298 130 346 109 347 122 298 109 347 52 348 122 298 52 348 51 349 122 298 51 349 27 350 122 298 27 350 26 351 122 298 26 351 38 352 122 298 38 352 37 353 122 298 37 353 44 354 122 298 44 354 43 355 122 298 43 355 95 356 122 298 95 356 114 357 122 298 114 357 117 358 122 298 117 358 116 359 122 298 116 359 129 360 122 298 129 360 127 361 122 298 127 361 92 362 122 298 92 362 91 363 122 298 91 363 113 364 122 298 113 364 112 365 122 298 112 365 126 366 122 298 126 366 125 367 122 298 125 367 136 368 122 298 136 368 135 369 122 298 135 369 141 370 50 371 24 372 27 373 50 371 27 373 51 374 45 375 46 376 47 377 45 375 47 377 48 378 53 379 86 380 96 381 8 402 9 403 10 404 8 402 10 404 11 405 134 406 140 407 141 408 134 406 141 408 135 409 73 410 72 411 90 412 73 410 90 412 118 413 76 414 16 415 19 416 76 414 19 416 139 417 65 418 66 419 67 420 32 421 73 422 118 423 32 421 118 423 33 424 28 425 29 426 30 427 21 428 78 429 143 430 21 428 143 430 22 431 49 432 50 433 51 434 49 432 51 434 52 435 94 436 105 437 114 438 94 436 114 438 95 439 5 440 45 441 48 442 5 440 48 442 6 443 62 444 81 445 84 446 62 444 84 446 63 447 111 448 123 449 126 450 111 448 126 450 112 451 133 452 134 453 135 454 133 452 135 454 136 455 103 456 102 457 129 458 103 456 129 458 116 459 54 460 57 461 60 462 54 460 60 462 55 463</p>
                </triangles>
                <triangles count="79" material="default_ai_0.2_sh_0.2_tr_0.0_dc_r_1.0_g_0.2_b_0.2_sc_r_1.0_g_1.0_b_1.0_ec_r_0.0_g_0.0_b_0_tri">
                    <input offset="0" semantic="VERTEX" source="#geometry0-vertex"/>
                    <input offset="1" semantic="NORMAL" source="#geometry0-normal"/>
                    <p>4 44 137 45 120 46 4 44 120 46 119 47 4 44 119 47 140 48 4 44 140 48 134 49 4 44 134 49 133 50 4 44 133 50 124 51 4 44 124 51 123 52 4 44 123 52 111 53 4 44 111 53 110 54 4 44 110 54 65 55 4 44 65 55 67 56 4 44 67 56 69 57 4 44 69 57 68 58 4 44 68 58 96 59 4 44 96 59 86 60 4 44 86 60 85 61 4 44 85 61 145 62 4 44 145 62 146 63 4 44 146 63 147 64 4 44 147 64 46 65 4 44 46 65 45 66 4 44 45 66 5 67 8 223 80 224 68 225 8 223 68 225 69 226 8 223 69 226 30 227 8 223 30 227 29 228 8 223 29 228 70 229 8 223 70 229 71 230 8 223 71 230 72 231 8 223 72 231 73 232 8 223 73 232 32 233 8 223 32 233 31 234 8 223 31 234 74 235 8 223 74 235 75 236 8 223 75 236 17 237 8 223 17 237 16 238 8 223 16 238 76 239 8 223 76 239 77 240 8 223 77 240 78 241 8 223 78 241 21 242 8 223 21 242 20 243 8 223 20 243 79 244 8 223 79 244 9 245 58 266 57 267 54 268 58 266 54 268 53 269 58 266 53 269 96 270 58 266 96 270 68 271 58 266 68 271 80 272 58 266 80 272 97 273 58 266 97 273 82 274 58 266 82 274 81 275 58 266 81 275 62 276 58 266 62 276 61 277 58 266 61 277 13 278 58 266 13 278 12 279 58 266 12 279 39 280 58 266 39 280 1 281 58 266 1 281 0 282 58 266 0 282 98 283 58 266 98 283 99 284 58 266 99 284 100 285 30 382 69 383 67 384 30 382 67 384 66 385 30 382 66 385 101 386 30 382 101 386 102 387 30 382 102 387 103 388 30 382 103 388 104 389 30 382 104 389 105 390 30 382 105 390 94 391 30 382 94 391 42 392 30 382 42 392 41 393 30 382 41 393 36 394 30 382 36 394 35 395 30 382 35 395 25 396 30 382 25 396 24 397 30 382 24 397 50 398 30 382 50 398 49 399 30 382 49 399 106 400 30 382 106 400 28 401</p>
                </triangles>
            </mesh>
        </geometry>
    </library_geometries>
    <library_visual_scenes>
        <visual_scene id="Building_DEBW_5221000QyM5">
            <node>
                <instance_geometry url="#geometry0">
                    <bind_material>
                        <technique_common>
                            <instance_material symbol="default_ai_0.2_sh_0.2_tr_0.0_dc_r_0.8_g_0.8_b_0.8_sc_r_1.0_g_1.0_b_1.0_ec_r_0.0_g_0.0_b_0_tri" target="#default_ai_0.2_sh_0.2_tr_0.0_dc_r_0.8_g_0.8_b_0.8_sc_r_1.0_g_1.0_b_1.0_ec_r_0.0_g_0.0_b_0_mat"/>
                            <instance_material symbol="default_ai_0.2_sh_0.2_tr_0.0_dc_r_1.0_g_0.2_b_0.2_sc_r_1.0_g_1.0_b_1.0_ec_r_0.0_g_0.0_b_0_tri" target="#default_ai_0.2_sh_0.2_tr_0.0_dc_r_1.0_g_0.2_b_0.2_sc_r_1.0_g_1.0_b_1.0_ec_r_0.0_g_0.0_b_0_mat"/>
                        </technique_common>
                    </bind_material>
                </instance_geometry>
            </node>
        </visual_scene>
    </library_visual_scenes>
    <scene>
        <instance_visual_scene url="#Building_DEBW_5221000QyM5"/>
    </scene>
</COLLADA>
