<?xml version="1.0" encoding="UTF-8" standalone="yes"?>
<COLLADA xmlns="http://www.collada.org/2005/11/COLLADASchema" version="1.4.1">
    <asset>
        <contributor>
            <authoring_tool>3D City Database Importer/Exporter, version 5.5.3; Chair of Geoinformatics, Technical University of Munich</authoring_tool>
        </contributor>
        <created>2026-05-06T15:12:04.238</created>
        <modified>2026-05-06T15:12:04.238</modified>
        <unit meter="1.0" name="meters"/>
        <up_axis>Z_UP</up_axis>
    </asset>
    <library_materials>
        <material id="default_ai_0.2_sh_0.2_tr_0.0_dc_r_0.8_g_0.8_b_0.8_sc_r_1.0_g_1.0_b_1.0_ec_r_0.0_g_0.0_b_0_mat">
            <instance_effect url="#default_ai_0.2_sh_0.2_tr_0.0_dc_r_0.8_g_0.8_b_0.8_sc_r_1.0_g_1.0_b_1.0_ec_r_0.0_g_0.0_b_0_eff"/>
        </material>
        <material id="default_ai_0.2_sh_0.2_tr_0.0_dc_r_1.0_g_0.2_b_0.2_sc_r_1.0_g_1.0_b_1.0_ec_r_0.0_g_0.0_b_0_mat">
            <instance_effect url="#default_ai_0.2_sh_0.2_tr_0.0_dc_r_1.0_g_0.2_b_0.2_sc_r_1.0_g_1.0_b_1.0_ec_r_0.0_g_0.0_b_0_eff"/>
        </material>
    </library_materials>
    <library_effects>
        <effect id="default_ai_0.2_sh_0.2_tr_0.0_dc_r_0.8_g_0.8_b_0.8_sc_r_1.0_g_1.0_b_1.0_ec_r_0.0_g_0.0_b_0_eff">
            <profile_COMMON>
                <technique sid="COMMON">
                    <lambert>
                        <emission>
                            <color>0.0 0.0 0.0 1.0</color>
                        </emission>
                        <diffuse>
                            <color>0.8 0.8 0.8 1.0</color>
                        </diffuse>
                        <reflective>
                            <color>1.0 1.0 1.0 1.0</color>
                        </reflective>
                        <reflectivity>
                            <float>0.2</float>
                        </reflectivity>
                        <transparent opaque="A_ONE">
                            <color>1.0 1.0 1.0 1.0</color>
                        </transparent>
                        <transparency>
                            <float>1.0</float>
                        </transparency>
                    </lambert>
                </technique>
                <extra>
                    <technique profile="GOOGLEEARTH">
                        <double_sided>0</double_sided>
                    </technique>
                </extra>
            </profile_COMMON>
        </effect>
        <effect id="default_ai_0.2_sh_0.2_tr_0.0_dc_r_1.0_g_0.2_b_0.2_sc_r_1.0_g_1.0_b_1.0_ec_r_0.0_g_0.0_b_0_eff">
            <profile_COMMON>
                <technique sid="COMMON">
                    <lambert>
                        <emission>
                            <color>0.0 0.0 0.0 1.0</color>
                        </emission>
                        <diffuse>
                            <color>1.0 0.2 0.2 1.0</color>
                        </diffuse>
                        <reflective>
                            <color>1.0 1.0 1.0 1.0</color>
                        </reflective>
                        <reflectivity>
                            <float>0.2</float>
                        </reflectivity>
                        <transparent opaque="A_ONE">
                            <color>1.0 1.0 1.0 1.0</color>
                        </transparent>
                        <transparency>
                            <float>1.0</float>
                        </transparency>
                    </lambert>
                </technique>
                <extra>
                    <technique profile="GOOGLEEARTH">
                        <double_sided>0</double_sided>
                    </technique>
                </extra>
            </profile_COMMON>
        </effect>
    </library_effects>
    <library_geometries>
        <geometry id="geometry0">
            <mesh>
                <source id="geometry0-position">
                    <float_array id="geometry0-position-array" count="48">-11.03 4.37 2.839 -10.74 -1.24 3.336 -10.865 1.172 4.773 -0.13 4.62 2.839 0.0 0.0 3.927 0.0 0.0 0.0 -0.13 4.62 0.0 -6.01 -1.13 3.337 -10.74 -1.24 0.0 -6.01 -1.13 0.0 -11.03 4.37 0.0 -5.99 -1.89 2.884 -5.99 -1.89 0.0 0.02 -1.8 2.855 -0.04 1.42 4.773 0.02 -1.8 0.0</float_array>
                    <technique_common>
                        <accessor count="16" source="#geometry0-position-array" stride="3">
                            <param name="X" type="float"/>
                            <param name="Y" type="float"/>
                            <param name="Z" type="float"/>
                        </accessor>
                    </technique_common>
                </source>
                <source id="geometry0-normal">
                    <float_array id="geometry0-normal-array" count="156">-0.9986657 -0.0516413 -1.909E-4 -0.9986657 -0.0516413 -1.909E-4 -0.9986657 -0.0516413 -1.909E-4 -0.0118507 0.5169824 0.8559141 -0.0118436 0.516966 0.855924 -0.0118507 0.5169824 0.8559141 -0.0118578 0.5169986 0.855904 0.0 0.0 -1.0 0.0 0.0 -1.0 0.0 0.0 -1.0 0.0 0.0 -1.0 0.0 0.0 -1.0 0.0 0.0 -1.0 0.0 0.0 -1.0 0.0232495 -0.9997297 0.0 0.0232495 -0.9997297 0.0 0.0232495 -0.9997297 0.0 0.0232495 -0.9997297 0.0 0.9996041 0.028136 3.67E-5 0.9996041 0.028136 3.67E-5 0.9996041 0.028136 3.67E-5 0.9996043 0.0281274 0.0 0.9996043 0.0281274 0.0 0.9996043 0.0281274 0.0 0.9996043 0.0281274 0.0 -0.9986666 -0.0516245 0.0 -0.9986666 -0.0516245 0.0 -0.9986666 -0.0516245 0.0 -0.9986666 -0.0516245 0.0 -0.0229298 0.9997371 0.0 -0.0229298 0.9997371 0.0 -0.0229298 0.9997371 0.0 -0.0229298 0.9997371 0.0 -0.9996539 -0.0263073 0.0 -0.9996539 -0.0263073 0.0 -0.9996539 -0.0263073 0.0 -0.9996539 -0.0263073 0.0 0.0117811 -0.5115001 0.8592024 0.0118085 -0.5117353 0.8590621 0.011823 -0.5116438 0.8591163 0.0118362 -0.5115472 0.8591737 0.0117748 -0.5114369 0.8592401 0.0117123 -0.5113353 0.8593016 0.01171 -0.5113388 0.8592994 0.0149734 -0.9998879 0.0 0.0149734 -0.9998879 0.0 0.0149734 -0.9998879 0.0 0.0149734 -0.9998879 0.0 0.9999382 0.0111104 0.0 0.9999382 0.0111104 0.0 0.9999382 0.0111104 0.0 0.9999382 0.0111104 0.0</float_array>
                    <technique_common>
                        <accessor count="52" source="#geometry0-normal-array" stride="3">
                            <param name="X" type="float"/>
                            <param name="Y" type="float"/>
                            <param name="Z" type="float"/>
                        </accessor>
                    </technique_common>
                </source>
                <vertices id="geometry0-vertex">
                    <input semantic="POSITION" source="#geometry0-position"/>
                </vertices>
                <triangles count="21" material="default_ai_0.2_sh_0.2_tr_0.0_dc_r_0.8_g_0.8_b_0.8_sc_r_1.0_g_1.0_b_1.0_ec_r_0.0_g_0.0_b_0_tri">
                    <input offset="0" semantic="VERTEX" source="#geometry0-vertex"/>
                    <input offset="1" semantic="NORMAL" source="#geometry0-normal"/>
                    <p>0 0 1 1 2 2 9 7 8 8 10 9 9 7 10 9 6 10 9 7 6 10 5 11 9 7 5 11 15 12 9 7 15 12 12 13 7 14 1 15 8 16 7 14 8 16 9 17 4 18 3 19 14 20 3 21 4 22 5 23 3 21 5 23 6 24 1 25 0 26 10 27 1 25 10 27 8 28 0 29 3 30 6 31 0 29 6 31 10 32 11 33 7 34 9 35 11 33 9 35 12 36 13 44 11 45 12 46 13 44 12 46 15 47 4 48 13 49 15 50 4 48 15 50 5 51</p>
                </triangles>
                <triangles count="7" material="default_ai_0.2_sh_0.2_tr_0.0_dc_r_1.0_g_0.2_b_0.2_sc_r_1.0_g_1.0_b_1.0_ec_r_0.0_g_0.0_b_0_tri">
                    <input offset="0" semantic="VERTEX" source="#geometry0-vertex"/>
                    <input offset="1" semantic="NORMAL" source="#geometry0-normal"/>
                    <p>2 3 14 4 3 5 2 3 3 5 0 6 7 37 11 38 13 39 7 37 13 39 4 40 7 37 4 40 14 41 7 37 14 41 2 42 7 37 2 42 1 43</p>
                </triangles>
            </mesh>
        </geometry>
    </library_geometries>
    <library_visual_scenes>
        <visual_scene id="Building_DEBW_5221000QWv7">
            <node>
                <instance_geometry url="#geometry0">
                    <bind_material>
                        <technique_common>
                            <instance_material symbol="default_ai_0.2_sh_0.2_tr_0.0_dc_r_0.8_g_0.8_b_0.8_sc_r_1.0_g_1.0_b_1.0_ec_r_0.0_g_0.0_b_0_tri" target="#default_ai_0.2_sh_0.2_tr_0.0_dc_r_0.8_g_0.8_b_0.8_sc_r_1.0_g_1.0_b_1.0_ec_r_0.0_g_0.0_b_0_mat"/>
                            <instance_material symbol="default_ai_0.2_sh_0.2_tr_0.0_dc_r_1.0_g_0.2_b_0.2_sc_r_1.0_g_1.0_b_1.0_ec_r_0.0_g_0.0_b_0_tri" target="#default_ai_0.2_sh_0.2_tr_0.0_dc_r_1.0_g_0.2_b_0.2_sc_r_1.0_g_1.0_b_1.0_ec_r_0.0_g_0.0_b_0_mat"/>
                        </technique_common>
                    </bind_material>
                </instance_geometry>
            </node>
        </visual_scene>
    </library_visual_scenes>
    <scene>
        <instance_visual_scene url="#Building_DEBW_5221000QWv7"/>
    </scene>
</COLLADA>
