<?xml version="1.0" encoding="UTF-8" standalone="yes"?>
<COLLADA xmlns="http://www.collada.org/2005/11/COLLADASchema" version="1.4.1">
    <asset>
        <contributor>
            <authoring_tool>3D City Database Importer/Exporter, version 5.5.3; Chair of Geoinformatics, Technical University of Munich</authoring_tool>
        </contributor>
        <created>2026-05-06T15:12:10.486</created>
        <modified>2026-05-06T15:12:10.486</modified>
        <unit meter="1.0" name="meters"/>
        <up_axis>Z_UP</up_axis>
    </asset>
    <library_materials>
        <material id="default_ai_0.2_sh_0.2_tr_0.0_dc_r_0.8_g_0.8_b_0.8_sc_r_1.0_g_1.0_b_1.0_ec_r_0.0_g_0.0_b_0_mat">
            <instance_effect url="#default_ai_0.2_sh_0.2_tr_0.0_dc_r_0.8_g_0.8_b_0.8_sc_r_1.0_g_1.0_b_1.0_ec_r_0.0_g_0.0_b_0_eff"/>
        </material>
        <material id="default_ai_0.2_sh_0.2_tr_0.0_dc_r_1.0_g_0.2_b_0.2_sc_r_1.0_g_1.0_b_1.0_ec_r_0.0_g_0.0_b_0_mat">
            <instance_effect url="#default_ai_0.2_sh_0.2_tr_0.0_dc_r_1.0_g_0.2_b_0.2_sc_r_1.0_g_1.0_b_1.0_ec_r_0.0_g_0.0_b_0_eff"/>
        </material>
    </library_materials>
    <library_effects>
        <effect id="default_ai_0.2_sh_0.2_tr_0.0_dc_r_0.8_g_0.8_b_0.8_sc_r_1.0_g_1.0_b_1.0_ec_r_0.0_g_0.0_b_0_eff">
            <profile_COMMON>
                <technique sid="COMMON">
                    <lambert>
                        <emission>
                            <color>0.0 0.0 0.0 1.0</color>
                        </emission>
                        <diffuse>
                            <color>0.8 0.8 0.8 1.0</color>
                        </diffuse>
                        <reflective>
                            <color>1.0 1.0 1.0 1.0</color>
                        </reflective>
                        <reflectivity>
                            <float>0.2</float>
                        </reflectivity>
                        <transparent opaque="A_ONE">
                            <color>1.0 1.0 1.0 1.0</color>
                        </transparent>
                        <transparency>
                            <float>1.0</float>
                        </transparency>
                    </lambert>
                </technique>
                <extra>
                    <technique profile="GOOGLEEARTH">
                        <double_sided>0</double_sided>
                    </technique>
                </extra>
            </profile_COMMON>
        </effect>
        <effect id="default_ai_0.2_sh_0.2_tr_0.0_dc_r_1.0_g_0.2_b_0.2_sc_r_1.0_g_1.0_b_1.0_ec_r_0.0_g_0.0_b_0_eff">
            <profile_COMMON>
                <technique sid="COMMON">
                    <lambert>
                        <emission>
                            <color>0.0 0.0 0.0 1.0</color>
                        </emission>
                        <diffuse>
                            <color>1.0 0.2 0.2 1.0</color>
                        </diffuse>
                        <reflective>
                            <color>1.0 1.0 1.0 1.0</color>
                        </reflective>
                        <reflectivity>
                            <float>0.2</float>
                        </reflectivity>
                        <transparent opaque="A_ONE">
                            <color>1.0 1.0 1.0 1.0</color>
                        </transparent>
                        <transparency>
                            <float>1.0</float>
                        </transparency>
                    </lambert>
                </technique>
                <extra>
                    <technique profile="GOOGLEEARTH">
                        <double_sided>0</double_sided>
                    </technique>
                </extra>
            </profile_COMMON>
        </effect>
    </library_effects>
    <library_geometries>
        <geometry id="geometry0">
            <mesh>
                <source id="geometry0-position">
                    <float_array id="geometry0-position-array" count="78">-10.02 -15.9 10.946 2.24 -13.91 10.008 -4.441 -14.995 15.423 -1.11 -0.17 10.892 0.0 0.0 9.993 0.0 0.0 0.0 -1.11 -0.17 0.0 -10.72 -11.65 10.938 -10.72 -11.65 0.0 -10.02 -15.9 0.0 -13.04 -4.12 10.08 -13.83 0.34 10.028 -13.83 0.34 0.0 -13.04 -4.12 0.0 -11.31 -11.75 10.464 -12.05 -7.28 10.453 -12.05 -7.28 0.0 -11.31 -11.75 0.0 -11.81 -3.92 0.0 -1.5 2.31 0.0 2.24 -13.91 0.0 -11.3 -7.16 0.0 -1.5 2.31 10.882 -7.105 1.414 15.423 -11.3 -7.16 11.055 -11.81 -3.92 11.067</float_array>
                    <technique_common>
                        <accessor count="26" source="#geometry0-position-array" stride="3">
                            <param name="X" type="float"/>
                            <param name="Y" type="float"/>
                            <param name="Z" type="float"/>
                        </accessor>
                    </technique_common>
                </source>
                <source id="geometry0-normal">
                    <float_array id="geometry0-normal-array" count="246">0.1602111 -0.9870828 -1.135E-4 0.1602111 -0.9870828 -1.135E-4 0.1602111 -0.9870828 -1.135E-4 -0.157991 0.9874406 0.0 -0.157991 0.9874406 0.0 -0.157991 0.9874406 0.0 -0.157991 0.9874406 0.0 -0.6129013 -0.0994729 0.7838731 -0.6129061 -0.0994895 0.7838674 -0.6129009 -0.0994985 0.7838703 -0.6128849 -0.0995097 0.7838814 -0.6129119 -0.0995661 0.7838531 -0.6129445 -0.0994319 0.7838446 -0.6128925 -0.0995164 0.7838745 -0.6129163 -0.0994968 0.7838584 -0.6129457 -0.0995247 0.783832 -0.6131141 -0.0995713 0.7836943 -0.1577782 0.9874746 9.47E-5 -0.1577782 0.9874746 9.47E-5 -0.1577782 0.9874746 9.47E-5 0.1604937 -0.9870369 0.0 0.1604937 -0.9870369 0.0 0.1604937 -0.9870369 0.0 0.1604937 -0.9870369 0.0 -0.9846722 -0.174415 0.0 -0.9846722 -0.174415 0.0 -0.9846722 -0.174415 0.0 -0.9846722 -0.174415 0.0 -0.151388 0.9884744 0.0 -0.151388 0.9884744 0.0 -0.151388 0.9884744 0.0 -0.151388 0.9884744 0.0 0.1671088 -0.9859384 0.0 0.1671088 -0.9859384 0.0 0.1671088 -0.9859384 0.0 0.1671088 -0.9859384 0.0 0.1602196 -0.9870814 0.0 0.1602196 -0.9870814 0.0 0.1602196 -0.9870814 0.0 0.1602195 -0.9870814 0.0 -0.1577718 0.9874756 0.0 -0.1577718 0.9874756 0.0 -0.1577718 0.9874756 0.0 -0.1577718 0.9874756 0.0 -0.987837 -0.1554929 0.0 -0.987837 -0.1554929 0.0 -0.987837 -0.1554929 0.0 -0.987837 -0.1554929 0.0 0.9878597 0.1553489 0.0 0.9878597 0.1553489 0.0 0.9878597 0.1553489 0.0 0.9878597 0.1553489 0.0 -0.9865723 -0.1633251 0.0 -0.9865723 -0.1633251 0.0 -0.9865723 -0.1633251 0.0 -0.9865723 -0.1633251 0.0 0.9872807 0.158987 0.0 0.9872807 0.158987 0.0 0.9872807 0.158987 0.0 0.9872807 0.158987 0.0 0.6166288 0.1001104 0.7808629 0.6166339 0.1001105 0.7808589 0.6167206 0.1001326 0.7807876 0.6167182 0.1001352 0.7807891 0.616627 0.1001183 0.7808632 0.6169023 0.1001848 0.7806373 -0.9867059 -0.1625162 0.0 -0.9867059 -0.1625162 0.0 -0.9867059 -0.1625162 0.0 -0.9867059 -0.1625162 0.0 0.0 0.0 -1.0 0.0 0.0 -1.0 0.0 0.0 -1.0 0.0 0.0 -1.0 0.0 0.0 -1.0 0.0 0.0 -1.0 0.0 0.0 -1.0 0.0 0.0 -1.0 0.0 0.0 -1.0 0.0 0.0 -1.0 0.0 0.0 -1.0 0.0 0.0 -1.0</float_array>
                    <technique_common>
                        <accessor count="82" source="#geometry0-normal-array" stride="3">
                            <param name="X" type="float"/>
                            <param name="Y" type="float"/>
                            <param name="Z" type="float"/>
                        </accessor>
                    </technique_common>
                </source>
                <vertices id="geometry0-vertex">
                    <input semantic="POSITION" source="#geometry0-position"/>
                </vertices>
                <triangles count="36" material="default_ai_0.2_sh_0.2_tr_0.0_dc_r_0.8_g_0.8_b_0.8_sc_r_1.0_g_1.0_b_1.0_ec_r_0.0_g_0.0_b_0_tri">
                    <input offset="0" semantic="VERTEX" source="#geometry0-vertex"/>
                    <input offset="1" semantic="NORMAL" source="#geometry0-normal"/>
                    <p>0 0 1 1 2 2 15 3 24 4 21 5 15 3 21 5 16 6 22 17 11 18 23 19 25 20 10 21 13 22 25 20 13 22 18 23 10 24 11 25 12 26 10 24 12 26 13 27 3 28 4 29 5 30 3 28 5 30 6 31 7 32 14 33 17 34 7 32 17 34 8 35 1 36 0 37 9 38 1 36 9 38 20 39 11 40 22 41 19 42 11 40 19 42 12 43 24 44 25 45 18 46 24 44 18 46 21 47 22 48 3 49 6 50 22 48 6 50 19 51 14 52 15 53 16 54 14 52 16 54 17 55 4 56 1 57 20 58 4 56 20 58 5 59 0 66 7 67 8 68 0 66 8 68 9 69 13 70 12 71 18 72 12 71 19 73 18 72 18 72 19 73 21 74 19 73 6 75 21 74 6 75 5 76 21 74 5 76 20 77 21 74 21 74 20 77 16 78 9 79 8 80 20 77 20 77 8 80 16 78 16 78 8 80 17 81</p>
                </triangles>
                <triangles count="12" material="default_ai_0.2_sh_0.2_tr_0.0_dc_r_1.0_g_0.2_b_0.2_sc_r_1.0_g_1.0_b_1.0_ec_r_0.0_g_0.0_b_0_tri">
                    <input offset="0" semantic="VERTEX" source="#geometry0-vertex"/>
                    <input offset="1" semantic="NORMAL" source="#geometry0-normal"/>
                    <p>0 7 2 8 7 9 2 8 23 10 7 9 7 9 23 10 14 11 11 12 10 13 23 10 10 13 25 14 23 10 25 14 24 15 23 10 23 10 24 15 14 11 14 11 24 15 15 16 23 60 2 61 1 62 3 63 22 64 23 60 3 63 23 60 1 62 3 63 1 62 4 65</p>
                </triangles>
            </mesh>
        </geometry>
    </library_geometries>
    <library_visual_scenes>
        <visual_scene id="Building_DEBW_5221000QnfR">
            <node>
                <instance_geometry url="#geometry0">
                    <bind_material>
                        <technique_common>
                            <instance_material symbol="default_ai_0.2_sh_0.2_tr_0.0_dc_r_0.8_g_0.8_b_0.8_sc_r_1.0_g_1.0_b_1.0_ec_r_0.0_g_0.0_b_0_tri" target="#default_ai_0.2_sh_0.2_tr_0.0_dc_r_0.8_g_0.8_b_0.8_sc_r_1.0_g_1.0_b_1.0_ec_r_0.0_g_0.0_b_0_mat"/>
                            <instance_material symbol="default_ai_0.2_sh_0.2_tr_0.0_dc_r_1.0_g_0.2_b_0.2_sc_r_1.0_g_1.0_b_1.0_ec_r_0.0_g_0.0_b_0_tri" target="#default_ai_0.2_sh_0.2_tr_0.0_dc_r_1.0_g_0.2_b_0.2_sc_r_1.0_g_1.0_b_1.0_ec_r_0.0_g_0.0_b_0_mat"/>
                        </technique_common>
                    </bind_material>
                </instance_geometry>
            </node>
        </visual_scene>
    </library_visual_scenes>
    <scene>
        <instance_visual_scene url="#Building_DEBW_5221000QnfR"/>
    </scene>
</COLLADA>
