<?xml version="1.0" encoding="UTF-8" standalone="yes"?>
<COLLADA xmlns="http://www.collada.org/2005/11/COLLADASchema" version="1.4.1">
    <asset>
        <contributor>
            <authoring_tool>3D City Database Importer/Exporter, version 5.5.3; Chair of Geoinformatics, Technical University of Munich</authoring_tool>
        </contributor>
        <created>2026-05-06T15:12:13.420</created>
        <modified>2026-05-06T15:12:13.420</modified>
        <unit meter="1.0" name="meters"/>
        <up_axis>Z_UP</up_axis>
    </asset>
    <library_materials>
        <material id="default_ai_0.2_sh_0.2_tr_0.0_dc_r_0.8_g_0.8_b_0.8_sc_r_1.0_g_1.0_b_1.0_ec_r_0.0_g_0.0_b_0_mat">
            <instance_effect url="#default_ai_0.2_sh_0.2_tr_0.0_dc_r_0.8_g_0.8_b_0.8_sc_r_1.0_g_1.0_b_1.0_ec_r_0.0_g_0.0_b_0_eff"/>
        </material>
        <material id="default_ai_0.2_sh_0.2_tr_0.0_dc_r_1.0_g_0.2_b_0.2_sc_r_1.0_g_1.0_b_1.0_ec_r_0.0_g_0.0_b_0_mat">
            <instance_effect url="#default_ai_0.2_sh_0.2_tr_0.0_dc_r_1.0_g_0.2_b_0.2_sc_r_1.0_g_1.0_b_1.0_ec_r_0.0_g_0.0_b_0_eff"/>
        </material>
    </library_materials>
    <library_effects>
        <effect id="default_ai_0.2_sh_0.2_tr_0.0_dc_r_0.8_g_0.8_b_0.8_sc_r_1.0_g_1.0_b_1.0_ec_r_0.0_g_0.0_b_0_eff">
            <profile_COMMON>
                <technique sid="COMMON">
                    <lambert>
                        <emission>
                            <color>0.0 0.0 0.0 1.0</color>
                        </emission>
                        <diffuse>
                            <color>0.8 0.8 0.8 1.0</color>
                        </diffuse>
                        <reflective>
                            <color>1.0 1.0 1.0 1.0</color>
                        </reflective>
                        <reflectivity>
                            <float>0.2</float>
                        </reflectivity>
                        <transparent opaque="A_ONE">
                            <color>1.0 1.0 1.0 1.0</color>
                        </transparent>
                        <transparency>
                            <float>1.0</float>
                        </transparency>
                    </lambert>
                </technique>
                <extra>
                    <technique profile="GOOGLEEARTH">
                        <double_sided>0</double_sided>
                    </technique>
                </extra>
            </profile_COMMON>
        </effect>
        <effect id="default_ai_0.2_sh_0.2_tr_0.0_dc_r_1.0_g_0.2_b_0.2_sc_r_1.0_g_1.0_b_1.0_ec_r_0.0_g_0.0_b_0_eff">
            <profile_COMMON>
                <technique sid="COMMON">
                    <lambert>
                        <emission>
                            <color>0.0 0.0 0.0 1.0</color>
                        </emission>
                        <diffuse>
                            <color>1.0 0.2 0.2 1.0</color>
                        </diffuse>
                        <reflective>
                            <color>1.0 1.0 1.0 1.0</color>
                        </reflective>
                        <reflectivity>
                            <float>0.2</float>
                        </reflectivity>
                        <transparent opaque="A_ONE">
                            <color>1.0 1.0 1.0 1.0</color>
                        </transparent>
                        <transparency>
                            <float>1.0</float>
                        </transparency>
                    </lambert>
                </technique>
                <extra>
                    <technique profile="GOOGLEEARTH">
                        <double_sided>0</double_sided>
                    </technique>
                </extra>
            </profile_COMMON>
        </effect>
    </library_effects>
    <library_geometries>
        <geometry id="geometry0">
            <mesh>
                <source id="geometry0-position">
                    <float_array id="geometry0-position-array" count="120">-0.46 0.633 35.0 0.0 0.0 35.0 0.0 0.0 0.0 -0.46 0.633 0.0 0.241 -0.744 35.0 0.241 -0.744 0.0 0.241 -1.526 35.0 0.241 -1.526 0.0 0.0 -2.27 35.0 0.0 -2.27 0.0 -0.46 -2.903 35.0 -0.46 -2.903 0.0 -1.093 -3.363 35.0 -1.093 -3.363 0.0 -1.837 -3.604 35.0 -1.837 -3.604 0.0 -2.619 -3.604 35.0 -2.619 -3.604 0.0 -3.363 -3.363 35.0 -3.363 -3.363 0.0 -3.996 -2.903 35.0 -3.996 -2.903 0.0 -4.456 -2.27 35.0 -4.456 -2.27 0.0 -4.697 -1.526 35.0 -4.697 -1.526 0.0 -4.697 -0.744 35.0 -4.697 -0.744 0.0 -4.456 0.0 35.0 -4.456 0.0 0.0 -3.996 0.633 35.0 -3.996 0.633 0.0 -3.363 1.093 35.0 -3.363 1.093 0.0 -2.619 1.334 35.0 -2.619 1.334 0.0 -1.837 1.334 35.0 -1.837 1.334 0.0 -1.093 1.093 35.0 -1.093 1.093 0.0</float_array>
                    <technique_common>
                        <accessor count="40" source="#geometry0-position-array" stride="3">
                            <param name="X" type="float"/>
                            <param name="Y" type="float"/>
                            <param name="Z" type="float"/>
                        </accessor>
                    </technique_common>
                </source>
                <source id="geometry0-normal">
                    <float_array id="geometry0-normal-array" count="684">0.808957 0.5878677 0.0 0.808957 0.5878677 0.0 0.808957 0.5878677 0.0 1.0 0.0 0.0 1.0 0.0 0.0 1.0 0.0 0.0 0.9513344 0.3081607 0.0 0.9513344 0.3081607 0.0 0.9513344 0.3081607 0.0 0.9513344 0.3081607 0.0 0.9513344 0.3081607 0.0 0.9513344 0.3081607 0.0 0.808957 0.5878677 0.0 0.808957 0.5878677 0.0 0.808957 0.5878677 0.0 0.8089571 -0.5878676 0.0 0.8089571 -0.5878676 0.0 0.8089571 -0.5878676 0.0 0.9513343 -0.3081607 0.0 0.9513343 -0.3081607 0.0 0.9513343 -0.3081607 0.0 0.9513343 -0.3081607 0.0 0.9513343 -0.3081607 0.0 0.9513343 -0.3081607 0.0 1.0 0.0 0.0 1.0 0.0 0.0 1.0 0.0 0.0 0.3081609 -0.9513342 0.0 0.3081609 -0.9513342 0.0 0.3081609 -0.9513342 0.0 0.5878675 -0.8089572 0.0 0.5878675 -0.8089572 0.0 0.5878675 -0.8089572 0.0 0.5878675 -0.8089572 0.0 0.5878675 -0.8089572 0.0 0.5878675 -0.8089572 0.0 0.8089571 -0.5878676 0.0 0.8089571 -0.5878676 0.0 0.8089571 -0.5878676 0.0 -0.3081609 -0.9513342 0.0 -0.3081609 -0.9513342 0.0 -0.3081609 -0.9513342 0.0 0.0 -1.0 0.0 0.0 -1.0 0.0 0.0 -1.0 0.0 0.0 -1.0 0.0 0.0 -1.0 0.0 0.0 -1.0 0.0 0.3081609 -0.9513342 0.0 0.3081609 -0.9513342 0.0 0.3081609 -0.9513342 0.0 -0.8089573 -0.5878674 0.0 -0.8089573 -0.5878674 0.0 -0.8089573 -0.5878674 0.0 -0.5878674 -0.8089573 0.0 -0.5878674 -0.8089573 0.0 -0.5878674 -0.8089573 0.0 -0.5878674 -0.8089573 0.0 -0.5878674 -0.8089573 0.0 -0.5878674 -0.8089573 0.0 -0.3081609 -0.9513342 0.0 -0.3081609 -0.9513342 0.0 -0.3081609 -0.9513342 0.0 -1.0 0.0 0.0 -1.0 0.0 0.0 -1.0 0.0 0.0 -0.9513342 -0.3081609 0.0 -0.9513342 -0.3081609 0.0 -0.9513342 -0.3081609 0.0 -0.9513342 -0.3081609 0.0 -0.9513342 -0.3081609 0.0 -0.9513342 -0.3081609 0.0 -0.8089573 -0.5878674 0.0 -0.8089573 -0.5878674 0.0 -0.8089573 -0.5878674 0.0 -0.8089572 0.5878675 0.0 -0.8089572 0.5878675 0.0 -0.8089572 0.5878675 0.0 -0.9513342 0.3081609 0.0 -0.9513342 0.3081609 0.0 -0.9513342 0.3081609 0.0 -0.9513342 0.3081609 0.0 -0.9513342 0.3081609 0.0 -0.9513342 0.3081609 0.0 -1.0 0.0 0.0 -1.0 0.0 0.0 -1.0 0.0 0.0 -0.3081607 0.9513344 0.0 -0.3081607 0.9513344 0.0 -0.3081607 0.9513344 0.0 -0.5878677 0.8089571 0.0 -0.5878677 0.8089571 0.0 -0.5878677 0.8089571 0.0 -0.5878677 0.8089571 0.0 -0.5878677 0.8089571 0.0 -0.5878677 0.8089571 0.0 -0.8089572 0.5878675 0.0 -0.8089572 0.5878675 0.0 -0.8089572 0.5878675 0.0 0.3081607 0.9513344 0.0 0.3081607 0.9513344 0.0 0.3081607 0.9513344 0.0 0.0 1.0 0.0 0.0 1.0 0.0 0.0 1.0 0.0 0.0 1.0 0.0 0.0 1.0 0.0 0.0 1.0 0.0 -0.3081607 0.9513344 0.0 -0.3081607 0.9513344 0.0 -0.3081607 0.9513344 0.0 0.5878677 0.808957 0.0 0.5878677 0.808957 0.0 0.5878677 0.808957 0.0 0.5878677 0.808957 0.0 0.5878677 0.808957 0.0 0.5878677 0.808957 0.0 0.3081607 0.9513344 0.0 0.3081607 0.9513344 0.0 0.3081607 0.9513344 0.0 0.0 0.0 1.0 0.0 0.0 1.0 0.0 0.0 1.0 0.0 0.0 1.0 0.0 0.0 1.0 0.0 0.0 1.0 0.0 0.0 1.0 0.0 0.0 1.0 0.0 0.0 1.0 0.0 0.0 1.0 0.0 0.0 1.0 0.0 0.0 1.0 0.0 0.0 1.0 0.0 0.0 1.0 0.0 0.0 1.0 0.0 0.0 1.0 0.0 0.0 1.0 0.0 0.0 1.0 0.0 0.0 1.0 0.0 0.0 1.0 0.0 0.0 1.0 0.0 0.0 1.0 0.0 0.0 1.0 0.0 0.0 1.0 0.0 0.0 1.0 0.0 0.0 1.0 0.0 0.0 1.0 0.0 0.0 1.0 0.0 0.0 1.0 0.0 0.0 1.0 0.0 0.0 -1.0 0.0 0.0 -1.0 0.0 0.0 -1.0 0.0 0.0 1.0 0.0 0.0 1.0 0.0 0.0 1.0 0.0 0.0 -1.0 0.0 0.0 -1.0 0.0 0.0 -1.0 0.0 0.0 1.0 0.0 0.0 1.0 0.0 0.0 1.0 0.0 0.0 -1.0 0.0 0.0 -1.0 0.0 0.0 -1.0 0.0 0.0 1.0 0.0 0.0 1.0 0.0 0.0 1.0 0.0 0.0 -1.0 0.0 0.0 -1.0 0.0 0.0 -1.0 0.0 0.0 1.0 0.0 0.0 1.0 0.0 0.0 1.0 0.0 0.0 -1.0 0.0 0.0 -1.0 0.0 0.0 -1.0 0.0 0.0 1.0 0.0 0.0 1.0 0.0 0.0 1.0 0.0 0.0 -1.0 0.0 0.0 -1.0 0.0 0.0 -1.0 0.0 0.0 1.0 0.0 0.0 1.0 0.0 0.0 1.0 0.0 0.0 -1.0 0.0 0.0 -1.0 0.0 0.0 -1.0 0.0 0.0 1.0 0.0 0.0 1.0 0.0 0.0 1.0 0.0 0.0 -1.0 0.0 0.0 -1.0 0.0 0.0 -1.0 0.0 0.0 1.0 0.0 0.0 1.0 0.0 0.0 1.0 0.0 0.0 -1.0 0.0 0.0 -1.0 0.0 0.0 -1.0 0.0 0.0 -1.0 0.0 0.0 -1.0 0.0 0.0 -1.0 0.0 0.0 -1.0 0.0 0.0 -1.0 0.0 0.0 -1.0 0.0 0.0 -1.0 0.0 0.0 -1.0 0.0 0.0 -1.0 0.0 0.0 -1.0 0.0 0.0 -1.0 0.0 0.0 -1.0 0.0 0.0 -1.0 0.0 0.0 -1.0 0.0 0.0 -1.0 0.0 0.0 -1.0 0.0 0.0 -1.0 0.0 0.0 -1.0 0.0 0.0 -1.0 0.0 0.0 -1.0 0.0 0.0 -1.0 0.0 0.0 -1.0 0.0 0.0 -1.0 0.0 0.0 -1.0 0.0 0.0 -1.0 0.0 0.0 -1.0 0.0 0.0 -1.0</float_array>
                    <technique_common>
                        <accessor count="228" source="#geometry0-normal-array" stride="3">
                            <param name="X" type="float"/>
                            <param name="Y" type="float"/>
                            <param name="Z" type="float"/>
                        </accessor>
                    </technique_common>
                </source>
                <vertices id="geometry0-vertex">
                    <input semantic="POSITION" source="#geometry0-position"/>
                </vertices>
                <triangles count="58" material="default_ai_0.2_sh_0.2_tr_0.0_dc_r_0.8_g_0.8_b_0.8_sc_r_1.0_g_1.0_b_1.0_ec_r_0.0_g_0.0_b_0_tri">
                    <input offset="0" semantic="VERTEX" source="#geometry0-vertex"/>
                    <input offset="1" semantic="NORMAL" source="#geometry0-normal"/>
                    <p>0 0 1 1 2 2 4 3 6 4 7 5 1 6 5 7 2 8 1 9 4 10 5 11 0 12 2 13 3 14 8 15 10 16 11 17 6 18 9 19 7 20 6 21 8 22 9 23 4 24 7 25 5 26 12 27 14 28 15 29 10 30 13 31 11 32 10 33 12 34 13 35 8 36 11 37 9 38 16 39 18 40 19 41 14 42 17 43 15 44 14 45 16 46 17 47 12 48 15 49 13 50 20 51 22 52 23 53 18 54 21 55 19 56 18 57 20 58 21 59 16 60 19 61 17 62 24 63 26 64 27 65 22 66 25 67 23 68 22 69 24 70 25 71 20 72 23 73 21 74 28 75 30 76 31 77 26 78 29 79 27 80 26 81 28 82 29 83 24 84 27 85 25 86 32 87 34 88 35 89 30 90 33 91 31 92 30 93 32 94 33 95 28 96 31 97 29 98 36 99 38 100 39 101 34 102 37 103 35 104 34 105 36 106 37 107 32 108 35 109 33 110 38 111 3 112 39 113 38 114 0 115 3 116 36 117 39 118 37 119 39 150 7 151 9 152 39 156 5 157 7 158 39 162 2 163 5 164 39 168 3 169 2 170 39 174 15 175 17 176 39 180 13 181 15 182 39 186 11 187 13 188 39 192 9 193 11 194 39 198 23 199 25 200 39 201 21 202 23 203 39 204 19 205 21 206 39 207 17 208 19 209 39 210 31 211 33 212 39 213 29 214 31 215 39 216 27 217 29 218 39 219 25 220 27 221 39 222 35 223 37 224 39 225 33 226 35 227</p>
                </triangles>
                <triangles count="18" material="default_ai_0.2_sh_0.2_tr_0.0_dc_r_1.0_g_0.2_b_0.2_sc_r_1.0_g_1.0_b_1.0_ec_r_0.0_g_0.0_b_0_tri">
                    <input offset="0" semantic="VERTEX" source="#geometry0-vertex"/>
                    <input offset="1" semantic="NORMAL" source="#geometry0-normal"/>
                    <p>4 120 0 121 38 122 4 123 1 124 0 125 4 126 32 127 30 128 4 129 34 130 32 131 4 132 36 133 34 134 4 135 38 136 36 137 4 138 24 139 22 140 4 141 26 142 24 143 4 144 28 145 26 146 4 147 30 148 28 149 4 153 16 154 14 155 4 159 18 160 16 161 4 165 20 166 18 167 4 171 22 172 20 173 4 177 8 178 6 179 4 183 10 184 8 185 4 189 12 190 10 191 4 195 14 196 12 197</p>
                </triangles>
            </mesh>
        </geometry>
    </library_geometries>
    <library_visual_scenes>
        <visual_scene id="Building_DEBW_B010000T0Kr">
            <node>
                <instance_geometry url="#geometry0">
                    <bind_material>
                        <technique_common>
                            <instance_material symbol="default_ai_0.2_sh_0.2_tr_0.0_dc_r_0.8_g_0.8_b_0.8_sc_r_1.0_g_1.0_b_1.0_ec_r_0.0_g_0.0_b_0_tri" target="#default_ai_0.2_sh_0.2_tr_0.0_dc_r_0.8_g_0.8_b_0.8_sc_r_1.0_g_1.0_b_1.0_ec_r_0.0_g_0.0_b_0_mat"/>
                            <instance_material symbol="default_ai_0.2_sh_0.2_tr_0.0_dc_r_1.0_g_0.2_b_0.2_sc_r_1.0_g_1.0_b_1.0_ec_r_0.0_g_0.0_b_0_tri" target="#default_ai_0.2_sh_0.2_tr_0.0_dc_r_1.0_g_0.2_b_0.2_sc_r_1.0_g_1.0_b_1.0_ec_r_0.0_g_0.0_b_0_mat"/>
                        </technique_common>
                    </bind_material>
                </instance_geometry>
            </node>
        </visual_scene>
    </library_visual_scenes>
    <scene>
        <instance_visual_scene url="#Building_DEBW_B010000T0Kr"/>
    </scene>
</COLLADA>
