<?xml version="1.0" encoding="UTF-8" standalone="yes"?>
<COLLADA xmlns="http://www.collada.org/2005/11/COLLADASchema" version="1.4.1">
    <asset>
        <contributor>
            <authoring_tool>3D City Database Importer/Exporter, version 5.5.3; Chair of Geoinformatics, Technical University of Munich</authoring_tool>
        </contributor>
        <created>2026-05-06T15:12:13.650</created>
        <modified>2026-05-06T15:12:13.650</modified>
        <unit meter="1.0" name="meters"/>
        <up_axis>Z_UP</up_axis>
    </asset>
    <library_materials>
        <material id="default_ai_0.2_sh_0.2_tr_0.0_dc_r_0.8_g_0.8_b_0.8_sc_r_1.0_g_1.0_b_1.0_ec_r_0.0_g_0.0_b_0_mat">
            <instance_effect url="#default_ai_0.2_sh_0.2_tr_0.0_dc_r_0.8_g_0.8_b_0.8_sc_r_1.0_g_1.0_b_1.0_ec_r_0.0_g_0.0_b_0_eff"/>
        </material>
        <material id="default_ai_0.2_sh_0.2_tr_0.0_dc_r_1.0_g_0.2_b_0.2_sc_r_1.0_g_1.0_b_1.0_ec_r_0.0_g_0.0_b_0_mat">
            <instance_effect url="#default_ai_0.2_sh_0.2_tr_0.0_dc_r_1.0_g_0.2_b_0.2_sc_r_1.0_g_1.0_b_1.0_ec_r_0.0_g_0.0_b_0_eff"/>
        </material>
    </library_materials>
    <library_effects>
        <effect id="default_ai_0.2_sh_0.2_tr_0.0_dc_r_0.8_g_0.8_b_0.8_sc_r_1.0_g_1.0_b_1.0_ec_r_0.0_g_0.0_b_0_eff">
            <profile_COMMON>
                <technique sid="COMMON">
                    <lambert>
                        <emission>
                            <color>0.0 0.0 0.0 1.0</color>
                        </emission>
                        <diffuse>
                            <color>0.8 0.8 0.8 1.0</color>
                        </diffuse>
                        <reflective>
                            <color>1.0 1.0 1.0 1.0</color>
                        </reflective>
                        <reflectivity>
                            <float>0.2</float>
                        </reflectivity>
                        <transparent opaque="A_ONE">
                            <color>1.0 1.0 1.0 1.0</color>
                        </transparent>
                        <transparency>
                            <float>1.0</float>
                        </transparency>
                    </lambert>
                </technique>
                <extra>
                    <technique profile="GOOGLEEARTH">
                        <double_sided>0</double_sided>
                    </technique>
                </extra>
            </profile_COMMON>
        </effect>
        <effect id="default_ai_0.2_sh_0.2_tr_0.0_dc_r_1.0_g_0.2_b_0.2_sc_r_1.0_g_1.0_b_1.0_ec_r_0.0_g_0.0_b_0_eff">
            <profile_COMMON>
                <technique sid="COMMON">
                    <lambert>
                        <emission>
                            <color>0.0 0.0 0.0 1.0</color>
                        </emission>
                        <diffuse>
                            <color>1.0 0.2 0.2 1.0</color>
                        </diffuse>
                        <reflective>
                            <color>1.0 1.0 1.0 1.0</color>
                        </reflective>
                        <reflectivity>
                            <float>0.2</float>
                        </reflectivity>
                        <transparent opaque="A_ONE">
                            <color>1.0 1.0 1.0 1.0</color>
                        </transparent>
                        <transparency>
                            <float>1.0</float>
                        </transparency>
                    </lambert>
                </technique>
                <extra>
                    <technique profile="GOOGLEEARTH">
                        <double_sided>0</double_sided>
                    </technique>
                </extra>
            </profile_COMMON>
        </effect>
    </library_effects>
    <library_geometries>
        <geometry id="geometry0">
            <mesh>
                <source id="geometry0-position">
                    <float_array id="geometry0-position-array" count="90">0.0 0.0 0.0 -0.36 1.07 0.0 3.93 2.576 0.0 4.31 1.47 0.0 0.0 0.0 8.781 -0.36 1.07 10.058 3.93 2.576 10.104 4.31 1.47 8.781 1.854 1.847 10.082 3.931 2.576 10.089 2.29 7.368 13.991 3.931 2.577 10.089 3.931 2.577 0.0 2.29 7.368 0.0 -0.36 1.07 10.074 -7.48 -1.43 10.048 -7.48 -1.43 0.0 -10.43 7.12 12.298 -7.05 8.28 12.302 -7.05 8.28 0.0 -10.43 7.12 0.0 -9.149 3.408 13.991 -9.149 3.408 0.0 1.854 1.848 10.082 -4.34 9.2 0.0 1.03 11.03 0.0 2.09 7.95 0.0 2.09 7.95 13.726 1.03 11.03 12.321 -4.34 9.2 12.309</float_array>
                    <technique_common>
                        <accessor count="30" source="#geometry0-position-array" stride="3">
                            <param name="X" type="float"/>
                            <param name="Y" type="float"/>
                            <param name="Z" type="float"/>
                        </accessor>
                    </technique_common>
                </source>
                <source id="geometry0-normal">
                    <float_array id="geometry0-normal-array" count="303">-0.3225662 0.9465469 0.0 -0.3225662 0.9465469 0.0 -0.3225662 0.9465469 0.0 -0.3225662 0.9465469 0.0 -0.3310331 0.943361 -0.0220673 -0.3310331 0.943361 -0.0220673 -0.3310331 0.943361 -0.0220673 0.3312947 -0.9435274 0.0 0.3312947 -0.9435274 0.0 0.3312947 -0.9435274 0.0 0.3312947 -0.9435274 0.0 0.3312947 -0.9435274 0.0 -0.9477938 -0.3188839 0.0 -0.9477938 -0.3188839 0.0 -0.9477938 -0.3188839 0.0 -0.9477938 -0.3188839 0.0 0.3228081 -0.9464645 0.0 0.3228081 -0.9464645 0.0 0.3228081 -0.9464645 0.0 0.3228081 -0.9464645 0.0 0.9455686 0.3254229 0.0 0.9455686 0.3254229 0.0 0.9455686 0.3254229 0.0 0.9455686 0.3254229 0.0 0.3311971 -0.9434014 0.0173835 0.3305731 -0.9423393 0.0521349 0.3310786 -0.9432428 0.0260763 0.331359 -0.9435048 0.0 0.331359 -0.9435048 0.0 0.0 0.0 -1.0 0.0 0.0 -1.0 0.0 0.0 -1.0 0.0 0.0 -1.0 0.0 0.0 -1.0 0.0 0.0 -1.0 0.0 0.0 -1.0 0.0 0.0 -1.0 0.0 0.0 -1.0 0.0 0.0 -1.0 0.0 0.0 -1.0 0.0 0.0 -1.0 0.0 0.0 -1.0 0.0 0.0 -1.0 0.9460446 0.3240365 0.0 0.9460446 0.3240365 0.0 0.9460446 0.3240365 0.0 0.9460446 0.3240365 0.0 0.2418462 -0.7091204 0.6623131 0.2418503 -0.7090985 0.6623351 0.2418462 -0.7091204 0.6623131 0.241842 -0.7091423 0.6622912 0.2640895 -0.7331484 -0.6266979 0.2640895 -0.7331484 -0.6266979 0.2640895 -0.7331484 -0.6266979 -0.1355305 0.3917886 0.9100182 -0.1295163 0.3741255 0.9182895 -0.1295237 0.3739076 0.9183773 -0.1295369 0.3739856 0.9183437 -0.148441 0.4298338 0.8906224 -0.1444516 0.4181953 0.8967978 -0.1212957 0.3502281 0.9287775 0.9457359 0.3249363 0.0 0.9457359 0.3249363 0.0 0.9457359 0.3249363 0.0 0.9457359 0.3249363 0.0 -0.9453294 -0.3261172 0.0 -0.9453294 -0.3261172 0.0 -0.9453294 -0.3261172 0.0 -0.9453294 -0.3261172 0.0 -0.3214642 0.9469217 0.0 -0.3214642 0.9469217 0.0 -0.3214642 0.9469217 0.0 -0.3214642 0.9469218 0.0 0.199687 -0.5766798 0.7921903 0.1996657 -0.5767615 0.7921362 0.1996773 -0.5766984 0.7921793 0.1996831 -0.5766668 0.7922008 0.1996578 -0.5767355 0.7921571 -0.0520515 0.1379589 0.9890692 -0.0520515 0.1379589 0.9890692 -0.0520515 0.1379589 0.9890692 -0.3311866 0.9435653 1.79E-5 -0.3311801 0.9435676 3.28E-5 -0.331206 0.9435585 2.68E-5 -0.3311898 0.9435642 1.04E-5 -0.3311476 0.943579 0.0 -0.3246104 0.9458479 0.0 -0.3246104 0.9458478 0.0 -0.3246104 0.9458479 0.0 -0.3246104 0.9458479 0.0 0.9457178 0.3249891 0.0 0.9457178 0.3249891 0.0 0.9457178 0.3249891 0.0 0.9457178 0.3249891 0.0 0.331527 -0.9434457 0.0 0.331527 -0.9434457 0.0 0.331527 -0.9434457 0.0 -0.9452945 -0.3262183 0.0 -0.9452944 -0.3262183 0.0 -0.9452945 -0.3262183 0.0 -0.9452945 -0.3262183 0.0</float_array>
                    <technique_common>
                        <accessor count="101" source="#geometry0-normal-array" stride="3">
                            <param name="X" type="float"/>
                            <param name="Y" type="float"/>
                            <param name="Z" type="float"/>
                        </accessor>
                    </technique_common>
                </source>
                <vertices id="geometry0-vertex">
                    <input semantic="POSITION" source="#geometry0-position"/>
                </vertices>
                <triangles count="43" material="default_ai_0.2_sh_0.2_tr_0.0_dc_r_0.8_g_0.8_b_0.8_sc_r_1.0_g_1.0_b_1.0_ec_r_0.0_g_0.0_b_0_tri">
                    <input offset="0" semantic="VERTEX" source="#geometry0-vertex"/>
                    <input offset="1" semantic="NORMAL" source="#geometry0-normal"/>
                    <p>29 0 28 1 25 2 29 0 25 2 24 3 9 4 8 5 6 6 16 7 1 8 5 9 16 7 5 9 14 10 16 7 14 10 15 11 4 12 5 13 1 14 4 12 1 14 0 15 7 16 4 17 0 18 7 16 0 18 3 19 28 20 27 21 26 22 28 20 26 22 25 23 11 24 23 25 5 26 11 24 5 26 1 27 11 24 1 27 12 28 12 29 1 30 16 31 12 29 16 31 22 32 12 29 22 32 20 33 12 29 20 33 19 34 12 29 19 34 24 35 12 29 24 35 25 36 12 29 25 36 26 37 12 29 26 37 13 38 0 39 1 40 2 41 0 39 2 41 3 42 10 43 11 44 12 45 10 43 12 45 13 46 6 61 7 62 3 63 6 61 3 63 2 64 15 65 21 66 22 67 15 65 22 67 16 68 18 69 29 70 24 71 18 69 24 71 19 72 8 81 9 82 2 83 8 81 2 83 1 84 8 81 1 84 5 85 17 86 18 87 19 88 17 86 19 88 20 89 27 90 10 91 13 92 27 90 13 92 26 93 14 94 5 95 23 96 21 97 17 98 20 99 21 97 20 99 22 100</p>
                </triangles>
                <triangles count="12" material="default_ai_0.2_sh_0.2_tr_0.0_dc_r_1.0_g_0.2_b_0.2_sc_r_1.0_g_1.0_b_1.0_ec_r_0.0_g_0.0_b_0_tri">
                    <input offset="0" semantic="VERTEX" source="#geometry0-vertex"/>
                    <input offset="1" semantic="NORMAL" source="#geometry0-normal"/>
                    <p>5 47 4 48 7 49 5 47 7 49 6 50 5 51 6 52 8 53 17 54 21 55 10 56 17 54 10 56 27 57 17 54 27 57 28 58 17 54 28 58 29 59 17 54 29 59 18 60 11 73 10 74 21 75 23 76 11 73 21 75 23 76 21 75 15 77 23 78 15 79 14 80</p>
                </triangles>
            </mesh>
        </geometry>
    </library_geometries>
    <library_visual_scenes>
        <visual_scene id="Building_DEBW_5221000QaVE">
            <node>
                <instance_geometry url="#geometry0">
                    <bind_material>
                        <technique_common>
                            <instance_material symbol="default_ai_0.2_sh_0.2_tr_0.0_dc_r_0.8_g_0.8_b_0.8_sc_r_1.0_g_1.0_b_1.0_ec_r_0.0_g_0.0_b_0_tri" target="#default_ai_0.2_sh_0.2_tr_0.0_dc_r_0.8_g_0.8_b_0.8_sc_r_1.0_g_1.0_b_1.0_ec_r_0.0_g_0.0_b_0_mat"/>
                            <instance_material symbol="default_ai_0.2_sh_0.2_tr_0.0_dc_r_1.0_g_0.2_b_0.2_sc_r_1.0_g_1.0_b_1.0_ec_r_0.0_g_0.0_b_0_tri" target="#default_ai_0.2_sh_0.2_tr_0.0_dc_r_1.0_g_0.2_b_0.2_sc_r_1.0_g_1.0_b_1.0_ec_r_0.0_g_0.0_b_0_mat"/>
                        </technique_common>
                    </bind_material>
                </instance_geometry>
            </node>
        </visual_scene>
    </library_visual_scenes>
    <scene>
        <instance_visual_scene url="#Building_DEBW_5221000QaVE"/>
    </scene>
</COLLADA>
