<?xml version="1.0" encoding="UTF-8" standalone="yes"?>
<COLLADA xmlns="http://www.collada.org/2005/11/COLLADASchema" version="1.4.1">
    <asset>
        <contributor>
            <authoring_tool>3D City Database Importer/Exporter, version 5.5.3; Chair of Geoinformatics, Technical University of Munich</authoring_tool>
        </contributor>
        <created>2026-05-06T15:12:09.187</created>
        <modified>2026-05-06T15:12:09.187</modified>
        <unit meter="1.0" name="meters"/>
        <up_axis>Z_UP</up_axis>
    </asset>
    <library_materials>
        <material id="default_ai_0.2_sh_0.2_tr_0.0_dc_r_1.0_g_0.2_b_0.2_sc_r_1.0_g_1.0_b_1.0_ec_r_0.0_g_0.0_b_0_mat">
            <instance_effect url="#default_ai_0.2_sh_0.2_tr_0.0_dc_r_1.0_g_0.2_b_0.2_sc_r_1.0_g_1.0_b_1.0_ec_r_0.0_g_0.0_b_0_eff"/>
        </material>
        <material id="default_ai_0.2_sh_0.2_tr_0.0_dc_r_0.8_g_0.8_b_0.8_sc_r_1.0_g_1.0_b_1.0_ec_r_0.0_g_0.0_b_0_mat">
            <instance_effect url="#default_ai_0.2_sh_0.2_tr_0.0_dc_r_0.8_g_0.8_b_0.8_sc_r_1.0_g_1.0_b_1.0_ec_r_0.0_g_0.0_b_0_eff"/>
        </material>
    </library_materials>
    <library_effects>
        <effect id="default_ai_0.2_sh_0.2_tr_0.0_dc_r_1.0_g_0.2_b_0.2_sc_r_1.0_g_1.0_b_1.0_ec_r_0.0_g_0.0_b_0_eff">
            <profile_COMMON>
                <technique sid="COMMON">
                    <lambert>
                        <emission>
                            <color>0.0 0.0 0.0 1.0</color>
                        </emission>
                        <diffuse>
                            <color>1.0 0.2 0.2 1.0</color>
                        </diffuse>
                        <reflective>
                            <color>1.0 1.0 1.0 1.0</color>
                        </reflective>
                        <reflectivity>
                            <float>0.2</float>
                        </reflectivity>
                        <transparent opaque="A_ONE">
                            <color>1.0 1.0 1.0 1.0</color>
                        </transparent>
                        <transparency>
                            <float>1.0</float>
                        </transparency>
                    </lambert>
                </technique>
                <extra>
                    <technique profile="GOOGLEEARTH">
                        <double_sided>0</double_sided>
                    </technique>
                </extra>
            </profile_COMMON>
        </effect>
        <effect id="default_ai_0.2_sh_0.2_tr_0.0_dc_r_0.8_g_0.8_b_0.8_sc_r_1.0_g_1.0_b_1.0_ec_r_0.0_g_0.0_b_0_eff">
            <profile_COMMON>
                <technique sid="COMMON">
                    <lambert>
                        <emission>
                            <color>0.0 0.0 0.0 1.0</color>
                        </emission>
                        <diffuse>
                            <color>0.8 0.8 0.8 1.0</color>
                        </diffuse>
                        <reflective>
                            <color>1.0 1.0 1.0 1.0</color>
                        </reflective>
                        <reflectivity>
                            <float>0.2</float>
                        </reflectivity>
                        <transparent opaque="A_ONE">
                            <color>1.0 1.0 1.0 1.0</color>
                        </transparent>
                        <transparency>
                            <float>1.0</float>
                        </transparency>
                    </lambert>
                </technique>
                <extra>
                    <technique profile="GOOGLEEARTH">
                        <double_sided>0</double_sided>
                    </technique>
                </extra>
            </profile_COMMON>
        </effect>
    </library_effects>
    <library_geometries>
        <geometry id="geometry0">
            <mesh>
                <source id="geometry0-position">
                    <float_array id="geometry0-position-array" count="684">4.42 -0.21 9.114 0.0 0.0 9.114 0.0 0.0 8.752 0.0 0.0 0.0 4.42 -0.21 0.0 -21.904 1.041 0.0 -21.39 9.26 0.0 -20.54 22.84 0.0 3.637 21.398 0.0 5.889 21.264 0.0 5.889 21.264 9.114 3.637 21.398 9.114 -5.775 21.96 9.114 -20.221 22.821 9.114 -20.54 22.84 9.114 -21.39 9.26 9.114 -21.904 1.041 9.114 -20.54 22.84 8.998 -20.54 22.84 6.878 -21.39 9.26 8.994 -21.904 1.041 8.79 -21.904 1.041 8.994 3.637 21.398 6.902 3.637 21.398 6.878 5.341 42.659 12.569 5.341 42.66 12.569 5.341 42.66 0.0 5.341 42.659 0.0 5.341 42.659 10.202 14.078 42.094 12.569 14.08 42.12 12.569 14.4 46.88 12.569 6.74 47.31 12.569 6.4 42.65 12.569 14.078 42.094 10.189 14.078 42.094 0.0 14.08 42.12 0.0 6.4 42.65 0.0 6.74 47.31 0.0 14.4 46.88 0.0 7.344 42.529 0.0 7.344 42.529 10.202 7.344 42.529 10.189 3.637 21.399 10.202 5.889 21.264 10.202 6.16 25.22 10.202 5.32 42.66 10.202 4.807 36.185 10.202 5.32 42.66 0.0 6.16 25.22 0.0 3.637 21.399 0.0 4.194 28.43 0.0 6.16 25.22 10.189 5.32 42.66 8.792 4.194 28.43 8.809 4.194 28.43 8.792 4.194 28.43 6.878 3.637 21.399 6.878 3.637 21.399 9.114 -23.348 1.109 0.0 -22.91 9.32 0.0 -23.348 1.109 8.994 -22.91 9.32 8.994 -23.348 1.109 8.792 20.79 24.21 43.729 20.69 22.79 43.729 20.69 22.79 0.0 20.79 24.21 0.0 14.65 23.22 43.729 14.65 23.22 0.0 14.74 24.62 0.0 14.741 24.642 0.0 20.571 24.249 0.0 20.792 24.234 0.0 14.696 23.931 46.618 20.02 23.562 46.659 20.792 24.234 43.729 14.741 24.642 43.729 14.74 24.62 43.818 14.74 24.62 43.729 20.792 24.234 10.189 14.741 24.642 10.189 20.571 24.249 10.189 -26.749 24.826 12.611 -26.718 24.949 12.611 -26.718 24.949 0.0 -26.749 24.826 0.0 -26.383 23.538 12.611 -26.467 23.633 12.611 -26.467 23.633 0.0 -26.383 23.538 0.0 -26.488 25.397 12.611 -26.406 25.495 12.611 -26.406 25.495 0.0 -26.488 25.397 0.0 -26.77 24.701 12.611 -26.77 24.701 0.0 -21.41 25.68 0.0 -21.544 22.9 0.0 -25.74 23.15 0.0 -25.86 23.19 0.0 -25.976 23.24 0.0 -26.087 23.301 0.0 -26.193 23.371 0.0 -26.292 23.45 0.0 -26.541 23.736 0.0 -26.607 23.844 0.0 -26.662 23.958 0.0 -26.707 24.076 0.0 -26.742 24.198 0.0 -26.766 24.322 0.0 -26.778 24.448 0.0 -26.78 24.575 0.0 -26.675 25.068 0.0 -26.623 25.183 0.0 -26.56 25.293 0.0 -26.317 25.584 0.0 -26.22 25.666 0.0 -26.116 25.738 0.0 -26.007 25.802 0.0 -25.892 25.855 0.0 -25.773 25.898 0.0 -25.65 25.93 0.0 -26.56 25.293 12.611 -26.007 25.802 12.611 -25.892 25.855 12.611 -25.773 25.898 12.611 -25.65 25.93 12.611 -26.623 25.183 12.611 -26.607 23.844 12.611 -26.662 23.958 12.611 -26.707 24.076 12.611 -26.742 24.198 12.611 -21.544 22.9 12.611 -25.74 23.15 12.611 -21.544 22.9 6.878 -21.544 22.9 8.633 -21.41 25.68 12.611 -21.41 25.68 8.616 -21.41 25.68 6.878 -26.541 23.736 12.611 -26.78 24.575 12.611 -26.116 25.738 12.611 -26.22 25.666 12.611 -26.317 25.584 12.611 -26.675 25.068 12.611 -26.778 24.448 12.611 -26.766 24.322 12.611 -26.292 23.45 12.611 -26.193 23.371 12.611 -26.087 23.301 12.611 -25.976 23.24 12.611 -25.86 23.19 12.611 -25.34 29.58 10.025 -25.06 33.819 11.352 -24.67 39.74 11.373 -24.67 39.74 10.025 -14.718 48.315 11.406 -11.59 51.01 10.025 -1.64 50.26 10.025 -1.92 46.55 10.025 -1.92 46.55 9.733 -1.92 46.55 8.792 -1.92 46.55 0.0 -1.64 50.26 0.0 -2.991 32.364 11.352 -21.23 29.42 10.06 -17.1 29.259 10.095 -9.776 28.974 10.156 -3.266 28.721 10.211 -1.64 50.26 10.071 -1.851 47.466 11.406 -11.59 51.01 0.0 -24.67 39.74 0.0 -21.23 29.42 10.025 -3.266 28.721 0.0 -21.23 29.42 0.0 -25.34 29.58 0.0 -1.92 46.55 11.402 -21.23 29.42 6.878 -21.23 29.42 8.595 -17.292 29.267 10.025 -9.217 28.953 10.025 -3.266 28.721 10.025 -3.266 28.721 8.792 -2.748 35.585 10.025 -2.01 45.356 10.025 -3.266 28.721 8.629 -2.322 41.219 11.037 -3.266 28.721 6.878 -0.81 -14.55 8.836 -0.81 -14.55 0.0 -14.29 -13.65 0.0 -23.57 -3.05 0.0 -21.904 1.04 0.0 -14.29 -13.65 8.868 -23.57 -3.05 9.665 -0.417 -7.492 10.326 -20.668 -6.365 10.326 -21.904 1.04 8.79 14.74 24.62 10.189 14.08 42.12 10.189 21.27 41.63 10.189 21.27 41.63 0.0 21.07 36.66 10.189 21.07 36.66 0.0 5.59 46.07 0.0 4.193 28.43 0.0 4.193 28.43 8.792 4.193 28.43 8.809 5.59 46.07 8.792 5.175 40.834 11.037 5.59 46.07 9.756 5.32 42.66 10.59 4.193 28.43 6.878 28.83 36.21 10.189 28.83 36.21 0.0 20.79 24.21 10.189 27.98 23.75 10.189 27.98 23.75 0.0 -3.266 28.72 0.0 -16.581 29.239 10.283 -17.006 22.629 10.283 -10.489 22.241 10.222 -10.056 28.985 10.222 3.637 21.399 6.902 -3.266 28.72 6.878 -9.217 28.952 10.025</float_array>
                    <technique_common>
                        <accessor count="228" source="#geometry0-position-array" stride="3">
                            <param name="X" type="float"/>
                            <param name="Y" type="float"/>
                            <param name="Z" type="float"/>
                        </accessor>
                    </technique_common>
                </source>
                <source id="geometry0-normal">
                    <float_array id="geometry0-normal-array" count="2769">-0.0114416 -0.2059001 0.9785062 -0.0114264 -0.2059327 0.9784994 -0.0114416 -0.2059001 0.9785062 -0.0114568 -0.2058674 0.9785128 0.05886 0.9982662 0.0 0.05886 0.9982662 0.0 0.05886 0.9982662 0.0 0.05886 0.9982663 0.0 0.05886 0.9982662 0.0 0.05886 0.9982662 0.0 -0.0389837 -0.9992399 0.0 -0.0389837 -0.9992399 0.0 -0.0389837 -0.9992399 0.0 0.0595376 0.998226 0.0 0.0595376 0.998226 0.0 0.0595376 0.998226 0.0 0.0595376 0.998226 0.0 0.0595332 0.9982263 -9.62E-5 0.0596047 0.9982221 0.0 0.0595712 0.9982241 -1.416E-4 0.0595163 0.9982273 -1.416E-4 0.0594953 0.9982285 -5.08E-5 0.0594957 0.9982285 -1.017E-4 -0.652748 0.7575751 -4.1E-5 -0.6527513 0.7575723 0.0 -0.652748 0.7575751 -4.1E-5 -0.6527448 0.757578 -8.2E-5 0.0644628 0.9979202 0.0 0.0644628 0.9979202 0.0 0.0644628 0.9979202 0.0 0.0644628 0.9979202 0.0 0.9977479 -0.0670754 0.0 0.9977479 -0.0670754 0.0 0.9977479 -0.0670754 0.0 0.9977479 -0.0670754 0.0 0.0677231 0.9977041 0.0 0.0677231 0.9977041 0.0 0.0677231 0.9977041 0.0 0.0677231 0.9977041 0.0 -0.3162323 -0.9486818 0.0 -0.3162323 -0.9486818 0.0 -0.3162323 -0.9486818 0.0 -0.3162323 -0.9486818 0.0 -0.9976686 0.0682442 0.0 -0.9976686 0.0682442 0.0 -0.9976686 0.0682442 0.0 -0.9976686 0.0682442 0.0 0.0 0.0 1.0 0.0 0.0 1.0 0.0 0.0 1.0 0.0 0.0 1.0 0.0 0.0 1.0 0.0 0.0 1.0 0.0 0.0 1.0 -0.9980502 0.0624161 0.0 -0.9980502 0.0624161 0.0 -0.9980502 0.0624161 0.0 -0.9980502 0.0624161 0.0 -0.9980502 0.0624161 0.0 0.059398 0.9982345 0.0 0.059398 0.9982345 0.0 0.059398 0.9982344 0.0 0.059398 0.9982344 0.0 0.059398 0.9982344 0.0 0.059398 0.9982344 0.0 0.9976618 -0.0683433 0.0 0.9976618 -0.0683433 0.0 0.9976618 -0.0683433 0.0 0.9976618 -0.0683433 0.0 0.9976618 -0.0683433 0.0 0.9976618 -0.0683433 0.0 0.0672573 0.9977357 0.0 0.0672573 0.9977357 0.0 0.0672573 0.9977357 0.0 0.0672573 0.9977357 0.0 0.9976812 -0.0680601 0.0 0.9976812 -0.0680601 0.0 0.9976812 -0.0680601 0.0 0.9976812 -0.0680601 0.0 0.99688 -0.0789318 0.0 0.99688 -0.0789318 0.0 0.99688 -0.0789318 0.0 0.99688 -0.0789318 0.0 -0.047472 -0.9988726 0.0 -0.047472 -0.9988726 0.0 -0.047472 -0.9988726 0.0 -0.047472 -0.9988726 0.0 0.0394426 0.9992218 0.0 0.0394426 0.9992218 0.0 0.0394426 0.9992218 0.0 0.0394426 0.9992218 0.0 0.9991928 -0.0401739 0.0 0.9991928 -0.0401739 0.0 0.9991928 -0.0401739 0.0 0.9991928 -0.0401739 0.0 -0.0672573 -0.9977357 0.0 -0.0672573 -0.9977357 0.0 -0.0672573 -0.9977357 0.0 -0.0672573 -0.9977357 0.0 -0.9988439 0.0480728 0.0 -0.9988438 0.0480728 0.0 -0.9988439 0.0480728 0.0 -0.9988439 0.0480728 0.0 -0.5063262 0.862342 0.0 -0.5063262 0.862342 0.0 -0.5063262 0.862342 0.0 -0.5063262 0.862342 0.0 0.0751637 0.9971712 0.0 0.0751637 0.9971712 0.0 0.0751637 0.9971712 0.0 0.0751637 0.9971712 0.0 -0.2517761 0.9677855 0.0 -0.2517761 0.9677855 0.0 -0.2517761 0.9677855 0.0 -0.2517761 0.9677855 0.0 -0.0594658 -0.9982303 -2.273E-4 -0.059436 -0.998232 -4.904E-4 -0.0594658 -0.9982303 -2.273E-4 -0.0594957 -0.9982285 3.57E-5 -0.6455922 0.7636824 0.0 -0.6455922 0.7636824 0.0 -0.6455922 0.7636824 0.0 -0.6455922 0.7636824 0.0 0.0560476 0.9984282 0.0 0.0560476 0.9984282 0.0 0.0560476 0.9984282 0.0 0.0560476 0.9984282 0.0 -1.224E-4 -0.0037447 0.999993 -2.312E-4 -0.0035071 0.9999938 1.04E-5 -0.0039463 0.9999922 8.6E-6 -0.0039715 0.9999921 -2.552E-4 -0.0035431 0.9999937 -2.756E-4 -0.0035285 0.9999938 -0.9965495 0.0829996 0.0 -0.9965495 0.0829996 0.0 -0.9965495 0.0829996 0.0 -0.9965495 0.0829996 0.0 -0.9980502 0.0624161 0.0 -0.9980502 0.0624161 0.0 -0.9980502 0.0624161 0.0 -0.9980502 0.0624161 0.0 0.0637846 0.9979637 0.0 0.0637846 0.9979637 0.0 0.0637846 0.9979637 0.0 0.0637846 0.9979637 0.0 0.9965496 -0.0829996 0.0 0.9965495 -0.0829996 0.0 0.9965495 -0.0829996 0.0 0.9965495 -0.0829996 0.0 0.9965495 -0.0829996 0.0 0.99717 -0.0751801 1.43E-5 0.9971712 -0.0751637 0.0 0.9971672 -0.0752159 4.647E-4 0.9971627 -0.0752766 1.528E-4 0.99716 -0.0753084 7.731E-4 0.9971592 -0.0753235 9.03E-5 0.997162 -0.0752849 -4.054E-4 0.9971642 -0.0752522 -8.109E-4 -0.7491461 -0.6624048 0.0 -0.7491461 -0.6624048 0.0 -0.7491461 -0.6624048 0.0 -0.7491461 -0.6624048 0.0 -0.9998759 -0.0157523 0.0 -0.9998759 -0.0157523 0.0 -0.9998759 -0.0157523 0.0 -0.9998759 -0.0157523 0.0 0.9976686 -0.0682442 0.0 0.9976686 -0.0682442 0.0 0.9976686 -0.0682442 0.0 0.9976686 -0.0682442 0.0 0.0475393 0.9988694 0.0 0.0475393 0.9988694 0.0 0.0475393 0.9988694 0.0 0.0475393 0.9988694 0.0 0.0475393 0.9988694 0.0 0.9684009 -0.0744255 0.2380346 0.9685126 -0.0682055 0.2394396 0.9684009 -0.0744255 0.2380346 0.9682499 -0.0806426 0.2366199 -0.9978327 0.065802 0.0 -0.9978327 0.065802 0.0 -0.9978327 0.065802 0.0 -0.9978327 0.065802 0.0 -0.8677557 0.496991 0.0 -0.8677557 0.496991 0.0 -0.8677557 0.496991 0.0 -0.8677557 0.496991 0.0 -0.059654 -0.9982191 0.0 -0.059654 -0.9982191 0.0 -0.059654 -0.9982191 0.0 -0.059654 -0.9982191 0.0 -0.0090766 -0.1761137 0.984328 -0.0091148 -0.1761293 0.9843249 -0.0090925 -0.1761083 0.9843288 -0.0090574 -0.1761058 0.9843296 -0.0090447 -0.1761244 0.9843264 -0.8532816 -0.5214506 0.0 -0.8532816 -0.5214506 0.0 -0.8532816 -0.5214506 0.0 -0.8532816 -0.5214506 0.0 0.9971642 -0.0752577 0.0 0.9971642 -0.0752577 0.0 0.9971641 -0.0752577 0.0 0.9971641 -0.0752577 0.0 0.9971641 -0.0752577 0.0 0.9971641 -0.0752577 0.0 -0.3398482 0.9404803 0.0 -0.3398482 0.9404803 0.0 -0.3398482 0.9404803 0.0 -0.3398482 0.9404803 0.0 0.0 0.0 1.0 0.0 0.0 1.0 0.0 0.0 1.0 0.0 0.0 1.0 -0.0388999 -0.9992431 0.0 -0.0388999 -0.9992431 0.0 -0.0388999 -0.9992431 0.0 -0.0388999 -0.9992431 0.0 -0.0388999 -0.9992431 0.0 -0.0388999 -0.9992431 0.0 -0.7669387 0.6417203 0.0 -0.7669387 0.6417203 0.0 -0.7669387 0.6417203 0.0 -0.7669387 0.6417203 0.0 0.2279163 -0.0147009 0.9735698 0.2279382 -0.0147017 0.9735646 0.2279522 -0.0147369 0.9735608 0.2279053 -0.0147004 0.9735723 0.2278444 -0.0146288 0.9735876 0.9970543 -0.0766993 0.0 0.9970543 -0.0766993 0.0 0.9970543 -0.0766993 0.0 0.9970542 -0.0766993 0.0 0.9970542 -0.0766993 0.0 0.9989676 -0.0454273 0.0 0.9989676 -0.0454273 0.0 0.9989676 -0.0454273 0.0 0.9989676 -0.0454273 0.0 -0.0645874 -0.9979119 2.896E-4 -0.0645326 -0.9979156 0.0 -0.0646497 -0.997908 4.343E-4 -0.0646149 -0.9979102 4.343E-4 -0.0644628 -0.9979201 0.0 -0.0644628 -0.9979201 0.0 0.998454 -0.0555843 -5.25E-5 0.998454 -0.0555843 -5.25E-5 0.998454 -0.0555843 -5.25E-5 0.9975295 -0.0702489 0.0 0.9975295 -0.0702489 0.0 0.9975295 -0.0702489 0.0 0.9975295 -0.0702489 0.0 0.9988403 -0.0481458 0.0 0.9988403 -0.0481458 0.0 0.9988403 -0.0481458 0.0 0.9988403 -0.0481458 0.0 0.0637846 0.9979637 0.0 0.0637846 0.9979637 0.0 0.0637846 0.9979637 0.0 0.0637846 0.9979637 0.0 0.996888 -0.0788322 0.0 0.996888 -0.0788322 0.0 0.996888 -0.0788322 0.0 -0.6237377 -0.7816337 0.0 -0.6237377 -0.7816337 0.0 -0.6237377 -0.7816337 0.0 -0.6237377 -0.7816337 0.0 -0.0594957 -0.9982285 3.96E-5 -0.0594965 -0.9982285 0.0 -0.0594965 -0.9982285 0.0 -0.0594958 -0.9982285 8.6E-6 -0.0594954 -0.9982285 5.94E-5 -0.0594957 -0.9982285 1.017E-4 -0.0474578 -0.9988732 0.0 -0.0474578 -0.9988733 0.0 -0.0474578 -0.9988732 0.0 -0.0474578 -0.9988732 0.0 -0.0474578 -0.9988732 0.0 -0.9006579 -0.4345291 0.0 -0.9006579 -0.4345291 0.0 -0.9006579 -0.4345291 0.0 -0.9006579 -0.4345291 0.0 -0.9968792 0.078942 -1.953E-4 -0.9968839 0.0788823 0.0 -0.9968815 0.0789109 -3.905E-4 -0.996878 0.0789563 -3.905E-4 -0.9968767 0.0789731 0.0 -0.9968767 0.0789731 0.0 -0.9968767 0.0789731 0.0 -0.0195853 -0.2973979 0.9545527 -0.0196254 -0.2974796 0.9545264 -0.0196198 -0.2974899 0.9545233 -0.0196317 -0.2974264 0.9545429 -0.0196011 -0.29735 0.9545673 -0.0196982 -0.2974957 0.9545199 -0.0197104 -0.2975053 0.9545166 0.0596047 0.9982221 0.0 0.0596047 0.9982221 0.0 0.0596047 0.9982221 0.0 0.0594589 0.9982308 0.0 0.0594589 0.9982308 0.0 0.0594589 0.9982308 0.0 0.9968879 -0.0788322 0.0 0.9968879 -0.0788322 0.0 0.9968879 -0.0788322 0.0 0.9968879 -0.0788322 0.0 0.9971695 -0.075187 1.98E-4 0.9971641 -0.0752577 0.0 0.9971641 -0.0752577 0.0 0.9971695 -0.075187 1.98E-4 0.9971747 -0.0751164 3.961E-4 -0.9988403 0.0481458 0.0 -0.9988403 0.0481458 0.0 -0.9988403 0.0481458 0.0 -0.9988403 0.0481458 0.0 0.9988403 -0.0481458 0.0 0.9988403 -0.0481458 0.0 0.9988403 -0.0481458 0.0 0.9988403 -0.0481458 0.0 0.99688 -0.0789318 0.0 0.99688 -0.0789318 0.0 0.99688 -0.0789318 0.0 0.99688 -0.0789318 0.0 0.0388497 0.999245 0.0 0.0388497 0.999245 0.0 0.0388497 0.999245 0.0 0.0388497 0.999245 0.0 -0.3405435 0.0218965 0.9399738 -0.340463 0.021664 0.9400083 -0.3406283 0.0219192 0.9399425 -0.3406129 0.0220149 0.9399458 -0.3404587 0.0218737 0.9400051 -0.340485 0.0218921 0.9399951 -0.0594965 -0.9982285 0.0 -0.0594965 -0.9982285 0.0 -0.0594965 -0.9982285 0.0 -0.0594965 -0.9982285 0.0 0.0679922 0.9976858 0.0 0.0679922 0.9976858 0.0 0.0679922 0.9976858 0.0 0.0679922 0.9976858 0.0 0.0389202 0.9992424 2.14E-5 0.0389373 0.9992415 -5.714E-4 0.0389095 0.9992427 -2.857E-4 0.0388818 0.9992438 -8.15E-5 0.0389309 0.9992419 3.285E-4 0.0389797 0.9992396 8.201E-4 0.0474265 0.9988747 0.0 0.0474265 0.9988747 0.0 0.0474265 0.9988747 0.0 0.0474265 0.9988747 0.0 -0.9988403 0.0481458 0.0 -0.9988403 0.0481458 0.0 -0.9988403 0.0481458 0.0 -0.9988403 0.0481458 0.0 -0.0470392 -0.998893 0.0 -0.0470392 -0.998893 0.0 -0.0470392 -0.998893 0.0 -0.0470392 -0.998893 0.0 0.0477295 0.9988603 0.0 0.0477295 0.9988603 0.0 0.0477295 0.9988603 0.0 0.0477295 0.9988603 0.0 0.0389373 0.9992417 0.0 0.0389373 0.9992417 0.0 0.0389373 0.9992417 0.0 0.0389373 0.9992417 0.0 0.0 0.0 -1.0 0.0 0.0 -1.0 0.0 0.0 -1.0 0.0 0.0 -1.0 0.0 0.0 -1.0 0.0 0.0 -1.0 0.0 0.0 -1.0 0.0 0.0 -1.0 0.0 0.0 -1.0 0.0 0.0 -1.0 0.0 0.0 -1.0 0.0 0.0 -1.0 0.0 0.0 -1.0 0.0 0.0 -1.0 0.0 0.0 -1.0 0.0388994 0.9992383 0.0031136 0.0388184 0.9992166 0.0077148 0.0388994 0.9992383 0.0031136 0.0389797 0.9992388 -0.0014877 -0.940482 0.3398434 0.0 -0.940482 0.3398434 0.0 -0.940482 0.3398434 0.0 -0.940482 0.3398434 0.0 0.0388497 0.9992449 -5.714E-4 0.0388497 0.9992449 -5.714E-4 0.0388497 0.9992449 -5.714E-4 -0.0388944 -0.9992388 -0.0030155 -0.0389545 -0.9992228 -0.006031 -0.0388944 -0.9992388 -0.0030155 -0.038834 -0.9992456 0.0 0.0282696 0.4294674 0.9026398 0.0282189 0.4297254 0.9025185 0.0282696 0.4294674 0.9026398 0.0283204 0.4292094 0.902761 -0.038856 -0.9992378 -0.0037612 -0.0388229 -0.9992461 0.0 -0.038856 -0.9992378 -0.0037612 -0.0388886 -0.9992153 -0.0075223 -0.0689567 -0.9684632 0.2394243 -0.0689665 -0.9684583 0.2394416 -0.0689567 -0.9684632 0.2394243 -0.068947 -0.9684682 0.2394069 -0.98618 0.1656775 0.0 -0.98618 0.1656775 0.0 -0.98618 0.1656775 0.0 -0.98618 0.1656775 0.0 -0.7524066 -0.658699 -1.553E-4 -0.7524066 -0.658699 -1.553E-4 -0.7524066 -0.658699 -1.553E-4 0.0121675 0.2367373 0.9714975 0.0121499 0.2366474 0.9715196 0.0121697 0.2366822 0.9715109 0.0121763 0.2367823 0.9714864 0.0121631 0.2368474 0.9714707 -0.5510566 -0.8344679 0.0 -0.5510566 -0.8344679 0.0 -0.5510566 -0.8344679 0.0 -0.5510566 -0.8344679 0.0 0.9991913 -0.040209 0.0 0.9991913 -0.040209 0.0 0.9991913 -0.040209 0.0 0.9991913 -0.040209 0.0 -0.9612262 -0.275761 0.0 -0.9612262 -0.275761 0.0 -0.9612262 -0.275761 0.0 -0.9612262 -0.275761 0.0 -0.6527447 0.757578 0.0 -0.6527447 0.757578 0.0 -0.6527447 0.757578 0.0 -0.6527447 0.757578 0.0 0.9976683 -0.0682488 0.0 0.9976683 -0.0682488 0.0 0.9976683 -0.0682488 0.0 0.9976683 -0.0682488 0.0 -0.7070992 0.7071144 0.0 -0.7070992 0.7071144 0.0 -0.7070992 0.7071144 0.0 -0.7070992 0.7071144 0.0 -0.9954961 -0.0948027 0.0 -0.9954961 -0.0948027 0.0 -0.9954961 -0.0948027 0.0 -0.9954961 -0.0948027 0.0 0.9980502 -0.0624161 0.0 0.9980502 -0.0624161 0.0 0.9980502 -0.0624161 0.0 0.9980502 -0.0624161 0.0 0.9980502 -0.0624161 0.0 0.9988403 -0.0481458 0.0 0.9988403 -0.0481458 0.0 0.9988403 -0.0481458 0.0 0.9988403 -0.0481458 0.0 -0.9989676 0.0454273 0.0 -0.9989677 0.0454273 0.0 -0.9989676 0.0454273 0.0 -0.9989676 0.0454273 0.0 -0.9989676 0.0454273 0.0 -0.0470392 -0.998893 0.0 -0.0470392 -0.998893 0.0 -0.0470392 -0.998893 0.0 -0.0470392 -0.998893 0.0 -0.9968767 0.0789731 0.0 -0.9968767 0.0789731 0.0 -0.9968767 0.0789731 0.0 -0.9968767 0.0789731 0.0 -0.0598394 -0.998208 0.0 -0.0598394 -0.998208 0.0 -0.0598394 -0.998208 0.0 -0.0598394 -0.998208 0.0 -0.0598394 -0.998208 0.0 -0.9968835 0.0788875 -1.513E-4 -0.9968762 0.0789803 0.0 -0.9968801 0.0789312 -2.27E-4 -0.9968871 0.078841 -2.27E-4 -0.9968904 0.0788 0.0 0.0751637 0.9971713 0.0 0.0751637 0.9971713 0.0 0.0751637 0.9971713 0.0 0.0 0.0 -1.0 0.0 0.0 -1.0 0.0 0.0 -1.0 0.0 0.0 -1.0 0.0 0.0 -1.0 0.0 0.0 -1.0 0.0 0.0 -1.0 0.0 0.0 -1.0 0.0 0.0 -1.0 0.9968691 -0.0790698 1.97E-4 0.996862 -0.0791593 0.0 0.9968691 -0.0790698 1.97E-4 0.9968761 -0.0789803 3.939E-4 0.998454 -0.055584 0.0 0.998454 -0.055584 0.0 0.998454 -0.055584 0.0 0.998454 -0.055584 0.0 0.0094409 0.9999554 0.0 0.0094409 0.9999554 0.0 0.0094409 0.9999554 0.0 0.0094409 0.9999554 0.0 0.0647669 0.9979004 0.0 0.0647669 0.9979004 0.0 0.0647669 0.9979004 0.0 0.0647669 0.9979004 0.0 0.0647669 0.9979004 0.0 -0.9968839 0.0788821 0.0 -0.996884 0.0788821 0.0 -0.996884 0.0788821 0.0 -0.9968839 0.0788821 0.0 -0.9968839 0.0788821 0.0 -0.812129 -0.583478 0.0 -0.812129 -0.583478 0.0 -0.812129 -0.583478 0.0 -0.812129 -0.583478 0.0 -0.0677231 -0.9977041 0.0 -0.0677231 -0.9977041 0.0 -0.0677231 -0.9977041 0.0 -0.0677231 -0.9977041 0.0 0.9976686 -0.0682442 0.0 0.9976686 -0.0682442 0.0 0.9976686 -0.0682442 0.0 0.9976686 -0.0682442 0.0 -0.9991928 0.0401739 0.0 -0.9991928 0.0401739 0.0 -0.9991928 0.0401739 0.0 -0.9991928 0.0401739 0.0 0.0 0.0 1.0 0.0 0.0 1.0 0.0 0.0 1.0 0.0 0.0 1.0 0.0 0.0 1.0 0.0 0.0 1.0 0.0 0.0 1.0 0.0 0.0 1.0 0.0 0.0 1.0 0.0 0.0 -1.0 0.0 0.0 -1.0 0.0 0.0 -1.0 0.0 0.0 -1.0 0.0 0.0 -1.0 0.0 0.0 -1.0 0.0 0.0 -1.0 -0.9985784 0.0533024 0.0 -0.9985784 0.0533024 0.0 -0.9985784 0.0533024 0.0 -0.9985785 0.0533024 0.0 -0.071012 -0.9974754 0.0 -0.071012 -0.9974754 0.0 -0.071012 -0.9974754 0.0 -0.071012 -0.9974754 0.0 -0.4816204 -0.8763799 0.0 -0.4816204 -0.8763799 0.0 -0.4816204 -0.8763799 0.0 -0.4816204 -0.8763799 0.0 -0.0388817 -0.9992438 0.0 -0.0388817 -0.9992438 0.0 -0.0388817 -0.9992438 0.0 -0.0388817 -0.9992438 0.0 0.0 0.0 -1.0 0.0 0.0 -1.0 0.0 0.0 -1.0 0.0 0.0 -1.0 0.0 0.0 -1.0 0.0 0.0 -1.0 0.0 0.0 -1.0 0.0 0.0 -1.0 0.0 0.0 -1.0 0.0 0.0 -1.0 0.0 0.0 -1.0 0.0 0.0 -1.0 0.0 0.0 -1.0 0.0 0.0 -1.0 0.0 0.0 -1.0 0.0 0.0 -1.0 0.0 0.0 -1.0 0.0 0.0 -1.0 0.0 0.0 -1.0 0.0 0.0 -1.0 0.0 0.0 -1.0 0.0 0.0 -1.0 0.0 0.0 -1.0 0.0 0.0 -1.0 0.0 0.0 -1.0 0.0 0.0 -1.0 0.0 0.0 -1.0 0.0 0.0 -1.0 0.0 0.0 -1.0 0.0 0.0 -1.0 0.0 0.0 -1.0 0.0 0.0 -1.0 0.0 0.0 -1.0 -0.0388648 -0.9992445 1.241E-4 -0.0388229 -0.9992461 0.0 -0.0388523 -0.9992449 3.69E-5 -0.03889 -0.9992435 3.69E-5 -0.0388772 -0.999244 2.113E-4 -0.0388562 -0.9992447 4.226E-4 -0.0389837 -0.9992399 0.0 -0.0389837 -0.9992399 0.0 -0.0389837 -0.9992399 0.0 -0.9971644 0.0752532 -4.1E-6 -0.9971623 0.0752808 -1.596E-4 -0.9971611 0.0752979 -6.1E-6 -0.9971655 0.0752394 7.37E-5 -0.9971712 0.0751637 0.0 0.0 0.0 -1.0 0.0 0.0 -1.0 0.0 0.0 -1.0 0.0 0.0 -1.0 0.9971597 -0.0753151 -4.589E-4 0.9971597 -0.0753151 -4.589E-4 0.9971597 -0.0753151 -4.589E-4 -0.9971623 0.0752808 0.0 -0.9971624 0.0752808 0.0 -0.9971623 0.0752808 0.0 -0.9971624 0.0752808 0.0 -0.9971623 0.0752808 0.0 -0.9971623 0.0752808 0.0 -0.9973489 0.0727679 0.0 -0.9973489 0.0727679 0.0 -0.9973489 0.0727679 0.0 -0.9973489 0.0727679 0.0 -0.0388999 -0.9992431 0.0 -0.0388999 -0.9992431 0.0 -0.0388999 -0.9992431 0.0 -0.9968652 0.0791184 0.0 -0.9968652 0.0791184 0.0 -0.9968652 0.0791184 0.0 -0.9968652 0.0791184 0.0 -0.3958265 -0.9183253 0.0 -0.3958265 -0.9183253 0.0 -0.3958265 -0.9183253 0.0 -0.3958265 -0.9183253 0.0 0.9968773 -0.078966 1.472E-4 0.9968784 -0.0789517 0.0 0.9968784 -0.0789517 0.0 0.9968773 -0.078966 1.472E-4 0.9968761 -0.0789803 2.944E-4 0.9971713 -0.0751637 0.0 0.9971713 -0.0751637 0.0 0.9971713 -0.0751637 0.0 0.0 0.0 -1.0 0.0 0.0 -1.0 0.0 0.0 -1.0 0.0 0.0 -1.0 0.0 0.0 -1.0 0.0 0.0 -1.0 0.9968785 -0.0789517 0.0 0.9968784 -0.0789517 0.0 0.9968785 -0.0789517 0.0 0.9968785 -0.0789517 0.0 0.9968784 -0.0789517 0.0 -0.0388461 -0.9992236 -0.0065716 -0.0388551 -0.9992158 -0.0076141 -0.0388461 -0.9992236 -0.0065716 -0.0388371 -0.9992303 -0.0055291 -0.9971597 0.0753151 4.59E-4 -0.9971597 0.0753151 4.59E-4 -0.9971597 0.0753151 4.59E-4 0.9971645 -0.0752523 0.0 0.9971645 -0.0752523 0.0 0.9971645 -0.0752523 0.0 0.0 0.0 1.0 0.0 0.0 1.0 0.0 0.0 1.0 0.0 0.0 1.0 0.0 0.0 1.0 0.0 0.0 1.0 0.0 0.0 1.0 0.0 0.0 1.0 0.0 0.0 1.0 -0.0389837 -0.9992398 0.0 -0.0389837 -0.9992398 0.0 -0.0389837 -0.9992398 0.0 -0.0389837 -0.9992398 0.0 -0.9989676 0.0454273 0.0 -0.9989676 0.0454273 0.0 -0.9989676 0.0454273 0.0 0.9971623 -0.0752808 0.0 0.9971624 -0.0752808 0.0 0.9971624 -0.0752808 0.0 0.9971623 -0.0752808 0.0 0.9971623 -0.0752808 0.0 0.9971623 -0.0752808 0.0 0.0578925 0.9983228 0.0 0.0578925 0.9983228 0.0 0.0578925 0.9983228 0.0 0.0578925 0.9983228 0.0 -0.0594751 -0.9982297 0.0 -0.0594751 -0.9982298 0.0 -0.0594751 -0.9982298 0.0 -0.0594751 -0.9982297 0.0 -0.0594751 -0.9982297 0.0 -0.0594751 -0.9982298 0.0 0.0111983 0.2046754 0.9787658 0.0110745 0.2048505 0.9787306 0.0112406 0.2049072 0.9787169 0.0113169 0.2047184 0.9787554 0.011272 0.2045957 0.9787817 0.0114303 0.2049796 0.9786995 0.0 0.0 -1.0 0.0 0.0 -1.0 0.0 0.0 -1.0 0.0 0.0 -1.0 0.0 0.0 -1.0 0.0 0.0 -1.0 0.0 0.0 -1.0 0.0 0.0 -1.0 0.0 0.0 -1.0 0.0 0.0 -1.0 0.0 0.0 -1.0 0.0 0.0 -1.0 0.0 0.0 -1.0 0.0 0.0 -1.0 0.0093245 -5.991E-4 0.9999564 0.009324 -5.995E-4 0.9999564 0.0093245 -5.991E-4 0.9999564 0.0093249 -5.987E-4 0.9999563 0.9971644 -0.0752532 7.93E-5 0.9971597 -0.0753151 3.519E-4 0.9971611 -0.0752979 1.189E-4 0.9971668 -0.0752222 -5.7E-5 0.9971712 -0.0751637 0.0 0.0 0.0 1.0 0.0 0.0 1.0 0.0 0.0 1.0 0.0 0.0 1.0 0.0 0.0 1.0 0.0 0.0 1.0 0.0 0.0 1.0 0.0 0.0 1.0 0.0 0.0 1.0 0.0 0.0 1.0 0.0 0.0 1.0 0.0 0.0 1.0 0.0 0.0 1.0 0.0 0.0 1.0 0.0 0.0 1.0 0.0 0.0 1.0 0.0 0.0 1.0 0.0 0.0 1.0 0.0 0.0 1.0 0.0 0.0 1.0 0.0 0.0 1.0 0.0 0.0 1.0 0.0 0.0 1.0 0.0 0.0 1.0 0.0 0.0 1.0 0.0 0.0 1.0 0.0 0.0 1.0 0.0 0.0 1.0 0.0 0.0 1.0 0.0 0.0 1.0 0.0 0.0 1.0 0.0 0.0 1.0 0.0 0.0 1.0 0.0 0.0 1.0 0.0 0.0 1.0 0.0 0.0 1.0 0.0 0.0 1.0 0.0 0.0 1.0 0.0 0.0 1.0 -0.8221977 0.5692022 0.0 -0.8221977 0.5692022 0.0 -0.8221977 0.5692022 0.0 -0.8221977 0.5692022 0.0 -0.6951571 -0.7188579 0.0 -0.6951571 -0.7188579 0.0 -0.6951571 -0.7188579 0.0 -0.6951571 -0.7188579 0.0 -0.9980469 0.0624697 0.0 -0.9980469 0.0624697 0.0 -0.9980469 0.0624697 0.0 -0.9980469 0.0624697 0.0 -0.9980469 0.0624697 0.0 -0.9980469 0.0624697 0.0 -0.9980469 0.0624697 0.0 -0.0647669 -0.9979004 0.0 -0.0647669 -0.9979004 0.0 -0.0647669 -0.9979004 0.0 -0.0647669 -0.9979004 0.0 -0.0647669 -0.9979004 0.0 0.0 0.0 1.0 0.0 0.0 1.0 0.0 0.0 1.0 0.0 0.0 1.0 0.0 0.0 1.0 0.0 0.0 1.0 0.0 0.0 1.0 -0.0644628 -0.9979202 0.0 -0.0644628 -0.9979202 0.0 -0.0644628 -0.9979202 0.0 -0.0644628 -0.9979202 0.0 -0.059654 -0.9982192 0.0 -0.059654 -0.9982192 0.0 -0.059654 -0.9982192 0.0 -0.059654 -0.9982192 0.0 -0.9979401 0.0641533 0.0 -0.9979401 0.0641533 0.0 -0.9979401 0.0641533 0.0 -0.9979401 0.0641533 0.0 -0.0697595 -0.9975638 0.0 -0.0697595 -0.9975638 0.0 -0.0697595 -0.9975638 0.0 -0.0697595 -0.9975638 0.0 0.0653033 0.9686627 0.2396414 0.0653057 0.9685392 0.2401394 0.0653061 0.9686307 0.2397705 0.0653021 0.9687244 0.2393924 0.0652977 0.9687269 0.2393833 -0.9111784 0.4120122 0.0 -0.9111784 0.4120122 0.0 -0.9111784 0.4120122 0.0 -0.9111784 0.4120122 0.0 -0.5692124 0.8221905 0.0 -0.5692124 0.8221905 0.0 -0.5692124 0.8221905 0.0 -0.5692124 0.8221905 0.0 -0.0598394 -0.998208 0.0 -0.0598394 -0.998208 0.0 -0.0598394 -0.998208 0.0 -0.0598394 -0.998208 0.0 -0.4185547 0.9081916 0.0 -0.4185547 0.9081916 0.0 -0.4185547 0.9081916 0.0 -0.4185547 0.9081916 0.0 -0.9979402 0.0641501 5.15E-5 -0.9979405 0.0641468 1.029E-4 -0.9979402 0.0641501 5.15E-5 -0.9979401 0.0641533 0.0 -0.9343621 -0.356325 0.0 -0.9343621 -0.356325 0.0 -0.9343621 -0.356325 0.0 -0.9343621 -0.356325 0.0 0.0 0.0 -1.0 0.0 0.0 -1.0 0.0 0.0 -1.0 0.0 0.0 -1.0 0.0 0.0 -1.0 -0.7524008 -0.6587056 0.0 -0.7524008 -0.6587056 0.0 -0.7524008 -0.6587056 0.0 -0.7524008 -0.6587056 0.0 0.0 0.0 -1.0 0.0 0.0 -1.0 0.0 0.0 -1.0 0.0 0.0 -1.0 0.0 0.0 -1.0 0.0 0.0 -1.0 0.0 0.0 -1.0 0.0674182 0.9977248 2.71E-5 0.0672743 0.9977345 0.0 0.0674987 0.9977194 4.07E-5 0.0674902 0.99772 4.07E-5 0.0672573 0.9977357 0.0 0.0 0.0 -1.0 0.0 0.0 -1.0 0.0 0.0 -1.0 0.0 0.0 -1.0 0.0 0.0 -1.0 0.0 0.0 -1.0 -0.0388229 -0.9992461 0.0 -0.0388229 -0.9992461 0.0 -0.0388229 -0.9992461 0.0 -0.0389837 -0.9992398 0.0 -0.0389837 -0.9992398 0.0 -0.0389837 -0.9992398 0.0 -0.0389837 -0.9992399 0.0 -0.047472 -0.9988726 0.0 -0.047472 -0.9988726 0.0 -0.047472 -0.9988726 0.0 -0.047472 -0.9988726 0.0 -0.047472 -0.9988726 0.0 -0.0389552 -0.9992409 0.0 -0.0389552 -0.9992409 0.0 -0.0389552 -0.9992409 0.0 -0.0389552 -0.9992409 0.0 -0.9988439 0.0480728 0.0 -0.9988439 0.0480728 0.0 -0.9988439 0.0480728 0.0 -0.9988439 0.0480728 0.0 -0.9985803 0.0532673 0.0 -0.9985803 0.0532673 0.0 -0.9985803 0.0532673 0.0 -0.9985803 0.0532673 0.0 -0.9985803 0.0532673 0.0 -0.0666173 -0.9977787 0.0 -0.0666173 -0.9977786 0.0 -0.0666173 -0.9977787 0.0 -0.0666173 -0.9977787 0.0 0.0388921 0.9992426 -0.0012858 0.0388879 0.999243 -0.0010507 0.0388921 0.9992426 -0.0012858 0.0388963 0.9992421 -0.001521 -0.9970543 0.0766993 0.0 -0.9970543 0.0766993 0.0 -0.9970543 0.0766993 0.0 -0.9970543 0.0766993 0.0 -1.0 0.0 0.0 -1.0 0.0 0.0 -1.0 0.0 0.0 -1.0 0.0 0.0 -1.0 0.0 0.0 -0.9817798 -0.1900224 0.0 -0.9817798 -0.1900224 0.0 -0.9817798 -0.1900224 0.0 -0.9817798 -0.1900224 0.0 -0.0638471 -0.9979597 0.0 -0.0638471 -0.9979597 0.0 -0.0638471 -0.9979597 0.0 -0.0638471 -0.9979597 0.0 -0.9696764 0.2443927 0.0 -0.9696764 0.2443927 0.0 -0.9696764 0.2443927 0.0 -0.9696764 0.2443927 0.0 -0.9978353 0.0657623 3.004E-4 -0.9978378 0.0657226 6.008E-4 -0.9978353 0.0657623 3.004E-4 -0.9978327 0.065802 0.0</float_array>
                    <technique_common>
                        <accessor count="923" source="#geometry0-normal-array" stride="3">
                            <param name="X" type="float"/>
                            <param name="Y" type="float"/>
                            <param name="Z" type="float"/>
                        </accessor>
                    </technique_common>
                </source>
                <vertices id="geometry0-vertex">
                    <input semantic="POSITION" source="#geometry0-position"/>
                </vertices>
                <triangles count="441" material="default_ai_0.2_sh_0.2_tr_0.0_dc_r_0.8_g_0.8_b_0.8_sc_r_1.0_g_1.0_b_1.0_ec_r_0.0_g_0.0_b_0_tri">
                    <input offset="0" semantic="VERTEX" source="#geometry0-vertex"/>
                    <input offset="1" semantic="NORMAL" source="#geometry0-normal"/>
                    <p>97 4 122 5 127 6 139 7 97 4 127 6 138 8 139 7 127 6 138 8 127 6 137 9 208 10 209 11 184 12 23 13 8 14 7 15 23 13 7 15 18 16 12 17 22 18 23 19 12 17 23 19 18 20 12 17 18 20 17 21 12 17 17 21 13 22 156 23 155 24 157 25 156 23 157 25 158 26 40 27 42 28 34 29 40 27 34 29 35 30 31 31 30 32 36 33 31 31 36 33 39 34 80 35 73 36 72 37 80 35 72 37 82 38 134 39 152 40 100 41 134 39 100 41 99 42 40 43 49 44 52 45 40 43 52 45 42 46 20 54 21 55 19 56 20 54 19 56 6 57 20 54 6 57 5 58 11 59 10 60 9 61 22 62 11 59 9 61 23 63 22 62 9 61 23 63 9 61 8 64 9 65 49 66 52 67 9 65 52 67 45 68 10 69 9 65 45 68 10 69 45 68 44 70 72 71 71 72 81 73 72 71 81 73 82 74 215 75 218 76 219 77 215 75 219 77 216 78 210 79 53 80 48 81 210 79 48 81 206 82 5 83 3 84 2 85 5 83 2 85 20 86 62 87 19 88 6 89 62 87 6 89 60 90 204 91 82 92 72 93 204 91 72 93 205 94 71 95 72 96 82 97 71 95 82 97 81 98 139 99 138 100 180 101 139 99 180 101 179 102 142 103 124 104 119 105 142 103 119 105 118 106 158 107 159 108 164 109 158 107 164 109 172 110 126 111 127 112 122 113 126 111 122 113 121 114 223 115 222 116 13 117 223 115 13 117 12 118 144 119 143 120 117 121 144 119 117 121 116 122 32 123 31 124 39 125 32 123 39 125 38 126 217 133 80 134 73 135 217 133 73 135 67 136 19 137 21 138 16 139 19 137 16 139 15 140 162 141 210 142 206 143 162 141 206 143 163 144 67 145 73 146 80 147 67 145 80 147 76 148 67 145 76 148 64 149 186 150 160 151 178 152 188 153 186 150 178 152 188 153 178 152 165 154 188 153 165 154 169 155 188 153 169 155 183 156 188 153 183 156 185 157 87 158 88 159 89 160 87 158 89 160 90 161 146 162 141 163 112 164 146 162 112 164 111 165 52 166 42 167 41 168 52 166 41 168 45 169 46 170 28 171 27 172 53 173 46 170 27 172 53 173 27 172 48 174 153 179 156 180 173 181 153 179 173 181 177 182 128 183 123 184 115 185 128 183 115 185 114 186 18 187 135 188 98 189 18 187 98 189 7 190 140 196 129 197 106 198 140 196 106 198 105 199 163 200 164 201 159 202 162 203 163 200 159 202 161 204 162 203 159 202 161 204 159 202 160 205 125 206 126 207 121 208 125 206 121 208 120 209 177 214 176 215 179 216 177 214 179 216 180 217 177 214 180 217 174 218 177 214 174 218 153 219 91 220 92 221 93 222 91 220 93 222 94 223 35 229 36 230 30 231 34 232 35 229 30 231 34 232 30 231 29 233 81 234 200 235 70 236 81 234 70 236 71 237 29 238 24 239 28 240 29 238 28 240 41 241 29 238 41 241 42 242 29 238 42 242 34 243 190 244 2 245 197 246 64 247 65 248 66 249 64 247 66 249 67 250 135 251 98 252 97 253 135 251 97 253 139 254 162 255 161 256 212 257 162 255 212 257 210 258 214 259 225 260 57 261 149 262 148 263 104 264 149 262 104 264 103 265 17 266 18 267 57 268 17 266 57 268 225 269 17 266 225 269 12 270 17 266 12 270 13 271 3 272 4 273 0 274 2 275 3 272 0 274 2 275 0 274 1 276 129 277 130 278 107 279 129 277 107 279 106 280 58 281 43 282 47 283 58 281 47 283 54 284 58 281 54 284 55 285 58 281 55 285 56 286 58 281 56 286 57 287 22 295 12 296 11 297 17 298 14 299 13 300 207 301 214 302 57 303 207 301 57 303 50 304 178 305 160 306 159 307 178 305 159 307 170 308 178 305 170 308 171 309 97 310 98 311 135 312 97 310 135 312 139 313 135 314 139 315 138 316 135 314 138 316 136 317 210 318 212 319 213 320 210 318 213 320 53 321 207 322 220 323 226 324 207 322 226 324 214 325 50 332 57 333 18 334 50 332 18 334 7 335 201 336 202 337 203 338 201 336 203 338 36 339 187 340 226 341 179 342 187 340 179 342 180 343 187 340 180 343 181 344 187 340 181 344 227 345 2 346 3 347 194 348 2 346 194 348 199 349 135 350 136 351 138 352 135 350 138 352 139 353 63 354 20 355 21 356 63 354 21 356 61 357 199 358 194 359 59 360 199 358 59 360 63 361 220 362 176 363 179 364 220 362 179 364 226 365 8 366 9 367 4 368 8 366 4 368 3 369 8 366 3 369 5 370 8 366 5 370 6 371 8 366 6 371 7 372 40 373 27 374 26 375 40 373 26 375 37 376 40 373 37 376 38 377 40 373 38 377 39 378 40 373 39 378 36 379 40 373 36 379 35 380 181 381 167 382 168 383 181 381 168 383 227 384 84 385 145 386 113 387 84 385 113 387 85 388 226 389 187 390 214 391 168 392 182 393 183 394 168 392 183 394 169 395 166 400 174 401 181 402 166 400 181 402 167 403 95 408 83 409 86 410 95 408 86 410 96 411 196 412 195 413 198 414 150 420 149 421 103 422 150 420 103 422 102 423 202 424 204 425 205 426 202 424 205 426 203 427 131 428 132 429 109 430 131 428 109 430 108 431 156 432 158 433 172 434 156 432 172 434 173 435 10 436 0 437 4 438 10 436 4 438 9 439 92 440 144 441 116 442 92 440 116 442 93 443 147 444 146 445 111 446 147 444 111 446 110 447 19 448 21 449 20 450 19 448 20 450 5 451 19 448 5 451 6 452 136 453 138 454 137 455 136 453 137 455 133 456 71 457 70 458 79 459 81 460 71 457 79 459 81 460 79 459 77 461 59 462 5 463 20 464 59 462 20 464 63 465 56 466 51 467 50 468 56 466 50 468 57 469 10 470 58 471 57 472 10 470 57 472 50 473 10 470 50 473 9 474 47 475 46 476 53 477 47 475 53 477 55 478 47 475 55 478 54 479 158 480 170 481 159 482 70 483 49 484 71 485 49 484 40 486 71 485 71 485 40 486 72 487 72 487 40 486 205 488 40 486 35 489 205 488 205 488 35 489 203 490 203 490 35 489 36 491 46 492 213 493 211 494 46 492 211 494 47 495 2 496 190 497 191 498 2 496 191 498 3 499 25 500 33 501 37 502 25 500 37 502 26 503 28 504 41 505 42 506 28 504 42 506 40 507 28 504 40 507 27 508 55 509 53 510 48 511 56 512 55 509 48 511 56 512 48 511 51 513 88 514 140 515 105 516 88 514 105 516 89 517 73 518 80 519 82 520 73 518 82 520 72 521 52 522 49 523 40 524 52 522 40 524 42 525 82 526 204 527 205 528 82 526 205 528 72 529 176 539 220 540 97 541 97 541 220 540 98 542 98 542 220 540 7 543 7 543 220 540 50 544 50 544 220 540 207 545 196 546 63 547 59 548 196 546 59 548 193 549 65 550 68 551 69 552 65 550 69 552 66 553 151 554 150 555 102 556 151 554 102 556 101 557 176 558 175 559 189 560 176 558 189 560 179 561 121 562 122 563 97 564 121 562 97 564 98 565 121 562 98 565 99 566 121 562 99 566 100 567 121 562 100 567 101 568 121 562 101 568 102 569 121 562 102 569 103 570 121 562 103 570 104 571 121 562 104 571 90 572 121 562 90 572 89 573 121 562 89 573 105 574 121 562 105 574 106 575 121 562 106 575 107 576 121 562 107 576 108 577 121 562 108 577 109 578 121 562 109 578 110 579 121 562 110 579 111 580 121 562 111 580 112 581 121 562 112 581 96 582 121 562 96 582 86 583 121 562 86 583 85 584 121 562 85 584 113 585 121 562 113 585 114 586 121 562 114 586 115 587 121 562 115 587 94 588 121 562 94 588 93 589 121 562 93 589 116 590 121 562 116 590 117 591 121 562 117 591 118 592 121 562 118 592 119 593 121 562 119 593 120 594 181 595 180 596 179 597 181 595 179 597 189 598 181 595 189 598 187 599 181 595 187 599 182 600 189 601 214 602 187 603 162 604 184 605 185 606 162 604 185 606 186 607 162 604 186 607 161 608 5 609 59 610 60 611 5 609 60 611 6 612 188 613 185 614 186 615 163 616 175 617 189 618 163 616 189 618 187 619 163 616 187 619 184 620 163 616 184 620 162 621 33 622 32 623 38 624 33 622 38 624 37 625 174 626 166 627 153 628 141 629 95 630 96 631 141 629 96 631 112 632 152 633 151 634 101 635 152 633 101 635 100 636 209 637 208 638 53 639 209 637 53 639 46 640 209 637 46 640 47 641 186 642 161 643 160 644 193 645 59 646 194 647 193 645 194 647 3 648 193 645 3 648 191 649 193 645 191 649 192 650 207 651 48 652 53 653 214 654 207 651 53 653 214 654 53 653 208 655 167 656 181 657 182 658 167 656 182 658 168 659 188 660 186 661 185 662 184 663 185 664 183 665 207 675 214 676 189 677 207 675 189 677 175 678 79 679 78 680 77 681 162 682 184 683 187 684 162 682 187 684 189 685 162 682 189 685 175 686 162 682 175 686 163 687 204 688 215 689 216 690 204 688 216 690 205 691 99 692 98 693 135 694 99 692 135 694 136 695 99 692 136 695 133 696 99 692 133 696 134 697 173 704 172 705 164 706 173 704 164 706 163 707 173 704 163 707 175 708 173 704 175 708 176 709 173 704 176 709 177 710 66 711 69 712 67 713 67 713 69 712 73 714 73 714 69 712 72 715 69 712 70 716 72 715 72 715 70 716 71 717 186 722 185 723 184 724 186 722 184 724 162 725 186 722 162 725 161 726 123 766 91 767 94 768 123 766 94 768 115 769 148 770 87 771 90 772 148 770 90 772 104 773 7 774 6 775 19 776 7 774 19 776 15 777 18 778 7 774 15 777 17 779 18 778 15 777 17 779 15 777 14 780 41 781 28 782 27 783 42 784 41 781 27 783 42 784 27 783 40 785 42 793 40 794 35 795 42 793 35 795 34 796 18 797 17 798 136 799 18 797 136 799 135 800 68 801 79 802 70 803 68 801 70 803 69 804 200 805 52 806 49 807 200 805 49 807 70 808 145 814 128 815 114 816 145 814 114 816 113 817 143 818 142 819 118 820 143 818 118 820 117 821 58 822 10 823 44 824 58 822 44 824 43 825 124 826 125 827 120 828 124 826 120 828 119 829 68 830 74 831 78 832 68 830 78 832 79 833 130 834 131 835 108 836 130 834 108 836 107 837 175 838 163 839 206 840 175 838 206 840 48 841 175 838 48 841 207 842 195 843 196 844 193 845 195 843 193 845 192 846 9 847 50 848 51 849 9 847 51 849 48 850 9 847 48 850 27 851 9 847 27 851 40 852 9 847 40 852 49 853 77 854 76 855 80 856 77 854 80 856 82 857 77 854 82 857 81 858 205 859 216 860 219 861 72 862 205 859 219 861 73 863 72 862 219 861 73 863 219 861 67 864 180 865 181 866 174 867 187 868 214 869 208 870 187 868 208 870 184 871 1 872 16 873 21 874 1 872 21 874 20 875 1 872 20 875 2 876 182 877 187 878 184 879 182 877 184 879 183 880 139 881 179 882 176 883 139 881 176 883 97 884 60 885 59 886 63 887 60 885 63 887 61 888 60 885 61 888 62 889 190 890 195 891 192 892 190 890 192 892 191 893 167 894 221 895 224 896 167 894 224 896 168 897 34 898 201 899 36 900 34 898 36 900 35 901 26 902 27 903 28 904 26 902 28 904 24 905 26 902 24 905 25 906 132 907 147 908 110 909 132 907 110 909 109 910 218 911 217 912 67 913 218 911 67 913 219 914 83 915 84 916 85 917 83 915 85 917 86 918 153 919 154 920 155 921 153 919 155 921 156 922</p>
                </triangles>
                <triangles count="100" material="default_ai_0.2_sh_0.2_tr_0.0_dc_r_1.0_g_0.2_b_0.2_sc_r_1.0_g_1.0_b_1.0_ec_r_0.0_g_0.0_b_0_tri">
                    <input offset="0" semantic="VERTEX" source="#geometry0-vertex"/>
                    <input offset="1" semantic="NORMAL" source="#geometry0-normal"/>
                    <p>195 0 190 1 197 2 195 0 197 2 198 3 33 47 25 48 24 49 33 47 24 49 29 50 33 47 29 50 30 51 33 47 30 51 31 52 33 47 31 52 32 53 154 127 165 128 178 129 154 127 178 129 171 130 154 127 171 130 157 131 154 127 157 131 155 132 75 175 65 176 64 177 75 175 64 177 76 178 185 191 184 192 209 193 185 191 209 193 211 194 185 191 211 194 188 195 19 210 62 211 61 212 19 210 61 212 21 213 223 224 225 225 214 226 223 224 214 226 187 227 223 224 187 227 224 228 168 288 169 289 165 290 168 288 165 290 154 291 167 292 168 288 154 291 166 293 167 292 154 291 166 293 154 291 153 294 221 326 180 327 138 328 221 326 138 328 136 329 221 326 136 329 17 330 221 326 17 330 222 331 170 396 158 397 157 398 170 396 157 398 171 399 75 404 74 405 68 406 75 404 68 406 65 407 213 415 212 416 161 417 213 415 161 417 188 418 213 415 188 418 211 419 1 530 0 531 10 532 1 530 10 532 11 533 1 530 11 533 12 534 1 530 12 534 13 535 1 530 13 535 14 536 1 530 14 536 15 537 1 530 15 537 16 538 52 666 200 667 81 668 42 669 52 666 81 668 42 669 81 668 82 670 42 669 82 670 204 671 34 672 42 669 204 671 34 672 204 671 202 673 34 672 202 673 201 674 63 698 196 699 198 700 63 698 198 700 197 701 199 702 63 698 197 701 199 702 197 701 2 703 221 718 222 719 223 720 221 718 223 720 224 721 133 727 137 728 127 729 133 727 127 729 126 730 133 727 126 730 125 731 133 727 125 731 124 732 133 727 124 732 142 733 133 727 142 733 143 734 133 727 143 734 144 735 133 727 144 735 92 736 133 727 92 736 91 737 133 727 91 737 123 738 133 727 123 738 128 739 133 727 128 739 145 740 133 727 145 740 84 741 133 727 84 741 83 742 133 727 83 742 95 743 133 727 95 743 141 744 133 727 141 744 146 745 133 727 146 745 147 746 133 727 147 746 132 747 133 727 132 747 131 748 133 727 131 748 130 749 133 727 130 749 129 750 133 727 129 750 140 751 133 727 140 751 88 752 133 727 88 752 87 753 133 727 87 753 148 754 133 727 148 754 149 755 133 727 149 755 150 756 133 727 150 756 151 757 133 727 151 757 152 758 133 727 152 758 134 759 217 760 218 761 215 762 80 763 217 760 215 762 80 763 215 762 204 764 80 763 204 764 82 765 46 786 47 787 43 788 46 786 43 788 44 789 46 786 44 789 45 790 46 786 45 790 41 791 46 786 41 791 28 792 76 809 77 810 78 811 76 809 78 811 74 812 76 809 74 812 75 813</p>
                </triangles>
            </mesh>
        </geometry>
    </library_geometries>
    <library_visual_scenes>
        <visual_scene id="Building_DEBW_5221000QyPy">
            <node>
                <instance_geometry url="#geometry0">
                    <bind_material>
                        <technique_common>
                            <instance_material symbol="default_ai_0.2_sh_0.2_tr_0.0_dc_r_0.8_g_0.8_b_0.8_sc_r_1.0_g_1.0_b_1.0_ec_r_0.0_g_0.0_b_0_tri" target="#default_ai_0.2_sh_0.2_tr_0.0_dc_r_0.8_g_0.8_b_0.8_sc_r_1.0_g_1.0_b_1.0_ec_r_0.0_g_0.0_b_0_mat"/>
                            <instance_material symbol="default_ai_0.2_sh_0.2_tr_0.0_dc_r_1.0_g_0.2_b_0.2_sc_r_1.0_g_1.0_b_1.0_ec_r_0.0_g_0.0_b_0_tri" target="#default_ai_0.2_sh_0.2_tr_0.0_dc_r_1.0_g_0.2_b_0.2_sc_r_1.0_g_1.0_b_1.0_ec_r_0.0_g_0.0_b_0_mat"/>
                        </technique_common>
                    </bind_material>
                </instance_geometry>
            </node>
        </visual_scene>
    </library_visual_scenes>
    <scene>
        <instance_visual_scene url="#Building_DEBW_5221000QyPy"/>
    </scene>
</COLLADA>
