<?xml version="1.0" encoding="UTF-8" standalone="yes"?>
<COLLADA xmlns="http://www.collada.org/2005/11/COLLADASchema" version="1.4.1">
    <asset>
        <contributor>
            <authoring_tool>3D City Database Importer/Exporter, version 5.5.3; Chair of Geoinformatics, Technical University of Munich</authoring_tool>
        </contributor>
        <created>2026-05-06T15:12:12.879</created>
        <modified>2026-05-06T15:12:12.879</modified>
        <unit meter="1.0" name="meters"/>
        <up_axis>Z_UP</up_axis>
    </asset>
    <library_materials>
        <material id="default_ai_0.2_sh_0.2_tr_0.0_dc_r_0.8_g_0.8_b_0.8_sc_r_1.0_g_1.0_b_1.0_ec_r_0.0_g_0.0_b_0_mat">
            <instance_effect url="#default_ai_0.2_sh_0.2_tr_0.0_dc_r_0.8_g_0.8_b_0.8_sc_r_1.0_g_1.0_b_1.0_ec_r_0.0_g_0.0_b_0_eff"/>
        </material>
        <material id="default_ai_0.2_sh_0.2_tr_0.0_dc_r_1.0_g_0.2_b_0.2_sc_r_1.0_g_1.0_b_1.0_ec_r_0.0_g_0.0_b_0_mat">
            <instance_effect url="#default_ai_0.2_sh_0.2_tr_0.0_dc_r_1.0_g_0.2_b_0.2_sc_r_1.0_g_1.0_b_1.0_ec_r_0.0_g_0.0_b_0_eff"/>
        </material>
    </library_materials>
    <library_effects>
        <effect id="default_ai_0.2_sh_0.2_tr_0.0_dc_r_0.8_g_0.8_b_0.8_sc_r_1.0_g_1.0_b_1.0_ec_r_0.0_g_0.0_b_0_eff">
            <profile_COMMON>
                <technique sid="COMMON">
                    <lambert>
                        <emission>
                            <color>0.0 0.0 0.0 1.0</color>
                        </emission>
                        <diffuse>
                            <color>0.8 0.8 0.8 1.0</color>
                        </diffuse>
                        <reflective>
                            <color>1.0 1.0 1.0 1.0</color>
                        </reflective>
                        <reflectivity>
                            <float>0.2</float>
                        </reflectivity>
                        <transparent opaque="A_ONE">
                            <color>1.0 1.0 1.0 1.0</color>
                        </transparent>
                        <transparency>
                            <float>1.0</float>
                        </transparency>
                    </lambert>
                </technique>
                <extra>
                    <technique profile="GOOGLEEARTH">
                        <double_sided>0</double_sided>
                    </technique>
                </extra>
            </profile_COMMON>
        </effect>
        <effect id="default_ai_0.2_sh_0.2_tr_0.0_dc_r_1.0_g_0.2_b_0.2_sc_r_1.0_g_1.0_b_1.0_ec_r_0.0_g_0.0_b_0_eff">
            <profile_COMMON>
                <technique sid="COMMON">
                    <lambert>
                        <emission>
                            <color>0.0 0.0 0.0 1.0</color>
                        </emission>
                        <diffuse>
                            <color>1.0 0.2 0.2 1.0</color>
                        </diffuse>
                        <reflective>
                            <color>1.0 1.0 1.0 1.0</color>
                        </reflective>
                        <reflectivity>
                            <float>0.2</float>
                        </reflectivity>
                        <transparent opaque="A_ONE">
                            <color>1.0 1.0 1.0 1.0</color>
                        </transparent>
                        <transparency>
                            <float>1.0</float>
                        </transparency>
                    </lambert>
                </technique>
                <extra>
                    <technique profile="GOOGLEEARTH">
                        <double_sided>0</double_sided>
                    </technique>
                </extra>
            </profile_COMMON>
        </effect>
    </library_effects>
    <library_geometries>
        <geometry id="geometry0">
            <mesh>
                <source id="geometry0-position">
                    <float_array id="geometry0-position-array" count="66">-2.55 6.18 12.084 0.0 0.0 9.938 0.0 0.0 0.0 -2.55 6.18 0.0 -7.24 -19.25 2.76 -16.87 4.15 10.42 -16.87 4.15 0.0 -7.24 -19.25 0.0 -0.89 -16.66 2.749 -0.89 -16.66 0.0 0.37 -0.91 9.469 0.37 -0.91 0.0 -0.14 -18.63 1.744 -0.14 -18.63 0.0 -10.82 4.7 0.0 -10.92 5.5 0.0 6.54 -15.88 0.0 6.54 -15.88 1.744 -2.128 5.157 12.599 -15.089 -0.177 12.599 -10.92 5.5 10.893 -10.82 4.7 11.255</float_array>
                    <technique_common>
                        <accessor count="22" source="#geometry0-position-array" stride="3">
                            <param name="X" type="float"/>
                            <param name="Y" type="float"/>
                            <param name="Z" type="float"/>
                        </accessor>
                    </technique_common>
                </source>
                <source id="geometry0-normal">
                    <float_array id="geometry0-normal-array" count="210">-0.9922779 -0.1240352 0.0 -0.9922779 -0.1240352 0.0 -0.9922779 -0.1240352 0.0 -0.9922778 -0.1240352 0.0 0.3776674 -0.9259413 0.0 0.3776674 -0.9259413 0.0 0.3776674 -0.9259413 0.0 0.3776674 -0.9259413 0.0 -0.0905357 0.9958932 0.0 -0.0905357 0.9958932 0.0 -0.0905357 0.9958932 0.0 -0.0905357 0.9958932 0.0 0.3806801 -0.9247068 0.0 0.3806801 -0.9247068 0.0 0.3806801 -0.9247068 0.0 0.3806801 -0.9247068 0.0 -0.9247517 -0.3805709 0.0 -0.9247517 -0.3805709 0.0 -0.9247517 -0.3805709 0.0 -0.9247517 -0.3805709 0.0 -0.0809757 0.9967161 0.0 -0.0809757 0.9967161 0.0 -0.0809757 0.9967161 0.0 -0.0809757 0.9967161 0.0 -0.9247437 -0.3805908 7.04E-5 -0.9247437 -0.3805908 7.04E-5 -0.9247437 -0.3805908 7.04E-5 0.9245502 0.3810604 0.0 0.9245501 0.3810604 0.0 0.9245502 0.3810604 0.0 0.9245502 0.3810604 0.0 0.9243991 0.3814268 0.0 0.9243991 0.3814268 0.0 0.9243991 0.3814268 0.0 0.9243991 0.3814268 0.0 -0.160644 0.3903643 0.906537 -0.1605747 0.3901779 0.9066294 -0.1606762 0.3902815 0.9065669 -0.1606869 0.390357 0.9065325 -0.1606069 0.3904043 0.9065263 -0.1607032 0.3901562 0.906616 -0.9345629 -0.3557982 0.0 -0.9345629 -0.3557982 0.0 -0.9345629 -0.3557982 0.0 -0.9345628 -0.3557982 0.0 0.0 0.0 -1.0 0.0 0.0 -1.0 0.0 0.0 -1.0 0.0 0.0 -1.0 0.0 0.0 -1.0 0.0 0.0 -1.0 0.0 0.0 -1.0 0.0 0.0 -1.0 0.0 0.0 -1.0 0.0 0.0 -1.0 0.1639097 -0.3981564 0.9025549 0.1639489 -0.3981263 0.902561 0.1637597 -0.3981822 0.9025706 0.1636525 -0.3982103 0.9025776 0.163915 -0.3981932 0.9025376 0.1641395 -0.3981797 0.9025027 0.1642864 -0.398164 0.9024829 0.1639211 -0.3981795 0.9025425 0.9244136 0.3813916 1.186E-4 0.9244136 0.3813916 1.186E-4 0.9244136 0.3813916 1.186E-4 0.9263556 0.3766501 0.0 0.9263556 0.3766501 0.0 0.9263556 0.3766501 0.0 0.9263556 0.3766501 0.0</float_array>
                    <technique_common>
                        <accessor count="70" source="#geometry0-normal-array" stride="3">
                            <param name="X" type="float"/>
                            <param name="Y" type="float"/>
                            <param name="Z" type="float"/>
                        </accessor>
                    </technique_common>
                </source>
                <vertices id="geometry0-vertex">
                    <input semantic="POSITION" source="#geometry0-position"/>
                </vertices>
                <triangles count="30" material="default_ai_0.2_sh_0.2_tr_0.0_dc_r_0.8_g_0.8_b_0.8_sc_r_1.0_g_1.0_b_1.0_ec_r_0.0_g_0.0_b_0_tri">
                    <input offset="0" semantic="VERTEX" source="#geometry0-vertex"/>
                    <input offset="1" semantic="NORMAL" source="#geometry0-normal"/>
                    <p>21 0 20 1 15 2 21 0 15 2 14 3 8 4 4 5 7 6 8 4 7 6 9 7 5 8 21 9 14 10 5 8 14 10 6 11 17 12 12 13 13 14 17 12 13 14 16 15 4 16 5 17 6 18 4 16 6 18 7 19 20 20 0 21 3 22 20 20 3 22 15 23 5 24 4 25 19 26 10 27 17 28 16 29 10 27 16 29 11 30 0 31 1 32 2 33 0 31 2 33 3 34 12 41 8 42 9 43 12 41 9 43 13 44 9 45 7 46 6 47 9 45 6 47 14 48 9 45 14 48 15 49 9 45 15 49 3 50 9 45 3 50 2 51 9 45 2 51 11 52 9 45 11 52 16 53 9 45 16 53 13 54 1 63 0 64 18 65 1 66 10 67 11 68 1 66 11 68 2 69</p>
                </triangles>
                <triangles count="10" material="default_ai_0.2_sh_0.2_tr_0.0_dc_r_1.0_g_0.2_b_0.2_sc_r_1.0_g_1.0_b_1.0_ec_r_0.0_g_0.0_b_0_tri">
                    <input offset="0" semantic="VERTEX" source="#geometry0-vertex"/>
                    <input offset="1" semantic="NORMAL" source="#geometry0-normal"/>
                    <p>19 35 18 36 0 37 21 38 5 39 19 35 21 38 19 35 0 37 21 38 0 37 20 40 19 55 4 56 8 57 18 58 19 55 8 57 18 58 8 57 12 59 1 60 18 58 12 59 10 61 1 60 12 59 10 61 12 59 17 62</p>
                </triangles>
            </mesh>
        </geometry>
    </library_geometries>
    <library_visual_scenes>
        <visual_scene id="Building_DEBW_5221000Qyrm">
            <node>
                <instance_geometry url="#geometry0">
                    <bind_material>
                        <technique_common>
                            <instance_material symbol="default_ai_0.2_sh_0.2_tr_0.0_dc_r_0.8_g_0.8_b_0.8_sc_r_1.0_g_1.0_b_1.0_ec_r_0.0_g_0.0_b_0_tri" target="#default_ai_0.2_sh_0.2_tr_0.0_dc_r_0.8_g_0.8_b_0.8_sc_r_1.0_g_1.0_b_1.0_ec_r_0.0_g_0.0_b_0_mat"/>
                            <instance_material symbol="default_ai_0.2_sh_0.2_tr_0.0_dc_r_1.0_g_0.2_b_0.2_sc_r_1.0_g_1.0_b_1.0_ec_r_0.0_g_0.0_b_0_tri" target="#default_ai_0.2_sh_0.2_tr_0.0_dc_r_1.0_g_0.2_b_0.2_sc_r_1.0_g_1.0_b_1.0_ec_r_0.0_g_0.0_b_0_mat"/>
                        </technique_common>
                    </bind_material>
                </instance_geometry>
            </node>
        </visual_scene>
    </library_visual_scenes>
    <scene>
        <instance_visual_scene url="#Building_DEBW_5221000Qyrm"/>
    </scene>
</COLLADA>
