<?xml version="1.0" encoding="UTF-8" standalone="yes"?>
<COLLADA xmlns="http://www.collada.org/2005/11/COLLADASchema" version="1.4.1">
    <asset>
        <contributor>
            <authoring_tool>3D City Database Importer/Exporter, version 5.5.3; Chair of Geoinformatics, Technical University of Munich</authoring_tool>
        </contributor>
        <created>2026-05-06T15:12:12.258</created>
        <modified>2026-05-06T15:12:12.258</modified>
        <unit meter="1.0" name="meters"/>
        <up_axis>Z_UP</up_axis>
    </asset>
    <library_materials>
        <material id="default_ai_0.2_sh_0.2_tr_0.0_dc_r_0.8_g_0.8_b_0.8_sc_r_1.0_g_1.0_b_1.0_ec_r_0.0_g_0.0_b_0_mat">
            <instance_effect url="#default_ai_0.2_sh_0.2_tr_0.0_dc_r_0.8_g_0.8_b_0.8_sc_r_1.0_g_1.0_b_1.0_ec_r_0.0_g_0.0_b_0_eff"/>
        </material>
        <material id="default_ai_0.2_sh_0.2_tr_0.0_dc_r_1.0_g_0.2_b_0.2_sc_r_1.0_g_1.0_b_1.0_ec_r_0.0_g_0.0_b_0_mat">
            <instance_effect url="#default_ai_0.2_sh_0.2_tr_0.0_dc_r_1.0_g_0.2_b_0.2_sc_r_1.0_g_1.0_b_1.0_ec_r_0.0_g_0.0_b_0_eff"/>
        </material>
    </library_materials>
    <library_effects>
        <effect id="default_ai_0.2_sh_0.2_tr_0.0_dc_r_0.8_g_0.8_b_0.8_sc_r_1.0_g_1.0_b_1.0_ec_r_0.0_g_0.0_b_0_eff">
            <profile_COMMON>
                <technique sid="COMMON">
                    <lambert>
                        <emission>
                            <color>0.0 0.0 0.0 1.0</color>
                        </emission>
                        <diffuse>
                            <color>0.8 0.8 0.8 1.0</color>
                        </diffuse>
                        <reflective>
                            <color>1.0 1.0 1.0 1.0</color>
                        </reflective>
                        <reflectivity>
                            <float>0.2</float>
                        </reflectivity>
                        <transparent opaque="A_ONE">
                            <color>1.0 1.0 1.0 1.0</color>
                        </transparent>
                        <transparency>
                            <float>1.0</float>
                        </transparency>
                    </lambert>
                </technique>
                <extra>
                    <technique profile="GOOGLEEARTH">
                        <double_sided>0</double_sided>
                    </technique>
                </extra>
            </profile_COMMON>
        </effect>
        <effect id="default_ai_0.2_sh_0.2_tr_0.0_dc_r_1.0_g_0.2_b_0.2_sc_r_1.0_g_1.0_b_1.0_ec_r_0.0_g_0.0_b_0_eff">
            <profile_COMMON>
                <technique sid="COMMON">
                    <lambert>
                        <emission>
                            <color>0.0 0.0 0.0 1.0</color>
                        </emission>
                        <diffuse>
                            <color>1.0 0.2 0.2 1.0</color>
                        </diffuse>
                        <reflective>
                            <color>1.0 1.0 1.0 1.0</color>
                        </reflective>
                        <reflectivity>
                            <float>0.2</float>
                        </reflectivity>
                        <transparent opaque="A_ONE">
                            <color>1.0 1.0 1.0 1.0</color>
                        </transparent>
                        <transparency>
                            <float>1.0</float>
                        </transparency>
                    </lambert>
                </technique>
                <extra>
                    <technique profile="GOOGLEEARTH">
                        <double_sided>0</double_sided>
                    </technique>
                </extra>
            </profile_COMMON>
        </effect>
    </library_effects>
    <library_geometries>
        <geometry id="geometry0">
            <mesh>
                <source id="geometry0-position">
                    <float_array id="geometry0-position-array" count="48">0.0 0.0 0.0 4.026 1.617 0.0 6.506 -4.603 0.0 9.506 -3.383 0.0 9.606 -3.663 0.0 2.653 -6.493 0.0 -3.784 -9.113 0.0 -6.504 -2.613 0.0 0.0 0.0 9.285 4.026 1.617 6.841 -6.504 -2.613 7.027 9.606 -3.663 5.056 2.653 -6.493 9.285 9.506 -3.383 5.049 6.506 -4.603 6.873 -3.784 -9.113 7.046</float_array>
                    <technique_common>
                        <accessor count="16" source="#geometry0-position-array" stride="3">
                            <param name="X" type="float"/>
                            <param name="Y" type="float"/>
                            <param name="Z" type="float"/>
                        </accessor>
                    </technique_common>
                </source>
                <source id="geometry0-normal">
                    <float_array id="geometry0-normal-array" count="150">-0.3727923 0.9279148 0.0 -0.3727923 0.9279148 0.0 -0.3727923 0.9279148 0.0 -0.3727923 0.9279148 0.0 -0.3727017 0.9279512 0.0 -0.3727017 0.9279512 0.0 -0.3727017 0.9279512 0.0 -0.3727017 0.9279513 0.0 0.9417416 0.3363373 0.0 0.9417416 0.3363373 0.0 0.9417416 0.3363373 0.0 0.9417416 0.3363373 0.0 0.0 0.0 -1.0 0.0 0.0 -1.0 0.0 0.0 -1.0 0.0 0.0 -1.0 0.0 0.0 -1.0 0.0 0.0 -1.0 0.0 0.0 -1.0 0.0 0.0 -1.0 0.376988 -0.9262182 0.0 0.376988 -0.9262182 0.0 0.376988 -0.9262182 0.0 0.376988 -0.9262182 0.0 0.3769906 -0.9262171 0.0 0.3769906 -0.9262171 0.0 0.3769906 -0.9262171 0.0 0.3769906 -0.9262171 0.0 -0.2838559 -0.1159911 0.9518256 -0.2838453 -0.1159961 0.9518282 -0.2838559 -0.1159911 0.9518256 -0.2838664 -0.1159861 0.9518231 -0.3767084 0.9263319 0.0 -0.3767084 0.9263319 0.0 -0.3767084 0.9263319 0.0 -0.3767084 0.9263319 0.0 0.4543498 0.1856412 0.8712655 0.4543452 0.1856426 0.8712676 0.4543745 0.1855916 0.8712632 0.4545389 0.1851197 0.8712778 0.4546311 0.1848597 0.8712849 0.4548383 0.1842269 0.8713109 0.9288881 0.3703605 0.0 0.9288881 0.3703605 0.0 0.9288881 0.3703605 0.0 0.9288881 0.3703605 0.0 -0.922488 -0.3860258 0.0 -0.922488 -0.3860258 0.0 -0.922488 -0.3860258 0.0 -0.922488 -0.3860258 0.0</float_array>
                    <technique_common>
                        <accessor count="50" source="#geometry0-normal-array" stride="3">
                            <param name="X" type="float"/>
                            <param name="Y" type="float"/>
                            <param name="Z" type="float"/>
                        </accessor>
                    </technique_common>
                </source>
                <vertices id="geometry0-vertex">
                    <input semantic="POSITION" source="#geometry0-position"/>
                </vertices>
                <triangles count="22" material="default_ai_0.2_sh_0.2_tr_0.0_dc_r_0.8_g_0.8_b_0.8_sc_r_1.0_g_1.0_b_1.0_ec_r_0.0_g_0.0_b_0_tri">
                    <input offset="0" semantic="VERTEX" source="#geometry0-vertex"/>
                    <input offset="1" semantic="NORMAL" source="#geometry0-normal"/>
                    <p>10 0 8 1 0 2 10 0 0 2 7 3 8 4 9 5 1 6 8 4 1 6 0 7 13 8 11 9 4 10 13 8 4 10 3 11 6 12 7 13 0 14 6 12 0 14 1 15 6 12 1 15 2 16 6 12 2 16 3 17 5 18 6 12 3 17 5 18 3 17 4 19 11 20 12 21 5 22 11 20 5 22 4 23 12 24 15 25 6 26 12 24 6 26 5 27 14 32 13 33 3 34 14 32 3 34 2 35 9 42 14 43 2 44 9 42 2 44 1 45 15 46 10 47 7 48 15 46 7 48 6 49</p>
                </triangles>
                <triangles count="6" material="default_ai_0.2_sh_0.2_tr_0.0_dc_r_1.0_g_0.2_b_0.2_sc_r_1.0_g_1.0_b_1.0_ec_r_0.0_g_0.0_b_0_tri">
                    <input offset="0" semantic="VERTEX" source="#geometry0-vertex"/>
                    <input offset="1" semantic="NORMAL" source="#geometry0-normal"/>
                    <p>8 28 10 29 15 30 8 28 15 30 12 31 9 36 8 37 12 38 14 39 9 36 12 38 14 39 12 38 11 40 14 39 11 40 13 41</p>
                </triangles>
            </mesh>
        </geometry>
    </library_geometries>
    <library_visual_scenes>
        <visual_scene id="Building_DEBW_5221000Qtpb">
            <node>
                <instance_geometry url="#geometry0">
                    <bind_material>
                        <technique_common>
                            <instance_material symbol="default_ai_0.2_sh_0.2_tr_0.0_dc_r_0.8_g_0.8_b_0.8_sc_r_1.0_g_1.0_b_1.0_ec_r_0.0_g_0.0_b_0_tri" target="#default_ai_0.2_sh_0.2_tr_0.0_dc_r_0.8_g_0.8_b_0.8_sc_r_1.0_g_1.0_b_1.0_ec_r_0.0_g_0.0_b_0_mat"/>
                            <instance_material symbol="default_ai_0.2_sh_0.2_tr_0.0_dc_r_1.0_g_0.2_b_0.2_sc_r_1.0_g_1.0_b_1.0_ec_r_0.0_g_0.0_b_0_tri" target="#default_ai_0.2_sh_0.2_tr_0.0_dc_r_1.0_g_0.2_b_0.2_sc_r_1.0_g_1.0_b_1.0_ec_r_0.0_g_0.0_b_0_mat"/>
                        </technique_common>
                    </bind_material>
                </instance_geometry>
            </node>
        </visual_scene>
    </library_visual_scenes>
    <scene>
        <instance_visual_scene url="#Building_DEBW_5221000Qtpb"/>
    </scene>
</COLLADA>
