<?xml version="1.0" encoding="UTF-8" standalone="yes"?>
<COLLADA xmlns="http://www.collada.org/2005/11/COLLADASchema" version="1.4.1">
    <asset>
        <contributor>
            <authoring_tool>3D City Database Importer/Exporter, version 5.5.3; Chair of Geoinformatics, Technical University of Munich</authoring_tool>
        </contributor>
        <created>2026-05-06T15:12:06.346</created>
        <modified>2026-05-06T15:12:06.346</modified>
        <unit meter="1.0" name="meters"/>
        <up_axis>Z_UP</up_axis>
    </asset>
    <library_materials>
        <material id="default_ai_0.2_sh_0.2_tr_0.0_dc_r_0.8_g_0.8_b_0.8_sc_r_1.0_g_1.0_b_1.0_ec_r_0.0_g_0.0_b_0_mat">
            <instance_effect url="#default_ai_0.2_sh_0.2_tr_0.0_dc_r_0.8_g_0.8_b_0.8_sc_r_1.0_g_1.0_b_1.0_ec_r_0.0_g_0.0_b_0_eff"/>
        </material>
        <material id="default_ai_0.2_sh_0.2_tr_0.0_dc_r_1.0_g_0.2_b_0.2_sc_r_1.0_g_1.0_b_1.0_ec_r_0.0_g_0.0_b_0_mat">
            <instance_effect url="#default_ai_0.2_sh_0.2_tr_0.0_dc_r_1.0_g_0.2_b_0.2_sc_r_1.0_g_1.0_b_1.0_ec_r_0.0_g_0.0_b_0_eff"/>
        </material>
    </library_materials>
    <library_effects>
        <effect id="default_ai_0.2_sh_0.2_tr_0.0_dc_r_0.8_g_0.8_b_0.8_sc_r_1.0_g_1.0_b_1.0_ec_r_0.0_g_0.0_b_0_eff">
            <profile_COMMON>
                <technique sid="COMMON">
                    <lambert>
                        <emission>
                            <color>0.0 0.0 0.0 1.0</color>
                        </emission>
                        <diffuse>
                            <color>0.8 0.8 0.8 1.0</color>
                        </diffuse>
                        <reflective>
                            <color>1.0 1.0 1.0 1.0</color>
                        </reflective>
                        <reflectivity>
                            <float>0.2</float>
                        </reflectivity>
                        <transparent opaque="A_ONE">
                            <color>1.0 1.0 1.0 1.0</color>
                        </transparent>
                        <transparency>
                            <float>1.0</float>
                        </transparency>
                    </lambert>
                </technique>
                <extra>
                    <technique profile="GOOGLEEARTH">
                        <double_sided>0</double_sided>
                    </technique>
                </extra>
            </profile_COMMON>
        </effect>
        <effect id="default_ai_0.2_sh_0.2_tr_0.0_dc_r_1.0_g_0.2_b_0.2_sc_r_1.0_g_1.0_b_1.0_ec_r_0.0_g_0.0_b_0_eff">
            <profile_COMMON>
                <technique sid="COMMON">
                    <lambert>
                        <emission>
                            <color>0.0 0.0 0.0 1.0</color>
                        </emission>
                        <diffuse>
                            <color>1.0 0.2 0.2 1.0</color>
                        </diffuse>
                        <reflective>
                            <color>1.0 1.0 1.0 1.0</color>
                        </reflective>
                        <reflectivity>
                            <float>0.2</float>
                        </reflectivity>
                        <transparent opaque="A_ONE">
                            <color>1.0 1.0 1.0 1.0</color>
                        </transparent>
                        <transparency>
                            <float>1.0</float>
                        </transparency>
                    </lambert>
                </technique>
                <extra>
                    <technique profile="GOOGLEEARTH">
                        <double_sided>0</double_sided>
                    </technique>
                </extra>
            </profile_COMMON>
        </effect>
    </library_effects>
    <library_geometries>
        <geometry id="geometry0">
            <mesh>
                <source id="geometry0-position">
                    <float_array id="geometry0-position-array" count="90">1.711 -3.828 5.315 1.621 -3.588 5.328 1.621 -3.588 5.315 0.0 0.0 0.0 0.061 0.032 0.0 -1.789 4.002 0.0 5.881 7.542 0.0 9.591 -0.368 0.0 1.711 -3.828 0.0 1.621 -3.588 0.0 1.607 -3.595 0.0 1.607 -3.595 5.315 5.717 -2.069 8.379 2.111 5.802 8.379 -1.789 4.002 5.37 0.061 0.032 5.39 0.0 0.0 5.342 0.0 0.0 5.315 0.061 0.032 5.315 -1.789 4.002 5.315 0.0 0.0 4.106 9.591 -0.368 5.35 5.881 7.542 5.407 9.591 -0.368 5.315 5.881 7.542 5.315 1.607 -3.595 4.057 -1.219 -0.628 0.0 0.451 -4.148 0.0 -1.219 -0.628 3.35 0.451 -4.148 3.35</float_array>
                    <technique_common>
                        <accessor count="30" source="#geometry0-position-array" stride="3">
                            <param name="X" type="float"/>
                            <param name="Y" type="float"/>
                            <param name="Z" type="float"/>
                        </accessor>
                    </technique_common>
                </source>
                <source id="geometry0-normal">
                    <float_array id="geometry0-normal-array" count="336">-0.4645494 0.8855472 0.0 -0.4645493 0.8855472 0.0 -0.4645493 0.8855472 0.0 -0.4645494 0.8855472 0.0 -0.4645494 0.8855472 0.0 0.0 0.0 -1.0 0.0 0.0 -1.0 0.0 0.0 -1.0 0.0 0.0 -1.0 -0.9064163 -0.4223855 0.0 -0.9064163 -0.4223855 0.0 -0.9064163 -0.4223855 0.0 -0.9064163 -0.4223855 0.0 -0.9034764 -0.428638 0.0 -0.9034764 -0.428638 0.0 -0.9034764 -0.428638 0.0 -0.9034764 -0.428638 0.0 0.9053627 0.4246391 0.0 0.9053627 0.4246391 0.0 0.9053627 0.4246391 0.0 0.9053627 0.4246391 0.0 -0.9129403 -0.4080932 0.0 -0.9129403 -0.4080932 0.0 -0.9129403 -0.4080932 0.0 -0.9129403 -0.4080932 0.0 -0.9363293 -0.3511232 0.0 -0.9363293 -0.3511232 0.0 -0.9363293 -0.3511232 0.0 0.5292238 0.2424086 0.8131176 0.5291874 0.2423432 0.8131608 0.5292238 0.2424086 0.8131176 0.5292602 0.2424739 0.8130744 0.0 0.0 -1.0 0.0 0.0 -1.0 0.0 0.0 -1.0 0.0 0.0 -1.0 0.0 0.0 -1.0 0.0 0.0 -1.0 0.0 0.0 -1.0 0.0 0.0 -1.0 0.9053627 0.4246391 0.0 0.9053627 0.4246391 0.0 0.9053627 0.4246391 0.0 0.9053627 0.4246391 0.0 -0.4645493 0.8855472 0.0 -0.4645493 0.8855472 0.0 -0.4645493 0.8855472 0.0 -0.4645493 0.8855472 0.0 -0.9129403 -0.4080932 0.0 -0.9129403 -0.4080932 0.0 -0.9129403 -0.4080932 0.0 -0.4579741 0.8889656 0.0 -0.4579741 0.8889655 0.0 -0.4579741 0.8889656 0.0 -0.4579741 0.8889656 0.0 0.4472105 -0.8944287 0.0 0.4472105 -0.8944287 0.0 0.4472105 -0.8944287 0.0 -0.5367472 -0.2452833 0.8073032 -0.5201107 -0.2386536 0.8200788 -0.5515981 -0.2515621 0.7952711 -0.5416328 -0.2476028 0.8033223 -0.5211805 -0.2390264 0.8192908 -0.5216275 -0.2389497 0.8190285 -0.5206682 -0.2391416 0.8195828 -0.5215547 -0.2389438 0.8190766 0.4020376 -0.9156232 0.0 0.4020376 -0.9156232 0.0 0.4020376 -0.9156232 0.0 0.4020376 -0.9156232 0.0 -0.9129403 -0.4080932 0.0 -0.9129403 -0.4080932 0.0 -0.9129403 -0.4080932 0.0 -0.9129403 -0.4080932 0.0 0.4315381 -0.9020947 0.0 0.4315382 -0.9020947 0.0 0.4315381 -0.9020947 0.0 0.4315381 -0.9020947 0.0 -0.9064163 -0.4223855 0.0 -0.9064163 -0.4223855 0.0 -0.9064163 -0.4223855 0.0 -0.9064163 -0.4223855 0.0 -0.9363294 -0.3511232 0.0 -0.9363294 -0.3511232 0.0 -0.9363294 -0.3511232 0.0 -0.9363294 -0.3511232 0.0 0.4472106 -0.8944287 0.0 0.4472106 -0.8944287 0.0 0.4472106 -0.8944287 0.0 0.4472106 -0.8944287 0.0 0.4472106 -0.8944287 0.0 0.4020356 -0.915624 3.0E-6 0.4020336 -0.9156249 0.0 0.4020356 -0.915624 3.0E-6 0.4020376 -0.9156231 6.0E-6 0.9129403 0.4080932 0.0 0.9129403 0.4080932 0.0 0.9129403 0.4080932 0.0 0.9129403 0.4080932 0.0 -0.4364201 -0.2070344 0.8755993 -0.4364578 -0.207035 0.8755804 -0.4364201 -0.2070344 0.8755993 -0.4363825 -0.2070338 0.8756183 -0.4190581 0.9079594 0.0 -0.4190581 0.9079594 0.0 -0.4190581 0.9079594 0.0 -0.4190581 0.9079594 0.0 -0.4190582 0.9079594 -0.0 -0.4190581 0.9079594 0.0 -0.4190582 0.9079595 0.0 -0.4190582 0.9079594 -0.0 -0.4190581 0.9079594 -1.0E-7</float_array>
                    <technique_common>
                        <accessor count="112" source="#geometry0-normal-array" stride="3">
                            <param name="X" type="float"/>
                            <param name="Y" type="float"/>
                            <param name="Z" type="float"/>
                        </accessor>
                    </technique_common>
                </source>
                <vertices id="geometry0-vertex">
                    <input semantic="POSITION" source="#geometry0-position"/>
                </vertices>
                <triangles count="50" material="default_ai_0.2_sh_0.2_tr_0.0_dc_r_0.8_g_0.8_b_0.8_sc_r_1.0_g_1.0_b_1.0_ec_r_0.0_g_0.0_b_0_tri">
                    <input offset="0" semantic="VERTEX" source="#geometry0-vertex"/>
                    <input offset="1" semantic="NORMAL" source="#geometry0-normal"/>
                    <p>4 0 3 1 20 2 4 0 20 2 17 3 4 0 17 3 18 4 26 5 3 6 10 7 26 5 10 7 27 8 18 9 19 10 5 11 18 9 5 11 4 12 29 13 28 14 26 15 29 13 26 15 27 16 24 17 23 18 7 19 24 17 7 19 6 20 20 21 25 22 11 23 20 21 11 23 17 24 0 25 1 26 2 27 9 32 10 33 3 34 9 32 3 34 4 35 7 36 8 37 9 32 7 36 9 32 4 35 7 36 4 35 5 38 7 36 5 38 6 39 24 40 22 41 21 42 24 40 21 42 23 43 17 44 16 45 15 46 17 44 15 46 18 47 11 48 16 49 17 50 28 51 20 52 3 53 28 51 3 53 26 54 2 55 1 56 11 57 23 66 0 67 8 68 23 66 8 68 7 69 20 70 3 71 10 72 20 70 10 72 25 73 25 74 29 75 27 76 25 74 27 76 10 77 18 78 15 79 14 80 18 78 14 80 19 81 0 82 2 83 9 84 0 82 9 84 8 85 10 86 9 87 2 88 25 89 10 86 2 88 25 89 2 88 11 90 23 91 21 92 12 93 23 91 12 93 0 94 25 95 10 96 3 97 25 95 3 97 20 98 19 103 24 104 6 105 19 103 6 105 5 106 22 107 24 108 19 109 22 107 19 109 14 110 22 107 14 110 13 111</p>
                </triangles>
                <triangles count="10" material="default_ai_0.2_sh_0.2_tr_0.0_dc_r_1.0_g_0.2_b_0.2_sc_r_1.0_g_1.0_b_1.0_ec_r_0.0_g_0.0_b_0_tri">
                    <input offset="0" semantic="VERTEX" source="#geometry0-vertex"/>
                    <input offset="1" semantic="NORMAL" source="#geometry0-normal"/>
                    <p>21 28 22 29 13 30 21 28 13 30 12 31 15 58 16 59 11 60 15 58 11 60 1 61 13 62 14 63 15 58 13 62 15 58 1 61 13 62 1 61 0 64 13 62 0 64 12 65 29 99 25 100 20 101 29 99 20 101 28 102</p>
                </triangles>
            </mesh>
        </geometry>
    </library_geometries>
    <library_visual_scenes>
        <visual_scene id="Building_DEBW_5221000QjvS">
            <node>
                <instance_geometry url="#geometry0">
                    <bind_material>
                        <technique_common>
                            <instance_material symbol="default_ai_0.2_sh_0.2_tr_0.0_dc_r_0.8_g_0.8_b_0.8_sc_r_1.0_g_1.0_b_1.0_ec_r_0.0_g_0.0_b_0_tri" target="#default_ai_0.2_sh_0.2_tr_0.0_dc_r_0.8_g_0.8_b_0.8_sc_r_1.0_g_1.0_b_1.0_ec_r_0.0_g_0.0_b_0_mat"/>
                            <instance_material symbol="default_ai_0.2_sh_0.2_tr_0.0_dc_r_1.0_g_0.2_b_0.2_sc_r_1.0_g_1.0_b_1.0_ec_r_0.0_g_0.0_b_0_tri" target="#default_ai_0.2_sh_0.2_tr_0.0_dc_r_1.0_g_0.2_b_0.2_sc_r_1.0_g_1.0_b_1.0_ec_r_0.0_g_0.0_b_0_mat"/>
                        </technique_common>
                    </bind_material>
                </instance_geometry>
            </node>
        </visual_scene>
    </library_visual_scenes>
    <scene>
        <instance_visual_scene url="#Building_DEBW_5221000QjvS"/>
    </scene>
</COLLADA>
