<?xml version="1.0" encoding="UTF-8" standalone="yes"?>
<COLLADA xmlns="http://www.collada.org/2005/11/COLLADASchema" version="1.4.1">
    <asset>
        <contributor>
            <authoring_tool>3D City Database Importer/Exporter, version 5.5.3; Chair of Geoinformatics, Technical University of Munich</authoring_tool>
        </contributor>
        <created>2026-05-06T15:12:13.388</created>
        <modified>2026-05-06T15:12:13.388</modified>
        <unit meter="1.0" name="meters"/>
        <up_axis>Z_UP</up_axis>
    </asset>
    <library_materials>
        <material id="default_ai_0.2_sh_0.2_tr_0.0_dc_r_0.8_g_0.8_b_0.8_sc_r_1.0_g_1.0_b_1.0_ec_r_0.0_g_0.0_b_0_mat">
            <instance_effect url="#default_ai_0.2_sh_0.2_tr_0.0_dc_r_0.8_g_0.8_b_0.8_sc_r_1.0_g_1.0_b_1.0_ec_r_0.0_g_0.0_b_0_eff"/>
        </material>
        <material id="default_ai_0.2_sh_0.2_tr_0.0_dc_r_1.0_g_0.2_b_0.2_sc_r_1.0_g_1.0_b_1.0_ec_r_0.0_g_0.0_b_0_mat">
            <instance_effect url="#default_ai_0.2_sh_0.2_tr_0.0_dc_r_1.0_g_0.2_b_0.2_sc_r_1.0_g_1.0_b_1.0_ec_r_0.0_g_0.0_b_0_eff"/>
        </material>
    </library_materials>
    <library_effects>
        <effect id="default_ai_0.2_sh_0.2_tr_0.0_dc_r_0.8_g_0.8_b_0.8_sc_r_1.0_g_1.0_b_1.0_ec_r_0.0_g_0.0_b_0_eff">
            <profile_COMMON>
                <technique sid="COMMON">
                    <lambert>
                        <emission>
                            <color>0.0 0.0 0.0 1.0</color>
                        </emission>
                        <diffuse>
                            <color>0.8 0.8 0.8 1.0</color>
                        </diffuse>
                        <reflective>
                            <color>1.0 1.0 1.0 1.0</color>
                        </reflective>
                        <reflectivity>
                            <float>0.2</float>
                        </reflectivity>
                        <transparent opaque="A_ONE">
                            <color>1.0 1.0 1.0 1.0</color>
                        </transparent>
                        <transparency>
                            <float>1.0</float>
                        </transparency>
                    </lambert>
                </technique>
                <extra>
                    <technique profile="GOOGLEEARTH">
                        <double_sided>0</double_sided>
                    </technique>
                </extra>
            </profile_COMMON>
        </effect>
        <effect id="default_ai_0.2_sh_0.2_tr_0.0_dc_r_1.0_g_0.2_b_0.2_sc_r_1.0_g_1.0_b_1.0_ec_r_0.0_g_0.0_b_0_eff">
            <profile_COMMON>
                <technique sid="COMMON">
                    <lambert>
                        <emission>
                            <color>0.0 0.0 0.0 1.0</color>
                        </emission>
                        <diffuse>
                            <color>1.0 0.2 0.2 1.0</color>
                        </diffuse>
                        <reflective>
                            <color>1.0 1.0 1.0 1.0</color>
                        </reflective>
                        <reflectivity>
                            <float>0.2</float>
                        </reflectivity>
                        <transparent opaque="A_ONE">
                            <color>1.0 1.0 1.0 1.0</color>
                        </transparent>
                        <transparency>
                            <float>1.0</float>
                        </transparency>
                    </lambert>
                </technique>
                <extra>
                    <technique profile="GOOGLEEARTH">
                        <double_sided>0</double_sided>
                    </technique>
                </extra>
            </profile_COMMON>
        </effect>
    </library_effects>
    <library_geometries>
        <geometry id="geometry0">
            <mesh>
                <source id="geometry0-position">
                    <float_array id="geometry0-position-array" count="246">-0.011 0.108 9.018 0.0 0.0 9.018 0.0 0.0 0.0 -0.011 0.108 0.0 -18.67 11.75 9.018 -18.685 11.792 9.018 -18.685 11.792 0.0 -18.67 11.75 0.0 -3.815 -5.125 9.018 -3.964 -5.138 9.018 -3.964 -5.138 0.0 -3.815 -5.125 0.0 -18.542 12.324 9.018 -18.434 12.402 9.018 -18.434 12.402 0.0 -18.542 12.324 0.0 -4.11 -5.11 9.018 -15.18 0.81 9.018 -15.18 0.81 0.0 -4.11 -5.11 0.0 -11.029 15.426 9.018 -10.91 15.443 9.018 -10.91 15.443 0.0 -11.029 15.426 0.0 -3.676 -5.073 9.018 -3.676 -5.073 0.0 -18.706 11.968 9.018 -18.683 12.1 9.018 -18.683 12.1 0.0 -18.706 11.968 0.0 -16.042 1.784 9.018 -16.162 2.018 9.018 -16.162 2.018 0.0 -16.042 1.784 0.0 -15.384 0.974 9.018 -15.574 1.156 9.018 -15.574 1.156 0.0 -15.384 0.974 0.0 -16.261 2.26 9.018 -16.34 2.51 9.018 -16.34 2.51 0.0 -16.261 2.26 0.0 -0.081 -0.246 9.018 -0.11 -0.29 9.018 -0.11 -0.29 0.0 -0.081 -0.246 0.0 -6.49 8.47 9.018 -0.09 0.31 9.018 -0.09 0.31 0.0 -6.49 8.47 0.0 -18.331 12.444 9.018 -18.331 12.444 0.0 -18.627 12.221 9.018 -18.627 12.221 0.0 -10.678 15.388 9.018 -10.579 15.32 9.018 -10.579 15.32 0.0 -10.678 15.388 0.0 -15.904 1.562 9.018 -15.904 1.562 0.0 -18.696 11.835 9.018 -18.696 11.835 0.0 -11.14 15.38 9.018 -11.14 15.38 0.0 -15.747 1.352 0.0 -18.31 12.45 0.0 -10.791 15.43 0.0 -10.5 15.23 0.0 -0.041 0.213 0.0 -0.036 -0.152 0.0 -3.49 -4.91 0.0 -3.521 -4.949 0.0 -3.555 -4.985 0.0 -3.521 -4.949 9.018 -3.555 -4.985 9.018 -0.041 0.213 9.018 -18.31 12.45 9.018 -0.036 -0.152 9.018 -10.5 15.23 9.018 -10.791 15.43 9.018 -3.49 -4.91 9.018 -15.747 1.352 9.018</float_array>
                    <technique_common>
                        <accessor count="82" source="#geometry0-position-array" stride="3">
                            <param name="X" type="float"/>
                            <param name="Y" type="float"/>
                            <param name="Z" type="float"/>
                        </accessor>
                    </technique_common>
                </source>
                <source id="geometry0-normal">
                    <float_array id="geometry0-normal-array" count="738">0.5661746 0.8242854 0.0 0.5661746 0.8242854 0.0 0.5661746 0.8242854 0.0 0.5661746 0.8242854 0.0 -0.9255483 -0.3786295 0.0 -0.9255483 -0.3786295 0.0 -0.9255483 -0.3786295 0.0 -0.9255483 -0.3786295 0.0 -0.4715802 -0.8818231 0.0 -0.4715802 -0.8818231 0.0 -0.4715802 -0.8818231 0.0 -0.4715802 -0.8818231 0.0 -0.9535245 -0.3013155 0.0 -0.9535245 -0.3013155 0.0 -0.9535245 -0.3013155 0.0 -0.9535245 -0.3013155 0.0 0.3484006 0.9373457 0.0 0.3484006 0.9373457 0.0 0.3484006 0.9373457 0.0 0.3484006 0.9373457 0.0 0.0 0.0 1.0 0.0 0.0 1.0 0.0 0.0 1.0 0.0 0.0 1.0 0.0 0.0 1.0 0.0 0.0 1.0 0.0 0.0 1.0 0.0 0.0 1.0 0.0 0.0 1.0 0.0 0.0 1.0 0.0 0.0 1.0 0.0 0.0 1.0 0.0 0.0 1.0 0.0 0.0 1.0 0.0 0.0 1.0 0.0 0.0 1.0 0.0 0.0 1.0 0.0 0.0 1.0 0.0 0.0 1.0 0.0 0.0 1.0 0.0 0.0 1.0 0.0 0.0 1.0 0.0 0.0 1.0 0.0 0.0 1.0 0.0 0.0 1.0 0.0 0.0 1.0 0.0 0.0 1.0 0.0 0.0 1.0 0.0 0.0 1.0 0.0 0.0 1.0 0.0 0.0 1.0 0.0 0.0 1.0 0.0 0.0 1.0 0.0 0.0 1.0 0.0 0.0 1.0 0.0 0.0 1.0 0.0 0.0 1.0 0.0 0.0 1.0 0.0 0.0 1.0 0.0 0.0 1.0 0.0 0.0 1.0 -0.1414225 0.9899493 0.0 -0.1414225 0.9899493 0.0 -0.1414225 0.9899493 0.0 -0.1414225 0.9899493 0.0 0.8349581 -0.5503135 0.0 0.8349581 -0.5503135 0.0 0.8349581 -0.5503135 0.0 0.8349581 -0.5503135 0.0 -0.7712797 0.6364964 0.0 -0.7712797 0.6364964 0.0 -0.7712797 0.6364964 0.0 -0.7712797 0.6364964 0.0 -0.8009135 -0.5987802 0.0 -0.8009135 -0.5987802 0.0 -0.8009135 -0.5987802 0.0 -0.8009135 -0.5987802 0.0 -0.3828383 0.9238154 0.0 -0.3828383 0.9238154 0.0 -0.3828383 0.9238154 0.0 -0.3828383 0.9238154 0.0 0.8600641 0.510186 0.0 0.8600641 0.510186 0.0 0.8600641 0.510186 0.0 0.8600641 0.510186 0.0 0.3503853 -0.9366056 0.0 0.3503853 -0.9366056 0.0 0.3503853 -0.9366056 0.0 0.3503853 -0.9366056 0.0 0.7868534 0.6171399 0.0 0.7868534 0.6171399 0.0 0.7868534 0.6171399 0.0 0.7868534 0.6171399 0.0 0.961524 0.2747212 0.0 0.961524 0.2747212 0.0 0.961524 0.2747212 0.0 0.961524 0.2747212 0.0 -0.9971852 -0.0749778 0.0 -0.9971852 -0.0749778 0.0 -0.9971852 -0.0749778 0.0 -0.9971852 -0.0749778 0.0 -0.378281 0.9256908 0.0 -0.378281 0.9256908 0.0 -0.378281 0.9256908 0.0 -0.378281 0.9256908 0.0 0.9730803 -0.2304664 0.0 0.9730803 -0.2304664 0.0 0.9730803 -0.2304664 0.0 0.9730803 -0.2304664 0.0 -0.6265578 -0.779375 0.0 -0.6265578 -0.779375 0.0 -0.6265578 -0.779375 0.0 -0.6265578 -0.779375 0.0 -0.9851584 0.1716475 0.0 -0.9851584 0.1716475 0.0 -0.9851584 0.1716475 0.0 -0.9851584 0.1716475 0.0 -0.8492861 -0.5279328 0.0 -0.8492861 -0.5279328 0.0 -0.8492861 -0.5279328 0.0 -0.8492861 -0.5279328 0.0 -0.7497273 -0.6617469 0.0 -0.7497273 -0.6617469 0.0 -0.7497273 -0.6617469 0.0 -0.7497273 -0.6617469 0.0 0.7515398 0.6596878 0.0 0.7515398 0.6596878 0.0 0.7515398 0.6596878 0.0 0.7515398 0.6596878 0.0 0.0 0.0 -1.0 0.0 0.0 -1.0 0.0 0.0 -1.0 0.0 0.0 -1.0 0.0 0.0 -1.0 0.0 0.0 -1.0 0.0 0.0 -1.0 0.0 0.0 -1.0 0.0 0.0 -1.0 0.0 0.0 -1.0 0.0 0.0 -1.0 0.0 0.0 -1.0 0.0 0.0 -1.0 0.0 0.0 -1.0 0.0 0.0 -1.0 0.0 0.0 -1.0 0.0 0.0 -1.0 0.0 0.0 -1.0 0.0 0.0 -1.0 0.0 0.0 -1.0 0.0 0.0 -1.0 0.0 0.0 -1.0 0.0 0.0 -1.0 0.0 0.0 -1.0 0.0 0.0 -1.0 0.0 0.0 -1.0 0.0 0.0 -1.0 0.0 0.0 -1.0 0.0 0.0 -1.0 0.0 0.0 -1.0 0.0 0.0 -1.0 0.0 0.0 -1.0 0.0 0.0 -1.0 0.0 0.0 -1.0 0.0 0.0 -1.0 0.0 0.0 -1.0 0.0 0.0 -1.0 0.0 0.0 -1.0 0.0 0.0 -1.0 0.0 0.0 -1.0 0.0 0.0 -1.0 0.8070709 -0.5904545 0.0 0.8070709 -0.5904545 0.0 0.8070709 -0.5904545 0.0 0.8070709 -0.5904545 0.0 -0.2747038 0.9615289 0.0 -0.2747038 0.9615289 0.0 -0.2747038 0.9615289 0.0 -0.2747038 0.9615289 0.0 -0.377579 0.9259773 0.0 -0.377579 0.9259773 0.0 -0.377579 0.9259773 0.0 -0.377579 0.9259773 0.0 -0.9688047 -0.2478253 0.0 -0.9688047 -0.2478253 0.0 -0.9688047 -0.2478253 0.0 -0.9688047 -0.2478253 0.0 0.7270139 -0.6866227 0.0 0.7270139 -0.6866227 0.0 0.7270139 -0.6866227 0.0 0.7270139 -0.6866227 0.0 0.9948531 0.1013276 0.0 0.9948531 0.1013276 0.0 0.9948531 0.1013276 0.0 0.9948531 0.1013276 0.0 0.8925793 0.4508906 0.0 0.8925793 0.4508906 0.0 0.8925793 0.4508906 0.0 0.8925793 0.4508906 0.0 0.7828245 -0.6222426 0.0 0.7828245 -0.6222426 0.0 0.7828245 -0.6222426 0.0 0.7828245 -0.6222426 0.0 -0.9417459 -0.3363256 0.0 -0.9417459 -0.3363256 0.0 -0.9417459 -0.3363256 0.0 -0.9417459 -0.3363256 0.0 -0.889816 -0.4563194 0.0 -0.889816 -0.4563194 0.0 -0.889816 -0.4563194 0.0 -0.889816 -0.4563194 0.0 0.1085942 0.9940861 0.0 0.1085942 0.9940861 0.0 0.1085942 0.9940861 0.0 0.1085942 0.9940861 0.0 0.0869182 -0.9962155 0.0 0.0869182 -0.9962155 0.0 0.0869182 -0.9962155 0.0 0.0869182 -0.9962155 0.0 -0.6917393 -0.7221473 0.0 -0.6917393 -0.7221473 0.0 -0.6917393 -0.7221473 0.0 -0.6917393 -0.7221473 0.0 -0.1883474 -0.9821025 0.0 -0.1883474 -0.9821025 0.0 -0.1883474 -0.9821025 0.0 -0.1883474 -0.9821025 0.0 0.5881708 -0.8087367 0.0 0.5881708 -0.8087367 0.0 0.5881708 -0.8087367 0.0 0.5881708 -0.8087367 0.0 -0.9075198 0.4200096 0.0 -0.9075198 0.4200096 0.0 -0.9075198 0.4200096 0.0 -0.9075198 0.4200096 0.0 -0.9696466 -0.2445105 0.0 -0.9696466 -0.2445105 0.0 -0.9696466 -0.2445105 0.0 -0.9696466 -0.2445105 0.0 0.9019719 -0.431795 0.0 0.9019719 -0.431795 0.0 0.9019719 -0.431795 0.0 0.9019719 -0.431795 0.0 -0.5854916 0.8106785 0.0 -0.5854916 0.8106785 0.0 -0.5854916 0.8106785 0.0 -0.5854916 0.8106785 0.0</float_array>
                    <technique_common>
                        <accessor count="246" source="#geometry0-normal-array" stride="3">
                            <param name="X" type="float"/>
                            <param name="Y" type="float"/>
                            <param name="Z" type="float"/>
                        </accessor>
                    </technique_common>
                </source>
                <vertices id="geometry0-vertex">
                    <input semantic="POSITION" source="#geometry0-position"/>
                </vertices>
                <triangles count="121" material="default_ai_0.2_sh_0.2_tr_0.0_dc_r_0.8_g_0.8_b_0.8_sc_r_1.0_g_1.0_b_1.0_ec_r_0.0_g_0.0_b_0_tri">
                    <input offset="0" semantic="VERTEX" source="#geometry0-vertex"/>
                    <input offset="1" semantic="NORMAL" source="#geometry0-normal"/>
                    <p>54 0 55 1 56 2 54 0 56 2 57 3 31 4 38 5 41 6 31 4 41 6 32 7 16 8 17 9 18 10 16 8 18 10 19 11 38 12 39 13 40 14 38 12 40 14 41 15 79 16 54 17 57 18 79 16 57 18 66 19 20 61 21 62 22 63 20 61 22 63 23 64 42 65 43 66 44 67 42 65 44 67 45 68 52 69 12 70 15 71 52 69 15 71 53 72 81 73 58 74 59 75 81 73 59 75 64 76 62 77 20 78 23 79 62 77 23 79 63 80 78 81 46 82 49 83 78 81 49 83 67 84 24 85 8 86 11 87 24 85 11 87 25 88 46 89 47 90 48 91 46 89 48 91 49 92 75 93 0 94 3 95 75 93 3 95 68 96 60 97 26 98 29 99 60 97 29 99 61 100 76 101 62 102 63 103 76 101 63 103 65 104 1 105 77 106 69 107 1 105 69 107 2 108 17 109 34 110 37 111 17 109 37 111 18 112 26 113 27 114 28 115 26 113 28 115 29 116 58 117 30 118 33 119 58 117 33 119 59 120 35 121 81 122 64 123 35 121 64 123 36 124 55 125 78 126 67 127 55 125 67 127 56 128 71 129 72 130 25 131 71 129 25 131 11 132 71 129 11 132 10 133 71 129 10 133 19 134 71 129 19 134 18 135 71 129 18 135 37 136 71 129 37 136 36 137 71 129 36 137 64 138 71 129 64 138 59 139 71 129 59 139 33 140 71 129 33 140 32 141 71 129 32 141 41 142 71 129 41 142 40 143 71 129 40 143 7 144 71 129 7 144 6 145 71 129 6 145 61 146 71 129 61 146 29 147 71 129 29 147 28 148 71 129 28 148 53 149 71 129 53 149 15 150 71 129 15 150 14 151 71 129 14 151 51 152 71 129 51 152 65 153 71 129 65 153 63 154 71 129 63 154 23 155 71 129 23 155 22 156 71 129 22 156 66 157 71 129 66 157 57 158 71 129 57 158 56 159 71 129 56 159 67 160 71 129 67 160 49 161 71 129 49 161 48 162 71 129 48 162 68 163 71 129 68 163 3 164 71 129 3 164 2 165 71 129 2 165 69 166 71 129 69 166 45 167 71 129 45 167 44 168 71 129 44 168 70 169 43 170 80 171 70 172 43 170 70 172 44 173 50 174 76 175 65 176 50 174 65 176 51 177 13 178 50 179 51 180 13 178 51 180 14 181 5 182 60 183 61 184 5 182 61 184 6 185 73 186 74 187 72 188 73 186 72 188 71 189 0 190 1 191 2 192 0 190 2 192 3 193 47 194 75 195 68 196 47 194 68 196 48 197 80 198 73 199 71 200 80 198 71 200 70 201 4 202 5 203 6 204 4 202 6 204 7 205 30 206 31 207 32 208 30 206 32 208 33 209 21 210 79 211 66 212 21 210 66 212 22 213 8 214 9 215 10 216 8 214 10 216 11 217 34 218 35 219 36 220 34 218 36 220 37 221 9 222 16 223 19 224 9 222 19 224 10 225 74 226 24 227 25 228 74 226 25 228 72 229 27 230 52 231 53 232 27 230 53 232 28 233 39 234 4 235 7 236 39 234 7 236 40 237 77 238 42 239 45 240 77 238 45 240 69 241 12 242 13 243 14 244 12 242 14 244 15 245</p>
                </triangles>
                <triangles count="39" material="default_ai_0.2_sh_0.2_tr_0.0_dc_r_1.0_g_0.2_b_0.2_sc_r_1.0_g_1.0_b_1.0_ec_r_0.0_g_0.0_b_0_tri">
                    <input offset="0" semantic="VERTEX" source="#geometry0-vertex"/>
                    <input offset="1" semantic="NORMAL" source="#geometry0-normal"/>
                    <p>8 20 24 21 74 22 8 20 74 22 73 23 8 20 73 23 80 24 8 20 80 24 43 25 8 20 43 25 42 26 8 20 42 26 77 27 8 20 77 27 1 28 8 20 1 28 0 29 8 20 0 29 75 30 8 20 75 30 47 31 8 20 47 31 46 32 8 20 46 32 78 33 8 20 78 33 55 34 8 20 55 34 54 35 8 20 54 35 79 36 8 20 79 36 21 37 8 20 21 37 20 38 8 20 20 38 62 39 8 20 62 39 76 40 8 20 76 40 50 41 8 20 50 41 13 42 8 20 13 42 12 43 8 20 12 43 52 44 8 20 52 44 27 45 8 20 27 45 26 46 8 20 26 46 60 47 8 20 60 47 5 48 8 20 5 48 4 49 8 20 4 49 39 50 8 20 39 50 38 51 8 20 38 51 31 52 8 20 31 52 30 53 8 20 30 53 58 54 8 20 58 54 81 55 8 20 81 55 35 56 8 20 35 56 34 57 8 20 34 57 17 58 8 20 17 58 16 59 8 20 16 59 9 60</p>
                </triangles>
            </mesh>
        </geometry>
    </library_geometries>
    <library_visual_scenes>
        <visual_scene id="Building_DEBW_522dB00001C">
            <node>
                <instance_geometry url="#geometry0">
                    <bind_material>
                        <technique_common>
                            <instance_material symbol="default_ai_0.2_sh_0.2_tr_0.0_dc_r_0.8_g_0.8_b_0.8_sc_r_1.0_g_1.0_b_1.0_ec_r_0.0_g_0.0_b_0_tri" target="#default_ai_0.2_sh_0.2_tr_0.0_dc_r_0.8_g_0.8_b_0.8_sc_r_1.0_g_1.0_b_1.0_ec_r_0.0_g_0.0_b_0_mat"/>
                            <instance_material symbol="default_ai_0.2_sh_0.2_tr_0.0_dc_r_1.0_g_0.2_b_0.2_sc_r_1.0_g_1.0_b_1.0_ec_r_0.0_g_0.0_b_0_tri" target="#default_ai_0.2_sh_0.2_tr_0.0_dc_r_1.0_g_0.2_b_0.2_sc_r_1.0_g_1.0_b_1.0_ec_r_0.0_g_0.0_b_0_mat"/>
                        </technique_common>
                    </bind_material>
                </instance_geometry>
            </node>
        </visual_scene>
    </library_visual_scenes>
    <scene>
        <instance_visual_scene url="#Building_DEBW_522dB00001C"/>
    </scene>
</COLLADA>
