<?xml version="1.0" encoding="UTF-8" standalone="yes"?>
<COLLADA xmlns="http://www.collada.org/2005/11/COLLADASchema" version="1.4.1">
    <asset>
        <contributor>
            <authoring_tool>3D City Database Importer/Exporter, version 5.5.3; Chair of Geoinformatics, Technical University of Munich</authoring_tool>
        </contributor>
        <created>2026-05-06T15:12:05.919</created>
        <modified>2026-05-06T15:12:05.919</modified>
        <unit meter="1.0" name="meters"/>
        <up_axis>Z_UP</up_axis>
    </asset>
    <library_materials>
        <material id="default_ai_0.2_sh_0.2_tr_0.0_dc_r_0.8_g_0.8_b_0.8_sc_r_1.0_g_1.0_b_1.0_ec_r_0.0_g_0.0_b_0_mat">
            <instance_effect url="#default_ai_0.2_sh_0.2_tr_0.0_dc_r_0.8_g_0.8_b_0.8_sc_r_1.0_g_1.0_b_1.0_ec_r_0.0_g_0.0_b_0_eff"/>
        </material>
        <material id="default_ai_0.2_sh_0.2_tr_0.0_dc_r_1.0_g_0.2_b_0.2_sc_r_1.0_g_1.0_b_1.0_ec_r_0.0_g_0.0_b_0_mat">
            <instance_effect url="#default_ai_0.2_sh_0.2_tr_0.0_dc_r_1.0_g_0.2_b_0.2_sc_r_1.0_g_1.0_b_1.0_ec_r_0.0_g_0.0_b_0_eff"/>
        </material>
    </library_materials>
    <library_effects>
        <effect id="default_ai_0.2_sh_0.2_tr_0.0_dc_r_0.8_g_0.8_b_0.8_sc_r_1.0_g_1.0_b_1.0_ec_r_0.0_g_0.0_b_0_eff">
            <profile_COMMON>
                <technique sid="COMMON">
                    <lambert>
                        <emission>
                            <color>0.0 0.0 0.0 1.0</color>
                        </emission>
                        <diffuse>
                            <color>0.8 0.8 0.8 1.0</color>
                        </diffuse>
                        <reflective>
                            <color>1.0 1.0 1.0 1.0</color>
                        </reflective>
                        <reflectivity>
                            <float>0.2</float>
                        </reflectivity>
                        <transparent opaque="A_ONE">
                            <color>1.0 1.0 1.0 1.0</color>
                        </transparent>
                        <transparency>
                            <float>1.0</float>
                        </transparency>
                    </lambert>
                </technique>
                <extra>
                    <technique profile="GOOGLEEARTH">
                        <double_sided>0</double_sided>
                    </technique>
                </extra>
            </profile_COMMON>
        </effect>
        <effect id="default_ai_0.2_sh_0.2_tr_0.0_dc_r_1.0_g_0.2_b_0.2_sc_r_1.0_g_1.0_b_1.0_ec_r_0.0_g_0.0_b_0_eff">
            <profile_COMMON>
                <technique sid="COMMON">
                    <lambert>
                        <emission>
                            <color>0.0 0.0 0.0 1.0</color>
                        </emission>
                        <diffuse>
                            <color>1.0 0.2 0.2 1.0</color>
                        </diffuse>
                        <reflective>
                            <color>1.0 1.0 1.0 1.0</color>
                        </reflective>
                        <reflectivity>
                            <float>0.2</float>
                        </reflectivity>
                        <transparent opaque="A_ONE">
                            <color>1.0 1.0 1.0 1.0</color>
                        </transparent>
                        <transparency>
                            <float>1.0</float>
                        </transparency>
                    </lambert>
                </technique>
                <extra>
                    <technique profile="GOOGLEEARTH">
                        <double_sided>0</double_sided>
                    </technique>
                </extra>
            </profile_COMMON>
        </effect>
    </library_effects>
    <library_geometries>
        <geometry id="geometry0">
            <mesh>
                <source id="geometry0-position">
                    <float_array id="geometry0-position-array" count="48">-0.499 5.094 12.552 11.628 6.29 12.552 11.18 11.47 7.106 -1.0 10.26 7.116 -0.87 8.86 8.588 12.07 1.19 7.13 0.0 0.0 7.13 0.0 0.0 0.0 12.07 1.19 0.0 -0.25 2.56 9.855 -0.87 8.86 0.0 -0.25 2.56 0.0 -0.09 0.85 8.035 -0.09 0.85 0.0 11.18 11.47 0.0 -1.0 10.26 0.0</float_array>
                    <technique_common>
                        <accessor count="16" source="#geometry0-position-array" stride="3">
                            <param name="X" type="float"/>
                            <param name="Y" type="float"/>
                            <param name="Z" type="float"/>
                        </accessor>
                    </technique_common>
                </source>
                <source id="geometry0-normal">
                    <float_array id="geometry0-normal-array" count="156">-0.9951947 -0.0979162 1.172E-4 -0.9951947 -0.0979162 1.172E-4 -0.9951947 -0.0979162 1.172E-4 -0.9951924 -0.0979396 0.0 -0.9951923 -0.0979396 0.0 -0.9951924 -0.0979396 0.0 -0.9951924 -0.0979396 0.0 -0.0988566 0.9951017 0.0 -0.0988566 0.9951017 0.0 -0.0988566 0.9951017 0.0 -0.0988566 0.9951017 0.0 -0.9957165 -0.0924593 0.0 -0.9957165 -0.0924594 0.0 -0.9957165 -0.0924593 0.0 -0.9957165 -0.0924593 0.0 -0.9956511 -0.0931603 0.0 -0.9956511 -0.0931603 0.0 -0.9956511 -0.0931603 0.0 -0.9956511 -0.0931603 0.0 0.9962733 0.0862532 0.0 0.9962732 0.0862532 0.0 0.9962733 0.0862532 0.0 0.9962733 0.0862532 0.0 0.0 0.0 -1.0 0.0 0.0 -1.0 0.0 0.0 -1.0 0.0 0.0 -1.0 0.0 0.0 -1.0 0.0 0.0 -1.0 0.0 0.0 -1.0 0.0981158 -0.9951749 0.0 0.0981158 -0.9951749 0.0 0.0981158 -0.9951749 0.0 0.0981158 -0.9951749 0.0 -0.0939464 0.7173541 0.6903457 -0.1397584 0.7113023 0.6888516 -0.1054357 0.7159692 0.6901243 -0.070965 0.719805 0.6905395 -0.0709437 0.7198342 0.6905112 0.9962732 0.0862534 8.48E-5 0.9962732 0.0862534 8.48E-5 0.9962732 0.0862534 8.48E-5 -0.9944412 -0.1052938 0.0 -0.9944412 -0.1052938 0.0 -0.9944412 -0.1052938 0.0 -0.9944412 -0.1052938 0.0 0.0587989 -0.7248399 0.6864035 0.0210525 -0.727702 0.6855702 0.0462161 -0.7259299 0.6862143 0.07136 -0.7236664 0.6864508 0.0713682 -0.7236347 0.6864833 0.0713667 -0.723632 0.6864863</float_array>
                    <technique_common>
                        <accessor count="52" source="#geometry0-normal-array" stride="3">
                            <param name="X" type="float"/>
                            <param name="Y" type="float"/>
                            <param name="Z" type="float"/>
                        </accessor>
                    </technique_common>
                </source>
                <vertices id="geometry0-vertex">
                    <input semantic="POSITION" source="#geometry0-position"/>
                </vertices>
                <triangles count="21" material="default_ai_0.2_sh_0.2_tr_0.0_dc_r_0.8_g_0.8_b_0.8_sc_r_1.0_g_1.0_b_1.0_ec_r_0.0_g_0.0_b_0_tri">
                    <input offset="0" semantic="VERTEX" source="#geometry0-vertex"/>
                    <input offset="1" semantic="NORMAL" source="#geometry0-normal"/>
                    <p>4 0 9 1 0 2 9 3 4 4 10 5 9 3 10 5 11 6 3 7 2 8 14 9 3 7 14 9 15 10 4 11 3 12 15 13 4 11 15 13 10 14 12 15 9 16 11 17 12 15 11 17 13 18 2 19 5 20 8 21 2 19 8 21 14 22 14 23 8 24 7 25 14 23 7 25 13 26 14 23 13 26 11 27 14 23 11 27 10 28 14 23 10 28 15 29 5 30 6 31 7 32 5 30 7 32 8 33 5 39 2 40 1 41 6 42 12 43 13 44 6 42 13 44 7 45</p>
                </triangles>
                <triangles count="7" material="default_ai_0.2_sh_0.2_tr_0.0_dc_r_1.0_g_0.2_b_0.2_sc_r_1.0_g_1.0_b_1.0_ec_r_0.0_g_0.0_b_0_tri">
                    <input offset="0" semantic="VERTEX" source="#geometry0-vertex"/>
                    <input offset="1" semantic="NORMAL" source="#geometry0-normal"/>
                    <p>3 34 4 35 0 36 3 34 0 36 1 37 3 34 1 37 2 38 9 46 12 47 6 48 9 46 6 48 5 49 9 46 5 49 1 50 9 46 1 50 0 51</p>
                </triangles>
            </mesh>
        </geometry>
    </library_geometries>
    <library_visual_scenes>
        <visual_scene id="Building_DEBW_5221000Qi2E">
            <node>
                <instance_geometry url="#geometry0">
                    <bind_material>
                        <technique_common>
                            <instance_material symbol="default_ai_0.2_sh_0.2_tr_0.0_dc_r_0.8_g_0.8_b_0.8_sc_r_1.0_g_1.0_b_1.0_ec_r_0.0_g_0.0_b_0_tri" target="#default_ai_0.2_sh_0.2_tr_0.0_dc_r_0.8_g_0.8_b_0.8_sc_r_1.0_g_1.0_b_1.0_ec_r_0.0_g_0.0_b_0_mat"/>
                            <instance_material symbol="default_ai_0.2_sh_0.2_tr_0.0_dc_r_1.0_g_0.2_b_0.2_sc_r_1.0_g_1.0_b_1.0_ec_r_0.0_g_0.0_b_0_tri" target="#default_ai_0.2_sh_0.2_tr_0.0_dc_r_1.0_g_0.2_b_0.2_sc_r_1.0_g_1.0_b_1.0_ec_r_0.0_g_0.0_b_0_mat"/>
                        </technique_common>
                    </bind_material>
                </instance_geometry>
            </node>
        </visual_scene>
    </library_visual_scenes>
    <scene>
        <instance_visual_scene url="#Building_DEBW_5221000Qi2E"/>
    </scene>
</COLLADA>
