<?xml version="1.0" encoding="UTF-8" standalone="yes"?>
<COLLADA xmlns="http://www.collada.org/2005/11/COLLADASchema" version="1.4.1">
    <asset>
        <contributor>
            <authoring_tool>3D City Database Importer/Exporter, version 5.5.3; Chair of Geoinformatics, Technical University of Munich</authoring_tool>
        </contributor>
        <created>2026-05-06T15:12:10.982</created>
        <modified>2026-05-06T15:12:10.982</modified>
        <unit meter="1.0" name="meters"/>
        <up_axis>Z_UP</up_axis>
    </asset>
    <library_materials>
        <material id="default_ai_0.2_sh_0.2_tr_0.0_dc_r_1.0_g_0.2_b_0.2_sc_r_1.0_g_1.0_b_1.0_ec_r_0.0_g_0.0_b_0_mat">
            <instance_effect url="#default_ai_0.2_sh_0.2_tr_0.0_dc_r_1.0_g_0.2_b_0.2_sc_r_1.0_g_1.0_b_1.0_ec_r_0.0_g_0.0_b_0_eff"/>
        </material>
        <material id="default_ai_0.2_sh_0.2_tr_0.0_dc_r_0.8_g_0.8_b_0.8_sc_r_1.0_g_1.0_b_1.0_ec_r_0.0_g_0.0_b_0_mat">
            <instance_effect url="#default_ai_0.2_sh_0.2_tr_0.0_dc_r_0.8_g_0.8_b_0.8_sc_r_1.0_g_1.0_b_1.0_ec_r_0.0_g_0.0_b_0_eff"/>
        </material>
    </library_materials>
    <library_effects>
        <effect id="default_ai_0.2_sh_0.2_tr_0.0_dc_r_1.0_g_0.2_b_0.2_sc_r_1.0_g_1.0_b_1.0_ec_r_0.0_g_0.0_b_0_eff">
            <profile_COMMON>
                <technique sid="COMMON">
                    <lambert>
                        <emission>
                            <color>0.0 0.0 0.0 1.0</color>
                        </emission>
                        <diffuse>
                            <color>1.0 0.2 0.2 1.0</color>
                        </diffuse>
                        <reflective>
                            <color>1.0 1.0 1.0 1.0</color>
                        </reflective>
                        <reflectivity>
                            <float>0.2</float>
                        </reflectivity>
                        <transparent opaque="A_ONE">
                            <color>1.0 1.0 1.0 1.0</color>
                        </transparent>
                        <transparency>
                            <float>1.0</float>
                        </transparency>
                    </lambert>
                </technique>
                <extra>
                    <technique profile="GOOGLEEARTH">
                        <double_sided>0</double_sided>
                    </technique>
                </extra>
            </profile_COMMON>
        </effect>
        <effect id="default_ai_0.2_sh_0.2_tr_0.0_dc_r_0.8_g_0.8_b_0.8_sc_r_1.0_g_1.0_b_1.0_ec_r_0.0_g_0.0_b_0_eff">
            <profile_COMMON>
                <technique sid="COMMON">
                    <lambert>
                        <emission>
                            <color>0.0 0.0 0.0 1.0</color>
                        </emission>
                        <diffuse>
                            <color>0.8 0.8 0.8 1.0</color>
                        </diffuse>
                        <reflective>
                            <color>1.0 1.0 1.0 1.0</color>
                        </reflective>
                        <reflectivity>
                            <float>0.2</float>
                        </reflectivity>
                        <transparent opaque="A_ONE">
                            <color>1.0 1.0 1.0 1.0</color>
                        </transparent>
                        <transparency>
                            <float>1.0</float>
                        </transparency>
                    </lambert>
                </technique>
                <extra>
                    <technique profile="GOOGLEEARTH">
                        <double_sided>0</double_sided>
                    </technique>
                </extra>
            </profile_COMMON>
        </effect>
    </library_effects>
    <library_geometries>
        <geometry id="geometry0">
            <mesh>
                <source id="geometry0-position">
                    <float_array id="geometry0-position-array" count="60">-0.64 1.72 10.218 0.0 0.0 7.379 5.028 1.922 7.386 -0.953 3.334 12.722 -2.581 1.012 10.265 0.0 0.0 0.0 -0.64 1.72 0.0 -4.67 0.25 0.0 -5.1 0.1 0.0 -9.82 12.92 0.0 -0.37 16.43 0.0 5.1 1.95 0.0 -9.82 12.92 7.444 -0.37 16.43 7.306 -5.1 0.1 7.444 -9.811 12.894 7.485 -3.94 11.378 12.722 -4.67 0.25 7.924 5.1 1.95 7.305 -0.35 16.376 7.394</float_array>
                    <technique_common>
                        <accessor count="20" source="#geometry0-position-array" stride="3">
                            <param name="X" type="float"/>
                            <param name="Y" type="float"/>
                            <param name="Z" type="float"/>
                        </accessor>
                    </technique_common>
                </source>
                <source id="geometry0-normal">
                    <float_array id="geometry0-normal-array" count="204">0.67713 0.2520473 0.6913516 0.6767221 0.251289 0.6920268 0.6772883 0.2523585 0.6910831 0.6773337 0.2524264 0.6910137 0.6768132 0.2514248 0.6918883 -0.9372218 -0.3487337 0.0 -0.9372218 -0.3487337 0.0 -0.9372218 -0.3487337 0.0 -0.9372218 -0.3487337 0.0 0.9354686 0.3533846 0.0042465 0.9354686 0.3533846 0.0042465 0.9354686 0.3533846 0.0042465 -0.6855364 -0.2362366 0.6886451 -0.7016964 -0.1877843 0.6872839 -0.6912276 -0.2199736 0.6883429 -0.6798324 -0.2521525 0.6886559 -0.6796451 -0.2524202 0.6887427 -0.6795915 -0.2524461 0.6887862 -0.3481866 0.9374253 0.0 -0.3481865 0.9374253 0.0 -0.3481866 0.9374253 0.0 -0.3481866 0.9374253 0.0 0.3426787 -0.9394526 0.0 0.3426788 -0.9394527 0.0 0.3426787 -0.9394526 0.0 0.3426788 -0.9394526 0.0 -0.9384181 -0.3455018 0.0 -0.9384181 -0.3455018 0.0 -0.9384181 -0.3455018 0.0 -0.9384181 -0.3455018 0.0 -0.2884566 0.7833984 0.5505269 -0.2965634 0.7757397 0.557026 -0.2905235 0.7815912 0.5520067 -0.2843851 0.7871788 0.5472429 -0.2843146 0.7869898 0.5475513 0.3426757 -0.9394537 6.0E-6 0.3426757 -0.9394537 6.0E-6 0.3426757 -0.9394537 6.0E-6 0.9354769 0.353388 0.0 0.9354768 0.353388 0.0 0.9354769 0.353388 0.0 0.9354769 0.353388 0.0 0.2992074 -0.7847112 0.5428658 0.2992598 -0.7846141 0.5429775 0.2992769 -0.7845817 0.5430146 0.2993116 -0.7845169 0.5430891 0.2993112 -0.784517 0.5430892 0.3570625 -0.9340643 -0.0054974 0.3570625 -0.9340643 -0.0054974 0.3570625 -0.9340643 -0.0054974 0.3293723 -0.9442001 0.0 0.3293723 -0.9442001 0.0 0.3293723 -0.9442001 0.0 0.3293723 -0.9442001 0.0 0.3571375 -0.9340518 0.0 0.3571375 -0.9340518 0.0 0.3571375 -0.9340518 0.0 0.3571375 -0.9340518 0.0 0.0 0.0 -1.0 0.0 0.0 -1.0 0.0 0.0 -1.0 0.0 0.0 -1.0 0.0 0.0 -1.0 0.0 0.0 -1.0 0.0 0.0 -1.0 -0.9383374 -0.3454721 -0.0131091 -0.9383374 -0.3454721 -0.0131091 -0.9383374 -0.3454721 -0.0131091</float_array>
                    <technique_common>
                        <accessor count="68" source="#geometry0-normal-array" stride="3">
                            <param name="X" type="float"/>
                            <param name="Y" type="float"/>
                            <param name="Z" type="float"/>
                        </accessor>
                    </technique_common>
                </source>
                <vertices id="geometry0-vertex">
                    <input semantic="POSITION" source="#geometry0-position"/>
                </vertices>
                <triangles count="23" material="default_ai_0.2_sh_0.2_tr_0.0_dc_r_0.8_g_0.8_b_0.8_sc_r_1.0_g_1.0_b_1.0_ec_r_0.0_g_0.0_b_0_tri">
                    <input offset="0" semantic="VERTEX" source="#geometry0-vertex"/>
                    <input offset="1" semantic="NORMAL" source="#geometry0-normal"/>
                    <p>1 5 0 6 6 7 1 5 6 7 5 8 18 9 13 10 19 11 12 18 13 19 10 20 12 18 10 20 9 21 0 22 17 23 7 24 0 22 7 24 6 25 14 26 12 27 9 28 14 26 9 28 8 29 17 35 0 36 4 37 13 38 18 39 11 40 13 38 11 40 10 41 1 47 18 48 2 49 17 50 14 51 8 52 17 50 8 52 7 53 18 54 1 55 5 56 18 54 5 56 11 57 10 58 11 59 5 60 10 58 5 60 6 61 10 58 6 61 7 62 10 58 7 62 8 63 10 58 8 63 9 64 12 65 14 66 15 67</p>
                </triangles>
                <triangles count="13" material="default_ai_0.2_sh_0.2_tr_0.0_dc_r_1.0_g_0.2_b_0.2_sc_r_1.0_g_1.0_b_1.0_ec_r_0.0_g_0.0_b_0_tri">
                    <input offset="0" semantic="VERTEX" source="#geometry0-vertex"/>
                    <input offset="1" semantic="NORMAL" source="#geometry0-normal"/>
                    <p>16 0 3 1 2 2 16 0 2 2 18 3 16 0 18 3 19 4 14 12 17 13 4 14 14 12 4 14 3 15 14 12 3 15 16 16 14 12 16 16 15 17 12 30 15 31 16 32 12 30 16 32 19 33 12 30 19 33 13 34 1 42 2 43 0 44 2 43 3 45 0 44 0 44 3 45 4 46</p>
                </triangles>
            </mesh>
        </geometry>
    </library_geometries>
    <library_visual_scenes>
        <visual_scene id="Building_DEBW_5221000QoNc">
            <node>
                <instance_geometry url="#geometry0">
                    <bind_material>
                        <technique_common>
                            <instance_material symbol="default_ai_0.2_sh_0.2_tr_0.0_dc_r_0.8_g_0.8_b_0.8_sc_r_1.0_g_1.0_b_1.0_ec_r_0.0_g_0.0_b_0_tri" target="#default_ai_0.2_sh_0.2_tr_0.0_dc_r_0.8_g_0.8_b_0.8_sc_r_1.0_g_1.0_b_1.0_ec_r_0.0_g_0.0_b_0_mat"/>
                            <instance_material symbol="default_ai_0.2_sh_0.2_tr_0.0_dc_r_1.0_g_0.2_b_0.2_sc_r_1.0_g_1.0_b_1.0_ec_r_0.0_g_0.0_b_0_tri" target="#default_ai_0.2_sh_0.2_tr_0.0_dc_r_1.0_g_0.2_b_0.2_sc_r_1.0_g_1.0_b_1.0_ec_r_0.0_g_0.0_b_0_mat"/>
                        </technique_common>
                    </bind_material>
                </instance_geometry>
            </node>
        </visual_scene>
    </library_visual_scenes>
    <scene>
        <instance_visual_scene url="#Building_DEBW_5221000QoNc"/>
    </scene>
</COLLADA>
