<?xml version="1.0" encoding="UTF-8" standalone="yes"?>
<COLLADA xmlns="http://www.collada.org/2005/11/COLLADASchema" version="1.4.1">
    <asset>
        <contributor>
            <authoring_tool>3D City Database Importer/Exporter, version 5.5.3; Chair of Geoinformatics, Technical University of Munich</authoring_tool>
        </contributor>
        <created>2026-05-06T15:12:08.984</created>
        <modified>2026-05-06T15:12:08.984</modified>
        <unit meter="1.0" name="meters"/>
        <up_axis>Z_UP</up_axis>
    </asset>
    <library_materials>
        <material id="default_ai_0.2_sh_0.2_tr_0.0_dc_r_1.0_g_0.2_b_0.2_sc_r_1.0_g_1.0_b_1.0_ec_r_0.0_g_0.0_b_0_mat">
            <instance_effect url="#default_ai_0.2_sh_0.2_tr_0.0_dc_r_1.0_g_0.2_b_0.2_sc_r_1.0_g_1.0_b_1.0_ec_r_0.0_g_0.0_b_0_eff"/>
        </material>
        <material id="default_ai_0.2_sh_0.2_tr_0.0_dc_r_0.8_g_0.8_b_0.8_sc_r_1.0_g_1.0_b_1.0_ec_r_0.0_g_0.0_b_0_mat">
            <instance_effect url="#default_ai_0.2_sh_0.2_tr_0.0_dc_r_0.8_g_0.8_b_0.8_sc_r_1.0_g_1.0_b_1.0_ec_r_0.0_g_0.0_b_0_eff"/>
        </material>
    </library_materials>
    <library_effects>
        <effect id="default_ai_0.2_sh_0.2_tr_0.0_dc_r_1.0_g_0.2_b_0.2_sc_r_1.0_g_1.0_b_1.0_ec_r_0.0_g_0.0_b_0_eff">
            <profile_COMMON>
                <technique sid="COMMON">
                    <lambert>
                        <emission>
                            <color>0.0 0.0 0.0 1.0</color>
                        </emission>
                        <diffuse>
                            <color>1.0 0.2 0.2 1.0</color>
                        </diffuse>
                        <reflective>
                            <color>1.0 1.0 1.0 1.0</color>
                        </reflective>
                        <reflectivity>
                            <float>0.2</float>
                        </reflectivity>
                        <transparent opaque="A_ONE">
                            <color>1.0 1.0 1.0 1.0</color>
                        </transparent>
                        <transparency>
                            <float>1.0</float>
                        </transparency>
                    </lambert>
                </technique>
                <extra>
                    <technique profile="GOOGLEEARTH">
                        <double_sided>0</double_sided>
                    </technique>
                </extra>
            </profile_COMMON>
        </effect>
        <effect id="default_ai_0.2_sh_0.2_tr_0.0_dc_r_0.8_g_0.8_b_0.8_sc_r_1.0_g_1.0_b_1.0_ec_r_0.0_g_0.0_b_0_eff">
            <profile_COMMON>
                <technique sid="COMMON">
                    <lambert>
                        <emission>
                            <color>0.0 0.0 0.0 1.0</color>
                        </emission>
                        <diffuse>
                            <color>0.8 0.8 0.8 1.0</color>
                        </diffuse>
                        <reflective>
                            <color>1.0 1.0 1.0 1.0</color>
                        </reflective>
                        <reflectivity>
                            <float>0.2</float>
                        </reflectivity>
                        <transparent opaque="A_ONE">
                            <color>1.0 1.0 1.0 1.0</color>
                        </transparent>
                        <transparency>
                            <float>1.0</float>
                        </transparency>
                    </lambert>
                </technique>
                <extra>
                    <technique profile="GOOGLEEARTH">
                        <double_sided>0</double_sided>
                    </technique>
                </extra>
            </profile_COMMON>
        </effect>
    </library_effects>
    <library_geometries>
        <geometry id="geometry0">
            <mesh>
                <source id="geometry0-position">
                    <float_array id="geometry0-position-array" count="66">-14.364 -32.917 1.428 -17.887 -31.022 1.428 -17.887 -31.022 0.428 -14.364 -32.917 0.428 -7.364 -11.465 1.16 -7.364 -11.465 0.16 -7.285 -11.331 1.16 -7.285 -11.331 0.16 -7.206 -11.195 1.16 -7.206 -11.195 0.16 0.0 0.0 1.0 0.0 0.0 0.0 3.364 -2.165 1.0 3.364 -2.165 0.0 6.728 -4.33 1.0 6.728 -4.33 0.0 -0.394 -15.393 1.16 -0.394 -15.393 0.16 -10.841 -34.812 1.428 -10.841 -34.812 0.428 -3.842 -13.36 0.16 -3.842 -13.36 1.16</float_array>
                    <technique_common>
                        <accessor count="22" source="#geometry0-position-array" stride="3">
                            <param name="X" type="float"/>
                            <param name="Y" type="float"/>
                            <param name="Z" type="float"/>
                        </accessor>
                    </technique_common>
                </source>
                <source id="geometry0-normal">
                    <float_array id="geometry0-normal-array" count="360">0.0065807 0.0102251 0.9999261 0.0065807 0.0102251 0.9999261 0.0065807 0.0102251 0.9999261 -0.0057174 -0.0106262 -0.9999272 -0.0057174 -0.0106262 -0.9999272 -0.0057174 -0.0106262 -0.9999272 0.0 0.0 -1.0 0.0 0.0 -1.0 0.0 0.0 -1.0 -0.0057163 -0.0106271 -0.9999272 -0.0057163 -0.0106271 -0.9999272 -0.0057163 -0.0106271 -0.9999272 -0.0065034 -0.010105 -0.9999278 -0.0065034 -0.010105 -0.9999278 -0.0065034 -0.010105 -0.9999278 -0.005757 -0.0107028 -0.9999261 -0.005757 -0.0107028 -0.9999261 -0.005757 -0.0107028 -0.9999261 0.0 0.0 -1.0 0.0 0.0 -1.0 0.0 0.0 -1.0 -0.4737124 -0.8806797 0.0 -0.4737124 -0.8806797 0.0 -0.4737124 -0.8806797 0.0 -0.0065034 -0.010105 -0.9999278 -0.0065034 -0.010105 -0.9999278 -0.0065034 -0.010105 -0.9999278 -0.8806157 0.4738312 0.0 -0.8806157 0.4738312 0.0 -0.8806157 0.4738312 0.0 -0.0065807 -0.0102251 -0.9999261 -0.0065807 -0.0102251 -0.9999261 -0.0065807 -0.0102251 -0.9999261 -0.4737124 -0.8806797 0.0 -0.4737124 -0.8806797 0.0 -0.4737124 -0.8806797 0.0 -0.0061335 -0.0104026 -0.999927 -0.0061335 -0.0104026 -0.999927 -0.0061335 -0.0104026 -0.999927 -0.0061081 -0.0103594 -0.9999278 -0.0061081 -0.0103594 -0.9999278 -0.0061081 -0.0103594 -0.9999278 -0.8614377 0.5078632 0.0 -0.8614377 0.5078632 0.0 -0.8614377 0.5078632 0.0 -0.8806157 0.4738312 0.0 -0.8806157 0.4738312 0.0 -0.8806157 0.4738312 0.0 -0.8647009 0.5022871 0.0 -0.8647009 0.5022871 0.0 -0.8647009 0.5022871 0.0 -0.8614377 0.5078632 0.0 -0.8614377 0.5078632 0.0 -0.8614377 0.5078632 0.0 -0.8408636 0.5412472 0.0 -0.8408636 0.5412472 0.0 -0.8408636 0.5412472 0.0 -0.8647009 0.5022871 0.0 -0.8647009 0.5022871 0.0 -0.8647009 0.5022871 0.0 0.541187 0.8409022 0.0 0.541187 0.8409022 0.0 0.541187 0.8409022 0.0 -0.8408635 0.5412472 0.0 -0.8408635 0.5412472 0.0 -0.8408635 0.5412472 0.0 0.541187 0.8409022 0.0 0.541187 0.8409022 0.0 0.541187 0.8409022 0.0 0.541187 0.8409022 0.0 0.541187 0.8409022 0.0 0.541187 0.8409022 0.0 0.8408301 -0.5412991 0.0 0.8408301 -0.5412991 0.0 0.8408301 -0.5412991 0.0 0.541187 0.8409022 0.0 0.541187 0.8409022 0.0 0.541187 0.8409022 0.0 0.8806487 -0.4737698 0.0 0.8806487 -0.4737698 0.0 0.8806487 -0.4737698 0.0 0.8408301 -0.5412992 0.0 0.8408301 -0.5412992 0.0 0.8408301 -0.5412992 0.0 -0.4737122 -0.8806797 0.0 -0.4737122 -0.8806797 0.0 -0.4737122 -0.8806797 0.0 -0.4737122 -0.8806797 0.0 -0.4737122 -0.8806797 0.0 -0.4737122 -0.8806797 0.0 0.8806487 -0.4737698 0.0 0.8806487 -0.4737698 0.0 0.8806487 -0.4737698 0.0 0.0057163 0.0106271 0.9999272 0.0057163 0.0106271 0.9999272 0.0057163 0.0106271 0.9999272 0.0 0.0 1.0 0.0 0.0 1.0 0.0 0.0 1.0 0.0065034 0.010105 0.9999278 0.0065034 0.010105 0.9999278 0.0065034 0.010105 0.9999278 0.0057174 0.0106262 0.9999272 0.0057174 0.0106262 0.9999272 0.0057174 0.0106262 0.9999272 0.0 0.0 1.0 0.0 0.0 1.0 0.0 0.0 1.0 0.0061335 0.0104026 0.999927 0.0061335 0.0104026 0.999927 0.0061335 0.0104026 0.999927 0.0061081 0.0103594 0.9999278 0.0061081 0.0103594 0.9999278 0.0061081 0.0103594 0.9999278 0.0065034 0.010105 0.9999278 0.0065034 0.010105 0.9999278 0.0065034 0.010105 0.9999278 0.005757 0.0107028 0.9999261 0.005757 0.0107028 0.9999261 0.005757 0.0107028 0.9999261</float_array>
                    <technique_common>
                        <accessor count="120" source="#geometry0-normal-array" stride="3">
                            <param name="X" type="float"/>
                            <param name="Y" type="float"/>
                            <param name="Z" type="float"/>
                        </accessor>
                    </technique_common>
                </source>
                <vertices id="geometry0-vertex">
                    <input semantic="POSITION" source="#geometry0-position"/>
                </vertices>
                <triangles count="30" material="default_ai_0.2_sh_0.2_tr_0.0_dc_r_0.8_g_0.8_b_0.8_sc_r_1.0_g_1.0_b_1.0_ec_r_0.0_g_0.0_b_0_tri">
                    <input offset="0" semantic="VERTEX" source="#geometry0-vertex"/>
                    <input offset="1" semantic="NORMAL" source="#geometry0-normal"/>
                    <p>5 3 20 4 2 5 7 6 20 7 5 8 20 9 3 10 2 11 13 12 20 13 11 14 17 15 19 16 3 17 9 18 20 19 7 20 0 21 1 22 2 23 11 24 20 25 9 26 1 27 4 28 5 29 15 30 17 31 13 32 0 33 2 34 3 35 20 36 17 37 3 38 13 39 17 40 20 41 4 42 6 43 7 44 1 45 5 46 2 47 6 48 8 49 9 50 4 51 7 52 5 53 8 54 10 55 11 56 6 57 9 58 7 59 10 60 12 61 13 62 8 63 11 64 9 65 12 66 14 67 15 68 10 69 13 70 11 71 14 72 16 73 17 74 12 75 15 76 13 77 16 78 18 79 19 80 14 81 17 82 15 83 18 84 0 85 3 86 18 87 3 88 19 89 16 90 19 91 17 92</p>
                </triangles>
                <triangles count="10" material="default_ai_0.2_sh_0.2_tr_0.0_dc_r_1.0_g_0.2_b_0.2_sc_r_1.0_g_1.0_b_1.0_ec_r_0.0_g_0.0_b_0_tri">
                    <input offset="0" semantic="VERTEX" source="#geometry0-vertex"/>
                    <input offset="1" semantic="NORMAL" source="#geometry0-normal"/>
                    <p>12 0 16 1 14 2 1 93 0 94 21 95 6 96 21 97 8 98 8 99 21 100 10 101 1 102 21 103 4 104 4 105 21 106 6 107 0 108 16 109 21 110 21 111 16 112 12 113 10 114 21 115 12 116 0 117 18 118 16 119</p>
                </triangles>
            </mesh>
        </geometry>
    </library_geometries>
    <library_visual_scenes>
        <visual_scene id="Building_DEBW_B010000BUW8">
            <node>
                <instance_geometry url="#geometry0">
                    <bind_material>
                        <technique_common>
                            <instance_material symbol="default_ai_0.2_sh_0.2_tr_0.0_dc_r_0.8_g_0.8_b_0.8_sc_r_1.0_g_1.0_b_1.0_ec_r_0.0_g_0.0_b_0_tri" target="#default_ai_0.2_sh_0.2_tr_0.0_dc_r_0.8_g_0.8_b_0.8_sc_r_1.0_g_1.0_b_1.0_ec_r_0.0_g_0.0_b_0_mat"/>
                            <instance_material symbol="default_ai_0.2_sh_0.2_tr_0.0_dc_r_1.0_g_0.2_b_0.2_sc_r_1.0_g_1.0_b_1.0_ec_r_0.0_g_0.0_b_0_tri" target="#default_ai_0.2_sh_0.2_tr_0.0_dc_r_1.0_g_0.2_b_0.2_sc_r_1.0_g_1.0_b_1.0_ec_r_0.0_g_0.0_b_0_mat"/>
                        </technique_common>
                    </bind_material>
                </instance_geometry>
            </node>
        </visual_scene>
    </library_visual_scenes>
    <scene>
        <instance_visual_scene url="#Building_DEBW_B010000BUW8"/>
    </scene>
</COLLADA>
