<?xml version="1.0" encoding="UTF-8" standalone="yes"?>
<COLLADA xmlns="http://www.collada.org/2005/11/COLLADASchema" version="1.4.1">
    <asset>
        <contributor>
            <authoring_tool>3D City Database Importer/Exporter, version 5.5.3; Chair of Geoinformatics, Technical University of Munich</authoring_tool>
        </contributor>
        <created>2026-05-06T15:12:12.068</created>
        <modified>2026-05-06T15:12:12.068</modified>
        <unit meter="1.0" name="meters"/>
        <up_axis>Z_UP</up_axis>
    </asset>
    <library_materials>
        <material id="default_ai_0.2_sh_0.2_tr_0.0_dc_r_1.0_g_0.2_b_0.2_sc_r_1.0_g_1.0_b_1.0_ec_r_0.0_g_0.0_b_0_mat">
            <instance_effect url="#default_ai_0.2_sh_0.2_tr_0.0_dc_r_1.0_g_0.2_b_0.2_sc_r_1.0_g_1.0_b_1.0_ec_r_0.0_g_0.0_b_0_eff"/>
        </material>
        <material id="default_ai_0.2_sh_0.2_tr_0.0_dc_r_0.8_g_0.8_b_0.8_sc_r_1.0_g_1.0_b_1.0_ec_r_0.0_g_0.0_b_0_mat">
            <instance_effect url="#default_ai_0.2_sh_0.2_tr_0.0_dc_r_0.8_g_0.8_b_0.8_sc_r_1.0_g_1.0_b_1.0_ec_r_0.0_g_0.0_b_0_eff"/>
        </material>
    </library_materials>
    <library_effects>
        <effect id="default_ai_0.2_sh_0.2_tr_0.0_dc_r_1.0_g_0.2_b_0.2_sc_r_1.0_g_1.0_b_1.0_ec_r_0.0_g_0.0_b_0_eff">
            <profile_COMMON>
                <technique sid="COMMON">
                    <lambert>
                        <emission>
                            <color>0.0 0.0 0.0 1.0</color>
                        </emission>
                        <diffuse>
                            <color>1.0 0.2 0.2 1.0</color>
                        </diffuse>
                        <reflective>
                            <color>1.0 1.0 1.0 1.0</color>
                        </reflective>
                        <reflectivity>
                            <float>0.2</float>
                        </reflectivity>
                        <transparent opaque="A_ONE">
                            <color>1.0 1.0 1.0 1.0</color>
                        </transparent>
                        <transparency>
                            <float>1.0</float>
                        </transparency>
                    </lambert>
                </technique>
                <extra>
                    <technique profile="GOOGLEEARTH">
                        <double_sided>0</double_sided>
                    </technique>
                </extra>
            </profile_COMMON>
        </effect>
        <effect id="default_ai_0.2_sh_0.2_tr_0.0_dc_r_0.8_g_0.8_b_0.8_sc_r_1.0_g_1.0_b_1.0_ec_r_0.0_g_0.0_b_0_eff">
            <profile_COMMON>
                <technique sid="COMMON">
                    <lambert>
                        <emission>
                            <color>0.0 0.0 0.0 1.0</color>
                        </emission>
                        <diffuse>
                            <color>0.8 0.8 0.8 1.0</color>
                        </diffuse>
                        <reflective>
                            <color>1.0 1.0 1.0 1.0</color>
                        </reflective>
                        <reflectivity>
                            <float>0.2</float>
                        </reflectivity>
                        <transparent opaque="A_ONE">
                            <color>1.0 1.0 1.0 1.0</color>
                        </transparent>
                        <transparency>
                            <float>1.0</float>
                        </transparency>
                    </lambert>
                </technique>
                <extra>
                    <technique profile="GOOGLEEARTH">
                        <double_sided>0</double_sided>
                    </technique>
                </extra>
            </profile_COMMON>
        </effect>
    </library_effects>
    <library_geometries>
        <geometry id="geometry0">
            <mesh>
                <source id="geometry0-position">
                    <float_array id="geometry0-position-array" count="72">1.824 1.177 5.653 0.0 0.0 4.708 0.0 0.0 0.0 1.824 1.177 0.0 -2.37 3.71 0.0 -0.52 4.89 0.0 -0.52 4.89 5.663 -2.37 3.71 4.708 -3.55 7.71 5.297 0.985 10.651 7.577 0.985 10.651 0.0 -3.55 7.71 0.0 -0.52 4.89 5.732 -2.3 7.71 5.741 -2.3 7.71 0.0 5.522 3.564 7.577 1.824 1.177 5.72 5.522 3.564 0.0 -3.19 7.15 5.298 -3.19 7.15 0.0 6.58 14.28 0.0 11.17 7.21 0.0 6.58 14.28 4.604 11.17 7.21 4.58</float_array>
                    <technique_common>
                        <accessor count="24" source="#geometry0-position-array" stride="3">
                            <param name="X" type="float"/>
                            <param name="Y" type="float"/>
                            <param name="Z" type="float"/>
                        </accessor>
                    </technique_common>
                </source>
                <source id="geometry0-normal">
                    <float_array id="geometry0-normal-array" count="258">0.3429288 0.2195374 0.9133472 0.3429299 0.2195372 0.9133469 0.3429288 0.2195374 0.9133472 0.3429277 0.2195376 0.9133476 -0.5441711 0.8389742 0.0 -0.5441711 0.8389743 0.0 -0.5441711 0.8389742 0.0 -0.5441711 0.8389742 0.0 0.5422003 -0.8402492 0.0 0.5422003 -0.8402492 0.0 0.5422003 -0.8402492 0.0 0.5422003 -0.8402492 0.0 -0.8411785 -0.5407575 0.0 -0.8411785 -0.5407575 0.0 -0.8411785 -0.5407575 0.0 -0.8411786 -0.5407575 0.0 -0.8427249 -0.5383444 0.0 -0.8427249 -0.5383444 0.0 -0.8427249 -0.5383444 0.0 -0.8427249 -0.5383444 0.0 0.8387416 0.5445296 0.0 0.8387416 0.5445296 0.0 0.8387416 0.5445296 0.0 0.8387416 0.5445296 0.0 0.5423183 -0.8401731 0.0 0.5423183 -0.8401731 0.0 0.5423182 -0.8401732 0.0 0.5423181 -0.8401732 0.0 0.5423178 -0.8401734 0.0 0.5423505 -0.8401523 0.0 0.5423505 -0.8401523 0.0 0.5423505 -0.8401523 0.0 0.5423505 -0.8401523 0.0 0.0 0.0 -1.0 0.0 0.0 -1.0 0.0 0.0 -1.0 0.0 0.0 -1.0 -0.3273301 -0.2095862 0.9213732 -0.3273848 -0.2095872 0.9213536 -0.3273194 -0.2095941 0.9213752 -0.3273093 -0.2095734 0.9213836 -0.3273178 -0.2093295 0.921436 -0.3273052 -0.2092134 0.9214668 -0.3273358 -0.2087847 0.9215531 -0.5441102 0.8390138 0.0 -0.5441102 0.8390139 0.0 -0.5441102 0.8390138 0.0 -0.5441102 0.8390138 0.0 -0.8455972 -0.5338216 0.0 -0.8455972 -0.5338216 0.0 -0.8455972 -0.5338216 0.0 -0.8455972 -0.5338216 0.0 0.5325609 -0.8463917 0.0 0.5325609 -0.8463917 0.0 0.5325609 -0.8463917 0.0 0.5325609 -0.8463917 0.0 -0.8455971 -0.5338216 0.0 -0.8455972 -0.5338216 0.0 -0.8455971 -0.5338216 0.0 -0.8455971 -0.5338216 0.0 -0.3363506 -0.2148356 0.9169045 -0.3364 -0.2148372 0.916886 -0.3363506 -0.2148356 0.9169045 -0.3363013 -0.214834 0.916923 0.8455972 0.5338216 0.0 0.8455972 0.5338216 0.0 0.8455972 0.5338216 0.0 0.8455972 0.5338216 0.0 0.0 0.0 -1.0 0.0 0.0 -1.0 0.0 0.0 -1.0 0.0 0.0 -1.0 0.0 0.0 -1.0 0.0 0.0 -1.0 0.0 0.0 -1.0 0.0 0.0 -1.0 0.0 0.0 -1.0 -0.5377598 0.8430981 0.0 -0.5377598 0.8430981 0.0 -0.5377598 0.8430981 0.0 -0.5377598 0.8430981 0.0 -0.8456314 -0.5337673 0.0 -0.8456314 -0.5337673 0.0 -0.8456314 -0.5337672 0.0 -0.8456314 -0.5337673 0.0 -0.8456314 -0.5337673 0.0</float_array>
                    <technique_common>
                        <accessor count="86" source="#geometry0-normal-array" stride="3">
                            <param name="X" type="float"/>
                            <param name="Y" type="float"/>
                            <param name="Z" type="float"/>
                        </accessor>
                    </technique_common>
                </source>
                <vertices id="geometry0-vertex">
                    <input semantic="POSITION" source="#geometry0-position"/>
                </vertices>
                <triangles count="39" material="default_ai_0.2_sh_0.2_tr_0.0_dc_r_0.8_g_0.8_b_0.8_sc_r_1.0_g_1.0_b_1.0_ec_r_0.0_g_0.0_b_0_tri">
                    <input offset="0" semantic="VERTEX" source="#geometry0-vertex"/>
                    <input offset="1" semantic="NORMAL" source="#geometry0-normal"/>
                    <p>9 4 22 5 20 6 9 4 20 6 10 7 0 8 1 9 2 10 0 8 2 10 3 11 18 12 8 13 11 14 18 12 11 14 19 15 1 16 7 17 4 18 1 16 4 18 2 19 22 20 23 21 21 22 22 20 21 22 20 23 3 24 17 25 15 26 0 27 3 24 15 26 0 27 15 26 16 28 23 29 15 30 17 31 23 29 17 31 21 32 4 33 5 34 3 35 4 33 3 35 2 36 8 44 9 45 10 46 8 44 10 46 11 47 6 48 5 49 3 50 6 48 3 50 0 51 13 52 18 53 19 54 13 52 19 54 14 55 6 56 0 57 16 58 6 56 16 58 12 59 0 64 3 65 5 66 0 64 5 66 6 67 19 68 11 69 14 70 11 69 10 71 14 70 14 70 10 71 5 72 5 72 10 71 3 73 3 73 10 71 17 74 17 74 10 71 21 75 21 75 10 71 20 76 7 77 6 78 5 79 7 77 5 79 4 80 14 81 5 82 6 83 14 81 6 83 12 84 14 81 12 84 13 85</p>
                </triangles>
                <triangles count="9" material="default_ai_0.2_sh_0.2_tr_0.0_dc_r_1.0_g_0.2_b_0.2_sc_r_1.0_g_1.0_b_1.0_ec_r_0.0_g_0.0_b_0_tri">
                    <input offset="0" semantic="VERTEX" source="#geometry0-vertex"/>
                    <input offset="1" semantic="NORMAL" source="#geometry0-normal"/>
                    <p>15 0 23 1 22 2 15 0 22 2 9 3 16 37 15 38 9 39 12 40 16 37 9 39 13 41 12 40 9 39 13 41 9 39 8 42 13 41 8 42 18 43 1 60 0 61 6 62 1 60 6 62 7 63</p>
                </triangles>
            </mesh>
        </geometry>
    </library_geometries>
    <library_visual_scenes>
        <visual_scene id="Building_DEBW_5221000Qsz0">
            <node>
                <instance_geometry url="#geometry0">
                    <bind_material>
                        <technique_common>
                            <instance_material symbol="default_ai_0.2_sh_0.2_tr_0.0_dc_r_0.8_g_0.8_b_0.8_sc_r_1.0_g_1.0_b_1.0_ec_r_0.0_g_0.0_b_0_tri" target="#default_ai_0.2_sh_0.2_tr_0.0_dc_r_0.8_g_0.8_b_0.8_sc_r_1.0_g_1.0_b_1.0_ec_r_0.0_g_0.0_b_0_mat"/>
                            <instance_material symbol="default_ai_0.2_sh_0.2_tr_0.0_dc_r_1.0_g_0.2_b_0.2_sc_r_1.0_g_1.0_b_1.0_ec_r_0.0_g_0.0_b_0_tri" target="#default_ai_0.2_sh_0.2_tr_0.0_dc_r_1.0_g_0.2_b_0.2_sc_r_1.0_g_1.0_b_1.0_ec_r_0.0_g_0.0_b_0_mat"/>
                        </technique_common>
                    </bind_material>
                </instance_geometry>
            </node>
        </visual_scene>
    </library_visual_scenes>
    <scene>
        <instance_visual_scene url="#Building_DEBW_5221000Qsz0"/>
    </scene>
</COLLADA>
