<?xml version="1.0" encoding="UTF-8" standalone="yes"?>
<COLLADA xmlns="http://www.collada.org/2005/11/COLLADASchema" version="1.4.1">
    <asset>
        <contributor>
            <authoring_tool>3D City Database Importer/Exporter, version 5.5.3; Chair of Geoinformatics, Technical University of Munich</authoring_tool>
        </contributor>
        <created>2026-05-06T15:12:05.825</created>
        <modified>2026-05-06T15:12:05.825</modified>
        <unit meter="1.0" name="meters"/>
        <up_axis>Z_UP</up_axis>
    </asset>
    <library_materials>
        <material id="default_ai_0.2_sh_0.2_tr_0.0_dc_r_0.8_g_0.8_b_0.8_sc_r_1.0_g_1.0_b_1.0_ec_r_0.0_g_0.0_b_0_mat">
            <instance_effect url="#default_ai_0.2_sh_0.2_tr_0.0_dc_r_0.8_g_0.8_b_0.8_sc_r_1.0_g_1.0_b_1.0_ec_r_0.0_g_0.0_b_0_eff"/>
        </material>
        <material id="default_ai_0.2_sh_0.2_tr_0.0_dc_r_1.0_g_0.2_b_0.2_sc_r_1.0_g_1.0_b_1.0_ec_r_0.0_g_0.0_b_0_mat">
            <instance_effect url="#default_ai_0.2_sh_0.2_tr_0.0_dc_r_1.0_g_0.2_b_0.2_sc_r_1.0_g_1.0_b_1.0_ec_r_0.0_g_0.0_b_0_eff"/>
        </material>
    </library_materials>
    <library_effects>
        <effect id="default_ai_0.2_sh_0.2_tr_0.0_dc_r_0.8_g_0.8_b_0.8_sc_r_1.0_g_1.0_b_1.0_ec_r_0.0_g_0.0_b_0_eff">
            <profile_COMMON>
                <technique sid="COMMON">
                    <lambert>
                        <emission>
                            <color>0.0 0.0 0.0 1.0</color>
                        </emission>
                        <diffuse>
                            <color>0.8 0.8 0.8 1.0</color>
                        </diffuse>
                        <reflective>
                            <color>1.0 1.0 1.0 1.0</color>
                        </reflective>
                        <reflectivity>
                            <float>0.2</float>
                        </reflectivity>
                        <transparent opaque="A_ONE">
                            <color>1.0 1.0 1.0 1.0</color>
                        </transparent>
                        <transparency>
                            <float>1.0</float>
                        </transparency>
                    </lambert>
                </technique>
                <extra>
                    <technique profile="GOOGLEEARTH">
                        <double_sided>0</double_sided>
                    </technique>
                </extra>
            </profile_COMMON>
        </effect>
        <effect id="default_ai_0.2_sh_0.2_tr_0.0_dc_r_1.0_g_0.2_b_0.2_sc_r_1.0_g_1.0_b_1.0_ec_r_0.0_g_0.0_b_0_eff">
            <profile_COMMON>
                <technique sid="COMMON">
                    <lambert>
                        <emission>
                            <color>0.0 0.0 0.0 1.0</color>
                        </emission>
                        <diffuse>
                            <color>1.0 0.2 0.2 1.0</color>
                        </diffuse>
                        <reflective>
                            <color>1.0 1.0 1.0 1.0</color>
                        </reflective>
                        <reflectivity>
                            <float>0.2</float>
                        </reflectivity>
                        <transparent opaque="A_ONE">
                            <color>1.0 1.0 1.0 1.0</color>
                        </transparent>
                        <transparency>
                            <float>1.0</float>
                        </transparency>
                    </lambert>
                </technique>
                <extra>
                    <technique profile="GOOGLEEARTH">
                        <double_sided>0</double_sided>
                    </technique>
                </extra>
            </profile_COMMON>
        </effect>
    </library_effects>
    <library_geometries>
        <geometry id="geometry0">
            <mesh>
                <source id="geometry0-position">
                    <float_array id="geometry0-position-array" count="129">-0.46 -7.124 9.316 0.0 0.0 9.142 0.0 0.0 9.085 0.0 0.0 0.0 -0.46 -7.124 0.0 12.89 -0.844 9.138 12.763 -2.651 10.635 12.763 -2.651 0.0 12.89 -0.844 0.0 8.5 -0.534 9.121 8.499 -0.556 9.14 8.383 -2.362 10.635 12.39 -7.974 9.315 12.39 -7.974 0.0 8.5 -0.534 0.0 8.499 -0.556 0.0 8.499 -0.556 9.085 5.66 -7.534 9.314 5.66 -7.534 0.0 5.66 -7.529 0.0 5.66 -7.529 9.315 5.4 -11.014 8.474 5.66 -7.534 9.337 5.4 -11.014 0.0 12.15 -11.494 8.466 12.15 -11.494 0.0 5.66 -7.529 9.338 12.39 -7.974 9.338 0.0 0.006 9.084 -0.24 0.016 9.085 -0.24 0.016 0.0 0.0 0.006 0.0 8.5 -0.534 9.08 8.56 0.546 8.812 7.75 1.496 8.591 6.68 1.526 8.601 6.93 5.566 7.601 0.15 5.976 7.609 6.68 1.526 0.0 6.93 5.566 0.0 0.15 5.976 0.0 8.56 0.546 0.0 7.75 1.496 0.0</float_array>
                    <technique_common>
                        <accessor count="43" source="#geometry0-position-array" stride="3">
                            <param name="X" type="float"/>
                            <param name="Y" type="float"/>
                            <param name="Z" type="float"/>
                        </accessor>
                    </technique_common>
                </source>
                <source id="geometry0-normal">
                    <float_array id="geometry0-normal-array" count="498">0.0 0.0 -1.0 0.0 0.0 -1.0 0.0 0.0 -1.0 0.0 0.0 -1.0 0.0 0.0 -1.0 0.0 0.0 -1.0 0.0 0.0 -1.0 0.0 0.0 -1.0 0.0 0.0 -1.0 0.0652799 0.997867 0.0 0.0652799 0.997867 0.0 0.0652799 0.997867 0.0 0.0652799 0.997867 0.0 0.0 0.0 -1.0 0.0 0.0 -1.0 0.0 0.0 -1.0 0.0 0.0 -1.0 0.0 0.0 -1.0 0.0 0.0 -1.0 0.0 0.0 -1.0 0.0 0.0 -1.0 0.0 0.0 -1.0 0.0 0.0 -1.0 0.0 0.0 -1.0 0.0 0.0 -1.0 0.0 0.0 -1.0 0.0 0.0 -1.0 0.0 0.0 -1.0 -0.9978659 0.0652966 0.0 -0.9978659 0.0652966 0.0 -0.9978659 0.0652966 0.0 -0.997866 0.0652966 0.0 -0.9979218 0.0644363 0.0 -0.9979218 0.0644363 0.0 -0.9979218 0.0644363 0.0 -0.9979218 0.0644363 0.0 -0.9979218 0.0644363 0.0 0.9984604 -0.0554704 0.0 0.9984604 -0.0554704 0.0 0.9984604 -0.0554704 0.0 0.9984604 -0.0554704 0.0 0.9975393 -0.0701097 0.0 0.9975393 -0.0701097 0.0 0.9975393 -0.0701097 0.0 0.9975393 -0.0701097 0.0 0.9980908 -0.061763 0.0 0.9980908 -0.061763 0.0 0.9980908 -0.061763 0.0 0.9980908 -0.061763 0.0 -0.0659778 -0.9978211 0.0 -0.0659778 -0.9978211 0.0 -0.0659778 -0.9978211 0.0 -0.0659778 -0.9978211 0.0 0.0659778 0.9978211 0.0 0.0659778 0.9978211 0.0 0.0659778 0.9978211 0.0 0.0659778 0.9978211 0.0 0.0652799 0.997867 0.0 0.0652799 0.997867 0.0 0.0652799 0.997867 0.0 0.0652799 0.997867 0.0 0.0659778 0.9978211 0.0 0.0659778 0.9978211 0.0 0.0659778 0.9978211 0.0 0.0659778 0.9978211 0.0 0.041852 0.6356285 0.7708599 0.041964 0.6359943 0.770552 0.0419154 0.6356331 0.7708526 0.0422968 0.6409647 0.7664041 0.0425743 0.6438026 0.7640064 0.0431016 0.6518899 0.7570878 -0.9972206 0.0745049 0.0 -0.9972206 0.0745049 0.0 -0.9972206 0.0745049 0.0 -0.9972206 0.0745049 0.0 0.9975539 -0.0699017 0.0 0.9975539 -0.0699017 0.0 0.9975539 -0.0699017 0.0 0.9975539 -0.0699017 0.0 -0.0157898 -0.2395772 0.9707489 -0.015805 -0.2395355 0.970759 -0.0157898 -0.2395772 0.9707489 -0.0157747 -0.239619 0.9707388 -0.0625957 -0.9466722 0.3160593 -0.0625957 -0.9466722 0.3160593 -0.0625957 -0.9466722 0.3160593 -0.0128098 -0.1959931 0.9805216 -0.0128098 -0.1959931 0.9805216 -0.0128098 -0.1959931 0.9805216 -1.0 0.0 0.0 -1.0 0.0 0.0 -1.0 0.0 0.0 -1.0 0.0 0.0 0.7609501 0.6488104 0.0 0.7609501 0.6488104 0.0 0.7609501 0.6488104 0.0 0.7609501 0.6488104 0.0 -0.0416305 -0.9991331 0.0 -0.0416305 -0.9991331 0.0 -0.0416305 -0.9991331 0.0 -0.0416305 -0.9991331 0.0 -0.0709321 -0.9974812 0.0 -0.0709321 -0.9974812 0.0 -0.0709321 -0.9974812 0.0 -0.0709321 -0.9974812 0.0 1.0 0.0 0.0 1.0 0.0 0.0 1.0 0.0 0.0 1.0 0.0 0.0 -0.9989676 0.045426 0.0 -0.9989678 0.045426 0.0 -0.9989678 0.045426 0.0 -0.9989677 0.045426 0.0 -0.9989677 0.045426 0.0 -0.0066103 -0.2251135 0.9743101 -0.0158303 -0.2394117 0.9707891 -0.0019711 -0.2178674 0.9759763 -0.0019979 -0.2179365 0.9759609 -0.0158841 -0.2395491 0.9707543 0.0704396 0.997516 0.0 0.0704396 0.997516 0.0 0.0704396 0.997516 0.0 0.0704396 0.9975161 0.0 0.9989678 -0.045426 0.0 0.9989678 -0.045426 0.0 0.9989678 -0.045426 0.0 0.9989678 -0.045426 0.0 -0.0668436 -0.9977635 0.0 -0.0668436 -0.9977635 0.0 -0.0668436 -0.9977635 0.0 -0.0668436 -0.9977635 0.0 -1.0 0.0 0.0 -1.0 0.0 0.0 -1.0 0.0 0.0 -1.0 0.0 0.0 -1.0 0.0 0.0 0.0603617 0.9981766 0.0 0.0603617 0.9981766 0.0 0.0603617 0.9981766 0.0 0.0603617 0.9981766 0.0 0.0310972 0.2211899 0.9747349 0.0156223 0.2393963 0.9707962 0.0148596 0.2403236 0.9705791 0.0465516 0.2028632 0.9780999 0.0367775 0.2144493 0.9760424 0.0115509 0.2359789 0.9716895 0.0050765 0.2306338 0.9730273 0.0053217 0.2309372 0.9729541 0.0159659 0.2396335 0.9707322 0.0157826 0.2393002 0.9708173 0.9976837 -0.0680241 0.0 0.9976837 -0.0680241 0.0 0.9976836 -0.0680241 0.0 0.9976836 -0.0680241 0.0 0.9976836 -0.0680241 0.0 -0.0652799 -0.997867 0.0 -0.0652799 -0.997867 0.0 -0.0652799 -0.997867 0.0 -0.0652799 -0.997867 0.0 -0.1657288 0.0347729 0.9855581 -0.1657288 0.0347729 0.9855581 -0.1657288 0.0347729 0.9855581 0.0280263 0.9996071 0.0 0.0280263 0.9996071 0.0 0.0280263 0.9996071 0.0 0.0280263 0.9996071 0.0</float_array>
                    <technique_common>
                        <accessor count="166" source="#geometry0-normal-array" stride="3">
                            <param name="X" type="float"/>
                            <param name="Y" type="float"/>
                            <param name="Z" type="float"/>
                        </accessor>
                    </technique_common>
                </source>
                <vertices id="geometry0-vertex">
                    <input semantic="POSITION" source="#geometry0-position"/>
                </vertices>
                <triangles count="74" material="default_ai_0.2_sh_0.2_tr_0.0_dc_r_0.8_g_0.8_b_0.8_sc_r_1.0_g_1.0_b_1.0_ec_r_0.0_g_0.0_b_0_tri">
                    <input offset="0" semantic="VERTEX" source="#geometry0-vertex"/>
                    <input offset="1" semantic="NORMAL" source="#geometry0-normal"/>
                    <p>15 0 14 1 8 2 15 0 8 2 7 3 15 0 7 3 13 4 15 0 13 4 19 5 3 6 15 0 19 5 3 6 19 5 18 7 3 6 18 7 4 8 10 9 16 10 2 11 10 9 2 11 1 12 18 13 19 14 13 15 18 13 13 15 25 16 18 13 25 16 23 17 31 18 30 19 40 20 31 18 40 20 39 21 31 18 39 21 38 22 31 18 38 22 42 23 31 18 42 23 41 24 31 18 41 24 14 25 31 18 14 25 15 26 31 18 15 26 3 27 29 28 37 29 40 30 29 28 40 30 30 31 3 32 4 33 0 34 2 35 3 32 0 34 2 35 0 34 1 36 33 37 32 38 14 39 33 37 14 39 41 40 5 41 6 42 7 43 5 41 7 43 8 44 36 45 35 46 38 47 36 45 38 47 39 48 19 49 13 50 12 51 19 49 12 51 20 52 12 53 13 54 19 55 12 53 19 55 20 56 16 57 15 58 3 59 16 57 3 59 2 60 12 61 20 62 26 63 12 61 26 63 27 64 21 71 22 72 18 73 21 71 18 73 23 74 6 75 12 76 13 77 6 75 13 77 7 78 2 89 28 90 31 91 2 89 31 91 3 92 34 93 33 94 41 95 34 93 41 95 42 96 28 97 29 98 30 99 28 97 30 99 31 100 24 101 21 102 23 103 24 101 23 103 25 104 20 105 17 106 18 107 20 105 18 107 19 108 14 109 15 110 16 111 14 109 16 111 10 112 14 109 10 112 9 113 9 119 5 120 8 121 9 119 8 121 14 122 32 123 16 124 15 125 32 123 15 125 14 126 17 127 0 128 4 129 17 127 4 129 18 130 19 131 18 132 22 133 20 134 19 131 22 133 20 134 22 133 26 135 37 136 36 137 39 138 37 136 39 138 40 139 25 150 13 151 12 152 25 150 12 152 27 153 25 150 27 153 24 154 3 155 15 156 16 157 3 155 16 157 2 158 35 162 34 163 42 164 35 162 42 164 38 165</p>
                </triangles>
                <triangles count="20" material="default_ai_0.2_sh_0.2_tr_0.0_dc_r_1.0_g_0.2_b_0.2_sc_r_1.0_g_1.0_b_1.0_ec_r_0.0_g_0.0_b_0_tri">
                    <input offset="0" semantic="VERTEX" source="#geometry0-vertex"/>
                    <input offset="1" semantic="NORMAL" source="#geometry0-normal"/>
                    <p>1 65 11 66 6 67 10 68 1 65 6 67 10 68 6 67 5 69 10 68 5 69 9 70 6 79 11 80 0 81 12 82 6 79 0 81 20 83 12 84 0 85 20 86 0 87 17 88 24 114 27 115 26 116 24 114 26 116 22 117 24 114 22 117 21 118 36 140 37 141 29 142 36 140 29 142 28 143 36 140 28 143 2 144 35 145 36 140 2 144 35 145 2 144 16 146 35 145 16 146 32 147 35 145 32 147 33 148 35 145 33 148 34 149 1 159 0 160 11 161</p>
                </triangles>
            </mesh>
        </geometry>
    </library_geometries>
    <library_visual_scenes>
        <visual_scene id="Building_DEBW_5221000Qi3u">
            <node>
                <instance_geometry url="#geometry0">
                    <bind_material>
                        <technique_common>
                            <instance_material symbol="default_ai_0.2_sh_0.2_tr_0.0_dc_r_0.8_g_0.8_b_0.8_sc_r_1.0_g_1.0_b_1.0_ec_r_0.0_g_0.0_b_0_tri" target="#default_ai_0.2_sh_0.2_tr_0.0_dc_r_0.8_g_0.8_b_0.8_sc_r_1.0_g_1.0_b_1.0_ec_r_0.0_g_0.0_b_0_mat"/>
                            <instance_material symbol="default_ai_0.2_sh_0.2_tr_0.0_dc_r_1.0_g_0.2_b_0.2_sc_r_1.0_g_1.0_b_1.0_ec_r_0.0_g_0.0_b_0_tri" target="#default_ai_0.2_sh_0.2_tr_0.0_dc_r_1.0_g_0.2_b_0.2_sc_r_1.0_g_1.0_b_1.0_ec_r_0.0_g_0.0_b_0_mat"/>
                        </technique_common>
                    </bind_material>
                </instance_geometry>
            </node>
        </visual_scene>
    </library_visual_scenes>
    <scene>
        <instance_visual_scene url="#Building_DEBW_5221000Qi3u"/>
    </scene>
</COLLADA>
