<?xml version="1.0" encoding="UTF-8" standalone="yes"?>
<COLLADA xmlns="http://www.collada.org/2005/11/COLLADASchema" version="1.4.1">
    <asset>
        <contributor>
            <authoring_tool>3D City Database Importer/Exporter, version 5.5.3; Chair of Geoinformatics, Technical University of Munich</authoring_tool>
        </contributor>
        <created>2026-05-06T15:12:13.018</created>
        <modified>2026-05-06T15:12:13.018</modified>
        <unit meter="1.0" name="meters"/>
        <up_axis>Z_UP</up_axis>
    </asset>
    <library_materials>
        <material id="default_ai_0.2_sh_0.2_tr_0.0_dc_r_0.8_g_0.8_b_0.8_sc_r_1.0_g_1.0_b_1.0_ec_r_0.0_g_0.0_b_0_mat">
            <instance_effect url="#default_ai_0.2_sh_0.2_tr_0.0_dc_r_0.8_g_0.8_b_0.8_sc_r_1.0_g_1.0_b_1.0_ec_r_0.0_g_0.0_b_0_eff"/>
        </material>
        <material id="default_ai_0.2_sh_0.2_tr_0.0_dc_r_1.0_g_0.2_b_0.2_sc_r_1.0_g_1.0_b_1.0_ec_r_0.0_g_0.0_b_0_mat">
            <instance_effect url="#default_ai_0.2_sh_0.2_tr_0.0_dc_r_1.0_g_0.2_b_0.2_sc_r_1.0_g_1.0_b_1.0_ec_r_0.0_g_0.0_b_0_eff"/>
        </material>
    </library_materials>
    <library_effects>
        <effect id="default_ai_0.2_sh_0.2_tr_0.0_dc_r_0.8_g_0.8_b_0.8_sc_r_1.0_g_1.0_b_1.0_ec_r_0.0_g_0.0_b_0_eff">
            <profile_COMMON>
                <technique sid="COMMON">
                    <lambert>
                        <emission>
                            <color>0.0 0.0 0.0 1.0</color>
                        </emission>
                        <diffuse>
                            <color>0.8 0.8 0.8 1.0</color>
                        </diffuse>
                        <reflective>
                            <color>1.0 1.0 1.0 1.0</color>
                        </reflective>
                        <reflectivity>
                            <float>0.2</float>
                        </reflectivity>
                        <transparent opaque="A_ONE">
                            <color>1.0 1.0 1.0 1.0</color>
                        </transparent>
                        <transparency>
                            <float>1.0</float>
                        </transparency>
                    </lambert>
                </technique>
                <extra>
                    <technique profile="GOOGLEEARTH">
                        <double_sided>0</double_sided>
                    </technique>
                </extra>
            </profile_COMMON>
        </effect>
        <effect id="default_ai_0.2_sh_0.2_tr_0.0_dc_r_1.0_g_0.2_b_0.2_sc_r_1.0_g_1.0_b_1.0_ec_r_0.0_g_0.0_b_0_eff">
            <profile_COMMON>
                <technique sid="COMMON">
                    <lambert>
                        <emission>
                            <color>0.0 0.0 0.0 1.0</color>
                        </emission>
                        <diffuse>
                            <color>1.0 0.2 0.2 1.0</color>
                        </diffuse>
                        <reflective>
                            <color>1.0 1.0 1.0 1.0</color>
                        </reflective>
                        <reflectivity>
                            <float>0.2</float>
                        </reflectivity>
                        <transparent opaque="A_ONE">
                            <color>1.0 1.0 1.0 1.0</color>
                        </transparent>
                        <transparency>
                            <float>1.0</float>
                        </transparency>
                    </lambert>
                </technique>
                <extra>
                    <technique profile="GOOGLEEARTH">
                        <double_sided>0</double_sided>
                    </technique>
                </extra>
            </profile_COMMON>
        </effect>
    </library_effects>
    <library_geometries>
        <geometry id="geometry0">
            <mesh>
                <source id="geometry0-position">
                    <float_array id="geometry0-position-array" count="78">0.522 -0.84 11.093 7.562 2.106 11.093 5.71 6.56 7.828 -1.23 3.66 7.826 -1.38 4.01 7.568 -1.69 3.85 7.587 -0.56 1.27 9.493 0.0 0.0 10.433 0.19 0.04 10.457 6.51 -3.73 7.666 9.47 -2.48 7.673 1.28 -2.85 9.615 2.36 -5.68 7.53 6.59 -3.91 7.53 0.0 0.0 0.0 0.19 0.04 0.0 2.36 -5.68 0.0 6.59 -3.91 0.0 6.51 -3.73 0.0 9.47 -2.48 0.0 1.28 -2.85 0.0 5.71 6.56 0.0 -1.23 3.66 0.0 -1.69 3.85 0.0 -0.56 1.27 0.0 -1.38 4.01 0.0</float_array>
                    <technique_common>
                        <accessor count="26" source="#geometry0-position-array" stride="3">
                            <param name="X" type="float"/>
                            <param name="Y" type="float"/>
                            <param name="Z" type="float"/>
                        </accessor>
                    </technique_common>
                </source>
                <source id="geometry0-normal">
                    <float_array id="geometry0-normal-array" count="246">0.3860085 -0.9224952 0.0 0.3860085 -0.9224952 0.0 0.3860085 -0.9224952 0.0 0.3860085 -0.9224952 0.0 -0.4586436 0.8886203 0.0 -0.4586436 0.8886203 0.0 -0.4586436 0.8886203 0.0 -0.4586436 0.8886203 0.0 0.9233184 0.3840351 0.0 0.9233185 0.3840351 0.0 0.9233184 0.3840351 0.0 0.9233184 0.3840351 0.0 0.9191451 0.3939191 0.0 0.9191451 0.3939191 0.0 0.9191451 0.3939191 0.0 0.9191451 0.3939191 0.0 0.3890307 -0.9212248 0.0 0.3890307 -0.9212248 0.0 0.3890307 -0.9212248 0.0 0.3890307 -0.9212248 0.0 -0.9356623 -0.3528968 0.0 -0.9356623 -0.3528968 0.0 -0.9356623 -0.3528968 0.0 -0.9356622 -0.3528968 0.0 0.9233194 0.384033 1.518E-4 0.9233194 0.384033 1.518E-4 0.9233194 0.384033 1.518E-4 -0.3855592 0.9226831 0.0 -0.3855592 0.9226831 0.0 -0.3855592 0.9226831 0.0 -0.3855592 0.9226831 0.0 -0.9342784 -0.3565444 0.0 -0.9342784 -0.3565444 0.0 -0.9342784 -0.3565444 0.0 -0.9342784 -0.3565444 0.0 -0.2153033 0.517684 0.8280385 -0.213744 0.5185345 0.8279103 -0.2192108 0.5159606 0.8280889 -0.2165131 0.5169959 0.828153 -0.2260628 0.5131413 0.8279986 -0.2261312 0.5130915 0.8280108 -0.2162994 0.5170521 0.8281738 -0.2162983 0.5170477 0.8281767 -0.2163831 0.5170867 0.8281303 0.0 0.0 -1.0 0.0 0.0 -1.0 0.0 0.0 -1.0 0.0 0.0 -1.0 0.0 0.0 -1.0 0.0 0.0 -1.0 0.0 0.0 -1.0 0.0 0.0 -1.0 0.0 0.0 -1.0 0.0 0.0 -1.0 0.0 0.0 -1.0 0.0 0.0 -1.0 -0.9159943 -0.4011914 0.0 -0.9159943 -0.4011914 0.0 -0.9159943 -0.4011914 0.0 -0.9159943 -0.4011914 0.0 0.9138117 0.406138 0.0 0.9138117 0.406138 0.0 0.9138117 0.406138 0.0 0.9138117 0.406138 0.0 0.2189682 -0.5231291 0.8236436 0.2189398 -0.5231286 0.8236515 0.2184688 -0.523757 0.8233771 0.2288237 -0.5195722 0.823216 0.2182232 -0.5240974 0.8232258 0.2394007 -0.5150033 0.8230789 0.2597651 -0.5065748 0.8221338 0.2060105 -0.9785498 0.0 0.2060105 -0.9785498 0.0 0.2060105 -0.9785498 0.0 0.2060105 -0.9785498 0.0 -0.9356524 -0.3529227 1.016E-4 -0.9356524 -0.3529227 1.016E-4 -0.9356524 -0.3529227 1.016E-4 -0.914996 -0.4034628 0.0 -0.914996 -0.4034629 0.0 -0.914996 -0.4034628 0.0 -0.914996 -0.4034628 0.0</float_array>
                    <technique_common>
                        <accessor count="82" source="#geometry0-normal-array" stride="3">
                            <param name="X" type="float"/>
                            <param name="Y" type="float"/>
                            <param name="Z" type="float"/>
                        </accessor>
                    </technique_common>
                </source>
                <vertices id="geometry0-vertex">
                    <input semantic="POSITION" source="#geometry0-position"/>
                </vertices>
                <triangles count="36" material="default_ai_0.2_sh_0.2_tr_0.0_dc_r_0.8_g_0.8_b_0.8_sc_r_1.0_g_1.0_b_1.0_ec_r_0.0_g_0.0_b_0_tri">
                    <input offset="0" semantic="VERTEX" source="#geometry0-vertex"/>
                    <input offset="1" semantic="NORMAL" source="#geometry0-normal"/>
                    <p>13 0 12 1 16 2 13 0 16 2 17 3 5 4 4 5 25 6 5 4 25 6 23 7 2 8 10 9 19 10 2 8 19 10 21 11 4 12 3 13 22 14 4 12 22 14 25 15 10 16 9 17 18 18 10 16 18 18 19 19 11 20 8 21 15 22 11 20 15 22 20 23 10 24 2 25 1 26 3 27 2 28 21 29 3 27 21 29 22 30 12 31 11 32 20 33 12 31 20 33 16 34 17 44 16 45 20 46 17 44 20 46 15 47 18 48 17 44 15 47 19 49 18 48 15 47 21 50 19 49 15 47 21 50 15 47 14 51 21 50 14 51 24 52 22 53 21 50 24 52 22 53 24 52 23 54 22 53 23 54 25 55 6 56 5 57 23 58 6 56 23 58 24 59 9 60 13 61 17 62 9 60 17 62 18 63 8 71 7 72 14 73 8 71 14 73 15 74 8 75 11 76 0 77 7 78 6 79 24 80 7 78 24 80 14 81</p>
                </triangles>
                <triangles count="12" material="default_ai_0.2_sh_0.2_tr_0.0_dc_r_1.0_g_0.2_b_0.2_sc_r_1.0_g_1.0_b_1.0_ec_r_0.0_g_0.0_b_0_tri">
                    <input offset="0" semantic="VERTEX" source="#geometry0-vertex"/>
                    <input offset="1" semantic="NORMAL" source="#geometry0-normal"/>
                    <p>6 35 7 36 8 37 5 38 6 35 8 37 4 39 5 38 8 37 3 40 4 39 8 37 2 41 3 40 8 37 2 41 8 37 0 42 2 41 0 42 1 43 10 64 1 65 9 66 1 65 0 67 9 66 9 66 0 67 13 68 13 68 0 67 12 69 12 69 0 67 11 70</p>
                </triangles>
            </mesh>
        </geometry>
    </library_geometries>
    <library_visual_scenes>
        <visual_scene id="Building_DEBW_5221000R089">
            <node>
                <instance_geometry url="#geometry0">
                    <bind_material>
                        <technique_common>
                            <instance_material symbol="default_ai_0.2_sh_0.2_tr_0.0_dc_r_0.8_g_0.8_b_0.8_sc_r_1.0_g_1.0_b_1.0_ec_r_0.0_g_0.0_b_0_tri" target="#default_ai_0.2_sh_0.2_tr_0.0_dc_r_0.8_g_0.8_b_0.8_sc_r_1.0_g_1.0_b_1.0_ec_r_0.0_g_0.0_b_0_mat"/>
                            <instance_material symbol="default_ai_0.2_sh_0.2_tr_0.0_dc_r_1.0_g_0.2_b_0.2_sc_r_1.0_g_1.0_b_1.0_ec_r_0.0_g_0.0_b_0_tri" target="#default_ai_0.2_sh_0.2_tr_0.0_dc_r_1.0_g_0.2_b_0.2_sc_r_1.0_g_1.0_b_1.0_ec_r_0.0_g_0.0_b_0_mat"/>
                        </technique_common>
                    </bind_material>
                </instance_geometry>
            </node>
        </visual_scene>
    </library_visual_scenes>
    <scene>
        <instance_visual_scene url="#Building_DEBW_5221000R089"/>
    </scene>
</COLLADA>
