<?xml version="1.0" encoding="UTF-8" standalone="yes"?>
<COLLADA xmlns="http://www.collada.org/2005/11/COLLADASchema" version="1.4.1">
    <asset>
        <contributor>
            <authoring_tool>3D City Database Importer/Exporter, version 5.5.3; Chair of Geoinformatics, Technical University of Munich</authoring_tool>
        </contributor>
        <created>2026-05-06T15:12:05.394</created>
        <modified>2026-05-06T15:12:05.394</modified>
        <unit meter="1.0" name="meters"/>
        <up_axis>Z_UP</up_axis>
    </asset>
    <library_materials>
        <material id="default_ai_0.2_sh_0.2_tr_0.0_dc_r_0.8_g_0.8_b_0.8_sc_r_1.0_g_1.0_b_1.0_ec_r_0.0_g_0.0_b_0_mat">
            <instance_effect url="#default_ai_0.2_sh_0.2_tr_0.0_dc_r_0.8_g_0.8_b_0.8_sc_r_1.0_g_1.0_b_1.0_ec_r_0.0_g_0.0_b_0_eff"/>
        </material>
        <material id="default_ai_0.2_sh_0.2_tr_0.0_dc_r_1.0_g_0.2_b_0.2_sc_r_1.0_g_1.0_b_1.0_ec_r_0.0_g_0.0_b_0_mat">
            <instance_effect url="#default_ai_0.2_sh_0.2_tr_0.0_dc_r_1.0_g_0.2_b_0.2_sc_r_1.0_g_1.0_b_1.0_ec_r_0.0_g_0.0_b_0_eff"/>
        </material>
    </library_materials>
    <library_effects>
        <effect id="default_ai_0.2_sh_0.2_tr_0.0_dc_r_0.8_g_0.8_b_0.8_sc_r_1.0_g_1.0_b_1.0_ec_r_0.0_g_0.0_b_0_eff">
            <profile_COMMON>
                <technique sid="COMMON">
                    <lambert>
                        <emission>
                            <color>0.0 0.0 0.0 1.0</color>
                        </emission>
                        <diffuse>
                            <color>0.8 0.8 0.8 1.0</color>
                        </diffuse>
                        <reflective>
                            <color>1.0 1.0 1.0 1.0</color>
                        </reflective>
                        <reflectivity>
                            <float>0.2</float>
                        </reflectivity>
                        <transparent opaque="A_ONE">
                            <color>1.0 1.0 1.0 1.0</color>
                        </transparent>
                        <transparency>
                            <float>1.0</float>
                        </transparency>
                    </lambert>
                </technique>
                <extra>
                    <technique profile="GOOGLEEARTH">
                        <double_sided>0</double_sided>
                    </technique>
                </extra>
            </profile_COMMON>
        </effect>
        <effect id="default_ai_0.2_sh_0.2_tr_0.0_dc_r_1.0_g_0.2_b_0.2_sc_r_1.0_g_1.0_b_1.0_ec_r_0.0_g_0.0_b_0_eff">
            <profile_COMMON>
                <technique sid="COMMON">
                    <lambert>
                        <emission>
                            <color>0.0 0.0 0.0 1.0</color>
                        </emission>
                        <diffuse>
                            <color>1.0 0.2 0.2 1.0</color>
                        </diffuse>
                        <reflective>
                            <color>1.0 1.0 1.0 1.0</color>
                        </reflective>
                        <reflectivity>
                            <float>0.2</float>
                        </reflectivity>
                        <transparent opaque="A_ONE">
                            <color>1.0 1.0 1.0 1.0</color>
                        </transparent>
                        <transparency>
                            <float>1.0</float>
                        </transparency>
                    </lambert>
                </technique>
                <extra>
                    <technique profile="GOOGLEEARTH">
                        <double_sided>0</double_sided>
                    </technique>
                </extra>
            </profile_COMMON>
        </effect>
    </library_effects>
    <library_geometries>
        <geometry id="geometry0">
            <mesh>
                <source id="geometry0-position">
                    <float_array id="geometry0-position-array" count="87">-1.243 -0.553 3.499 0.0 0.0 4.26 0.0 0.0 0.0 -1.243 -0.553 0.0 0.527 -4.183 3.502 1.778 -3.658 4.26 0.527 -4.183 0.0 1.778 -3.658 0.0 11.347 -4.333 0.0 3.797 -7.813 0.0 1.837 -3.633 0.0 0.017 0.007 0.0 -0.183 0.377 0.0 7.497 3.697 0.0 0.017 0.007 5.443 -0.183 0.377 5.443 7.497 3.697 5.443 0.0 0.0 5.443 11.347 -4.333 5.443 1.837 -3.633 5.443 1.778 -3.658 5.451 1.837 -3.633 5.497 3.797 -7.813 5.46 7.782 -5.976 8.603 3.869 2.129 8.603 0.017 0.007 5.457 3.797 -7.813 5.443 7.497 3.697 5.602 11.347 -4.333 5.62</float_array>
                    <technique_common>
                        <accessor count="29" source="#geometry0-position-array" stride="3">
                            <param name="X" type="float"/>
                            <param name="Y" type="float"/>
                            <param name="Z" type="float"/>
                        </accessor>
                    </technique_common>
                </source>
                <source id="geometry0-normal">
                    <float_array id="geometry0-normal-array" count="324">-0.4064794 0.9136599 0.0 -0.4064794 0.9136599 0.0 -0.4064794 0.9136599 0.0 -0.4064794 0.91366 0.0 -0.5302325 -0.2559406 0.8082994 -0.5461697 -0.2637312 0.7950752 -0.5359076 -0.2588144 0.8036281 -0.5248416 -0.2534287 0.8125978 -0.5245182 -0.2531169 0.8129039 -0.5246412 -0.252831 0.8129133 -0.5245112 -0.2531825 0.8128878 -0.524444 -0.2531955 0.8129271 -0.4392266 -0.2134684 0.8726461 -0.4392733 -0.21347 0.8726222 -0.4392266 -0.2134684 0.8726461 -0.4391798 -0.2134668 0.8726701 0.3869694 -0.9220926 0.0 0.3869694 -0.9220926 0.0 0.3869694 -0.9220926 0.0 0.3869694 -0.9220926 0.0 0.0 0.0 -1.0 0.0 0.0 -1.0 0.0 0.0 -1.0 0.0 0.0 -1.0 0.0 0.0 -1.0 0.0 0.0 -1.0 0.0 0.0 -1.0 0.0 0.0 -1.0 -0.9054069 -0.4245448 0.0 -0.9054069 -0.4245448 0.0 -0.9054069 -0.4245448 0.0 -0.9054069 -0.4245448 0.0 0.4185999 -0.9081708 3.05E-5 0.4186005 -0.9081705 0.0 0.4186005 -0.9081705 0.0 0.4185999 -0.9081708 3.05E-5 0.4185994 -0.908171 6.11E-5 -0.8797065 -0.475517 0.0 -0.8797065 -0.475517 0.0 -0.8797065 -0.475517 0.0 -0.8797065 -0.475517 0.0 0.5449104 0.2630598 0.7961609 0.5448971 0.2630367 0.7961776 0.5449104 0.2630598 0.7961609 0.5449237 0.2630829 0.7961442 -0.905407 -0.4245448 0.0 -0.905407 -0.4245448 0.0 -0.905407 -0.4245448 0.0 -0.905407 -0.4245448 0.0 -0.3968022 0.9179041 0.0 -0.3968022 0.9179041 0.0 -0.3968022 0.9179041 0.0 -0.3968022 0.9179041 0.0 -0.8797065 -0.475517 0.0 -0.8797065 -0.475517 0.0 -0.8797065 -0.475517 0.0 -0.3807498 0.9246781 0.0 -0.3807498 0.9246781 0.0 -0.3807498 0.9246781 0.0 -0.3807498 0.9246781 0.0 -0.3807498 0.9246781 0.0 0.0 0.0 -1.0 0.0 0.0 -1.0 0.0 0.0 -1.0 0.0 0.0 -1.0 -0.3807498 0.9246781 0.0 -0.3807498 0.9246781 0.0 -0.3807498 0.9246781 0.0 -0.8993866 -0.437154 0.0 -0.8993866 -0.437154 0.0 -0.8993866 -0.437154 0.0 -0.8993866 -0.437154 0.0 0.9017157 0.4323294 0.0 0.9017157 0.4323294 0.0 0.9017157 0.4323294 0.0 0.9017157 0.4323294 0.0 0.8993866 0.437154 0.0 0.8993866 0.437154 0.0 0.8993866 0.437154 0.0 0.8993866 0.437154 0.0 -0.8993866 -0.4371541 0.0 -0.8993866 -0.437154 0.0 -0.8993866 -0.4371541 0.0 -0.8993866 -0.4371541 0.0 0.3901502 -0.9207512 0.0 0.3901502 -0.9207512 0.0 0.3901502 -0.9207512 0.0 0.3901502 -0.9207512 0.0 0.3901502 -0.9207512 0.0 0.4186004 -0.9081705 0.0 0.4186004 -0.9081705 0.0 0.4186004 -0.9081705 0.0 0.4186004 -0.9081705 0.0 0.9017158 0.4323294 0.0 0.9017158 0.4323294 0.0 0.9017158 0.4323294 0.0 0.9017158 0.4323294 0.0 0.3901502 -0.9207512 0.0 0.3901502 -0.9207512 0.0 0.3901502 -0.9207512 0.0 -0.8988398 -0.4382772 0.0 -0.8988398 -0.4382773 0.0 -0.8988398 -0.4382772 0.0 -0.8988399 -0.4382773 0.0 -0.3968014 0.9179045 -5.28E-5 -0.3968005 0.917905 -1.057E-4 -0.3968014 0.9179045 -5.28E-5 -0.3968023 0.9179041 0.0</float_array>
                    <technique_common>
                        <accessor count="108" source="#geometry0-normal-array" stride="3">
                            <param name="X" type="float"/>
                            <param name="Y" type="float"/>
                            <param name="Z" type="float"/>
                        </accessor>
                    </technique_common>
                </source>
                <vertices id="geometry0-vertex">
                    <input semantic="POSITION" source="#geometry0-position"/>
                </vertices>
                <triangles count="48" material="default_ai_0.2_sh_0.2_tr_0.0_dc_r_0.8_g_0.8_b_0.8_sc_r_1.0_g_1.0_b_1.0_ec_r_0.0_g_0.0_b_0_tri">
                    <input offset="0" semantic="VERTEX" source="#geometry0-vertex"/>
                    <input offset="1" semantic="NORMAL" source="#geometry0-normal"/>
                    <p>0 0 1 1 2 2 0 0 2 2 3 3 5 16 4 17 6 18 5 16 6 18 7 19 12 20 13 21 8 22 11 23 12 20 8 22 2 24 11 23 8 22 10 25 7 26 2 24 10 25 2 24 8 22 10 25 8 22 9 27 26 28 19 29 10 30 26 28 10 30 9 31 22 32 26 33 18 34 22 32 18 34 28 35 22 32 28 35 23 36 14 37 15 38 12 39 14 37 12 39 11 40 26 45 22 46 21 47 26 45 21 47 19 48 15 49 16 50 13 51 15 49 13 51 12 52 14 53 25 54 15 55 11 56 2 57 1 58 11 56 1 58 17 59 11 56 17 59 14 60 7 61 6 62 3 63 7 61 3 63 2 64 17 65 25 66 14 67 1 68 2 69 7 70 1 68 7 70 5 71 16 72 18 73 8 74 16 72 8 74 13 75 7 76 2 77 1 78 7 76 1 78 5 79 17 80 1 81 5 82 17 80 5 82 20 83 7 84 10 85 19 86 5 87 7 84 19 86 5 87 19 86 20 88 18 89 26 90 9 91 18 89 9 91 8 92 16 93 27 94 28 95 16 93 28 95 18 96 19 97 21 98 20 99 4 100 0 101 3 102 4 100 3 102 6 103 15 104 24 105 27 106 15 104 27 106 16 107</p>
                </triangles>
                <triangles count="10" material="default_ai_0.2_sh_0.2_tr_0.0_dc_r_1.0_g_0.2_b_0.2_sc_r_1.0_g_1.0_b_1.0_ec_r_0.0_g_0.0_b_0_tri">
                    <input offset="0" semantic="VERTEX" source="#geometry0-vertex"/>
                    <input offset="1" semantic="NORMAL" source="#geometry0-normal"/>
                    <p>25 4 17 5 20 6 25 4 20 6 21 7 24 8 15 9 25 4 24 8 25 4 21 7 24 8 21 7 22 10 24 8 22 10 23 11 1 12 0 13 4 14 1 12 4 14 5 15 28 41 27 42 24 43 28 41 24 43 23 44</p>
                </triangles>
            </mesh>
        </geometry>
    </library_geometries>
    <library_visual_scenes>
        <visual_scene id="Building_DEBW_5221000QwkH">
            <node>
                <instance_geometry url="#geometry0">
                    <bind_material>
                        <technique_common>
                            <instance_material symbol="default_ai_0.2_sh_0.2_tr_0.0_dc_r_0.8_g_0.8_b_0.8_sc_r_1.0_g_1.0_b_1.0_ec_r_0.0_g_0.0_b_0_tri" target="#default_ai_0.2_sh_0.2_tr_0.0_dc_r_0.8_g_0.8_b_0.8_sc_r_1.0_g_1.0_b_1.0_ec_r_0.0_g_0.0_b_0_mat"/>
                            <instance_material symbol="default_ai_0.2_sh_0.2_tr_0.0_dc_r_1.0_g_0.2_b_0.2_sc_r_1.0_g_1.0_b_1.0_ec_r_0.0_g_0.0_b_0_tri" target="#default_ai_0.2_sh_0.2_tr_0.0_dc_r_1.0_g_0.2_b_0.2_sc_r_1.0_g_1.0_b_1.0_ec_r_0.0_g_0.0_b_0_mat"/>
                        </technique_common>
                    </bind_material>
                </instance_geometry>
            </node>
        </visual_scene>
    </library_visual_scenes>
    <scene>
        <instance_visual_scene url="#Building_DEBW_5221000QwkH"/>
    </scene>
</COLLADA>
