<?xml version="1.0" encoding="UTF-8" standalone="yes"?>
<COLLADA xmlns="http://www.collada.org/2005/11/COLLADASchema" version="1.4.1">
    <asset>
        <contributor>
            <authoring_tool>3D City Database Importer/Exporter, version 5.5.3; Chair of Geoinformatics, Technical University of Munich</authoring_tool>
        </contributor>
        <created>2026-05-06T15:12:11.202</created>
        <modified>2026-05-06T15:12:11.202</modified>
        <unit meter="1.0" name="meters"/>
        <up_axis>Z_UP</up_axis>
    </asset>
    <library_materials>
        <material id="default_ai_0.2_sh_0.2_tr_0.0_dc_r_0.8_g_0.8_b_0.8_sc_r_1.0_g_1.0_b_1.0_ec_r_0.0_g_0.0_b_0_mat">
            <instance_effect url="#default_ai_0.2_sh_0.2_tr_0.0_dc_r_0.8_g_0.8_b_0.8_sc_r_1.0_g_1.0_b_1.0_ec_r_0.0_g_0.0_b_0_eff"/>
        </material>
        <material id="default_ai_0.2_sh_0.2_tr_0.0_dc_r_1.0_g_0.2_b_0.2_sc_r_1.0_g_1.0_b_1.0_ec_r_0.0_g_0.0_b_0_mat">
            <instance_effect url="#default_ai_0.2_sh_0.2_tr_0.0_dc_r_1.0_g_0.2_b_0.2_sc_r_1.0_g_1.0_b_1.0_ec_r_0.0_g_0.0_b_0_eff"/>
        </material>
    </library_materials>
    <library_effects>
        <effect id="default_ai_0.2_sh_0.2_tr_0.0_dc_r_0.8_g_0.8_b_0.8_sc_r_1.0_g_1.0_b_1.0_ec_r_0.0_g_0.0_b_0_eff">
            <profile_COMMON>
                <technique sid="COMMON">
                    <lambert>
                        <emission>
                            <color>0.0 0.0 0.0 1.0</color>
                        </emission>
                        <diffuse>
                            <color>0.8 0.8 0.8 1.0</color>
                        </diffuse>
                        <reflective>
                            <color>1.0 1.0 1.0 1.0</color>
                        </reflective>
                        <reflectivity>
                            <float>0.2</float>
                        </reflectivity>
                        <transparent opaque="A_ONE">
                            <color>1.0 1.0 1.0 1.0</color>
                        </transparent>
                        <transparency>
                            <float>1.0</float>
                        </transparency>
                    </lambert>
                </technique>
                <extra>
                    <technique profile="GOOGLEEARTH">
                        <double_sided>0</double_sided>
                    </technique>
                </extra>
            </profile_COMMON>
        </effect>
        <effect id="default_ai_0.2_sh_0.2_tr_0.0_dc_r_1.0_g_0.2_b_0.2_sc_r_1.0_g_1.0_b_1.0_ec_r_0.0_g_0.0_b_0_eff">
            <profile_COMMON>
                <technique sid="COMMON">
                    <lambert>
                        <emission>
                            <color>0.0 0.0 0.0 1.0</color>
                        </emission>
                        <diffuse>
                            <color>1.0 0.2 0.2 1.0</color>
                        </diffuse>
                        <reflective>
                            <color>1.0 1.0 1.0 1.0</color>
                        </reflective>
                        <reflectivity>
                            <float>0.2</float>
                        </reflectivity>
                        <transparent opaque="A_ONE">
                            <color>1.0 1.0 1.0 1.0</color>
                        </transparent>
                        <transparency>
                            <float>1.0</float>
                        </transparency>
                    </lambert>
                </technique>
                <extra>
                    <technique profile="GOOGLEEARTH">
                        <double_sided>0</double_sided>
                    </technique>
                </extra>
            </profile_COMMON>
        </effect>
    </library_effects>
    <library_geometries>
        <geometry id="geometry0">
            <mesh>
                <source id="geometry0-position">
                    <float_array id="geometry0-position-array" count="294">0.0 0.0 69.271 1.139 1.126 70.381 -0.833 3.123 70.381 -1.97 2.0 69.274 2.508 2.478 69.271 0.0 0.0 0.0 2.508 2.478 0.0 2.508 2.478 60.082 0.53 4.47 69.271 0.53 4.47 0.0 -1.97 2.0 0.0 0.532 4.472 69.346 0.53 4.47 69.348 2.508 2.478 69.344 0.532 4.472 69.271 0.532 4.472 0.0 0.532 4.472 60.082 26.78 11.54 62.865 21.74 6.54 62.865 21.74 6.54 0.0 26.78 11.54 0.0 19.064 9.258 62.865 19.064 9.258 60.082 19.064 9.258 0.0 20.63 10.81 62.865 24.1 14.25 62.865 24.1 14.25 0.0 20.63 10.81 0.0 20.63 10.81 60.082 11.64 26.85 60.082 22.97 15.45 60.082 22.97 15.45 0.0 11.64 26.85 0.0 6.17 -1.22 60.082 2.51 2.48 60.082 2.51 2.48 0.0 6.17 -1.22 0.0 6.32 32.26 60.082 9.77 28.76 60.082 9.77 28.76 0.0 6.32 32.26 0.0 11.66 26.869 60.082 11.66 26.869 0.0 -5.54 20.53 0.0 -4.6 21.47 0.0 4.579 30.531 0.0 9.778 28.768 0.0 19.47 11.97 0.0 17.91 10.43 0.0 -10.47 15.58 0.0 -6.98 19.02 0.0 -6.993 19.034 0.0 -8.14 20.2 0.0 -6.666 21.662 0.0 17.91 10.43 60.082 9.778 28.768 60.082 0.53 4.47 60.082 -10.47 15.58 60.082 -6.666 21.662 60.082 -8.14 20.2 60.082 -6.993 19.034 60.082 -6.98 19.02 60.082 19.47 11.97 60.082 4.579 30.531 60.082 -4.6 21.47 60.082 -5.54 20.53 60.082 -11.62 16.75 62.718 -14.3 19.46 63.151 -14.3 19.46 0.0 -11.62 16.75 0.0 -8.14 20.2 62.718 -9.4 24.41 63.159 -9.4 24.41 0.0 -6.666 21.662 62.718 9.778 28.768 66.768 10.855 29.825 67.058 10.855 29.825 0.0 10.87 29.84 0.0 8.11 32.63 0.0 8.599 33.111 0.0 11.03 35.46 0.0 11.439 35.866 0.0 14.84 39.24 0.0 19.84 34.2 0.0 16.422 30.808 0.0 13.11 27.52 0.0 12.73 27.9 0.0 19.84 34.2 67.025 16.422 30.808 67.952 14.84 39.24 67.029 10.87 29.84 67.062 11.439 35.866 67.952 13.11 27.52 67.056 12.73 27.9 67.055 8.599 33.111 67.192 11.03 35.46 67.841 8.11 32.63 67.06 11.66 26.869 66.77</float_array>
                    <technique_common>
                        <accessor count="98" source="#geometry0-position-array" stride="3">
                            <param name="X" type="float"/>
                            <param name="Y" type="float"/>
                            <param name="Z" type="float"/>
                        </accessor>
                    </technique_common>
                </source>
                <source id="geometry0-normal">
                    <float_array id="geometry0-normal-array" count="1056">0.7071068 -0.7071068 0.0 0.7071068 -0.7071068 0.0 0.7071068 -0.7071068 0.0 0.7071068 -0.7071068 0.0 0.3842762 0.3356955 0.8600235 0.3374371 0.3335086 0.8802887 0.4072909 0.3365153 0.8490416 0.407387 0.3364624 0.8490164 0.3376348 0.333408 0.880251 -0.7106159 -0.7035801 0.0 -0.7106159 -0.7035801 0.0 -0.7106159 -0.7035801 0.0 -0.7106159 -0.7035801 0.0 -0.7102789 -0.7039204 0.0 -0.7102789 -0.7039204 0.0 -0.7102789 -0.7039204 0.0 -0.7102789 -0.7039204 0.0 -0.6948741 0.7191314 0.0 -0.6948741 0.7191314 0.0 -0.6948741 0.7191314 0.0 -0.6948741 0.7191314 0.0 0.7089102 0.7052988 0.0 0.7089102 0.7052987 0.0 0.7089102 0.7052988 0.0 0.7089102 0.7052988 0.0 0.7089102 0.7052988 0.0 0.0 0.0 -1.0 0.0 0.0 -1.0 0.0 0.0 -1.0 0.0 0.0 -1.0 0.0 0.0 -1.0 0.7103056 0.7038935 0.0 0.7103056 0.7038935 0.0 0.7103056 0.7038935 0.0 0.7103056 0.7038935 0.0 -0.7109393 -0.7032534 0.0 -0.7109393 -0.7032534 0.0 -0.7109393 -0.7032534 0.0 -0.7109393 -0.7032534 0.0 -0.7128913 -0.7012746 0.0 -0.7128913 -0.7012746 0.0 -0.7128913 -0.7012746 0.0 -0.7128913 -0.7012746 0.0 0.7071595 -0.7070541 0.0 0.7071595 -0.7070541 0.0 0.7071595 -0.7070541 0.0 0.7071595 -0.7070541 0.0 0.7042107 -0.709991 0.0 0.7042107 -0.709991 0.0 0.7042107 -0.709991 0.0 0.7042107 -0.709991 0.0 0.7045307 -0.7096735 0.0 0.7045307 -0.7096735 0.0 0.7045307 -0.7096735 0.0 0.7045307 -0.7096735 0.0 0.0 0.0 -1.0 0.0 0.0 -1.0 0.0 0.0 -1.0 0.0 0.0 -1.0 0.0 0.0 -1.0 0.7121752 0.7020018 0.0 0.7121752 0.7020018 0.0 0.7121752 0.7020018 0.0 0.7121752 0.7020018 0.0 0.7110314 0.7031603 0.0 0.7110314 0.7031603 0.0 0.7110314 0.7031603 0.0 0.7110314 0.7031603 0.0 -0.7004495 0.7137021 0.0 -0.7004494 0.713702 0.0 -0.7004494 0.713702 0.0 -0.7004495 0.713702 0.0 -0.7004494 0.713702 0.0 0.0794899 -0.0802051 0.9936038 0.0794735 -0.0801646 0.9936084 0.079471 -0.0801427 0.9936104 0.0794981 -0.0802254 0.9936016 0.0795276 -0.08033 0.9935907 -0.7327917 -0.6804531 0.0 -0.7327917 -0.6804531 0.0 -0.7327917 -0.6804531 0.0 -0.7327917 -0.6804531 0.0 0.0 0.0 1.0 0.0 0.0 1.0 0.0 0.0 1.0 0.0 0.0 1.0 0.0 0.0 1.0 0.6887413 -0.7250072 0.0 0.6887413 -0.7250072 0.0 0.6887413 -0.7250072 0.0 0.6887413 -0.7250072 0.0 0.7103056 0.7038934 0.0 0.7103056 0.7038934 0.0 0.7103056 0.7038934 0.0 0.7103056 0.7038935 0.0 0.7039248 -0.7102745 0.0 0.7039248 -0.7102745 0.0 0.7039248 -0.7102745 0.0 0.7039248 -0.7102745 0.0 0.7071068 0.7071068 0.0 0.7071068 0.7071068 0.0 0.7071068 0.7071068 0.0 0.7071068 0.7071068 0.0 -0.1351583 -0.1328584 0.9818763 -0.1343153 -0.1323237 0.9820641 -0.134665 -0.1323877 0.9820076 -0.134684 -0.1323706 0.9820073 -0.1350496 -0.1328523 0.981892 -0.1343587 -0.1322253 0.9820715 -0.1343727 -0.1322735 0.9820631 -0.1343201 -0.1320838 0.9820957 -0.1331646 -0.1312358 0.9823667 -0.1335997 -0.1315865 0.9822607 -0.1347014 -0.1325494 0.9819807 0.7102789 0.7039204 0.0 0.7102789 0.7039204 0.0 0.7102789 0.7039204 0.0 0.7102789 0.7039204 0.0 -0.7039248 0.7102746 0.0 -0.7039248 0.7102746 0.0 -0.7039248 0.7102746 0.0 -0.7039248 0.7102746 0.0 0.0 0.0 1.0 0.0 0.0 1.0 0.0 0.0 1.0 0.0 0.0 1.0 0.0 0.0 1.0 0.0 0.0 1.0 0.0 0.0 1.0 0.0 0.0 1.0 0.0 0.0 1.0 0.0 0.0 1.0 0.0 0.0 1.0 0.0 0.0 1.0 0.0 0.0 1.0 0.0 0.0 1.0 0.0 0.0 1.0 0.0 0.0 1.0 0.0 0.0 1.0 0.0 0.0 1.0 0.0 0.0 1.0 0.0 0.0 1.0 0.0 0.0 1.0 0.0 0.0 1.0 0.0 0.0 1.0 -0.7124298 -0.7017434 0.0 -0.7124298 -0.7017434 0.0 -0.7124298 -0.7017434 0.0 -0.7124298 -0.7017434 0.0 -0.7103056 -0.7038934 0.0 -0.7103056 -0.7038934 0.0 -0.7103056 -0.7038934 0.0 -0.7103056 -0.7038934 0.0 -0.7042107 0.709991 0.0 -0.7042107 0.709991 0.0 -0.7042107 0.709991 0.0 -0.7042107 0.709991 0.0 0.7042107 -0.7099911 0.0 0.7042107 -0.7099911 0.0 0.7042107 -0.7099911 0.0 0.7042107 -0.7099911 0.0 0.0 0.0 -1.0 0.0 0.0 -1.0 0.0 0.0 -1.0 0.0 0.0 -1.0 0.0 0.0 -1.0 0.0 0.0 -1.0 0.0 0.0 -1.0 0.0 0.0 -1.0 0.0 0.0 -1.0 0.0 0.0 -1.0 0.0 0.0 -1.0 0.0 0.0 -1.0 0.0 0.0 -1.0 0.0 0.0 -1.0 0.0 0.0 -1.0 0.0 0.0 -1.0 0.0 0.0 -1.0 0.0 0.0 -1.0 0.0 0.0 -1.0 0.0 0.0 -1.0 0.0 0.0 -1.0 0.0 0.0 -1.0 0.0 0.0 -1.0 0.6938617 -0.7201083 0.0 0.6938617 -0.7201084 0.0 0.6938617 -0.7201083 0.0 0.6938617 -0.7201083 0.0 0.6938617 -0.7201083 0.0 -0.7019867 0.71219 0.0 -0.7019867 0.71219 0.0 -0.7019867 0.71219 0.0 -0.7019867 0.71219 0.0 0.7027574 -0.7114296 2.001E-4 0.7026753 -0.7115107 0.0 0.7027574 -0.7114296 2.001E-4 0.7028395 -0.7113484 4.001E-4 0.0 0.0 -1.0 0.0 0.0 -1.0 0.0 0.0 -1.0 0.0 0.0 -1.0 0.0 0.0 -1.0 0.0 0.0 -1.0 0.0 0.0 -1.0 0.0 0.0 -1.0 0.0 0.0 -1.0 0.0 0.0 -1.0 0.0 0.0 -1.0 0.0 0.0 -1.0 0.0 0.0 -1.0 -0.7025176 0.7116663 0.0 -0.7025176 0.7116663 0.0 -0.7025176 0.7116663 0.0 -0.7025176 0.7116663 0.0 -0.7039248 0.7102745 0.0 -0.7039248 0.7102745 0.0 -0.7039248 0.7102745 0.0 -0.7039248 0.7102745 0.0 -0.7071595 0.7070541 0.0 -0.7071595 0.7070541 0.0 -0.7071595 0.7070541 0.0 -0.7071595 0.7070541 0.0 0.1346805 0.1327578 0.9819555 0.1345894 0.1327423 0.9819701 0.1346805 0.1327578 0.9819555 0.1347716 0.1327733 0.9819409 -0.7110313 -0.7031604 0.0 -0.7110313 -0.7031604 0.0 -0.7110313 -0.7031604 0.0 -0.7110313 -0.7031604 0.0 0.7089832 0.7052253 0.0 0.7089832 0.7052253 0.0 0.7089832 0.7052253 0.0 0.7089832 0.7052253 0.0 0.7103056 0.7038934 0.0 0.7103056 0.7038934 0.0 0.7103056 0.7038934 0.0 0.7103056 0.7038934 0.0 0.7040392 -0.7101611 0.0 0.7040392 -0.7101611 0.0 0.7040392 -0.7101611 0.0 0.7040392 -0.7101611 0.0 0.7040392 -0.7101611 0.0 0.0 0.0 -1.0 0.0 0.0 -1.0 0.0 0.0 -1.0 0.0 0.0 -1.0 0.0 0.0 -1.0 -0.7109187 -0.7032743 0.0 -0.7109187 -0.7032742 0.0 -0.7109187 -0.7032743 0.0 -0.7109187 -0.7032743 0.0 -0.7046568 0.7095483 0.0 -0.7046568 0.7095483 0.0 -0.7046568 0.7095483 0.0 -0.7046568 0.7095483 0.0 -0.7071595 0.7070541 0.0 -0.7071595 0.7070541 0.0 -0.7071595 0.7070541 0.0 -0.7071595 0.7070541 0.0 -0.7071595 0.7070541 0.0 -0.710687 0.7035083 0.0 -0.710687 0.7035083 0.0 -0.710687 0.7035083 0.0 -0.710687 0.7035083 0.0 -0.7125577 -0.7016135 0.0 -0.7125577 -0.7016135 0.0 -0.7125577 -0.7016135 0.0 -0.7125577 -0.7016135 0.0 0.7044021 -0.7098012 0.0 0.704402 -0.7098012 0.0 0.7044021 -0.7098012 0.0 0.7044021 -0.7098012 0.0 -0.7102789 -0.7039204 0.0 -0.7102789 -0.7039204 0.0 -0.7102789 -0.7039204 0.0 -0.7102789 -0.7039204 0.0 0.704284 -0.7099184 0.0 0.704284 -0.7099184 0.0 0.704284 -0.7099184 0.0 0.704284 -0.7099184 0.0 0.7092811 0.7049258 0.0 0.7092811 0.7049258 0.0 0.7092811 0.7049258 0.0 0.7092811 0.7049258 0.0 -0.7045006 0.7097034 0.0 -0.7045006 0.7097034 0.0 -0.7045006 0.7097034 0.0 -0.7045006 0.7097034 0.0 0.7099184 0.704284 0.0 0.7099184 0.704284 0.0 0.7099184 0.704284 0.0 0.7099184 0.704284 0.0 0.7050778 -0.70913 0.0 0.7050778 -0.70913 0.0 0.7050778 -0.70913 0.0 0.7050778 -0.70913 0.0 -0.4051849 -0.4002262 0.8219758 -0.4053099 -0.4002359 0.8219094 -0.4051849 -0.4002262 0.8219758 -0.4050599 -0.4002164 0.8220421 -0.7070843 0.7071292 0.0 -0.7070843 0.7071292 0.0 -0.7070843 0.7071292 0.0 -0.7070843 0.7071292 0.0 0.7043808 -0.7098223 0.0 0.7043808 -0.7098223 0.0 0.7043808 -0.7098223 0.0 0.7043808 -0.7098223 0.0 -0.712591 -0.7015797 0.0 -0.712591 -0.7015797 0.0 -0.712591 -0.7015797 0.0 -0.712591 -0.7015797 0.0 -0.712591 -0.7015797 0.0 0.7028396 -0.7113485 0.0 0.7028395 -0.7113484 0.0 0.7028396 -0.7113485 0.0 0.7028396 -0.7113485 0.0 0.7028396 -0.7113485 0.0 -0.7071062 0.7071073 0.0 -0.7071062 0.7071073 0.0 -0.7071062 0.7071073 0.0 -0.7071062 0.7071073 0.0 -0.7042833 0.7099191 0.0 -0.7042833 0.7099191 0.0 -0.7042833 0.7099191 0.0 -0.7042833 0.7099191 0.0 -0.7071059 -0.7071077 0.0 -0.7071059 -0.7071077 0.0 -0.7071059 -0.7071077 0.0 -0.7071059 -0.7071077 0.0 -0.7028257 0.7113621 0.0 -0.7028257 0.7113621 0.0 -0.7028257 0.7113621 0.0 -0.7028257 0.7113621 0.0 -0.7012501 0.7129153 0.0 -0.7012501 0.7129153 0.0 -0.7012501 0.7129153 0.0 -0.7012501 0.7129153 0.0 -0.7071068 0.7071068 0.0 -0.7071068 0.7071068 0.0 -0.7071068 0.7071068 0.0 -0.7071068 0.7071068 0.0 -0.70403 0.7101702 0.0 -0.70403 0.7101702 0.0 -0.70403 0.7101702 0.0 -0.70403 0.7101702 0.0 -0.70403 0.7101701 0.0 -0.7028275 0.7113603 1.18E-4 -0.7028292 0.7113586 2.36E-4 -0.7028275 0.7113603 1.18E-4 -0.7028257 0.7113621 0.0</float_array>
                    <technique_common>
                        <accessor count="352" source="#geometry0-normal-array" stride="3">
                            <param name="X" type="float"/>
                            <param name="Y" type="float"/>
                            <param name="Z" type="float"/>
                        </accessor>
                    </technique_common>
                </source>
                <vertices id="geometry0-vertex">
                    <input semantic="POSITION" source="#geometry0-position"/>
                </vertices>
                <triangles count="167" material="default_ai_0.2_sh_0.2_tr_0.0_dc_r_0.8_g_0.8_b_0.8_sc_r_1.0_g_1.0_b_1.0_ec_r_0.0_g_0.0_b_0_tri">
                    <input offset="0" semantic="VERTEX" source="#geometry0-vertex"/>
                    <input offset="1" semantic="NORMAL" source="#geometry0-normal"/>
                    <p>34 0 7 1 6 2 34 0 6 2 35 3 56 9 57 10 49 11 56 9 49 11 9 12 74 13 55 14 41 15 74 13 41 15 97 16 94 17 95 18 80 19 94 17 80 19 79 20 53 21 72 22 71 23 58 24 53 21 71 23 58 24 71 23 73 25 19 26 23 27 27 28 19 26 27 28 26 29 19 26 26 29 20 30 7 31 16 32 14 33 7 31 14 33 4 34 33 35 34 36 35 37 33 35 35 37 36 38 60 39 59 40 52 41 60 39 52 41 51 42 16 43 56 44 9 45 16 43 9 45 15 46 59 47 52 48 53 49 59 47 53 49 58 50 88 51 92 52 85 53 88 51 85 53 84 54 53 55 52 56 69 57 53 55 69 57 68 58 53 55 68 58 72 59 37 60 38 61 39 62 37 60 39 62 40 63 25 64 17 65 20 66 25 64 20 66 26 67 76 68 46 69 55 70 76 68 55 70 74 71 76 68 74 71 75 72 61 78 60 79 51 80 61 78 51 80 50 81 41 87 29 88 32 89 41 87 32 89 42 90 14 91 11 92 13 93 14 91 13 93 4 94 23 95 27 96 28 97 23 95 28 97 22 98 62 99 28 100 27 101 62 99 27 101 47 102 42 114 46 115 55 116 42 114 55 116 41 117 28 118 22 119 21 120 28 118 21 120 24 121 0 145 3 146 10 147 0 145 10 147 5 148 15 149 6 150 7 151 15 149 7 151 16 152 53 153 52 154 59 155 53 153 59 155 58 156 59 157 58 158 73 159 59 157 73 159 70 160 44 161 45 162 43 163 40 164 39 165 45 162 45 162 39 165 43 163 46 166 42 167 39 165 39 165 42 167 43 163 42 167 32 168 43 163 32 168 31 169 43 163 31 169 47 170 43 163 47 170 27 171 43 163 23 172 48 173 27 171 27 171 48 173 43 163 48 173 36 174 43 163 43 163 36 174 53 175 36 174 35 176 53 175 35 176 6 177 53 175 6 177 15 178 53 175 15 178 9 179 53 175 49 180 50 181 9 179 9 179 50 181 53 175 50 181 51 182 53 175 53 175 51 182 52 183 42 184 86 185 93 186 41 187 42 184 93 186 41 187 93 186 97 188 57 189 61 190 50 191 57 189 50 191 49 192 4 193 13 194 1 195 4 193 1 195 0 196 84 197 85 198 86 199 83 200 84 197 86 199 82 201 83 200 86 199 82 201 86 199 42 202 81 203 82 201 42 202 80 204 81 203 42 202 78 205 79 206 80 204 77 207 78 205 80 204 77 207 80 204 42 202 76 208 77 207 42 202 76 208 42 202 46 209 64 210 63 211 45 212 64 210 45 212 44 213 28 214 27 215 23 216 28 214 23 216 22 217 8 218 12 219 11 220 8 218 11 220 14 221 66 226 67 227 68 228 66 226 68 228 69 229 58 230 65 231 43 232 58 230 43 232 53 233 7 234 6 235 15 236 7 234 15 236 16 237 69 238 52 239 59 240 69 238 59 240 70 241 69 238 70 241 66 242 6 243 5 244 10 245 6 243 10 245 9 246 6 243 9 246 15 247 90 248 96 249 78 250 90 248 78 250 77 251 63 252 37 253 40 254 63 252 40 254 45 255 15 256 9 257 8 258 16 259 15 256 8 258 16 259 8 258 14 260 67 261 71 262 72 263 67 261 72 263 68 264 22 265 54 266 48 267 22 265 48 267 23 268 87 269 88 270 84 271 87 269 84 271 83 272 55 273 46 274 42 275 55 273 42 275 41 276 17 277 18 278 19 279 17 277 19 279 20 280 29 281 30 282 31 283 29 281 31 283 32 284 95 285 91 286 81 287 95 285 81 287 80 288 89 289 87 290 83 291 89 289 83 291 82 292 30 293 62 294 47 295 30 293 47 295 31 296 75 301 90 302 77 303 75 301 77 303 76 304 54 305 33 306 36 307 54 305 36 307 48 308 23 309 19 310 18 311 22 312 23 309 18 311 22 312 18 311 21 313 5 314 6 315 7 316 5 314 7 316 4 317 5 314 4 317 0 318 65 319 64 320 44 321 65 319 44 321 43 322 91 323 89 324 82 325 91 323 82 325 81 326 92 327 93 328 86 329 92 327 86 329 85 330 3 331 8 332 9 333 3 331 9 333 10 334 96 335 94 336 79 337 96 335 79 337 78 338 38 339 55 340 46 341 38 339 46 341 39 342 26 343 27 344 28 345 26 343 28 345 24 346 26 343 24 346 25 347 3 348 2 349 12 350 3 348 12 350 8 351</p>
                </triangles>
                <triangles count="43" material="default_ai_0.2_sh_0.2_tr_0.0_dc_r_1.0_g_0.2_b_0.2_sc_r_1.0_g_1.0_b_1.0_ec_r_0.0_g_0.0_b_0_tri">
                    <input offset="0" semantic="VERTEX" source="#geometry0-vertex"/>
                    <input offset="1" semantic="NORMAL" source="#geometry0-normal"/>
                    <p>1 4 13 5 11 6 1 4 11 6 12 7 1 4 12 7 2 8 67 73 66 74 70 75 67 73 70 75 73 76 67 73 73 76 71 77 21 82 18 83 24 84 24 84 18 83 25 85 25 85 18 83 17 86 92 103 88 104 91 105 92 103 91 105 95 106 92 103 95 106 94 107 93 108 92 103 94 107 74 109 97 110 93 108 75 111 74 109 93 108 90 112 75 111 93 108 90 112 93 108 94 107 90 112 94 107 96 113 63 122 64 123 65 124 38 125 37 126 63 122 38 125 63 122 65 124 41 127 55 128 38 125 41 127 38 125 65 124 29 129 41 127 65 124 30 130 29 129 65 124 62 131 30 130 65 124 28 132 62 131 65 124 54 133 22 134 28 132 54 133 28 132 65 124 33 135 54 133 65 124 33 135 65 124 58 136 34 137 33 135 58 136 7 138 34 137 58 136 16 139 7 138 58 136 56 140 16 139 58 136 61 141 57 142 56 140 61 141 56 140 58 136 60 143 61 141 58 136 60 143 58 136 59 144 88 222 87 223 89 224 88 222 89 224 91 225 0 297 1 298 2 299 0 297 2 299 3 300</p>
                </triangles>
            </mesh>
        </geometry>
    </library_geometries>
    <library_visual_scenes>
        <visual_scene id="Building_DEBW_5221000QoRg">
            <node>
                <instance_geometry url="#geometry0">
                    <bind_material>
                        <technique_common>
                            <instance_material symbol="default_ai_0.2_sh_0.2_tr_0.0_dc_r_0.8_g_0.8_b_0.8_sc_r_1.0_g_1.0_b_1.0_ec_r_0.0_g_0.0_b_0_tri" target="#default_ai_0.2_sh_0.2_tr_0.0_dc_r_0.8_g_0.8_b_0.8_sc_r_1.0_g_1.0_b_1.0_ec_r_0.0_g_0.0_b_0_mat"/>
                            <instance_material symbol="default_ai_0.2_sh_0.2_tr_0.0_dc_r_1.0_g_0.2_b_0.2_sc_r_1.0_g_1.0_b_1.0_ec_r_0.0_g_0.0_b_0_tri" target="#default_ai_0.2_sh_0.2_tr_0.0_dc_r_1.0_g_0.2_b_0.2_sc_r_1.0_g_1.0_b_1.0_ec_r_0.0_g_0.0_b_0_mat"/>
                        </technique_common>
                    </bind_material>
                </instance_geometry>
            </node>
        </visual_scene>
    </library_visual_scenes>
    <scene>
        <instance_visual_scene url="#Building_DEBW_5221000QoRg"/>
    </scene>
</COLLADA>
