<?xml version="1.0" encoding="UTF-8" standalone="yes"?>
<COLLADA xmlns="http://www.collada.org/2005/11/COLLADASchema" version="1.4.1">
    <asset>
        <contributor>
            <authoring_tool>3D City Database Importer/Exporter, version 5.5.3; Chair of Geoinformatics, Technical University of Munich</authoring_tool>
        </contributor>
        <created>2026-05-06T15:12:17.140</created>
        <modified>2026-05-06T15:12:17.140</modified>
        <unit meter="1.0" name="meters"/>
        <up_axis>Z_UP</up_axis>
    </asset>
    <library_materials>
        <material id="default_ai_0.2_sh_0.2_tr_0.0_dc_r_0.8_g_0.8_b_0.8_sc_r_1.0_g_1.0_b_1.0_ec_r_0.0_g_0.0_b_0_mat">
            <instance_effect url="#default_ai_0.2_sh_0.2_tr_0.0_dc_r_0.8_g_0.8_b_0.8_sc_r_1.0_g_1.0_b_1.0_ec_r_0.0_g_0.0_b_0_eff"/>
        </material>
        <material id="default_ai_0.2_sh_0.2_tr_0.0_dc_r_1.0_g_0.2_b_0.2_sc_r_1.0_g_1.0_b_1.0_ec_r_0.0_g_0.0_b_0_mat">
            <instance_effect url="#default_ai_0.2_sh_0.2_tr_0.0_dc_r_1.0_g_0.2_b_0.2_sc_r_1.0_g_1.0_b_1.0_ec_r_0.0_g_0.0_b_0_eff"/>
        </material>
    </library_materials>
    <library_effects>
        <effect id="default_ai_0.2_sh_0.2_tr_0.0_dc_r_0.8_g_0.8_b_0.8_sc_r_1.0_g_1.0_b_1.0_ec_r_0.0_g_0.0_b_0_eff">
            <profile_COMMON>
                <technique sid="COMMON">
                    <lambert>
                        <emission>
                            <color>0.0 0.0 0.0 1.0</color>
                        </emission>
                        <diffuse>
                            <color>0.8 0.8 0.8 1.0</color>
                        </diffuse>
                        <reflective>
                            <color>1.0 1.0 1.0 1.0</color>
                        </reflective>
                        <reflectivity>
                            <float>0.2</float>
                        </reflectivity>
                        <transparent opaque="A_ONE">
                            <color>1.0 1.0 1.0 1.0</color>
                        </transparent>
                        <transparency>
                            <float>1.0</float>
                        </transparency>
                    </lambert>
                </technique>
                <extra>
                    <technique profile="GOOGLEEARTH">
                        <double_sided>0</double_sided>
                    </technique>
                </extra>
            </profile_COMMON>
        </effect>
        <effect id="default_ai_0.2_sh_0.2_tr_0.0_dc_r_1.0_g_0.2_b_0.2_sc_r_1.0_g_1.0_b_1.0_ec_r_0.0_g_0.0_b_0_eff">
            <profile_COMMON>
                <technique sid="COMMON">
                    <lambert>
                        <emission>
                            <color>0.0 0.0 0.0 1.0</color>
                        </emission>
                        <diffuse>
                            <color>1.0 0.2 0.2 1.0</color>
                        </diffuse>
                        <reflective>
                            <color>1.0 1.0 1.0 1.0</color>
                        </reflective>
                        <reflectivity>
                            <float>0.2</float>
                        </reflectivity>
                        <transparent opaque="A_ONE">
                            <color>1.0 1.0 1.0 1.0</color>
                        </transparent>
                        <transparency>
                            <float>1.0</float>
                        </transparency>
                    </lambert>
                </technique>
                <extra>
                    <technique profile="GOOGLEEARTH">
                        <double_sided>0</double_sided>
                    </technique>
                </extra>
            </profile_COMMON>
        </effect>
    </library_effects>
    <library_geometries>
        <geometry id="geometry0">
            <mesh>
                <source id="geometry0-position">
                    <float_array id="geometry0-position-array" count="60">-1.33 -0.38 8.479 0.0 0.0 9.525 0.0 0.0 0.0 -1.33 -0.38 0.0 2.87 -10.18 9.51 2.45 -8.7 9.51 2.45 -8.7 0.0 2.87 -10.18 0.0 3.884 1.098 12.58 3.884 1.098 0.0 0.86 -3.13 9.504 0.86 -3.13 0.0 -0.45 -3.48 0.0 7.75 2.19 0.0 10.65 -7.95 0.0 6.769 -9.062 0.0 6.769 -9.062 12.58 10.65 -7.95 9.447 -0.45 -3.48 8.478 7.75 2.19 9.463</float_array>
                    <technique_common>
                        <accessor count="20" source="#geometry0-position-array" stride="3">
                            <param name="X" type="float"/>
                            <param name="Y" type="float"/>
                            <param name="Z" type="float"/>
                        </accessor>
                    </technique_common>
                </source>
                <source id="geometry0-normal">
                    <float_array id="geometry0-normal-array" count="186">-0.961589 -0.2744931 0.0 -0.961589 -0.2744931 0.0 -0.961589 -0.2744931 0.0 -0.961589 -0.2744931 0.0 -0.2718267 0.9623462 0.0 -0.2718267 0.9623462 0.0 -0.2718267 0.9623462 0.0 -0.2718267 0.9623462 0.0 -0.962013 -0.2730035 0.0 -0.962013 -0.2730035 0.0 -0.962013 -0.2730035 0.0 -0.962013 -0.2730035 0.0 -0.5911046 -0.1678113 0.7889454 -0.5805549 -0.1648525 0.797358 -0.5805589 -0.1648513 0.7973552 -0.5883673 -0.1670502 0.7911498 -0.5962806 -0.169271 0.7847273 -0.5803692 -0.1648782 0.7974877 -0.5803308 -0.1649004 0.7975111 -0.5804409 -0.1650277 0.7974047 -0.2747211 0.961524 0.0 -0.2747211 0.961524 0.0 -0.2747211 0.961524 0.0 -0.2747211 0.961524 0.0 0.0 0.0 -1.0 0.0 0.0 -1.0 0.0 0.0 -1.0 0.0 0.0 -1.0 0.0 0.0 -1.0 0.0 0.0 -1.0 0.0 0.0 -1.0 0.0 0.0 -1.0 0.0 0.0 -1.0 0.0 0.0 -1.0 0.2754409 -0.961318 0.0 0.2754409 -0.961318 0.0 0.2754409 -0.961318 0.0 0.2754409 -0.961318 0.0 0.5897422 0.1674393 0.7900432 0.5897813 0.1674285 0.7900162 0.5897422 0.1674393 0.7900432 0.5897031 0.1674501 0.79007 -0.2720368 0.9622868 0.0 -0.2720368 0.9622868 0.0 -0.2720368 0.9622868 0.0 -0.2720368 0.9622868 0.0 -0.961991 -0.2730814 0.0 -0.961991 -0.2730813 0.0 -0.961991 -0.2730814 0.0 -0.961991 -0.2730813 0.0 0.2756327 -0.961263 0.0 0.2756327 -0.961263 0.0 0.2756327 -0.961263 0.0 0.2756327 -0.961263 0.0 0.9614524 0.2749715 0.0 0.9614524 0.2749715 0.0 0.9614524 0.2749715 0.0 0.9614524 0.2749715 0.0 0.2581216 -0.9661124 0.0 0.2581216 -0.9661124 0.0 0.2581216 -0.9661124 0.0 0.2581216 -0.9661124 0.0</float_array>
                    <technique_common>
                        <accessor count="62" source="#geometry0-normal-array" stride="3">
                            <param name="X" type="float"/>
                            <param name="Y" type="float"/>
                            <param name="Z" type="float"/>
                        </accessor>
                    </technique_common>
                </source>
                <vertices id="geometry0-vertex">
                    <input semantic="POSITION" source="#geometry0-position"/>
                </vertices>
                <triangles count="28" material="default_ai_0.2_sh_0.2_tr_0.0_dc_r_0.8_g_0.8_b_0.8_sc_r_1.0_g_1.0_b_1.0_ec_r_0.0_g_0.0_b_0_tri">
                    <input offset="0" semantic="VERTEX" source="#geometry0-vertex"/>
                    <input offset="1" semantic="NORMAL" source="#geometry0-normal"/>
                    <p>5 0 10 1 11 2 5 0 11 2 6 3 8 4 19 5 13 6 8 4 13 6 9 7 4 8 5 9 6 10 4 8 6 10 7 11 0 20 1 21 2 22 0 20 2 22 3 23 12 24 3 25 11 26 3 25 2 27 11 26 11 26 2 27 6 28 6 28 2 27 7 29 7 29 2 27 15 30 15 30 2 27 14 31 14 31 2 27 13 32 13 32 2 27 9 33 17 34 16 35 15 36 17 34 15 36 14 37 1 42 8 43 9 44 1 42 9 44 2 45 18 46 0 47 3 48 18 46 3 48 12 49 16 50 4 51 7 52 16 50 7 52 15 53 19 54 17 55 14 56 19 54 14 56 13 57 10 58 18 59 12 60 10 58 12 60 11 61</p>
                </triangles>
                <triangles count="8" material="default_ai_0.2_sh_0.2_tr_0.0_dc_r_1.0_g_0.2_b_0.2_sc_r_1.0_g_1.0_b_1.0_ec_r_0.0_g_0.0_b_0_tri">
                    <input offset="0" semantic="VERTEX" source="#geometry0-vertex"/>
                    <input offset="1" semantic="NORMAL" source="#geometry0-normal"/>
                    <p>4 12 16 13 8 14 4 12 8 14 1 15 5 16 4 12 1 15 10 17 5 16 1 15 10 17 1 15 0 18 10 17 0 18 18 19 16 38 17 39 19 40 16 38 19 40 8 41</p>
                </triangles>
            </mesh>
        </geometry>
    </library_geometries>
    <library_visual_scenes>
        <visual_scene id="Building_DEBW_5221000QztS">
            <node>
                <instance_geometry url="#geometry0">
                    <bind_material>
                        <technique_common>
                            <instance_material symbol="default_ai_0.2_sh_0.2_tr_0.0_dc_r_0.8_g_0.8_b_0.8_sc_r_1.0_g_1.0_b_1.0_ec_r_0.0_g_0.0_b_0_tri" target="#default_ai_0.2_sh_0.2_tr_0.0_dc_r_0.8_g_0.8_b_0.8_sc_r_1.0_g_1.0_b_1.0_ec_r_0.0_g_0.0_b_0_mat"/>
                            <instance_material symbol="default_ai_0.2_sh_0.2_tr_0.0_dc_r_1.0_g_0.2_b_0.2_sc_r_1.0_g_1.0_b_1.0_ec_r_0.0_g_0.0_b_0_tri" target="#default_ai_0.2_sh_0.2_tr_0.0_dc_r_1.0_g_0.2_b_0.2_sc_r_1.0_g_1.0_b_1.0_ec_r_0.0_g_0.0_b_0_mat"/>
                        </technique_common>
                    </bind_material>
                </instance_geometry>
            </node>
        </visual_scene>
    </library_visual_scenes>
    <scene>
        <instance_visual_scene url="#Building_DEBW_5221000QztS"/>
    </scene>
</COLLADA>
