<?xml version="1.0" encoding="UTF-8" standalone="yes"?>
<COLLADA xmlns="http://www.collada.org/2005/11/COLLADASchema" version="1.4.1">
    <asset>
        <contributor>
            <authoring_tool>3D City Database Importer/Exporter, version 5.5.3; Chair of Geoinformatics, Technical University of Munich</authoring_tool>
        </contributor>
        <created>2026-05-06T15:12:16.851</created>
        <modified>2026-05-06T15:12:16.851</modified>
        <unit meter="1.0" name="meters"/>
        <up_axis>Z_UP</up_axis>
    </asset>
    <library_materials>
        <material id="default_ai_0.2_sh_0.2_tr_0.0_dc_r_0.8_g_0.8_b_0.8_sc_r_1.0_g_1.0_b_1.0_ec_r_0.0_g_0.0_b_0_mat">
            <instance_effect url="#default_ai_0.2_sh_0.2_tr_0.0_dc_r_0.8_g_0.8_b_0.8_sc_r_1.0_g_1.0_b_1.0_ec_r_0.0_g_0.0_b_0_eff"/>
        </material>
        <material id="default_ai_0.2_sh_0.2_tr_0.0_dc_r_1.0_g_0.2_b_0.2_sc_r_1.0_g_1.0_b_1.0_ec_r_0.0_g_0.0_b_0_mat">
            <instance_effect url="#default_ai_0.2_sh_0.2_tr_0.0_dc_r_1.0_g_0.2_b_0.2_sc_r_1.0_g_1.0_b_1.0_ec_r_0.0_g_0.0_b_0_eff"/>
        </material>
    </library_materials>
    <library_effects>
        <effect id="default_ai_0.2_sh_0.2_tr_0.0_dc_r_0.8_g_0.8_b_0.8_sc_r_1.0_g_1.0_b_1.0_ec_r_0.0_g_0.0_b_0_eff">
            <profile_COMMON>
                <technique sid="COMMON">
                    <lambert>
                        <emission>
                            <color>0.0 0.0 0.0 1.0</color>
                        </emission>
                        <diffuse>
                            <color>0.8 0.8 0.8 1.0</color>
                        </diffuse>
                        <reflective>
                            <color>1.0 1.0 1.0 1.0</color>
                        </reflective>
                        <reflectivity>
                            <float>0.2</float>
                        </reflectivity>
                        <transparent opaque="A_ONE">
                            <color>1.0 1.0 1.0 1.0</color>
                        </transparent>
                        <transparency>
                            <float>1.0</float>
                        </transparency>
                    </lambert>
                </technique>
                <extra>
                    <technique profile="GOOGLEEARTH">
                        <double_sided>0</double_sided>
                    </technique>
                </extra>
            </profile_COMMON>
        </effect>
        <effect id="default_ai_0.2_sh_0.2_tr_0.0_dc_r_1.0_g_0.2_b_0.2_sc_r_1.0_g_1.0_b_1.0_ec_r_0.0_g_0.0_b_0_eff">
            <profile_COMMON>
                <technique sid="COMMON">
                    <lambert>
                        <emission>
                            <color>0.0 0.0 0.0 1.0</color>
                        </emission>
                        <diffuse>
                            <color>1.0 0.2 0.2 1.0</color>
                        </diffuse>
                        <reflective>
                            <color>1.0 1.0 1.0 1.0</color>
                        </reflective>
                        <reflectivity>
                            <float>0.2</float>
                        </reflectivity>
                        <transparent opaque="A_ONE">
                            <color>1.0 1.0 1.0 1.0</color>
                        </transparent>
                        <transparency>
                            <float>1.0</float>
                        </transparency>
                    </lambert>
                </technique>
                <extra>
                    <technique profile="GOOGLEEARTH">
                        <double_sided>0</double_sided>
                    </technique>
                </extra>
            </profile_COMMON>
        </effect>
    </library_effects>
    <library_geometries>
        <geometry id="geometry0">
            <mesh>
                <source id="geometry0-position">
                    <float_array id="geometry0-position-array" count="147">3.12 6.8 8.129 0.0 0.0 8.101 0.0 0.0 0.0 3.12 6.8 0.0 3.12 6.8 5.691 4.988 12.66 8.294 5.657 12.329 8.152 5.657 12.329 5.691 5.657 12.329 0.0 4.988 12.66 0.0 -0.93 0.41 8.294 -0.93 0.41 0.0 3.41 6.66 5.691 3.41 6.66 0.0 7.46 11.44 0.0 4.88 5.97 0.0 7.46 11.44 5.691 4.88 5.97 5.691 -7.82 -2.79 0.0 -8.47 -4.21 0.0 -13.79 -1.45 0.0 -13.157 -0.171 0.0 -13.157 -0.171 8.532 -13.79 -1.45 8.532 -8.47 -4.21 8.847 -7.82 -2.79 8.844 -13.157 -0.171 8.437 -7.82 -2.79 8.437 -7.03 12.077 8.437 -6.97 12.05 8.437 -6.97 12.05 0.0 -7.03 12.077 0.0 -7.03 12.077 8.225 -8.33 9.59 8.437 -3.5 -4.91 8.437 -0.93 0.41 8.437 4.988 12.66 8.437 -4.42 17.3 8.437 -8.284 9.568 8.437 -3.5 -4.91 0.0 -4.42 17.3 0.0 -8.33 9.59 0.0 -8.284 9.568 8.225 -8.284 9.568 0.0 -9.36 13.12 8.225 -9.36 13.12 0.0 -8.33 9.59 8.225 -10.59 10.69 8.225 -10.59 10.69 0.0</float_array>
                    <technique_common>
                        <accessor count="49" source="#geometry0-position-array" stride="3">
                            <param name="X" type="float"/>
                            <param name="Y" type="float"/>
                            <param name="Z" type="float"/>
                        </accessor>
                    </technique_common>
                </source>
                <source id="geometry0-normal">
                    <float_array id="geometry0-normal-array" count="594">0.9088857 -0.4170452 0.0 0.9088858 -0.4170453 0.0 0.9088857 -0.4170452 0.0 0.9088857 -0.4170452 0.0 0.4423261 0.8968543 0.0 0.442326 0.8968543 0.0 0.4423261 0.8968543 0.0 0.4423261 0.8968543 0.0 0.4423261 0.8968543 0.0 0.0 0.0 -1.0 0.0 0.0 -1.0 0.0 0.0 -1.0 0.0 0.0 -1.0 0.0 0.0 -1.0 -0.8962416 0.4435663 0.0 -0.8962416 0.4435662 0.0 -0.8962416 0.4435663 0.0 -0.8962417 0.4435663 0.0 -0.8962417 0.4435663 0.0 0.0 0.0 1.0 0.0 0.0 1.0 0.0 0.0 1.0 0.0 0.0 1.0 0.0 0.0 1.0 0.0 0.0 1.0 0.0 0.0 1.0 0.0 0.0 1.0 0.0 0.0 1.0 0.0 0.0 1.0 -0.4405401 -0.8977329 0.0 -0.4405401 -0.8977329 0.0 -0.4405401 -0.8977329 0.0 -0.4405401 -0.8977329 0.0 0.0 0.0 -1.0 0.0 0.0 -1.0 0.0 0.0 -1.0 0.0 0.0 -1.0 0.0 0.0 -1.0 -0.8944985 0.4470711 0.0 -0.8944985 0.4470711 0.0 -0.8944985 0.4470711 0.0 -0.8944985 0.4470711 0.0 0.0 0.0 -1.0 0.0 0.0 -1.0 0.0 0.0 -1.0 0.0 0.0 -1.0 0.0 0.0 -1.0 -0.8963838 0.4432788 0.0 -0.8963838 0.4432788 0.0 -0.8963838 0.4432788 0.0 -0.8963838 0.4432788 0.0 0.8944985 -0.4470711 0.0 0.8944985 -0.4470711 0.0 0.8944985 -0.4470711 0.0 0.8944985 -0.4470711 0.0 0.4405401 0.8977329 0.0 0.4405401 0.8977329 0.0 0.4405401 0.8977329 0.0 0.4405401 0.8977329 0.0 -0.4314641 -0.9021301 0.0 -0.4314641 -0.9021301 0.0 -0.4314641 -0.9021301 0.0 -0.4314641 -0.9021301 0.0 0.4422325 0.8969004 0.0 0.4422325 0.8969004 0.0 0.4422325 0.8969004 0.0 0.4422325 0.8969004 0.0 -0.8944985 0.4470711 0.0 -0.8944985 0.4470711 0.0 -0.8944985 0.4470711 0.0 -0.8944985 0.4470711 0.0 0.908896 -0.4170228 0.0 0.908896 -0.4170229 0.0 0.908896 -0.4170229 0.0 0.908896 -0.4170228 0.0 0.908896 -0.4170228 0.0 -0.4405514 -0.8977274 0.0 -0.4405514 -0.8977274 0.0 -0.4405514 -0.8977274 0.0 -0.4405514 -0.8977274 0.0 0.0 0.0 1.0 0.0 0.0 1.0 0.0 0.0 1.0 0.0 0.0 1.0 0.0 0.0 1.0 0.9092668 -0.4162137 0.0 0.9092669 -0.4162138 0.0 0.9092668 -0.4162137 0.0 0.9092668 -0.4162137 0.0 0.9092668 -0.4162138 0.0 0.9004374 -0.4349857 0.0 0.9004374 -0.4349857 0.0 0.9004374 -0.4349857 0.0 0.9004374 -0.4349857 0.0 0.9004374 -0.4349858 0.0 0.0 0.0 -1.0 0.0 0.0 -1.0 0.0 0.0 -1.0 0.0 0.0 -1.0 0.0 0.0 -1.0 0.0 0.0 -1.0 0.0 0.0 -1.0 0.0 0.0 -1.0 0.0 0.0 -1.0 0.0 0.0 -1.0 0.4434576 0.8962954 0.0 0.4434576 0.8962954 0.0 0.4434576 0.8962954 0.0 0.4434576 0.8962954 0.0 0.4434576 0.8962954 0.0 -0.4033979 -0.9150246 0.0 -0.4033979 -0.9150246 0.0 -0.4033979 -0.9150246 0.0 -0.4033979 -0.9150246 0.0 0.0 0.0 -1.0 0.0 0.0 -1.0 0.0 0.0 -1.0 0.0 0.0 -1.0 -0.460512 -0.8876535 0.0 -0.460512 -0.8876535 0.0 -0.460512 -0.8876535 0.0 -0.460512 -0.8876535 0.0 0.0 0.0 1.0 0.0 0.0 1.0 0.0 0.0 1.0 0.0 0.0 1.0 0.0 0.0 1.0 0.4314641 0.9021301 0.0 0.4314641 0.9021301 0.0 0.4314641 0.9021301 0.0 0.4314641 0.9021301 0.0 0.4314641 0.9021301 0.0 -0.8995081 0.436904 0.0 -0.8995081 0.436904 0.0 -0.8995081 0.436904 0.0 -0.8995081 0.436904 0.0 0.4085723 0.9127259 0.0 0.4085723 0.9127259 0.0 0.4085723 0.9127259 0.0 0.4085723 0.9127259 0.0 0.9044436 -0.4265932 0.0 0.9044436 -0.4265932 0.0 0.9044436 -0.4265932 0.0 0.9044436 -0.4265932 0.0 -0.4347497 -0.9005513 0.0 -0.4347497 -0.9005513 0.0 -0.4347497 -0.9005513 0.0 -0.4347497 -0.9005513 0.0 0.4405401 0.8977329 0.0 0.4405401 0.8977329 0.0 0.4405401 0.8977329 0.0 0.4405401 0.8977329 0.0 0.4103557 0.9119256 0.0 0.4103556 0.9119256 0.0 0.4103556 0.9119256 0.0 0.4103556 0.9119256 0.0 0.4103557 0.9119256 0.0 -0.9004305 0.4349998 0.0 -0.9004305 0.4349998 0.0 -0.9004305 0.4349998 0.0 -0.9004305 0.4349998 0.0 -0.9088858 0.4170453 0.0 -0.9088858 0.4170453 0.0 -0.9088858 0.4170453 0.0 -0.9088858 0.4170453 0.0 -0.0469372 0.0234148 0.9986234 -0.0470487 0.0232852 0.9986212 -0.0469372 0.0234148 0.9986234 -0.0468257 0.0235443 0.9986255 -0.8922133 0.4516143 0.0 -0.8922133 0.4516143 0.0 -0.8922133 0.4516143 0.0 -0.8922133 0.4516143 0.0 0.9088858 -0.4170453 0.0 0.9088858 -0.4170453 0.0 0.9088858 -0.4170453 0.0 0.9088858 -0.4170453 0.0 -0.4249071 -0.9052369 0.0 -0.4249071 -0.9052369 0.0 -0.4249071 -0.9052369 0.0 -0.4249071 -0.9052369 0.0 0.1683207 -0.0813183 0.9823724 0.1682905 -0.0813015 0.982379 0.1682452 -0.0812691 0.9823894 0.1682225 -0.0812529 0.9823946 0.1680941 -0.0811708 0.9824234 0.9004305 -0.4349998 0.0 0.9004305 -0.4349998 0.0 0.9004305 -0.4349998 0.0 0.9004305 -0.4349998 0.0 0.9004306 -0.4349998 0.0 0.9004306 -0.4349998 0.0 0.9004306 -0.4349998 0.0 0.9004306 -0.4349998 0.0 -0.4376394 -0.8991506 0.0 -0.4376394 -0.8991506 0.0 -0.4376394 -0.8991506 0.0 -0.4376394 -0.8991506 0.0</float_array>
                    <technique_common>
                        <accessor count="198" source="#geometry0-normal-array" stride="3">
                            <param name="X" type="float"/>
                            <param name="Y" type="float"/>
                            <param name="Z" type="float"/>
                        </accessor>
                    </technique_common>
                </source>
                <vertices id="geometry0-vertex">
                    <input semantic="POSITION" source="#geometry0-position"/>
                </vertices>
                <triangles count="93" material="default_ai_0.2_sh_0.2_tr_0.0_dc_r_0.8_g_0.8_b_0.8_sc_r_1.0_g_1.0_b_1.0_ec_r_0.0_g_0.0_b_0_tri">
                    <input offset="0" semantic="VERTEX" source="#geometry0-vertex"/>
                    <input offset="1" semantic="NORMAL" source="#geometry0-normal"/>
                    <p>0 0 4 1 7 2 0 0 7 2 6 3 9 4 40 5 37 6 5 7 9 4 37 6 5 7 37 6 36 8 45 9 31 10 43 11 45 9 43 11 41 12 45 9 41 12 48 13 21 14 20 15 23 16 26 17 21 14 23 16 26 17 23 16 22 18 21 29 18 30 27 31 21 29 27 31 26 32 3 33 8 34 14 35 3 33 14 35 15 36 3 33 15 36 13 37 32 38 31 39 43 40 32 38 43 40 42 41 2 42 11 43 9 44 3 45 2 42 9 44 3 45 9 44 8 46 26 47 33 48 41 49 26 47 41 49 21 50 43 51 31 52 32 53 43 51 32 53 42 54 27 55 18 56 21 57 27 55 21 57 26 58 42 59 46 60 41 61 42 59 41 61 43 62 7 63 16 64 14 65 7 63 14 65 8 66 32 67 42 68 38 69 32 67 38 69 28 70 2 71 3 72 4 73 2 71 4 73 0 74 2 71 0 74 1 75 34 76 27 77 18 78 34 76 18 78 39 79 19 85 18 86 27 87 19 85 27 87 25 88 19 85 25 88 24 89 39 90 11 91 10 92 39 90 10 92 35 93 39 90 35 93 34 94 31 95 30 96 43 97 40 98 9 99 30 96 30 96 9 99 43 97 9 99 11 100 43 97 43 97 11 100 41 101 41 101 11 100 21 102 21 102 11 100 18 103 18 103 11 100 39 104 8 105 9 106 5 107 7 108 8 105 5 107 7 108 5 107 6 109 1 110 10 111 11 112 1 110 11 112 2 113 18 114 19 115 20 116 18 114 20 116 21 117 24 118 23 119 20 120 24 118 20 120 19 121 43 127 41 128 33 129 42 130 43 127 33 129 42 130 33 129 38 131 29 132 37 133 40 134 29 132 40 134 30 135 44 136 32 137 31 138 44 136 31 138 45 139 16 140 17 141 15 142 16 140 15 142 14 143 12 144 4 145 3 146 12 144 3 146 13 147 27 148 26 149 22 150 27 148 22 150 25 151 30 152 31 153 32 154 30 152 32 154 28 155 30 152 28 155 29 156 9 157 11 158 10 159 9 157 10 159 5 160 8 161 3 162 4 163 8 161 4 163 7 164 47 169 44 170 45 171 47 169 45 171 48 172 4 173 3 174 8 175 4 173 8 175 7 176 17 177 12 178 13 179 17 177 13 179 15 180 10 186 11 187 9 188 10 186 9 188 5 189 10 190 5 191 36 192 10 190 36 192 35 193 46 194 47 195 48 196 46 194 48 196 41 197</p>
                </triangles>
                <triangles count="19" material="default_ai_0.2_sh_0.2_tr_0.0_dc_r_1.0_g_0.2_b_0.2_sc_r_1.0_g_1.0_b_1.0_ec_r_0.0_g_0.0_b_0_tri">
                    <input offset="0" semantic="VERTEX" source="#geometry0-vertex"/>
                    <input offset="1" semantic="NORMAL" source="#geometry0-normal"/>
                    <p>29 19 28 20 38 21 36 22 37 23 29 19 36 22 29 19 38 21 35 24 36 22 38 21 35 24 38 21 33 25 35 24 33 25 26 26 35 24 26 26 27 27 35 24 27 27 34 28 46 80 42 81 32 82 46 80 32 82 44 83 46 80 44 83 47 84 17 122 16 123 7 124 17 122 7 124 4 125 17 122 4 125 12 126 22 165 23 166 24 167 22 165 24 167 25 168 6 181 5 182 10 183 0 184 6 181 10 183 0 184 10 183 1 185</p>
                </triangles>
            </mesh>
        </geometry>
    </library_geometries>
    <library_visual_scenes>
        <visual_scene id="Building_DEBW_5221000QZS6">
            <node>
                <instance_geometry url="#geometry0">
                    <bind_material>
                        <technique_common>
                            <instance_material symbol="default_ai_0.2_sh_0.2_tr_0.0_dc_r_0.8_g_0.8_b_0.8_sc_r_1.0_g_1.0_b_1.0_ec_r_0.0_g_0.0_b_0_tri" target="#default_ai_0.2_sh_0.2_tr_0.0_dc_r_0.8_g_0.8_b_0.8_sc_r_1.0_g_1.0_b_1.0_ec_r_0.0_g_0.0_b_0_mat"/>
                            <instance_material symbol="default_ai_0.2_sh_0.2_tr_0.0_dc_r_1.0_g_0.2_b_0.2_sc_r_1.0_g_1.0_b_1.0_ec_r_0.0_g_0.0_b_0_tri" target="#default_ai_0.2_sh_0.2_tr_0.0_dc_r_1.0_g_0.2_b_0.2_sc_r_1.0_g_1.0_b_1.0_ec_r_0.0_g_0.0_b_0_mat"/>
                        </technique_common>
                    </bind_material>
                </instance_geometry>
            </node>
        </visual_scene>
    </library_visual_scenes>
    <scene>
        <instance_visual_scene url="#Building_DEBW_5221000QZS6"/>
    </scene>
</COLLADA>
