<?xml version="1.0" encoding="UTF-8" standalone="yes"?>
<COLLADA xmlns="http://www.collada.org/2005/11/COLLADASchema" version="1.4.1">
    <asset>
        <contributor>
            <authoring_tool>3D City Database Importer/Exporter, version 5.5.3; Chair of Geoinformatics, Technical University of Munich</authoring_tool>
        </contributor>
        <created>2026-05-06T15:12:15.017</created>
        <modified>2026-05-06T15:12:15.017</modified>
        <unit meter="1.0" name="meters"/>
        <up_axis>Z_UP</up_axis>
    </asset>
    <library_materials>
        <material id="default_ai_0.2_sh_0.2_tr_0.0_dc_r_0.8_g_0.8_b_0.8_sc_r_1.0_g_1.0_b_1.0_ec_r_0.0_g_0.0_b_0_mat">
            <instance_effect url="#default_ai_0.2_sh_0.2_tr_0.0_dc_r_0.8_g_0.8_b_0.8_sc_r_1.0_g_1.0_b_1.0_ec_r_0.0_g_0.0_b_0_eff"/>
        </material>
        <material id="default_ai_0.2_sh_0.2_tr_0.0_dc_r_1.0_g_0.2_b_0.2_sc_r_1.0_g_1.0_b_1.0_ec_r_0.0_g_0.0_b_0_mat">
            <instance_effect url="#default_ai_0.2_sh_0.2_tr_0.0_dc_r_1.0_g_0.2_b_0.2_sc_r_1.0_g_1.0_b_1.0_ec_r_0.0_g_0.0_b_0_eff"/>
        </material>
    </library_materials>
    <library_effects>
        <effect id="default_ai_0.2_sh_0.2_tr_0.0_dc_r_0.8_g_0.8_b_0.8_sc_r_1.0_g_1.0_b_1.0_ec_r_0.0_g_0.0_b_0_eff">
            <profile_COMMON>
                <technique sid="COMMON">
                    <lambert>
                        <emission>
                            <color>0.0 0.0 0.0 1.0</color>
                        </emission>
                        <diffuse>
                            <color>0.8 0.8 0.8 1.0</color>
                        </diffuse>
                        <reflective>
                            <color>1.0 1.0 1.0 1.0</color>
                        </reflective>
                        <reflectivity>
                            <float>0.2</float>
                        </reflectivity>
                        <transparent opaque="A_ONE">
                            <color>1.0 1.0 1.0 1.0</color>
                        </transparent>
                        <transparency>
                            <float>1.0</float>
                        </transparency>
                    </lambert>
                </technique>
                <extra>
                    <technique profile="GOOGLEEARTH">
                        <double_sided>0</double_sided>
                    </technique>
                </extra>
            </profile_COMMON>
        </effect>
        <effect id="default_ai_0.2_sh_0.2_tr_0.0_dc_r_1.0_g_0.2_b_0.2_sc_r_1.0_g_1.0_b_1.0_ec_r_0.0_g_0.0_b_0_eff">
            <profile_COMMON>
                <technique sid="COMMON">
                    <lambert>
                        <emission>
                            <color>0.0 0.0 0.0 1.0</color>
                        </emission>
                        <diffuse>
                            <color>1.0 0.2 0.2 1.0</color>
                        </diffuse>
                        <reflective>
                            <color>1.0 1.0 1.0 1.0</color>
                        </reflective>
                        <reflectivity>
                            <float>0.2</float>
                        </reflectivity>
                        <transparent opaque="A_ONE">
                            <color>1.0 1.0 1.0 1.0</color>
                        </transparent>
                        <transparency>
                            <float>1.0</float>
                        </transparency>
                    </lambert>
                </technique>
                <extra>
                    <technique profile="GOOGLEEARTH">
                        <double_sided>0</double_sided>
                    </technique>
                </extra>
            </profile_COMMON>
        </effect>
    </library_effects>
    <library_geometries>
        <geometry id="geometry0">
            <mesh>
                <source id="geometry0-position">
                    <float_array id="geometry0-position-array" count="90">2.04 -2.868 11.069 0.0 0.0 11.069 0.0 0.0 0.0 2.04 -2.868 0.0 2.04 -2.868 7.841 4.49 3.19 11.054 6.51 0.34 11.055 6.51 0.34 8.172 6.51 0.34 0.0 4.49 3.19 0.0 4.249 -1.283 12.165 4.628 -1.011 0.0 2.22 1.577 12.165 4.628 -1.011 9.126 11.03 -15.51 0.0 7.75 1.23 0.0 18.85 -14.2 0.0 15.87 -16.31 0.0 15.44 -15.7 0.0 15.233 -15.848 0.0 12.59 -17.73 0.0 11.01 -15.52 0.0 15.87 -16.31 9.023 15.44 -15.7 9.021 11.01 -15.52 7.817 11.03 -15.51 7.826 12.59 -17.73 7.818 15.233 -15.848 9.126 18.85 -14.2 7.519 7.75 1.23 7.543</float_array>
                    <technique_common>
                        <accessor count="30" source="#geometry0-position-array" stride="3">
                            <param name="X" type="float"/>
                            <param name="Y" type="float"/>
                            <param name="Z" type="float"/>
                        </accessor>
                    </technique_common>
                </source>
                <source id="geometry0-normal">
                    <float_array id="geometry0-normal-array" count="342">-0.8173387 -0.5761575 0.0 -0.8173387 -0.5761575 0.0 -0.8173387 -0.5761575 0.0 -0.8173387 -0.5761575 0.0 -0.4472306 0.8944187 0.0 -0.4472307 0.8944187 0.0 -0.4472306 0.8944187 0.0 -0.4472306 0.8944187 0.0 -0.8134845 -0.5815865 0.0 -0.8134845 -0.5815865 0.0 -0.8134845 -0.5815865 0.0 -0.8134846 -0.5815864 0.0 0.582989 -0.81248 0.0 0.582989 -0.81248 0.0 0.582989 -0.81248 0.0 0.582989 -0.81248 0.0 0.5831556 -0.8123605 0.0 0.5831556 -0.8123605 0.0 0.5831556 -0.8123605 0.0 0.5831556 -0.8123605 0.0 -0.304599 -0.2163773 0.9275777 -0.3042563 -0.2164166 0.9276809 -0.304599 -0.2163773 0.9275777 -0.3049415 -0.2163379 0.9274743 -0.579175 0.8152032 1.761E-4 -0.579175 0.8152032 1.761E-4 -0.579175 0.8152032 1.761E-4 -0.8149513 -0.5795295 0.0 -0.8149513 -0.5795295 0.0 -0.8149513 -0.5795295 0.0 -0.8149512 -0.5795295 0.0 0.309961 0.2215146 0.9245839 0.3097763 0.2214179 0.924669 0.3100744 0.2215706 0.9245325 0.3100953 0.2215756 0.9245244 0.3098394 0.2214395 0.9246427 0.3099192 0.2215019 0.924601 0.3099774 0.2215528 0.9245692 -0.5831556 0.8123605 0.0 -0.5831556 0.8123605 0.0 -0.5831556 0.8123605 0.0 -0.5831556 0.8123605 0.0 0.5830158 -0.8124608 1.592E-4 0.5830591 -0.8124297 0.0 0.5829458 -0.812511 2.388E-4 0.582994 -0.8124764 2.388E-4 0.5831556 -0.8123605 0.0 -0.582989 0.81248 0.0 -0.582989 0.81248 0.0 -0.582989 0.81248 0.0 -0.582989 0.81248 0.0 0.5778652 -0.8161322 0.0 0.5778652 -0.8161322 0.0 0.5778652 -0.8161322 0.0 0.5778652 -0.8161322 0.0 0.8117737 0.583972 0.0 0.8117737 0.583972 0.0 0.8117737 0.583972 0.0 0.8117738 0.583972 0.0 -0.8148838 -0.5796245 0.0 -0.8148838 -0.5796244 0.0 -0.8148838 -0.5796245 0.0 -0.8148838 -0.5796245 0.0 -0.8148838 -0.5796244 0.0 0.8158556 0.5782557 0.0 0.8158556 0.5782557 0.0 0.8158556 0.5782557 0.0 0.8158556 0.5782557 0.0 0.8158556 0.5782557 0.0 0.5816097 -0.813468 0.0 0.5816097 -0.813468 0.0 0.5816097 -0.813468 0.0 0.5816097 -0.813468 0.0 -0.583096 0.8124033 0.0 -0.583096 0.8124033 0.0 -0.583096 0.8124033 0.0 -0.583096 0.8124033 0.0 0.0 0.0 -1.0 0.0 0.0 -1.0 0.0 0.0 -1.0 0.0 0.0 -1.0 0.0 0.0 -1.0 0.5830585 -0.81243 -2.508E-4 0.5830585 -0.81243 -2.508E-4 0.5830585 -0.81243 -2.508E-4 -0.5791754 0.815203 0.0 -0.5791754 0.815203 0.0 -0.5791754 0.815203 0.0 -0.5791754 0.815203 0.0 0.5800422 -0.8145864 0.0 0.5800422 -0.8145864 0.0 0.5800422 -0.8145864 0.0 0.5800422 -0.8145863 0.0 -0.3055966 -0.2181928 0.9268239 -0.3041812 -0.2174188 0.9274713 -0.3046654 -0.2176469 0.9272588 -0.3056591 -0.2182344 0.9267936 -0.3071616 -0.2191808 0.9260732 -0.3043686 -0.2175435 0.9273805 0.3021541 0.2144224 0.9288304 0.3022283 0.214413 0.9288085 0.3021541 0.2144224 0.9288304 0.3020799 0.2144319 0.9288523 0.0 0.0 -1.0 0.0 0.0 -1.0 0.0 0.0 -1.0 0.0 0.0 -1.0 0.0 0.0 -1.0 0.0 0.0 -1.0 0.0 0.0 -1.0 0.0 0.0 -1.0 0.0 0.0 -1.0 0.0 0.0 -1.0 0.0 0.0 -1.0</float_array>
                    <technique_common>
                        <accessor count="114" source="#geometry0-normal-array" stride="3">
                            <param name="X" type="float"/>
                            <param name="Y" type="float"/>
                            <param name="Z" type="float"/>
                        </accessor>
                    </technique_common>
                </source>
                <vertices id="geometry0-vertex">
                    <input semantic="POSITION" source="#geometry0-position"/>
                </vertices>
                <triangles count="51" material="default_ai_0.2_sh_0.2_tr_0.0_dc_r_0.8_g_0.8_b_0.8_sc_r_1.0_g_1.0_b_1.0_ec_r_0.0_g_0.0_b_0_tri">
                    <input offset="0" semantic="VERTEX" source="#geometry0-vertex"/>
                    <input offset="1" semantic="NORMAL" source="#geometry0-normal"/>
                    <p>22 0 23 1 18 2 22 0 18 2 17 3 24 4 25 5 14 6 24 4 14 6 21 7 26 8 24 9 21 10 26 8 21 10 20 11 4 12 3 13 11 14 4 12 11 14 13 15 11 16 8 17 7 18 11 16 7 18 13 19 1 24 12 25 5 26 25 27 4 28 3 29 25 27 3 29 14 30 7 38 8 39 11 40 7 38 11 40 13 41 6 42 0 43 4 44 6 42 4 44 13 45 6 42 13 45 7 46 3 47 4 48 13 49 3 47 13 49 11 50 28 51 22 52 17 53 28 51 17 53 16 54 29 55 28 56 16 57 29 55 16 57 15 58 2 59 3 60 4 61 2 59 4 61 0 62 2 59 0 62 1 63 8 64 9 65 5 66 7 67 8 64 5 66 7 67 5 66 6 68 23 69 27 70 19 71 23 69 19 71 18 72 7 73 29 74 15 75 7 73 15 75 8 76 2 77 9 78 8 79 2 77 8 79 11 80 2 77 11 80 3 81 6 82 10 83 0 84 1 85 5 86 9 87 1 85 9 87 2 88 27 89 26 90 20 91 27 89 20 91 19 92 3 103 11 104 14 105 11 104 8 106 14 105 8 106 15 107 14 105 15 107 16 108 14 105 14 105 16 108 21 109 17 110 18 111 16 108 16 108 18 111 21 109 21 109 18 111 20 112 20 112 18 111 19 113</p>
                </triangles>
                <triangles count="13" material="default_ai_0.2_sh_0.2_tr_0.0_dc_r_1.0_g_0.2_b_0.2_sc_r_1.0_g_1.0_b_1.0_ec_r_0.0_g_0.0_b_0_tri">
                    <input offset="0" semantic="VERTEX" source="#geometry0-vertex"/>
                    <input offset="1" semantic="NORMAL" source="#geometry0-normal"/>
                    <p>12 20 1 21 0 22 12 20 0 22 10 23 7 31 13 32 27 33 7 31 27 33 23 34 7 31 23 34 22 35 7 31 22 35 28 36 7 31 28 36 29 37 26 93 27 94 13 95 25 96 24 97 26 93 25 96 26 93 13 95 25 96 13 95 4 98 5 99 12 100 10 101 5 99 10 101 6 102</p>
                </triangles>
            </mesh>
        </geometry>
    </library_geometries>
    <library_visual_scenes>
        <visual_scene id="Building_DEBW_5221000QYfD">
            <node>
                <instance_geometry url="#geometry0">
                    <bind_material>
                        <technique_common>
                            <instance_material symbol="default_ai_0.2_sh_0.2_tr_0.0_dc_r_0.8_g_0.8_b_0.8_sc_r_1.0_g_1.0_b_1.0_ec_r_0.0_g_0.0_b_0_tri" target="#default_ai_0.2_sh_0.2_tr_0.0_dc_r_0.8_g_0.8_b_0.8_sc_r_1.0_g_1.0_b_1.0_ec_r_0.0_g_0.0_b_0_mat"/>
                            <instance_material symbol="default_ai_0.2_sh_0.2_tr_0.0_dc_r_1.0_g_0.2_b_0.2_sc_r_1.0_g_1.0_b_1.0_ec_r_0.0_g_0.0_b_0_tri" target="#default_ai_0.2_sh_0.2_tr_0.0_dc_r_1.0_g_0.2_b_0.2_sc_r_1.0_g_1.0_b_1.0_ec_r_0.0_g_0.0_b_0_mat"/>
                        </technique_common>
                    </bind_material>
                </instance_geometry>
            </node>
        </visual_scene>
    </library_visual_scenes>
    <scene>
        <instance_visual_scene url="#Building_DEBW_5221000QYfD"/>
    </scene>
</COLLADA>
