<?xml version="1.0" encoding="UTF-8" standalone="yes"?>
<COLLADA xmlns="http://www.collada.org/2005/11/COLLADASchema" version="1.4.1">
    <asset>
        <contributor>
            <authoring_tool>3D City Database Importer/Exporter, version 5.5.3; Chair of Geoinformatics, Technical University of Munich</authoring_tool>
        </contributor>
        <created>2026-05-06T15:12:08.180</created>
        <modified>2026-05-06T15:12:08.180</modified>
        <unit meter="1.0" name="meters"/>
        <up_axis>Z_UP</up_axis>
    </asset>
    <library_materials>
        <material id="default_ai_0.2_sh_0.2_tr_0.0_dc_r_1.0_g_0.2_b_0.2_sc_r_1.0_g_1.0_b_1.0_ec_r_0.0_g_0.0_b_0_mat">
            <instance_effect url="#default_ai_0.2_sh_0.2_tr_0.0_dc_r_1.0_g_0.2_b_0.2_sc_r_1.0_g_1.0_b_1.0_ec_r_0.0_g_0.0_b_0_eff"/>
        </material>
        <material id="default_ai_0.2_sh_0.2_tr_0.0_dc_r_0.8_g_0.8_b_0.8_sc_r_1.0_g_1.0_b_1.0_ec_r_0.0_g_0.0_b_0_mat">
            <instance_effect url="#default_ai_0.2_sh_0.2_tr_0.0_dc_r_0.8_g_0.8_b_0.8_sc_r_1.0_g_1.0_b_1.0_ec_r_0.0_g_0.0_b_0_eff"/>
        </material>
    </library_materials>
    <library_effects>
        <effect id="default_ai_0.2_sh_0.2_tr_0.0_dc_r_1.0_g_0.2_b_0.2_sc_r_1.0_g_1.0_b_1.0_ec_r_0.0_g_0.0_b_0_eff">
            <profile_COMMON>
                <technique sid="COMMON">
                    <lambert>
                        <emission>
                            <color>0.0 0.0 0.0 1.0</color>
                        </emission>
                        <diffuse>
                            <color>1.0 0.2 0.2 1.0</color>
                        </diffuse>
                        <reflective>
                            <color>1.0 1.0 1.0 1.0</color>
                        </reflective>
                        <reflectivity>
                            <float>0.2</float>
                        </reflectivity>
                        <transparent opaque="A_ONE">
                            <color>1.0 1.0 1.0 1.0</color>
                        </transparent>
                        <transparency>
                            <float>1.0</float>
                        </transparency>
                    </lambert>
                </technique>
                <extra>
                    <technique profile="GOOGLEEARTH">
                        <double_sided>0</double_sided>
                    </technique>
                </extra>
            </profile_COMMON>
        </effect>
        <effect id="default_ai_0.2_sh_0.2_tr_0.0_dc_r_0.8_g_0.8_b_0.8_sc_r_1.0_g_1.0_b_1.0_ec_r_0.0_g_0.0_b_0_eff">
            <profile_COMMON>
                <technique sid="COMMON">
                    <lambert>
                        <emission>
                            <color>0.0 0.0 0.0 1.0</color>
                        </emission>
                        <diffuse>
                            <color>0.8 0.8 0.8 1.0</color>
                        </diffuse>
                        <reflective>
                            <color>1.0 1.0 1.0 1.0</color>
                        </reflective>
                        <reflectivity>
                            <float>0.2</float>
                        </reflectivity>
                        <transparent opaque="A_ONE">
                            <color>1.0 1.0 1.0 1.0</color>
                        </transparent>
                        <transparency>
                            <float>1.0</float>
                        </transparency>
                    </lambert>
                </technique>
                <extra>
                    <technique profile="GOOGLEEARTH">
                        <double_sided>0</double_sided>
                    </technique>
                </extra>
            </profile_COMMON>
        </effect>
    </library_effects>
    <library_geometries>
        <geometry id="geometry0">
            <mesh>
                <source id="geometry0-position">
                    <float_array id="geometry0-position-array" count="192">4.07 -0.22 11.244 0.0 0.0 11.244 0.0 0.0 0.0 4.07 -0.22 0.0 4.2 1.82 0.0 -3.411 0.184 0.0 -3.274 2.331 0.0 -3.274 2.331 11.244 -3.411 0.184 11.245 4.2 1.82 11.244 -0.06 -2.27 0.0 -3.55 -2.015 0.0 0.0 0.0 11.264 -0.06 -2.27 11.264 -3.55 -2.015 11.264 -3.55 -2.015 11.247 -3.411 0.184 11.264 -3.411 0.184 11.247 -3.18 3.82 11.347 -2.85 9.07 11.347 -2.85 9.07 0.0 -3.18 3.82 0.0 -3.18 3.82 11.247 6.39 12.89 0.0 6.2 9.66 0.0 6.0 6.48 0.0 5.71 1.717 0.0 -2.57 13.43 0.0 6.39 12.89 11.347 6.2 9.66 11.347 5.71 1.717 11.347 4.2 1.82 11.347 5.71 1.717 11.245 6.0 6.48 11.347 6.0 6.48 11.243 -2.57 13.43 11.347 -3.274 2.331 11.347 -3.274 2.331 11.247 -6.76 -1.78 11.247 -6.63 0.35 11.247 -6.63 0.35 0.0 -6.76 -1.78 0.0 -6.586 0.347 0.0 -6.29 3.921 0.0 -6.27 3.92 0.0 -6.27 3.92 11.247 -6.29 3.921 11.247 -6.586 0.347 11.247 -10.16 7.63 11.255 -6.0 7.42 11.255 -6.0 7.42 0.0 -10.16 7.63 0.0 -6.27 3.92 11.255 -6.29 3.921 11.255 -6.63 0.35 11.255 -6.586 0.347 11.255 -10.51 2.64 11.255 -10.68 0.67 11.255 -10.51 2.64 0.0 -10.68 0.67 0.0 7.27 1.61 0.0 7.6 6.34 0.0 7.6 6.34 11.315 7.27 1.61 11.315</float_array>
                    <technique_common>
                        <accessor count="64" source="#geometry0-position-array" stride="3">
                            <param name="X" type="float"/>
                            <param name="Y" type="float"/>
                            <param name="Z" type="float"/>
                        </accessor>
                    </technique_common>
                </source>
                <source id="geometry0-normal">
                    <float_array id="geometry0-normal-array" count="816">0.0 0.0 1.0 0.0 0.0 1.0 0.0 0.0 1.0 0.0 0.0 1.0 0.0 0.0 -1.0 0.0 0.0 -1.0 0.0 0.0 -1.0 0.0 0.0 -1.0 0.0 0.0 -1.0 -0.0730134 -0.997331 0.0 -0.0730134 -0.997331 0.0 -0.0730134 -0.997331 0.0 -0.0730134 -0.997331 0.0 0.0 0.0 1.0 0.0 0.0 1.0 0.0 0.0 1.0 0.0 0.0 1.0 0.0 0.0 1.0 0.0 0.0 1.0 0.0 0.0 1.0 0.0 0.0 1.0 0.0 0.0 1.0 0.0 0.0 1.0 0.0 0.0 1.0 0.0 0.0 1.0 0.0 0.0 1.0 0.0 0.0 1.0 0.0 0.0 1.0 0.0 0.0 1.0 0.0 0.0 1.0 -0.0787669 -0.996893 0.0 -0.0787669 -0.996893 0.0 -0.0787669 -0.996893 0.0 -0.0787669 -0.996893 0.0 -0.9979442 0.0640881 0.0 -0.9979442 0.0640881 0.0 -0.9979442 0.0640881 0.0 -0.9979442 0.0640881 0.0 -0.9981517 0.0607735 0.0 -0.9981516 0.0607735 0.0 -0.9981517 0.0607735 0.0 -0.9981517 0.0607735 0.0 0.0 0.0 1.0 0.0 0.0 1.0 1.585E-4 2.226E-4 0.9999999 1.585E-4 2.226E-4 0.9999999 3.17E-4 4.453E-4 0.9999998 0.0323456 0.9994767 0.0 0.0323456 0.9994767 0.0 0.0323456 0.9994767 0.0 0.0323456 0.9994767 0.0 -0.9962974 0.0859749 0.0 -0.9962974 0.0859749 0.0 -0.9962974 0.0859749 0.0 -0.9962974 0.0859749 0.0 0.9996508 -0.0264225 0.0 0.9996509 -0.0264225 0.0 0.9996509 -0.0264225 0.0 0.9996508 -0.0264225 0.0 0.9996508 -0.0264225 0.0 -0.9980082 0.0630846 0.0 -0.9980082 0.0630846 0.0 -0.9980082 0.0630846 0.0 -0.9980082 0.0630846 0.0 -0.9980133 0.0630041 0.0 -0.9980133 0.0630041 0.0 -0.9980133 0.0630041 0.0 -0.9980133 0.0630041 0.0 -0.9980133 0.0630041 0.0 -0.0682111 -0.9976709 0.0 -0.0682111 -0.9976709 0.0 -0.0682111 -0.9976709 0.0 -0.0682111 -0.9976709 0.0 0.0499341 0.9987526 0.0 0.0499341 0.9987526 0.0 0.0499341 0.9987526 0.0 0.0499341 0.9987526 0.0 -0.9965879 0.0825378 0.0 -0.9965879 0.0825378 0.0 -0.9965879 0.0825378 0.0 -0.9965879 0.0825378 0.0 0.9981517 -0.0607735 0.0 0.9981517 -0.0607735 0.0 0.9981517 -0.0607735 0.0 0.9981516 -0.0607735 0.0 0.0601587 0.9981889 0.0 0.0601587 0.9981889 0.0 0.0601587 0.9981889 0.0 0.0601587 0.9981889 0.0 -0.0680235 -0.9976837 0.0 -0.0680235 -0.9976837 0.0 -0.0680235 -0.9976837 0.0 -0.0680235 -0.9976837 0.0 -0.0680235 -0.9976837 0.0 0.9979703 -0.0636805 0.0 0.9979703 -0.0636805 0.0 0.9979703 -0.0636805 0.0 0.9979704 -0.0636805 0.0 0.9980133 -0.0630041 0.0 0.9980133 -0.0630041 0.0 0.9980133 -0.0630041 0.0 0.9980133 -0.0630041 0.0 0.9980133 -0.0630041 0.0 0.9970377 -0.0769143 0.0 0.9970377 -0.0769143 0.0 0.9970377 -0.0769143 0.0 0.9970377 -0.0769143 0.0 0.9965879 -0.0825378 0.0 0.9965879 -0.0825378 0.0 0.9965879 -0.0825378 0.0 0.9965879 -0.0825378 0.0 0.9980081 -0.0630846 0.0 0.9980082 -0.0630846 0.0 0.9980081 -0.0630846 0.0 0.9980081 -0.0630846 0.0 0.9980082 -0.0630846 0.0 -0.0682111 -0.9976709 0.0 -0.0682111 -0.9976709 0.0 -0.0682111 -0.9976709 0.0 -0.0682111 -0.9976709 0.0 -0.0682111 -0.9976709 0.0 0.0 0.0 -1.0 0.0 0.0 -1.0 0.0 0.0 -1.0 0.0 0.0 -1.0 0.9979757 -0.0635963 0.0 0.9979757 -0.0635963 0.0 0.9979757 -0.0635963 0.0 0.9979757 -0.0635963 0.0 -0.9980303 0.0627334 0.0 -0.9980303 0.0627334 0.0 -0.9980303 0.0627334 0.0 -0.9980303 0.0627334 0.0 -0.9980303 0.0627334 0.0 0.0538648 0.9985482 0.0 0.0538648 0.9985483 0.0 0.0538648 0.9985482 0.0 0.0538648 0.9985483 0.0 0.0538648 0.9985482 0.0 0.0538648 0.9985482 0.0 0.0538648 0.9985482 0.0 0.0538648 0.9985482 0.0 0.0538648 0.9985482 0.0 0.0 0.0 -1.0 0.0 0.0 -1.0 0.0 0.0 -1.0 0.0 0.0 -1.0 0.0 0.0 -1.0 0.0 0.0 -1.0 0.0 0.0 -1.0 0.0 0.0 -1.0 0.0 0.0 -1.0 0.0871669 0.9961937 0.0 0.0871669 0.9961937 0.0 0.0871669 0.9961937 0.0 0.0871669 0.9961937 0.0 -0.9980081 0.0630846 0.0 -0.9980081 0.0630846 0.0 -0.9980081 0.0630846 0.0 -0.9980082 0.0630846 0.0 -0.9980082 0.0630846 0.0 -0.9980133 0.0630041 0.0 -0.9980133 0.0630041 0.0 -0.9980133 0.0630041 0.0 -0.9980133 0.0630041 0.0 -0.9975492 0.0699685 0.0 -0.9975492 0.0699685 0.0 -0.9975492 0.0699685 0.0 -0.9975492 0.0699685 0.0 0.0504166 0.9987283 0.0 0.0504166 0.9987283 0.0 0.0504166 0.9987283 0.0 0.0504166 0.9987283 0.0 -0.0728716 -0.9973413 0.0 -0.0728716 -0.9973413 0.0 -0.0728716 -0.9973413 0.0 -0.0728716 -0.9973413 0.0 -0.0728716 -0.9973413 0.0 -0.068429 -0.997656 0.0 -0.068429 -0.997656 0.0 -0.068429 -0.997656 0.0 -0.068429 -0.997656 0.0 0.0682111 0.9976709 0.0 0.0682111 0.9976709 0.0 0.0682111 0.9976709 0.0 0.0682111 0.9976709 0.0 -0.9979703 0.0636805 0.0 -0.9979703 0.0636805 0.0 -0.9979703 0.0636805 0.0 -0.9979704 0.0636805 0.0 0.0680235 0.9976837 0.0 0.0680235 0.9976837 0.0 0.0680235 0.9976837 0.0 0.0680235 0.9976837 0.0 -0.0538648 -0.9985482 0.0 -0.0538648 -0.9985482 0.0 -0.0538648 -0.9985482 0.0 -0.0538648 -0.9985482 0.0 0.9982744 -0.058722 0.0 0.9982744 -0.058722 0.0 0.9982744 -0.058722 0.0 0.9982744 -0.058722 0.0 -0.0680538 -0.9976816 0.0 -0.0680538 -0.9976817 0.0 -0.0680538 -0.9976816 0.0 -0.0680538 -0.9976816 0.0 -0.0680538 -0.9976816 0.0 -0.0680538 -0.9976816 0.0 -0.9981427 0.0609196 0.0 -0.9981427 0.0609196 0.0 -0.9981427 0.0609196 0.0 -0.9981427 0.0609196 0.0 0.9981517 -0.0607735 0.0 0.9981517 -0.0607735 0.0 0.9981517 -0.0607735 0.0 0.9981517 -0.0607735 0.0 0.9980281 -0.062769 0.0 0.9980281 -0.062769 0.0 0.998028 -0.062769 0.0 0.9980282 -0.062769 0.0 0.9980282 -0.062769 0.0 0.0 0.0 1.0 0.0 0.0 1.0 0.0 0.0 1.0 0.0 0.0 1.0 0.0 0.0 1.0 0.0 0.0 1.0 0.0 0.0 1.0 0.0 0.0 1.0 0.0 0.0 1.0 0.0 0.0 -1.0 0.0 0.0 -1.0 0.0 0.0 -1.0 0.0 0.0 -1.0 0.0 0.0 -1.0 0.0 0.0 -1.0 0.0 0.0 -1.0 0.0 0.0 -1.0 -0.0446465 0.0031262 0.9989979 -0.0446798 0.0031398 0.9989964 -0.0446465 0.0031262 0.9989979 -0.0446132 0.0031125 0.9989995 0.0 0.0 -1.0 0.0 0.0 -1.0 0.0 0.0 -1.0 0.0 0.0 -1.0 0.0 0.0 -1.0 0.0 0.0 -1.0 0.0 0.0 -1.0 0.0 0.0 -1.0 0.0 0.0 -1.0 0.0 0.0 -1.0 0.0 0.0 -1.0 0.0 0.0 -1.0 0.0 0.0 -1.0 0.9975752 -0.0695983 0.0 0.9975752 -0.0695983 0.0 0.9975752 -0.0695983 0.0 0.9975752 -0.0695983 0.0 -0.0539753 -0.9985423 0.0 -0.0539753 -0.9985423 0.0 -0.0539753 -0.9985423 0.0 -0.0539753 -0.9985423 0.0 -0.0499341 -0.9987526 0.0 -0.0499341 -0.9987526 0.0 -0.0499341 -0.9987525 0.0 -0.0499341 -0.9987526 0.0 -0.0499341 -0.9987525 0.0 0.9965879 -0.0825378 0.0 0.9965879 -0.0825378 0.0 0.9965879 -0.0825378 0.0 0.9965879 -0.0825378 0.0</float_array>
                    <technique_common>
                        <accessor count="272" source="#geometry0-normal-array" stride="3">
                            <param name="X" type="float"/>
                            <param name="Y" type="float"/>
                            <param name="Z" type="float"/>
                        </accessor>
                    </technique_common>
                </source>
                <vertices id="geometry0-vertex">
                    <input semantic="POSITION" source="#geometry0-position"/>
                </vertices>
                <triangles count="131" material="default_ai_0.2_sh_0.2_tr_0.0_dc_r_0.8_g_0.8_b_0.8_sc_r_1.0_g_1.0_b_1.0_ec_r_0.0_g_0.0_b_0_tri">
                    <input offset="0" semantic="VERTEX" source="#geometry0-vertex"/>
                    <input offset="1" semantic="NORMAL" source="#geometry0-normal"/>
                    <p>5 4 6 5 4 6 2 7 5 4 4 6 2 7 4 6 3 8 15 9 38 10 41 11 15 9 41 11 11 12 54 30 57 31 59 32 54 30 59 32 40 33 19 34 35 35 27 36 19 34 27 36 20 37 34 38 25 39 26 40 34 38 26 40 32 41 45 47 22 48 21 49 45 47 21 49 44 50 57 51 56 52 58 53 57 51 58 53 59 54 10 55 2 56 1 57 10 55 1 57 12 58 10 55 12 58 13 59 17 60 15 61 14 62 17 60 14 62 16 63 37 64 22 65 21 66 7 67 37 64 21 66 7 67 21 66 6 68 7 69 6 70 4 71 7 69 4 71 9 72 46 73 45 74 44 75 46 73 44 75 43 76 43 77 42 78 47 79 43 77 47 79 46 80 32 81 26 82 25 83 32 81 25 83 34 84 35 85 28 86 23 87 35 85 23 87 27 88 40 89 42 90 47 91 40 89 47 91 55 92 40 89 55 92 54 93 5 94 6 95 7 96 5 94 7 96 8 97 22 98 37 99 7 100 22 98 7 100 6 101 22 98 6 101 21 102 49 103 52 104 44 105 49 103 44 105 50 106 47 107 42 108 43 109 47 107 43 109 46 110 17 111 15 112 11 113 8 114 17 111 11 113 8 114 11 113 5 115 31 116 36 117 37 118 31 116 37 118 7 119 31 116 7 119 9 120 60 121 26 122 25 123 60 121 25 123 61 124 9 125 0 126 3 127 9 125 3 127 4 128 20 129 21 130 22 131 20 129 22 131 18 132 20 129 18 132 19 133 16 134 12 135 1 136 17 137 16 134 1 136 17 137 1 136 8 138 1 139 2 140 5 141 1 139 5 141 8 142 20 143 27 144 23 145 20 143 23 145 24 146 20 143 24 146 25 147 20 143 25 147 26 148 20 143 26 148 4 149 21 150 20 143 4 149 21 150 4 149 6 151 34 152 62 153 61 154 34 152 61 154 25 155 15 156 17 157 8 158 15 156 8 158 5 159 15 156 5 159 11 160 22 161 37 162 36 163 22 161 36 163 18 164 56 165 48 166 51 167 56 165 51 167 58 168 48 169 49 170 50 171 48 169 50 171 51 172 11 173 10 174 13 175 15 176 11 173 13 175 15 176 13 175 14 177 63 178 32 179 26 180 63 178 26 180 60 181 4 182 6 183 7 184 4 182 7 184 9 185 8 186 7 187 6 188 8 186 6 188 5 189 39 190 47 191 42 192 39 190 42 192 40 193 5 194 2 195 1 196 5 194 1 196 8 197 28 198 29 199 24 200 28 198 24 200 23 201 4 202 26 203 32 204 4 202 32 204 30 205 9 206 4 202 30 205 9 206 30 205 31 207 38 208 39 209 40 210 38 208 40 210 41 211 32 212 34 213 33 214 32 212 33 214 30 215 25 216 24 217 29 218 34 219 25 216 29 218 34 219 29 218 33 220 42 230 40 231 59 232 42 230 59 232 58 233 42 230 58 233 51 234 43 235 42 230 51 234 43 235 51 234 50 236 43 235 50 236 44 237 43 242 44 243 42 244 44 243 21 245 42 244 21 245 6 246 42 244 6 246 5 247 42 244 5 247 11 248 42 244 42 244 11 248 40 249 40 249 11 248 41 250 2 251 10 252 11 253 2 251 11 253 5 254 62 255 63 256 60 257 62 255 60 257 61 258 0 259 1 260 2 261 0 259 2 261 3 262 43 263 44 264 52 265 46 266 43 263 52 265 46 266 52 265 53 267 47 268 46 269 53 270 47 268 53 270 55 271</p>
                </triangles>
                <triangles count="27" material="default_ai_0.2_sh_0.2_tr_0.0_dc_r_1.0_g_0.2_b_0.2_sc_r_1.0_g_1.0_b_1.0_ec_r_0.0_g_0.0_b_0_tri">
                    <input offset="0" semantic="VERTEX" source="#geometry0-vertex"/>
                    <input offset="1" semantic="NORMAL" source="#geometry0-normal"/>
                    <p>16 0 14 1 13 2 16 0 13 2 12 3 56 13 57 14 54 15 56 13 54 15 55 16 56 13 55 16 53 17 48 18 56 13 53 17 48 18 53 17 52 19 48 18 52 19 49 20 29 21 28 22 35 23 29 21 35 23 19 24 29 21 19 24 18 25 29 21 18 25 36 26 29 21 36 26 31 27 33 28 29 21 31 27 33 28 31 27 30 29 0 42 9 43 7 44 1 45 0 42 7 44 1 45 7 44 8 46 45 221 46 222 47 223 22 224 45 221 47 223 37 225 22 224 47 223 17 226 37 225 47 223 15 227 17 226 47 223 15 227 47 223 39 228 15 227 39 228 38 229 62 238 34 239 32 240 62 238 32 240 63 241</p>
                </triangles>
            </mesh>
        </geometry>
    </library_geometries>
    <library_visual_scenes>
        <visual_scene id="Building_DEBW_5221000QtqK">
            <node>
                <instance_geometry url="#geometry0">
                    <bind_material>
                        <technique_common>
                            <instance_material symbol="default_ai_0.2_sh_0.2_tr_0.0_dc_r_0.8_g_0.8_b_0.8_sc_r_1.0_g_1.0_b_1.0_ec_r_0.0_g_0.0_b_0_tri" target="#default_ai_0.2_sh_0.2_tr_0.0_dc_r_0.8_g_0.8_b_0.8_sc_r_1.0_g_1.0_b_1.0_ec_r_0.0_g_0.0_b_0_mat"/>
                            <instance_material symbol="default_ai_0.2_sh_0.2_tr_0.0_dc_r_1.0_g_0.2_b_0.2_sc_r_1.0_g_1.0_b_1.0_ec_r_0.0_g_0.0_b_0_tri" target="#default_ai_0.2_sh_0.2_tr_0.0_dc_r_1.0_g_0.2_b_0.2_sc_r_1.0_g_1.0_b_1.0_ec_r_0.0_g_0.0_b_0_mat"/>
                        </technique_common>
                    </bind_material>
                </instance_geometry>
            </node>
        </visual_scene>
    </library_visual_scenes>
    <scene>
        <instance_visual_scene url="#Building_DEBW_5221000QtqK"/>
    </scene>
</COLLADA>
