<?xml version="1.0" encoding="UTF-8" standalone="yes"?>
<COLLADA xmlns="http://www.collada.org/2005/11/COLLADASchema" version="1.4.1">
    <asset>
        <contributor>
            <authoring_tool>3D City Database Importer/Exporter, version 5.5.3; Chair of Geoinformatics, Technical University of Munich</authoring_tool>
        </contributor>
        <created>2026-05-06T15:12:13.060</created>
        <modified>2026-05-06T15:12:13.060</modified>
        <unit meter="1.0" name="meters"/>
        <up_axis>Z_UP</up_axis>
    </asset>
    <library_materials>
        <material id="default_ai_0.2_sh_0.2_tr_0.0_dc_r_1.0_g_0.2_b_0.2_sc_r_1.0_g_1.0_b_1.0_ec_r_0.0_g_0.0_b_0_mat">
            <instance_effect url="#default_ai_0.2_sh_0.2_tr_0.0_dc_r_1.0_g_0.2_b_0.2_sc_r_1.0_g_1.0_b_1.0_ec_r_0.0_g_0.0_b_0_eff"/>
        </material>
        <material id="default_ai_0.2_sh_0.2_tr_0.0_dc_r_0.8_g_0.8_b_0.8_sc_r_1.0_g_1.0_b_1.0_ec_r_0.0_g_0.0_b_0_mat">
            <instance_effect url="#default_ai_0.2_sh_0.2_tr_0.0_dc_r_0.8_g_0.8_b_0.8_sc_r_1.0_g_1.0_b_1.0_ec_r_0.0_g_0.0_b_0_eff"/>
        </material>
    </library_materials>
    <library_effects>
        <effect id="default_ai_0.2_sh_0.2_tr_0.0_dc_r_1.0_g_0.2_b_0.2_sc_r_1.0_g_1.0_b_1.0_ec_r_0.0_g_0.0_b_0_eff">
            <profile_COMMON>
                <technique sid="COMMON">
                    <lambert>
                        <emission>
                            <color>0.0 0.0 0.0 1.0</color>
                        </emission>
                        <diffuse>
                            <color>1.0 0.2 0.2 1.0</color>
                        </diffuse>
                        <reflective>
                            <color>1.0 1.0 1.0 1.0</color>
                        </reflective>
                        <reflectivity>
                            <float>0.2</float>
                        </reflectivity>
                        <transparent opaque="A_ONE">
                            <color>1.0 1.0 1.0 1.0</color>
                        </transparent>
                        <transparency>
                            <float>1.0</float>
                        </transparency>
                    </lambert>
                </technique>
                <extra>
                    <technique profile="GOOGLEEARTH">
                        <double_sided>0</double_sided>
                    </technique>
                </extra>
            </profile_COMMON>
        </effect>
        <effect id="default_ai_0.2_sh_0.2_tr_0.0_dc_r_0.8_g_0.8_b_0.8_sc_r_1.0_g_1.0_b_1.0_ec_r_0.0_g_0.0_b_0_eff">
            <profile_COMMON>
                <technique sid="COMMON">
                    <lambert>
                        <emission>
                            <color>0.0 0.0 0.0 1.0</color>
                        </emission>
                        <diffuse>
                            <color>0.8 0.8 0.8 1.0</color>
                        </diffuse>
                        <reflective>
                            <color>1.0 1.0 1.0 1.0</color>
                        </reflective>
                        <reflectivity>
                            <float>0.2</float>
                        </reflectivity>
                        <transparent opaque="A_ONE">
                            <color>1.0 1.0 1.0 1.0</color>
                        </transparent>
                        <transparency>
                            <float>1.0</float>
                        </transparency>
                    </lambert>
                </technique>
                <extra>
                    <technique profile="GOOGLEEARTH">
                        <double_sided>0</double_sided>
                    </technique>
                </extra>
            </profile_COMMON>
        </effect>
    </library_effects>
    <library_geometries>
        <geometry id="geometry0">
            <mesh>
                <source id="geometry0-position">
                    <float_array id="geometry0-position-array" count="48">-3.867 6.95 8.048 -2.85 3.832 8.052 -2.53 4.46 7.608 -3.55 7.57 7.608 -2.212 3.506 8.502 -1.279 0.651 8.508 0.0 0.0 7.608 -1.57 4.77 7.608 0.0 0.0 0.0 -1.57 4.77 0.0 -4.49 7.27 7.608 -1.93 -0.62 7.608 -4.49 7.27 0.0 -1.93 -0.62 0.0 -2.53 4.46 0.0 -3.55 7.57 0.0</float_array>
                    <technique_common>
                        <accessor count="16" source="#geometry0-position-array" stride="3">
                            <param name="X" type="float"/>
                            <param name="Y" type="float"/>
                            <param name="Z" type="float"/>
                        </accessor>
                    </technique_common>
                </source>
                <source id="geometry0-normal">
                    <float_array id="geometry0-normal-array" count="162">0.6314011 0.2078641 0.7470778 0.6314775 0.2079337 0.7469938 0.6314011 0.2078641 0.7470778 0.6313247 0.2077945 0.7471616 0.0 0.0 -1.0 0.0 0.0 -1.0 0.0 0.0 -1.0 0.0 0.0 -1.0 0.0 0.0 -1.0 0.0 0.0 -1.0 0.6314563 0.2070116 0.7472678 0.6312281 0.206847 0.7475061 0.6314563 0.2070116 0.7472678 0.6316843 0.2071762 0.7470294 0.9498714 0.3126411 0.0 0.9498714 0.3126411 0.0 0.9498714 0.3126411 0.0 0.9498714 0.3126411 0.0 -0.6322694 -0.2052075 0.7470779 -0.6327693 -0.2053092 0.7466266 -0.6322712 -0.2051936 0.7470801 -0.6319866 -0.2050692 0.7473551 -0.6320952 -0.2050509 0.7472682 -0.6319157 -0.204936 0.7474516 0.9501999 0.3116411 0.0 0.9501999 0.3116411 0.0 0.9501999 0.3116411 0.0 0.9501999 0.3116411 0.0 -0.2021605 0.6334357 0.7469206 -0.2021605 0.6334357 0.7469206 -0.2021605 0.6334357 0.7469206 -0.9511846 -0.3086226 0.0 -0.9511846 -0.3086226 0.0 -0.9511846 -0.3086226 0.0 -0.9511846 -0.3086226 0.0 -0.2041436 0.6323206 0.7473259 -0.2040832 0.6322673 0.7473875 -0.2041436 0.6323206 0.7473259 -0.2042041 0.6323739 0.7472643 -0.3072924 0.9516152 0.0 -0.3072924 0.9516152 0.0 -0.3072924 0.9516152 0.0 -0.3072924 0.9516152 0.0 0.3058495 -0.95208 0.0 0.3058495 -0.95208 0.0 0.3058495 -0.95208 0.0 0.3058495 -0.95208 0.0 -0.3040404 0.9526591 0.0 -0.3040404 0.9526591 0.0 -0.3040404 0.9526591 0.0 -0.3040404 0.9526591 0.0 0.2033653 -0.6330565 0.746915 0.2033653 -0.6330565 0.746915 0.2033653 -0.6330565 0.746915</float_array>
                    <technique_common>
                        <accessor count="54" source="#geometry0-normal-array" stride="3">
                            <param name="X" type="float"/>
                            <param name="Y" type="float"/>
                            <param name="Z" type="float"/>
                        </accessor>
                    </technique_common>
                </source>
                <vertices id="geometry0-vertex">
                    <input semantic="POSITION" source="#geometry0-position"/>
                </vertices>
                <triangles count="16" material="default_ai_0.2_sh_0.2_tr_0.0_dc_r_0.8_g_0.8_b_0.8_sc_r_1.0_g_1.0_b_1.0_ec_r_0.0_g_0.0_b_0_tri">
                    <input offset="0" semantic="VERTEX" source="#geometry0-vertex"/>
                    <input offset="1" semantic="NORMAL" source="#geometry0-normal"/>
                    <p>8 4 13 5 12 6 14 7 9 8 8 4 14 7 8 4 12 6 14 7 12 6 15 9 7 14 6 15 8 16 7 14 8 16 9 17 3 24 2 25 14 26 3 24 14 26 15 27 11 31 10 32 12 33 11 31 12 33 13 34 2 39 7 40 9 41 2 39 9 41 14 42 6 43 11 44 13 45 6 43 13 45 8 46 10 47 3 48 15 49 10 47 15 49 12 50</p>
                </triangles>
                <triangles count="12" material="default_ai_0.2_sh_0.2_tr_0.0_dc_r_1.0_g_0.2_b_0.2_sc_r_1.0_g_1.0_b_1.0_ec_r_0.0_g_0.0_b_0_tri">
                    <input offset="0" semantic="VERTEX" source="#geometry0-vertex"/>
                    <input offset="1" semantic="NORMAL" source="#geometry0-normal"/>
                    <p>4 0 5 1 6 2 4 0 6 2 7 3 0 10 1 11 2 12 0 10 2 12 3 13 0 18 10 19 11 20 1 21 0 18 11 20 1 21 11 20 5 22 1 21 5 22 4 23 0 28 3 29 10 30 1 35 4 36 7 37 1 35 7 37 2 38 5 51 11 52 6 53</p>
                </triangles>
            </mesh>
        </geometry>
    </library_geometries>
    <library_visual_scenes>
        <visual_scene id="Building_DEBW_5221000QzoW">
            <node>
                <instance_geometry url="#geometry0">
                    <bind_material>
                        <technique_common>
                            <instance_material symbol="default_ai_0.2_sh_0.2_tr_0.0_dc_r_0.8_g_0.8_b_0.8_sc_r_1.0_g_1.0_b_1.0_ec_r_0.0_g_0.0_b_0_tri" target="#default_ai_0.2_sh_0.2_tr_0.0_dc_r_0.8_g_0.8_b_0.8_sc_r_1.0_g_1.0_b_1.0_ec_r_0.0_g_0.0_b_0_mat"/>
                            <instance_material symbol="default_ai_0.2_sh_0.2_tr_0.0_dc_r_1.0_g_0.2_b_0.2_sc_r_1.0_g_1.0_b_1.0_ec_r_0.0_g_0.0_b_0_tri" target="#default_ai_0.2_sh_0.2_tr_0.0_dc_r_1.0_g_0.2_b_0.2_sc_r_1.0_g_1.0_b_1.0_ec_r_0.0_g_0.0_b_0_mat"/>
                        </technique_common>
                    </bind_material>
                </instance_geometry>
            </node>
        </visual_scene>
    </library_visual_scenes>
    <scene>
        <instance_visual_scene url="#Building_DEBW_5221000QzoW"/>
    </scene>
</COLLADA>
