<?xml version="1.0" encoding="UTF-8" standalone="yes"?>
<COLLADA xmlns="http://www.collada.org/2005/11/COLLADASchema" version="1.4.1">
    <asset>
        <contributor>
            <authoring_tool>3D City Database Importer/Exporter, version 5.5.3; Chair of Geoinformatics, Technical University of Munich</authoring_tool>
        </contributor>
        <created>2026-05-06T15:12:15.934</created>
        <modified>2026-05-06T15:12:15.934</modified>
        <unit meter="1.0" name="meters"/>
        <up_axis>Z_UP</up_axis>
    </asset>
    <library_materials>
        <material id="default_ai_0.2_sh_0.2_tr_0.0_dc_r_0.8_g_0.8_b_0.8_sc_r_1.0_g_1.0_b_1.0_ec_r_0.0_g_0.0_b_0_mat">
            <instance_effect url="#default_ai_0.2_sh_0.2_tr_0.0_dc_r_0.8_g_0.8_b_0.8_sc_r_1.0_g_1.0_b_1.0_ec_r_0.0_g_0.0_b_0_eff"/>
        </material>
        <material id="default_ai_0.2_sh_0.2_tr_0.0_dc_r_1.0_g_0.2_b_0.2_sc_r_1.0_g_1.0_b_1.0_ec_r_0.0_g_0.0_b_0_mat">
            <instance_effect url="#default_ai_0.2_sh_0.2_tr_0.0_dc_r_1.0_g_0.2_b_0.2_sc_r_1.0_g_1.0_b_1.0_ec_r_0.0_g_0.0_b_0_eff"/>
        </material>
    </library_materials>
    <library_effects>
        <effect id="default_ai_0.2_sh_0.2_tr_0.0_dc_r_0.8_g_0.8_b_0.8_sc_r_1.0_g_1.0_b_1.0_ec_r_0.0_g_0.0_b_0_eff">
            <profile_COMMON>
                <technique sid="COMMON">
                    <lambert>
                        <emission>
                            <color>0.0 0.0 0.0 1.0</color>
                        </emission>
                        <diffuse>
                            <color>0.8 0.8 0.8 1.0</color>
                        </diffuse>
                        <reflective>
                            <color>1.0 1.0 1.0 1.0</color>
                        </reflective>
                        <reflectivity>
                            <float>0.2</float>
                        </reflectivity>
                        <transparent opaque="A_ONE">
                            <color>1.0 1.0 1.0 1.0</color>
                        </transparent>
                        <transparency>
                            <float>1.0</float>
                        </transparency>
                    </lambert>
                </technique>
                <extra>
                    <technique profile="GOOGLEEARTH">
                        <double_sided>0</double_sided>
                    </technique>
                </extra>
            </profile_COMMON>
        </effect>
        <effect id="default_ai_0.2_sh_0.2_tr_0.0_dc_r_1.0_g_0.2_b_0.2_sc_r_1.0_g_1.0_b_1.0_ec_r_0.0_g_0.0_b_0_eff">
            <profile_COMMON>
                <technique sid="COMMON">
                    <lambert>
                        <emission>
                            <color>0.0 0.0 0.0 1.0</color>
                        </emission>
                        <diffuse>
                            <color>1.0 0.2 0.2 1.0</color>
                        </diffuse>
                        <reflective>
                            <color>1.0 1.0 1.0 1.0</color>
                        </reflective>
                        <reflectivity>
                            <float>0.2</float>
                        </reflectivity>
                        <transparent opaque="A_ONE">
                            <color>1.0 1.0 1.0 1.0</color>
                        </transparent>
                        <transparency>
                            <float>1.0</float>
                        </transparency>
                    </lambert>
                </technique>
                <extra>
                    <technique profile="GOOGLEEARTH">
                        <double_sided>0</double_sided>
                    </technique>
                </extra>
            </profile_COMMON>
        </effect>
    </library_effects>
    <library_geometries>
        <geometry id="geometry0">
            <mesh>
                <source id="geometry0-position">
                    <float_array id="geometry0-position-array" count="84">-2.07 -6.65 6.667 0.0 0.0 6.673 0.0 0.0 0.0 -2.07 -6.65 0.0 9.89 2.3 6.691 8.91 -0.86 6.691 8.91 -0.86 0.0 9.89 2.3 0.0 0.621 2.02 6.669 1.49 4.82 6.67 1.49 4.82 0.0 0.621 2.02 0.0 5.47 3.628 9.452 -0.39 -7.16 7.843 1.19 -7.63 8.946 1.913 -7.848 9.452 3.64 -8.37 8.372 1.913 -7.848 0.0 3.64 -8.37 0.0 8.52 -2.13 6.689 8.52 -2.13 0.0 6.34 -9.17 6.688 6.34 -9.17 0.0 1.19 -7.63 0.0 5.47 3.628 0.0 7.3 3.08 8.309 7.3 3.08 0.0 -0.39 -7.16 0.0</float_array>
                    <technique_common>
                        <accessor count="28" source="#geometry0-position-array" stride="3">
                            <param name="X" type="float"/>
                            <param name="Y" type="float"/>
                            <param name="Z" type="float"/>
                        </accessor>
                    </technique_common>
                </source>
                <source id="geometry0-normal">
                    <float_array id="geometry0-normal-array" count="258">-0.2904815 -0.9568806 0.0 -0.2904815 -0.9568806 0.0 -0.2904815 -0.9568806 0.0 -0.2904815 -0.9568806 0.0 0.2868676 0.9579703 0.0 0.2868676 0.9579702 0.0 0.2868676 0.9579703 0.0 0.2868676 0.9579703 0.0 -0.5266179 0.1802679 0.830769 -0.5317091 0.1648039 0.8307377 -0.5315905 0.1647549 0.8308232 -0.5315427 0.1646997 0.8308648 -0.5312352 0.1647692 0.8310478 -0.5311314 0.1647552 0.8311168 -0.5165993 0.2111738 0.8297775 -0.5005612 0.2571788 0.8266182 -0.2893303 -0.9572293 0.0 -0.2893303 -0.9572293 0.0 -0.2893303 -0.9572293 0.0 -0.2893304 -0.9572293 0.0 0.0 0.0 -1.0 0.0 0.0 -1.0 0.0 0.0 -1.0 0.0 0.0 -1.0 0.0 0.0 -1.0 0.0 0.0 -1.0 0.0 0.0 -1.0 0.0 0.0 -1.0 0.0 0.0 -1.0 0.0 0.0 -1.0 0.0 0.0 -1.0 0.0 0.0 -1.0 0.0 0.0 -1.0 0.0 0.0 -1.0 -0.2840884 -0.9587981 0.0 -0.2840884 -0.9587981 0.0 -0.2840884 -0.9587981 0.0 -0.2840884 -0.9587981 0.0 0.2869063 0.9579587 0.0 0.2869063 0.9579587 0.0 0.2869063 0.9579587 0.0 0.2869063 0.9579587 0.0 -0.285121 -0.9584915 0.0 -0.2851211 -0.9584915 0.0 -0.285121 -0.9584915 0.0 -0.285121 -0.9584915 0.0 -0.9548115 0.297212 0.0 -0.9548115 0.297212 0.0 -0.9548115 0.297212 0.0 -0.9548115 0.297212 0.0 0.9559417 -0.2935565 0.0 0.9559417 -0.2935565 0.0 0.9559417 -0.2935565 0.0 0.9559417 -0.2935564 0.0 -0.288684 -0.9574244 0.0 -0.288684 -0.9574245 0.0 -0.288684 -0.9574244 0.0 -0.288684 -0.9574245 0.0 0.9551231 -0.2962092 0.0 0.9551231 -0.2962092 0.0 0.9551231 -0.2962092 0.0 0.9551231 -0.2962092 0.0 -0.9550608 0.2964099 0.0 -0.9550608 0.29641 0.0 -0.9550608 0.2964099 0.0 -0.9550608 0.2964099 0.0 0.2883652 0.9575205 0.0 0.2883652 0.9575205 0.0 0.2883652 0.9575205 0.0 0.2883652 0.9575205 0.0 0.490417 -0.1520189 0.8581268 0.4904461 -0.1520143 0.8581108 0.4905203 -0.1520562 0.858061 0.4904212 -0.152042 0.8581203 0.4903362 -0.1519862 0.8581787 0.490448 -0.1519773 0.8581163 0.4903943 -0.1520143 0.8581405 0.4903173 -0.1520605 0.8581763 -0.9558506 0.2938531 0.0 -0.9558507 0.2938531 0.0 -0.9558506 0.2938531 0.0 -0.9558506 0.2938531 0.0 0.9552494 -0.2958017 0.0 0.9552494 -0.2958017 0.0 0.9552494 -0.2958017 0.0 0.9552494 -0.2958017 0.0</float_array>
                    <technique_common>
                        <accessor count="86" source="#geometry0-normal-array" stride="3">
                            <param name="X" type="float"/>
                            <param name="Y" type="float"/>
                            <param name="Z" type="float"/>
                        </accessor>
                    </technique_common>
                </source>
                <vertices id="geometry0-vertex">
                    <input semantic="POSITION" source="#geometry0-position"/>
                </vertices>
                <triangles count="40" material="default_ai_0.2_sh_0.2_tr_0.0_dc_r_0.8_g_0.8_b_0.8_sc_r_1.0_g_1.0_b_1.0_ec_r_0.0_g_0.0_b_0_tri">
                    <input offset="0" semantic="VERTEX" source="#geometry0-vertex"/>
                    <input offset="1" semantic="NORMAL" source="#geometry0-normal"/>
                    <p>13 0 0 1 3 2 13 0 3 2 27 3 12 4 25 5 26 6 12 4 26 6 24 7 16 16 15 17 17 18 16 16 17 18 18 19 20 20 22 21 6 22 22 21 18 23 6 22 6 22 18 23 7 24 7 24 18 23 26 25 26 25 18 23 24 26 24 26 18 23 10 27 10 27 18 23 11 28 11 28 18 23 2 29 18 23 17 30 2 29 17 30 23 31 2 29 2 29 23 31 3 32 3 32 23 31 27 33 21 34 16 35 18 36 21 34 18 36 22 37 9 38 12 39 24 40 9 38 24 40 10 41 14 42 13 43 27 44 14 42 27 44 23 45 0 46 1 47 2 48 0 46 2 48 3 49 5 50 19 51 20 52 5 50 20 52 6 53 15 54 14 55 23 56 15 54 23 56 17 57 4 58 5 59 6 60 4 58 6 60 7 61 8 62 9 63 10 64 8 62 10 64 11 65 25 66 4 67 7 68 25 66 7 68 26 69 1 78 8 79 11 80 1 78 11 80 2 81 19 82 21 83 22 84 19 82 22 84 20 85</p>
                </triangles>
                <triangles count="12" material="default_ai_0.2_sh_0.2_tr_0.0_dc_r_1.0_g_0.2_b_0.2_sc_r_1.0_g_1.0_b_1.0_ec_r_0.0_g_0.0_b_0_tri">
                    <input offset="0" semantic="VERTEX" source="#geometry0-vertex"/>
                    <input offset="1" semantic="NORMAL" source="#geometry0-normal"/>
                    <p>14 8 15 9 12 10 14 8 12 10 9 11 14 8 9 11 8 12 14 8 8 12 1 13 14 8 1 13 0 14 14 8 0 14 13 15 25 70 12 71 15 72 25 70 15 72 16 73 25 70 16 73 21 74 25 70 21 74 19 75 25 70 19 75 5 76 25 70 5 76 4 77</p>
                </triangles>
            </mesh>
        </geometry>
    </library_geometries>
    <library_visual_scenes>
        <visual_scene id="Building_DEBW_5221000QZB6">
            <node>
                <instance_geometry url="#geometry0">
                    <bind_material>
                        <technique_common>
                            <instance_material symbol="default_ai_0.2_sh_0.2_tr_0.0_dc_r_0.8_g_0.8_b_0.8_sc_r_1.0_g_1.0_b_1.0_ec_r_0.0_g_0.0_b_0_tri" target="#default_ai_0.2_sh_0.2_tr_0.0_dc_r_0.8_g_0.8_b_0.8_sc_r_1.0_g_1.0_b_1.0_ec_r_0.0_g_0.0_b_0_mat"/>
                            <instance_material symbol="default_ai_0.2_sh_0.2_tr_0.0_dc_r_1.0_g_0.2_b_0.2_sc_r_1.0_g_1.0_b_1.0_ec_r_0.0_g_0.0_b_0_tri" target="#default_ai_0.2_sh_0.2_tr_0.0_dc_r_1.0_g_0.2_b_0.2_sc_r_1.0_g_1.0_b_1.0_ec_r_0.0_g_0.0_b_0_mat"/>
                        </technique_common>
                    </bind_material>
                </instance_geometry>
            </node>
        </visual_scene>
    </library_visual_scenes>
    <scene>
        <instance_visual_scene url="#Building_DEBW_5221000QZB6"/>
    </scene>
</COLLADA>
