<?xml version="1.0" encoding="UTF-8" standalone="yes"?>
<COLLADA xmlns="http://www.collada.org/2005/11/COLLADASchema" version="1.4.1">
    <asset>
        <contributor>
            <authoring_tool>3D City Database Importer/Exporter, version 5.5.3; Chair of Geoinformatics, Technical University of Munich</authoring_tool>
        </contributor>
        <created>2026-05-06T15:12:10.024</created>
        <modified>2026-05-06T15:12:10.024</modified>
        <unit meter="1.0" name="meters"/>
        <up_axis>Z_UP</up_axis>
    </asset>
    <library_materials>
        <material id="default_ai_0.2_sh_0.2_tr_0.0_dc_r_0.8_g_0.8_b_0.8_sc_r_1.0_g_1.0_b_1.0_ec_r_0.0_g_0.0_b_0_mat">
            <instance_effect url="#default_ai_0.2_sh_0.2_tr_0.0_dc_r_0.8_g_0.8_b_0.8_sc_r_1.0_g_1.0_b_1.0_ec_r_0.0_g_0.0_b_0_eff"/>
        </material>
        <material id="default_ai_0.2_sh_0.2_tr_0.0_dc_r_1.0_g_0.2_b_0.2_sc_r_1.0_g_1.0_b_1.0_ec_r_0.0_g_0.0_b_0_mat">
            <instance_effect url="#default_ai_0.2_sh_0.2_tr_0.0_dc_r_1.0_g_0.2_b_0.2_sc_r_1.0_g_1.0_b_1.0_ec_r_0.0_g_0.0_b_0_eff"/>
        </material>
    </library_materials>
    <library_effects>
        <effect id="default_ai_0.2_sh_0.2_tr_0.0_dc_r_0.8_g_0.8_b_0.8_sc_r_1.0_g_1.0_b_1.0_ec_r_0.0_g_0.0_b_0_eff">
            <profile_COMMON>
                <technique sid="COMMON">
                    <lambert>
                        <emission>
                            <color>0.0 0.0 0.0 1.0</color>
                        </emission>
                        <diffuse>
                            <color>0.8 0.8 0.8 1.0</color>
                        </diffuse>
                        <reflective>
                            <color>1.0 1.0 1.0 1.0</color>
                        </reflective>
                        <reflectivity>
                            <float>0.2</float>
                        </reflectivity>
                        <transparent opaque="A_ONE">
                            <color>1.0 1.0 1.0 1.0</color>
                        </transparent>
                        <transparency>
                            <float>1.0</float>
                        </transparency>
                    </lambert>
                </technique>
                <extra>
                    <technique profile="GOOGLEEARTH">
                        <double_sided>0</double_sided>
                    </technique>
                </extra>
            </profile_COMMON>
        </effect>
        <effect id="default_ai_0.2_sh_0.2_tr_0.0_dc_r_1.0_g_0.2_b_0.2_sc_r_1.0_g_1.0_b_1.0_ec_r_0.0_g_0.0_b_0_eff">
            <profile_COMMON>
                <technique sid="COMMON">
                    <lambert>
                        <emission>
                            <color>0.0 0.0 0.0 1.0</color>
                        </emission>
                        <diffuse>
                            <color>1.0 0.2 0.2 1.0</color>
                        </diffuse>
                        <reflective>
                            <color>1.0 1.0 1.0 1.0</color>
                        </reflective>
                        <reflectivity>
                            <float>0.2</float>
                        </reflectivity>
                        <transparent opaque="A_ONE">
                            <color>1.0 1.0 1.0 1.0</color>
                        </transparent>
                        <transparency>
                            <float>1.0</float>
                        </transparency>
                    </lambert>
                </technique>
                <extra>
                    <technique profile="GOOGLEEARTH">
                        <double_sided>0</double_sided>
                    </technique>
                </extra>
            </profile_COMMON>
        </effect>
    </library_effects>
    <library_geometries>
        <geometry id="geometry0">
            <mesh>
                <source id="geometry0-position">
                    <float_array id="geometry0-position-array" count="126">-0.365 -1.592 6.322 1.228 -1.958 5.012 0.0 0.0 5.012 -2.493 -2.925 6.322 -2.862 -4.518 5.012 0.0 0.0 0.0 1.228 -1.958 0.0 -2.862 -4.518 0.0 -4.082 -2.557 0.0 -4.082 -2.557 5.012 -9.882 7.382 7.955 -7.322 8.982 7.955 -7.322 8.982 0.0 -9.882 7.382 0.0 -0.002 0.002 9.083 0.0 0.0 9.081 -0.002 0.002 0.0 -7.482 9.262 0.0 -7.342 9.922 0.0 -5.832 10.952 0.0 -5.092 10.782 0.0 -4.912 10.482 0.0 -0.882 13.002 0.0 2.649 7.354 0.0 5.208 3.262 0.0 -4.722 -2.958 0.0 -7.273 1.152 0.0 -9.122 4.132 0.0 -10.792 6.822 0.0 -4.722 -2.958 9.077 -7.273 1.152 12.192 5.208 3.262 9.085 -4.912 10.482 7.959 -0.882 13.002 7.958 -7.482 9.262 7.75 -5.832 10.952 7.395 -5.092 10.782 7.736 -9.122 4.132 9.963 2.649 7.354 12.192 -7.342 9.922 7.442 -10.792 6.822 7.95 -4.082 -2.557 9.078</float_array>
                    <technique_common>
                        <accessor count="42" source="#geometry0-position-array" stride="3">
                            <param name="X" type="float"/>
                            <param name="Y" type="float"/>
                            <param name="Z" type="float"/>
                        </accessor>
                    </technique_common>
                </source>
                <source id="geometry0-normal">
                    <float_array id="geometry0-normal-array" count="444">-0.8496433 -0.5273577 0.0 -0.8496433 -0.5273577 0.0 -0.8496433 -0.5273577 0.0 -0.8496435 -0.5273577 0.0 -0.5240974 0.8516583 0.0 -0.5240974 0.8516583 0.0 -0.5240974 0.8516583 0.0 -0.5240974 0.8516583 0.0 0.5309505 -0.8474028 0.0 0.5309506 -0.8474029 0.0 0.5309506 -0.8474029 0.0 0.5309505 -0.8474028 0.0 0.5309505 -0.8474028 0.0 -0.8497239 -0.527228 0.0 -0.8497239 -0.527228 0.0 -0.8497239 -0.527228 0.0 -0.8497239 -0.527228 0.0 -0.529999 0.8479983 0.0 -0.529999 0.8479983 0.0 -0.529999 0.8479983 0.0 -0.529999 0.8479983 0.0 0.2869136 -0.4590279 0.8408174 0.2869129 -0.4590052 0.84083 0.2869017 -0.4590712 0.8407978 0.286896 -0.4591044 0.8407818 0.2868776 -0.459158 0.8407587 -0.2806539 0.4458061 0.8499943 -0.2806539 0.4458061 0.8499943 -0.2806539 0.4458061 0.8499943 0.3113409 -0.4979749 0.8093749 0.3113409 -0.4979749 0.8093749 0.3113409 -0.4979749 0.8093749 -0.3981303 0.6355754 0.6614651 -0.3981308 0.6355757 0.6614647 -0.3981303 0.6355754 0.6614651 -0.3981298 0.6355752 0.6614656 -0.8682432 -0.496139 0.0 -0.8682432 -0.496139 0.0 -0.8682432 -0.496139 0.0 -0.8682432 -0.496139 0.0 0.5308571 -0.8474614 0.0 0.5308571 -0.8474614 0.0 0.5308571 -0.8474614 0.0 0.5308571 -0.8474614 0.0 -0.5308571 0.8474614 0.0 -0.5308571 0.8474614 0.0 -0.5308571 0.8474614 0.0 -0.5308571 0.8474614 0.0 0.8574926 0.5144964 0.0 0.8574926 0.5144964 0.0 0.8574926 0.5144964 0.0 0.8574926 0.5144964 0.0 0.3981127 -0.635797 0.6612629 0.3983231 -0.6358827 0.6610535 0.3981127 -0.635797 0.6612629 0.3979022 -0.635711 0.6614721 0.5308571 -0.8474613 0.0 0.5308571 -0.8474613 0.0 0.5308571 -0.8474613 0.0 0.5308571 -0.8474613 0.0 0.5304376 -0.847724 0.0 0.5304376 -0.847724 0.0 0.5304376 -0.847724 0.0 0.5304376 -0.847724 0.0 -0.9782342 0.2075041 0.0 -0.9782342 0.207504 0.0 -0.9782342 0.2075041 0.0 -0.9782342 0.2075041 0.0 0.5305577 -0.8476488 0.0 0.5305577 -0.8476488 0.0 0.5305577 -0.8476488 0.0 0.5305577 -0.8476488 0.0 -0.636939 -0.3962598 0.6612766 -0.636939 -0.3962598 0.6612766 -0.636939 -0.3962598 0.6612766 0.0 0.0 -1.0 0.0 0.0 -1.0 0.0 0.0 -1.0 0.0 0.0 -1.0 0.0 0.0 -1.0 0.0 0.0 -1.0 0.0 0.0 -1.0 0.0 0.0 -1.0 0.0 0.0 -1.0 0.0 0.0 -1.0 0.0 0.0 -1.0 0.0 0.0 -1.0 0.0 0.0 -1.0 0.0 0.0 -1.0 0.0 0.0 -1.0 0.0 0.0 -1.0 0.0 0.0 -1.0 -0.8495914 -0.5274415 0.0 -0.8495914 -0.5274415 0.0 -0.8495914 -0.5274415 0.0 -0.8495914 -0.5274415 0.0 0.2238977 0.9746127 0.0 0.2238977 0.9746127 0.0 0.2238977 0.9746127 0.0 0.2238977 0.9746127 0.0 0.8478585 0.5302225 0.0 0.8478585 0.5302225 0.0 0.8478585 0.5302225 0.0 0.8478585 0.5302224 0.0 0.0 0.0 -1.0 0.0 0.0 -1.0 0.0 0.0 -1.0 0.0 0.0 -1.0 -0.2844884 0.4549512 0.8438518 -0.2843204 0.4548576 0.8439588 -0.2843236 0.4548777 0.8439469 -0.2842467 0.4548368 0.8439949 -0.2848718 0.4551113 0.8436361 -0.2849709 0.4551935 0.8435583 -0.2841709 0.4548454 0.8440158 -0.2844367 0.4548881 0.8439033 -0.2845457 0.4548519 0.843886 -0.2845834 0.4547215 0.8439435 -0.2848639 0.4545235 0.8439555 -0.2858576 0.4543655 0.8437047 -0.8490913 -0.5282463 0.0 -0.8490913 -0.5282463 0.0 -0.8490913 -0.5282463 0.0 -0.8490913 -0.5282463 0.0 0.8479308 0.5301068 0.0 0.8479308 0.5301069 0.0 0.8479308 0.5301068 0.0 0.8479308 0.5301068 0.0 -0.5635064 0.8261117 0.0 -0.5635064 0.8261117 0.0 -0.5635064 0.8261117 0.0 -0.5635064 0.8261117 0.0 -0.530188 0.8478801 0.0 -0.5301879 0.8478801 0.0 -0.530188 0.8478801 0.0 -0.530188 0.8478801 0.0 0.6354338 0.3985254 0.6613633 0.6354338 0.3985254 0.6613633 0.6354338 0.3985254 0.6613633 0.8471708 0.5313206 0.0 0.8471708 0.5313206 0.0 0.8471708 0.5313206 0.0 0.8471708 0.5313206 0.0 0.7071068 0.7071067 0.0 0.7071068 0.7071068 0.0 0.7071068 0.7071068 0.0 0.7071068 0.7071067 0.0 0.7071068 0.7071067 0.0</float_array>
                    <technique_common>
                        <accessor count="148" source="#geometry0-normal-array" stride="3">
                            <param name="X" type="float"/>
                            <param name="Y" type="float"/>
                            <param name="Z" type="float"/>
                        </accessor>
                    </technique_common>
                </source>
                <vertices id="geometry0-vertex">
                    <input semantic="POSITION" source="#geometry0-position"/>
                </vertices>
                <triangles count="63" material="default_ai_0.2_sh_0.2_tr_0.0_dc_r_0.8_g_0.8_b_0.8_sc_r_1.0_g_1.0_b_1.0_ec_r_0.0_g_0.0_b_0_tri">
                    <input offset="0" semantic="VERTEX" source="#geometry0-vertex"/>
                    <input offset="1" semantic="NORMAL" source="#geometry0-normal"/>
                    <p>29 0 30 1 26 2 29 0 26 2 25 3 40 4 10 5 13 6 40 4 13 6 28 7 25 8 8 9 9 10 25 8 9 10 41 11 25 8 41 11 29 12 30 13 37 14 27 15 30 13 27 15 26 16 10 17 11 18 12 19 10 17 12 19 13 20 11 36 34 37 17 38 11 36 17 38 12 39 9 40 8 41 5 42 9 40 5 42 2 43 5 44 8 45 9 46 5 44 9 46 2 47 36 48 32 49 21 50 36 48 21 50 20 51 41 56 9 57 2 58 41 56 2 58 15 59 31 60 14 61 16 62 31 60 16 62 24 63 34 64 39 65 18 66 34 64 18 66 17 67 1 68 4 69 7 70 1 68 7 70 6 71 17 75 18 76 12 77 18 76 19 78 12 77 19 78 20 79 12 77 20 79 21 80 12 77 12 77 21 80 13 81 22 82 23 83 21 80 21 80 23 83 13 81 13 81 23 83 28 84 28 84 23 83 27 85 27 85 23 83 26 86 26 86 23 83 25 87 25 87 23 83 8 88 24 89 16 90 23 83 23 83 16 90 8 88 8 88 16 90 5 91 37 92 40 93 28 94 37 92 28 94 27 95 35 96 36 97 20 98 35 96 20 98 19 99 38 100 31 101 24 102 38 100 24 102 23 103 5 104 6 105 7 106 5 104 7 106 8 107 4 120 9 121 8 122 4 120 8 122 7 123 33 124 38 125 23 126 33 124 23 126 22 127 39 128 35 129 19 130 39 128 19 130 18 131 32 132 33 133 22 134 32 132 22 134 21 135 2 139 1 140 6 141 2 139 6 141 5 142 5 143 16 144 14 145 2 146 5 143 14 145 2 146 14 145 15 147</p>
                </triangles>
                <triangles count="21" material="default_ai_0.2_sh_0.2_tr_0.0_dc_r_1.0_g_0.2_b_0.2_sc_r_1.0_g_1.0_b_1.0_ec_r_0.0_g_0.0_b_0_tri">
                    <input offset="0" semantic="VERTEX" source="#geometry0-vertex"/>
                    <input offset="1" semantic="NORMAL" source="#geometry0-normal"/>
                    <p>31 21 38 22 30 23 14 24 31 21 30 23 14 24 30 23 29 25 14 26 29 27 41 28 14 29 41 30 15 31 3 32 0 33 2 34 3 32 2 34 9 35 0 52 3 53 4 54 0 52 4 54 1 55 3 72 9 73 4 74 37 108 30 109 38 110 37 108 38 110 33 111 37 108 33 111 32 112 37 108 32 112 36 113 37 108 36 113 35 114 10 115 40 116 37 108 11 117 10 115 37 108 11 117 37 108 35 114 11 117 35 114 39 118 11 117 39 118 34 119 0 136 1 137 2 138</p>
                </triangles>
            </mesh>
        </geometry>
    </library_geometries>
    <library_visual_scenes>
        <visual_scene id="Building_DEBW_52210005KuM">
            <node>
                <instance_geometry url="#geometry0">
                    <bind_material>
                        <technique_common>
                            <instance_material symbol="default_ai_0.2_sh_0.2_tr_0.0_dc_r_0.8_g_0.8_b_0.8_sc_r_1.0_g_1.0_b_1.0_ec_r_0.0_g_0.0_b_0_tri" target="#default_ai_0.2_sh_0.2_tr_0.0_dc_r_0.8_g_0.8_b_0.8_sc_r_1.0_g_1.0_b_1.0_ec_r_0.0_g_0.0_b_0_mat"/>
                            <instance_material symbol="default_ai_0.2_sh_0.2_tr_0.0_dc_r_1.0_g_0.2_b_0.2_sc_r_1.0_g_1.0_b_1.0_ec_r_0.0_g_0.0_b_0_tri" target="#default_ai_0.2_sh_0.2_tr_0.0_dc_r_1.0_g_0.2_b_0.2_sc_r_1.0_g_1.0_b_1.0_ec_r_0.0_g_0.0_b_0_mat"/>
                        </technique_common>
                    </bind_material>
                </instance_geometry>
            </node>
        </visual_scene>
    </library_visual_scenes>
    <scene>
        <instance_visual_scene url="#Building_DEBW_52210005KuM"/>
    </scene>
</COLLADA>
